mtllib assets09_model_183.mtl
# Conker's Bad Fur Day — Real 3D Model (Multiplayer Level Models)
o assets09_model_183
usemtl assets09_model_183_mat

v 0.0000 0.3200 0.0000
v 0.1000 0.1700 -0.0100
v 0.0000 -0.1400 -0.1400
v 0.0000 0.3100 0.0000
v -0.1000 0.1700 -0.0100
v 0.0000 -0.0400 0.0100
v 0.0000 0.1400 0.1500
v 0.0400 0.3200 0.1500
v 0.0000 0.2600 0.1700
v 0.1000 0.1700 -0.0100
v 0.0000 0.3100 0.3100
v 0.0000 0.2600 0.1700
v 0.0400 0.3200 0.1500
v 0.0000 0.1400 0.1500
v 0.0000 0.3700 0.1300
v -0.0400 0.3200 0.1500
v -0.1000 0.1700 -0.0100
v -0.1000 0.1700 -0.0100
v 0.0000 0.2600 0.1700
v -0.0400 0.3200 0.1500
v -0.0400 0.3200 0.1500
v 0.0000 0.2600 0.1700
v 0.0000 0.3100 0.3100
v 0.0000 0.3700 0.1300
v 0.0000 0.3100 0.0000
v 0.1000 0.1700 -0.0100
v 0.0400 0.3200 0.1500
v -0.0900 -0.2600 -0.2600
v 0.0000 -0.0300 -0.0300
v 0.0900 -0.2600 -0.2600
v -7.6900 -0.0100 -0.0200
v 12.8000 5.1600 0.0000
v 12.8600 5.2000 0.0000
v 12.8800 5.1200 0.0000
v 12.8000 5.1600 0.0000
v 12.8400 30.7200 0.0000
vt 0.0000 0.0000
vt 0.0000 0.0000
vt 0.0000 0.0000
vt 0.0000 0.0000
vt 0.0000 0.0000
vt 0.0000 0.0000
vt 0.0000 0.0000
vt 1.9424 0.7578
vt 2.0225 0.6348
vt 3.3945 0.7207
vt 0.1211 0.7305
vt 1.6543 0.5039
vt 1.7959 0.7529
vt 2.3867 0.4980
vt 1.8740 0.9775
vt 1.7959 0.7529
vt 3.3945 0.7207
vt 3.3945 0.7207
vt 2.0225 0.6348
vt 1.9424 0.7578
vt 1.7959 0.7529
vt 1.6543 0.5039
vt 0.1211 0.7305
vt 1.8418 0.8633
vt 3.1143 0.9492
vt 3.3945 0.7207
vt 1.9424 0.7578
vt 1.7510 -0.0088
vt 1.5107 0.7979
vt 0.6768 0.0664
vt 0.2510 0.0312
vt 1.2520 1.5039
vt 1.2559 2.0098
vt 1.2598 2.0000
vt 1.2559 2.0098
vt 1.2617 3.5000
f 6/6 2/2 25/25
f 1/1 2/2 3/3
f 2/2 4/4 3/3
f 4/4 2/2 5/5
f 4/4 5/5 6/6
f 5/5 2/2 1/1
f 6/6 5/5 1/1
f 7/7 8/8 9/9
f 10/10 11/11 12/12
f 8/8 13/13 9/9
f 10/10 14/14 15/15
f 10/10 12/12 14/14
f 16/16 13/13 8/8
f 1/1 2/2 3/3
f 4/4 5/5 6/6
f 3/3 7/7 1/1
f 7/7 8/8 1/1
f 7/7 9/9 8/8
f 7/7 10/10 9/9
f 11/11 12/12 13/13
