mtllib assets09_model_083.mtl
# Conker's Bad Fur Day — Real 3D Model (Multiplayer Level Models)
o assets09_model_083
usemtl assets09_model_083_mat

v 0.0000 3.7600 0.0000
v 35.1500 4.7300 -0.0100
v 35.1300 0.4700 -0.0100
v 35.1300 0.4700 -0.0100
v 35.1500 4.7300 -0.0100
v 2.3300 3.8500 -0.0100
v 2.3300 3.8500 -0.0100
v 2.3200 0.9800 -0.0100
v 2.3200 0.9800 -0.0100
v 0.5200 2.4000 -0.0100
v 0.0000 0.0000 -0.0100
v 0.0000 0.0000 -0.0100
v 0.0000 0.0000 -0.0100
v 0.0000 0.0000 -0.0100
v 0.0000 0.0000 -0.0100
v 0.0000 0.0000 -0.0100
v 0.0000 0.0000 -0.0100
v 0.0000 0.0000 -0.0100
v 0.0000 0.0000 -0.0100
v 0.0000 0.0000 -0.0100
v -28.0000 0.0000 17.9200
v -33.2800 0.0000 18.5500
v -28.1600 2.5600 15.3600
v -7.5200 0.0000 0.6400
v 15.3600 5.1600 0.0600
v -7.5200 0.0000 0.6400
v -28.0800 11.5200 2.5700
v -28.0800 6.7200 5.1200
v -28.0800 6.8000 7.6800
v 15.4600 35.9000 0.1800
vt 0.0000 0.0000
vt -0.0029 -0.0039
vt 0.0029 -0.0039
vt 0.0029 0.0049
vt 0.0020 0.0000
vt 0.0020 0.0029
vt 0.0020 -0.0029
vt -0.0020 -0.0029
vt 0.0000 0.0000
vt -0.0010 0.0000
vt 0.0000 -0.0020
vt 0.0000 -0.0088
vt 0.0020 0.0049
vt 0.0000 0.0049
vt 0.0000 -0.0029
vt 0.0000 -0.0088
vt 0.0000 -0.0078
vt 0.0000 -0.0029
vt 0.0000 -0.0078
vt 0.0000 0.3750
vt -6.5000 0.0000
vt -6.2500 0.0000
vt -6.5000 0.0000
vt -4.0000 0.0000
vt -10.2500 2.2520
vt -4.0000 0.0000
vt -3.5000 8.0020
vt -3.5000 8.0020
vt -3.5000 8.0020
vt -9.5049 -0.0010
f 1/1 2/2 3/3
f 4/4 5/5 6/6
f 6/6 8/8 4/4
f 10/10 9/9 1/1
