# Conker's Bad Fur Day — Real 3D Model (Multiplayer Level Models)
o assets09_model_240

v 0.0000 7.1200 0.0000
v -27.3600 0.0000 17.9200
v -27.4400 20.4800 0.0100
v -7.5200 0.0000 0.6400
v 15.3600 5.1600 0.0400
v -33.2800 0.0000 18.3500
v -27.4400 11.5200 2.6500
v -27.4400 6.7200 5.2000
v -27.4400 6.8000 7.7600
v -27.4400 6.8400 10.3200
v -7.5200 0.0000 0.6400
v -33.2800 0.0000 18.5500
v 12.8000 25.7800 0.0000
vt 0.0000 0.0000
vt -3.2500 0.0000
vt -3.4375 9.0020
vt -2.6562 0.2500
vt 1.2539 1.5078
vt -2.6797 2.0000
vt -3.4688 8.5020
vt -3.4844 8.2520
vt -3.4922 8.1270
vt -3.4961 8.0645
vt -6.5000 0.0000
vt -2.6797 2.0000
vt -8.2500 0.0000
f 1/1 2/2 3/3
f 3/3 2/2 4/4
f 3/3 4/4 5/5
f 3/3 9/9 7/7
f 3/3 7/7 1/1
f 1/1 6/6 10/10
