# Conker's Bad Fur Day — Real 3D Model (Bat's Tower Level Models)
o assets0A_model_013

v 0.0000 38.5600 0.0000
v 0.0000 39.2000 0.0000
v 0.0000 -30.4000 0.0000
v 0.0000 -22.9600 0.0000
v 0.0000 -22.3200 0.0000
v 0.0000 -13.8400 0.0000
v 0.0000 -5.6000 0.0000
v 0.0100 7.6800 0.0000
v 0.0100 18.4000 0.0000
v 0.0100 21.9200 0.0000
v 0.0100 25.6000 0.0000
v 0.0100 29.2800 0.0000
v 0.0100 31.0400 0.0000
v 0.0100 32.8800 0.0000
v 0.0100 34.6400 0.0000
v 0.0100 36.4000 0.0000
v 0.0100 38.7200 0.0000
v 0.1000 0.1100 0.0000
v 0.1000 0.4100 0.1300
v -29.0400 -10.5000 -5.7000
v 0.1000 1.5100 0.0900
v 20.8000 -10.5600 8.6400
v 0.1000 0.4000 0.1200
v -17.5400 5.1700 14.1300
v 19.8800 23.1200 0.0000
v 5.7600 1.6000 0.5600
v 7.6800 0.0000 0.0000
v 7.6800 3.5200 -20.1600
v -15.2900 -0.5800 -8.5600
v 0.1000 0.3100 0.1500
v 3.6000 -24.5900 -16.8900
v 7.6800 0.0000 0.0000
v 0.0700 -10.8100 0.0900
v 7.6800 0.0000 0.0000
v 7.6800 0.0000 0.0000
v -2.8400 -7.3100 0.0900
v 0.0800 0.0000 0.0000
v 0.1000 0.4600 0.2000
v -29.6900 -33.5300 -4.0800
v -8.5600 -2.2100 -5.3900
v 7.6800 0.0000 0.0000
v -0.2700 -10.8200 0.0900
v 0.1000 0.2500 0.0600
v 8.6400 3.2000 -1.2800
v -26.4700 0.0000 0.0000
v 0.0000 0.0000 -16.5600
v 0.1000 0.5300 0.2000
v 7.6800 0.0000 0.0000
v 0.0700 -9.8300 -7.6300
v 0.0000 0.0000 0.0900
v 0.1000 0.4100 0.1900
v 0.0700 -39.9200 -27.4500
v -6.9900 -31.2900 -10.4900
v 7.6800 0.0000 0.0000
v -11.7800 -20.7300 -13.0500
v 0.0000 0.0000 0.0900
v 7.6800 0.0000 0.0000
v 0.0000 0.0000 0.0700
v 0.1000 0.4000 0.2300
v 0.0800 -11.1400 -5.7000
v 0.1000 0.7100 0.1500
v -18.1600 0.0000 0.0000
v -5.3900 -26.7900 0.0000
v 0.1000 0.5500 0.1800
v 5.2100 0.0400 -2.8400
v 0.1000 0.2600 0.0900
v 6.4900 0.0000 0.0000
v 7.6800 0.0000 0.0000
v -34.1700 -31.2800 0.0000
v 0.0600 -17.5400 0.0800
v 0.1000 0.6200 0.1500
v 0.0800 -0.9400 -0.9400
v 0.1000 0.6000 0.2000
v 0.0000 -2.1800 0.0000
v -5.0400 -12.7100 -5.3600
v 9.3900 0.0000 0.0000
v 9.8900 0.0000 0.0000
v 7.6800 0.0000 0.0000
v 0.1000 0.1000 0.1200
v 0.0000 -22.0100 0.0000
v -7.4400 0.0000 22.4000
v 0.1000 0.6400 0.1900
v -14.3200 0.0600 0.0500
v 7.6800 0.0000 0.0000
v -8.9100 -33.8400 0.0500
v 0.0000 0.0000 0.0800
v -11.1200 0.0800 -27.1300
v 7.6800 0.0000 0.0000
v -0.5800 -11.7800 -21.3500
v 0.1000 0.3400 0.1500
v -8.2300 0.0400 -1.8800
v 7.6800 0.0000 0.0000
v 0.0500 -7.6300 -1.8300
v 0.1000 0.5100 0.1900
v 38.7600 -16.2500 -7.6200
v 25.7600 4.4800 8.0400
v 0.1000 1.0100 0.0600
v -15.3100 -36.7100 -5.1200
v 0.1000 1.0100 0.0400
v -5.4400 -36.8000 -5.1200
v 7.6800 0.0000 0.0000
v -1.2200 -17.5400 0.0900
v 0.1000 0.7100 0.2100
v 0.0900 -2.8300 -4.4400
v -26.1700 -38.3200 -5.3700
v -24.5500 0.0000 1.5500
v 0.1000 1.0600 0.1600
v 0.0700 -0.2900 -0.3100
v -1.8900 -10.8100 0.0000
v 31.1000 -8.7600 26.2400
v 0.1000 1.3900 0.2800
v -4.7600 0.0800 -24.2500
v -4.4200 0.0000 0.0000
v 24.3700 8.9600 -0.0300
v -0.0300 0.0600 0.0600
v -0.0300 0.0600 0.0600
v -0.0300 0.0600 0.0600
v -0.0300 0.0600 0.0600
v -0.0300 0.0600 0.0600
v -0.0300 0.0600 0.0600
v -0.0300 0.0600 0.0600
v -0.0300 0.0600 0.0600
v -0.0300 0.0600 0.0600
v -0.5800 -2.1500 -34.4800
v -0.0300 0.0600 0.0600
v -7.6800 15.3600 15.6200
v 0.0600 0.0900 -20.4100
v -0.0300 0.0600 0.0600
v -0.0300 0.0600 0.0600
v -0.0300 0.0600 0.0600
v -0.0300 0.0600 0.0600
v 0.1000 0.3400 0.1900
v 0.0000 -18.4800 0.0600
v 7.6800 0.0000 0.0000
v 0.0000 -20.4800 0.0000
v 0.0000 0.0000 2.2400
v 7.6800 0.0000 0.0000
v 0.0000 0.0000 11.6000
v 7.6800 0.0000 0.0000
v -4.4200 -3.1200 0.0600
v -3.1600 0.0200 27.2700
v 7.6800 0.0000 0.0000
v -13.6900 -37.3600 -2.1600
v -9.5100 22.1600 1.6500
v 7.6800 0.0000 0.0000
v -5.7000 -7.6300 28.8800
v 0.4100 20.5600 7.1000
v 7.6800 0.0000 0.0000
v 0.3200 -3.2000 0.0000
v -13.4400 1.2800 9.9200
v -0.0300 0.0600 0.0600
v -0.0300 0.0600 0.0600
v -0.0300 0.0600 0.0600
v -0.0300 0.0600 0.0600
v -0.0300 0.0600 0.0600
v -0.0300 0.0600 0.0600
v 3.2000 -0.0300 0.0600
v 0.9000 0.4200 -0.0700
v 0.0600 0.9000 0.4200
v 0.0600 0.0600 0.9000
v -0.0300 0.0600 0.0600
v 0.9000 0.4200 -0.0700
v 0.0600 0.9000 0.4200
v 0.0600 0.0600 0.9000
v -0.0300 0.0600 0.0600
v 0.9000 0.4200 -0.0700
v 0.0600 0.9000 0.4200
v 0.0600 0.0600 0.9000
v 0.1000 0.7100 0.1400
v 2.2700 19.5700 -14.9900
v -0.9400 13.1900 -2.8500
v 0.1000 0.3200 0.1100
v 0.0000 3.5500 25.9500
v 6.4500 0.0000 24.3200
v 1.0300 0.4800 -0.0800
v 0.1000 0.4900 0.1800
v 0.0000 -38.0000 -15.2800
v 1.6000 13.1200 17.2800
v 13.1200 -1.9200 6.7200
v 12.5500 0.0000 0.0000
v 1.0400 0.4800 -0.0800
v 0.0600 1.0400 0.4800
v 0.0600 0.0600 1.0400
v -0.0300 0.0600 0.0600
v 1.0400 0.4800 -0.0800
v 0.0600 1.0400 0.4800
v 0.0600 0.0600 1.0400
v -0.0300 0.0600 0.0600
v -37.3500 -13.4100 -6.0100
v 0.3500 10.3200 -26.1500
v -0.0300 0.0600 0.0600
v 1.0400 0.4800 -0.0800
v 0.0600 1.0400 0.4800
v 0.0600 0.0600 1.0400
v -7.6800 15.3600 15.3600
v -0.0300 0.0600 0.0600
v 1.0400 0.4800 -0.0800
v 0.0600 1.0400 0.4800
v 0.0600 0.0600 1.0400
v 0.1000 0.2300 0.3100
v 0.0300 2.3000 16.7000
v 12.5600 0.0000 0.0000
v 0.3600 0.0400 0.6200
v 30.7200 0.0000 0.0000
v 7.6800 1.2800 0.0000
v 0.9800 0.4500 -0.0800
v 0.9800 0.4500 -0.0800
v 0.9800 0.4500 -0.0800
v 0.1000 1.2400 0.2900
v 0.0000 0.1100 18.3400
v 0.0400 2.3100 -0.2400
v 26.9500 0.9800 0.4700
v 1.0500 0.1300 -1.3800
v 1.0500 0.1300 -1.3800
v 7.6800 0.0000 0.0000
v 0.3900 -36.7100 0.0500
v 0.0700 -0.3100 -0.5500
v 29.5300 24.0500 -14.3300
v 0.1000 0.6100 0.2400
v -25.5000 -29.3700 3.5900
v 0.1000 0.4100 0.2200
v 7.6800 0.0000 0.0000
v -22.0100 -9.2100 -0.5800
v -1.5500 -5.3900 30.4900
v 17.0500 24.9600 7.0400
v 0.9600 0.0000 0.0000
v 20.6800 0.9600 0.0000
v -35.1200 -0.9100 -1.8800
v -0.0300 0.0600 0.0600
v -7.6800 15.3600 17.3400
v -0.0300 0.0600 0.0600
v 2.5500 -7.6800 15.3600
v -7.6800 15.3600 17.3200
v -0.0300 0.0600 0.0600
v -7.6800 15.3600 15.5500
v -0.0300 0.0600 0.0600
v 2.5500 -7.6800 15.3600
v 0.0600 0.0600 10.6200
v -7.6800 15.3600 17.3300
v -10.8200 0.0600 -16.2300
v 0.0700 0.0000 0.0000
v -0.0300 0.0600 0.0600
v 0.0600 0.0600 1.3000
v -7.6800 15.3600 15.4700
v 11.3600 -0.0300 0.0600
v -0.0300 0.0600 0.0600
v 0.0600 0.0600 -37.9000
v 7.6800 0.0000 0.0000
v 7.6800 0.0000 0.0000
v -0.5800 -19.4500 0.0000
v 0.0000 0.0000 0.0700
v 0.0700 6.7200 12.8000
v 7.6800 0.0000 0.0000
v 14.4600 10.6300 0.0600
v 0.0000 0.0000 0.0800
v 0.0900 6.7200 12.8000
v 7.6800 0.0000 0.0000
v 7.6800 0.0000 0.0000
v -6.4000 -36.8000 0.0000
v 7.6800 0.0000 0.0000
v -6.4000 -36.8000 0.0000
v 7.6800 0.0000 0.0000
v 16.4000 -35.4300 0.0900
v 0.1000 0.9100 0.2100
v -11.7600 -1.5300 -9.8500
v 7.6800 0.0000 0.0000
v -28.4100 -23.2900 0.0900
v 0.0900 -35.7600 -8.8900
v 0.1000 0.4500 0.2100
v 0.0800 0.0600 -11.7800
v 0.1000 0.6100 0.0800
v -7.0000 -13.0500 -9.2300
v 9.6000 8.6900 0.0000
v 0.1000 0.1500 0.1200
v -7.3600 31.3900 11.8400
v -4.1200 -32.5600 -2.2400
v 0.1000 0.7000 0.0000
v 1.2800 -38.7200 -16.6400
v 0.0000 -8.3200 -3.5200
v 0.1000 0.7800 0.0400
v -7.3600 31.3600 11.8400
v -0.9600 13.1200 -2.2400
v 7.6800 0.0000 0.0000
v -1.8900 -9.2100 0.0000
v 29.4400 -8.6200 -0.3100
v 0.1000 0.1700 0.1700
v -7.2900 18.6200 -4.4200
v -0.9100 3.5700 -10.8300
v 7.6800 0.0000 0.0000
v -15.2800 -4.4200 -39.9200
v -34.4000 3.8600 15.8700
v 0.1000 0.6100 0.2000
v 23.7500 -0.2900 -28.4200
v 0.1000 0.8100 0.2200
v 0.1000 0.5100 0.0000
v 1.2800 -38.7200 -16.6400
v 0.0000 -8.3200 -3.5200
v 0.1000 1.0100 0.1700
v -26.8000 -38.6400 -23.6000
v -4.7200 -8.6000 -3.8000
v 0.1000 0.6100 0.2000
v 36.8600 1.9800 -18.8100
v -29.3600 -14.6300 -21.6900
v 0.1000 0.6100 0.2300
v -0.8800 -22.3300 -14.0100
v 0.1000 0.8100 0.2200
v -2.7900 -36.7300 -11.7700
v -18.1700 -6.9500 -14.3600
v 0.1000 0.5100 0.1800
v 8.3800 -27.1400 -20.1000
v -15.3000 -18.1500 -13.4000
v 0.1000 0.5100 0.2200
v 30.4800 -8.2600 -2.1900
v 37.1300 1.6500 12.0000
v 7.6800 0.0000 0.0000
v 0.1000 1.6100 0.2000
v -0.0300 0.0600 0.0600
v -0.0300 0.0600 0.0600
v 4.3200 1.2500 0.0100
v -0.0300 0.0600 0.0600
v -0.0300 0.0600 0.0600
v 0.5100 0.0000 0.3200
v -0.0300 0.0600 0.0600
v -0.0300 0.0600 0.0600
v -0.0300 0.0600 0.0600
v -0.0300 0.0600 0.0600
v -0.0300 0.0600 0.0600
v 27.3600 5.7100 0.5900
v -0.0300 0.0600 0.0600
v 20.3200 5.5100 0.6100
v -0.0300 0.0600 0.0600
v 16.8000 5.4500 0.7800
v -0.0300 0.0600 0.0600
v 13.6000 5.4100 0.6200
v -0.0300 0.0600 0.0600
v 12.3200 5.4100 0.6100
v -0.0300 0.0600 0.0600
v 13.2800 5.4500 0.6100
v -0.0300 0.0600 0.0600
v 17.4400 5.5100 0.6100
v -0.0300 0.0600 0.0600
v 36.0000 5.7100 0.6100
v -0.0300 0.0600 0.0600
v -0.0300 0.0600 0.0600
v -0.0300 0.0600 0.0600
v -0.0300 0.0600 0.0600
v -0.0300 0.0600 0.0600
v 6.4000 11.2000 0.0000
v 0.0700 7.6800 16.6800
v 0.1000 1.7200 0.2600
v 0.0000 21.8300 -0.2700
v 26.0100 0.0000 0.0000
v -0.0300 0.0600 0.0600
v -0.0100 0.0900 0.0500
v -0.1200 -0.0300 0.1100
v -0.2700 -0.2100 0.1900
v -0.2200 0.2000 32.1400
v -0.2900 -0.2200 0.2000
v 0.1000 0.9100 0.2000
v 7.7500 -18.5000 -17.2100
v 0.0400 -6.6300 -10.8300
v 0.1000 0.8600 0.2100
v 9.0300 -24.2700 -17.8300
v -4.7200 34.6500 -10.8800
v 9.6000 4.3200 2.1000
v 7.6800 0.0000 0.0000
v 17.2600 0.0400 0.0200
v 7.6800 0.0000 0.0000
v 7.6800 0.0000 0.0000
v 25.3600 -23.9100 -13.9900
v 7.6800 0.0000 0.0000
v 37.1200 29.4400 33.6000
v 0.1000 0.4100 0.2000
v -6.6500 -14.6600 -16.2700
v 0.0500 4.8900 -16.9000
v 0.1000 0.4100 0.0300
v -6.3200 23.1100 22.1500
v 7.6800 0.0000 0.0000
v 0.0300 -0.3000 -8.2400
v 0.0800 -22.9700 -9.8700
v 0.1000 2.0000 0.2400
v 19.3900 0.2800 25.6600
v 7.6800 0.0000 0.0000
v 7.6800 0.0000 0.0000
v -16.9000 4.2400 -16.5800
v -4.4300 0.0300 3.9200
v 4.2400 2.6400 1.9900
v 0.4000 4.2000 0.0000
v 7.6800 0.0000 0.0000
v 0.1000 0.6800 0.2300
v 7.6800 0.0000 0.0000
v 0.6500 -26.8800 6.4200
v 7.6800 0.0000 0.0000
v 12.2100 -17.2500 -0.6400
v 7.6800 0.0000 0.0000
v -16.8800 0.0000 -0.2800
v 7.6800 0.0000 0.0000
v 7.6800 0.0000 0.0000
v -4.4800 7.6800 0.9600
v 7.6800 0.0000 0.0000
v -4.4400 0.0500 0.0200
v 0.0400 -7.6300 0.0800
v 0.0000 0.0800 0.0900
v -20.4800 0.0000 0.0000
v 7.6800 0.0000 0.0000
v 4.2200 -7.6200 24.7200
v 0.0900 -37.6700 4.5600
v 1.5000 3.4200 0.0000
v 0.1000 0.3100 0.2000
v 17.3500 -21.6800 -12.7400
v 7.6800 0.0400 0.0500
v 0.0600 0.0700 -4.1200
v 0.0200 0.0400 0.0600
v 0.0700 0.0200 -2.2100
v 7.6800 0.0000 0.0000
v -3.1500 2.5900 2.9600
v -2.8000 -9.8400 -2.8000
v 0.1000 0.5100 0.2200
v -15.4500 0.1000 -22.8100
v 10.2600 37.8600 -17.9100
v 0.1000 0.2100 0.0400
v 7.6800 0.0000 0.0000
v 7.6800 0.0000 0.0000
v 0.2500 0.1000 -38.9700
v 25.6000 7.3600 13.7100
v 0.1000 0.4300 0.1800
v 0.0800 0.0000 0.0000
v -31.6100 -34.1700 -6.3500
v 7.6800 0.0000 0.0000
v 0.1000 0.6100 0.1900
v 0.0700 -21.0500 0.0700
v 0.0400 -3.1200 0.0000
v 0.1000 1.2800 0.2200
v -29.9900 1.9700 -2.1800
v -10.8200 -20.0800 0.0500
v 7.6800 0.0000 0.0000
v 0.0400 0.0500 0.0800
v 0.0800 0.0000 0.0300
v 0.0000 23.0000 2.5600
v 0.1000 1.0100 0.2500
v -9.1800 -24.5700 -11.1400
v -6.3300 -34.7900 0.0700
v 0.1000 1.3100 0.2400
v 22.7900 -11.4300 3.2800
v 0.1000 0.4800 0.2200
v -14.6400 -14.3400 -7.3000
v 0.1000 0.6100 0.1800
v 0.0800 -9.5500 0.0400
v 0.0700 0.0900 -2.5200
v 0.1000 1.2600 0.2400
v 7.6800 0.0000 0.0000
v 10.6000 -7.3000 -30.3100
v 7.6800 0.0000 0.0000
v -2.5600 8.9600 34.8800
v 0.1000 1.1200 0.2400
v 5.2000 -24.2500 -24.2400
v 7.6800 0.0000 0.0000
v 0.0000 0.0000 0.0800
v 7.6800 0.0000 0.0000
v -0.3100 -0.3100 -18.4700
v -22.7500 1.2600 -32.3700
v 7.6800 0.0000 0.0000
v 0.0000 0.0000 0.0900
v 0.1000 0.0900 0.0600
v 0.1000 1.3300 0.2300
v -39.2600 -9.2300 16.3600
v 10.2800 3.8500 8.2800
v 0.1000 1.9600 0.2300
v 18.3100 0.7100 -9.5300
v 0.1000 1.3000 0.2000
v 0.0700 0.0500 -4.7500
v 35.2800 8.3500 31.2800
v 7.6800 0.0000 0.0000
v 7.6800 0.0000 0.0000
v 0.0000 0.0000 -3.1000
v -25.8300 6.4900 -7.9400
v 7.6800 0.0000 0.0000
v -0.2700 -19.1400 34.0000
v -5.0400 -26.8000 24.7200
v 0.1000 2.4700 0.2000
v 15.4500 -6.3300 -3.1400
v 0.1000 2.2100 0.1800
v 18.6500 0.3800 12.2000
v 0.1000 0.5900 0.1800
v 20.2500 -6.3400 3.5800
v 0.1000 0.8900 0.1300
v 0.0900 0.0000 0.0000
v 0.0000 0.0900 0.0000
v 0.1000 0.5600 0.2000
v -32.2400 -11.4600 -4.7500
v 0.1000 0.2900 0.1400
v -25.5200 0.0800 -16.8900
v 0.0800 0.0000 0.0000
v 0.1000 0.2900 0.1500
v -14.9500 0.0000 0.0000
v 7.6800 0.0000 0.0000
v 37.8300 12.2300 3.5800
v 7.6800 0.0000 0.0000
v -0.6200 0.6500 27.6000
v 17.0400 -21.0400 -8.9000
v 8.3200 0.0000 0.5000
v 7.6800 0.0000 0.0000
v 0.0000 0.0000 7.7500
v 3.5900 -9.5400 -25.8500
v 0.1000 0.8200 0.1800
v -2.4800 -0.2700 0.0000
v 0.1000 2.2800 0.1800
v 0.0900 0.0000 0.0000
v 11.8800 33.4600 34.5600
v 7.6800 0.0000 0.0000
v 0.0000 0.0000 -20.0700
v 29.8000 13.4600 5.3700
v 0.1000 0.5300 0.1400
v 9.0400 -3.4400 33.6800
v 20.4800 1.2800 0.5200
v 32.0000 0.5200 2.8000
v 0.5200 2.8000 0.1900
v 7.6800 0.0000 0.0000
v -2.8300 -9.8700 0.0900
v 0.1000 0.7900 0.1000
v -17.8400 0.0000 0.0000
v 7.6800 0.0000 0.0000
v 23.1200 17.9800 12.8400
v 0.0100 2.5900 10.2900
v 7.6800 0.0000 0.0000
v -7.9500 -4.7500 -26.7900
v -11.7500 -22.9700 -6.3200
v 7.6800 0.0000 0.0000
v 34.8800 -2.2400 23.6800
v 0.1000 0.8100 0.2100
v -8.5700 2.6100 15.7300
v 0.1000 1.6600 0.2600
v 0.1000 2.5000 0.2000
v -10.4600 -28.4100 -12.7400
v -22.6400 -35.1000 0.0000
v 0.1000 0.5600 0.1800
v 25.8800 20.4800 0.0800
v 0.1000 0.4100 0.1600
v 0.0600 0.0500 -5.7100
v -22.0100 0.0900 0.0000
v 0.1000 0.5100 0.1900
v -18.8100 0.0900 0.0500
v 0.1000 0.9300 0.1200
v -24.8800 -15.9200 -20.0900
v 0.0800 0.0000 0.0000
v 0.1000 2.1400 0.2200
v -20.3900 -7.6300 0.0500
v 0.1000 0.4000 0.0300
v -26.2400 -3.8100 4.4900
v 33.6600 -1.6000 -1.6000
v 7.6800 0.0000 0.0000
v 0.0000 39.7500 0.0000
v 0.1000 0.4000 0.0100
v 0.1000 0.4000 0.0500
v -26.1900 -4.4500 4.5100
v 7.6800 0.0000 0.0000
v 7.6800 0.0000 0.0000
v 0.1200 1.9500 0.0400
v 7.6800 0.0000 0.0000
v 7.6800 0.0000 0.0000
v 0.1000 2.2700 0.0300
v 0.1000 0.6000 0.1500
v -5.3800 -1.8700 -9.8700
v 1.3800 15.3600 15.5700
v 0.1000 0.2500 0.1200
v 19.9200 -0.5800 -36.4400
v 0.0000 32.3900 0.0000
v 7.6800 0.0000 0.0000
v -37.7600 13.4400 0.0000
v 0.0000 0.0000 -2.2400
v 7.6800 0.0000 0.0000
v 0.0000 0.0000 -2.2400
v 6.7200 33.0200 10.2900
v 7.6800 0.0000 0.0000
v 0.0000 0.0000 -2.2400
v 6.4100 33.6000 10.5600
v 7.6800 0.0000 0.0000
v 0.0000 0.0000 -2.1600
v 6.7900 33.6600 10.6100
v 0.0000 0.0000 0.6400
v 0.1000 0.5000 0.0000
v 22.4000 -13.4400 0.0000
v -0.3200 5.1200 -3.8400
v 0.1000 0.5800 0.1500
v 22.4800 -13.4000 -7.9500
v 0.1000 1.3100 0.0400
v -10.8800 22.4000 0.0000
v 7.6800 0.0000 0.0000
v -14.0100 -32.5600 -2.4700
v 7.6800 0.0000 0.0000
v -9.2100 0.0600 0.0900
v 7.6800 0.0000 0.0000
v -5.7000 -5.7000 -22.3200
v 7.6800 0.0000 0.0000
v 7.4200 -32.5500 -10.1800
v -7.9500 -13.3900 4.5700
v -25.3700 6.7800 -20.2800
v 7.6800 0.0000 0.0000
v -5.7000 -12.7300 -4.4300
v -1.5500 -8.2600 0.0800
v 7.6800 0.0000 0.0000
v -38.6400 -14.3200 -21.0500
v 0.0500 -8.5800 0.0800
v 7.6800 0.0000 0.0000
v -1.8800 2.2800 7.4300
v 14.1400 -35.5400 10.8400
v 7.6800 0.0000 0.0000
v -38.6400 -14.3200 -21.0500
v 0.0500 -8.5800 0.0800
v 7.6800 0.0000 0.0000
v -36.7300 -15.9300 -22.3200
v -0.5700 -21.3700 12.5600
v 7.6800 0.0000 0.0000
v 10.8800 8.3200 13.1200
v 0.1000 1.9300 0.2200
v -2.1600 -22.9600 -11.4500
v 7.6800 0.0000 0.0000
v 0.0000 0.0800 0.0000
v 0.0400 -0.9400 0.0700
v 0.0600 0.0700 0.0700
v 0.0000 0.0000 0.7200
v 0.0000 0.9600 0.0000
v 0.9600 0.0000 0.0000
v 0.0000 0.0000 0.7200
v 0.0000 0.7200 20.7700
v 0.0000 0.9600 0.0000
v 0.9600 0.0000 0.0000
v 0.0000 0.0000 0.7200
v 0.0000 0.7200 20.7700
v 0.0000 0.0000 0.7200
v 7.6800 0.0000 0.0000
v 0.0000 26.8800 -3.8400
v 7.6800 0.0000 0.0000
v 0.0000 0.0000 0.0700
v 2.9200 16.6400 0.0400
v 1.5400 2.9200 16.6400
v 11.5200 0.0000 0.0000
v 7.6800 0.0000 0.0000
v 0.0000 0.0000 -11.7600
v 7.6800 0.0000 0.0000
v 0.0000 0.0000 -16.2300
v -27.1100 -7.6300 -4.4400
v 0.1000 0.6100 0.1600
v -24.2500 -14.6400 -29.3600
v 0.0000 0.0700 0.0700
v -24.8900 -31.9100 0.0000
v 0.1000 1.1100 0.2000
v 0.1000 0.0000 0.0000
v 27.1000 -18.2000 3.8500
v 7.6800 0.0000 0.0000
v 0.0700 0.0700 0.0000
v 7.6800 0.0000 0.0000
v 20.8000 37.1200 0.0000
v 0.1000 0.9100 0.0400
v -10.8800 22.4000 0.0000
v 0.1000 0.0600 0.0700
v -9.2800 20.8000 10.8800
v 28.8000 0.0000 0.0000
v 7.6800 0.0000 0.0000
v -22.7200 28.4800 2.5600
v 0.1000 0.4100 0.1400
v 0.0000 -9.8600 -1.8500
v 0.1000 0.4000 0.0800
v 1.3400 6.1400 -19.4600
v 0.0000 -7.3100 21.1400
v 7.6800 0.0000 0.0000
v -22.1400 0.1000 -31.6100
v 29.4400 39.6800 3.3000
v 0.1000 2.4100 0.1500
v 25.6400 0.0000 0.0000
v 17.2800 3.0400 13.0100
v 10.1100 0.6400 0.0000
v 0.1000 1.0100 0.0700
v -0.9200 16.3300 -33.8600
v 0.0000 -3.4800 22.0800
v 7.6800 0.0000 0.0000
v 0.0500 -0.3100 0.0700
v 0.1000 0.5100 0.2000
v -18.8200 2.6200 23.4500
v -31.2700 -37.0500 -10.1700
v 7.6800 0.0000 0.0000
v -33.8500 -37.0500 0.0000
v -38.6500 0.0700 -4.3900
v 0.0900 0.0900 0.0800
v 1.2100 0.1400 0.0000
v 0.1000 0.4100 0.2300
v -22.9700 -1.5400 0.0700
v 0.0900 -26.8100 0.0600
v -2.8100 -38.3100 0.0600
v -12.5600 32.9000 0.1000
v 0.1000 1.0100 0.1900
v 0.0700 -6.9900 0.0600
v 0.1000 0.7100 0.2000
v -24.8900 -9.5300 -28.0800
v 0.1000 0.4100 0.1500
v -1.8800 0.1000 0.0400
v 7.6800 0.0000 0.0000
v 0.1000 2.5000 0.1700
v -34.7900 -0.5900 0.0000
v 0.1000 1.8100 0.1700
v -12.3900 0.0000 0.0000
v 0.1000 1.2100 0.1400
v 0.0800 0.0000 0.0000
v 7.6800 0.0000 0.0000
v 0.0000 0.0000 -19.7700
v -15.6200 -27.7700 -4.4100
v 0.1000 0.8600 0.1600
v -30.3200 0.0000 0.0000
v 0.1000 0.5100 0.1900
v 0.0700 0.0000 0.0000
v 0.0000 0.0000 0.0500
v 0.0700 0.0900 0.0800
v 7.6800 0.0000 0.0000
v 3.4500 1.1700 0.7800
v 8.4000 0.2300 1.1200
v 0.1000 0.1700 0.0300
v -8.9100 -12.4000 -28.4100
v 0.1000 0.4000 0.0200
v -8.9000 -7.6600 -9.2400
v 7.6800 0.0000 0.0000
v 0.1000 0.5100 0.0400
v 7.6800 0.0000 0.0000
v 0.0000 0.0000 -1.8900
v -0.9400 0.0200 0.0400
v 0.0400 -13.3800 0.0500
v 7.6800 0.0000 0.0000
v -9.2300 -27.1300 0.0400
v 0.0400 -0.6200 -0.9400
v 0.0000 0.0800 0.0600
v 7.6800 0.0000 0.0000
v -9.2300 -26.4900 0.0400
v 0.0400 -0.6200 -0.9400
v 0.0000 0.0800 0.0600
vt 0.0000 3.8281
vt 0.0000 3.8906
vt 0.0000 -2.9062
vt 0.0000 -2.1797
vt 0.0000 -2.1172
vt 0.0000 -1.2891
vt 0.0000 -0.4844
vt 0.0010 0.8125
vt 0.0010 1.8594
vt 0.0010 2.2031
vt 0.0010 2.5625
vt 0.0010 2.9219
vt 0.0010 3.0938
vt 0.0010 3.2734
vt 0.0010 3.4453
vt 0.0010 3.6172
vt 0.0010 3.8438
vt 0.7500 0.0000
vt 0.7500 0.0000
vt -0.4648 -0.4648
vt 0.7500 0.0000
vt -0.4375 -0.4375
vt 0.7500 0.0000
vt -0.5264 0.0049
vt -1.1797 2.1250
vt -18.2412 3.4717
vt -4.6953 0.0098
vt 0.0000 0.0000
vt -0.7109 -15.1475
vt 0.7500 0.3438
vt -1.4316 1.7236
vt -5.9287 -0.8047
vt -7.0547 -7.2715
vt -1.0586 1.8154
vt -3.1494 -1.6191
vt -0.7441 -12.7715
vt -13.0879 12.9180
vt 0.7500 0.0000
vt -5.8047 -8.2100
vt -0.2158 -0.5264
vt 0.0078 0.0068
vt 0.0088 -11.3652
vt 0.7500 0.0000
vt 0.0000 0.0000
vt 0.0000 0.0000
vt -5.6787 0.0000
vt 0.7500 0.0000
vt -6.0859 -1.0254
vt -1.5850 -0.8076
vt -0.4326 -1.5850
vt 0.7500 0.0000
vt 0.0039 0.0059
vt -0.0234 0.0000
vt -9.3662 -4.3984
vt -1.9629 0.0000
vt 0.0049 0.0088
vt -11.7725 -3.3047
vt 0.0020 -6.1797
vt 0.7500 0.0000
vt 0.0059 -0.8076
vt 0.7500 0.0000
vt 0.0000 0.0000
vt 0.0088 0.0068
vt 0.7500 0.0000
vt 0.0000 0.0000
vt 0.7500 0.0000
vt 0.0000 0.0000
vt -5.9600 -7.3037
vt -0.5225 0.0059
vt -11.3350 -9.0537
vt 0.7500 0.0000
vt -0.0303 -0.0303
vt 0.7500 0.0000
vt -10.5850 0.0000
vt 31.1875 3.9766
vt 0.7188 7.3750
vt 0.7188 7.3750
vt -2.6328 0.0098
vt 0.7500 0.0000
vt -5.1484 0.0068
vt -18.8438 0.1367
vt 0.7500 0.0000
vt 0.0000 0.0000
vt -12.4287 -6.1162
vt 0.0078 0.0000
vt 0.0029 -8.4287
vt -14.2021 3.7979
vt 0.0107 -13.1777
vt -1.9316 -6.1465
vt 0.7500 0.0000
vt 0.0000 0.0000
vt -8.5225 0.0088
vt 0.0000 -8.3037
vt 0.7500 0.0000
vt 0.0059 -1.0566
vt 8.6660 -14.0234
vt 0.7500 0.0000
vt 3.2812 -15.6562
vt 0.7500 0.0000
vt 3.2812 -15.6562
vt -4.6475 0.0078
vt -4.6172 -3.6152
vt 0.7500 0.0000
vt -0.8076 -0.3398
vt -1.6172 -3.9922
vt -8.7686 -26.0918
vt 0.7500 0.0000
vt -0.0889 -0.0283
vt -0.2109 -1.2129
vt 11.0000 -27.9453
vt 0.7500 16.0000
vt -3.5547 0.0049
vt -0.0029 0.0059
vt 0.0059 -15.3291
vt 5.8770 8.1592
vt 7.2949 11.0771
vt -12.3086 21.1035
vt -28.8398 -10.9600
vt 2.0049 -11.2129
vt -15.3691 12.6611
vt 16.0361 -27.0889
vt -15.8076 -19.1514
vt 7.4541 2.2920
vt -0.6182 0.0000
vt -13.8027 4.9922
vt -15.6553 12.4883
vt -2.7422 0.0000
vt 5.0557 2.7402
vt -24.8887 28.8926
vt 17.4756 -30.6680
vt 24.7852 -19.0557
vt 0.7500 0.0000
vt -7.0234 0.0000
vt -9.8750 -3.1875
vt 4.1875 0.3438
vt -0.5938 1.6250
vt -10.4912 -10.2109
vt 2.1934 -5.5547
vt -11.2100 -12.8662
vt 0.8516 -2.4941
vt 1.1309 -3.3350
vt -8.0537 -10.1162
vt 0.8213 -3.0566
vt 21.9268 -25.7871
vt -10.8350 -9.7109
vt 2.7266 -3.1162
vt 3.7979 27.1465
vt -13.9922 -11.4287
vt 2.8750 -2.7461
vt 0.0000 0.0000
vt -0.0029 0.0059
vt -0.0029 0.0059
vt -0.0029 0.0059
vt -0.0029 0.0059
vt 0.0098 0.0889
vt 0.0000 0.0000
vt 0.0215 0.0098
vt -9.9541 16.0605
vt 7.2451 -9.8037
vt -0.0068 2.2363
vt 0.0410 -0.0068
vt -17.1094 5.5469
vt 7.2061 -17.2295
vt -0.0068 8.2061
vt 0.0410 -0.0068
vt -17.1904 18.1309
vt 11.7090 -16.8164
vt -0.0068 11.2090
vt 0.7500 0.0000
vt -1.2480 0.1914
vt 1.0391 9.6875
vt 0.7500 0.1250
vt -2.3438 -1.2178
vt 0.1875 1.5625
vt 2.5332 4.0000
vt 0.7500 16.1250
vt -1.0000 -2.5625
vt -2.1875 -1.1562
vt 0.1562 1.0000
vt -0.0029 0.0059
vt 10.5430 -22.8125
vt 4.3496 0.5859
vt -0.0078 8.5752
vt 0.0469 -0.0078
vt -24.6709 7.8750
vt 0.8594 -25.2207
vt -0.0078 14.6318
vt 0.0469 -0.0078
vt 0.0996 -1.8994
vt -0.8652 0.0000
vt 0.0469 -0.0078
vt -31.3213 -26.7441
vt 8.0010 -31.7725
vt -0.0078 16.5254
vt 12.2490 -1.9082
vt 0.0469 -0.0078
vt 16.2500 0.3945
vt 0.8838 -15.8750
vt -0.0078 -31.8408
vt 0.7500 16.1250
vt -8.1484 -1.3408
vt -0.0029 0.0059
vt -21.9941 -5.2500
vt 0.0098 0.0205
vt 0.0000 -6.4033
vt 0.0957 0.0439
vt 0.0957 0.0439
vt 0.0957 0.0439
vt 0.7500 0.1250
vt -4.9609 -3.9307
vt -8.1475 -2.6494
vt -7.5000 3.4277
vt 14.1572 3.6895
vt -10.9854 3.6895
vt -9.8994 -11.0547
vt 1.2891 -2.7734
vt 2.7246 -4.7109
vt 0.2764 1.4766
vt 0.7500 0.0000
vt -1.1494 -0.0879
vt 0.7500 0.0000
vt -9.8984 -14.3350
vt -0.7725 -2.4961
vt 1.2246 -6.1494
vt 0.1201 17.2998
vt 0.0000 0.0029
vt 0.0098 0.2412
vt -1.6484 -4.6797
vt 11.8994 -17.7041
vt 14.2344 -30.4824
vt -10.8701 -27.8359
vt -23.0791 -27.4365
vt -31.9688 -20.8652
vt 5.2109 17.1885
vt 4.6650 -13.5225
vt 8.6436 2.3525
vt -17.3418 -15.1641
vt 13.7266 26.0264
vt -1.6494 -12.3740
vt 0.0000 -1.4609
vt -0.5254 -1.6191
vt -30.6543 0.0996
vt 7.0156 4.2070
vt 20.8760 13.7051
vt -7.3311 -8.9893
vt 25.2607 -13.4404
vt -14.4541 -26.0000
vt 14.4375 2.2500
vt -1.3994 -0.1494
vt 0.0049 0.0000
vt 0.8457 1.5391
vt 17.2969 0.9482
vt -16.4277 -7.9287
vt 0.0078 0.0068
vt 0.3174 1.5371
vt -31.7734 -20.2871
vt -6.7119 -2.8047
vt -23.7715 -9.8662
vt -0.7188 3.0625
vt -14.3438 -5.9688
vt -0.7188 3.0625
vt 22.3223 -12.3672
vt -9.2627 16.3457
vt 0.7500 0.0000
vt -1.2490 -0.4326
vt -8.2412 -3.4600
vt -4.2109 -0.7412
vt 31.6689 -25.0977
vt 0.7500 0.0000
vt -1.2441 -0.3711
vt 0.7500 0.0000
vt -0.0566 -3.3047
vt 0.0000 -1.1816
vt 0.7500 0.0000
vt -1.2139 0.1904
vt 4.6895 5.1641
vt 0.7500 0.0000
vt 1.2500 6.4688
vt 0.0000 0.0000
vt 0.7500 0.0000
vt -1.2188 0.4062
vt 4.6875 9.6875
vt 24.3496 -12.4297
vt 1.4688 1.8164
vt -28.9141 -1.0000
vt 0.7500 0.0000
vt -1.2188 0.1602
vt 2.8809 -0.8350
vt 0.0107 -7.9912
vt -3.5244 -13.6152
vt -6.6123 -23.8740
vt 0.7500 0.0000
vt -1.4326 0.0664
vt 0.7500 0.0000
vt 0.7500 0.0000
vt 1.2500 6.4688
vt 0.0000 0.0000
vt 0.7500 0.0000
vt 0.4736 0.5703
vt 0.0000 0.0000
vt 0.7500 0.0000
vt -1.2773 0.0039
vt 2.9756 -4.9600
vt 0.7500 0.0000
vt -1.2139 0.3174
vt 0.7500 0.0000
vt 0.0039 0.0059
vt 1.9131 -0.8037
vt 0.7500 0.0000
vt 0.0000 0.0000
vt 0.1328 3.6016
vt 0.7500 0.0000
vt -0.0576 -0.1221
vt 0.2520 3.1631
vt -7.3975 -5.2422
vt 0.7500 0.0000
vt 4.8594 0.7354
vt 3.7656 0.9053
vt 16.6729 17.5273
vt 18.6396 18.3047
vt 21.0938 2.6523
vt -0.0029 0.0059
vt 21.1250 2.6543
vt 20.9375 2.6289
vt 20.8438 2.6172
vt -11.0195 28.6211
vt 3.6094 0.5830
vt 27.2100 -13.1904
vt 2.1406 0.5439
vt 27.6172 -12.9355
vt 1.7969 0.5361
vt 27.7129 2.8115
vt 1.4844 0.5303
vt 19.6826 2.5557
vt 1.2656 0.5283
vt 11.5889 -29.9502
vt 1.2344 0.5303
vt 11.4639 18.0479
vt 1.4531 0.5342
vt 19.4316 2.5537
vt 2.0469 0.5420
vt -12.3252 -11.4072
vt 6.8281 0.5947
vt 7.8281 0.6494
vt 6.2656 0.6826
vt 6.7656 0.6455
vt 8.5469 0.4814
vt 4.5312 0.1875
vt 1.2500 1.3496
vt 0.7500 16.0000
vt -11.0850 -1.2783
vt -0.0029 0.0059
vt 22.8281 28.0732
vt 19.5156 28.0732
vt -26.0469 -19.7998
vt -26.3906 -19.6738
vt 28.1992 25.7734
vt 19.0742 6.7812
vt 0.7500 0.0000
vt 0.0000 0.0000
vt 4.7256 3.6006
vt 0.7500 0.0000
vt -0.1191 -0.0889
vt 4.7188 -8.6787
vt 0.0000 -24.6768
vt -1.1191 -3.7783
vt 16.2500 3.6855
vt 0.1250 -3.7812
vt 0.0107 -13.5225
vt -3.4463 -11.9287
vt -12.5850 -3.1797
vt -20.4395 -31.8877
vt 0.7500 0.0000
vt 0.0059 -0.1221
vt -5.3037 -6.6162
vt 0.7500 0.0000
vt -1.2812 9.3438
vt -0.4922 -7.5225
vt -0.8984 -6.4277
vt 4.1172 -16.7051
vt 0.7500 0.0000
vt -15.7812 12.5684
vt 0.0000 0.0000
vt -0.5254 -0.1826
vt 0.4766 -0.7451
vt -0.6201 0.5703
vt 17.2168 22.2988
vt 0.0098 0.1074
vt -9.1318 16.0039
vt 0.7500 0.0000
vt -11.7881 15.8799
vt 0.1562 7.2822
vt -5.4297 -5.2441
vt 8.1250 -1.5264
vt -6.3184 0.0098
vt -8.4912 -3.2744
vt -0.1562 -8.9316
vt -11.4062 -2.6250
vt 1.6875 -1.2188
vt -13.8965 -12.3350
vt 0.0059 -1.2129
vt -2.2432 -4.9922
vt 27.8604 26.7334
vt 0.0098 0.0400
vt -11.3975 -12.1787
vt -2.2422 -4.9922
vt 0.0742 -25.0879
vt -29.9375 -32.0000
vt 0.7500 0.0000
vt 0.0049 -0.8711
vt -5.5547 -3.8672
vt 0.0059 -0.3086
vt -0.0918 0.0068
vt 0.0020 -13.5137
vt -12.0840 -16.0840
vt -0.8994 -6.9912
vt 21.5898 18.3145
vt 0.7500 0.0000
vt -9.6934 0.0098
vt 0.2393 -18.0967
vt 0.7500 0.0000
vt -20.0312 7.9062
vt -0.8828 0.0098
vt -8.2715 -0.0273
vt 17.6572 8.8750
vt 0.7500 0.0000
vt -0.6201 0.0049
vt 0.0068 -3.3057
vt -3.1484 0.0078
vt 0.7500 0.0000
vt -2.3682 0.0059
vt 0.0068 -4.5537
vt 0.7500 0.0000
vt -0.7451 -0.5918
vt 3.1641 24.3535
vt -2.1338 0.0098
vt -0.5889 0.0078
vt -17.9590 0.0088
vt 3.5049 3.5430
vt 0.7500 0.0000
vt -1.0557 -0.8379
vt -2.7402 -5.7100
vt 0.7500 0.0000
vt -2.5840 -10.8037
vt 0.7500 0.0000
vt 0.0039 -0.3389
vt 0.7500 0.0000
vt 0.0000 0.0000
vt 0.0049 -10.1475
vt 0.7500 0.0000
vt -2.9766 0.0098
vt -0.3438 3.1875
vt -2.7109 -2.6807
vt -1.4062 8.3750
vt 0.7500 0.0000
vt 0.0957 0.0645
vt -5.1172 -3.2734
vt -0.3691 -7.1162
vt -13.6475 -11.0840
vt -1.9619 -7.5850
vt 23.1250 -7.3232
vt -8.2412 0.0088
vt -1.2119 -1.3037
vt -31.0000 0.8359
vt 0.7500 0.0000
vt -0.1504 -0.2129
vt -30.7334 -7.9824
vt 0.7500 0.0000
vt -0.9004 0.8174
vt 0.7500 0.0000
vt -0.4336 0.0059
vt 4.0000 -31.4043
vt -10.0000 1.7812
vt -11.4600 -5.0850
vt -1.9932 -2.2100
vt -31.3242 -14.8750
vt -2.7734 -7.8350
vt 1.1943 -7.1475
vt 0.1455 8.1436
vt 0.7500 0.0000
vt -0.9629 -1.7754
vt 0.7500 0.0000
vt -1.1201 -1.9014
vt 0.7500 0.0000
vt -1.6504 -1.8701
vt 0.7500 0.0000
vt 0.0000 0.0000
vt 0.0088 0.0078
vt 0.7500 0.0000
vt 0.0000 0.0000
vt 0.7500 0.0000
vt -2.2734 -9.1787
vt 0.0000 0.0000
vt 0.7500 0.0000
vt 0.0000 0.0000
vt -3.8350 4.3506
vt 28.0840 12.5029
vt -9.8350 -5.9287
vt -0.0596 -2.8682
vt 28.8330 17.5801
vt 10.0312 20.8359
vt -6.3369 -0.3994
vt 0.0000 -2.1494
vt -20.6113 0.7100
vt 0.7500 0.0000
vt 0.0000 0.0000
vt 0.7500 0.0000
vt 0.0000 0.0000
vt 16.8770 -19.4355
vt -11.0527 -11.3965
vt -0.7129 -5.4912
vt 1.0869 -25.5205
vt 0.7500 0.0000
vt -0.7139 -8.4297
vt 0.0186 19.7812
vt 19.7812 14.2207
vt 14.2207 22.1387
vt -9.0850 0.0088
vt -2.0557 -6.6465
vt 0.7500 0.0000
vt -0.2139 -2.0918
vt 0.0000 0.0000
vt 0.5010 0.2500
vt 3.0156 6.0361
vt -8.2725 -1.6162
vt -0.1494 -1.5557
vt -30.8623 10.4961
vt -18.7090 -3.8672
vt 30.2520 25.0234
vt 0.7500 0.0000
vt -3.3057 -0.4619
vt 0.7500 0.0000
vt 0.7500 0.0000
vt 0.0000 0.0000
vt -3.3340 -5.3662
vt 0.7500 0.0000
vt 16.2656 -23.4736
vt 0.7500 0.0000
vt 0.0000 0.0000
vt 0.0000 -3.2734
vt 0.7500 0.0000
vt 0.0078 0.0088
vt 0.7500 0.0000
vt 0.0000 -6.5547
vt 0.0000 0.0000
vt 0.7500 0.0000
vt -0.0605 -0.0918
vt 0.7500 0.0000
vt 0.0000 3.8818
vt 0.0000 0.0000
vt -2.5625 -0.3721
vt 3.2871 -0.1562
vt 0.7500 0.0000
vt 0.7500 0.0000
vt 0.0000 6.6562
vt -7.0547 -0.4297
vt -3.4004 -2.0869
vt 0.7500 0.0000
vt -4.6172 -1.5254
vt -3.0234 1.1328
vt 0.7500 0.0000
vt 0.7500 0.0000
vt -1.6523 4.2246
vt -27.6436 7.7314
vt 0.7500 0.0000
vt 0.0000 0.0000
vt 0.6631 4.4062
vt 0.2188 -2.0938
vt 1.9375 1.7500
vt 0.0000 3.1562
vt 0.0996 -6.3047
vt 0.0000 2.3174
vt 4.5293 22.8789
vt -2.0244 -8.6807
vt 0.0000 2.3438
vt -30.7344 0.1299
vt -1.8691 -8.5850
vt 0.0000 2.3516
vt 0.0010 -28.0000
vt 1.5078 -13.4092
vt 0.7500 0.0000
vt 0.0000 0.0000
vt 1.3750 -3.5625
vt 0.7500 0.0000
vt 0.0000 0.0000
vt 0.7500 0.0000
vt 6.8438 -2.1875
vt 0.0107 -15.5215
vt -3.8984 -11.0840
vt -2.8975 -3.2734
vt -3.6797 -3.7090
vt -11.3037 -11.2412
vt -1.5557 -10.4287
vt 0.0107 -10.7715
vt -2.0537 -0.7432
vt -1.1514 -5.1152
vt 16.9395 -29.5322
vt -18.4902 -12.4287
vt 0.0068 -1.3066
vt -5.7109 -4.1787
vt -17.1465 -12.3350
vt -0.8359 -1.3057
vt -5.3984 -2.2734
vt -6.8037 -6.8057
vt -5.3359 -2.9922
vt 26.6064 26.0420
vt -17.1465 -12.3350
vt -0.8359 -1.3057
vt -5.3984 -2.2734
vt -4.5859 -7.7109
vt -1.1484 0.1943
vt -6.7422 -1.6484
vt 1.5713 1.1328
vt 4.6875 0.3438
vt 0.7500 0.0000
vt -0.0283 -0.0283
vt -7.3662 -8.0537
vt 0.0059 0.0049
vt 0.0049 0.0078
vt 29.5625 -25.9375
vt -28.1562 0.0000
vt 0.0703 2.0283
vt 2.0283 -5.0938
vt -5.0938 0.0000
vt 0.0000 0.0938
vt 0.0703 2.0283
vt 2.0283 -5.0938
vt -5.0938 0.0000
vt 0.0000 0.0938
vt 0.0098 0.0400
vt -2.9287 -3.7734
vt 5.6250 -0.0625
vt -8.4287 -4.3047
vt -1.0244 -3.4287
vt 1.1250 0.0000
vt 9.7188 1.1250
vt 0.0098 0.2334
vt -5.2256 1.1338
vt 0.0000 0.0078
vt -13.4746 2.5088
vt 0.0000 0.0713
vt -7.9912 -2.0547
vt 0.7500 0.0000
vt -1.1191 -5.2734
vt 0.0000 0.0000
vt 0.0059 -5.8662
vt 0.7500 0.0000
vt 0.0000 0.0000
vt 24.0205 17.6064
vt -2.5869 -4.6484
vt 0.0000 -3.8682
vt -3.2100 -0.3682
vt 0.0000 -3.8750
vt 0.7500 0.0000
vt 6.8438 -2.1875
vt 0.0000 16.0000
vt 4.3750 0.5938
vt 0.0000 0.0000
vt -18.0850 -6.5547
vt 2.0312 1.0625
vt 0.7500 0.0000
vt 0.0000 0.0000
vt 0.7500 0.0000
vt -2.0889 -12.5244
vt 0.0000 0.0000
vt -14.9443 0.0098
vt -5.8037 0.0000
vt 22.5889 -26.6240
vt 0.7500 0.0000
vt 1.0020 0.1895
vt 0.0000 25.0088
vt 2.8643 8.0996
vt 0.7500 0.0000
vt -1.8389 -11.4932
vt 0.0000 0.0000
vt -1.0547 -0.1494
vt -8.8662 -11.5527
vt 0.7500 0.0000
vt -1.3057 -3.4297
vt 0.0000 0.0000
vt -8.7100 -1.1172
vt 0.0039 -0.3379
vt 0.0059 0.0078
vt -29.1074 8.8281
vt 20.0000 0.0000
vt 0.7500 0.0000
vt 0.0078 -4.6475
vt -1.2129 -0.1816
vt 0.0088 -9.3975
vt 19.4883 -30.3848
vt 0.7500 0.0000
vt 0.0000 0.0000
vt 0.7500 0.0000
vt -3.4619 -4.2412
vt 0.7500 0.0000
vt -1.5859 -0.1533
vt -7.0898 11.3779
vt 0.7500 0.0000
vt 0.0000 0.0000
vt 0.7500 0.0000
vt 0.0000 0.0000
vt 0.7500 0.0000
vt 0.0000 0.0000
vt -11.2715 -15.9590
vt 0.0000 -4.7422
vt 21.6377 25.6484
vt 0.7500 0.0000
vt 0.0000 0.0000
vt 0.7500 0.0000
vt -2.8057 -0.1221
vt -2.5869 0.0049
vt -17.2500 17.0625
vt -7.0693 0.0098
vt -13.5312 29.6162
vt -8.7217 -21.5781
vt 0.7500 0.0000
vt 0.0000 6.6562
vt 0.7500 0.0000
vt 0.0000 6.6562
vt -0.8672 -1.6172
vt 0.7500 0.0000
vt -5.9375 -0.7500
vt 0.0000 -0.5889
vt -0.0303 0.0039
vt -14.3516 6.0186
vt -5.9307 -4.4307
vt -0.1221 0.0049
vt -0.1221 -3.0244
vt 0.4639 8.9268
vt -3.2744 -3.8369
vt -0.1221 0.0049
vt -0.1221 -2.9307
vt 0.0029 -0.1250
f 81/81 5/5 81/81
f 17/17 1/1 113/113
f 95/95 3/3 97/97
f 86/86 90/90 22/22
f 7/7 94/94 36/36
f 10/10 98/98 1/1
f 15/15 94/94 81/81
f 1/1 1/1 1/1
f 80/80 6/6 83/83
f 17/17 17/17 1/1
f 98/98 87/87 50/50
f 10/10 78/78 85/85
f 38/38 47/47 67/67
f 26/26 45/45 94/94
f 22/22 106/106 83/83
f 22/22 44/44 69/69
f 70/70 41/41 9/9
f 5/5 13/13 112/112
f 121/121 6/6 15/15
f 16/16 2/2 67/67
f 29/29 125/125 45/45
f 12/12 76/76 82/82
f 14/14 12/12 71/71
f 1/1 8/8 49/49
f 81/81 13/13 50/50
f 22/22 17/17 22/22
f 101/101 13/13 19/19
f 100/100 1/1 108/108
f 46/46 27/27 105/105
f 93/93 99/99 2/2
f 93/93 98/98 4/4
f 15/15 2/2 67/67
f 1/1 4/4 39/39
f 19/19 4/4 82/82
f 67/67 30/30 1/1
f 25/25 111/111 95/95
f 92/92 92/92 103/103
f 1/1 4/4 12/12
f 45/45 81/81 9/9
f 73/73 39/39 75/75
f 7/7 33/33 102/102
f 49/49 21/21 17/17
f 110/110 77/77 18/18
f 21/21 17/17 75/75
f 36/36 122/122 69/69
f 113/113 3/3 97/97
f 17/17 128/128 33/33
f 1/1 53/53 1/1
f 128/128 125/125 74/74
f 1/1 4/4 1/1
f 1/1 25/25 128/128
f 1/1 53/53 1/1
f 128/128 125/125 14/14
f 1/1 4/4 1/1
f 1/1 25/25 128/128
f 1/1 53/53 1/1
f 128/128 125/125 26/26
f 1/1 4/4 1/1
f 1/1 25/25 128/128
f 1/1 53/53 1/1
f 128/128 125/125 15/15
f 1/1 4/4 1/1
f 1/1 25/25 128/128
f 1/1 4/4 1/1
f 1/1 24/24 128/128
f 1/1 50/50 1/1
f 128/128 125/125 5/5
f 53/53 49/49 87/87
f 21/21 123/123 117/117
f 12/12 75/75 13/13
f 86/86 103/103 101/101
f 29/29 66/66 74/74
f 85/85 5/5 97/97
f 97/97 7/7 49/49
f 1/1 4/4 100/100
f 89/89 101/101 117/117
f 93/93 10/10 11/11
f 30/30 55/55 57/57
f 1/1 4/4 85/85
f 6/6 46/46 17/17
f 49/49 7/7 91/91
f 33/33 53/53 35/35
f 1/1 4/4 69/69
f 10/10 59/59 113/113
f 74/74 12/12 74/74
f 102/102 82/82 72/72
f 25/25 103/103 5/5
f 102/102 33/33 81/81
f 1/1 4/4 100/100
f 40/40 1/1 73/73
f 78/78 11/11 42/42
f 17/17 65/65 5/5
f 1/1 4/4 50/50
f 89/89 51/51 60/60
f 9/9 101/101 5/5
f 38/38 6/6 53/53
f 1/1 4/4 9/9
f 37/37 10/10 54/54
f 6/6 98/98 66/66
f 13/13 37/37 37/37
f 1/1 4/4 1/1
f 82/82 26/26 125/125
f 10/10 12/12 35/35
f 43/43 68/68 84/84
f 1/1 4/4 78/78
f 41/41 92/92 65/65
f 1/1 4/4 1/1
f 8/8 79/79 23/23
f 2/2 66/66 9/9
f 37/37 40/40 25/25
f 1/1 4/4 30/30
f 65/65 1/1 55/55
f 98/98 18/18 37/37
f 91/91 109/109 67/67
f 1/1 4/4 120/120
f 114/114 70/70 100/100
f 118/118 25/25 113/113
f 98/98 8/8 72/72
f 1/1 14/14 49/49
f 1/1 1/1 1/1
f 84/84 3/3 20/20
f 28/28 10/10 5/5
f 28/28 6/6 1/1
f 75/75 93/93 49/49
f 53/53 122/122 21/21
f 5/5 14/14 53/53
f 18/18 127/127 98/98
f 114/114 49/49 49/49
f 90/90 13/13 117/117
f 26/26 123/123 7/7
f 120/120 11/11 33/33
f 31/31 31/31 70/70
f 14/14 82/82 85/85
f 37/37 72/72 37/37
f 1/1 13/13 113/113
f 2/2 22/22 113/113
f 113/113 4/4 35/35
f 3/3 1/1 3/3
f 49/49 34/34 89/89
f 1/1 13/13 113/113
f 5/5 65/65 116/116
f 1/1 48/48 86/86
f 3/3 73/73 76/76
f 73/73 2/2 17/17
f 40/40 44/44 67/67
f 121/121 2/2 16/16
f 41/41 2/2 15/15
f 9/9 2/2 15/15
f 25/25 2/2 17/17
f 105/105 2/2 18/18
f 105/105 2/2 20/20
f 31/31 41/41 5/5
f 1/1 3/3 52/52
f 15/15 118/118 45/45
f 99/99 103/103 1/1
f 1/1 13/13 113/113
f 105/105 65/65 10/10
f 96/96 1/1 3/3
f 2/2 97/97 66/66
f 1/1 13/13 113/113
f 3/3 127/127 85/85
f 58/58 47/47 118/118
f 27/27 69/69 11/11
f 9/9 114/114 69/69
f 35/35 91/91 30/30
f 99/99 1/1 26/26
f 1/1 113/113 91/91
f 113/113 10/10 33/33
f 17/17 1/1 65/65
f 43/43 1/1 14/14
f 4/4 12/12 22/22
f 30/30 65/65 66/66
f 11/11 29/29 123/123
f 70/70 86/86 14/14
f 15/15 107/107 1/1
f 44/44 34/34 86/86
f 39/39 21/21 69/69
f 48/48 97/97 4/4
f 112/112 124/124 6/6
f 48/48 97/97 4/4
f 112/112 124/124 3/3
f 48/48 97/97 4/4
f 112/112 124/124 1/1
f 97/97 126/126 17/17
f 1/1 127/127 49/49
f 100/100 125/125 20/20
f 4/4 122/122 53/53
f 1/1 11/11 27/27
f 78/78 20/20 44/44
f 1/1 11/11 27/27
f 76/76 1/1 44/44
f 100/100 124/124 69/69
f 4/4 118/118 69/69
f 11/11 39/39 11/11
f 9/9 22/22 44/44
f 2/2 37/37 2/2
f 65/65 16/16 33/33
f 1/1 1/1 1/1
f 60/60 1/1 8/8
f 116/116 67/67 44/44
f 9/9 1/1 1/1
f 55/55 24/24 99/99
f 111/111 120/120 67/67
f 20/20 62/62 125/125
f 8/8 67/67 66/66
f 28/28 117/117 98/98
f 20/20 51/51 63/63
f 81/81 41/41 87/87
f 27/27 80/80 57/57
f 65/65 9/9 53/53
f 25/25 102/102 57/57
f 65/65 9/9 53/53
f 25/25 102/102 57/57
f 65/65 9/9 53/53
f 25/25 102/102 57/57
f 118/118 1/1 58/58
f 118/118 1/1 48/48
f 63/63 1/1 14/14
f 78/78 32/32 26/26
f 100/100 67/67 7/7
f 53/53 71/71 39/39
f 5/5 127/127 68/68
f 100/100 114/114 117/117
f 81/81 71/71 26/26
f 82/82 123/123 127/127
f 58/58 86/86 127/127
f 119/119 81/81 74/74
f 113/113 49/49 1/1
f 104/104 34/34 13/13
f 85/85 124/124 101/101
f 68/68 5/5 83/83
f 78/78 103/103 112/112
f 1/1 66/66 33/33
f 13/13 23/23 21/21
f 38/38 21/21 106/106
f 105/105 34/34 10/10
f 27/27 44/44 21/21
f 15/15 45/45 74/74
f 65/65 120/120 105/105
f 86/86 71/71 84/84
f 53/53 3/3 54/54
f 37/37 116/116 35/35
f 53/53 99/99 109/109
f 97/97 7/7 100/100
f 71/71 1/1 4/4
f 97/97 6/6 93/93
f 71/71 1/1 4/4
f 49/49 65/65 88/88
f 67/67 11/11 15/15
f 79/79 57/57 85/85
f 33/33 110/110 3/3
f 5/5 102/102 47/47
f 75/75 75/75 82/82
f 65/65 121/121 97/97
f 69/69 118/118 4/4
f 4/4 113/113 114/114
f 100/100 13/13 102/102
f 22/22 2/2 2/2
f 13/13 35/35 4/4
f 29/29 83/83 37/37
f 5/5 11/11 83/83
f 18/18 85/85 2/2
f 3/3 43/43 14/14
f 115/115 4/4 27/27
f 90/90 23/23 106/106
f 52/52 13/13 22/22
f 6/6 2/2 55/55
f 103/103 20/20 51/51
f 68/68 122/122 16/16
f 30/30 53/53 109/109
f 52/52 13/13 22/22
f 6/6 2/2 55/55
f 55/55 105/105 17/17
f 33/33 123/123 32/32
f 1/1 104/104 105/105
f 113/113 54/54 121/121
f 37/37 3/3 69/69
f 38/38 128/128 65/65
f 65/65 126/126 113/113
f 1/1 4/4 113/113
f 15/15 25/25 127/127
f 22/22 59/59 83/83
f 63/63 2/2 5/5
f 40/40 48/48 59/59
f 65/65 1/1 3/3
f 113/113 3/3 65/65
f 65/65 1/1 3/3
f 113/113 3/3 65/65
f 65/65 1/1 3/3
f 113/113 3/3 65/65
f 8/8 16/16 9/9
f 35/35 14/14 102/102
f 8/8 4/4 71/71
f 18/18 72/72 48/48
f 75/75 19/19 1/1
f 75/75 19/19 1/1
f 5/5 34/34 65/65
f 53/53 96/96 5/5
f 116/116 109/109 1/1
f 3/3 7/7 52/52
f 72/72 104/104 11/11
f 128/128 6/6 12/12
f 69/69 104/104 15/15
f 52/52 65/65 40/40
f 57/57 112/112 6/6
f 18/18 1/1 3/3
f 6/6 1/1 11/11
f 97/97 1/1 25/25
f 11/11 1/1 33/33
f 33/33 1/1 10/10
f 65/65 32/32 48/48
f 85/85 54/54 113/113
f 51/51 65/65 19/19
f 120/120 24/24 1/1
f 111/111 45/45 13/13
f 127/127 66/66 27/27
f 97/97 58/58 122/122
f 10/10 101/101 74/74
f 35/35 50/50 44/44
f 89/89 25/25 22/22
f 5/5 28/28 50/50
f 101/101 109/109 43/43
f 122/122 94/94 68/68
f 108/108 108/108 14/14
f 17/17 117/117 34/34
f 108/108 3/3 61/61
f 105/105 87/87 2/2
