# Conker's Bad Fur Day — Real 3D Model (Sloprano Models)
o assets0E_model_015

v 0.3200 2.5800 20.4800
v 0.3200 2.5800 20.4800
v 0.3200 2.5800 20.4800
v 0.3200 2.5800 20.4800
v 0.3200 2.5800 20.4800
v 0.3200 2.5800 20.4800
v 0.3200 2.5800 20.4800
v 0.3200 2.5800 20.4800
v 0.3200 2.5800 20.4800
v 0.3200 2.5800 20.4800
v 20.5100 0.0000 0.0000
v 20.5100 0.0000 0.0000
v 20.5100 0.0000 0.0000
v 20.4800 0.0000 0.0000
vt 0.0000 0.4922
vt 0.0000 0.4600
vt 0.0000 0.5625
vt 0.0000 0.5459
vt 0.0000 0.4219
vt 0.0000 0.3809
vt 0.0000 0.6260
vt 0.0000 0.4277
vt 0.0000 0.4834
vt 0.0000 0.6123
vt 0.0000 0.0986
vt 0.0000 0.0986
vt 0.0000 0.0986
vt 0.0000 0.0986
f 1/1 1/1 1/1
