mtllib assets01_model_015.mtl
# Conker's Bad Fur Day — Real 3D Model (HUD & UI Props)
o assets01_model_015
usemtl assets01_model_015_mat

v 7.5600 9.6000 -2.5800
v 4.0500 10.5400 -2.5800
v 6.4800 8.5800 -2.5800
v 1.8400 8.5400 -2.5800
v 0.2600 4.1700 -2.5800
v 1.7300 4.4600 -2.5800
v 2.7700 7.5300 -2.5800
v 3.6700 2.0500 -2.5800
v 10.3300 6.7100 -2.5800
v 8.8500 5.7400 -2.5800
v 7.3600 2.8600 -2.5800
v 5.0600 5.0600 -2.5800
v 6.9300 8.3600 -2.5800
v 4.6600 10.2600 -2.5800
v 8.1100 9.3300 -2.5800
v 3.0800 7.4000 -2.5800
v 1.7400 4.4800 -2.5800
v 0.2300 4.2300 -2.5800
v 2.2400 8.3800 -2.5800
v 3.4700 2.1600 -2.5800
v 7.2800 2.9000 -2.5800
v 9.0500 5.6300 -2.5800
v 10.6400 6.5400 -2.5800
v 5.1600 5.0300 -2.5800
v 10.2100 4.0700 -2.5800
v 8.3000 1.4300 -2.5800
v 6.7200 4.3500 -2.5800
v 5.2800 0.4700 -2.5800
v 2.2900 1.5500 -2.5800
v 0.4800 4.2500 -2.5800
v 5.3300 3.7900 -2.5800
v 3.9800 4.4200 -2.5800
v 5.4800 11.1400 -2.5800
v 8.4600 10.0600 -2.5800
v 6.8000 7.2100 -2.5800
v 10.2700 7.3600 -2.5800
v 5.4500 7.8400 -2.5800
v 4.0600 7.2900 -2.5800
v 2.4500 10.1800 -2.5800
v 7.3300 5.7600 -2.5800
v 3.9800 4.4200 -2.5800
v 0.4800 4.2500 -2.5800
v 20.1000 3.5800 -2.5800
v 16.2800 0.9500 -2.5800
v 10.2300 -0.0100 -2.5800
v 4.2600 1.0600 -2.5800
v 0.6400 3.7600 -2.5800
v 0.5400 7.5500 -2.5800
v 2.4500 10.1800 -2.5800
v 4.0600 7.2900 -2.5800
v 16.6100 9.5800 -2.5800
v 10.6300 10.6500 -2.5800
v 20.2200 6.8700 -2.5800
v 4.5800 9.6900 -2.5800
v 0.7600 7.0600 -2.5800
v 5.1100 4.6100 -2.5800
v -0.0100 4.6000 -2.5800
v 5.1800 4.0300 -2.5800
v 0.0600 4.0300 -2.5800
v 13.0900 3.8000 -2.5800
v 10.3100 3.2500 -2.5800
v 7.6000 3.8800 -2.5800
v 13.2500 6.6700 -2.5800
v 10.5400 7.3000 -2.5800
v 7.7600 6.7400 -2.5800
v 14.3100 5.2200 -2.5800
v 6.5400 5.3300 -2.5800
v 3.4500 5.8700 -2.5800
v 0.0000 4.7400 -0.0100
v 5.1200 4.7400 -0.0100
v 0.0000 4.7400 -2.5800
v 5.1200 4.7400 -2.5800
v 0.0500 2.5600 -2.5800
v 5.1700 2.5600 -2.5800
v 0.0900 4.2400 -2.5800
v 5.0500 4.2400 -2.5800
v -0.0200 4.1300 -2.5800
v 5.1500 4.1300 -2.5800
v 0.3000 5.1200 -2.5800
v 5.1200 5.1200 -2.5800
v 0.0300 3.5900 -2.5800
v 5.1500 3.5900 -2.5800
v 0.0000 5.1200 -0.0100
v 5.1200 5.1200 -2.5800
v 5.1200 0.0000 -2.5800
v -0.0600 -0.1000 -2.5800
v 2.4400 4.1400 -2.5800
v -0.0600 -0.1000 -2.5800
v 5.1200 0.0000 -2.5800
v 2.4400 4.1400 -2.5800
v 5.1800 4.0300 -2.5800
v 0.0600 4.0300 -2.5800
v 5.1200 0.0000 -2.5800
v 0.0000 0.0000 -2.5800
v 2.5700 4.9700 -2.5800
v 0.0000 0.0000 -2.5800
v 5.1200 0.0000 -2.5800
v 2.5700 4.9700 -2.5800
v 5.1100 4.6100 -2.5800
v -0.0100 4.6000 -2.5800
v 5.1200 0.0000 -2.5800
v 0.0000 0.0000 -2.5800
v 2.5600 4.1400 -2.5800
v 0.0000 0.0000 -2.5800
v 5.1200 0.0000 -2.5800
v 2.5600 4.1400 -2.5800
v 5.0600 3.7700 -2.5800
v -0.0600 3.7700 -2.5800
v 5.1400 0.0000 -2.5800
v 5.1400 0.0000 -2.5800
v 0.0000 0.0000 -2.5800
v 2.6400 4.2600 -2.5800
v 0.0000 0.0000 -2.5800
v 5.1200 0.0000 -2.5800
v 2.6400 4.2600 -2.5800
v 5.1200 0.0000 -2.5800
v 0.0000 0.0000 -2.5800
v 2.6700 5.1300 -2.5800
v 0.0000 0.0000 -2.5800
v 5.1200 0.0000 -2.5800
v 2.6700 5.1300 -2.5800
v 0.0000 0.0000 -2.5800
v 0.0000 0.0000 -2.5800
v 2.5800 5.2400 -0.0100
v 2.5800 5.2400 -2.5800
v 5.1200 5.1200 -0.0100
v 3.2100 2.5900 -2.5800
v 0.0000 0.0000 -2.5800
v 3.2100 2.5900 -2.5800
v 5.1700 3.1300 -2.5800
v 0.0500 3.1300 -2.5800
v 2.9700 5.1900 -2.5800
v 2.9700 5.1900 -2.5800
v 5.1200 4.7400 -2.5800
v 0.0000 4.7400 -2.5800
v 2.8400 4.9100 -0.0100
v 2.8400 4.9100 -0.0100
v 5.1200 5.1200 -0.0100
v 0.0000 5.1200 -0.0100
v 5.0800 0.0500 -2.5800
v 5.0800 0.0500 -2.5800
v 2.5500 3.6100 -2.5800
v 2.5500 3.6100 -2.5800
v 5.1100 3.5600 -2.5800
v -0.0100 3.6700 -2.5800
v 12.9200 6.6500 -2.5800
v 15.1000 1.6600 -2.5800
v 9.8700 1.8400 -2.5800
v 5.0000 6.4300 -2.5800
v 0.2500 10.1000 -2.5800
v 12.5200 10.3000 -2.5800
v 7.9800 -2.8600 -2.5800
v 2.9500 2.8200 -2.5800
v -2.8200 6.8800 -2.5800
v 4.5500 6.3900 -2.5800
v 7.0800 1.0100 -2.5800
v 10.7500 0.4400 -2.5800
v 10.2100 6.0400 -2.5800
v 10.6500 10.0200 -2.5800
v 1.9200 10.7200 -2.5800
v 2.3600 2.5600 -2.5800
v 4.7800 -4.0300 -2.5800
v -0.9000 7.4200 -2.5800
v 5.0000 6.1000 -2.5800
v 7.0900 1.5700 -2.5800
v 9.9300 2.5100 -2.5800
v 10.4300 6.3900 -2.5800
v 9.8300 11.6600 -2.5800
v 2.7600 9.9100 -2.5800
v 1.4200 3.3100 -2.5800
v 3.0400 -0.5900 -2.5800
v -1.3200 6.6000 -2.5800
v 5.5000 5.3800 -0.0100
v 7.3300 -0.1400 -0.0100
v 9.9900 0.2400 -0.0100
v 10.5500 4.3700 -0.0100
v 10.1300 10.2900 -0.0100
v 3.5100 10.1000 -0.0100
v 2.0900 3.0900 -0.0100
v 3.5000 -1.6400 -0.0100
v -0.3800 7.3800 -0.0100
v 10.1700 6.8400 -2.5800
v 10.0500 2.6000 -2.5800
v 7.2400 1.7600 -2.5800
v 4.6600 6.9900 -2.5800
v 1.9900 11.3800 -2.5800
v 9.0600 12.7100 -2.5800
v 3.3200 -0.4100 -2.5800
v 1.2700 4.1000 -2.5800
v -1.8500 7.9700 -2.5800
v 11.0000 5.6300 -0.0100
v 10.5800 1.5000 -0.0100
v 7.7800 0.6600 -0.0100
v 5.6300 5.7500 -0.0100
v 3.3500 10.0200 -0.0100
v 10.3300 11.3400 -0.0100
v 3.7900 -1.4700 -0.0100
v 2.1200 2.9200 -0.0100
v -0.6500 6.6800 -0.0100
v 0.0000 0.0000 0.0100
v 0.0000 0.0000 10.2900
v 0.0000 22.4100 0.0000
v 0.0000 22.4300 0.6400
v 0.3200 0.3200 0.0000
v 0.0000 22.4200 0.0000
v 0.0000 22.3900 0.1600
v -28.0800 20.4800 0.0900
v -7.5200 0.0000 15.3600
v -7.5200 0.0000 17.9200
v -7.6900 -3.6900 -27.9300
v -7.5200 0.0000 0.0000
v -33.2800 0.0000 18.2300
v 2.5700 0.4600 2.5600
v -7.5200 0.0000 0.6400
v -7.5200 0.0000 0.6400
v -27.1200 20.4800 0.0900
v -6.5600 0.0000 0.0000
v -27.1200 20.4800 0.0900
v -6.5600 0.0000 0.0000
v -27.1200 20.4800 0.0900
v -6.5600 0.0000 0.0000
v -27.1200 20.4800 0.0900
v -6.5600 0.0000 0.0000
v -27.1200 20.4800 0.0900
v -6.5600 0.0000 0.0000
v -27.1200 20.4800 0.0900
v -6.5600 0.0000 0.0000
v 0.2900 23.0500 2.0500
v 2.0900 24.8900 1.4800
vt -0.0020 0.0078
vt 0.0020 0.0059
vt -0.0068 0.0059
vt -0.0098 -0.0010
vt -0.0068 0.0000
vt -0.0049 0.0039
vt -0.0049 -0.0059
vt 0.0010 -0.0068
vt 0.0068 0.0010
vt 0.0039 -0.0029
vt 0.0000 0.0000
vt -0.0020 0.0059
vt 0.0020 0.0078
vt -0.0049 0.0068
vt 0.0049 0.0039
vt 0.0068 0.0000
vt 0.0098 -0.0010
vt 0.0068 0.0059
vt 0.0029 -0.0039
vt 0.0049 -0.0059
vt -0.0068 0.0010
vt -0.0098 0.0029
vt -0.0059 -0.0049
vt 0.0059 0.0000
vt 0.0137 -0.0127
vt 0.0059 0.0000
vt 0.0000 -0.0166
vt -0.0137 -0.0127
vt -0.0215 -0.0010
vt 0.0000 -0.0029
vt -0.0059 0.0000
vt -0.0059 -0.0010
vt 0.0137 0.0117
vt 0.0059 -0.0010
vt 0.0215 0.0000
vt 0.0000 0.0020
vt -0.0059 -0.0010
vt -0.0137 0.0117
vt 0.0059 -0.0020
vt -0.0059 0.0000
vt -0.0215 -0.0010
vt 0.0215 -0.0010
vt 0.0137 -0.0127
vt 0.0000 -0.0166
vt -0.0137 -0.0127
vt -0.0215 -0.0010
vt -0.0215 0.0000
vt -0.0137 0.0117
vt -0.0059 -0.0010
vt 0.0137 0.0117
vt 0.0000 0.0156
vt 0.0215 0.0000
vt -0.0137 0.0117
vt -0.0215 0.0000
vt 0.0098 0.0244
vt 0.0000 0.0156
vt -0.0098 0.0244
vt -0.0137 0.0117
vt 0.0059 -0.0020
vt 0.0000 -0.0049
vt -0.0059 -0.0020
vt 0.0059 0.0020
vt 0.0000 0.0049
vt -0.0059 0.0020
vt 0.0088 0.0000
vt -0.0088 0.0000
vt -0.0088 0.0000
vt -0.0215 -0.0010
vt -0.0137 -0.0127
vt -0.0098 -0.0254
vt 0.0000 -0.0166
vt 0.0098 -0.0254
vt 0.0137 -0.0127
vt 0.0264 -0.0137
vt 0.0215 -0.0010
vt -0.0264 0.0127
vt -0.0215 0.0000
vt 0.0215 0.0000
vt 0.0137 0.0117
vt -0.0332 0.0000
vt -0.0332 0.0000
vt 0.0332 0.0000
vt 0.0332 0.0000
vt 0.0000 0.0156
vt -0.0137 0.0117
vt -0.0098 0.0244
vt -0.0137 0.0117
vt 0.0000 0.0156
vt -0.0098 0.0244
vt 0.0000 0.0156
vt -0.0098 0.0244
vt 0.0137 0.0117
vt 0.0000 0.0156
vt 0.0098 0.0244
vt 0.0000 0.0156
vt 0.0137 0.0117
vt 0.0098 0.0244
vt 0.0137 0.0117
vt 0.0098 0.0244
vt -0.0137 0.0117
vt -0.0215 0.0000
vt -0.0264 0.0127
vt -0.0215 0.0000
vt -0.0137 0.0117
vt -0.0264 0.0127
vt -0.0137 0.0117
vt -0.0264 0.0127
vt 0.0215 -0.0010
vt 0.0215 -0.0010
vt 0.0215 -0.0010
vt 0.0264 -0.0137
vt 0.0215 -0.0010
vt 0.0137 -0.0127
vt 0.0264 -0.0137
vt 0.0137 -0.0127
vt 0.0137 0.0117
vt 0.0264 0.0127
vt 0.0137 0.0117
vt 0.0215 0.0000
vt 0.0264 0.0127
vt 0.0215 0.0000
vt 0.0215 0.0000
vt 0.0332 0.0000
vt 0.0332 0.0000
vt 0.0332 0.0000
vt 0.0332 0.0000
vt 0.0137 -0.0127
vt 0.0000 -0.0166
vt 0.0000 -0.0166
vt 0.0098 -0.0254
vt -0.0137 -0.0127
vt 0.0000 -0.0166
vt -0.0137 -0.0127
vt -0.0098 -0.0254
vt -0.0215 -0.0010
vt -0.0137 -0.0127
vt -0.0215 -0.0010
vt -0.0264 -0.0137
vt -0.0215 -0.0010
vt -0.0215 0.0000
vt -0.0215 0.0000
vt -0.0332 0.0000
vt -0.0332 0.0000
vt -0.0332 0.0000
vt -0.0146 0.0029
vt -0.0146 0.0020
vt -0.0117 0.0000
vt -0.0098 -0.0010
vt -0.0078 0.0000
vt -0.0146 0.0059
vt -0.0078 0.0010
vt -0.0068 -0.0010
vt -0.0049 -0.0020
vt 0.0098 -0.0010
vt 0.0117 0.0000
vt 0.0146 0.0020
vt 0.0146 0.0029
vt 0.0146 0.0059
vt 0.0078 0.0000
vt 0.0068 -0.0010
vt 0.0078 0.0010
vt 0.0049 -0.0020
vt 0.0107 0.0059
vt 0.0117 0.0039
vt 0.0146 0.0049
vt 0.0156 0.0078
vt 0.0156 0.0117
vt 0.0088 0.0078
vt 0.0068 0.0039
vt 0.0088 0.0020
vt 0.0049 0.0068
vt 0.0107 0.0010
vt 0.0117 0.0000
vt 0.0146 0.0010
vt 0.0156 0.0039
vt 0.0156 0.0078
vt 0.0088 0.0039
vt 0.0068 0.0000
vt 0.0088 0.0000
vt 0.0049 0.0020
vt -0.0156 0.0078
vt -0.0146 0.0049
vt -0.0117 0.0039
vt -0.0107 0.0059
vt -0.0088 0.0078
vt -0.0156 0.0117
vt -0.0088 0.0020
vt -0.0068 0.0039
vt -0.0049 0.0068
vt -0.0156 0.0039
vt -0.0146 0.0010
vt -0.0117 0.0000
vt -0.0107 0.0010
vt -0.0088 0.0039
vt -0.0156 0.0078
vt -0.0088 0.0000
vt -0.0068 0.0000
vt -0.0049 0.0020
vt 0.0000 4.6641
vt 0.0000 0.0000
vt 16.2344 -2.0830
vt 0.0312 0.0312
vt 0.0000 2.1934
vt 0.0000 2.1875
vt 0.0312 0.0312
vt -6.2500 0.0000
vt -3.5000 8.0020
vt -2.7344 0.0000
vt -4.0000 0.0000
vt -9.4453 0.0029
vt -6.5000 0.0000
vt -6.2500 0.0000
vt -9.4453 0.0029
vt -4.0000 0.0000
vt -4.0000 0.0000
vt -3.5000 8.0020
vt -2.7344 0.0000
vt -3.5000 8.0020
vt -2.7344 0.0000
vt -3.5000 8.0020
vt -2.7344 0.0000
vt -3.5000 8.0020
vt -2.7344 0.0000
vt -3.5000 8.0020
vt -2.7344 0.0000
vt -3.5000 8.0020
vt -2.7344 0.0000
vt -0.7754 0.0000
vt -0.8408 0.0000
f 47/47 1/1 48/48
f 128/128 128/128 128/128
f 63/63 2/2 96/96
f 128/128 128/128 128/128
f 15/15 1/1 63/63
f 23/23 2/2 78/78
f 76/76 2/2 6/6
f 7/7 2/2 77/77
f 116/116 1/1 84/84
f 19/19 21/21 15/15
f 19/19 15/15 17/17
f 29/29 14/14 15/15
f 7/7 26/26 31/31
f 3/3 1/1 14/14
f 99/99 18/18 110/110
f 95/95 1/1 104/104
f 73/73 18/18 80/80
