# Conker's Bad Fur Day — Real 3D Model (Multiplayer Level Models)
o assets09_model_105

v 0.0000 12.0800 0.0000
v 10.6200 5.3800 -0.0100
v 10.6200 11.1700 -0.0100
v 19.9700 5.6500 -0.0100
v 18.6800 1.4000 -0.0100
v 18.8600 9.0200 -0.0100
v 15.1600 5.2200 -0.0100
v 7.5500 5.2500 -0.0100
v 8.8400 2.4400 -0.0100
v 19.2300 2.7000 -0.0100
v 20.1300 5.3500 -0.0100
v 10.2700 2.4400 -0.0100
v 10.2200 8.2500 -0.0100
v 2.0000 9.3100 -0.0100
v 1.2800 5.4500 -0.0100
v 2.0000 9.3100 -0.0100
v 10.6200 5.3800 -0.0100
v 10.6200 11.1700 -0.0100
v 1.2800 5.4500 -0.0100
v 15.1600 5.2200 -0.0100
v 7.5500 5.2500 -0.0100
v 15.1600 5.2200 -0.0100
v 7.5500 5.2500 -0.0100
v 10.2700 2.4400 -0.0100
v 0.3700 5.2200 -0.0100
v 1.3100 2.5800 -0.0100
v 10.2200 8.2500 -0.0100
v 1.2600 7.9800 -0.0100
v 10.6200 11.1700 -0.0100
v 10.6200 5.3800 -0.0100
v 19.2400 9.4900 -0.0100
v 19.9700 5.6500 -0.0100
v 15.3900 0.7900 -0.0100
v 12.3200 4.0000 -0.0100
v 9.4500 3.2400 -0.0100
v 8.5400 3.9500 -0.0100
v 7.8700 0.7000 -0.0100
v 9.1700 0.8300 -0.0100
v 9.4500 3.2400 -0.0100
v 9.1700 0.8300 -0.0100
v 8.5400 3.9500 -0.0100
v 12.3200 4.0000 -0.0100
v 14.1100 0.8900 -0.0100
v 14.1100 0.8900 -0.0100
v 8.5400 3.9500 -0.0100
v 9.1700 0.8300 -0.0100
v 7.8700 0.7000 -0.0100
v 8.5400 3.9500 -0.0100
v 9.1700 0.8300 -0.0100
v 12.3200 4.0000 -0.0100
v 8.4400 3.2200 -0.0100
v 7.8700 0.7000 -0.0100
v 7.8700 0.7000 -0.0100
v -28.0000 0.0000 17.9200
v -33.2800 0.0000 18.5500
v -28.1600 2.5600 15.3600
v -7.5200 0.0000 0.6400
vt 0.0000 0.0000
vt 0.0195 -0.0352
vt 0.0225 -0.0713
vt 0.0225 -0.0713
vt 0.0225 -0.0713
vt 0.0039 -0.0625
vt 0.0186 -0.0469
vt -0.0098 -0.0469
vt -0.0098 -0.0469
vt 0.0039 -0.0430
vt -0.0117 -0.0352
vt 0.0195 -0.0352
vt 0.0186 -0.0469
vt 0.0225 -0.0713
vt -0.0098 -0.0469
vt -0.0176 -0.0723
vt -0.0117 -0.0352
vt -0.0156 -0.0713
vt 0.0225 -0.0713
vt 0.0225 -0.0713
vt -0.0098 -0.0469
vt -0.0156 -0.0713
vt -0.0117 -0.0352
vt 0.0039 -0.0430
vt -0.0098 -0.0469
vt 0.0195 -0.0352
vt 0.0186 -0.0469
vt -0.0117 -0.0352
vt -0.0176 -0.0723
vt -0.0098 -0.0469
vt -0.0156 -0.0713
vt 0.0176 -0.0410
vt 0.0137 -0.0400
vt 0.0137 -0.0400
vt 0.0078 -0.0107
vt 0.0176 -0.0410
vt 0.0137 -0.0400
vt 0.0039 -0.0186
vt 0.0137 -0.0400
vt 0.0078 -0.0107
vt -0.0010 -0.0107
vt -0.0059 -0.0400
vt -0.0107 -0.0410
vt -0.0010 -0.0107
vt -0.0059 -0.0400
vt -0.0107 -0.0410
vt -0.0010 -0.0107
vt -0.0059 -0.0400
vt 0.0078 -0.0107
vt 0.0039 -0.0186
vt 0.0039 -0.0186
vt 0.0107 -0.0410
vt 0.0000 1.1875
vt -6.5000 0.0000
vt -6.2500 0.0000
vt -6.5000 0.0000
vt -4.0000 0.0000
f 2/2 1/1 40/40
f 2/2 1/1 40/40
f 9/9 1/1 37/37
f 2/2 1/1 40/40
f 2/2 1/1 40/40
f 31/31 28/28 32/32
f 6/6 8/8 9/9
f 10/10 11/11 12/12
f 13/13 12/12 11/11
