mtllib assets10_model_023.mtl
# Conker's Bad Fur Day — Real 3D Model (Spooky Models)
o assets10_model_023
usemtl assets10_model_023_mat

v 0.0000 0.5600 0.0000
v 0.0000 3.2800 0.0000
v 0.0000 3.7600 0.0000
v 0.0000 4.2400 0.0000
v -0.0400 -38.2900 11.1100
v 0.2600 -38.3400 -0.2800
v 0.3100 -32.1900 -6.9900
v 0.2800 -25.3400 -7.2200
v 0.0800 -18.6400 -0.8700
v 0.1200 -18.5900 11.6100
v -0.3500 -24.9900 17.7800
v -0.4200 -32.2900 17.5200
v 8.7200 -36.7400 -23.1900
v 14.8800 -39.9400 -30.2300
v 21.8400 -34.9400 -38.0400
v 23.6800 -28.3900 -39.9600
v 21.8300 -21.6900 -38.0500
v 15.0200 -16.5900 -30.2500
v 8.9100 -21.3400 -23.1100
v 7.0200 -28.3400 -21.1400
v 8.9100 -35.9400 -23.1100
v -0.0400 -5.6900 26.1100
v 0.2500 23.4600 24.8400
v -16.1500 -17.4400 -23.4800
v -25.1800 -19.1900 -27.5200
v -29.0000 -28.8900 -29.4200
v -24.1000 -37.8400 -27.2500
v -14.0900 -38.6400 -22.1800
v -8.9300 -32.2400 -20.2700
vt 0.0000 0.1875
vt 0.0000 0.3438
vt 0.0000 0.3906
vt -0.0039 -3.7393
vt 0.0098 -3.9053
vt 0.0410 -3.4609
vt 0.0254 -2.8311
vt 0.0410 -2.1523
vt -0.0010 -1.6494
vt -0.0049 -2.1133
vt -0.0537 -2.8115
vt -0.0049 -3.4561
vt 1.0830 -3.7490
vt 1.8428 -3.7344
vt 2.2598 -3.0996
vt 2.2568 -2.4111
vt 1.8584 -1.8008
vt 1.1465 -1.7861
vt 0.7188 -2.4062
vt 0.7383 -3.1680
vt 2.8340 2.2715
vt -0.0137 3.4482
vt 0.0156 2.2910
vt -1.9541 -1.6494
vt -2.7793 -2.2500
vt -2.7480 -3.3730
vt -1.8672 -3.8857
vt -1.0498 -3.5391
vt -0.8379 -2.6797
f 1/1 2/2 3/3
f 4/4 5/5 6/6
f 7/7 8/8 9/9
f 10/10 11/11 12/12
f 13/13 14/14 15/15
f 16/16 17/17 18/18
f 19/19 20/20 21/21
f 22/22 23/23 24/24
f 25/25 26/26 27/27
