# Conker's Bad Fur Day — Real 3D Model (Vegetation & Foliage)
o assets00_model_004

v 0.0000 0.0000 -3.1900
v -0.5700 -0.5700 -0.5500
v 0.0000 -1.8900 -1.8900
v 0.0000 0.0000 -2.5400
v -0.5300 -0.5100 -0.5200
v -3.1700 -22.3500 -1.1900
v -1.1900 -0.5700 -0.5700
v -1.2100 -0.5500 -0.5600
v -0.5500 -0.5600 -0.5500
v -0.5500 0.0000 0.0000
v -0.5300 0.0000 -0.5100
v 0.0000 0.0000 23.0300
v 0.0000 0.0000 2.3900
v 1.2700 -0.0100 0.0000
v 0.0000 0.0000 0.1100
v 0.0000 33.2700 0.0000
v 0.0000 0.0800 -22.2600
v 0.0000 0.3000 -0.0100
v -0.0100 -0.0100 0.0000
v 0.0000 1.5900 -0.0100
v -0.0100 -0.0100 0.0000
v -0.0100 -0.0100 0.5900
v 0.1500 -0.0100 -0.0100
v -0.0100 -0.0100 0.1200
v 0.0500 -0.0100 -0.0100
v 0.7700 -0.0100 -0.0100
v -0.0100 -0.0100 22.8700
v -0.0100 -0.0100 4.9500
v -0.0100 -0.0100 0.0800
v 0.4300 -0.0100 -0.0100
v -0.0100 -0.0100 7.3500
v 0.9000 -0.0100 -0.0100
v -0.0100 -0.0100 0.0000
v 0.0000 0.4700 -0.0100
v 0.0000 15.2200 0.0000
v -1.8700 0.0000 0.0000
v -0.5500 -0.5500 -1.1900
v -1.8700 -1.2100 -21.0300
v -1.1900 -0.5300 -0.5600
v 0.0000 0.0000 -4.4800
v -0.5500 -0.5300 -0.5100
v 0.0000 -3.1900 -23.6500
v -1.8300 -0.5300 -0.5300
v 0.0000 -3.2000 -24.2900
v -0.5500 -0.5100 -0.5100
v -0.5600 -1.2100 -23.6300
v 0.0000 -0.5900 -0.5700
v -22.3500 -1.2100 -3.1500
v 0.0000 0.0000 -0.5800
v -0.5700 -0.5700 -1.2300
v 0.0000 0.0000 -0.5700
v -0.5900 -0.5700 -0.5500
v 0.0000 0.0000 -0.5600
v 0.0000 0.0000 -0.5400
v 0.0000 0.0000 -0.5500
v 0.0000 0.0000 2.9000
v -0.0100 -0.0500 13.0100
v 4.7900 -0.0100 -0.0100
v -0.0100 -0.0100 0.1200
v 15.3500 -5.4500 0.0000
v -0.0100 -0.0100 0.0000
v -0.0100 -0.0100 0.0000
v 0.0000 15.3500 -0.0100
v -0.0100 -0.0100 0.0000
v 0.5800 -0.0100 -0.0100
v -0.0100 -0.0100 1.4300
v 0.1100 -0.0100 -0.0100
v -0.0100 -0.0100 0.0100
v -0.0100 -0.0100 0.0400
v 0.4500 -0.0100 -0.0100
v -0.0100 -0.0100 4.4700
v 7.0300 -0.0100 -0.0100
v -0.0100 -0.0100 0.0000
v -0.0100 -0.0100 0.0000
v 0.0000 0.0000 5.1100
v 2.2300 -1.4200 0.0000
v 0.0000 0.0000 1.4300
v 0.0000 0.0000 0.9100
v 0.1800 0.0000 0.0000
v -1.2100 -0.5500 -0.5700
v -0.5500 -0.5700 -0.5700
v -26.1900 -2.4700 -0.5500
v -1.8300 -0.5300 -0.4900
v -28.1100 -2.4700 -0.5300
v -3.1300 -2.4900 -0.5800
v -28.1300 -28.7700 -8.9100
v -1.1900 -0.5300 -0.5500
v -0.5500 -0.5300 -0.5400
v -0.5300 -0.5300 -0.4900
v -0.4900 -0.5000 -0.4700
v -1.2100 -23.6300 -3.1500
v -26.1900 -3.1300 -3.1300
v -2.5100 -1.8500 -0.5300
v -22.9700 -0.5300 -0.5100
v -0.5600 -0.5400 -0.5300
v -1.1700 -0.5000 0.0000
v -0.5100 -0.4500 0.0000
v -0.4700 0.0000 0.0000
v -0.4500 0.0000 0.0000
v 0.0000 0.0000 0.1700
v 0.0000 0.0500 0.0000
v 0.0000 0.0700 0.0000
v 0.0000 0.0000 1.4200
v 0.0000 0.7800 -0.0100
v -0.0100 -0.0100 0.0000
v -0.0100 -0.0100 0.0000
v -0.0100 -0.0100 1.1000
v -0.0100 -0.0100 0.0000
v 0.0000 2.5500 -0.0100
v -0.0100 -0.0100 0.0000
v -0.0100 -0.0100 0.0100
v 0.4500 -0.0100 -0.0100
v -0.0100 -0.0100 0.1000
v 0.0000 28.1500 -0.0100
v -0.0100 -0.0100 0.0000
v -0.0100 -0.0100 0.0000
v -0.0100 -0.0100 0.0400
v 0.0000 0.0700 -0.0100
v -0.0100 -0.0100 0.0000
v 0.0000 0.1100 -0.2200
v 0.0000 4.7900 0.0000
v 0.0000 0.1000 0.0000
v 23.0500 23.0500 23.0500
v -22.3500 -0.5900 -0.5900
v -1.8700 -2.5100 -3.1700
v -0.5900 -0.5900 -25.5500
v -1.2100 -1.2300 0.0000
v -1.8700 -0.5700 0.0000
v -5.0500 -0.5300 -0.4900
v -1.8300 -4.4100 -0.5300
v -7.6300 -28.0900 -1.8300
v -29.3900 -5.0700 -3.1300
v -5.7100 -2.4900 -0.5300
v -24.2500 -1.1900 -0.5300
v -1.2100 -3.7900 -27.4900
v -0.5300 -0.5300 -0.5100
v -0.5100 -0.5100 -0.5400
v -0.5700 -1.2100 -0.5100
v -0.5100 -0.5100 -0.5100
v -0.5600 -0.5100 -1.1900
v -0.4900 -0.4700 -0.4600
v 0.0000 0.0000 -0.5700
v -3.1300 -2.4900 -1.1900
v 0.0000 0.0000 -0.5700
v -0.5600 -0.5300 -0.5300
v 0.0000 0.0000 -1.2100
v 0.0000 -0.5400 -0.5100
v 0.0000 0.0000 -0.5600
v 0.0000 0.0000 -0.5100
v 0.0000 0.0000 0.0100
v 0.0000 1.7500 0.0000
v 0.0000 10.1800 0.0000
v 0.0000 38.2700 0.0000
v 0.0000 0.0000 7.3500
v 0.0000 0.1000 -0.0100
v -0.0100 -0.0100 0.0000
v -0.0100 -0.0100 0.0000
v 0.0000 7.5100 -0.0100
v -0.0100 -0.0100 0.0000
v 0.0200 -0.0100 -0.0100
v -0.0100 -0.0100 0.0400
v 0.7500 -10.2500 -0.0100
v -0.0100 -0.0100 6.7500
v -0.0100 -0.0100 0.0000
v 0.0000 23.0300 -0.0100
v -0.0100 -0.0100 0.0000
v -0.0100 -0.0100 0.0000
v 0.0000 0.1400 -0.0100
v -0.0100 -0.0100 0.0000
v -0.0100 -0.0100 0.0000
v 1.2700 -0.0500 0.0000
v 0.0000 0.0000 1.2700
v 0.0000 0.0000 0.7900
v -1.2800 0.0000 0.0000
v -1.2300 -0.5700 -0.5500
v -2.5400 0.0000 0.0000
v -1.2300 0.0000 0.0000
v -28.7700 -4.4300 -4.4300
v -0.5700 0.0000 0.0000
v -0.5700 -0.5700 -3.1500
v -3.1500 -0.5500 -0.5100
v -3.7700 -1.1700 -0.5300
v -3.7700 -5.6900 -4.3900
v -3.1300 -5.7100 -10.8500
v -3.7700 -2.4700 -0.5500
v -1.8500 -0.5100 -0.4900
v -26.8100 -1.1700 -0.5100
v -1.8300 -0.5100 -0.4900
v 0.0000 -0.5800 -1.2100
v -0.5100 -0.4900 -0.4600
v 0.0000 -0.5800 -0.5500
v 0.0000 0.0000 -0.5300
v -3.1500 -1.2100 -1.1800
v 0.0000 0.0000 -0.5300
v -0.5700 -0.5100 -0.5100
v 0.0000 0.0000 -1.1900
v -0.5500 -0.4900 0.0000
v -0.5200 0.0000 0.0000
v -0.4700 -0.4500 0.0000
v -0.4500 0.0000 0.0000
v 0.0000 0.0000 3.7500
v 0.0000 0.0000 0.0100
v 0.0000 0.0000 0.0800
v 0.0000 0.0000 1.2700
v 1.2700 -0.0100 0.0000
v 0.0000 0.0000 0.3100
v 30.5400 -0.0100 0.0000
v 0.0000 0.0500 -0.0100
v -0.0100 -0.0100 0.0000
v 0.0000 0.3100 -0.0100
v -0.0100 -0.0100 0.0000
v -0.0100 -0.0100 0.0000
v 0.0000 20.4700 -0.0100
v -0.0100 -0.0100 0.0000
v -0.0100 -0.0100 0.0400
v -0.0100 -0.0100 0.0400
v -0.0100 -0.0100 0.5900
v 0.6500 0.4600 -0.0100
v -0.0100 -0.0100 0.0000
v 0.0000 1.4300 -0.0100
v 0.0000 1.9100 -0.0100
v 0.0000 0.0000 15.3500
v 7.6700 -0.0100 0.0000
v 2.5500 -5.1300 0.0000
v 0.0000 0.0000 1.8700
v 0.6600 2.3900 0.0000
v -26.1900 -5.0900 0.0000
v -3.8100 -5.0900 -7.6500
v -23.6500 -2.5300 -23.6500
v -2.5300 -0.6100 0.0000
v -4.3900 0.0000 0.0000
v -1.1500 0.0000 0.0000
v -0.4900 0.0000 0.0000
v -0.0100 -5.3100 0.0000
v -0.0100 -0.3400 0.0000
v -0.0100 -0.0100 0.0000
v -0.0100 -0.0100 0.0000
v 0.0000 4.7900 0.0000
v 0.0000 35.8300 0.0000
v 0.0000 2.5600 0.0500
v -5.1300 -0.0100 0.9400
v 4.7900 -0.0100 -0.0100
v -0.0100 -0.0100 20.4700
v -0.0100 -0.0100 0.0000
v 0.0000 0.1100 -0.0100
v -0.0100 -0.0100 0.9400
v 4.7900 -0.0100 -0.0100
v -0.0100 -0.0100 15.3500
v -0.3300 -0.0100 17.9100
v 28.1500 -0.0100 -17.7300
v 0.0000 1.5900 0.0000
vt -4.6240 -10.9365
vt 0.0000 0.0000
vt -4.6846 -6.9365
vt -0.2471 -2.3721
vt 0.0000 0.0000
vt -4.3730 -4.4346
vt -0.0508 0.0000
vt -0.1221 -0.1201
vt -0.0459 0.0000
vt -0.3096 -0.1826
vt 0.0000 0.0000
vt 8.9961 0.0000
vt -11.3447 20.0000
vt 0.0000 0.0000
vt -0.0107 -1.7500
vt 0.0000 0.0000
vt -0.0010 -0.0010
vt -0.0010 -0.0010
vt -3.7500 0.0000
vt -0.0010 -0.0010
vt -1.2500 0.0000
vt -0.5000 0.0000
vt -0.0010 -0.0010
vt -0.1875 0.0000
vt -0.0010 -0.0010
vt -0.0010 -0.0010
vt -0.1250 0.0000
vt -0.1250 0.0000
vt -0.3281 0.0000
vt -0.0010 -0.0010
vt -0.7275 0.0000
vt -0.0010 -1.0176
vt 0.0000 0.0000
vt -0.0010 -24.0000
vt 0.0000 0.0000
vt 0.0000 0.0000
vt 0.0000 0.0000
vt 0.0000 0.0000
vt -26.1855 19.1250
vt -0.0576 -2.5576
vt -0.0527 0.0000
vt -2.3096 -6.5596
vt -0.0459 0.0000
vt -0.1826 -0.1826
vt 0.0000 0.0000
vt -6.6846 -0.6221
vt -0.2451 -0.1807
vt -0.0508 -0.0498
vt -2.2451 -0.0498
vt 0.0000 0.0000
vt -0.0527 -0.0479
vt 0.0000 0.0000
vt -0.0498 0.0000
vt 0.0000 0.0000
vt 0.0000 0.0000
vt 4.2656 0.0000
vt 0.0000 0.0000
vt -1.0098 0.0000
vt 0.0000 0.0000
vt -32.0000 0.0000
vt -3.0000 0.0000
vt -0.5000 0.0000
vt -0.0010 -0.0010
vt -0.0742 0.0000
vt -0.0010 -0.0010
vt -0.0049 0.0000
vt -0.0010 -0.0010
vt -0.6621 -12.0000
vt -0.0459 8.5000
vt -0.0010 -0.0010
vt -0.0029 28.0000
vt -0.0010 -0.0020
vt 0.0000 0.0000
vt 0.0000 0.0000
vt -0.0010 9.9629
vt 0.0000 0.0000
vt 6.9922 0.0000
vt 0.1631 0.0000
vt 0.0000 0.0000
vt 0.0000 0.0000
vt -30.4355 0.0000
vt -0.0576 0.0000
vt -0.0479 -0.0508
vt -0.0479 -0.0498
vt 0.0000 0.0000
vt -21.4990 28.3760
vt 0.0000 0.0000
vt 0.0000 0.0000
vt 0.0000 0.0000
vt 0.0000 0.0000
vt -0.3682 -2.5576
vt -0.1807 -0.0537
vt -0.0518 -0.1807
vt -0.0537 -0.0518
vt 0.0000 -0.0537
vt -0.0518 -0.0518
vt 0.0000 0.0000
vt 0.0000 0.0000
vt 0.0000 0.0000
vt 16.5332 4.0000
vt 0.0000 0.0000
vt 0.0000 0.0000
vt -0.0010 -11.7500
vt -0.0010 -0.0010
vt -1.2500 0.0000
vt -0.1562 0.0000
vt -0.0029 0.0000
vt -1.2344 0.5156
vt -0.0010 -0.0010
vt -0.0049 4.0000
vt -0.0010 -0.7500
vt -0.0010 -0.0010
vt -0.0059 4.0000
vt -0.0010 -0.0010
vt -0.2188 0.0000
vt -0.0469 0.0000
vt -0.0156 0.0000
vt -0.0010 -0.0078
vt 0.0000 0.0000
vt -0.1768 -0.0088
vt 0.0000 0.0000
vt 0.0000 0.0000
vt -4.3076 -12.2432
vt -14.6846 -0.3721
vt 0.0000 0.0000
vt -2.4951 -2.8096
vt 0.0000 0.0000
vt 0.0000 0.0000
vt -0.0498 -0.0547
vt -0.0488 0.0000
vt -0.0479 0.0000
vt 0.0000 0.0000
vt -0.0557 0.0000
vt -0.0518 -0.0508
vt -2.8076 -9.1221
vt -0.0498 -0.0459
vt 0.0000 0.0000
vt -6.8076 -4.8096
vt 0.0000 0.0000
vt -0.3057 -4.6846
vt 0.0000 0.0000
vt -0.1182 -2.3076
vt -0.0498 -0.0518
vt -0.1826 -0.0518
vt -0.0488 0.0000
vt -0.0518 -0.0479
vt -0.0459 0.0000
vt -0.0498 0.0000
vt -0.0469 0.0000
vt 21.0332 8.2500
vt 0.0000 0.0000
vt 0.0000 0.0000
vt 0.0000 0.0000
vt -0.0010 -0.0010
vt -0.2510 -0.0010
vt -0.2344 0.0000
vt -0.2500 0.0000
vt -0.0010 -0.0010
vt -1.5000 0.0000
vt -0.0010 -0.0010
vt -0.0010 -2.7500
vt -0.0010 -0.0010
vt -0.0020 16.0000
vt -0.0449 0.0000
vt -0.0010 -0.0010
vt -0.0049 0.0000
vt -0.0010 -1.5000
vt -0.0010 -0.0010
vt -0.2188 0.0000
vt -0.1406 0.0000
vt 0.0000 0.0000
vt 23.9990 -12.0000
vt 1.4990 -32.0000
vt 0.0000 0.0000
vt -0.1182 -0.1240
vt 0.0000 0.0000
vt 0.0000 0.0000
vt -0.6201 -0.3076
vt 0.0000 0.0000
vt -4.6221 -2.8096
vt -0.0537 0.0000
vt -0.0527 0.0000
vt -0.0518 0.0000
vt 16.1885 24.7080
vt -0.0518 -0.0518
vt -0.0547 0.0000
vt -0.0479 -0.0498
vt -0.0479 -0.0469
vt -2.1826 -0.2432
vt 0.0000 0.0000
vt -0.0557 -0.0498
vt -0.0498 -0.1152
vt -0.1162 -0.0537
vt -0.0469 -0.0566
vt -0.0508 -0.0498
vt 0.0000 0.0000
vt 0.0000 -0.0498
vt 0.0000 0.0000
vt 0.0000 0.0000
vt 0.0000 0.0000
vt -10.1338 29.8662
vt 0.0000 0.0000
vt 0.5889 -24.2666
vt -0.0010 -0.0010
vt 0.0000 0.0000
vt -0.0010 -10.7344
vt 0.0000 0.0000
vt -4.0010 -2.7822
vt -20.0000 0.0000
vt -0.0010 -0.0010
vt -12.0000 4.0000
vt -5.3145 -4.0000
vt -0.0010 -0.0010
vt -0.0010 20.0000
vt -0.0117 0.0000
vt -0.0010 -1.5000
vt -0.0010 -0.0469
vt -0.0010 -0.0010
vt -0.0020 28.2500
vt -0.0010 -0.0010
vt -0.0010 -0.0010
vt -0.0010 -0.0020
vt 0.0000 0.0000
vt 0.0000 0.0000
vt -0.1865 -8.0010
vt 8.0000 0.0000
vt 0.0000 0.0000
vt -11.3740 -27.6230
vt 0.0000 0.0000
vt 0.0000 0.0000
vt 0.0000 0.0000
vt 0.0000 0.0000
vt 0.0000 0.0000
vt -0.0010 -0.7500
vt -17.3369 20.7500
vt 0.0000 2.3281
vt 0.0000 1.4531
vt -9.7021 0.0000
vt 8.0000 0.0000
vt -0.0791 -0.0010
vt -0.0303 0.0000
vt -0.0010 -0.0010
vt 20.2500 0.0000
vt 0.0000 0.0000
vt -0.0010 -0.1094
vt 0.0000 0.0000
vt -0.0010 -0.3896
vt 0.0000 0.0000
vt 12.0000 0.0000
vt -0.0010 -0.0010
vt 0.0000 0.0000
f 124/124 1/1 1/1
f 128/128 127/127 112/112
f 128/128 65/65 1/1
