# Conker's Bad Fur Day — Real 3D Model (Multiplayer Level Models)
o assets09_model_117

v 0.0000 5.0400 0.0000
v -1.6400 2.3700 -2.5800
v 0.2100 8.3000 -2.5800
v 9.5400 6.5700 -2.5800
v 8.6700 12.2500 -2.5800
v 9.7900 6.4400 -2.5800
v 9.1300 12.1200 -2.5800
v 4.9400 11.0000 -2.5800
v 10.0700 1.6300 -2.5800
v 0.4900 3.0200 -28.2800
v 9.9500 1.7400 -2.5800
v 3.3000 16.5700 -2.5800
v 5.2700 18.8500 -2.5800
v 7.9700 11.3600 -2.5800
v 8.6800 1.1300 -2.5800
v 1.9600 1.2700 -28.2800
v 1.9100 19.2400 -28.2800
v 8.7400 19.4500 -2.5800
v -28.0000 0.0000 17.9200
v -33.2800 0.0000 18.3400
v -28.1600 2.5600 15.3600
v -7.5200 0.0000 0.6400
v -28.0800 11.5200 2.6500
v -28.0800 6.7200 5.2000
v -28.0800 6.8000 7.7600
v -7.5200 0.0000 0.6400
v 2.5700 0.3200 2.5600
v 15.5000 30.8200 0.1600
v -7.5200 0.0000 0.6400
vt 0.0000 0.0000
vt 0.0127 0.0850
vt 0.0000 0.0811
vt 0.0000 0.0996
vt 0.0000 0.0811
vt 0.0000 0.0996
vt -0.0098 0.0947
vt -0.0127 0.0850
vt -0.0166 0.0645
vt 0.0000 0.0645
vt 0.0000 0.0498
vt 0.0000 0.0996
vt 0.0127 0.0850
vt 0.0117 0.0820
vt 0.0127 0.0625
vt -0.0166 0.0645
vt -0.0156 0.0479
vt 0.0127 0.0625
vt -6.5000 0.0000
vt -6.2500 0.0000
vt -6.5000 0.0000
vt -4.0000 0.0000
vt -3.5000 8.0020
vt -3.5000 8.0020
vt -3.5000 8.0020
vt -4.0000 0.0000
vt 4.7656 -27.9014
vt 1.2656 0.0176
vt -4.0000 0.0000
f 13/13 14/14 9/9
f 10/10 13/13 9/9
f 8/8 7/7 6/6
f 9/9 2/2 1/1
f 9/9 1/1 10/10
f 11/11 12/12 13/13
f 12/12 14/14 13/13
f 15/15 16/16 14/14
