mtllib assets09_model_034.mtl
# Conker's Bad Fur Day — Real 3D Model (Multiplayer Level Models)
o assets09_model_034
usemtl assets09_model_034_mat

v 0.0000 16.5600 0.0000
v 10.2300 0.5500 -0.0100
v 5.7600 0.4200 -0.0100
v 10.8400 3.5400 -0.0100
v 6.3700 3.4100 -0.0100
v 4.4100 3.0600 -0.0100
v 10.5100 3.2400 -0.0100
v 3.3000 0.7600 -0.0100
v 9.4000 0.9400 -0.0100
v 15.1600 4.4800 -0.0100
v 0.1000 0.4400 -0.0100
v 15.1600 1.2000 -0.0100
v 1.0800 4.5700 -0.0100
v 15.1600 1.2000 -0.0100
v 0.1000 0.4400 -0.0100
v 15.1600 4.4800 -0.0100
v 1.0800 4.5700 -0.0100
v 10.2300 0.5500 -0.0100
v 5.7600 0.4200 -0.0100
v 10.8400 3.5400 -0.0100
v 6.3700 3.4100 -0.0100
v 4.4100 3.0600 -0.0100
v 10.5100 3.2400 -0.0100
v 3.3000 0.7600 -0.0100
v 9.4000 0.9400 -0.0100
v 15.1600 4.4800 -0.0100
v 0.1000 0.4400 -0.0100
v 15.1600 1.2000 -0.0100
v 1.0800 4.5700 -0.0100
v 15.1600 1.2000 -0.0100
v 0.1000 0.4400 -0.0100
v 15.1600 4.4800 -0.0100
v 1.0800 4.5700 -0.0100
v 10.2300 0.5500 -0.0100
v 5.7600 0.4200 -0.0100
v 10.8400 3.5400 -0.0100
v 6.3700 3.4100 -0.0100
v 4.4100 3.0600 -0.0100
v 10.5100 3.2400 -0.0100
v 3.3000 0.7600 -0.0100
v 9.4000 0.9400 -0.0100
v 15.1600 4.4800 -0.0100
v 0.1000 0.4400 -0.0100
v 15.1600 1.2000 -0.0100
v 1.0800 4.5700 -0.0100
v 15.1600 1.2000 -0.0100
v 0.1000 0.4400 -0.0100
v 15.1600 4.4800 -0.0100
v 1.0800 4.5700 -0.0100
v 0.0000 0.0000 -0.0100
v 0.0000 0.0000 -0.0100
v 0.0000 0.0000 -0.0100
v 0.0000 0.0000 -0.0100
v 0.0000 0.0000 -0.0100
v 0.0000 0.0000 -0.0100
v 0.0000 0.0000 -0.0100
v 0.0000 0.0000 -0.0100
v 0.0000 0.0000 -0.0100
v 0.0000 0.0000 -0.0100
v 0.0000 0.0000 -0.0100
v 0.0000 0.0000 -0.0100
v 0.0000 0.0000 -0.0100
v 0.0000 0.0000 -0.0100
v 0.0000 0.0000 -0.0100
v 0.0000 0.0000 -0.0100
v 0.0000 0.0000 -0.0100
v 0.0000 0.0000 -0.0100
v 0.0000 0.0000 -0.0100
v 0.0000 0.0000 -0.0100
v 0.0000 0.0000 -0.0100
v 0.0000 0.0000 -0.0100
v 0.0000 0.0000 -0.0100
v 0.0000 0.0000 -0.0100
v 0.0000 0.0000 -0.0100
v 0.0000 0.0000 -0.0100
v 0.0000 0.0000 -0.0100
v 0.0000 0.0000 -0.0100
v 0.0000 0.0000 -0.0100
v 0.0000 0.0000 -0.0100
v 0.0000 0.0000 -0.0100
v 0.0000 0.0000 -0.0100
v 0.0000 0.0000 -0.0100
v 0.0000 0.0000 -0.0100
v 0.0000 0.0000 -0.0100
v 0.0000 0.0000 -0.0100
v 0.0000 0.0000 -0.0100
v 0.0000 0.0000 -0.0100
v 0.0000 0.0000 -0.0100
v 0.0000 0.0000 -0.0100
v 0.0000 0.0000 -0.0100
v 0.0000 0.0000 -0.0100
v -28.0000 0.0000 17.9200
v -33.2800 0.0000 18.1500
v -28.1600 2.5600 15.3600
v -7.5200 0.0000 0.6400
v -7.5200 0.0000 0.6400
v 15.3600 15.3800 0.1400
v 28.4600 28.4600 28.4600
v -25.9000 -25.9000 -25.9000
vt 0.0000 0.0000
vt 0.0078 0.0098
vt 0.0195 0.0186
vt 0.0156 0.0068
vt 0.0078 0.0107
vt 0.0127 0.0215
vt 0.0156 0.0078
vt 0.0195 0.0186
vt 0.0117 -0.0029
vt 0.0156 0.0068
vt 0.0117 -0.0029
vt 0.0195 0.0186
vt 0.0049 0.0000
vt 0.0078 0.0098
vt 0.0078 0.0107
vt 0.0127 0.0215
vt -0.0117 -0.0449
vt -0.0176 -0.0596
vt -0.0049 -0.0479
vt -0.0098 -0.0625
vt -0.0078 -0.0342
vt -0.0117 -0.0449
vt -0.0010 -0.0371
vt -0.0049 -0.0479
vt -0.0039 -0.0479
vt -0.0098 -0.0625
vt -0.0039 -0.0479
vt -0.0049 -0.0479
vt -0.0117 -0.0449
vt -0.0176 -0.0596
vt -0.0078 -0.0342
vt -0.0117 -0.0449
vt 0.0000 -0.0117
vt -0.0049 -0.0254
vt 0.0078 -0.0146
vt 0.0029 -0.0283
vt 0.0000 -0.0117
vt 0.0000 -0.0117
vt 0.0078 -0.0146
vt 0.0078 -0.0146
vt 0.0039 -0.0254
vt 0.0029 -0.0283
vt 0.0039 -0.0254
vt 0.0078 -0.0146
vt -0.0039 -0.0225
vt -0.0049 -0.0254
vt 0.0000 -0.0117
vt 0.0000 -0.0117
vt 0.0039 -0.0137
vt 0.0049 0.0000
vt 0.0078 0.0107
vt 0.0010 -0.0205
vt 0.0010 -0.0215
vt 0.0039 -0.0117
vt 0.0156 0.0078
vt 0.0117 -0.0029
vt 0.0039 -0.0117
vt 0.0117 -0.0029
vt 0.0049 0.0000
vt 0.0039 -0.0137
vt 0.0078 0.0107
vt 0.0156 0.0078
vt 0.0039 -0.0137
vt -0.0039 -0.0225
vt 0.0000 -0.0117
vt 0.0000 -0.0244
vt -0.0029 -0.0322
vt -0.0039 -0.0352
vt 0.0078 -0.0146
vt 0.0039 -0.0254
vt -0.0039 -0.0352
vt 0.0039 -0.0254
vt -0.0039 -0.0225
vt 0.0039 -0.0137
vt 0.0000 -0.0117
vt 0.0078 -0.0146
vt 0.0039 -0.0137
vt -0.0117 -0.0449
vt -0.0078 -0.0342
vt -0.0010 -0.0273
vt -0.0059 -0.0410
vt -0.0117 -0.0566
vt -0.0010 -0.0371
vt -0.0039 -0.0479
vt -0.0117 -0.0566
vt -0.0039 -0.0479
vt -0.0117 -0.0449
vt 0.0039 -0.0137
vt -0.0078 -0.0342
vt -0.0010 -0.0371
vt 0.0000 1.6250
vt -6.5000 0.0000
vt -6.2500 0.0000
vt -6.5000 0.0000
vt -4.0000 0.0000
vt -4.0000 0.0000
vt -9.5049 -0.0010
vt 10.3623 10.3623
vt 10.3623 10.3623
f 17/17 18/18 19/19
f 18/18 20/20 19/19
f 17/17 18/18 19/19
f 18/18 20/20 19/19
f 17/17 18/18 19/19
f 18/18 20/20 19/19
f 1/1 4/4 2/2
f 8/8 4/4 1/1
f 1/1 4/4 2/2
f 8/8 4/4 1/1
f 1/1 4/4 2/2
f 8/8 4/4 1/1
