# Conker's Bad Fur Day — Real 3D Model (Spooky Models)
o assets10_model_030

v 0.0000 2.2400 0.0000
v 0.0000 2.5600 0.0000
v 0.0000 2.8800 0.0000
v 0.0000 3.2000 0.0000
v 0.0000 3.5200 0.0000
v 0.0000 3.8400 0.0000
v 0.0000 4.1600 0.0000
v 0.0000 4.4800 0.0000
v 0.0000 4.8000 0.0000
v 0.0000 5.1200 0.0000
v 0.0000 5.4400 0.0000
v 0.0000 5.7600 0.0000
v 0.0000 6.0800 0.0000
v 0.0000 6.4000 0.0000
v -19.2100 0.3400 -10.2700
v -19.2100 0.3400 -10.2700
v -8.6500 0.3400 -2.8500
v 1.8500 0.3400 -10.3100
v 1.8300 0.3400 -34.8900
v -8.4400 0.3400 -28.0900
v -24.9500 0.2800 0.1000
v -26.3700 0.2700 0.8500
v -22.5200 0.2700 -5.0400
v -22.6800 0.1800 -6.9900
v -5.4200 0.2400 -7.5400
v -5.6000 0.2600 -7.6900
v 7.8000 0.2600 -9.1200
v 9.1300 0.1300 -10.6700
v 10.6600 0.2900 -13.0400
v 7.9400 0.2500 -13.3500
v 9.9200 0.2100 -12.1200
v 8.9200 4.1300 -24.1100
v 10.3300 0.2500 -26.1700
v 10.5800 0.2700 -27.6700
v -25.1300 3.8400 -38.7800
v -26.2600 0.2100 -38.4500
vt 0.0000 0.2344
vt 0.0000 0.2656
vt 0.0000 0.2969
vt 0.0000 0.3281
vt 0.0000 0.3594
vt 0.0000 0.3906
vt 0.0000 0.4219
vt 0.0000 0.4531
vt 0.0000 0.4844
vt 0.0000 0.5156
vt 0.0000 0.5469
vt 0.0000 0.5781
vt 0.0000 0.6094
vt 0.0000 0.0000
vt -1.8760 0.0332
vt -1.8760 0.0332
vt -0.8447 0.0332
vt 0.1807 0.0332
vt 0.1787 0.0332
vt -0.8242 0.0332
vt -2.6094 0.0156
vt -2.7119 0.0264
vt -2.4902 0.0215
vt -2.6152 0.0156
vt -0.6904 0.1846
vt -0.5615 0.0137
vt 0.7188 0.0264
vt 0.8281 0.0146
vt 1.0020 0.0234
vt 0.8643 0.0146
vt 0.9971 0.0234
vt 0.9287 0.4033
vt 1.0000 0.1533
vt 0.7393 0.0283
vt -2.4336 0.0273
vt -2.5977 0.0205
f 1/1 2/2 3/3
f 4/4 5/5 6/6
f 7/7 8/8 9/9
f 10/10 11/11 12/12
f 13/13 14/14 15/15
f 16/16 17/17 18/18
f 19/19 20/20 21/21
f 22/22 23/23 24/24
f 25/25 26/26 27/27
f 28/28 29/29 30/30
f 31/31 32/32 33/33
f 34/34 35/35 36/36
