mtllib assets01_model_022.mtl
# Conker's Bad Fur Day — Real 3D Model (HUD & UI Props)
o assets01_model_022
usemtl assets01_model_022_mat

v 0.0000 0.0000 -0.0100
v 0.0000 0.0000 -0.0100
v 0.0000 0.0000 -0.0100
v 0.0000 0.0000 -0.2700
v 0.0000 0.0000 -0.0100
v 0.0000 0.0000 -0.0100
v 0.0000 0.0000 -0.0100
v 0.0000 0.0000 -0.0100
v 0.0000 0.0000 -0.0100
v 6.5300 -0.4100 -0.0100
v 10.1100 -0.3600 -0.0100
v 6.1100 2.7000 -0.0100
v 6.2800 8.2900 -0.0100
v 5.1900 10.2500 -0.8600
v 12.5900 6.2000 -0.0100
v 8.7300 3.2100 -0.0100
v 12.5900 6.2000 -0.0100
v 8.7300 3.2100 -0.0100
v 6.1600 2.6600 -0.0100
v 9.6900 -0.4600 -0.0100
v 6.5000 -0.6400 -0.0100
v 6.3900 8.6000 -0.0100
v 5.4400 10.6300 -0.8600
v -0.4400 -2.7600 -0.0100
v 4.4400 -2.2200 -0.0100
v 4.2200 0.3700 -0.0100
v 1.2700 0.8800 -0.0100
v 1.6100 1.9700 -0.0100
v 1.6400 5.2200 -0.0100
v 1.3700 5.9200 -0.0100
v 1.9300 10.1000 -0.8600
v 10.4400 -1.8500 -0.0100
v 6.1100 2.7000 -0.0100
v 0.6400 1.2100 -0.0100
v 6.5300 -0.4100 -0.0100
v 1.0000 2.2300 -0.0100
v 0.9900 5.3000 -0.0100
v 6.2800 8.2900 -0.0100
v 0.6800 5.9600 -0.0100
v 5.1900 10.2500 -0.8600
v 1.2500 9.8800 -0.8600
v 9.9400 6.3800 -0.0100
v 5.2900 5.4500 -0.0100
v 5.0900 9.9100 -0.0100
v 9.1000 9.8000 -0.0100
v 0.5600 6.1400 -0.0100
v 1.0900 9.6000 -0.0100
v 2.1700 8.4100 -0.0100
v 8.1300 8.5700 -0.0100
v 5.1500 9.4500 -0.0100
v 6.9900 8.9700 -0.2700
v 7.3000 8.9400 -0.2700
v 6.9900 8.9700 -0.2700
v 1.2700 13.8700 -0.0100
v 1.7900 15.1700 -0.0100
v 1.0600 16.2500 -0.0100
v 1.7900 15.1700 -0.0100
v 10.1100 9.6000 -0.0100
v 0.3600 7.5900 -0.0100
v 1.9000 7.3400 -0.0100
v 8.6500 8.7300 -0.0100
v 5.3000 7.7100 -0.0100
v 4.8700 13.3900 -0.0100
v 9.9600 4.2700 -0.0100
v 5.6100 5.0800 -0.0100
v 1.2900 2.4900 -0.0100
v 5.6200 3.4700 -0.0100
v 5.3100 4.8200 -0.0100
v 5.5600 -1.7700 -0.0100
v 12.6900 5.2400 -0.0100
v 4.8600 11.9700 -0.0100
v -2.0700 4.2100 -0.0100
v 5.8100 0.8700 -0.0100
v 2.0300 -1.0900 -0.0100
v 9.7700 0.5000 -0.0100
v 1.9800 0.2400 -0.0100
v 9.6900 0.8700 -0.0100
v 5.9100 -0.4000 -0.0100
v 7.5100 6.6800 -0.0100
v 3.7700 5.9600 -0.0100
v 8.3000 10.0800 -0.0100
v 10.2700 9.5300 -0.0100
v 8.2700 9.7600 -0.0100
v 8.4100 6.8900 -0.0100
v 7.9400 15.9500 -0.0100
v 9.5400 6.0600 -0.0100
v 7.8200 5.8100 -0.0100
v 7.5100 6.6800 -0.0100
v 3.7700 5.9600 -0.0100
v 8.2800 9.8600 -0.0100
v 10.2700 9.5300 -0.0100
v 8.2700 9.7600 -0.0100
v 1.4300 6.5600 -0.0100
v 7.9400 15.9500 -0.0100
v 2.1900 5.5400 -0.0100
v 0.4400 5.6300 -0.0100
v -20.2400 7.7600 -0.0100
v -18.6300 5.1400 -0.0100
v -18.6300 5.1600 -0.0100
v -17.0700 10.1500 -0.0100
v -16.7200 6.5500 -0.0100
v -16.8100 6.3700 -0.0100
v -13.5000 7.5000 -0.0100
v -8.1800 6.8500 -0.0100
v 20.5100 4.9300 -0.0100
v 22.1600 7.6100 -0.0100
v 20.5200 4.9500 -0.0100
v 18.8600 10.1400 -0.0100
v 18.5300 6.4200 -0.0100
v 18.6200 6.2300 -0.0100
v 15.1900 7.4700 -0.0100
v 9.7100 6.8900 -0.0100
v 4.3700 5.4600 -0.0100
v 5.1200 6.9600 -0.0100
v 4.3700 5.4600 -0.0100
v 10.8500 0.8800 -0.0100
v 10.8800 6.6700 -0.0100
v 5.0100 9.4600 -0.0100
v -0.8800 6.7000 -0.0100
v -0.9000 0.9100 -0.0100
v 4.9400 1.7100 -0.0100
v 2.9800 9.4000 -0.0100
v 2.7100 9.2600 -0.0100
v 5.7600 17.5900 -0.0100
v 7.8100 20.3600 -0.0100
v 5.7600 17.5900 -0.0100
v 9.5100 1.0000 -38.5600
v 9.3600 8.7400 -0.0100
v 10.3700 7.6700 -0.0100
v 8.1400 0.3200 -38.5600
v 2.4100 13.3900 -0.0100
v 5.2200 12.9700 -0.0100
v 8.0100 10.6200 -0.0100
v 6.7200 12.3400 -0.0100
v 4.4600 10.6100 -0.0100
v 6.6100 7.7700 -0.0100
v 5.0100 8.6700 -0.0100
v 4.5700 8.6500 -0.0100
v 5.9100 9.3300 -0.0100
v 7.2900 12.6300 -0.0100
v 6.7500 8.1500 -0.0100
v 8.1200 7.6800 -0.0100
v 7.2900 12.6300 -38.5600
v 8.1200 7.6800 -0.0100
v 6.7500 8.3000 -0.0100
v 6.3600 5.4700 -0.0100
v 6.3600 5.4700 -0.0100
v 7.2700 16.6800 -38.5600
v 4.4300 5.3100 -0.0100
v 7.2700 16.6800 -0.0100
v 5.7400 17.5600 -0.0100
v 5.7400 17.5600 -38.5600
v 6.1500 6.6300 -0.0100
v 3.9400 5.8500 -0.0100
v 4.3800 7.3700 -0.0100
v 7.4000 11.1100 -0.0100
v 5.3400 9.8000 -0.0100
v 3.3200 5.9100 -0.0100
v 3.3200 5.9100 -38.5600
v 1.1900 11.2300 -38.5600
v 1.1900 11.2300 -0.0100
v 6.3100 11.9800 -0.0100
v 6.7200 12.3400 -0.0100
v 4.4600 10.6100 -0.0100
v 4.6000 12.2300 -0.0100
v 5.7600 17.5900 -0.0100
v 1.1100 19.0900 -0.0100
v 1.1100 19.0900 -0.0100
v 5.7600 17.5900 -0.0100
v 8.3300 9.9600 -0.0100
v 7.4000 11.1100 -0.0100
v 5.3400 9.8000 -0.0100
v 5.7400 17.5600 -38.5600
v 5.7400 17.5600 -0.0100
v -2.5600 0.0000 0.0000
v 2.5800 5.1200 0.0000
v 7.7200 10.2400 0.0000
v 12.8600 15.3600 0.0000
v 23.1400 25.6000 0.0000
v 0.3200 0.3200 0.0000
v 0.0000 36.9900 0.0000
v 0.3200 0.3200 0.0000
v 0.3200 0.3200 0.0000
v -28.0000 0.0000 17.9200
v -33.2800 0.0000 18.2300
v -28.1600 2.5600 15.3600
v -7.5200 0.0000 17.9200
v -7.5200 0.0000 0.6400
v -7.5200 0.0000 0.0000
v -33.2800 0.0000 18.5500
v -28.0800 20.4800 0.0900
v -7.5200 0.0000 0.0000
v -33.2800 0.0000 18.3400
v -28.0800 20.4800 0.0900
v -28.0800 11.5200 2.6500
v -28.0800 6.7200 5.2000
v -28.0800 6.8000 7.7600
v -7.5200 0.0000 0.6400
v -7.5200 0.0000 15.3600
v -33.2800 0.0000 18.2300
v -28.0800 20.4800 0.0900
v -7.5200 0.0000 0.6400
v -7.5200 0.0000 0.0000
v -33.2800 0.0000 18.5500
v -28.0800 20.4800 0.0900
v -7.5200 0.0000 15.3600
v -7.5200 0.0000 0.0000
v -33.2800 0.0000 18.2300
v -28.0800 20.4800 0.0100
v -7.5200 0.0000 0.6400
v -7.5200 0.0000 0.0000
v -33.2800 0.0000 18.2300
v -28.0800 20.4800 0.0100
v -28.0800 20.4800 0.0900
v -7.5200 0.0000 15.3600
v -7.5200 0.0000 0.6400
v -7.5200 0.0000 0.6400
v -7.5200 0.0000 0.0000
v -33.2800 0.0000 18.5500
v -28.0800 20.4800 0.0900
v 15.5400 30.8800 0.1600
v 0.6800 2.4700 0.2000
vt 0.0107 0.0361
vt 0.0166 0.0215
vt 0.0186 0.0361
vt -0.0029 0.0332
vt -0.0039 0.0234
vt -0.0215 0.0293
vt -0.0137 0.0342
vt -0.0176 0.0225
vt 0.0166 0.0146
vt 0.0166 0.0146
vt 0.0107 0.0244
vt 0.0176 0.0264
vt 0.0127 0.0400
vt 0.0000 0.0312
vt 0.0127 0.0400
vt -0.0166 0.0264
vt 0.0000 0.0098
vt -0.0098 0.0244
vt -0.0156 0.0146
vt -0.0117 0.0166
vt -0.0107 0.0371
vt -0.0166 0.0264
vt -0.0117 0.0166
vt 0.0000 0.0166
vt 0.0000 0.0225
vt 0.0000 0.0225
vt 0.0000 0.0244
vt 0.0000 0.0312
vt 0.0000 0.0332
vt 0.0000 0.0410
vt 0.0117 0.0166
vt 0.0107 0.0244
vt 0.0000 0.0225
vt 0.0117 0.0166
vt 0.0000 0.0244
vt 0.0000 0.0312
vt 0.0107 0.0371
vt 0.0000 0.0332
vt 0.0088 0.0410
vt 0.0000 0.0410
vt 0.0215 0.0000
vt 0.0000 -0.0039
vt 0.0000 0.0303
vt 0.0215 0.0293
vt 0.0000 -0.0098
vt -0.0215 0.0000
vt -0.0156 0.0000
vt 0.0000 -0.0039
vt 0.0000 0.0439
vt -0.0078 0.0410
vt 0.0000 0.0410
vt 0.0088 0.0410
vt 0.0127 0.0400
vt -0.0146 0.0049
vt 0.0000 0.0186
vt -0.0146 0.0049
vt 0.0156 0.0049
vt 0.0000 -0.0020
vt -0.0225 0.0000
vt 0.0225 0.0000
vt 0.0000 -0.0010
vt 0.0000 0.0234
vt 0.0264 0.0088
vt 0.0010 0.0156
vt -0.0264 0.0088
vt 0.0000 0.0098
vt 0.0000 -0.0010
vt 0.0000 0.0098
vt -0.0264 0.0088
vt 0.0010 0.0156
vt 0.0264 0.0088
vt 0.0000 -0.0010
vt -0.0215 -0.0049
vt 0.0215 -0.0049
vt -0.0254 0.0000
vt 0.0205 -0.0039
vt 0.0000 -0.0049
vt -0.0137 -0.0088
vt 0.0127 -0.0088
vt -0.0176 -0.0059
vt -0.0176 -0.0059
vt 0.0137 0.0098
vt 0.0195 -0.0059
vt -0.0039 -0.0156
vt -0.0039 -0.0156
vt 0.0010 -0.0068
vt -0.0029 -0.0078
vt -0.0127 -0.0088
vt -0.0195 -0.0059
vt -0.0020 0.0176
vt -0.0137 0.0098
vt -0.0195 -0.0059
vt 0.0039 -0.0156
vt 0.0039 -0.0156
vt -0.0059 -0.0078
vt 0.0029 -0.0078
vt -0.0088 0.0000
vt -0.0098 0.0000
vt -0.0127 -0.0137
vt -0.0156 0.0039
vt -0.0166 0.0029
vt -0.0205 -0.0068
vt -0.0215 0.0049
vt -0.0215 -0.0020
vt 0.0166 0.0088
vt 0.0176 -0.0107
vt 0.0127 -0.0137
vt 0.0156 0.0039
vt 0.0166 0.0029
vt 0.0205 -0.0068
vt 0.0215 -0.0020
vt 0.0215 -0.0039
vt 0.0186 0.0000
vt 0.0156 0.0049
vt 0.0176 -0.0098
vt 0.0176 0.0039
vt 0.0000 0.0107
vt -0.0176 0.0039
vt -0.0176 -0.0098
vt 0.0000 -0.0078
vt -0.0156 -0.0078
vt -0.0107 -0.0088
vt 0.0195 -0.0273
vt 0.0000 0.0107
vt -0.0176 0.0039
vt 0.0000 0.0215
vt 0.0000 0.0312
vt -0.0186 0.0117
vt 0.0000 0.0215
vt -0.0146 0.0322
vt 0.0127 0.0322
vt 0.0000 0.0215
vt 0.0186 0.0117
vt -0.0107 0.0000
vt 0.0117 0.0000
vt 0.0029 0.0107
vt 0.0000 0.0127
vt 0.0098 0.0117
vt -0.0264 0.0068
vt -0.0244 0.0225
vt -0.0098 0.0254
vt 0.0000 0.0098
vt 0.0078 0.0254
vt 0.0225 0.0225
vt -0.0186 0.0117
vt 0.0127 0.0322
vt 0.0000 -0.0117
vt 0.0186 0.0117
vt 0.0166 0.0000
vt 0.0000 -0.0117
vt -0.0176 -0.0088
vt 0.0225 0.0225
vt 0.0078 0.0254
vt 0.0127 0.0322
vt -0.0146 0.0322
vt -0.0244 0.0225
vt 0.0000 -0.0352
vt -0.0186 -0.0137
vt -0.0215 -0.0186
vt 0.0000 -0.0273
vt -0.0020 0.0107
vt 0.0000 0.0127
vt -0.0107 0.0000
vt -0.0107 0.0107
vt 0.0176 0.0039
vt 0.0176 -0.0098
vt -0.0176 -0.0098
vt -0.0176 0.0039
vt -0.0098 0.0254
vt -0.0146 0.0322
vt -0.0244 0.0225
vt 0.0166 0.0000
vt 0.0166 -0.0088
vt 0.0166 0.0000
vt 16.2998 27.4561
vt 16.4639 -3.1602
vt 16.3984 22.5928
vt 16.2998 27.3203
vt -15.5723 -19.5068
vt 0.0000 4.6260
vt 0.0156 0.0312
vt 0.0000 4.6270
vt 0.0000 4.6182
vt -6.5000 0.0000
vt -6.2500 0.0000
vt -6.5000 0.0000
vt -4.0000 0.0000
vt -4.0000 0.0000
vt -6.5000 0.0000
vt -6.2500 0.0000
vt -3.5000 8.0020
vt -6.5000 0.0000
vt -6.2500 0.0000
vt -3.5000 8.0020
vt -3.5000 8.0020
vt -3.5000 8.0020
vt -3.5000 8.0020
vt -4.0000 0.0000
vt -6.5000 0.0000
vt -6.2500 0.0000
vt -3.5000 8.0020
vt -4.0000 0.0000
vt -6.5000 0.0000
vt -6.2500 0.0000
vt -3.5000 8.0020
vt -4.0000 0.0000
vt -6.5000 0.0000
vt -6.2500 0.0000
vt 7.3340 -9.0996
vt -4.0000 0.0000
vt -6.5000 0.0000
vt -6.2500 0.0000
vt -3.5000 8.0020
vt -3.5000 8.0020
vt -2.7344 0.0000
vt -4.0000 0.0000
vt -4.0000 0.0000
vt -6.5000 0.0000
vt -6.2500 0.0000
vt -3.5000 8.0020
vt 1.2617 4.5137
vt 15.4307 20.2891
f 122/122 1/1 34/34
f 94/94 42/42 128/128
f 122/122 1/1 28/28
f 94/94 42/42 128/128
f 85/85 1/1 27/27
f 94/94 1/1 81/81
f 120/120 2/2 118/118
f 4/4 4/4 1/1
f 4/4 4/4 1/1
f 5/5 5/5 1/1
f 5/5 5/5 1/1
f 20/20 17/17 18/18
f 17/17 16/16 18/18
f 13/13 23/23 14/14
f 15/15 14/14 23/23
f 16/16 9/9 8/8
f 15/15 19/19 20/20
f 15/15 20/20 16/16
f 28/28 27/27 30/30
f 9/9 8/8 15/15
f 19/19 20/20 16/16
f 15/15 19/19 16/16
f 30/30 28/28 27/27
f 31/31 3/3 32/32
f 10/10 7/7 9/9
f 9/9 8/8 10/10
f 7/7 10/10 8/8
