mtllib assets0B_model_002.mtl
# Conker's Bad Fur Day — Real 3D Model (Windy Level Models)
o assets0B_model_002
usemtl assets0B_model_002_mat

v 0.0000 0.0500 0.0000
v 0.0000 5.1100 0.0000
v 0.0000 0.0200 0.0000
v 7.1200 0.4000 0.0000
v 0.0000 0.1400 12.8000
v 17.7000 0.0000 0.0000
v 0.0000 0.3400 5.1200
v -1.9500 6.9000 0.0300
v 0.0000 0.0800 0.0000
v 0.0000 5.0700 0.0000
v 0.0000 0.0100 0.0000
v 0.0000 0.0500 0.0000
v -0.3800 0.0000 0.0000
v 2.5600 0.0000 0.0000
v 0.0000 0.1300 0.0000
v 0.0000 5.0200 0.0000
v 0.0000 0.0200 0.0000
v 0.0000 0.0500 12.8000
v 0.1600 0.0000 0.0000
v 0.0000 0.5300 2.4800
v 2.5600 0.0000 0.0000
v 0.0000 0.1600 0.0000
v 0.0000 5.0100 0.0000
v 0.0000 0.0000 -3.5000
v 0.0000 0.0200 0.0000
v 10.2400 0.0000 0.0000
v 0.0000 0.0100 0.0000
v 0.0000 0.0500 10.2400
v -0.0200 0.0000 0.0000
v 30.5400 -3.6500 -0.0200
v 0.0000 0.2000 0.0000
v 0.0000 4.9700 2.5600
v 0.0000 0.0200 0.0000
v 0.0000 0.0500 0.0000
v 20.7400 1.6200 -0.4000
v 0.0000 0.7000 -0.6000
v 0.0000 0.2400 0.0000
v 0.0000 0.0200 0.0000
v 0.0000 32.5000 32.5000
v 0.0000 0.0500 0.0000
v 1.4500 0.0000 0.0000
v 0.0000 0.1000 0.0000
v -1.1200 11.0000 0.2000
v 0.0000 0.3000 0.0000
v 0.0000 0.0200 0.0000
v 0.0000 0.0500 0.0000
v -18.0000 0.0000 0.0000
v 0.0000 0.7400 0.0000
v 0.0000 0.3200 0.0000
v 0.0000 4.8300 0.0000
v 0.0000 0.0100 0.0000
v 0.0000 0.1700 0.0000
v 0.1600 0.0000 0.0000
v 2.5600 0.0000 0.0000
v 0.0000 0.3500 0.0000
v 0.0000 2.2300 2.5600
v 0.0000 0.0100 0.0000
vt 0.5000 0.0195
vt 0.0000 0.0137
vt 0.0000 0.0332
vt 15.8750 0.0000
vt 7.8125 0.0000
vt 0.0000 0.0020
vt 0.0000 0.0000
vt 0.0000 0.0000
vt 0.0039 0.0010
vt 0.0000 0.0049
vt 0.0000 0.0000
vt 7.8125 0.0000
vt 0.0000 0.0020
vt 0.0000 0.0000
vt 0.0020 0.0166
vt 0.0000 0.0049
vt 0.0000 0.0518
vt 11.7188 0.0000
vt 0.0000 0.0010
vt 0.0000 0.0000
vt 0.0000 0.0000
vt 0.0029 0.0068
vt 0.0000 0.0049
vt 0.0000 0.0000
vt 0.0000 0.0029
vt -0.3418 0.0498
vt 15.8750 0.0000
vt 0.0000 0.0000
vt 0.0000 0.0010
vt 0.0000 0.0000
vt 0.0000 0.0000
vt 0.0000 0.0049
vt 0.0000 0.0000
vt 7.8125 0.0000
vt 0.0000 0.0020
vt 0.0000 0.0000
vt -0.0586 0.0527
vt 0.0000 0.0088
vt 0.0000 0.0000
vt 0.0000 0.0000
vt 0.0000 0.0020
vt 0.0000 0.0000
vt 0.0000 0.0000
vt 0.0000 0.0000
vt 0.0000 0.0000
vt 7.8125 0.0000
vt 0.0000 0.0020
vt 0.0000 0.0000
vt 0.0000 13.0098
vt 0.0000 0.0049
vt 0.0000 0.0518
vt 0.0000 0.0322
vt 0.0000 0.0010
vt 0.0000 0.0000
vt 0.0000 0.0000
vt 0.0000 0.0000
vt 0.0000 0.0000
f 1/1 1/1 1/1
f 1/1 1/1 1/1
f 1/1 1/1 1/1
f 1/1 1/1 1/1
