# Conker's Bad Fur Day — Real 3D Model (Bat's Tower Level Models)
o assets0A_model_000

v 0.0000 0.6400 0.0000
v 0.0000 21.6800 0.0000
v 0.0000 34.0800 0.0000
v -28.1100 39.0600 2.8700
v 0.0000 0.1600 0.1000
v 0.1000 0.1600 0.1000
v 0.1000 0.1600 0.1000
v 3.1100 8.4000 -2.3700
v 7.8800 -2.0400 0.0000
v -1.6400 0.4100 -2.5300
v 10.1100 1.1700 4.2500
v 1.0500 3.8200 6.6100
v 3.3800 6.6900 3.9200
v 6.7900 4.0500 4.7600
v 4.2200 4.2500 0.9200
v 3.7400 1.2000 3.3600
v 1.3700 3.7800 -2.0300
v 8.6800 1.3200 1.1600
v 2.7200 1.2400 9.4100
v 2.2500 13.2600 9.6600
v 15.2500 7.8200 0.0300
v 3.6200 1.0300 -8.2600
v 2.6400 -8.6300 7.1500
v -7.5200 4.4300 -2.4100
v 10.2400 9.5900 -2.0800
v 9.3000 -2.5900 0.3100
v -3.0700 -0.8300 9.2900
v -2.1300 9.6900 1.0000
v 10.7200 1.7700 -1.3900
v 3.1500 -0.6100 -3.0800
v 0.2900 -4.3400 1.3700
v -5.3900 2.2300 2.6900
v 10.2400 4.7500 6.1600
v 4.9600 9.4900 7.3100
v 11.2000 6.7500 2.9500
v 6.2700 1.7000 20.8200
v 0.4900 23.3600 9.0700
v 25.9200 8.6500 1.8800
v 11.0900 1.5100 5.9400
v 2.4000 16.0000 4.2400
v 25.4800 8.3700 2.8200
v 6.8600 -3.2100 23.5200
v 6.2600 2.5000 7.2400
v 4.2200 23.1700 4.2100
v 15.3700 7.4200 4.8600
v 7.6700 -5.6900 12.4800
v 5.6800 5.3000 7.7200
v 7.0700 26.6800 3.4300
v 5.6700 6.6800 7.6300
v 7.7800 -5.0100 5.4900
v 4.5100 11.4400 7.7500
v 9.1900 19.9800 2.6800
v 9.2800 8.5400 9.7100
v 7.6400 -0.0800 10.3600
v 1.8200 20.0400 7.6100
v 10.9700 9.4100 1.9700
v 13.3100 8.9200 11.2100
v 7.5400 1.3100 14.3900
v -2.9700 25.3500 7.5100
v 10.7300 2.5100 1.6200
v 18.8200 8.8500 9.5600
v 7.3200 2.8300 20.5900
v -5.1500 17.0000 7.2400
v 5.8200 5.1100 2.2900
v 25.4400 8.8300 5.4500
v 7.0500 5.5600 27.2900
v -6.2600 5.8200 7.0200
v 5.5100 8.9800 4.2200
v 29.2800 8.7000 5.2400
v 7.2700 8.5400 27.7700
v -2.1800 2.4300 7.7000
v 2.8000 16.4000 4.8000
v 20.5900 7.4000 1.8700
v 8.7000 10.4000 17.7400
v -0.0500 6.3400 8.5400
v 0.0000 23.2200 4.8100
v 9.5700 6.0200 -0.4500
v 7.6800 11.2000 7.3900
v 0.1100 10.4400 7.4500
v -1.9200 23.0300 4.5400
v 5.0300 6.3400 -2.5800
v 7.1000 7.8000 5.8300
v 3.4700 19.1600 7.0300
v -4.7400 13.6100 3.5500
v 9.5000 8.0100 -5.3800
v 6.8000 4.1300 10.9000
v 7.3200 25.6700 6.7200
v -6.5100 4.2200 2.8100
v 15.6400 8.2800 -6.4800
v 6.5200 2.3100 17.2800
v 9.5800 21.4800 6.4400
v -1.8500 4.3600 4.2700
v 21.9300 8.3300 -0.0300
v 6.1900 0.6800 23.2800
v 10.6800 8.7600 6.1100
v 1.4800 9.9500 4.7700
v 26.4600 8.4100 1.6400
v 5.9600 -0.9500 27.0500
v -28.1100 39.5300 2.8700
v 0.0000 0.1600 0.1000
v 0.1000 0.1600 0.1000
v 0.1000 0.1600 0.1000
v 27.2600 8.4500 1.9700
v 7.8400 2.8100 18.1500
v 3.7000 21.7900 4.4600
v 10.2400 6.3500 8.2100
v 4.4500 13.9300 7.1900
v 18.9100 7.7000 -7.3000
v 7.8700 -7.5200 4.1800
v -7.2700 2.9700 3.2600
v 2.2300 2.2900 8.1600
v 1.7700 8.1400 20.2500
v 8.1400 18.3400 3.2200
v -5.3800 29.1600 7.3800
v 25.3400 7.0700 -4.3800
v 7.4600 9.3300 2.6400
v 9.5000 1.7000 0.7100
v -5.6700 0.5500 5.2900
v 0.1900 5.4100 -5.4000
v 5.4600 -5.1000 9.1900
v -5.0700 -0.2200 6.9200
v 1.4700 6.9300 12.0100
v 6.1700 12.3700 5.1700
v 12.6600 5.9600 -4.2400
v -4.4400 -2.3100 2.9400
v -2.7300 2.5000 -4.3200
v 2.2900 -4.2900 0.0000
v -4.2600 -0.7600 3.1500
v -1.5700 2.8000 8.3900
v 1.9100 7.5400 15.9100
v 8.3900 14.7600 -5.9900
v -5.4100 -2.4300 -1.9800
v -1.6600 -2.2600 -5.5300
v -2.4400 -5.4900 2.2700
v -5.2700 3.0300 -0.7100
v 4.0000 -0.7100 7.9700
v -0.7200 7.7800 2.9000
v 7.9600 3.9400 -2.3900
v -4.3900 3.4700 -2.5100
v 2.1300 -2.5200 -3.3200
v -2.5200 -3.2200 6.6600
v -3.1500 6.6200 -0.7300
v 6.6000 -0.7300 8.5100
v -0.7300 8.5100 4.9700
v 8.5000 4.9500 -2.7100
v 20.5000 -1.7100 0.9200
v -1.7800 0.9800 -2.5200
v 1.0500 -2.5200 -3.2400
v -2.5200 -3.2800 6.7100
v -3.3100 6.7300 -0.7300
v 6.7300 -0.7300 8.4300
v 9.7800 0.4300 5.9500
v 1.1100 15.8700 5.8200
v 23.0500 7.5400 0.1700
v 5.9500 -2.3600 20.9500
v 10.9100 16.2200 5.9500
v -2.0500 22.5600 5.8700
v 15.8600 6.7600 -2.4300
v 5.9600 -3.0700 14.7000
v 11.3900 33.3100 5.9600
v -3.2300 35.3400 5.8800
v 11.6700 8.4000 -3.4000
v 5.9700 -2.6800 10.5300
v 7.0200 8.5500 -3.7500
v 5.9800 -1.2100 6.0300
v 4.5500 8.4900 -3.6800
v 6.0300 -0.5600 4.6200
v 10.9100 37.6100 6.0400
v -3.4200 31.3300 6.2500
v 6.3100 8.4000 -3.3100
v 6.0400 0.0500 7.6700
v 10.2900 22.3200 6.0300
v -2.9900 19.9000 6.0500
v 14.6700 8.3900 -2.8900
v 5.8100 -0.1800 18.2100
v 9.2900 13.4500 5.5400
v -2.3900 15.9900 2.8000
v 29.4300 7.0000 -2.2900
v 5.3700 -0.9800 32.3600
v 8.9100 10.2500 5.6700
v -2.2700 12.6100 2.6100
v 9.2000 6.2300 6.3700
v -2.3800 8.4000 4.0500
v 8.3300 0.9700 5.5200
v -2.1900 4.8800 5.0500
v 8.6900 0.1800 6.4000
v -1.3000 3.8200 4.9300
v 36.1600 7.0000 -1.1200
v 8.3800 -1.9800 33.1500
v 10.2900 4.5300 8.8700
v -0.6900 10.0500 4.9100
v 24.6900 7.0000 -0.7700
v 8.7400 -2.4100 22.3800
v 11.3600 17.7400 8.2600
v -2.0100 22.1100 4.9500
v 17.6600 6.9100 -2.5500
v 7.0000 -2.1700 16.4900
v 12.0300 32.9600 6.8700
v -3.9800 34.3300 4.9800
v 13.6200 8.0700 -4.5200
v 6.7300 -2.4200 12.7900
v 10.1100 8.3900 -6.3100
v 6.7700 -3.1400 9.2100
v 6.8800 7.6900 -6.3300
v 6.6900 -3.2800 6.2200
v -5.3700 39.8600 5.0800
v 5.5400 7.7900 -4.9500
v 6.5200 -1.8600 5.9800
v 11.5400 29.7000 6.4900
v -3.6300 27.7500 5.1000
v 11.3900 7.3600 -3.2100
v 6.5000 0.1200 13.9700
v 10.7300 15.1400 6.6000
v -2.2100 18.2700 4.7100
v 21.3800 6.9000 -1.9800
v 7.1700 1.2100 23.8000
v 10.2700 8.4500 7.3100
v -1.6500 13.9000 3.8000
v 30.7200 7.1200 -1.6300
v 7.2100 0.9300 33.3000
v 9.5800 8.1100 7.1300
v -1.7700 7.8700 4.9500
v 8.8100 6.6300 6.7900
v -2.5200 3.9100 4.2600
v 8.6000 4.5000 6.4200
v -0.8000 7.5300 4.7500
v 37.1600 8.1800 -0.1000
v 6.1400 -1.0300 33.6400
v 9.5500 1.2400 6.0400
vt 0.0000 0.1172
vt 0.0000 2.1562
vt 0.0000 3.3828
vt 0.0000 28.0000
vt 0.0098 0.0156
vt 0.0098 0.0156
vt 1.0830 0.1475
vt -0.2588 -15.5703
vt -15.5703 0.5000
vt 0.5000 -31.9678
vt 0.3594 0.6172
vt 0.5664 -0.0273
vt 0.0156 0.2041
vt 0.2461 -0.2168
vt -0.2109 -15.5703
vt -15.5703 0.5000
vt 0.5000 -31.9639
vt 0.5264 0.2207
vt 0.1895 0.0605
vt -0.2529 0.5303
vt 0.5879 -0.1631
vt -0.1875 -15.5674
vt -15.5674 -4.2549
vt 2.7520 -15.8281
vt 0.9072 0.1426
vt 0.1250 0.1377
vt -0.0166 -0.3887
vt -0.2158 -0.1240
vt -0.0732 0.0381
vt 0.1377 -15.5664
vt -15.5664 12.2617
vt 10.2598 16.6406
vt 0.6025 1.0391
vt 1.4883 0.9961
vt 0.9658 0.0029
vt 0.0830 0.7148
vt 0.9727 0.3799
vt 0.4014 -15.5664
vt 2.6621 0.8252
vt 0.8945 0.1846
vt 0.4160 -15.5703
vt 0.3164 1.9463
vt 2.0566 0.7773
vt 0.5869 0.3721
vt 0.3975 -15.5703
vt 0.5469 2.5010
vt 0.9561 0.6758
vt 0.5059 0.7383
vt 0.3164 -15.5703
vt 0.7939 2.3779
vt 0.6689 0.7334
vt 0.3477 1.5605
vt 0.2432 -15.5703
vt 0.9961 1.4365
vt 1.1094 0.8721
vt -0.0859 2.3818
vt 0.1787 -15.5703
vt 1.1055 0.4844
vt 1.5273 0.8652
vt -0.4043 2.1494
vt 0.1641 -15.5703
vt 0.7930 0.3232
vt 2.1768 0.8623
vt -0.5762 1.1016
vt 0.2607 -15.5703
vt 0.5283 0.6592
vt 2.8203 0.8672
vt -0.5977 0.1523
vt 0.4463 -15.5703
vt 0.4502 1.1836
vt 2.5127 0.7949
vt 0.0205 0.4424
vt 0.4648 -15.5703
vt 0.1064 1.9648
vt 1.4521 0.6484
vt -0.0225 0.7842
vt 0.4707 -15.5703
vt -0.0859 2.4395
vt 0.5576 0.5576
vt 0.1484 1.4199
vt 0.4229 -15.5703
vt -0.3223 1.8369
vt 0.6836 0.7334
vt 0.5205 2.2119
vt 0.3223 -15.5703
vt -0.5781 0.8232
vt 1.2119 0.8008
vt 0.8564 2.5049
vt 0.2725 -15.5703
vt -0.5537 0.2295
vt 1.8457 0.8115
vt 0.9971 1.4932
vt 0.4707 -15.5703
vt 0.0928 0.7168
vt 2.3926 0.8193
vt 1.0713 0.3525
vt 0.4414 -15.5703
vt 0.1748 1.2578
vt 0.0000 28.0000
vt 0.0098 0.0156
vt 0.0098 0.0156
vt 1.0830 0.1475
vt 0.5469 -15.5664
vt -15.5664 0.2500
vt 0.2500 16.0156
vt -0.5264 1.3467
vt 0.9492 0.5869
vt 0.5186 0.7451
vt 0.7783 2.4316
vt 2.3027 0.3066
vt 0.3076 -15.5664
vt -15.5664 4.2539
vt 4.7539 -15.7031
vt 2.1650 0.7842
vt 0.7803 0.8994
vt -15.5664 11.2607
vt 12.2617 16.7656
vt 4.3223 0.6953
vt 0.6846 1.0439
vt 1.0889 0.3096
vt 0.3682 -0.2383
vt -0.2949 -15.5664
vt -15.5664 17.2666
vt 17.2666 17.0791
vt 0.0654 0.4375
vt 0.3867 1.1426
vt 1.0361 1.1816
vt 1.3174 -0.5771
vt -0.5762 -15.5664
vt -15.5664 16.7656
vt 16.2656 17.0156
vt 0.0244 -0.0928
vt -0.0752 1.1602
vt 0.9463 -0.0088
vt -0.1025 -0.1904
vt -0.1934 -15.5664
vt -15.5664 6.2559
vt 3.7529 -15.7676
vt 0.7119 -0.0713
vt -0.0713 0.8281
vt 0.8301 0.4844
vt 0.4863 -0.2656
vt -0.2666 -15.5703
vt -15.5703 0.5000
vt 0.5000 -31.9688
vt -0.3086 0.6475
vt 0.6504 -0.0713
vt -0.0713 0.8262
vt 0.8242 0.4678
vt 0.4658 -0.2607
vt -0.2607 -15.5703
vt 2.6621 0.8252
vt 1.0127 0.8164
vt 0.5703 -5.1562
vt -0.0703 1.8379
vt 1.8535 0.6582
vt 1.0938 2.3447
vt 0.5742 -5.1562
vt -0.2686 2.7666
vt 1.3359 0.7461
vt 1.1250 4.1514
vt 0.5742 -5.1562
vt -0.3447 4.0732
vt 0.5742 -5.1562
vt -0.3691 4.4297
vt 0.5928 -5.1562
vt -0.3525 3.6406
vt 0.4775 0.8252
vt 1.0361 2.9102
vt 0.6123 -5.1562
vt -0.3125 2.4658
vt 0.9297 0.8223
vt 0.9717 1.5889
vt 0.5723 -5.1562
vt -0.2686 1.6113
vt 2.1709 0.7471
vt 0.8535 1.1855
vt 0.2188 -5.1562
vt -0.2207 1.4268
vt 3.4707 0.6719
vt 0.9043 0.8184
vt 4.6211 0.6777
vt 0.8564 0.3369
vt 4.8652 0.6846
vt 0.8037 -0.0156
vt 4.0947 0.6846
vt 0.9248 0.1602
vt 0.4814 -5.1562
vt -0.0898 0.6006
vt 2.9463 0.6836
vt 1.0635 0.9297
vt 0.4805 -5.1562
vt -0.1025 1.4883
vt 2.0000 0.6807
vt 1.1455 2.5771
vt 0.4844 -5.1562
vt -0.2949 2.7783
vt 1.5059 0.7100
vt 1.2051 3.8809
vt 0.4863 -5.1562
vt -0.4932 3.9648
vt 0.4883 -5.1562
vt -0.6367 4.7646
vt 0.4902 -5.1562
vt -0.5928 4.3818
vt 1.1758 3.7969
vt 0.4980 -5.1562
vt -0.4414 3.3096
vt 0.6943 0.7578
vt 1.0820 2.0771
vt 0.4961 -5.1562
vt -0.2754 2.1689
vt 1.6074 0.6807
vt 1.0264 1.0898
vt 0.4180 -5.1562
vt -0.1768 1.6045
vt 2.5410 0.6816
vt 0.9688 0.8096
vt 0.4004 -5.1562
vt -0.1621 1.0430
vt 3.5049 0.7109
vt 0.8965 0.7256
vt 4.3213 0.7471
vt 0.8369 0.5547
vt 4.2197 0.7822
vt 0.8799 0.2871
vt 0.4893 -5.1562
vt 0.0596 1.0742
vt 2.9521 0.8164
f 123/123 2/2 8/8
f 97/97 57/57 47/47
f 123/123 2/2 127/127
f 1/1 2/2 116/116
f 116/116 5/5 69/69
f 26/26 2/2 63/63
f 15/15 2/2 60/60
f 53/53 1/1 39/39
f 104/104 2/2 77/77
f 15/15 2/2 31/31
f 61/61 1/1 13/13
f 1/1 33/33 41/41
f 33/33 41/41 47/47
f 50/50 1/1 35/35
f 95/95 12/12 3/3
f 2/2 18/18 127/127
f 4/4 95/95 2/2
f 35/35 127/127 89/89
f 127/127 115/115 1/1
f 128/128 93/93 2/2
f 128/128 8/8 2/2
f 128/128 92/92 2/2
f 26/26 2/2 83/83
f 7/7 5/5 107/107
f 45/45 2/2 127/127
f 94/94 2/2 36/36
f 116/116 2/2 90/90
f 1/1 5/5 124/124
f 4/4 2/2 108/108
f 83/83 7/7 27/27
f 42/42 2/2 20/20
f 2/2 11/11 10/10
f 6/6 11/11 8/8
f 1/1 11/11 71/71
f 56/56 2/2 93/93
f 4/4 4/4 100/100
