mtllib assets01_model_030.mtl
# Conker's Bad Fur Day — Real 3D Model (HUD & UI Props)
o assets01_model_030
usemtl assets01_model_030_mat

v 0.0000 19.1600 0.0000
v 0.0000 30.4000 0.0000
v 0.0000 0.0000 -2.5800
v 0.0000 0.0000 -2.5800
v 0.0000 0.0000 -2.5800
v 0.0000 0.0000 -2.5800
v 4.0100 12.1000 -2.5800
v 2.1700 16.5200 -2.5800
v 7.5100 12.8600 -2.5800
v 7.1300 17.6000 -2.5800
v 1.7800 21.2700 -2.5800
v 5.2900 22.0300 -2.5800
v 7.9900 16.3300 -2.5800
v 6.2900 11.9600 -2.5800
v 3.2500 17.4700 -2.5800
v 2.9400 12.7700 -2.5800
v 8.3000 21.0400 -2.5800
v 7.9900 16.3300 -2.5800
v 4.9500 21.8500 -2.5800
v 3.2500 17.4700 -2.5800
v 6.2900 11.9600 -2.5800
v 2.9400 12.7700 -2.5800
v 20.4800 0.0000 0.0000
v 20.4800 10.2400 0.0000
v 0.0000 10.2400 0.0000
v 0.0000 10.2400 0.0000
v 20.4800 10.2400 0.0000
v 20.4800 0.0000 0.0000
v 20.4800 10.2400 -2.5800
v 0.0000 10.2400 -2.5800
v 20.4800 10.2400 -2.5800
v 0.0000 10.2400 -2.5800
v 0.0000 0.0000 -2.5800
v 20.4800 0.0000 -2.5800
v 0.0000 0.0000 -2.5800
v 20.4800 0.0000 -2.5800
v 20.4800 10.2400 -2.5800
v 0.0000 10.2400 -2.5800
v 20.4800 10.2400 -2.5800
v 0.0000 10.2400 -2.5800
v 0.0000 0.0000 -2.5800
v 20.4800 0.0000 -2.5800
v 0.0000 0.0000 -2.5800
v 20.4800 0.0000 -2.5800
v 20.4800 10.2400 -2.5800
v 0.0000 10.2400 -2.5800
v 0.0000 0.0000 -2.5800
v 20.4800 0.0000 -2.5800
v 0.0000 10.2400 -2.5800
v 0.0000 0.0000 -2.5800
v 20.4800 0.0000 -2.5800
v 20.4800 10.2400 -2.5800
v 20.4800 10.2400 -2.5800
v 0.0000 10.2400 -2.5800
v 20.4800 10.2400 -2.5800
v 0.0000 10.2400 -2.5800
v 0.0000 0.0000 -2.5800
v 20.4800 0.0000 -2.5800
v 0.0000 0.0000 -2.5800
v 20.4800 0.0000 -2.5800
v 0.0000 0.0000 -2.5800
v 20.4800 0.0000 -2.5800
v 0.0000 10.2400 -2.5800
v 20.4800 10.2400 -2.5800
v 0.0000 35.4300 0.6400
v 0.6400 0.3200 0.0000
v 0.0000 35.4100 0.0000
v 0.0000 35.4200 0.6400
v 0.3200 0.3200 0.0000
v 0.0000 19.7300 0.0000
v -7.5200 0.0000 0.0000
v -7.5200 0.0000 0.0000
v -33.2800 0.0000 18.5500
v -7.5200 0.0000 0.0000
v -33.2800 0.0000 18.5500
v -7.5200 0.0000 0.6400
v -7.5200 0.0000 0.0000
v -33.2800 0.0000 18.5500
v 2.5700 0.6400 2.5600
v -7.5200 0.0000 0.0000
v -33.2800 0.0000 18.5500
v -7.5200 0.0000 0.0000
v -33.2800 0.0000 18.5500
v -15.6400 25.3000 25.3000
vt 0.0000 1.9492
vt 0.0000 0.0000
vt -0.0645 0.2188
vt -0.0186 0.1982
vt 0.0439 0.2021
vt 0.0234 0.1982
vt -0.0752 0.1406
vt -0.0977 0.1348
vt -0.0166 0.1533
vt 0.0088 0.1064
vt -0.1006 0.1885
vt -0.0186 0.1982
vt 0.0586 0.0928
vt 0.0225 0.1533
vt 0.0176 0.1016
vt -0.0059 0.1602
vt 0.0801 0.1406
vt 0.0439 0.2021
vt 0.0225 0.1533
vt 0.0234 0.1982
vt 0.0322 0.0762
vt -0.0029 0.1064
vt 0.1484 0.2334
vt 0.0225 0.2744
vt -0.0225 0.2744
vt -0.1484 0.2334
vt -0.1143 0.1660
vt -0.0195 0.1914
vt -0.2637 0.1387
vt 0.2637 0.1387
vt 0.2637 0.1387
vt -0.2637 0.1387
vt 0.2637 0.0908
vt 0.2637 0.0908
vt 0.2637 0.0908
vt -0.2637 0.0908
vt -0.2637 0.0908
vt 0.2637 0.0908
vt 0.2637 0.0908
vt -0.2637 0.0908
vt 0.2637 0.0459
vt 0.2637 0.0459
vt 0.2637 0.0459
vt -0.2637 0.0459
vt -0.2637 0.1387
vt -0.2637 0.1387
vt 0.2637 0.1387
vt -0.2637 0.1387
vt -0.2637 0.1387
vt 0.2637 0.1387
vt 0.2637 0.1387
vt 0.2637 0.0459
vt -0.2637 0.0459
vt 0.2637 0.0459
vt 0.2637 0.0459
vt -0.2637 0.0459
vt 0.2637 0.0020
vt 0.2637 0.0020
vt 0.2637 0.0020
vt -0.2637 0.0020
vt 0.2637 0.0020
vt -0.2637 0.0020
vt -0.2637 0.0020
vt 0.0000 2.0469
vt 0.0000 3.4609
vt 0.0000 3.4619
vt 0.0625 0.0312
vt 0.0000 1.9238
vt 0.0000 1.9141
vt 0.0430 0.0430
vt -2.7344 0.0000
vt -6.5000 0.0000
vt -6.2500 0.0000
vt -6.5000 0.0000
vt -6.2500 0.0000
vt -4.0000 0.0000
vt -6.5000 0.0000
vt -6.2500 0.0000
vt 5.3223 10.3613
vt -6.5000 0.0000
vt -6.2500 0.0000
vt -6.5000 0.0000
vt -6.2500 0.0000
vt 2.4707 0.0000
f 8/8 7/7 9/9
f 9/9 7/7 10/10
f 29/29 28/28 31/31
f 13/13 10/10 12/12
