# Conker's Bad Fur Day — Real 3D Model (HUD & UI Props)
o assets01_model_026

v 1.9100 10.8600 -0.0100
v 1.9100 10.8600 -0.0100
v 2.8500 8.2300 -0.0100
v 2.8500 8.2300 -0.0100
v 2.9300 6.4900 -0.0100
v 3.0900 20.1300 -0.0100
v 3.0900 20.1300 -0.0100
v 2.9300 6.4900 -0.0100
v 0.8300 9.9200 -38.4000
v 2.8600 20.2600 -0.0100
v 2.8600 20.2600 -0.0100
v 2.8100 6.9900 -0.0100
v 2.9800 20.3500 -0.0100
v 0.7400 8.6900 -0.0100
v 2.9800 20.3500 -0.0100
v 2.8100 6.9900 -0.0100
v 1.2200 8.0600 -0.0100
v 2.1300 17.8400 -0.0100
v 1.9700 7.4300 -0.0100
v 2.1300 17.8400 -0.0100
v 1.9700 7.4300 -0.0100
v 2.6400 20.6100 -0.0100
v 2.0500 6.6000 -0.0100
v 2.0500 6.6000 -0.0100
v 0.3800 8.8600 -0.0100
v 0.2700 7.8000 -0.0100
v 2.6700 20.7000 -0.0100
v 2.3600 7.9700 -0.0100
v 2.3600 7.9700 -0.0100
v 2.8400 7.4300 -0.0100
v 0.8500 8.2400 -0.0100
v 2.8400 7.4300 -0.0100
v 2.9500 21.0100 -0.0100
v 2.9500 21.0100 -0.0100
v 2.8600 20.2600 -0.0100
v 1.0500 8.9600 -38.4000
v 1.9700 7.4300 -0.0100
v 2.1300 17.8400 -0.0100
v 2.5300 17.2900 -0.0100
v 2.6100 14.8300 -0.0100
v 2.7800 11.9600 -0.0100
v 3.7900 14.2700 -0.0100
v 1.2500 8.3900 -0.0100
v 2.9800 20.3500 -0.0100
v 2.8100 6.9900 -0.0100
v 2.9100 9.1900 -0.0100
v 4.1500 8.3400 -0.0100
v 2.9100 9.1900 -0.0100
v 2.8400 7.4300 -0.0100
v 1.1800 11.4600 -0.0100
v 4.0400 11.4000 -38.4000
v 2.5300 17.2900 -0.0100
v 1.9100 10.8600 -0.0100
v 3.5400 16.9200 -0.0100
v 2.6100 14.8300 -0.0100
v 2.0500 6.6000 -0.0100
v 2.6400 20.6100 -0.0100
v 2.6100 14.8300 -0.0100
v 2.8500 8.2300 -0.0100
v 2.7800 11.9600 -0.0100
v 1.2100 14.2800 -38.4000
v 1.2500 8.3900 -0.0100
v 2.9100 9.1900 -0.0100
v 2.9100 9.1900 -0.0100
v 4.1500 8.3400 -0.0100
v 1.1800 11.4600 -0.0100
v 2.5300 17.2900 -0.0100
v 2.5300 17.2900 -0.0100
v 2.6100 14.8300 -0.0100
v 2.6100 14.8300 -0.0100
v 3.5400 16.9200 -0.0100
v 2.7800 11.9600 -0.0100
v 1.2100 14.2800 -38.4000
v 3.0900 20.1300 -0.0100
v 2.9300 6.4900 -0.0100
v 2.7800 11.9600 -0.0100
v 2.3600 7.9700 -0.0100
v 2.6700 20.7000 -0.0100
v 3.7900 14.2700 -0.0100
v 1.2500 8.3900 -0.0100
v 2.9100 9.1900 -0.0100
v 2.9100 9.1900 -0.0100
v 1.1800 11.4600 -0.0100
v 4.0400 11.4000 -38.4000
v 4.1500 8.3400 -0.0100
v 2.9500 21.0100 -0.0100
v 0.0200 3.9100 -0.0100
v 10.0500 3.9600 -0.0100
v 7.5300 9.2200 -0.0100
v 1.3500 0.9400 -0.0100
v 8.8300 0.9800 -0.0100
v 5.1000 0.0000 -0.0100
v 2.3600 9.2000 -0.0100
v 4.9300 10.2400 -0.0100
v 6.9300 1.3000 -0.0100
v 5.9900 0.5400 -0.0100
v 9.8100 8.7100 -0.0100
v 10.2800 7.2900 -0.0100
v 7.6200 6.8400 -0.0100
v 6.4600 7.3600 -2.5800
v 6.9300 1.3000 -0.0100
v 7.6200 6.8400 -0.0100
v 10.2800 7.2900 -0.0100
v 2.1300 5.0400 -0.0100
v 2.1300 5.0400 -0.0100
v 10.2400 5.0100 -0.0100
v 10.1900 8.4800 -0.0100
v 4.6300 9.1700 -0.0100
v 10.2400 5.0100 -0.0100
v 15.5800 1.4600 -0.0100
v 8.0600 3.3900 -0.0100
v 15.5800 1.4600 -0.0100
v 8.0600 3.3900 -0.0100
v 18.4800 5.9300 -0.0100
v 6.2900 11.0000 -0.0100
v 9.1300 4.3000 -0.0100
v 6.2900 11.0000 -0.0100
v 18.4800 5.9300 -0.0100
v 9.1300 4.3000 -0.0100
v 5.1000 7.8100 -0.0100
v 1.5200 9.6000 -0.0100
v 0.5500 5.3000 -0.0100
v 4.5700 2.1900 -0.0100
v 5.9500 5.0600 -0.0100
v 5.1000 7.8100 -0.0100
v 1.5200 9.6000 -0.0100
v 4.5700 2.1900 -0.0100
v 5.9500 5.0600 -0.0100
v -0.4800 7.4900 -0.0100
v -0.4800 7.4900 -0.0100
v 5.3100 8.6400 -2.5800
v 7.9700 8.9000 -2.5800
v 10.0300 7.7800 -38.5600
v 8.6000 9.8400 -2.5800
v 2.6700 9.0900 -2.5800
v 2.1500 10.0700 -2.5800
v 8.8600 2.4300 -0.0100
v 10.9400 6.1900 -0.0100
v 1.1400 2.7000 -0.0100
v -0.5600 6.6100 -0.0100
v 16.0200 7.1100 -2.5800
v 16.0200 7.1100 -2.5800
v 10.4100 8.0500 -2.5800
v 12.7200 8.0200 -2.5800
v 10.4100 8.0500 -2.5800
v 12.7200 8.0200 -2.5800
v 16.3600 6.6700 -2.5800
v 20.0600 5.3500 -2.5800
v 15.2300 5.9400 -2.5800
v 20.0600 5.3500 -2.5800
v 16.3600 6.6700 -2.5800
v 12.6600 7.5000 -2.5800
v 10.3000 7.7300 -2.5800
v 10.3000 7.7300 -2.5800
v 12.6600 7.5000 -2.5800
v 4.8600 7.8100 -0.0100
v 4.1700 8.3300 -2.5800
v 4.1100 7.4700 -2.5800
v 12.2800 6.4000 -2.5800
v 12.8900 3.9900 -2.5800
v 10.6900 6.8900 -0.0100
v 4.7000 3.4200 -0.0100
v 4.2800 3.0600 -0.0100
v 6.6900 2.0600 -0.0100
v 11.8000 1.5500 -0.0100
v 7.7600 1.6700 -0.0100
v -0.5500 2.8500 -0.0100
v -0.5800 2.3900 -0.6800
v 4.6500 3.8800 0.0000
v 0.8300 1.9800 -0.6800
v 4.8600 7.8100 -0.0100
v 4.1100 7.4700 -2.5800
v 12.2800 6.4000 -2.5800
v 10.6900 6.8900 -0.0100
v 12.8900 3.9900 -2.5800
v 4.7000 3.4200 -0.0100
v 4.2800 3.0600 -0.0100
v 6.6900 2.0600 -0.0100
v 11.8000 1.5500 -0.0100
v 7.7600 1.6700 -0.0100
v 12.8900 3.9900 -2.5800
v 10.6900 6.8900 -0.0100
v -0.5500 2.8500 -0.0100
v 4.6500 3.8800 0.0000
v -0.5800 2.3900 -0.6800
v 0.8300 1.9800 -0.6800
v 4.8700 0.5300 -0.0100
v 3.1800 0.8900 -0.0100
v 3.3700 7.7900 -0.0100
v 0.1400 -0.4200 -0.0100
v 0.1400 -0.4200 -0.0100
v 3.3700 7.7900 -0.0100
v 5.1600 0.2900 -0.0100
v 3.4700 2.4800 -0.0100
v 2.7700 8.6000 -0.0100
v 0.3800 -0.3300 -0.0100
v 0.3800 -0.3300 -0.0100
v 10.2300 10.8400 -0.0100
v 10.2300 10.3200 -0.0100
v 12.0000 9.1600 -0.0100
v 10.2700 6.1300 -0.0100
v 8.4800 8.9800 -0.0100
v 10.2300 10.7400 -0.0100
v 10.2700 6.1300 -0.0100
v 11.1300 5.3000 -0.0100
v 12.0000 9.1600 -0.0100
v 14.5900 9.4200 -0.0100
v 15.0400 5.1100 -0.0100
v 17.2400 8.0400 -0.6800
v 17.3000 5.2900 -0.6800
v 10.2300 10.8400 -0.0100
v 10.2300 10.7400 -0.0100
v 8.4800 8.9800 -0.0100
v 9.4100 5.2200 -0.0100
v 5.8900 8.9900 -0.0100
v 5.5200 4.6500 -0.0100
v 3.2700 7.3500 -0.6800
v 3.2500 4.6000 -0.6800
v -0.3700 4.5600 -2.5800
v 9.3100 2.2900 -2.5800
v 1.0400 12.3100 -2.5800
v 9.4600 11.7200 -2.5800
v 4.5700 17.0800 -2.5800
v 8.2900 20.3500 -2.5800
v 15.8600 13.8600 -2.5800
v 19.4300 4.4900 -2.5800
v -0.2100 5.0000 -2.5800
v 2.1500 12.6000 -2.5800
v 8.8400 1.8700 -2.5800
v 10.1900 11.2600 -2.5800
v 6.1400 16.9400 -2.5800
v 10.1200 19.7600 -2.5800
v 16.6000 12.6700 -2.5800
v 18.8400 3.0100 -2.5800
v 20.0000 -1.1200 -0.0100
v 19.4800 17.6800 -0.0100
v 17.1700 35.2700 -0.0100
v 19.4800 17.6800 -0.0100
v 19.4400 15.6300 -0.0100
v 19.0300 -3.9400 -0.0100
v 18.0000 34.1700 -0.0100
v 19.4400 15.6300 -0.0100
v -2.5600 0.0000 0.0000
v 0.0100 2.5600 0.0000
v 2.5800 5.1200 0.0000
v 5.1500 7.6800 0.0000
v 0.0800 20.4800 0.0000
v 20.5700 23.0400 0.0000
v 23.1400 25.6000 0.0000
v 25.7100 28.1600 0.0000
v 28.2800 30.7200 0.0000
v 28.2900 33.2800 0.0000
v 0.0000 13.0000 0.0000
v 0.0000 13.0600 0.6400
v 0.6400 0.3200 0.0000
v 0.0000 17.4300 0.0000
v 0.0000 13.0800 0.6400
v 0.6400 0.6400 0.0000
v 0.0000 13.0100 0.0000
v 0.0000 12.9900 0.4400
v 0.3200 0.3200 0.0000
v -28.0000 0.0000 17.9200
v -33.2800 0.0000 18.2300
v -28.1600 2.5600 15.3600
v -7.5200 0.0000 0.6400
v 12.8800 35.8600 0.0000
v 15.3600 5.1600 0.0600
v -7.5200 0.0000 0.0000
v -33.2800 0.0000 18.2300
v -28.0800 20.4800 0.0100
v 15.4800 0.0400 0.0400
v -7.4400 0.0000 0.0000
v -7.5200 0.0000 0.0000
v -7.5200 0.0000 0.6400
v -7.6900 -3.6900 -27.9300
v -7.5200 0.0000 0.6400
v -7.5200 0.0000 0.0000
v -33.2800 0.0000 18.5500
v 2.5800 0.6400 2.5600
v 15.4600 30.7400 0.1200
v -7.5200 0.0000 0.0000
v -33.2800 0.0000 18.5500
v 2.5800 0.6400 2.5600
v 12.8200 0.2000 0.0000
v -7.5200 0.0000 0.0000
v -33.2800 0.0000 18.0700
v -28.0800 10.2400 0.0900
v -7.5200 0.0000 0.6400
v 2.5800 0.6400 2.5600
v -7.5200 0.0000 0.0000
v -33.2800 0.0000 18.5700
v -28.0800 30.7200 0.0900
v 15.4600 30.7800 0.0600
v -6.5600 0.0000 0.0000
v -33.2800 0.0000 19.1900
v -35.8400 0.0000 0.0300
v 12.8800 35.8600 0.0000
v 15.3600 5.1600 0.0600
v 12.8400 15.3600 0.0000
v 12.8800 5.2200 0.0000
v 12.8000 30.8200 0.0000
v 2.5800 0.6400 2.5600
v 2.5800 0.6400 2.5600
v 2.5800 0.6400 2.5600
v 12.9400 10.3000 0.0000
v 1.2400 0.0000 0.0000
v 0.0000 0.0000 2.3000
vt 0.0000 -0.0635
vt 0.0000 -0.0176
vt 0.0000 -0.1094
vt 0.0000 -0.0215
vt 0.0000 -0.1465
vt 0.0000 -0.1465
vt -0.0186 0.0000
vt 0.0000 -0.0234
vt 0.0000 -0.0215
vt 0.0000 -0.1377
vt -0.0205 0.0029
vt 0.0000 -0.1562
vt 0.0000 -0.0215
vt 0.0000 -0.1562
vt -0.0195 0.0000
vt 0.0000 -0.0293
vt 0.0000 -0.0283
vt 0.0127 0.0000
vt 0.0000 0.0088
vt -0.0127 0.0000
vt 0.0000 0.1240
vt 0.0166 0.0000
vt 0.0000 0.0137
vt 0.0000 0.0107
vt 0.0000 0.0117
vt 0.0000 0.1641
vt 0.0186 0.0000
vt 0.0000 0.0146
vt 0.0000 0.0176
vt 0.0000 0.1797
vt -0.0195 0.0000
vt 0.0000 0.1621
vt 0.0205 0.0029
vt 0.0000 -0.0205
vt -0.0205 0.0029
vt 0.0000 0.0000
vt 0.0000 0.0684
vt 0.0000 0.0088
vt 0.0000 0.0088
vt 0.0186 0.0000
vt 0.0000 0.0117
vt 0.0000 0.0176
vt 0.0000 -0.1562
vt -0.0195 0.0000
vt 0.0195 0.0000
vt 0.0000 0.0176
vt -0.0195 0.0000
vt -0.0195 0.0000
vt 0.0000 0.1797
vt 0.0000 -0.0283
vt 0.0000 0.0107
vt 0.0000 -0.0098
vt 0.0000 -0.0098
vt 0.0166 0.0000
vt 0.0000 -0.0176
vt 0.0000 0.1240
vt 0.0000 0.0137
vt 0.0000 -0.0186
vt 0.0186 0.0000
vt 0.0000 -0.0234
vt 0.0000 0.0176
vt 0.0195 0.0000
vt -0.0205 0.0029
vt 0.0000 0.0176
vt 0.0000 0.0176
vt 0.0000 0.0000
vt 0.0000 0.0088
vt -0.0166 0.0000
vt 0.0000 0.0137
vt 0.0000 0.0107
vt 0.0000 -0.0176
vt 0.0000 -0.0215
vt 0.0000 -0.0215
vt -0.0186 0.0000
vt -0.0186 0.0000
vt -0.0186 0.0000
vt 0.0000 0.1641
vt 0.0000 0.0146
vt 0.0000 0.0146
vt -0.0195 0.0000
vt 0.0195 0.0000
vt 0.0000 -0.0293
vt 0.0000 -0.0283
vt 0.0000 0.0107
vt 0.0000 0.0176
vt 0.0000 0.0176
vt -0.1211 -0.0186
vt -0.0625 0.0918
vt 0.0898 -0.0801
vt -0.0898 -0.0801
vt 0.0000 -0.1006
vt 0.0625 0.0918
vt 0.0000 0.1133
vt 0.1064 -0.1006
vt 0.0000 -0.1260
vt -0.0020 0.1406
vt -0.0869 0.0938
vt -0.0625 0.0918
vt 0.0000 0.1133
vt -0.1211 -0.0186
vt -0.1064 -0.1006
vt 0.0869 0.0938
vt 0.1211 -0.0186
vt 0.0000 0.0000
vt 0.0000 -0.0518
vt 0.0000 -0.0518
vt 0.0000 0.0527
vt 0.0400 0.0010
vt 0.0000 -0.0273
vt 0.0000 0.0254
vt 0.0000 -0.0498
vt 0.0000 0.0254
vt 0.0000 -0.0498
vt 0.0000 0.0732
vt 0.0000 -0.0869
vt 0.0000 0.0732
vt 0.0000 -0.0576
vt 0.0000 -0.0869
vt 0.0273 0.0547
vt 0.0000 0.1006
vt 0.0000 0.0000
vt 0.0244 -0.0771
vt 0.0000 -0.0107
vt 0.0000 -0.0898
vt 0.0000 0.1006
vt -0.0244 -0.0771
vt 0.0000 -0.0107
vt 0.0000 0.0527
vt 0.0000 -0.0459
vt 0.0000 -0.0459
vt -0.0010 -0.0156
vt 0.0459 -0.0107
vt 0.0576 0.0146
vt -0.0469 0.0029
vt -0.0469 -0.0059
vt -0.1025 -0.0596
vt 0.0000 -0.1006
vt -0.0898 -0.0801
vt -0.1025 -0.0596
vt 0.0166 0.0098
vt 0.0273 0.0410
vt 0.0312 0.0010
vt -0.0156 0.0352
vt 0.0186 -0.0283
vt -0.0156 0.0352
vt -0.0166 0.0098
vt -0.0273 0.0410
vt 0.0020 0.0146
vt -0.0166 0.0098
vt 0.0068 0.0264
vt 0.0117 0.0156
vt 0.0264 0.0137
vt 0.0264 0.0137
vt 0.0156 0.0352
vt -0.0186 -0.0283
vt 0.0000 0.1133
vt 0.0586 0.0830
vt 0.0586 0.0830
vt 0.0879 0.0234
vt 0.0625 0.0918
vt 0.1055 0.0078
vt 0.1250 -0.0010
vt 0.1211 -0.0186
vt 0.0898 -0.0801
vt 0.1025 -0.0596
vt 0.1211 -0.0186
vt 0.0742 -0.0020
vt 0.0879 0.0234
vt 0.0742 -0.0205
vt 0.0557 -0.0342
vt -0.0586 0.0830
vt -0.0586 0.0830
vt -0.0625 0.0918
vt -0.0879 0.0234
vt -0.1055 0.0078
vt -0.1211 -0.0186
vt -0.1172 -0.0430
vt -0.0898 -0.0801
vt -0.1025 -0.0596
vt -0.1211 -0.0186
vt -0.0625 0.0918
vt -0.0557 0.0127
vt -0.0879 0.0234
vt -0.0742 -0.0020
vt -0.0742 -0.0205
vt -0.0557 -0.0342
vt -0.0264 -0.0361
vt -0.0176 -0.0518
vt -0.0234 -0.0342
vt -0.0234 -0.0342
vt -0.0176 -0.0518
vt 0.0322 -0.0361
vt 0.0195 -0.0361
vt 0.0215 -0.0527
vt 0.0234 -0.0342
vt 0.0234 -0.0342
vt 0.0000 0.0195
vt 0.0000 0.0156
vt 0.0186 0.0078
vt 0.0000 -0.0127
vt -0.0186 0.0078
vt 0.0000 0.0186
vt 0.0557 0.0127
vt 0.0088 -0.0186
vt 0.0186 0.0078
vt 0.0000 -0.0332
vt 0.0508 -0.0215
vt 0.0459 -0.0371
vt 0.0742 -0.0205
vt 0.0557 -0.0342
vt 0.0000 0.0186
vt -0.0557 0.0127
vt -0.0088 -0.0186
vt -0.0156 -0.0371
vt -0.0508 -0.0215
vt -0.0459 -0.0371
vt -0.0742 -0.0205
vt -0.0557 -0.0342
vt 0.0557 0.0127
vt 0.0000 0.0732
vt 0.0469 0.0771
vt 0.0000 0.0986
vt 0.0000 0.1133
vt 0.0586 0.0830
vt 0.0879 0.0234
vt 0.0000 0.0186
vt 0.0000 0.0732
vt -0.0557 0.0127
vt -0.0469 0.0771
vt 0.0000 0.0986
vt 0.0000 0.1133
vt -0.0586 0.0830
vt -0.0879 0.0234
vt 0.1553 -0.0869
vt 0.1621 -0.0117
vt 0.0186 -0.0107
vt 0.0186 -0.0107
vt -0.1602 -0.0117
vt -0.1533 -0.0869
vt -0.0156 -0.0107
vt -0.1602 -0.0117
vt 0.0000 6.6875
vt 0.0000 0.0000
vt -15.8613 -21.5059
vt 16.0557 -31.5879
vt -15.3877 -6.0469
vt -15.7432 8.2910
vt -15.8525 -26.4619
vt -15.9316 20.9678
vt 15.6650 -19.4395
vt 16.5947 -10.3926
vt -15.3447 -16.4102
vt 0.0430 0.0430
vt 0.0000 1.2783
vt 0.0000 3.6279
vt 0.0156 0.0312
vt 0.0000 1.2793
vt 0.0000 1.2744
vt 0.0430 0.0430
vt 0.0000 3.6270
vt 0.0000 1.2764
vt -6.5000 0.0000
vt -6.2500 0.0000
vt -6.5000 0.0000
vt -4.0000 0.0000
vt -9.4453 0.0029
vt -6.2500 0.0000
vt -6.5000 0.0000
vt -6.2500 0.0000
vt -3.5000 8.0020
vt -6.2500 0.0000
vt -2.7266 0.0000
vt -2.7344 0.0000
vt -4.0000 0.0000
vt -9.4453 0.0029
vt -4.0000 0.0000
vt -6.5000 0.0000
vt -6.2500 0.0000
vt 4.6289 4.1562
vt 1.2598 4.0117
vt -6.5000 0.0000
vt -6.2500 0.0000
vt 4.3906 -30.8721
vt -6.2500 0.0000
vt -6.5000 0.0000
vt -6.2500 0.0000
vt -3.5000 8.0020
vt -4.0000 0.0000
vt 4.2539 -28.8740
vt -6.5000 0.0000
vt -6.2500 0.0000
vt -3.5000 8.0020
vt 1.2637 1.0059
vt -6.5000 0.0000
vt -6.2500 0.0000
vt -9.5010 -0.0010
vt -9.4453 0.0029
vt -9.4453 0.0029
vt -9.5010 -1.5010
vt -9.5010 -0.0010
vt -9.5010 -1.5010
vt 4.6289 4.1562
vt 4.3906 -30.8721
vt 4.2539 -28.8740
vt -9.5010 -1.5010
vt 0.0000 0.0000
vt 30.9912 -25.9902
f 12/12 1/1 74/74
f 128/128 128/128 128/128
f 12/12 1/1 74/74
f 128/128 128/128 128/128
f 31/31 2/2 4/4
f 89/89 89/89 128/128
f 34/34 2/2 100/100
f 128/128 128/128 128/128
f 31/31 2/2 4/4
f 89/89 89/89 128/128
f 127/127 2/2 69/69
f 34/34 2/2 100/100
f 128/128 128/128 128/128
f 46/46 1/1 125/125
f 89/89 89/89 128/128
f 51/51 2/2 78/78
f 128/128 128/128 128/128
f 122/122 2/2 42/42
f 46/46 1/1 125/125
f 89/89 89/89 128/128
f 51/51 2/2 78/78
f 128/128 128/128 128/128
f 5/5 1/1 72/72
f 5/5 1/1 72/72
f 5/5 1/1 72/72
f 5/5 2/2 119/119
f 69/69 69/69 128/128
f 90/90 2/2 88/88
f 113/113 1/1 128/128
f 94/94 1/1 11/11
f 5/5 2/2 119/119
f 69/69 69/69 128/128
f 95/95 2/2 19/19
f 95/95 97/97 128/128
f 98/98 2/2 9/9
f 95/95 97/97 128/128
f 9/9 1/1 39/39
f 86/86 86/86 128/128
f 26/26 3/3 54/54
f 128/128 128/128 128/128
f 63/63 3/3 122/122
f 128/128 128/128 128/128
f 91/91 7/7 100/100
f 128/128 128/128 18/18
f 4/4 4/4 1/1
f 68/68 63/63 58/58
f 30/30 24/24 25/25
f 24/24 26/26 25/25
f 27/27 26/26 28/28
f 8/8 10/10 9/9
f 5/5 6/6 1/1
f 1/1 7/7 5/5
f 29/29 26/26 28/28
f 5/5 11/11 8/8
f 3/3 4/4 1/1
f 5/5 8/8 2/2
f 1/1 2/2 3/3
f 4/4 5/5 6/6
f 7/7 1/1 3/3
f 3/3 8/8 7/7
f 3/3 4/4 1/1
f 5/5 2/2 6/6
f 1/1 7/7 6/6
f 8/8 10/10 9/9
f 18/18 26/26 21/21
f 15/15 22/22 21/21
f 5/5 6/6 7/7
f 2/2 1/1 25/25
f 1/1 26/26 25/25
f 23/23 21/21 20/20
f 23/23 20/20 19/19
f 6/6 10/10 12/12
f 8/8 4/4 7/7
f 6/6 7/7 2/2
f 7/7 8/8 2/2
f 6/6 9/9 7/7
f 30/30 31/31 32/32
f 2/2 1/1 11/11
f 24/24 21/21 23/23
f 22/22 25/25 23/23
f 31/31 26/26 32/32
f 19/19 16/16 13/13
f 30/30 28/28 31/31
f 28/28 32/32 31/31
f 32/32 28/28 26/26
f 6/6 7/7 4/4
f 4/4 7/7 8/8
f 8/8 3/3 4/4
f 30/30 24/24 25/25
f 24/24 26/26 25/25
f 27/27 26/26 28/28
f 8/8 10/10 9/9
f 5/5 6/6 1/1
f 1/1 7/7 5/5
f 29/29 26/26 28/28
f 5/5 11/11 8/8
f 3/3 4/4 1/1
f 5/5 8/8 2/2
f 1/1 2/2 3/3
f 4/4 5/5 6/6
f 7/7 1/1 3/3
f 3/3 8/8 7/7
f 3/3 4/4 1/1
f 5/5 2/2 6/6
f 1/1 7/7 6/6
f 8/8 10/10 9/9
f 18/18 26/26 21/21
f 15/15 22/22 21/21
f 23/23 20/20 19/19
f 6/6 10/10 12/12
f 8/8 4/4 7/7
f 6/6 7/7 4/4
f 4/4 7/7 8/8
f 8/8 3/3 4/4
f 75/75 32/32 38/38
f 112/112 35/35 81/81
