# Conker's Bad Fur Day — Real 3D Model (Multiplayer Level Models)
o assets09_model_044

v 0.0000 13.5200 0.0000
v 20.4800 10.2400 -0.0100
v 3.9800 6.2600 -0.0100
v 16.5000 6.2600 -0.0100
v 0.0000 10.2400 -0.0100
v 16.5000 0.0000 -0.0100
v 3.9800 0.0000 -0.0100
v 0.0000 0.0000 -0.0100
v 20.4800 0.0000 -0.0100
v 20.4800 10.2400 -0.0100
v 3.9800 6.2600 -0.0100
v 16.5000 6.2600 -0.0100
v 0.0000 10.2400 -0.0100
v 16.5000 0.0000 -0.0100
v 3.9800 0.0000 -0.0100
v 0.0000 0.0000 -0.0100
v 20.4800 0.0000 -0.0100
v 0.0000 10.2400 -0.0100
v 3.9800 10.2400 -0.0100
v 3.9800 3.9800 -0.0100
v 16.5000 3.9800 -0.0100
v 16.5000 10.2400 -0.0100
v 20.4800 10.2400 -0.0100
v 0.0000 10.2400 -0.0100
v 3.9800 10.2400 -0.0100
v 3.9800 3.9800 -0.0100
v 16.5000 3.9800 -0.0100
v 16.5000 10.2400 -0.0100
v 20.4800 10.2400 -0.0100
v 0.0000 5.1200 -0.0100
v 5.1200 5.1200 -0.0100
v 5.1200 5.1200 -0.0100
v 0.0000 5.1200 -0.0100
v 0.0000 10.2400 -0.0100
v 5.1200 10.2400 -0.0100
v 5.1200 10.2400 -0.0100
v 0.0000 10.2400 -0.0100
v 0.0000 0.0000 -0.0100
v 5.1200 0.0000 -0.0100
v 5.1200 10.2400 -0.0100
v 0.0000 10.2400 -0.0100
v 0.0000 0.0000 -0.0100
v 5.1200 0.0000 -0.0100
v 0.0000 5.1200 -0.0100
v 5.1200 5.1200 -0.0100
v 2.5600 0.9700 -0.0100
v 2.5600 3.9100 -0.0100
v 5.1200 5.1200 -0.0100
v 0.0000 0.0000 -0.0100
v 5.1200 0.0000 -0.0100
v 0.0000 5.1200 -0.0100
v 5.1200 5.1200 -0.0100
v 2.5600 0.7600 -0.0100
v 2.5600 4.3600 -0.0100
v 2.5600 0.7600 -0.0100
v 0.0000 5.1200 -0.0100
v 0.0000 0.0000 -0.0100
v 0.0000 0.0000 -0.0100
v 5.1200 5.1200 -0.0100
v 0.0000 5.1200 -0.0100
v 5.1200 0.0000 -0.0100
v 2.5600 4.1400 -0.0100
v 2.5600 1.1900 -0.0100
v 2.5600 1.1900 -0.0100
v 0.3000 10.6300 -0.0100
v 0.2000 -0.6700 -0.0100
v 10.3400 -1.5700 -0.0100
v 10.1600 10.6200 -0.0100
v -28.0000 0.0000 17.9200
v -33.2800 0.0000 18.5500
v -28.1600 2.5600 15.3600
v -7.5200 0.0000 0.6400
v 2.5800 0.6400 2.5600
v -7.5200 0.0000 0.0000
v -33.2800 0.0000 18.5500
v -7.5200 0.0000 0.6400
v -7.5200 0.0000 0.6400
v -7.5200 0.0000 0.6400
v -27.9200 0.0000 17.9200
v -33.2800 0.0000 18.5500
vt 0.0000 0.0000
vt 0.0244 -0.0146
vt 0.0244 -0.0146
vt 0.0293 -0.0098
vt 0.0244 -0.0215
vt 0.0244 -0.0215
vt 0.0293 -0.0215
vt 0.0293 -0.0215
vt 0.0381 -0.0098
vt 0.0430 -0.0146
vt 0.0430 -0.0146
vt 0.0381 -0.0098
vt 0.0430 -0.0215
vt 0.0430 -0.0215
vt 0.0381 -0.0215
vt 0.0381 -0.0215
vt 0.0293 -0.0215
vt 0.0293 -0.0332
vt 0.0244 -0.0293
vt 0.0244 -0.0293
vt 0.0244 -0.0215
vt 0.0293 -0.0332
vt 0.0381 -0.0215
vt 0.0381 -0.0332
vt 0.0430 -0.0293
vt 0.0430 -0.0293
vt 0.0430 -0.0215
vt 0.0381 -0.0332
vt 0.0293 -0.0215
vt 0.0293 -0.0332
vt 0.0293 -0.0215
vt 0.0381 -0.0215
vt 0.0381 -0.0332
vt 0.0381 -0.0098
vt 0.0293 -0.0098
vt 0.0381 -0.0098
vt 0.0293 -0.0098
vt 0.0381 -0.0098
vt 0.0381 -0.0098
vt 0.0293 -0.0098
vt 0.0322 -0.0098
vt 0.0352 -0.0098
vt 0.0322 -0.0049
vt 0.0352 -0.0049
vt 0.0332 -0.0098
vt 0.0332 -0.0068
vt 0.0352 -0.0049
vt 0.0322 -0.0049
vt 0.0352 -0.0049
vt 0.0322 -0.0049
vt 0.0352 -0.0049
vt 0.0332 -0.0068
vt 0.0332 -0.0068
vt 0.0332 -0.0068
vt 0.0322 -0.0049
vt 0.0322 -0.0049
vt 0.0322 -0.0049
vt 0.0352 -0.0098
vt 0.0322 -0.0098
vt 0.0352 -0.0049
vt 0.0332 -0.0098
vt 0.0332 -0.0068
vt 0.0332 -0.0068
vt 0.0332 -0.0098
vt 0.0332 -0.0322
vt 0.0332 -0.0117
vt 0.0332 -0.0098
vt 0.0000 1.3281
vt -6.5000 0.0000
vt -6.2500 0.0000
vt -6.5000 0.0000
vt -4.0000 0.0000
vt 4.1445 -30.8730
vt -6.5000 0.0000
vt -6.2500 0.0000
vt -4.0000 0.0000
vt -4.0000 0.0000
vt -4.0000 0.0000
vt -6.5000 0.0000
vt -6.2500 0.0000
f 58/58 2/2 58/58
f 58/58 1/1 1/1
f 58/58 2/2 58/58
f 58/58 1/1 1/1
f 58/58 1/1 72/72
f 58/58 3/3 1/1
f 58/58 1/1 72/72
f 58/58 3/3 1/1
f 15/15 16/16 6/6
f 5/5 15/15 6/6
f 17/17 18/18 19/19
f 17/17 19/19 20/20
f 17/17 21/21 23/23
f 19/19 21/21 17/17
