mtllib assets0A_model_036.mtl
# Conker's Bad Fur Day — Real 3D Model (Bat's Tower Level Models)
o assets0A_model_036
usemtl assets0A_model_036_mat

v 8.4400 4.7900 -2.6800
v 20.5000 -1.9800 1.1600
v -2.0000 1.1800 -2.5200
v -28.1100 39.3800 0.2000
v 27.2600 8.4500 1.9800
v 5.9500 -1.6700 25.1900
v 10.3700 8.3600 5.9500
v -0.7200 18.8200 5.8500
v 18.9800 6.7400 -1.5000
v 5.9500 -2.8600 17.2700
v 11.2000 24.0100 5.9500
v -2.7500 28.3300 5.8800
v 13.6800 7.6400 -3.0100
v 5.9600 -3.0500 12.7000
v 9.3300 8.5800 -3.6300
v 5.9700 -1.9700 8.1400
v 5.2300 8.5100 -3.7700
v 6.0000 -0.7300 4.7300
v -3.6100 37.2800 6.1400
v 4.8900 8.4500 -3.5200
v 6.0500 -0.2800 5.4000
v 10.6100 29.8000 6.0500
v -3.2000 25.2500 6.2400
v 9.5200 8.4200 -3.0900
v 6.0000 0.1100 11.8400
v 9.9500 16.2700 5.9600
v -2.7500 16.5000 5.1800
v 22.2300 7.6500 -2.5600
v 5.3000 -0.7500 26.1600
v 8.7400 12.1400 5.2200
v -2.2600 14.6100 2.2500
v 35.5400 6.8800 -2.2600
v 6.0100 -1.0000 38.7900
v 9.2600 8.3800 6.2900
v -2.3300 10.4900 3.2800
v 8.7700 3.4500 5.9600
v -2.3700 6.5100 4.7100
v 8.2300 -0.1600 5.5300
v -1.7400 3.6200 5.0200
v 7.0500 -1.7000 39.1200
v 9.4700 1.6400 7.7400
v -0.9200 6.1500 4.9200
v 30.1700 7.0000 -0.7600
v 9.1200 -2.2200 27.3200
v 10.8900 9.5200 9.0700
v -1.0500 15.2400 4.9200
v 20.4800 6.9700 -1.4900
v 7.7300 -2.3200 18.9500
v 11.7300 26.3900 7.2700
v -3.0200 28.4500 4.9700
v 15.4200 7.2700 -3.4800
v 6.7900 -2.2500 14.4800
v 12.3400 39.7400 6.7500
v 11.9300 8.5900 -5.5400
v 6.7400 -2.7000 11.0300
v 8.3700 7.9000 -6.5800
v 6.7600 -3.4100 7.6000
v 5.7300 7.7400 -5.7500
v 6.6000 -2.8200 5.4900
v 12.0400 38.8800 6.5600
v -4.5200 33.8900 5.1100
v 7.1100 7.7600 -4.0700
v 6.4800 -0.8400 9.0100
v 11.0800 21.2700 6.4800
v -2.8200 22.2100 5.0300
v 16.4600 6.9700 -2.4900
v 6.7700 0.8000 18.8900
v 10.5100 11.1600 6.9800
v -1.8100 16.4300 3.8600
v 26.0200 6.9800 -1.7000
v 7.3400 1.1700 28.2600
v 9.9200 8.2900 7.2900
v -1.6600 10.6800 4.4600
v 35.8900 7.2800 -1.7100
v 7.0500 0.6200 38.3900
vt 0.5000 -31.9688
vt -0.3232 0.6572
vt 0.6572 -0.0713
vt 0.0000 28.0000
vt 0.5674 -5.1562
vt 0.1084 1.5498
vt 2.2510 0.7363
vt 1.0654 1.5840
vt 0.5732 -5.1562
vt -0.2002 2.2031
vt 1.5488 0.6602
vt 1.1123 3.2529
vt 0.5742 -5.1562
vt -0.3154 3.4512
vt 0.5742 -5.1562
vt -0.3623 4.4492
vt 0.5801 -5.1562
vt -0.3652 4.1250
vt 1.0654 3.6729
vt 0.6064 -5.1562
vt -0.3340 3.0596
vt 0.6162 0.8203
vt 1.0049 2.1797
vt 0.6025 -5.1562
vt -0.2920 1.9434
vt 1.4326 0.8193
vt 0.9072 1.3135
vt 0.3877 -5.1562
vt -0.2334 1.5615
vt 2.8740 0.6836
vt 0.8701 1.0010
vt 0.2324 -5.1562
vt -0.2217 1.2314
vt 4.0967 0.6719
vt 0.8984 0.6084
vt 4.9131 0.6836
vt 0.8135 0.0947
vt 4.5635 0.6846
vt 0.8486 0.0176
vt -0.1270 0.3730
vt 3.5312 0.6836
vt 1.0049 0.4424
vt 0.4805 -5.1562
vt -0.0674 0.9814
vt 2.4111 0.6836
vt 1.1094 1.7324
vt 0.4814 -5.1562
vt -0.1963 2.1592
vt 1.7246 0.6748
vt 1.1748 3.2188
vt 0.4854 -5.1562
vt -0.3887 3.3525
vt 1.3301 0.7881
vt 0.4873 -5.1562
vt -0.5830 4.4814
vt 0.4883 -5.1562
vt -0.6348 4.7031
vt 0.4941 -5.1562
vt -0.5244 3.8926
vt 0.5410 0.7607
vt 1.1270 2.9004
vt 0.5000 -5.1562
vt -0.3545 2.7100
vt 1.1123 0.7188
vt 1.0479 1.4785
vt 0.4844 -5.1562
vt -0.2158 1.7842
vt 2.0879 0.6738
vt 1.0029 0.8252
vt 0.3584 -5.1562
vt -0.1611 1.3574
vt 3.0000 0.6953
vt 0.9355 0.7920
vt 0.4668 -5.1562
vt -0.1729 0.7686
f 42/42 2/2 20/20
f 2/2 11/11 10/10
f 6/6 11/11 8/8
f 1/1 11/11 71/71
