mtllib assets10_model_041.mtl
# Conker's Bad Fur Day — Real 3D Model (Spooky Models)
o assets10_model_041
usemtl assets10_model_041_mat

v 0.0000 0.7200 0.0000
v 0.0000 1.7600 0.0000
v 0.0000 3.0400 0.0000
v 0.0000 4.0800 0.0000
v 0.0000 4.6400 0.0000
v -7.6300 -1.7200 28.4100
v -5.1700 -1.7800 7.8000
v 4.8300 -1.7800 -2.4900
v 18.6800 -1.7800 1.3800
v 23.1600 -1.7800 16.0600
v -3.0000 17.2600 -28.2800
v 1.7000 0.2200 12.0000
v -7.6200 -2.3300 27.6100
v -6.6000 -2.3300 15.6200
v -0.7600 -2.3300 -1.0200
v 4.3300 -2.0500 -13.6600
v 5.2700 -2.0500 -21.5300
v 0.3500 -2.0500 -26.5100
v 1.9600 -2.0500 -35.6600
v 23.7000 -1.6500 18.4400
v 24.4300 -1.6500 8.8100
v 15.1500 -1.6500 -7.3300
v 11.5900 -1.6500 -15.0100
v 14.2400 -1.6500 -22.9300
v 16.9600 -1.6500 -34.5800
v 12.8700 -28.9800 -29.4000
v 12.5900 -30.1500 -25.6000
v 8.4300 17.1100 -29.5000
vt 0.0000 0.1562
vt 0.0000 0.1875
vt 0.0000 0.3906
vt 0.0000 0.4375
vt -0.8516 -0.1738
vt -0.7188 -0.1738
vt -0.1328 -0.1738
vt 1.1689 -0.1738
vt 2.2129 -0.1738
vt 2.3242 -0.1738
vt -0.2930 1.6855
vt 0.1660 0.0215
vt -0.6670 -0.2275
vt -0.5088 -0.2275
vt 0.3721 -0.2275
vt 0.4941 -0.2002
vt 0.1934 -0.2002
vt 0.0879 -0.2002
vt 0.1914 -0.2002
vt 2.3711 -0.1611
vt 2.0234 -0.1611
vt 1.2891 -0.1611
vt 1.0420 -0.1611
vt 1.6309 -0.1611
vt 1.6562 -0.1611
vt 1.2988 -2.9443
vt 1.1533 -2.9443
vt 0.8232 1.6709
f 1/1 2/2 3/3
f 4/4 5/5 6/6
f 7/7 8/8 9/9
f 10/10 11/11 12/12
f 13/13 14/14 15/15
f 16/16 17/17 18/18
f 19/19 20/20 21/21
f 22/22 23/23 24/24
f 25/25 26/26 27/27
