# Conker's Bad Fur Day — Real 3D Model (Multiplayer Level Models)
o assets09_model_025

v 0.0000 10.1600 0.0000
v 8.0800 11.7400 -0.0100
v 2.2100 11.7700 -0.0100
v 0.2600 2.1000 -0.0100
v 0.3000 20.3400 -0.0100
v 2.2200 18.8300 -0.0100
v 8.1000 18.8000 -0.0100
v 10.0300 20.2900 -0.0100
v 9.9900 2.0500 -0.0100
v 7.3800 0.3700 -0.0100
v 2.8600 0.4000 -0.0100
v 0.0000 2.2000 -0.0100
v 5.1200 0.0000 -0.0100
v 5.1200 10.2400 -0.8600
v 0.0000 8.0400 -0.0100
v 0.0000 10.2400 -0.0100
v 5.1200 10.2400 -0.0100
v 0.0000 10.2400 -0.0100
v 5.1200 0.0000 -0.0100
v 0.9000 9.2500 -0.0100
v 2.3800 9.3000 -0.0100
v 2.4600 1.1400 -0.0100
v 2.6200 10.2100 -0.0100
v 0.1900 8.6500 -0.0100
v 0.3200 0.1500 -0.0100
v 2.5400 3.2500 -0.0100
v 0.2600 2.2900 -0.0100
v 2.5600 0.7700 -0.0100
v 2.5700 9.4200 -0.0100
v 0.3500 3.6200 -0.0100
v 5.1200 0.0000 -0.0100
v 0.0000 2.2000 -0.0100
v 0.0000 10.2400 -0.0100
v 0.9000 9.2500 -0.0100
v 0.2900 7.0500 -0.0100
v 5.1200 10.2400 -0.0100
v 5.1200 0.0000 -0.0100
v 0.0000 0.0000 -0.0100
v 0.0000 10.2400 -0.0100
v 5.1200 10.2400 -0.8600
v 0.0000 10.2400 -0.0100
v 0.0000 0.0000 -0.0100
v 10.2400 10.2400 -0.0100
v 10.2400 0.0000 -0.0100
v -28.0000 0.0000 17.9200
v -33.2800 0.0000 18.5500
v -28.1600 2.5600 15.3600
v -7.5200 0.0000 0.6400
v 2.5800 0.6400 2.5600
v -7.5200 0.0000 0.6400
v -7.5200 0.0000 0.0000
v -33.2800 0.0000 18.0700
v -7.5200 0.0000 15.3600
v -33.2800 0.0000 18.0700
v -28.1600 10.2400 0.0100
v 15.3600 5.1600 0.0200
vt 0.0000 0.0000
vt 0.0186 -0.0391
vt 0.0215 -0.0449
vt 0.0225 -0.0469
vt 0.0186 -0.0400
vt 0.0068 -0.0186
vt 0.0029 -0.0127
vt 0.0020 -0.0107
vt 0.0068 -0.0195
vt 0.0156 -0.0352
vt -0.0068 -0.0156
vt 0.0020 -0.0107
vt 0.0215 -0.0449
vt 0.0137 -0.0518
vt 0.0127 -0.0498
vt 0.0029 -0.0127
vt -0.0059 -0.0176
vt 0.0225 -0.0469
vt 0.0127 -0.0498
vt 0.0127 -0.0508
vt -0.0068 -0.0156
vt -0.0068 -0.0156
vt 0.0137 -0.0518
vt -0.0068 -0.0156
vt -0.0088 -0.0264
vt -0.0098 -0.0254
vt -0.0068 -0.0156
vt 0.0127 -0.0508
vt 0.0039 -0.0488
vt 0.0039 -0.0488
vt -0.0068 -0.0156
vt -0.0059 -0.0176
vt -0.0020 -0.0244
vt -0.0068 -0.0156
vt -0.0068 -0.0156
vt -0.0020 -0.0244
vt 0.0068 -0.0410
vt 0.0127 -0.0498
vt 0.0215 -0.0449
vt -0.0059 -0.0176
vt 0.0186 -0.0391
vt 0.0068 -0.0186
vt 0.0059 -0.0186
vt 0.0000 1.0000
vt -6.5000 0.0000
vt -6.2500 0.0000
vt -6.5000 0.0000
vt -4.0000 0.0000
vt 4.3906 -30.8721
vt -4.0000 0.0000
vt -6.5000 0.0000
vt -6.2500 0.0000
vt -6.5000 0.0000
vt -6.2500 0.0000
vt -3.5000 8.0020
vt -8.2500 0.0000
f 8/8 3/3 9/9
f 9/9 3/3 10/10
f 31/31 30/30 32/32
f 21/21 19/19 22/22
f 23/23 24/24 25/25
f 23/23 25/25 26/26
f 1/1 2/2 3/3
f 2/2 4/4 3/3
