mtllib assets09_model_027.mtl
# Conker's Bad Fur Day — Real 3D Model (Multiplayer Level Models)
o assets09_model_027
usemtl assets09_model_027_mat

v 0.0000 9.6800 0.0000
v 0.5500 6.5800 -0.0100
v 8.4100 6.5900 -0.0100
v -0.1800 3.4300 -0.0100
v 9.6400 3.6000 -0.0100
v 0.5500 6.5800 -0.0100
v -0.1800 3.4300 -0.0100
v 8.4100 6.5900 -0.0100
v 9.6400 3.6000 -0.0100
v 5.1200 0.0000 -0.0100
v 5.1200 0.0000 -0.0100
v 0.0000 0.0000 -0.0100
v 0.0000 0.0000 -0.0100
v 10.0600 7.4300 -0.0100
v 10.0800 8.5500 -0.0100
v 10.8100 7.4300 -0.0100
v 20.5600 8.5700 -0.0100
v 20.4900 4.4400 -0.0100
v 10.7600 4.4200 -0.0100
v 10.0800 8.5500 -0.0100
v 10.8100 7.4300 -0.0100
v 10.0800 8.5500 -0.0100
v 10.7600 4.4200 -0.0100
v 20.4900 4.4400 -0.0100
v 20.5600 8.5700 -0.0100
v 10.0800 8.5500 -0.0100
v 0.0000 2.5600 -0.0100
v 5.1200 2.5600 -0.0100
v 0.0000 0.0000 -0.0100
v 5.1200 0.0000 -0.0100
v 0.0000 2.5600 -0.0100
v 5.1200 2.5600 -0.0100
v 0.0000 5.1200 -0.0100
v 5.1200 5.1200 -0.0100
v 0.1700 4.9900 -0.0100
v 0.1400 0.1600 -0.0100
v 4.9700 0.1200 -0.0100
v 5.0000 4.9500 -0.0100
v 1.2500 0.4100 -0.0100
v -0.3400 2.9000 -0.0100
v 5.1200 3.4100 -0.0100
v -0.3400 2.9000 -0.0100
v 1.2500 0.4100 -0.0100
v 5.1200 3.4100 -0.0100
v 2.2300 4.8900 -0.0100
v 0.2000 0.0500 -0.0100
v 5.1000 -0.2100 -0.0100
v 5.0800 4.7400 -0.0100
v -28.0000 0.0000 17.9200
v -33.2800 0.0000 18.5500
v -28.1600 2.5600 15.3600
v -7.5200 0.0000 0.6400
v 15.4400 30.7200 0.1200
v -7.5200 0.0000 0.0000
v -33.2800 0.0000 18.0700
v -7.5200 0.0000 0.6400
v -7.5200 0.0000 0.6400
v -7.5200 0.0000 0.0000
v -33.2800 0.0000 17.9900
v -7.5200 0.0000 0.0000
v -33.2800 0.0000 17.9900
v 15.3600 5.1600 0.0600
v -27.9200 0.0000 17.9200
v -33.2800 0.0000 18.0700
v -27.9200 20.4800 0.0900
v 15.3600 5.1600 0.0000
vt 0.0000 0.0000
vt 0.0068 -0.0176
vt 0.0029 -0.0117
vt 0.0029 -0.0293
vt -0.0010 -0.0029
vt 0.0029 -0.0117
vt -0.0010 -0.0176
vt 0.0029 -0.0293
vt 0.0068 -0.0664
vt 0.0068 -0.0654
vt 0.0000 -0.0840
vt 0.0068 -0.0840
vt 0.0000 -0.0918
vt 0.0107 -0.0098
vt 0.0107 -0.0146
vt 0.0107 -0.0898
vt 0.0107 -0.0898
vt 0.0107 -0.0146
vt -0.0039 -0.0098
vt -0.0039 -0.0146
vt -0.0039 -0.0098
vt -0.0039 -0.0146
vt -0.0039 -0.0898
vt -0.0039 -0.0898
vt 0.0107 -0.0098
vt 0.0088 -0.0898
vt 0.0088 -0.1084
vt 0.0029 -0.0898
vt 0.0029 -0.1084
vt -0.0020 -0.0898
vt -0.0020 -0.1084
vt 0.0029 -0.0898
vt 0.0029 -0.1084
vt 0.0029 -0.1084
vt -0.0020 -0.1084
vt 0.0029 -0.1084
vt 0.0088 -0.1084
vt 0.0049 -0.1064
vt 0.0029 -0.0996
vt 0.0029 -0.1045
vt 0.0029 -0.0996
vt 0.0010 -0.1064
vt 0.0029 -0.1045
vt 0.0029 -0.0293
vt 0.0029 -0.0225
vt 0.0029 -0.0371
vt 0.0029 -0.0371
vt 0.0000 0.9531
vt -6.5000 0.0000
vt -6.2500 0.0000
vt -6.5000 0.0000
vt -4.0000 0.0000
vt 1.2578 0.0039
vt -6.5000 0.0000
vt -6.2500 0.0000
vt -4.0000 0.0000
vt -4.0000 0.0000
vt -6.5000 0.0000
vt -6.2500 0.0000
vt -6.5000 0.0000
vt -6.2500 0.0000
vt 1.2578 0.0098
vt -6.5000 0.0000
vt -6.2500 0.0000
vt -4.2266 11.0615
vt -8.2500 0.0000
f 5/5 7/7 1/1
f 7/7 2/2 1/1
f 5/5 1/1 3/3
f 14/14 13/13 15/15
f 14/14 15/15 16/16
f 11/11 12/12 8/8
f 8/8 12/12 9/9
f 9/9 10/10 11/11
f 12/12 9/9 11/11
f 1/1 2/2 3/3
f 4/4 5/5 6/6
f 5/5 1/1 6/6
f 1/1 2/2 3/3
f 1/1 3/3 4/4
