mtllib assets09_model_182.mtl
# Conker's Bad Fur Day — Real 3D Model (Multiplayer Level Models)
o assets09_model_182
usemtl assets09_model_182_mat

v 0.0000 0.3200 0.0000
v 0.0000 7.0400 0.0000
v 0.0000 -0.1500 -0.3200
v 0.0000 0.1100 -0.3300
v 0.0000 0.2700 -0.5400
v 0.0000 -0.2200 -0.5100
v 0.0000 0.3700 -0.0900
v 0.0000 0.3200 0.3000
v 0.1200 0.0100 0.0500
v 0.0000 -0.1500 0.5500
v -0.1200 0.0100 0.0500
v 0.0000 -0.3700 0.1300
v 0.0000 -0.1500 -0.3200
v 0.0000 0.1100 -0.3300
v 0.0000 0.1100 -0.3300
v 0.0000 0.3700 -0.0900
v 0.0000 0.8100 -0.4000
v 0.0000 0.3700 -0.0900
v 0.0000 0.3200 0.3000
v 0.0000 0.8100 -0.4000
v 0.0000 -0.5700 -0.5000
v 0.0000 -0.3700 0.1300
v 0.0000 -0.1500 -0.3200
v 0.0000 -0.1500 -0.3200
v 0.0000 0.1100 -0.3300
v 0.0000 0.2700 -0.5400
v 0.0000 -0.2200 -0.5100
v 0.0000 0.3700 -0.0900
v 0.0000 0.3200 0.3000
v 0.1200 0.0100 0.0500
v 0.0000 -0.1500 0.5500
v -0.1200 0.0100 0.0500
v 0.0000 -0.3700 0.1300
v 0.0000 -0.1500 -0.3200
v 0.0000 0.1100 -0.3300
v 0.0000 0.1100 -0.3300
v 0.0000 0.3700 -0.0900
v 0.0000 0.8100 -0.4000
v 0.0000 0.3700 -0.0900
v 0.0000 0.3200 0.3000
v 0.0000 0.8100 -0.4000
v 0.0000 -0.5700 -0.5000
v 0.0000 -0.3700 0.1300
v 0.0000 -0.1500 -0.3200
v -28.0000 0.0000 17.9200
v -33.2800 0.0000 19.1900
vt 0.0000 0.3594
vt 0.0000 0.0000
vt 1.1826 0.4893
vt 1.7148 0.5010
vt 2.0137 0.0449
vt 0.9922 0.0439
vt 0.5459 0.9854
vt 0.9404 0.6748
vt 0.4980 0.5400
vt 0.9395 0.0596
vt 0.4980 0.5400
vt 0.3643 0.1270
vt 0.0029 0.6309
vt 0.1387 0.8848
vt 1.0098 0.4980
vt 1.4473 0.6699
vt 1.1338 1.0391
vt 1.4473 0.6699
vt 2.0107 0.5840
vt 1.1338 1.0391
vt 1.1377 1.2441
vt 1.8906 0.6592
vt 1.0225 0.5332
vt 1.1826 0.4893
vt 1.7148 0.5010
vt 2.0137 0.0449
vt 0.9922 0.0439
vt 0.5459 0.9854
vt 0.9404 0.6748
vt 0.4980 0.5400
vt 0.9395 0.0596
vt 0.4980 0.5400
vt 0.3643 0.1270
vt 0.0029 0.6309
vt 0.1387 0.8848
vt 1.0098 0.4980
vt 1.4473 0.6699
vt 1.1338 1.0391
vt 1.4473 0.6699
vt 2.0107 0.5840
vt 1.1338 1.0391
vt 1.1377 1.2441
vt 1.8906 0.6592
vt 1.0225 0.5332
vt -0.7344 0.0000
vt -2.7344 8.0000
f 1/1 2/2 3/3
f 4/4 5/5 6/6
f 7/7 8/8 9/9
f 10/10 11/11 12/12
f 13/13 14/14 15/15
f 16/16 17/17 18/18
f 19/19 20/20 21/21
f 22/22 23/23 24/24
f 25/25 26/26 27/27
f 28/28 29/29 30/30
f 31/31 32/32 33/33
f 34/34 35/35 36/36
f 37/37 38/38 39/39
f 40/40 41/41 42/42
f 43/43 44/44 45/45
