# Conker's Bad Fur Day — Real 3D Model (Multiplayer Level Models)
o assets09_model_042

v 0.0000 4.4000 0.0000
v -0.0500 5.0700 -0.0100
v 2.4400 0.1600 -0.0100
v 2.5800 10.0000 -0.0100
v 7.7100 10.0300 -0.0100
v 7.5700 0.1900 -0.0100
v 10.2100 5.1200 -0.0100
v 10.2100 5.1200 -0.0100
v 7.5700 0.1900 -0.0100
v 7.7100 10.0300 -0.0100
v 2.4400 0.1600 -0.0100
v 2.5800 10.0000 -0.0100
v -0.0500 5.0700 -0.0100
v 3.8900 0.0900 -2.5800
v 5.0400 5.1000 -0.0100
v 5.0400 0.1000 -0.0100
v 1.5700 5.0800 -0.0100
v 1.5700 0.0700 -0.0100
v 3.8800 5.0900 -0.0100
v 3.8900 0.0900 -0.0100
v 3.8800 5.0900 -2.5800
v 3.8800 5.0900 -0.0100
v 3.8900 0.0900 -0.0100
v 1.5700 0.0700 -0.0100
v 1.5700 5.0800 -0.0100
v 0.4100 5.0700 -0.0100
v 0.4200 0.0700 -0.0100
v -28.0000 0.0000 17.9200
v -33.2800 0.0000 18.2300
v -28.1600 2.5600 15.3600
v -7.5200 0.0000 0.6400
v -7.5200 0.0000 0.0000
v -33.2800 0.0000 17.9500
v -28.1600 5.1200 0.0900
vt 0.0000 0.0000
vt 0.1133 -0.0908
vt 0.1133 0.0908
vt 0.1133 0.0908
vt 0.1133 -0.0908
vt 0.1133 0.0000
vt -0.1133 0.0000
vt -0.1133 -0.0908
vt -0.1133 0.0908
vt -0.1133 -0.0908
vt -0.1133 0.0908
vt -0.1133 0.0000
vt -0.1133 0.0908
vt 0.1133 0.0000
vt -0.1133 0.0000
vt 0.1133 -0.0908
vt -0.1133 -0.0908
vt 0.1133 -0.0908
vt -0.1133 -0.0908
vt 0.1133 0.0908
vt 0.1133 0.0908
vt -0.1133 0.0908
vt -0.1133 0.0908
vt 0.1133 0.0908
vt 0.1133 0.0000
vt -0.1133 0.0000
vt 0.0000 0.4375
vt -6.5000 0.0000
vt -6.2500 0.0000
vt -6.5000 0.0000
vt -4.0000 0.0000
vt -6.5000 0.0000
vt -6.2500 0.0000
vt -3.5000 8.0020
f 1/1 2/2 3/3
f 4/4 5/5 6/6
f 7/7 8/8 9/9
f 10/10 11/11 12/12
f 13/13 14/14 15/15
f 16/16 17/17 18/18
f 19/19 20/20 21/21
f 22/22 23/23 24/24
f 25/25 26/26 27/27
f 28/28 29/29 30/30
f 31/31 32/32 33/33
