mtllib assets09_model_142.mtl
# Conker's Bad Fur Day — Real 3D Model (Multiplayer Level Models)
o assets09_model_142
usemtl assets09_model_142_mat

v 0.0000 14.6400 0.0000
v 0.0000 0.0000 -0.0100
v 0.0000 0.0000 -0.0100
v 0.0000 0.0000 -0.0100
v 0.0000 0.0000 -0.0100
v 0.0000 0.0000 -0.0100
v 0.0000 0.0000 -0.0100
v 0.0000 0.0000 -0.0100
v 0.0000 0.0000 -0.0100
v 0.0000 0.0000 -0.0100
v 0.0000 0.0000 -0.0100
v 0.0000 0.0000 -0.0100
v 0.0000 0.0000 -0.0100
v 0.0300 2.8300 -0.0100
v 10.3400 2.7500 -0.0100
v -0.1600 -2.6500 -0.0100
v 9.9900 -2.6400 -0.0100
v 10.3500 10.1600 -0.0100
v 0.0400 10.2500 -0.0100
v 10.0500 4.8500 -0.0100
v -0.1000 4.8400 -0.0100
v 10.3500 10.1600 -0.0100
v 0.0400 10.2500 -0.0100
v 0.0400 10.2500 -0.0100
v 10.3500 10.1600 -0.0100
v -0.1000 4.8400 -0.0100
v 10.0500 4.8500 -0.0100
v -0.0100 15.5100 -0.0100
v 10.1300 15.5200 -0.0100
v 0.0500 20.8300 -0.0100
v 10.3600 20.7400 -0.0100
v 10.3600 20.7400 -0.0100
v 0.0500 20.8300 -0.0100
v 10.3600 20.7400 -0.0100
v 0.0500 20.8300 -0.0100
v 10.1300 15.5200 -0.0100
v -0.0100 15.5100 -0.0100
v 10.3700 31.3200 -0.0100
v 0.0600 31.4100 -0.0100
v 10.2200 26.2000 -0.0100
v 0.0700 26.1900 -0.0100
v 10.3800 38.2700 -0.0100
v 0.0700 38.3600 -0.0100
v 10.2700 33.2200 -0.0100
v 0.1300 33.2100 -0.0100
v -0.1600 -2.6500 -0.0100
v 9.9900 -2.6400 -0.0100
v 0.0300 2.8300 -0.0100
v 10.3400 2.7500 -0.0100
v 10.0500 4.8500 -0.0100
v -0.1000 4.8400 -0.0100
v 10.3500 10.1600 -0.0100
v 0.0400 10.2500 -0.0100
v 10.1300 15.5200 -0.0100
v -0.0100 15.5100 -0.0100
v -0.1000 4.8400 -0.0100
v 10.0500 4.8500 -0.0100
v 0.0400 10.2500 -0.0100
v 10.3500 10.1600 -0.0100
v -0.0100 15.5100 -0.0100
v 10.1300 15.5200 -0.0100
v 0.0500 20.8300 -0.0100
v 10.3600 20.7400 -0.0100
v 0.0700 26.1900 -0.0100
v 10.2200 26.2000 -0.0100
v 0.0600 31.4100 -0.0100
v 10.3700 31.3200 -0.0100
v 10.2700 33.2200 -0.0100
v 0.1300 33.2100 -0.0100
v 10.3800 38.2700 -0.0100
v 0.0700 38.3600 -0.0100
v 0.0000 0.0000 -0.0100
v 0.0000 0.0000 -0.0100
v 0.0000 0.0000 -0.0100
v 0.0000 0.0000 -0.0100
v 0.0000 0.0000 -0.0100
v 0.0000 0.0000 -0.0100
v -28.0000 0.0000 17.9200
v -33.2800 0.0000 18.2300
v -28.1600 2.5600 15.3600
v -7.5200 0.0000 0.6400
v -7.4400 0.0000 0.0000
v -7.5200 0.0000 0.0000
v -7.5200 0.0000 0.6400
vt 0.0000 1.4336
vt 0.0000 0.0205
vt 0.0000 0.0205
vt -0.0068 0.0166
vt 0.0000 0.0088
vt -0.0068 0.0068
vt 0.0000 -0.0088
vt 0.0000 -0.0205
vt 0.0000 -0.0205
vt 0.0000 -0.0088
vt 0.0000 0.0088
vt -0.0068 0.0068
vt 0.0078 0.0068
vt 0.0049 0.0000
vt 0.0029 0.0000
vt -0.0039 0.0000
vt 0.0049 0.0000
vt -0.0049 0.0000
vt -0.0039 0.0000
vt 0.0039 0.0000
vt 0.0049 0.0000
vt -0.0049 0.0000
vt -0.0049 0.0000
vt 0.0049 0.0000
vt 0.0039 0.0000
vt -0.0029 0.0000
vt 0.0039 0.0000
vt -0.0029 0.0000
vt -0.0049 0.0000
vt 0.0049 0.0000
vt 0.0049 0.0000
vt -0.0049 0.0000
vt 0.0049 0.0000
vt -0.0049 0.0000
vt -0.0039 0.0000
vt 0.0039 0.0000
vt 0.0049 0.0000
vt -0.0049 0.0000
vt -0.0039 0.0000
vt 0.0029 0.0000
vt 0.0049 0.0000
vt -0.0049 0.0000
vt -0.0029 0.0000
vt 0.0039 0.0000
vt 0.0029 0.0000
vt -0.0039 0.0000
vt -0.0049 0.0000
vt 0.0049 0.0000
vt -0.0039 0.0000
vt 0.0039 0.0000
vt 0.0049 0.0000
vt -0.0049 0.0000
vt -0.0029 0.0000
vt 0.0039 0.0000
vt 0.0039 0.0000
vt -0.0029 0.0000
vt -0.0049 0.0000
vt 0.0049 0.0000
vt 0.0039 0.0000
vt -0.0039 0.0000
vt -0.0049 0.0000
vt 0.0049 0.0000
vt 0.0029 0.0000
vt -0.0039 0.0000
vt -0.0049 0.0000
vt 0.0049 0.0000
vt -0.0029 0.0000
vt 0.0039 0.0000
vt 0.0049 0.0000
vt -0.0049 0.0000
vt 0.0000 0.0029
vt 0.0029 0.0000
vt 0.0000 -0.0029
vt 0.0000 0.0029
vt 0.0029 0.0000
vt 0.0000 -0.0029
vt 0.0000 1.5625
vt -6.5000 0.0000
vt -6.2500 0.0000
vt -6.5000 0.0000
vt -4.0000 0.0000
vt -2.7266 0.0000
vt -2.7344 0.0000
vt -4.0000 0.0000
f 19/19 9/9 10/10
f 19/19 10/10 20/20
f 7/7 3/3 8/8
f 7/7 4/4 3/3
