mtllib assets01_model_025.mtl
# Conker's Bad Fur Day — Real 3D Model (HUD & UI Props)
o assets01_model_025
usemtl assets01_model_025_mat

v 0.0000 14.6800 0.0000
v 0.0000 23.8400 0.0000
v 10.2400 9.6600 -0.0100
v 0.0000 9.6600 -0.0100
v 10.2400 9.6600 -0.0100
v 0.0000 9.6600 -0.0100
v 3.4900 7.7800 -0.0100
v 3.4800 5.0200 -0.0100
v 1.8000 9.7600 -0.0100
v 3.4600 2.2600 -0.0100
v 1.7500 0.2800 -0.0100
v 1.7700 5.0200 -0.0100
v 3.4800 5.0200 -0.0100
v 1.7700 5.0200 -0.0100
v 0.1000 5.0300 -0.0100
v 0.1200 7.8200 -0.0100
v 0.0900 2.2400 -0.0100
v 0.1000 5.0300 -0.0100
v 10.1800 5.0100 -0.0100
v 6.6800 5.0100 -0.0100
v 6.7000 8.7800 -0.0100
v 6.6600 1.2500 -0.0100
v 6.6800 5.0100 -0.0100
v 1.8000 9.7600 -0.0100
v 3.4800 5.0200 -0.0100
v 3.4900 7.7800 -0.0100
v 1.7700 5.0200 -0.0100
v 1.7500 0.2800 -0.0100
v 3.4600 2.2600 -0.0100
v 1.7700 5.0200 -0.0100
v 3.4800 5.0200 -0.0100
v 0.1200 7.8200 -0.0100
v 0.1000 5.0300 -0.0100
v 0.0900 2.2400 -0.0100
v 0.1000 5.0300 -0.0100
v 6.7000 8.7800 -0.0100
v 6.6800 5.0100 -0.0100
v 10.1800 5.0100 -0.0100
v 6.6600 1.2500 -0.0100
v 6.6800 5.0100 -0.0100
v 3.4900 7.7800 -0.0100
v 3.4800 5.0200 -0.0100
v 1.8000 9.7600 -0.0100
v 3.4600 2.2600 -0.0100
v 1.7500 0.2800 -0.0100
v 1.7700 5.0200 -0.0100
v 3.4800 5.0200 -0.0100
v 1.7700 5.0200 -0.0100
v 0.1000 5.0300 -0.0100
v 0.1200 7.8200 -0.0100
v 0.0900 2.2400 -0.0100
v 0.1000 5.0300 -0.0100
v 10.1800 5.0100 -0.0100
v 6.6800 5.0100 -0.0100
v 6.7000 8.7800 -0.0100
v 6.6600 1.2500 -0.0100
v 6.6800 5.0100 -0.0100
v 1.8000 9.7600 -0.0100
v 3.4800 5.0200 -0.0100
v 3.4900 7.7800 -0.0100
v 1.7700 5.0200 -0.0100
v 1.7500 0.2800 -0.0100
v 3.4600 2.2600 -0.0100
v 1.7700 5.0200 -0.0100
v 3.4800 5.0200 -0.0100
v 0.1200 7.8200 -0.0100
v 0.1000 5.0300 -0.0100
v 0.0900 2.2400 -0.0100
v 0.1000 5.0300 -0.0100
v 6.7000 8.7800 -0.0100
v 6.6800 5.0100 -0.0100
v 10.1800 5.0100 -0.0100
v 6.6600 1.2500 -0.0100
v 6.6800 5.0100 -0.0100
v 10.2400 0.5800 -0.0100
v 0.0000 0.5800 -0.0100
v 10.2400 0.5800 -0.0100
v 0.0000 0.5800 -0.0100
v 0.0000 0.5800 -0.0100
v 10.2400 0.5800 -0.0100
v 0.0000 9.6600 -0.0100
v 10.2400 9.6600 -0.0100
v 0.3200 0.3200 0.0000
v -28.0800 20.4800 0.0900
v -7.5200 0.0000 0.0000
v -7.5200 0.0000 0.0000
v -33.2800 0.0000 18.2300
v -28.0800 20.4800 0.0100
v -7.5200 0.0000 0.6400
v 15.4000 0.0200 0.0400
v 2.1600 1.3600 1.3600
v 2.1600 1.3600 1.3600
v 2.2800 0.2100 2.3500
vt 0.0000 1.5430
vt 0.0000 0.0000
vt 0.0400 -0.0078
vt 0.0400 0.0000
vt -0.0400 0.0000
vt 0.0400 0.0078
vt 0.0088 -0.0049
vt 0.0039 0.0088
vt 0.0088 -0.0049
vt 0.0039 -0.0088
vt 0.0039 -0.0088
vt 0.0088 0.0049
vt 0.0039 0.0088
vt 0.0000 -0.0049
vt 0.0000 0.0049
vt 0.0000 -0.0049
vt 0.0000 0.0049
vt 0.0264 0.0000
vt 0.0166 -0.0068
vt 0.0166 0.0068
vt 0.0166 -0.0068
vt 0.0166 0.0068
vt -0.0039 0.0088
vt -0.0088 -0.0049
vt -0.0088 0.0049
vt -0.0039 -0.0088
vt -0.0039 -0.0088
vt -0.0088 -0.0049
vt -0.0039 0.0088
vt -0.0088 0.0049
vt 0.0000 0.0049
vt 0.0000 -0.0049
vt 0.0000 -0.0049
vt 0.0000 0.0049
vt -0.0166 0.0068
vt -0.0166 -0.0068
vt -0.0264 0.0000
vt -0.0166 -0.0068
vt -0.0166 0.0068
vt 0.0088 0.0049
vt 0.0088 -0.0049
vt 0.0039 0.0088
vt 0.0088 -0.0049
vt 0.0039 -0.0088
vt 0.0039 -0.0088
vt 0.0088 0.0049
vt 0.0039 0.0088
vt 0.0000 -0.0049
vt 0.0000 0.0049
vt 0.0000 -0.0049
vt 0.0000 0.0049
vt 0.0264 0.0000
vt 0.0166 -0.0068
vt 0.0166 0.0068
vt 0.0166 -0.0068
vt 0.0166 0.0068
vt -0.0039 0.0088
vt -0.0088 -0.0049
vt -0.0088 0.0049
vt -0.0039 -0.0088
vt -0.0039 -0.0088
vt -0.0088 -0.0049
vt -0.0039 0.0088
vt -0.0088 0.0049
vt 0.0000 0.0049
vt 0.0000 -0.0049
vt 0.0000 -0.0049
vt 0.0000 0.0049
vt -0.0166 0.0068
vt -0.0166 -0.0068
vt -0.0264 0.0000
vt -0.0166 -0.0068
vt -0.0166 0.0068
vt 0.0400 0.0000
vt 0.0400 -0.0078
vt 0.0400 0.0000
vt -0.0400 0.0000
vt 0.0400 0.0078
vt 0.0400 0.0000
vt -0.0400 0.0000
vt 0.0400 0.0000
vt 0.0000 1.5703
vt -6.2500 0.0000
vt -3.5000 8.0020
vt -2.7344 0.0000
vt -6.5000 0.0000
vt -6.2500 0.0000
vt -8.5000 0.0000
vt -4.0000 0.0000
vt -8.2500 0.0000
vt 0.0273 0.2295
vt 0.0205 0.2227
vt 0.0000 0.0000
f 3/3 1/1 2/2
f 3/3 2/2 4/4
