mtllib assets10_model_049.mtl
# Conker's Bad Fur Day — Real 3D Model (Spooky Models)
o assets10_model_049
usemtl assets10_model_049_mat

v 0.0000 1.7600 0.0000
v 0.0000 2.4000 0.0000
v 0.0000 3.3600 0.0000
v 0.0000 3.7600 0.0000
v 0.0000 4.0800 0.0000
v 0.0000 4.5600 0.0000
v 0.0000 4.9600 0.0000
v 0.0000 5.6800 0.0000
v 0.0000 6.0000 0.0000
v 0.0000 6.3200 0.0000
v -5.4900 0.0000 1.0000
v 6.6700 0.0000 -2.6900
v 5.0600 0.0000 -1.0700
v 8.1900 0.0000 0.0800
v -0.4200 0.0000 5.7900
v -3.4400 0.0000 6.5900
v 3.9500 0.0000 4.8200
v 1.8600 5.2900 -13.9500
v 1.9800 5.2900 -13.9200
v -0.0600 10.2900 14.3000
v -12.6000 10.2900 7.4100
v -10.5200 10.2500 6.2900
v -5.3200 0.0000 0.6900
v 5.8400 0.0000 4.3200
v 3.9000 0.0000 2.4900
v -0.4500 0.0000 10.6700
v -7.6900 0.0400 -9.5600
v 3.4000 0.0400 -5.1900
v -0.9100 0.0600 8.4100
v 1.9200 5.2900 -17.2400
v -2.0600 5.7100 11.2700
v -1.2800 5.7100 9.6700
v 1.9900 5.7100 11.2400
v -2.0900 5.7100 11.2700
v 1.9700 5.2900 -13.7000
v -0.0400 5.7100 10.8500
v 3.9100 0.0000 2.9600
v 1.9700 5.2900 -13.7000
v 3.9100 0.0000 2.9600
v -0.0600 10.2900 14.3000
vt 0.0000 0.1875
vt 0.0000 0.2812
vt 0.0000 0.3516
vt 0.0000 0.3828
vt 0.0000 0.4219
vt 0.0000 0.4688
vt 0.0000 0.5391
vt 0.0000 0.5703
vt 0.0000 0.6016
vt 0.0000 0.6406
vt -0.5615 0.0000
vt 0.7090 0.0000
vt 0.5625 0.0000
vt 0.8945 0.0000
vt -0.0605 0.0000
vt -0.0742 0.0000
vt 0.1846 0.0000
vt 0.2070 0.5166
vt -0.0059 1.0049
vt 0.0000 0.9854
vt -1.2305 1.0049
vt -0.5801 0.0000
vt 0.5586 0.0000
vt 0.3545 0.0000
vt 0.3818 0.0000
vt -0.3057 0.0000
vt -0.1572 0.0039
vt -0.8496 0.0059
vt 0.3350 0.0059
vt 0.1211 0.5166
vt -0.2012 0.5576
vt 0.1055 0.5576
vt -0.2041 0.5576
vt 0.1924 0.5166
vt -0.0039 0.5576
vt 0.3818 0.0000
vt 0.1924 0.5166
vt 0.3818 0.0000
vt -0.0059 1.0049
vt 0.0000 1.0049
f 1/1 2/2 3/3
f 4/4 5/5 6/6
f 7/7 8/8 9/9
f 10/10 11/11 12/12
f 13/13 14/14 15/15
f 16/16 17/17 18/18
f 19/19 20/20 21/21
f 22/22 23/23 24/24
f 25/25 26/26 27/27
f 28/28 29/29 30/30
f 31/31 32/32 33/33
f 34/34 35/35 36/36
f 37/37 38/38 39/39
