# Conker's Bad Fur Day — Real 3D Model (Multiplayer Level Models)
o assets09_model_179

v 0.0000 0.3200 0.0000
v 0.0000 12.1600 0.0000
v 0.0000 0.0000 0.4100
v 0.4900 0.0000 -0.3400
v 0.0000 0.6000 -0.3400
v -0.4900 0.0000 -0.3400
v 0.0000 -0.6000 -0.3400
v 0.0000 0.0000 -1.5000
v 0.0000 0.8400 -4.4000
v 0.0000 -1.2000 -3.9500
v 0.0000 0.1600 -0.5100
v -4.7100 0.0000 -2.3000
v -4.7800 0.0000 0.3200
v -0.6500 0.0000 0.0300
v 0.3300 0.0000 -2.2800
v 4.7100 0.0000 -2.3000
v -0.3300 0.0000 -2.2800
v 0.6500 0.0000 0.0300
v 4.7800 0.0000 0.3200
v -0.2200 0.6800 -0.1500
v -0.6800 0.2600 -0.1500
v -0.2200 0.2600 0.2600
v 0.2400 0.2600 -0.1500
v -0.2200 -0.1700 -0.1500
v -0.6800 0.2600 -0.1500
v -0.2200 0.2600 -0.5700
v -0.2200 -0.1700 -0.1500
v 0.2400 0.2600 -0.1500
v -0.2200 0.6800 -0.1500
v 0.2200 0.6800 -0.1500
v 0.6800 0.2600 -0.1500
v 0.2200 0.2600 -0.5700
v -0.2400 0.2600 -0.1500
v 0.2200 -0.1700 -0.1500
v 0.6800 0.2600 -0.1500
v 0.2200 0.2600 0.2600
v 0.2200 -0.1700 -0.1500
v -0.2400 0.2600 -0.1500
v 0.2200 0.6800 -0.1500
v 0.0000 0.0000 0.4100
v 0.4900 0.0000 -0.3400
v 0.0000 0.6000 -0.3400
v -0.4900 0.0000 -0.3400
v 0.0000 -0.6000 -0.3400
v 0.0000 0.0000 -1.5000
v 0.0000 0.8400 -4.4000
v 0.0000 -1.2000 -3.9500
v 0.0000 0.1600 -0.5100
v -4.7100 0.0000 -2.3000
v -4.7800 0.0000 0.3200
v -0.6500 0.0000 0.0300
v 0.3300 0.0000 -2.2800
v 4.7100 0.0000 -2.3000
v -0.3300 0.0000 -2.2800
v 0.6500 0.0000 0.0300
v 4.7800 0.0000 0.3200
v -0.2200 0.6800 -0.1500
v -0.6800 0.2600 -0.1500
v -0.2200 0.2600 0.2600
v 0.2400 0.2600 -0.1500
v -0.2200 -0.1700 -0.1500
v -0.6800 0.2600 -0.1500
v -0.2200 0.2600 -0.5700
v -0.2200 -0.1700 -0.1500
v 0.2400 0.2600 -0.1500
v -0.2200 0.6800 -0.1500
v 0.2200 0.6800 -0.1500
v 0.6800 0.2600 -0.1500
v 0.2200 0.2600 -0.5700
v -0.2400 0.2600 -0.1500
v 0.2200 -0.1700 -0.1500
v 0.6800 0.2600 -0.1500
v 0.2200 0.2600 0.2600
v 0.2200 -0.1700 -0.1500
v -0.2400 0.2600 -0.1500
v 0.2200 0.6800 -0.1500
v -7.5200 0.0000 0.0000
v -33.2800 0.0000 19.1900
vt 0.0000 0.6094
vt 0.0000 1.2578
vt 8.0547 8.2354
vt 8.4355 8.1953
vt 8.4355 8.3848
vt 8.4355 8.1953
vt 8.4355 8.0156
vt 9.0654 8.2354
vt 10.0156 8.5156
vt 10.0156 7.8350
vt 8.6455 8.2852
vt 10.0156 8.4121
vt 10.0156 9.0156
vt 8.0156 9.0156
vt 8.0156 8.4053
vt 10.0156 8.4121
vt 8.0156 8.4053
vt 8.0156 9.0156
vt 10.0156 9.0156
vt 8.3467 8.3066
vt 8.2754 8.2490
vt 8.3477 8.2490
vt 8.4199 8.2490
vt 8.3486 8.1914
vt 9.2080 8.3027
vt 9.1680 8.3066
vt 9.1670 8.2578
vt 9.1279 8.3115
vt 9.1680 8.3564
vt 9.1680 8.3564
vt 9.2080 8.3027
vt 9.1680 8.3066
vt 9.1279 8.3115
vt 9.1670 8.2578
vt 8.2754 8.2490
vt 8.3477 8.2490
vt 8.3486 8.1914
vt 8.4199 8.2490
vt 8.3467 8.3066
vt 8.0547 8.2354
vt 8.4355 8.1953
vt 8.4355 8.3848
vt 8.4355 8.1953
vt 8.4355 8.0156
vt 9.0654 8.2354
vt 10.0156 8.5156
vt 10.0156 7.8350
vt 8.6455 8.2852
vt 10.0156 8.4121
vt 10.0156 9.0156
vt 8.0156 9.0156
vt 8.0156 8.4053
vt 10.0156 8.4121
vt 8.0156 8.4053
vt 8.0156 9.0156
vt 10.0156 9.0156
vt 8.3467 8.3066
vt 8.2754 8.2490
vt 8.3477 8.2490
vt 8.4199 8.2490
vt 8.3486 8.1914
vt 9.2080 8.3027
vt 9.1680 8.3066
vt 9.1670 8.2578
vt 9.1279 8.3115
vt 9.1680 8.3564
vt 9.1680 8.3564
vt 9.2080 8.3027
vt 9.1680 8.3066
vt 9.1279 8.3115
vt 9.1670 8.2578
vt 8.2754 8.2490
vt 8.3477 8.2490
vt 8.3486 8.1914
vt 8.4199 8.2490
vt 8.3467 8.3066
vt -2.7344 0.0000
vt -2.7344 8.0000
f 16/16 17/17 14/14
