# Conker's Bad Fur Day — Real 3D Model (Sloprano Models)
o assets0E_model_001

v 0.3200 2.5800 33.2800
v 20.4800 0.0000 0.0000
v 0.3200 2.5800 33.2800
v 20.4800 0.0000 0.0000
v 0.3200 2.5800 33.2800
v 20.4800 0.0000 0.0000
v 0.3200 2.5800 33.2800
v 20.4800 0.0000 0.0000
v 0.3200 2.5800 30.7200
v 0.3200 2.5800 33.2800
v 20.4800 0.0000 0.0000
v 0.3200 2.5800 33.2800
v 20.4800 0.0000 0.0000
v 0.3200 2.5800 33.2800
v 20.4800 0.0000 0.0000
v 0.3200 2.5800 33.2800
v 20.4800 0.0000 0.0000
v 20.4800 0.0000 0.0000
v 20.4800 0.0000 0.0000
v 20.4800 0.0000 0.0000
v 20.4800 0.0000 0.0000
v 20.4800 0.0000 0.0000
v 20.4800 0.0000 0.0000
v 20.4800 0.0000 0.0000
v 20.4800 0.0000 0.0000
v 20.4800 0.0000 0.0000
v 20.4800 0.0000 0.0000
v 20.4800 0.0000 0.0000
v 20.4800 0.0000 0.0000
vt 0.0000 -1.4736
vt 0.0000 0.0967
vt 0.0000 -0.9609
vt 0.0000 0.0967
vt 0.0000 -0.4219
vt 0.0000 0.0967
vt 0.0000 -0.4121
vt 0.0000 0.0967
vt 0.0449 -2.2852
vt 0.0000 -1.4229
vt 0.0000 0.0967
vt 0.0000 -1.0918
vt 0.0000 0.0967
vt 0.0000 -0.4814
vt 0.0000 0.0967
vt 0.0000 -0.4648
vt 0.0000 0.0967
vt 0.0000 0.0967
vt 0.0000 -31.9033
vt 0.0000 -31.9033
vt 0.0000 -31.9033
vt 0.2500 -31.4043
vt 0.2500 -31.4043
vt 0.2500 -31.4043
vt 0.0000 0.0967
vt 0.0000 -31.9033
vt 0.2500 -31.4043
vt 0.2500 -31.4043
vt 0.0000 0.0967
f 1/1 1/1 5/5
