# Conker's Bad Fur Day — Real 3D Model (Multiplayer Level Models)
o assets09_model_075

v 0.0000 4.7200 0.0000
v 2.6100 20.4300 -2.5800
v 2.6100 13.1600 -2.5800
v 0.7000 20.4300 -2.5800
v 0.7000 13.1600 -2.5800
v 2.6100 13.1600 -2.5800
v 2.6100 20.4300 -2.5800
v 4.5300 20.4300 -2.5800
v 4.5300 13.1600 -2.5800
v 1.5500 16.5000 -2.5800
v 0.7300 14.6200 -2.5800
v 3.0300 15.3400 -2.5800
v 2.2200 13.4700 -2.5800
v 0.7000 13.1600 -2.5800
v 2.6100 13.1600 -2.5800
v 1.6700 11.1700 -2.5800
v 2.6100 11.1700 -2.5800
v 2.6100 11.1700 -2.5800
v 2.6100 13.1600 -2.5800
v 4.5300 13.1600 -2.5800
v 3.5600 11.1700 -2.5800
v 2.6100 0.1500 -2.5800
v 1.6700 0.1500 -2.5800
v 2.6100 11.1700 -2.5800
v 1.6700 11.1700 -2.5800
v 2.6100 11.1700 -2.5800
v 2.6100 0.1500 -2.5800
v 3.5600 0.1500 -2.5800
v 3.5600 11.1700 -2.5800
v -28.0000 0.0000 17.9200
v -33.2800 0.0000 18.2300
v -28.1600 2.5600 15.3600
v -7.5200 0.0000 0.6400
vt 0.0000 0.0000
vt -0.0020 -0.0107
vt -0.0137 -0.0225
vt -0.0137 -0.0225
vt -0.0020 -0.0352
vt -0.0020 -0.0352
vt 0.0107 -0.0225
vt 0.0107 -0.0225
vt -0.0020 -0.0107
vt -0.0137 -0.0225
vt 0.0107 -0.0225
vt -0.0020 -0.0352
vt -0.0137 -0.0225
vt -0.0020 -0.0107
vt -0.0078 -0.0225
vt -0.0020 -0.0166
vt -0.0020 -0.0293
vt -0.0020 -0.0352
vt 0.0107 -0.0225
vt 0.0049 -0.0225
vt -0.0020 -0.0166
vt -0.0078 -0.0225
vt -0.0020 -0.0166
vt -0.0078 -0.0225
vt -0.0020 -0.0293
vt -0.0020 -0.0293
vt 0.0049 -0.0225
vt 0.0049 -0.0225
vt 0.0000 0.4688
vt -6.5000 0.0000
vt -6.2500 0.0000
vt -6.5000 0.0000
vt -4.0000 0.0000
f 9/9 10/10 11/11
f 10/10 12/12 11/11
f 2/2 1/1 7/7
f 6/6 2/2 7/7
