# Conker's Bad Fur Day — Real 3D Model (Multiplayer Level Models)
o assets09_model_014

v 0.0000 9.5200 0.0000
v 6.6800 2.9200 -2.5800
v 6.2100 3.9500 -2.5800
v 10.1400 3.5000 -2.5800
v 6.2100 3.9500 -2.5800
v 10.1900 4.2300 -2.5800
v 10.1400 3.5000 -2.5800
v 6.2100 3.9500 -2.5800
v 6.0000 5.0100 -2.5800
v 10.1900 4.2300 -2.5800
v 6.0000 5.0100 -2.5800
v 10.1800 4.9500 -2.5800
v 10.1900 4.2300 -2.5800
v 6.0000 5.0100 -2.5800
v 6.4700 3.9800 -2.5800
v 10.1800 4.9500 -2.5800
v 6.4700 3.9800 -2.5800
v 10.1400 4.2200 -2.5800
v 10.1800 4.9500 -2.5800
v 6.4700 3.9800 -2.5800
v 6.6800 2.9200 -2.5800
v 10.1400 4.2200 -2.5800
v 6.6800 2.9200 -2.5800
v 10.1400 3.5000 -2.5800
v 10.1400 4.2200 -2.5800
v 1.3300 3.6500 -2.5800
v 1.8300 2.8500 -2.5800
v 6.0000 5.0100 -2.5800
v 6.4700 3.9800 -2.5800
v 1.5300 2.8200 -2.5800
v 6.2100 3.9500 -2.5800
v 2.6700 1.7900 -2.5800
v 6.4700 3.9800 -2.5800
v 2.7200 1.6500 -2.5800
v 6.6800 2.9200 -2.5800
v 3.0000 0.8500 -2.5800
v 1.8300 2.8500 -2.5800
v 2.6700 1.7900 -2.5800
v 6.2100 3.9500 -2.5800
v 0.4100 3.3800 -2.5800
v 1.1100 2.6700 -2.5800
v 1.3300 3.6500 -2.5800
v 1.8300 2.8500 -2.5800
v 1.9800 1.1900 -2.5800
v 2.7200 1.6500 -2.5800
v 2.2500 0.4300 -2.5800
v 3.0000 0.8500 -2.5800
v 2.6700 1.7900 -2.5800
v 1.6300 1.1500 -2.5800
v 0.7600 2.6300 -2.5800
v 1.5300 2.8200 -2.5800
v 0.7600 2.6300 -2.5800
v 1.6300 1.1500 -2.5800
v 1.1100 2.6700 -2.5800
v 0.4100 3.3800 -2.5800
v 0.7600 2.6300 -2.5800
v 1.1100 2.6700 -2.5800
v 2.2500 0.4300 -2.5800
v 1.9800 1.1900 -2.5800
v -28.0000 0.0000 17.9200
v -33.2800 0.0000 18.0700
v -28.1600 2.5600 15.3600
v -7.5200 0.0000 0.6400
v 12.9000 30.7600 0.0000
vt 0.0000 0.0000
vt 0.0156 0.0391
vt 0.0078 0.0322
vt 0.0156 0.0391
vt 0.0068 0.0381
vt 0.0078 0.0322
vt 0.0156 0.0391
vt 0.0244 0.0410
vt 0.0068 0.0381
vt 0.0244 0.0410
vt 0.0117 0.0400
vt 0.0068 0.0381
vt 0.0244 0.0410
vt 0.0244 0.0332
vt 0.0117 0.0400
vt 0.0244 0.0332
vt 0.0127 0.0342
vt 0.0117 0.0400
vt 0.0244 0.0332
vt 0.0166 0.0303
vt 0.0127 0.0342
vt 0.0166 0.0303
vt 0.0078 0.0322
vt 0.0127 0.0342
vt 0.0371 0.0332
vt 0.0400 0.0264
vt 0.0244 0.0410
vt 0.0244 0.0332
vt 0.0283 0.0332
vt 0.0156 0.0391
vt 0.0215 0.0283
vt 0.0244 0.0332
vt 0.0332 0.0195
vt 0.0166 0.0303
vt 0.0244 0.0195
vt 0.0400 0.0264
vt 0.0215 0.0283
vt 0.0156 0.0391
vt 0.0400 0.0322
vt 0.0420 0.0244
vt 0.0371 0.0332
vt 0.0400 0.0264
vt 0.0352 0.0176
vt 0.0332 0.0195
vt 0.0254 0.0176
vt 0.0244 0.0195
vt 0.0215 0.0283
vt 0.0234 0.0244
vt 0.0303 0.0322
vt 0.0283 0.0332
vt 0.0303 0.0322
vt 0.0234 0.0244
vt 0.0420 0.0244
vt 0.0400 0.0322
vt 0.0303 0.0322
vt 0.0420 0.0244
vt 0.0254 0.0176
vt 0.0352 0.0176
vt 0.0000 0.9375
vt -6.5000 0.0000
vt -6.2500 0.0000
vt -6.5000 0.0000
vt -4.0000 0.0000
vt -8.9453 0.0137
f 29/29 30/30 31/31
f 6/6 7/7 3/3
