# Conker's Bad Fur Day — Real 3D Model (Multiplayer Level Models)
o assets09_model_133

v 0.0000 11.2800 0.0000
v 1.9900 5.1700 -0.0100
v 3.5800 2.4300 -0.0100
v 3.8200 3.8200 -0.0100
v 3.8000 6.4600 -0.0100
v 3.5300 7.9000 -0.0100
v 5.1200 5.1200 -0.0100
v 6.4200 6.4500 -0.0100
v 6.6600 7.8800 -0.0100
v 8.2400 5.1300 -0.0100
v 6.4400 3.8000 -0.0100
v 6.7000 2.4100 -0.0100
v -0.0100 5.2100 -0.0100
v 2.5200 9.6900 -0.0100
v 7.6500 9.6500 -0.0100
v 10.2500 5.1400 -0.0100
v 7.6500 9.6500 -0.0100
v 10.2500 5.1400 -0.0100
v 7.7200 0.6800 -0.0100
v 2.5900 0.7100 -0.0100
v 7.7200 0.6800 -0.0100
v 2.5900 0.7100 -0.0100
v 5.4900 3.4000 -0.0100
v 10.2200 3.5800 -0.0100
v 5.4800 0.0700 -0.0100
v 10.2100 0.2600 -0.0100
v 10.2100 0.2600 -0.0100
v 10.2200 3.5800 -0.0100
v 5.4800 0.0700 -0.0100
v 5.4900 3.4000 -0.0100
v 5.4900 6.7300 -0.0100
v 10.2300 6.9100 -0.0100
v 10.2300 6.9100 -0.0100
v 5.4900 6.7300 -0.0100
v 5.5000 10.0600 -0.0100
v 10.2400 10.2400 -0.0100
v 10.2400 10.2400 -0.0100
v 5.5000 10.0600 -0.0100
v 0.3000 4.4200 -0.0100
v 5.5800 4.3600 -0.0100
v 5.5000 4.3600 -0.0100
v 0.3200 4.4000 -0.0100
v 0.3000 -0.0500 -0.0100
v 5.4800 -0.0900 -0.0100
v 0.3000 -0.0500 -0.0100
v 5.5000 4.3600 -0.0100
v 5.4800 -0.0900 -0.0100
v 0.3200 4.4000 -0.0100
v 0.3000 4.4200 -0.0100
v 5.5800 4.3600 -0.0100
v 0.4200 7.2600 -0.0100
v 5.7000 7.2000 -0.0100
v 5.7000 7.2000 -0.0100
v 0.4200 7.2600 -0.0100
v 5.8200 10.0400 -0.0100
v 0.5400 10.0900 -0.0100
v 5.8200 10.0400 -0.0100
v 0.5400 10.0900 -0.0100
v -4.8600 -0.5300 -0.0100
v 9.2500 4.9600 -0.0100
v -3.7300 4.9300 -0.0100
v 10.3700 -0.5000 -0.0100
v -28.0000 0.0000 17.9200
v -33.2800 0.0000 18.2300
v -28.1600 2.5600 15.3600
v -7.5200 0.0000 0.6400
v -7.4400 0.0000 0.0000
v -7.4400 0.0000 0.0000
v -33.2800 0.0000 18.0700
v -27.9200 20.4800 0.0900
v 15.3600 5.1600 0.0000
vt 0.0000 1.1055
vt -0.0195 0.0195
vt -0.0215 0.0352
vt -0.0215 0.0225
vt -0.0195 -0.0029
vt 0.0000 0.0352
vt 0.0215 0.0225
vt 0.0195 -0.0029
vt 0.0400 0.0098
vt 0.0215 0.0352
vt 0.0195 0.0195
vt -0.0469 -0.0166
vt -0.0234 -0.0342
vt 0.0234 -0.0342
vt 0.0469 -0.0166
vt 0.0234 -0.0342
vt 0.0469 -0.0166
vt 0.0234 -0.0049
vt -0.0234 -0.0049
vt 0.0234 -0.0049
vt -0.0234 -0.0049
vt 0.0000 0.0020
vt 0.0000 -0.0020
vt -0.0068 -0.0098
vt -0.0078 -0.0137
vt -0.0078 -0.0137
vt 0.0000 -0.0020
vt -0.0068 -0.0098
vt 0.0000 0.0020
vt 0.0000 0.0020
vt 0.0000 -0.0020
vt 0.0000 -0.0020
vt 0.0000 0.0020
vt 0.0000 0.0020
vt 0.0000 -0.0020
vt 0.0000 -0.0020
vt 0.0000 0.0020
vt 0.0000 0.0020
vt 0.0000 -0.0020
vt 0.0000 -0.0020
vt 0.0000 0.0020
vt 0.0068 -0.0098
vt 0.0078 -0.0137
vt 0.0068 -0.0098
vt 0.0000 -0.0020
vt 0.0078 -0.0137
vt 0.0000 0.0020
vt 0.0000 0.0020
vt 0.0000 -0.0020
vt 0.0000 0.0020
vt 0.0000 -0.0020
vt 0.0000 -0.0020
vt 0.0000 0.0020
vt 0.0000 -0.0020
vt 0.0000 0.0020
vt 0.0000 -0.0020
vt 0.0000 0.0020
vt -0.0234 -0.0049
vt 0.0195 0.0195
vt -0.0195 0.0195
vt 0.0234 -0.0049
vt 0.0000 1.2344
vt -6.5000 0.0000
vt -6.2500 0.0000
vt -6.5000 0.0000
vt -4.0000 0.0000
vt -2.7266 0.0000
vt -6.5000 0.0000
vt -6.2500 0.0000
vt -3.5000 8.0020
vt -8.2500 0.0000
f 1/1 2/2 3/3
f 1/1 4/4 2/2
