# Conker's Bad Fur Day — Real 3D Model (HUD & UI Props)
o assets01_model_039

v 0.0000 9.8800 0.0000
v 0.0000 14.6400 0.0000
v 5.2900 4.7300 -2.5800
v 8.0400 4.7100 -2.5800
v 6.0700 6.9500 -2.5800
v 9.9800 4.7000 -2.5800
v 8.7100 7.0400 -2.5800
v 6.6100 8.6900 -2.5800
v 10.2700 3.2300 -2.5800
v 9.7800 6.1100 -2.5800
v 3.2900 6.1400 -2.5800
v 4.0000 8.7000 -2.5800
v 1.8900 7.0800 -2.5800
v 8.0800 8.5000 -2.5800
v 5.3100 9.4600 -2.5800
v 3.0500 3.2700 -2.5800
v 0.6000 4.7500 -2.5800
v 1.4900 2.2400 -2.5800
v 2.5300 8.5300 -2.5800
v 0.8100 6.1600 -2.5800
v 6.1300 2.3400 -2.5800
v 3.8200 0.6800 -2.5800
v 6.7200 0.6700 -2.5800
v 0.3000 3.2800 -2.5800
v 2.1900 0.8900 -2.5800
v 9.0700 2.2000 -2.5800
v 8.3500 0.8600 -2.5800
v 9.0700 2.2000 -2.5800
v 9.9800 4.7000 -2.5800
v 8.7100 7.0400 -2.5800
v 6.6100 8.6900 -2.5800
v 4.0000 8.7000 -2.5800
v 1.8900 7.0800 -2.5800
v 0.8100 6.1600 -2.5800
v 1.8900 7.0800 -2.5800
v 0.6000 4.7500 -2.5800
v 0.3000 3.2800 -2.5800
v 1.4900 2.2400 -2.5800
v 2.1900 0.8900 -2.5800
v 3.8200 0.6800 -2.5800
v 6.7200 0.6700 -2.5800
v 8.3500 0.8600 -2.5800
v 9.0700 2.2000 -2.5800
v 5.2900 4.7300 -2.5800
v 2.5300 4.7400 -2.5800
v 4.5300 6.9600 -2.5800
v 4.0000 8.7000 -2.5800
v 7.3000 6.1200 -2.5800
v 6.6100 8.6900 -2.5800
v 8.7100 7.0400 -2.5800
v 2.5300 8.5300 -2.5800
v 5.3100 9.4600 -2.5800
v 7.5100 3.2400 -2.5800
v 9.9800 4.7000 -2.5800
v 8.0800 8.5000 -2.5800
v 9.7800 6.1100 -2.5800
v 4.4300 2.3500 -2.5800
v 10.2700 3.2300 -2.5800
v 0.0000 37.2500 0.3200
v 0.3200 0.3200 0.0000
v -28.0800 20.4800 0.0900
v -7.5200 0.0000 0.0000
v 2.5800 0.6400 2.5600
v -7.5200 0.0000 0.0000
v -33.2800 0.0000 18.2300
vt 0.0000 0.9961
vt 0.0000 0.0000
vt 0.0938 0.1348
vt 0.0225 0.2119
vt 0.1484 0.1406
vt 0.1016 0.2148
vt 0.0332 0.2500
vt 0.1660 0.0967
vt 0.1406 0.1904
vt -0.0596 0.1904
vt -0.0332 0.2500
vt -0.1016 0.2148
vt 0.0703 0.2441
vt 0.0000 0.2676
vt -0.0742 0.0967
vt -0.1484 0.1406
vt -0.1328 0.0664
vt -0.0703 0.2441
vt -0.1406 0.1904
vt 0.0293 0.0703
vt -0.0527 0.0215
vt 0.0527 0.0215
vt -0.1660 0.0967
vt -0.1123 0.0273
vt 0.1328 0.0664
vt 0.0000 0.0000
vt 0.1328 0.0664
vt 0.1484 0.1406
vt 0.1016 0.2148
vt 0.0332 0.2500
vt -0.0332 0.2500
vt -0.1016 0.2148
vt -0.1406 0.1904
vt -0.1016 0.2148
vt -0.1484 0.1406
vt -0.1660 0.0967
vt -0.1328 0.0664
vt -0.1123 0.0273
vt -0.0527 0.0215
vt 0.0000 0.0000
vt 0.1123 0.0273
vt 0.1328 0.0664
vt 0.0000 0.1406
vt -0.0850 0.1406
vt -0.0225 0.2119
vt -0.0332 0.2500
vt 0.0664 0.1904
vt 0.0332 0.2500
vt 0.1016 0.2148
vt -0.0703 0.2441
vt 0.0000 0.2676
vt 0.0742 0.0967
vt 0.1484 0.1406
vt 0.0703 0.2441
vt 0.1406 0.1904
vt -0.0293 0.0703
vt 0.1660 0.0967
vt 0.0000 1.0234
vt 0.0000 3.6309
vt -6.2500 0.0000
vt -3.5000 8.0020
vt -2.7344 0.0000
vt 4.2656 -30.8730
vt -6.5000 0.0000
vt -6.2500 0.0000
f 1/1 2/2 3/3
f 4/4 5/5 6/6
f 7/7 8/8 9/9
f 10/10 11/11 12/12
f 13/13 14/14 15/15
f 16/16 17/17 18/18
f 19/19 20/20 21/21
f 22/22 23/23 24/24
f 25/25 26/26 27/27
f 28/28 29/29 30/30
f 31/31 32/32 33/33
f 34/34 35/35 36/36
f 37/37 38/38 39/39
f 40/40 41/41 42/42
f 43/43 44/44 45/45
f 46/46 47/47 48/48
f 49/49 50/50 51/51
f 52/52 53/53 54/54
f 55/55 56/56 57/57
f 58/58 59/59 60/60
f 61/61 62/62 63/63
