# Conker's Bad Fur Day — Real 3D Model (Spooky Models)
o assets10_model_050

v 0.0000 1.3600 0.0000
v 0.0000 1.6800 0.0000
v 0.0000 2.0800 0.0000
v 0.0000 2.4800 0.0000
v 0.0000 2.8000 0.0000
v 0.0000 3.1200 0.0000
v 0.0000 3.4400 0.0000
v 0.0000 3.7600 0.0000
v 0.0000 4.0800 0.0000
v -16.0000 -6.0100 28.6300
v 22.1200 7.9400 -33.6400
vt 0.0000 0.1484
vt 0.0000 0.1797
vt 0.0000 0.2266
vt 0.0000 0.2578
vt 0.0000 0.2891
vt 0.0000 0.3203
vt 0.0000 0.3516
vt 0.0000 0.3828
vt 2.2490 0.1016
vt -7.6172 -0.5869
vt 2.1133 0.7754
f 1/1 2/2 3/3
f 4/4 5/5 6/6
f 7/7 8/8 9/9
