mtllib assets0E_model_050.mtl
# Conker's Bad Fur Day — Real 3D Model (Sloprano Models)
o assets0E_model_050
usemtl assets0E_model_050_mat

v 20.4800 0.0000 0.0000
v 20.4800 0.0000 0.0000
v 20.4800 0.0000 0.0000
v 20.4800 0.0000 0.0000
v 20.4800 0.0000 0.0000
v 20.4800 0.0000 0.0000
v 20.4800 0.0000 0.0000
v 20.4800 0.0000 0.0000
v 20.4800 0.0000 0.0000
v 20.4800 0.0000 0.0000
v 20.4800 0.0000 0.0000
v 20.4800 0.0000 0.0000
v 20.4800 0.0000 0.0000
v 20.4800 0.0000 0.0000
v 20.4800 0.0000 0.0000
v 20.4800 0.0000 0.0000
vt 0.3750 0.0654
vt 0.3750 0.0654
vt 0.2500 -15.4346
vt 0.2500 -15.4346
vt 0.3750 0.0654
vt 0.3750 0.0654
vt 0.3750 0.0654
vt 0.3750 0.0654
vt 0.3750 0.0654
vt 0.3750 0.0654
vt 0.3750 0.0654
vt 0.3750 0.0654
vt 0.3750 0.0654
vt 0.3750 0.0654
vt 0.4062 -31.9346
vt 0.4062 -31.9346
f 1/1 2/2 3/3
f 4/4 5/5 6/6
f 7/7 8/8 9/9
f 10/10 11/11 12/12
f 13/13 14/14 15/15
