# Conker's Bad Fur Day — Real 3D Model (Sloprano Models)
o assets0E_model_054

v 20.4800 0.0000 0.0000
v 20.4800 0.0000 0.0000
v 20.4800 0.0000 0.0000
v 20.4800 0.0000 0.0000
v 20.4800 0.0000 0.0000
v 20.4800 0.0000 0.0000
v 20.4800 0.0000 0.0000
v 20.4800 0.0000 0.0000
v 20.4800 0.0000 0.0000
v 20.4800 0.0000 0.0000
v 20.4800 0.0000 0.0000
v 20.4800 0.0000 0.0000
vt 0.0312 0.0654
vt 0.0312 0.0654
vt 0.0312 0.0654
vt 0.0312 0.0654
vt 0.0312 0.0654
vt 0.0312 0.0654
vt 0.0312 0.0654
vt 0.0312 0.0654
vt 0.0312 0.0654
vt 0.0312 0.0654
vt 0.0312 0.0654
vt 0.0312 0.0654
f 1/1 1/1 1/1
