mtllib assets0E_model_029.mtl
# Conker's Bad Fur Day — Real 3D Model (Sloprano Models)
o assets0E_model_029
usemtl assets0E_model_029_mat

v 20.4800 0.0000 0.0000
v 20.4800 0.0000 0.0000
v 20.4800 0.0000 0.0000
v 20.4800 0.0000 0.0000
v 20.4800 0.0000 0.0000
v 0.0000 2.5800 0.0000
v 0.0000 2.5800 0.0000
v 0.0000 2.5800 0.0000
v 0.0000 2.5800 0.0000
v 20.4800 0.0000 0.0000
v 20.4800 0.0000 0.0000
v 20.4800 0.0000 0.0000
v 20.4800 0.0000 0.0000
v 20.4800 0.0000 0.0000
v 20.4800 0.0000 0.0000
v 20.4800 0.0000 0.0000
v 20.4800 0.0000 0.0000
v 20.4800 0.0000 0.0000
v 20.4800 0.0000 0.0000
v 20.4800 0.0000 0.0000
v 20.4800 0.0000 0.0000
v 20.4800 0.0000 0.0000
v 20.4800 0.0000 0.0000
v 20.4800 0.0000 0.0000
v 20.4800 0.0000 0.0000
vt 0.1250 -31.4346
vt 0.1250 -31.4346
vt 0.0000 0.0654
vt 0.0000 0.0654
vt 0.0000 0.0654
vt 0.0381 -2.5293
vt 0.0381 -2.5127
vt 0.0381 -2.4980
vt 0.0381 -2.4834
vt 0.1250 -31.4346
vt 0.1250 -31.4346
vt 0.1250 -31.4346
vt 0.1250 -31.4346
vt 0.1250 -31.4346
vt 0.1250 -31.4346
vt 0.1250 -31.4346
vt 0.1250 -31.4346
vt 0.1250 -31.4346
vt 0.1250 -31.4346
vt 0.1250 -31.4346
vt 0.0000 -31.4346
vt 0.0000 -31.4346
vt 0.0000 -31.4346
vt 0.0000 -31.4346
vt 0.0000 -31.4346
f 1/1 2/2 3/3
f 4/4 5/5 6/6
f 7/7 8/8 9/9
f 10/10 11/11 12/12
f 13/13 14/14 15/15
f 16/16 17/17 18/18
f 19/19 20/20 21/21
f 22/22 23/23 24/24
