mtllib assets09_model_086.mtl
# Conker's Bad Fur Day — Real 3D Model (Multiplayer Level Models)
o assets09_model_086
usemtl assets09_model_086_mat

v 0.0000 5.0400 0.0000
v 0.8400 8.7600 -0.0100
v -0.3000 6.0600 -0.0100
v 5.2100 7.0300 -0.0100
v 5.2000 9.9100 -0.0100
v -0.6400 2.9300 -0.0100
v 3.1400 0.8800 -0.0100
v 5.2200 3.3200 -0.0100
v 0.9300 4.6900 -0.0100
v 2.4000 6.5000 -0.0100
v 5.2300 1.0900 -0.0100
v 2.2900 2.0100 -0.0100
v 9.5700 8.9100 -0.0100
v 10.7300 6.2500 -0.0100
v 7.3200 0.9500 -0.0100
v 11.0900 3.1200 -0.0100
v 9.5100 4.8300 -0.0100
v 8.0300 6.5900 -0.0100
v 8.1600 2.1100 -0.0100
v 5.1200 5.1200 -2.5800
v 0.0000 0.0000 -2.5800
v 0.0000 10.2400 -2.5800
v 10.2400 0.0000 -2.5800
v 10.2400 10.2400 -2.5800
v 5.1200 5.1200 -2.5800
v 4.6200 8.1600 -2.5800
v 0.9300 0.8700 -2.5800
v 8.8800 1.2400 -2.5800
v 8.8800 1.2400 -2.5800
v 0.9300 0.8700 -2.5800
v 4.6200 8.1600 -2.5800
v -28.0000 0.0000 17.9200
v -33.2800 0.0000 18.2300
v -28.1600 2.5600 15.3600
v -7.5200 0.0000 0.6400
vt 0.0000 0.0000
vt -0.0322 0.0410
vt 0.0000 0.0381
vt 0.0000 0.0479
vt -0.0332 0.0332
vt -0.0127 0.0244
vt 0.0000 0.0293
vt -0.0264 0.0400
vt -0.0225 0.0459
vt 0.0000 0.0371
vt -0.0273 0.0371
vt 0.0225 0.0479
vt 0.0322 0.0410
vt 0.0127 0.0244
vt 0.0322 0.0332
vt 0.0264 0.0400
vt 0.0225 0.0459
vt 0.0273 0.0371
vt 0.0000 0.0332
vt 0.0000 0.0439
vt -0.0088 0.0361
vt 0.0088 0.0361
vt 0.0000 0.0283
vt 0.0000 0.0391
vt 0.0000 0.0371
vt -0.0039 0.0166
vt -0.0068 0.0166
vt 0.0059 0.0176
vt 0.0039 0.0205
vt 0.0000 0.0371
vt 0.0000 0.5000
vt -6.5000 0.0000
vt -6.2500 0.0000
vt -6.5000 0.0000
vt -4.0000 0.0000
f 16/16 18/18 10/10
f 16/16 15/15 18/18
f 25/25 26/26 27/27
f 28/28 29/29 30/30
