mtllib assets09_model_063.mtl
# Conker's Bad Fur Day — Real 3D Model (Multiplayer Level Models)
o assets09_model_063
usemtl assets09_model_063_mat

v 0.0000 5.0400 0.0000
v 5.0100 10.4600 -2.5800
v 5.0700 3.5000 -2.5800
v 2.4000 10.4600 -2.5800
v 2.4600 3.5000 -2.5800
v 5.0700 3.5000 -2.5800
v 5.0100 10.4600 -2.5800
v 7.6100 10.4600 -2.5800
v 7.6700 3.5000 -2.5800
v 4.9800 13.2100 -2.5800
v 1.0800 13.2100 -2.5800
v 1.0400 17.6800 -2.5800
v 4.9800 13.2100 -2.5800
v 4.9500 17.6800 -2.5800
v 8.8500 17.6800 -2.5800
v 8.8900 13.2100 -2.5800
v 4.9500 17.6800 -2.5800
v 4.9200 20.2900 -2.5800
v 4.9500 17.6800 -2.5800
v 4.9800 13.2100 -2.5800
v 1.0400 17.6800 -2.5800
v 8.8900 13.2100 -2.5800
v 7.6100 10.4600 -2.5800
v 5.0100 10.4600 -2.5800
v 5.0100 10.4600 -2.5800
v 4.9800 13.2100 -2.5800
v 1.0800 13.2100 -2.5800
v 2.4000 10.4600 -2.5800
v 8.8500 17.6800 -2.5800
v 4.9200 20.2900 -2.5800
v 4.9500 17.6800 -2.5800
v -28.0000 0.0000 17.9200
v -33.2800 0.0000 18.5500
v -28.1600 2.5600 15.3600
v -7.5200 0.0000 0.6400
vt 0.0000 0.0000
vt 0.0322 0.0420
vt -0.0322 0.0156
vt 0.0322 0.0156
vt 0.0322 0.0420
vt -0.0322 0.0420
vt -0.0322 0.0684
vt 0.0322 0.0684
vt -0.0576 0.0420
vt -0.0576 0.0029
vt -0.0986 0.0029
vt -0.0576 0.0420
vt -0.0986 0.0420
vt -0.0986 0.0811
vt -0.0576 0.0811
vt -0.0986 0.0420
vt -0.1230 0.0420
vt 0.0986 0.0420
vt 0.0576 0.0420
vt 0.0986 0.0811
vt 0.0576 0.0029
vt 0.0322 0.0156
vt 0.0322 0.0420
vt 0.0322 0.0420
vt 0.0576 0.0420
vt 0.0576 0.0811
vt 0.0322 0.0684
vt 0.0986 0.0029
vt 0.1230 0.0420
vt 0.0986 0.0420
vt 0.0000 0.5000
vt -6.5000 0.0000
vt -6.2500 0.0000
vt -6.5000 0.0000
vt -4.0000 0.0000
f 1/1 2/2 3/3
f 4/4 5/5 6/6
f 7/7 8/8 9/9
f 10/10 11/11 12/12
f 13/13 14/14 15/15
f 16/16 17/17 18/18
f 19/19 20/20 21/21
f 22/22 23/23 24/24
f 25/25 26/26 27/27
f 28/28 29/29 30/30
f 31/31 32/32 33/33
