mtllib assets09_model_158.mtl
# Conker's Bad Fur Day — Real 3D Model (Multiplayer Level Models)
o assets09_model_158
usemtl assets09_model_158_mat

v 0.0000 8.0800 0.0000
v 0.8600 5.0900 -0.0100
v 2.8000 5.5300 -0.0100
v 4.7500 5.0700 -0.0100
v 2.8000 5.5300 -0.0100
v 0.2400 4.0600 -0.0100
v 2.2100 3.7400 -0.0100
v 0.2500 5.0400 -0.0100
v 2.2300 5.0200 -0.0100
v 2.1800 2.4600 -0.0100
v 4.1900 2.4500 -0.0100
v 4.2400 5.0100 -0.0100
v 0.2100 2.4700 -0.0100
v 0.2300 3.4600 -0.0100
v 2.2100 3.7400 -0.0100
v 2.2300 5.0200 -0.0100
v 2.1800 2.4600 -0.0100
v 0.2900 1.8700 -0.0100
v 1.5300 1.0200 -0.0100
v 3.0400 1.7100 -0.0100
v 1.8100 2.5800 -0.0100
v 1.1000 2.4200 -0.0100
v 1.4100 1.7300 -0.0100
v 2.5100 2.1500 -0.0100
v 2.2000 2.8600 -0.0100
v 10.2400 10.2400 -0.0100
v 0.0000 0.0000 -0.0100
v 10.2400 0.0000 -0.0100
v 0.0000 10.2400 -0.0100
v 0.0000 5.1200 -0.0100
v 5.1200 0.0000 -0.0100
v 5.1200 5.1200 -0.0100
v 0.0000 0.0000 -0.0100
v 0.0000 5.1200 -0.0100
v 5.1200 5.1200 -0.0100
v 5.1200 0.0000 -0.0100
v 0.0000 5.1200 -0.0100
v 0.0000 0.0000 -0.0100
v 10.2400 10.2400 -0.0100
v 0.0000 10.2400 -0.0100
v 0.0000 0.0000 -0.0100
v 10.2400 0.0000 -0.0100
v -28.0000 0.0000 17.9200
v -33.2800 0.0000 17.9900
v -28.1600 2.5600 15.3600
v -7.5200 0.0000 0.6400
v -7.5200 0.0000 0.6400
v 15.3600 5.1600 0.0200
v -7.5200 0.0000 0.0000
v -33.2800 0.0000 17.9900
v -28.0800 10.2400 0.0900
v -7.5200 0.0000 0.6400
vt 0.0000 0.7930
vt -0.0049 0.0000
vt 0.0000 0.0000
vt 0.0000 0.0527
vt 0.0000 0.0000
vt 0.0000 0.0527
vt -0.0195 0.0479
vt -0.0195 0.0527
vt 0.0195 0.0527
vt 0.0195 0.0566
vt -0.0195 0.0566
vt 0.0195 0.0479
vt 0.0049 0.0479
vt 0.0000 0.0527
vt -0.0195 0.0527
vt 0.0195 0.0527
vt -0.0195 0.0527
vt -0.0195 0.0479
vt -0.0195 0.0527
vt -0.0195 0.0566
vt 0.0195 0.0527
vt 0.0195 0.0479
vt 0.0195 0.0527
vt 0.0195 0.0566
vt 0.0215 0.0518
vt -0.0215 0.0000
vt 0.0215 0.0000
vt -0.0215 0.0518
vt -0.0215 0.0518
vt -0.0215 0.0000
vt -0.0215 0.0518
vt -0.0215 0.0000
vt -0.0215 0.0518
vt 0.0215 0.0518
vt 0.0215 0.0000
vt 0.0215 0.0518
vt 0.0215 0.0000
vt -0.0215 0.0000
vt -0.0215 0.0518
vt -0.0215 0.0518
vt 0.0215 0.0518
vt 0.0000 0.8281
vt -6.5000 0.0000
vt -6.2500 0.0000
vt -6.5000 0.0000
vt -4.0000 0.0000
vt -4.0000 0.0000
vt -6.2500 0.0000
vt -6.5000 0.0000
vt -6.2500 0.0000
vt -3.5000 8.0020
vt -4.0000 0.0000
f 25/25 26/26 27/27
f 25/25 27/27 28/28
f 1/1 2/2 3/3
f 2/2 1/1 4/4
f 18/18 19/19 20/20
f 18/18 20/20 21/21
