# Conker's Bad Fur Day — Real 3D Model (Multiplayer Level Models)
o assets09_model_121

v 0.0000 6.3200 0.0000
v 11.6900 2.9600 -0.0100
v 11.7500 0.9000 -0.0100
v 18.1400 0.6900 -0.0100
v 18.0900 2.7400 -0.0100
v 6.9700 5.5600 0.0000
v 12.2300 6.4500 -0.0100
v 11.8200 5.1700 0.0000
v 12.2300 6.4500 -0.0100
v 6.9700 5.5600 0.0000
v 11.8200 5.1700 0.0000
v 18.0900 2.7400 -0.0100
v 18.1400 0.6900 -0.0100
v 11.7500 0.9000 -0.0100
v 11.6900 2.9600 -0.0100
v -28.0000 0.0000 17.9200
v -33.2800 0.0000 19.1900
v -28.0800 20.4800 0.0100
vt 0.0000 0.0000
vt -0.0029 0.0312
vt 0.0029 0.0312
vt 0.0029 0.0342
vt 0.0312 0.0352
vt 0.0234 0.0410
vt 0.0254 0.0371
vt -0.0234 0.0410
vt -0.0312 0.0352
vt -0.0254 0.0371
vt 0.0029 0.0342
vt 0.0029 0.0312
vt -0.0029 0.0312
vt -0.0029 0.0342
vt -0.0234 0.0410
vt -6.5000 0.0000
vt -6.2500 0.0000
vt -3.5000 8.0020
f 1/1 2/2 3/3
f 4/4 5/5 6/6
f 7/7 8/8 9/9
f 10/10 11/11 12/12
f 13/13 14/14 15/15
f 16/16 17/17 18/18
