# Conker's Bad Fur Day — Real 3D Model (Multiplayer Level Models)
o assets09_model_094

v 0.0000 24.7200 0.0000
v 2.9800 9.4000 -0.0100
v 2.7100 9.2600 -0.0100
v 10.8500 0.8800 -0.0100
v 10.8800 6.6700 -0.0100
v 5.0100 9.4600 -0.0100
v -0.8800 6.7000 -0.0100
v -0.9000 0.9100 -0.0100
v 4.9400 1.7100 -0.0100
v 5.0100 9.4600 -0.0100
v 4.9400 1.7100 -0.0100
v -0.9000 0.9100 -0.0100
v 10.8500 0.8800 -0.0100
v -0.8800 6.7000 -0.0100
v 10.8800 6.6700 -0.0100
v 9.5100 1.0000 -38.5600
v 9.3600 8.7400 -0.0100
v 10.3700 7.6700 -0.0100
v 8.1400 0.3200 -38.5600
v 2.4100 13.3900 -0.0100
v 5.2200 12.9700 -0.0100
v 5.2200 12.9700 -0.0100
v 10.3700 7.6700 -0.0100
v 9.3600 8.7400 -0.0100
v 2.4100 13.3900 -0.0100
v 8.1400 0.3200 -38.5600
v 9.5100 1.0000 -38.5600
v 5.7600 17.5900 -0.0100
v 1.1100 19.0900 -0.0100
v 8.0100 10.6200 -0.0100
v 7.8100 20.3600 -0.0100
v 1.1100 19.0900 -0.0100
v 5.7600 17.5900 -0.0100
v 7.2900 12.6300 -0.0100
v 6.7500 8.1500 -0.0100
v 8.1200 7.6800 -0.0100
v 7.2900 12.6300 -38.5600
v 8.1200 7.6800 -0.0100
v 6.7500 8.3000 -0.0100
v 6.3600 5.4700 -0.0100
v 6.3600 5.4700 -0.0100
v 7.2700 16.6800 -38.5600
v 6.3600 5.4700 -0.0100
v 4.4300 5.3100 -0.0100
v 6.3600 5.4700 -0.0100
v 7.2900 12.6300 -38.5600
v 7.2700 16.6800 -0.0100
v 6.7500 8.3000 -0.0100
v 7.2900 12.6300 -0.0100
v 8.1200 7.6800 -0.0100
v 8.1200 7.6800 -0.0100
v 1.1900 11.2300 -38.5600
v 5.7400 17.5600 -38.5600
v 5.7400 17.5600 -0.0100
v 1.1900 11.2300 -0.0100
v 3.3200 5.9100 -0.0100
v 3.3200 5.9100 -38.5600
v 6.6100 7.7700 -0.0100
v 6.1500 6.6300 -0.0100
v 3.9400 5.8500 -0.0100
v 5.0100 8.6700 -0.0100
v 4.5700 8.6500 -0.0100
v 4.3800 7.3700 -0.0100
v 5.9100 9.3300 -0.0100
v 7.4000 11.1100 -0.0100
v 6.7200 12.3400 -0.0100
v 4.4600 10.6100 -0.0100
v 5.3400 9.8000 -0.0100
v 8.3300 9.9600 -0.0100
v 6.3100 11.9800 -0.0100
v 4.6000 12.2300 -0.0100
v 6.7200 12.3400 -0.0100
v 4.6000 12.2300 -0.0100
v 6.3100 11.9800 -0.0100
v 4.4600 10.6100 -0.0100
v 8.3300 9.9600 -0.0100
v 5.3400 9.8000 -0.0100
v 7.4000 11.1100 -0.0100
v 5.9100 9.3300 -0.0100
v 5.0100 8.6700 -0.0100
v 6.6100 7.7700 -0.0100
v 4.5700 8.6500 -0.0100
v 4.3800 7.3700 -0.0100
v 6.1500 6.6300 -0.0100
v 3.9400 5.8500 -0.0100
v 1.1900 11.2300 -38.5600
v 3.3200 5.9100 -38.5600
v 3.3200 5.9100 -0.0100
v 1.1900 11.2300 -0.0100
v 5.7400 17.5600 -38.5600
v 5.7400 17.5600 -0.0100
v 8.1200 7.6800 -0.0100
v 8.1200 7.6800 -0.0100
v 7.2900 12.6300 -0.0100
v 7.2700 16.6800 -0.0100
v 7.2900 12.6300 -38.5600
v 6.7500 8.3000 -0.0100
v 6.3600 5.4700 -0.0100
v 4.4300 5.3100 -0.0100
v 6.3600 5.4700 -0.0100
v 7.2700 16.6800 -38.5600
v 6.7500 8.1500 -0.0100
v 7.8100 20.3600 -0.0100
v 5.7600 17.5900 -0.0100
v 8.0100 10.6200 -0.0100
v 1.1100 19.0900 -0.0100
v 5.7600 17.5900 -0.0100
v 1.1100 19.0900 -0.0100
v -28.0000 0.0000 17.9200
v -33.2800 0.0000 18.0700
v -28.1600 2.5600 15.3600
v -7.5200 0.0000 0.6400
v -7.5200 0.0000 0.6400
v -7.5200 0.0000 0.0000
v -33.2800 0.0000 18.2300
v 2.5800 0.6400 2.5600
v -7.5200 0.0000 0.6400
v 2.5800 0.6400 2.5600
v 2.4100 2.0500 0.1500
v -10.6200 0.0400 17.6300
vt 0.0000 0.0000
vt -0.0166 0.0527
vt 0.0322 0.0225
vt 0.0283 0.0732
vt 0.0000 0.0840
vt -0.0283 0.0732
vt -0.0283 0.0498
vt 0.0000 0.0527
vt 0.0000 0.0840
vt 0.0000 0.0527
vt -0.0283 0.0498
vt 0.0283 0.0498
vt -0.0283 0.0732
vt 0.0283 0.0732
vt 0.0000 0.0820
vt 0.0000 0.0986
vt -0.0293 0.0674
vt 0.0000 0.0820
vt -0.0234 0.1006
vt 0.0205 0.1006
vt 0.0205 0.1006
vt 0.0303 0.0674
vt 0.0000 0.0986
vt -0.0293 0.0674
vt 0.0000 0.0820
vt 0.0000 0.0820
vt 0.0283 0.0732
vt 0.0283 0.0498
vt 0.0293 0.0479
vt 0.0000 0.0840
vt -0.0293 0.0479
vt -0.0283 0.0732
vt -0.0293 0.0674
vt -0.0400 0.0850
vt -0.0146 0.0898
vt 0.0000 0.0645
vt 0.0127 0.0898
vt 0.0361 0.0840
vt -0.0293 0.0674
vt 0.0205 0.1006
vt 0.0000 0.0312
vt 0.0303 0.0674
vt 0.0000 0.0986
vt 0.0205 0.1006
vt 0.0410 0.0586
vt 0.0293 0.0479
vt 0.0361 0.0840
vt 0.0303 0.0674
vt 0.0000 0.0645
vt -0.0146 0.0898
vt -0.0342 0.0098
vt -0.0293 0.0371
vt 0.0000 -0.0010
vt 0.0352 0.0098
vt 0.0293 0.0479
vt -0.0303 -0.0166
vt 0.0439 0.0918
vt 0.0361 0.0840
vt 0.0127 0.0898
vt 0.0293 0.1084
vt 0.0254 0.1113
vt 0.0205 0.1006
vt 0.0400 0.1094
vt -0.0234 0.1006
vt -0.0293 0.1123
vt -0.0469 0.0928
vt -0.0400 0.0850
vt -0.0146 0.0898
vt -0.0322 0.1084
vt -0.0459 0.1094
vt -0.0293 0.1123
vt -0.0459 0.1094
vt -0.0322 0.1084
vt -0.0469 0.0928
vt -0.0146 0.0898
vt -0.0400 0.0850
vt -0.0234 0.1006
vt 0.0400 0.1094
vt 0.0293 0.1084
vt 0.0439 0.0918
vt 0.0254 0.1113
vt 0.0205 0.1006
vt 0.0361 0.0840
vt 0.0127 0.0898
vt -0.0342 0.0098
vt -0.0303 -0.0166
vt 0.0000 -0.0498
vt 0.0352 0.0098
vt -0.0293 0.0479
vt 0.0000 0.0312
vt -0.0146 0.0898
vt 0.0000 0.0645
vt -0.0430 0.0586
vt 0.0000 0.0312
vt 0.0410 0.0586
vt 0.0361 0.0840
vt 0.0293 0.0479
vt 0.0000 0.0986
vt -0.0234 0.1006
vt -0.0293 0.0371
vt -0.0293 0.0674
vt -0.0293 0.0479
vt -0.0283 0.0732
vt 0.0000 0.0820
vt -0.0293 0.0674
vt 0.0283 0.0732
vt 0.0303 0.0674
vt 0.0000 2.4219
vt -6.5000 0.0000
vt -6.2500 0.0000
vt -6.5000 0.0000
vt -4.0000 0.0000
vt -4.0000 0.0000
vt -6.5000 0.0000
vt -6.2500 0.0000
vt 4.5117 -25.9365
vt -4.0000 0.0000
vt 4.5039 4.1572
vt -23.4932 27.6943
vt 0.0312 -27.4746
f 30/30 31/31 19/19
f 31/31 29/29 25/25
f 25/25 28/28 31/31
f 20/20 74/74 2/2
f 20/20 5/5 23/23
f 113/113 1/1 119/119
