mtllib assets01_model_023.mtl
# Conker's Bad Fur Day — Real 3D Model (HUD & UI Props)
o assets01_model_023
usemtl assets01_model_023_mat

v 1.7200 11.8800 -2.5800
v 2.3300 10.3600 -0.6800
v 1.6400 8.8500 -0.6800
v 0.2100 8.2200 -2.5800
v 1.6800 8.8000 -0.6800
v 0.3600 12.5100 -2.5800
v 2.3300 10.2900 -0.6800
v 1.7900 11.8300 -2.5800
v 0.0600 8.2400 -2.5800
v 0.1600 12.5300 -2.5800
v 4.2800 19.7200 -2.5800
v 0.2700 20.4900 -2.5800
v 7.4300 3.1800 -2.5800
v 9.7600 6.4700 -2.5800
v 9.0900 6.0600 -2.5800
v 6.8500 2.8600 -2.5800
v 0.7600 20.4800 -2.5800
v 4.4400 19.5500 -2.5800
v 7.4800 17.2100 -2.5800
v 9.8800 14.2200 -2.5800
v 7.6500 17.5100 -2.5800
v 9.4400 13.8200 -2.5800
v 10.0000 9.9100 -2.5800
v 3.6100 0.8000 -2.5800
v -0.0400 0.2300 -2.5800
v 3.9900 0.9900 -2.5800
v 10.6200 10.3400 -2.5800
v -0.1400 0.1900 -2.5800
v 1.3200 0.2100 -2.5800
v 19.5500 0.1900 -2.5800
v 20.4700 5.1300 -2.5800
v -0.1500 5.1500 -2.5800
v -0.0300 5.1100 -2.5800
v 0.8700 0.1300 -2.5800
v 19.0100 0.1600 -2.5800
v 20.4900 5.1500 -2.5800
v -0.1800 5.2600 -2.5800
v 19.4700 0.1400 -2.5800
v 1.3700 0.3400 -2.5800
v 19.4700 0.4400 -2.5800
v 20.3900 5.1500 -2.5800
v -0.0200 5.1600 -2.5800
v 19.7200 -0.1300 -2.5800
v 20.9400 4.9900 -2.5800
v -0.1300 5.1200 -2.5800
v 1.1000 0.0400 -2.5800
v 19.8200 0.1000 -2.5800
v 21.0500 5.1800 -2.5800
v -0.1800 5.2200 -2.5800
v 1.0100 0.1000 -2.5800
v 19.6900 0.1100 -2.5800
v -0.1800 5.2200 -2.5800
v 19.6900 0.1100 -2.5800
v 20.9500 5.2300 -2.5800
v -0.0200 5.1600 -2.5800
v 1.3700 0.2800 -2.5800
v -0.1800 5.2600 -2.5800
v 1.1600 0.3200 -2.5800
v 19.4700 0.1400 -2.5800
v 7.7000 7.4300 -2.5800
v 4.2800 7.1000 -2.5800
v 6.2400 5.2400 -2.5800
v 5.5900 8.9800 -2.5800
v 8.7400 8.0100 -2.5800
v 1.8200 5.1300 -2.5800
v 3.4800 7.8700 -2.5800
v 7.7000 7.4300 -2.5800
v 4.2800 7.1000 -2.5800
v 3.1800 5.1700 -2.5800
v 6.2400 5.2400 -2.5800
v 8.7400 8.0100 -2.5800
v 5.5900 8.9800 -2.5800
v 3.4800 7.8700 -2.5800
v 1.8200 5.1300 -2.5800
v 4.2000 7.7400 -2.5800
v 7.8000 7.3900 -2.5800
v 9.0600 4.7800 -2.5800
v 5.8600 4.7900 -2.5800
v 3.0900 8.5000 -2.5800
v 6.3100 9.9100 -2.5800
v 8.5800 8.4500 -2.5800
v 10.4700 4.7600 -2.5800
v 2.6600 7.3500 -2.5800
v 7.0000 7.2400 -2.5800
v 0.4100 4.4500 -2.5800
v 4.7900 4.6800 -2.5800
v 5.1000 9.5300 -2.5800
v 1.2900 7.9900 -2.5800
v 10.3500 4.9400 -2.5800
v 7.9000 8.3000 -2.5800
v -0.3200 4.9800 -2.5800
v 0.0000 33.1700 0.3200
v 0.3200 0.3200 0.0000
v 0.0000 15.1700 0.0000
v 0.0000 15.2700 0.3200
v 0.3200 0.3200 0.0000
v -28.0800 20.4800 0.0900
v -7.5200 0.0000 0.0000
v 15.4600 30.9000 0.1200
v -7.5200 0.0000 0.0000
v -33.2800 0.0000 18.3300
v -28.0800 21.7600 2.6400
v -28.0800 11.8400 5.2000
v -7.5200 0.0000 0.0000
v -33.2800 0.0000 18.3300
v 2.5800 0.6400 2.5600
v 2.5800 0.6400 2.5600
v -28.0800 20.4800 12.8100
v -7.5200 0.0000 0.6400
v 2.6200 10.2500 12.7700
v -0.0500 0.0600 0.0000
v 12.7900 -5.1500 -2.5800
v -10.2300 -10.2400 -0.0400
v 0.0000 0.0000 -2.5200
v 2.5900 2.5800 2.5800
v 5.1200 5.1200 10.2400
v 7.6700 7.6600 5.1100
v 2.5200 2.5400 2.5400
v -0.0100 -5.1500 -10.2400
v -5.1200 -5.1200 -10.2300
v -2.5500 -2.5200 0.0200
v -0.0400 -2.5800 2.5400
v 5.1200 10.2500 10.2400
vt 0.0430 -0.0010
vt 0.0303 -0.0312
vt 0.0000 -0.0430
vt -0.0293 -0.0303
vt 0.0010 0.0420
vt -0.0420 0.0000
vt -0.0293 0.0293
vt 0.0000 -0.0430
vt 0.0010 0.0420
vt 0.0000 -0.0430
vt 0.0000 0.2002
vt 0.1416 -0.1416
vt 0.1846 -0.0762
vt -0.1846 -0.0762
vt -0.1406 -0.1416
vt 0.0000 0.2002
vt -0.0762 0.1846
vt -0.1406 0.1416
vt 0.1846 0.0762
vt 0.1416 0.1416
vt -0.1846 0.0762
vt -0.1992 0.0000
vt -0.0762 -0.1846
vt 0.0000 -0.2002
vt 0.0771 -0.1846
vt 0.2002 0.0000
vt 0.0000 -0.2002
vt 0.0010 0.0000
vt 0.0000 0.2002
vt 0.0000 0.2266
vt -0.0859 0.2090
vt 0.0000 0.2266
vt 0.0000 0.2002
vt 0.0771 0.1846
vt 0.0869 0.2090
vt 0.0869 0.2090
vt 0.1416 0.1416
vt 0.1602 0.1602
vt 0.1846 0.0762
vt 0.2090 0.0869
vt 0.2090 0.0869
vt 0.2002 0.0000
vt -0.2090 0.0869
vt -0.2090 0.0869
vt -0.1846 0.0762
vt -0.1406 0.1416
vt -0.1592 0.1602
vt -0.1592 0.1602
vt -0.1406 0.1416
vt -0.0762 0.1846
vt -0.1592 0.1602
vt -0.0762 0.1846
vt -0.0859 0.2090
vt -0.1846 -0.0762
vt 0.1846 0.0762
vt 0.2002 0.0000
vt 0.0771 0.1846
vt 0.1416 0.1416
vt 0.0586 -0.0596
vt 0.0283 0.0449
vt 0.0488 0.0137
vt -0.0518 0.1904
vt -0.1025 0.1709
vt 0.0156 0.1299
vt -0.0156 0.1738
vt -0.0117 0.0859
vt -0.0342 0.0449
vt -0.0547 0.0137
vt -0.0303 -0.0176
vt 0.1025 0.1709
vt 0.0527 0.1904
vt 0.0166 0.1738
vt -0.0156 0.1299
vt 0.0127 0.0859
vt -0.0342 0.0449
vt -0.0547 0.0137
vt -0.0303 -0.0176
vt 0.1025 0.1709
vt 0.0527 0.1904
vt 0.0166 0.1738
vt -0.0156 0.1299
vt 0.0127 0.0859
vt 0.0283 0.0449
vt 0.0488 0.0137
vt -0.0010 0.0117
vt -0.0518 0.1904
vt -0.1025 0.1709
vt 0.0156 0.1299
vt -0.0156 0.1738
vt -0.0117 0.0859
vt 0.0000 4.4453
vt 0.0000 3.2383
vt 0.0000 1.4902
vt 0.0625 0.0156
vt 0.0000 3.2402
vt -6.2500 0.0000
vt -3.5000 8.0020
vt -2.7344 0.0000
vt -6.2500 0.0000
vt -6.5000 0.0000
vt -6.2500 0.0000
vt -3.5000 8.0020
vt -3.5000 8.0020
vt -6.5000 0.0000
vt -6.2500 0.0000
vt 4.5234 -27.8379
vt 4.5234 -27.8379
vt -0.7344 0.0000
vt -4.0000 0.0000
vt -1.0039 0.0059
vt 0.0000 0.2529
vt -0.2461 -0.7480
vt 0.4961 1.0000
vt 0.0020 0.0020
vt 0.2510 0.2510
vt 0.5000 1.0000
vt 0.7480 0.4961
vt -0.0039 -0.0020
vt -0.5000 -0.5000
vt -0.2490 -0.2490
vt -0.5000 -0.0010
vt 0.2461 0.7490
vt 0.2529 0.5020
f 11/11 32/32 12/12
f 32/32 13/13 12/12
f 6/6 7/7 10/10
f 7/7 8/8 10/10
f 29/29 30/30 31/31
f 29/29 31/31 32/32
f 26/26 28/28 29/29
f 30/30 31/31 32/32
