mtllib assets09_model_114.mtl
# Conker's Bad Fur Day — Real 3D Model (Multiplayer Level Models)
o assets09_model_114
usemtl assets09_model_114_mat

v 0.0000 9.6800 0.0000
v 1.9200 2.9600 -0.0100
v 20.3300 2.9400 -0.0100
v 1.9000 1.9800 -0.0100
v 20.3000 1.1700 -0.0100
v 20.3300 2.9400 -0.0100
v 1.9200 2.9600 -0.0100
v 1.9400 3.9400 -0.0100
v 20.3600 4.7100 -0.0100
v 4.4700 1.4000 -0.0100
v 4.4500 2.7100 -0.0100
v -0.0400 2.4300 -0.0100
v 4.4600 4.0300 -0.0100
v 4.4600 4.0300 -0.0100
v 4.4700 1.4000 -0.0100
v -0.0400 2.4300 -0.0100
v 4.5700 1.1500 -0.0100
v 4.6600 2.8800 -0.0100
v 0.1400 2.7400 -0.0100
v 4.7500 4.2900 -0.0100
v 4.5700 1.1500 -0.0100
v 4.7100 4.2400 -0.0100
v 4.6100 2.7600 -0.0100
v 0.2000 3.0300 -0.0100
v 4.5200 0.9500 -0.0100
v 4.5200 0.9500 -0.0100
v 0.2000 3.0300 -0.0100
v 5.0200 1.4500 -0.0100
v 0.9500 1.5100 -0.0100
v 4.2900 0.9900 -0.0100
v 0.4700 1.8400 -0.0100
v 4.4100 3.5200 -0.0100
v 1.8900 4.2000 -0.0100
v 4.7800 3.7200 -0.0100
v 3.9900 4.2200 -0.0100
v 0.5600 3.8500 -0.0100
v 0.0800 3.5600 -0.0100
v 1.6900 1.1300 -0.0100
v 4.2700 1.7100 -0.0100
v -0.1100 2.2600 -0.0100
v 4.1100 2.6100 -0.0100
v 1.8600 0.6900 -0.0100
v 4.1100 2.6100 -0.0100
v 4.7200 1.0700 -0.0100
v -0.1100 2.2600 -0.0100
v 1.7600 4.1500 -0.0100
v 4.6300 4.2500 -0.0100
v 1.6900 1.1300 -0.0100
v 4.5800 2.2900 -0.0100
v 0.8500 1.7500 -0.0100
v 1.0400 3.0800 -0.0100
v 4.7800 3.7200 -0.0100
v 1.8900 4.2000 -0.0100
v 5.0200 1.4500 -0.0100
v 4.4100 3.5200 -0.0100
v 0.7300 4.3600 -0.0100
v 4.4900 4.5200 -0.0100
v 0.9500 1.5100 -0.0100
v 1.8600 0.6900 -0.0100
v 1.7600 4.1500 -0.0100
v -28.0000 0.0000 17.9200
v -33.2800 0.0000 18.2300
v -28.1600 2.5600 15.3600
v -7.5200 0.0000 0.6400
v 15.5000 20.5400 0.0200
v -7.5200 0.0000 0.0000
v -33.2800 0.0000 17.9900
v -28.0800 10.2400 0.0100
vt 0.0000 0.0000
vt 0.0010 -0.0137
vt -0.0059 -0.0088
vt -0.0059 -0.0059
vt -0.0137 -0.0137
vt -0.0107 -0.0137
vt -0.0059 -0.0176
vt -0.0059 -0.0205
vt 0.0010 -0.0098
vt -0.0049 -0.0137
vt -0.0205 -0.0137
vt 0.0010 -0.0176
vt 0.0010 -0.0176
vt 0.0010 -0.0098
vt -0.0205 -0.0137
vt 0.0010 0.0107
vt -0.0049 0.0059
vt -0.0205 0.0078
vt 0.0010 0.0020
vt 0.0010 0.0107
vt 0.0010 -0.0293
vt -0.0049 -0.0322
vt -0.0205 -0.0342
vt 0.0010 -0.0371
vt 0.0010 -0.0371
vt -0.0205 -0.0342
vt 0.0010 0.0107
vt -0.0059 -0.0088
vt -0.0049 0.0059
vt -0.0107 -0.0137
vt 0.0010 0.0020
vt 0.0000 -0.0098
vt 0.0010 -0.0371
vt -0.0049 -0.0322
vt -0.0059 -0.0176
vt -0.0107 -0.0137
vt 0.0000 -0.0166
vt 0.0010 -0.0293
vt -0.0107 -0.0137
vt -0.0049 -0.0137
vt 0.0000 -0.0098
vt -0.0049 -0.0137
vt 0.0010 -0.0098
vt -0.0107 -0.0137
vt 0.0000 -0.0166
vt 0.0010 -0.0176
vt 0.0000 -0.0166
vt 0.0000 -0.0166
vt -0.0059 -0.0176
vt -0.0020 -0.0137
vt 0.0010 -0.0371
vt 0.0000 -0.0098
vt 0.0010 0.0107
vt 0.0010 0.0020
vt -0.0059 -0.0088
vt 0.0000 -0.0098
vt -0.0059 -0.0088
vt 0.0000 -0.0098
vt 0.0000 -0.0166
vt 0.0000 0.9531
vt -6.5000 0.0000
vt -6.2500 0.0000
vt -6.5000 0.0000
vt -4.0000 0.0000
vt -6.2500 0.0000
vt -6.5000 0.0000
vt -6.2500 0.0000
vt -3.5000 8.0020
f 8/8 5/5 4/4
f 2/2 8/8 4/4
f 30/30 32/32 31/31
f 26/26 11/11 14/14
