mtllib assets0E_model_064.mtl
# Conker's Bad Fur Day — Real 3D Model (Sloprano Models)
o assets0E_model_064
usemtl assets0E_model_064_mat

v 20.4900 0.0000 0.0000
v 20.4800 0.0000 0.0000
v 20.4800 0.0000 0.0000
v 20.4800 0.0000 0.0000
v 20.4800 0.0000 0.0000
v 20.4900 0.0000 0.0000
v 20.4900 0.0000 0.0000
v 20.4900 0.0000 0.0000
v 20.4900 0.0000 0.0000
v 20.4900 0.0000 0.0000
v 20.4900 0.0000 0.0000
v 20.4900 0.0000 0.0000
v 20.4900 0.0000 0.0000
v 20.4900 0.0000 0.0000
v 20.4900 0.0000 0.0000
v 20.4900 0.0000 0.0000
v 20.4900 0.0000 0.0000
v 20.4900 0.0000 0.0000
v 20.4900 0.0000 0.0000
v 20.4900 0.0000 0.0000
v 0.3200 2.5800 0.0000
v 20.4800 0.0000 0.0000
vt 0.0000 16.0654
vt 0.2500 -31.9355
vt 0.0000 0.0654
vt 0.0000 0.0645
vt 0.0000 0.0645
vt 0.0000 0.0645
vt 0.0000 0.0645
vt 0.0000 0.0645
vt 0.0000 0.0645
vt 0.0000 0.0645
vt 0.0000 0.0645
vt 0.0000 0.0645
vt 0.0000 0.0645
vt 0.0000 0.0645
vt 0.0000 0.0645
vt 0.0000 0.0645
vt 0.0000 0.0645
vt 0.0000 0.0645
vt 0.0000 0.0645
vt 0.0000 0.0645
vt 0.2412 0.5391
vt 0.0000 0.0645
f 1/1 1/1 1/1
f 1/1 1/1 1/1
