mtllib assets09_model_251.mtl
# Conker's Bad Fur Day — Real 3D Model (Multiplayer Level Models)
o assets09_model_251
usemtl assets09_model_251_mat

v 0.0000 8.8800 0.0000
v -27.3600 0.0000 17.9200
v -27.4400 20.4800 0.0900
v -7.5200 0.0000 0.6400
v 2.5800 0.6400 0.0000
v -33.2800 0.0000 18.5500
v -6.8800 0.0000 0.0000
v -27.4400 20.4800 0.0900
v -27.4400 10.8800 2.6400
v -27.4400 5.9200 5.2000
v -27.4400 5.9600 7.7600
v -7.5200 0.0000 0.6400
vt 0.0000 0.0000
vt -3.2500 0.0000
vt -3.4375 9.0020
vt -2.6562 0.2500
vt 4.5039 1.1299
vt -0.7344 0.0000
vt -3.2500 0.0000
vt -3.4375 9.0020
vt -3.4688 8.5020
vt -3.4844 8.2520
vt -3.4922 8.1270
vt -6.5000 0.0000
f 11/11 10/10 9/9
f 8/8 7/7 2/2
f 9/9 10/10 6/6
f 6/6 10/10 7/7
