# Conker's Bad Fur Day — Real 3D Model (Multiplayer Level Models)
o assets09_model_308

v 0.0000 14.8000 0.0000
v 0.0000 0.0000 -2.5800
v 0.0000 0.0000 -0.0100
v 0.0000 0.0000 -2.5800
v 0.0000 0.0000 -2.5800
v 0.0000 0.0000 -0.0100
v 0.0000 0.0000 -2.5800
v 0.0000 0.0000 -0.0100
v 0.0000 0.0000 -0.0100
v 0.0000 0.0000 -2.5800
v 0.0000 0.0000 -2.5800
v 0.0000 0.0000 -0.0100
v 2.5800 0.6400 0.0000
v -27.3600 0.0000 17.9200
v -27.4400 20.4800 0.0900
v -27.4400 11.5200 2.6500
v -27.4400 6.7200 5.2000
v -27.4400 6.8000 7.7600
v -27.4400 6.8400 10.3200
v -7.5200 0.0000 0.6400
v -6.8800 0.0000 0.0000
v -27.4400 20.4800 0.0100
v -6.8800 0.0000 0.0000
v -27.4400 10.2400 0.0900
v -7.5200 0.0000 0.6400
v 12.9200 36.0000 0.0000
v -6.8800 0.0000 0.0000
v -27.4400 20.4800 0.0900
v -7.5200 0.0000 0.6400
vt 0.0000 0.0000
vt -0.0049 -0.0029
vt -0.0137 0.0039
vt -0.0059 0.0098
vt -0.0098 -0.0068
vt -0.0098 -0.0117
vt -0.0127 -0.0010
vt -0.0273 -0.0068
vt -0.0176 0.0088
vt -0.0225 -0.0088
vt -0.0146 0.0039
vt -0.0264 0.0020
vt 4.1250 -25.8682
vt -3.2500 0.0000
vt -3.4375 9.0020
vt -3.4688 8.5020
vt -3.4844 8.2520
vt -3.4922 8.1270
vt -3.4961 8.0645
vt -2.6562 0.2500
vt -3.2500 0.0000
vt -0.7344 0.0000
vt -3.2500 0.0000
vt -3.4375 9.0020
vt -6.5000 0.0000
vt -6.2500 0.0000
vt -3.2500 0.0000
vt -3.4375 9.0020
vt -6.5000 0.0000
f 27/27 28/28 29/29
f 1/1 2/2 3/3
f 4/4 5/5 6/6
f 7/7 8/8 9/9
f 12/12 24/24 21/21
f 12/12 21/21 10/10
f 25/25 26/26 27/27
