# Conker's Bad Fur Day — Real 3D Model (HUD & UI Props)
o assets01_model_035

v 5.9500 1.6800 -2.5800
v 16.1100 1.7800 -2.5800
v 0.2600 10.0200 -2.5800
v 15.4900 1.9100 -7.7200
v 0.4400 9.8400 -18.0000
v 20.3900 10.0500 -2.5800
v 20.5800 10.2300 -18.0000
v 15.5000 1.2000 -2.5800
v 5.0100 1.2000 -2.5800
v 5.8600 35.4300 -2.5800
v 28.7400 35.4300 -2.5800
v 37.4900 0.0000 -2.5800
v 37.4900 0.0000 -2.5800
v 28.7400 35.4300 -2.5800
v 8.7100 6.2100 -23.1400
v 8.7400 8.3300 -23.1400
v -0.0600 16.5800 -2.5800
v 0.2200 -5.2100 -33.4200
v -0.0600 16.6100 -2.5800
v 0.0400 8.8900 -18.0000
v 0.6800 0.0300 -33.4200
v 8.9100 10.1900 -2.5800
v 2.5500 10.2300 -2.5800
v 7.4400 10.2100 -2.5800
v 0.6700 10.1900 -18.0000
v 1.5500 10.1200 -2.5800
v 0.3900 1.6600 -2.5800
v 2.0900 5.3800 -2.5800
v 4.7900 -0.0400 0.0000
v 2.0500 0.0000 0.0000
v 7.8200 -0.0100 0.0000
v 8.8900 -2.2100 0.0000
v 1.6200 -2.1900 0.0000
v 8.8900 -2.2100 0.0000
v 1.6200 -2.1900 0.0000
v 7.9700 4.6600 -2.5800
v 9.0300 4.0400 -2.5800
v 9.0700 7.4500 -2.5800
v 6.1100 8.0800 -2.5800
v 6.1300 9.1800 -2.5800
v 3.9300 7.0500 -2.5800
v 6.1100 8.0800 -2.5800
v 6.1300 9.1800 -2.5800
v 3.7300 7.8400 -2.5800
v 3.1500 7.5200 -2.5800
v 3.9300 4.5600 -2.5800
v 6.0600 3.6000 -2.5800
v 7.9700 4.6600 -2.5800
v 9.0300 4.0400 -2.5800
v 2.0500 0.0000 0.0000
v 5.7700 13.7500 -2.5800
v 2.7900 8.0000 -2.5800
v 5.4200 8.9100 -2.5800
v -0.2400 11.6700 -2.5800
v 1.5400 5.4200 -2.5800
v -3.0900 5.7700 -2.5800
v 2.4000 2.6700 -2.5800
v -1.1200 -0.5000 -2.5800
v 4.5300 -3.4700 -2.5800
v 4.8800 1.3700 -2.5800
v 10.5400 -1.4000 -2.5800
v 7.5100 2.2800 -2.5800
v 13.3900 4.5100 -2.5800
v 8.7600 4.8600 -2.5800
v 11.4100 10.7800 -2.5800
v 7.8900 7.6100 -2.5800
v 5.3100 5.0700 -2.5800
v 5.2500 0.1300 -2.5800
v 5.2500 0.1300 -2.5800
v 5.3100 5.0700 -2.5800
v 0.0000 0.0000 -2.5800
v 7.4300 2.2300 -2.5800
v 8.8500 4.8200 -2.5800
v 13.4700 4.2800 -2.5800
v 10.2200 -1.6200 -2.5800
v 4.7300 1.4000 -2.5800
v 4.0600 -3.5100 -2.5800
v 2.3400 2.8200 -2.5800
v -1.4000 -0.2800 -2.5800
v -2.9600 6.1800 -2.5800
v 1.6500 5.6500 -2.5800
v 0.2900 12.0900 -2.5800
v 3.0800 8.2400 -2.5800
v 6.4500 13.9800 -2.5800
v 5.7800 9.0600 -2.5800
v 11.9100 10.7400 -2.5800
v 8.1700 7.6500 -2.5800
v 5.2500 0.1300 -2.5800
v -0.2800 5.1500 -2.5800
v 5.4300 5.0400 -2.5800
v -0.2800 5.1500 -2.5800
v 5.2500 0.1300 -2.5800
v -0.3800 0.0800 -2.5800
v 0.0800 9.7500 -2.5800
v 2.5000 9.7400 -2.5800
v 7.3200 9.7100 -2.5800
v 9.7400 9.6900 -2.5800
v 8.6800 8.6100 -2.5800
v -0.2300 10.2000 -2.5800
v 8.7300 5.3800 -2.5800
v -0.1600 5.5500 -2.5800
v 8.6200 4.6600 -28.2800
v -1.1000 5.3500 -28.2800
v 8.7100 8.3800 -2.5800
v -0.9900 10.0800 -2.5800
v 2.6300 8.8600 -2.5800
v 7.6500 1.4600 -2.5800
v 3.1700 1.1000 -2.5800
v 0.6600 4.8000 -2.5800
v 0.6900 8.1700 -2.5800
v 19.4600 8.1500 -2.5800
v 19.4600 8.1500 -2.5800
v 19.4400 10.0600 -7.7200
v 0.8800 7.9500 -2.5800
v 19.6600 7.9500 -2.5800
v 0.5700 1.7100 -2.5800
v 19.7500 1.5600 -2.5800
v 19.9600 6.6600 -2.5800
v 0.7800 6.8000 -2.5800
v 19.6600 7.9500 -2.5800
v 19.6800 9.8300 -2.5800
v 0.9000 9.8300 -2.5800
v 19.6600 7.9500 -2.5800
v 0.8800 7.9500 -2.5800
v 0.9000 9.8300 -2.5800
v 19.6800 9.8300 -2.5800
v 19.5800 0.4100 -7.7200
v 19.4600 8.1500 -2.5800
v 19.4400 10.0700 -7.7200
v -0.0800 1.5700 -2.5800
v 20.3800 1.3500 -2.5800
v 20.4000 6.2900 -2.5800
v -0.0500 6.5200 -2.5800
v 19.6800 9.8300 -2.5800
v 0.9000 9.8300 -2.5800
v 19.6600 7.9500 -2.5800
v 0.9000 9.8300 -2.5800
v 19.6800 9.8300 -2.5800
v 19.5800 0.4200 -7.7200
v 19.4600 8.1500 -2.5800
v 0.6900 8.1700 -2.5800
v 0.6900 8.1700 -2.5800
v 0.6700 10.0900 -7.7200
v 19.6600 7.9500 -2.5800
v 0.8800 7.9500 -2.5800
v 0.7800 6.8000 -2.5800
v 19.9600 6.6600 -2.5800
v 19.7500 1.5600 -2.5800
v 0.5700 1.7100 -2.5800
v 0.9000 9.8300 -2.5800
v 19.6800 9.8300 -2.5800
v 0.8800 7.9500 -2.5800
v 19.6800 9.8300 -2.5800
v 0.9000 9.8300 -2.5800
v 0.8800 7.9500 -2.5800
v 19.6600 7.9500 -2.5800
v 0.8000 0.4200 -7.7200
v 0.6700 10.0900 -7.7200
v 0.6900 8.1700 -2.5800
v -0.0500 6.5200 -2.5800
v 20.4000 6.2900 -2.5800
v 20.3800 1.3500 -2.5800
v -0.0800 1.5700 -2.5800
v 0.9000 9.8300 -2.5800
v 19.6800 9.8300 -2.5800
v 19.6800 9.8300 -2.5800
v 0.9000 9.8300 -2.5800
v 0.8800 7.9500 -2.5800
v 0.8000 0.4200 -7.7200
v 0.0800 9.7500 -2.5800
v 2.5000 9.7400 -2.5800
v 7.3200 9.7100 -2.5800
v 9.7400 9.6900 -2.5800
v -0.2300 10.2000 -2.5800
v 8.6800 8.6100 -2.5800
v -1.1000 5.3500 -2.5800
v 8.6200 4.6600 -2.5800
v -0.9900 10.0800 -2.5800
v 8.7100 8.3800 -2.5800
v 7.6500 1.4600 -2.5800
v 2.6300 8.8600 -2.5800
v 0.6600 4.8000 -2.5800
v 3.1700 1.1000 -2.5800
v 14.6300 3.1500 -2.5800
v 18.5600 9.9200 -2.5800
v 10.4900 10.0400 -2.5800
v 2.2600 10.0800 -2.5800
v 5.8500 3.8600 -2.5800
v 10.3200 10.0600 -2.5800
v 13.9200 3.8400 -2.5800
v 18.3800 10.0400 -18.0000
v 2.4100 10.1600 -18.0000
v 25.9400 0.0000 -2.5800
v 25.4800 20.4800 -2.5800
v 0.3300 5.3900 -2.5800
v 4.5900 4.3200 -2.5800
v 5.1300 4.9800 -2.5800
v 5.1300 4.9800 -2.5800
v 2.1600 5.7100 -2.5800
v 1.4100 5.2700 -2.5800
v 1.4800 5.4500 -2.5800
v 3.2100 9.4400 -2.5800
v 3.2100 9.4500 -2.5800
v 3.7300 15.6600 -2.5800
v 3.8000 12.6600 -2.5800
v 6.6500 20.0200 -2.5800
v 3.8000 12.6400 -2.5800
v 6.7600 14.8000 -2.5800
v 6.7600 14.8300 -2.5800
v 6.7600 14.8000 -2.5800
v 3.8000 12.6400 -2.5800
v 3.2100 9.4400 -2.5800
v 10.2500 20.1900 -2.5800
v 6.6500 20.0200 -2.5800
v 10.3600 14.8800 -2.5800
v 6.7600 14.8300 -2.5800
v 3.7300 15.6600 -2.5800
v 3.2100 9.4500 -2.5800
v 1.4800 5.4500 -2.5800
v 5.6600 5.9500 -2.5800
v 5.6700 5.9800 -2.5800
v 2.6300 3.8300 -2.5800
v 2.6500 3.8400 -2.5800
v -2.5600 0.0000 0.0000
v 0.0100 2.5600 0.0000
v 0.0000 19.4900 0.0000
v 0.3200 0.6400 0.0000
v 0.0000 0.5800 0.0000
v 0.0000 10.7500 0.3200
v 0.3200 0.3200 0.0000
v 0.0000 38.1600 0.3200
v 0.3200 0.3200 0.0000
v 0.0000 9.4400 0.3200
v 0.3200 0.3200 0.0000
v -7.5200 0.0000 0.0000
v -28.1600 20.4800 0.0500
v -7.5200 0.0000 1.2800
v -28.1600 11.5200 2.5700
v -28.1600 6.8000 7.6800
v -7.5200 0.0000 0.0000
v -33.2800 0.0000 18.2300
v -28.0800 20.4800 0.0900
v -7.5200 0.0000 0.6400
v -7.5200 0.0000 0.6400
v -7.5200 0.0000 0.0000
v -33.2800 0.0000 18.3400
v -28.0800 20.4800 0.0900
v -28.0800 6.7200 5.2000
v -7.5200 0.0000 0.6400
v -7.5200 0.0000 0.6400
v -7.5200 0.0000 0.6400
v -28.0800 11.5200 2.6500
v -28.0800 6.8000 7.7600
v -7.5200 0.0000 0.0000
v -33.2800 0.0000 18.3400
v -28.0800 20.4800 0.0100
v -28.0800 6.7200 5.1200
v -7.5200 0.0000 0.6400
v -28.0800 11.5200 2.6500
v -28.0800 6.8000 7.7600
v 15.5200 35.9600 0.1600
v -7.5200 0.0000 0.0000
v -33.2800 0.0000 18.2300
v -7.5200 0.0000 0.6400
v 2.5800 0.6400 2.5600
v 2.5700 0.3200 2.5600
v -7.5200 0.0000 0.0000
v -33.2800 0.0000 18.2300
v -28.0800 20.4800 0.0900
v 2.5800 0.6400 2.5600
v 2.5800 0.6400 2.5600
v -7.5200 0.0000 0.0000
v -33.2800 0.0000 18.5500
v -7.5200 0.0000 0.6400
v -7.5200 0.0000 0.6400
v -28.0800 11.5200 2.5700
v -28.0800 6.8000 7.6800
v -7.5200 0.0000 0.0000
v -33.2800 0.0000 18.3400
v -28.0800 20.4800 0.0900
v -28.0800 6.7200 5.2000
v -7.5200 0.0000 1.2800
v -7.5200 0.0000 0.0000
v -33.2800 0.0000 18.3400
v -28.1600 20.4800 0.0100
v -28.1600 6.7200 5.1200
v -7.5200 0.0000 1.2800
v -28.0800 20.4800 0.0900
v -7.5200 0.0000 0.0000
v 2.5800 0.6400 2.5600
v -7.5200 0.0000 0.6400
v 15.3600 5.1600 0.0600
v -10.1600 -10.1600 -11.5000
v 2.6000 3.8600 3.8600
v 17.9000 17.9000 11.5400
v -2.4700 -1.2600 -1.2600
v 1.3000 1.2900 1.3000
vt 0.0654 0.1240
vt -0.0654 0.1240
vt -0.0654 0.1240
vt 0.0654 0.1240
vt 0.0000 0.1240
vt 0.0654 0.1240
vt 0.0918 0.0000
vt -0.0918 0.0000
vt -0.0840 0.0615
vt 0.0000 0.1240
vt -0.0654 0.1240
vt -0.0918 0.0000
vt -0.0840 0.0615
vt 0.0918 0.0000
vt 0.0449 0.0566
vt 0.0557 0.0664
vt 0.0547 0.0371
vt -0.0557 0.0664
vt -0.0547 0.0371
vt -0.0537 -0.0166
vt 0.0000 -0.0166
vt -0.0439 0.0371
vt 0.0547 0.0371
vt 0.0537 -0.0166
vt 0.0000 0.0381
vt 0.0000 -0.0166
vt -0.0352 0.0576
vt 0.0000 0.0576
vt -0.0332 0.0391
vt 0.0439 0.0371
vt 0.0449 0.0566
vt 0.0410 0.0664
vt 0.0410 0.0664
vt -0.0410 -0.0059
vt -0.0361 0.0664
vt -0.0557 0.0664
vt -0.0557 0.0664
vt 0.0000 0.0664
vt 0.0000 0.0664
vt 0.0410 0.0664
vt 0.0000 0.0664
vt 0.0000 0.0664
vt 0.0449 0.0664
vt 0.0557 0.0664
vt 0.0410 0.0664
vt 0.0557 0.0664
vt 0.0000 0.0664
vt -0.0557 0.0664
vt 0.0000 0.0576
vt -0.0352 0.0576
vt -0.0107 0.0068
vt -0.0029 0.0098
vt -0.0195 0.0166
vt -0.0137 -0.0010
vt -0.0273 -0.0010
vt -0.0107 -0.0078
vt -0.0195 -0.0176
vt -0.0029 -0.0244
vt -0.0029 -0.0107
vt 0.0039 0.0068
vt 0.0039 -0.0078
vt 0.0205 -0.0010
vt 0.0068 -0.0010
vt 0.0137 0.0166
vt 0.0039 0.0068
vt -0.0029 -0.0010
vt 0.0137 0.0166
vt 0.0205 -0.0010
vt -0.0029 0.0234
vt -0.0205 0.0156
vt -0.0273 -0.0010
vt 0.0117 -0.0010
vt 0.0244 -0.0010
vt 0.0176 -0.0176
vt 0.0010 -0.0107
vt 0.0010 -0.0244
vt -0.0059 -0.0078
vt -0.0156 -0.0176
vt -0.0225 -0.0010
vt -0.0098 -0.0010
vt 0.0088 0.0068
vt -0.0059 0.0068
vt 0.0010 0.0234
vt 0.0010 0.0098
vt 0.0176 0.0166
vt 0.0088 0.0068
vt -0.0098 -0.0010
vt 0.0244 -0.0010
vt 0.0010 -0.0244
vt -0.0156 0.0166
vt 0.0176 0.0166
vt 0.0244 -0.0010
vt -0.0156 -0.0176
vt -0.0059 -0.0127
vt 0.0068 -0.0127
vt 0.0137 -0.0127
vt 0.0049 -0.0010
vt 0.1133 0.0107
vt 0.1133 -0.0010
vt 0.1143 -0.0010
vt 0.0049 -0.0088
vt -0.0020 0.0010
vt 0.1152 0.0068
vt -0.0020 0.0098
vt 0.0137 -0.0127
vt 0.0137 0.0117
vt 0.0068 0.0117
vt -0.0059 0.0117
vt -0.0312 0.0410
vt -0.0312 0.0410
vt -0.0312 -0.0020
vt -0.0312 0.0547
vt 0.1328 0.1113
vt -0.0312 0.1113
vt -0.0312 0.0684
vt -0.0312 0.1250
vt -0.0312 0.1250
vt 0.1328 0.1250
vt 0.1328 0.1113
vt -0.0312 0.1250
vt 0.1328 0.1250
vt -0.0312 0.1113
vt 0.1328 0.1113
vt 0.1328 0.1250
vt -0.0312 0.1250
vt 0.1328 0.0684
vt 0.1328 0.0547
vt 0.1328 0.0410
vt 0.1328 -0.0020
vt -0.0312 0.1250
vt -0.0312 0.1250
vt 0.1328 0.1250
vt 0.1328 0.1113
vt 0.1328 0.1250
vt -0.0312 0.1113
vt 0.1328 0.1113
vt -0.0312 0.1250
vt 0.1328 0.0684
vt 0.1328 0.0547
vt -0.1328 0.0410
vt -0.1328 -0.0020
vt 0.0312 -0.0156
vt -0.1328 0.0684
vt -0.1328 0.1113
vt -0.1328 0.0684
vt 0.0312 0.1250
vt 0.0312 0.1250
vt -0.1328 0.1250
vt -0.1328 0.1250
vt 0.0312 0.1250
vt 0.0312 0.1113
vt 0.0312 0.1250
vt -0.1328 0.1250
vt -0.1328 0.1113
vt 0.0312 0.1113
vt -0.1328 0.0547
vt 0.0312 0.0547
vt -0.1328 0.0410
vt 0.0312 0.0410
vt 0.0312 0.1250
vt 0.0312 0.1250
vt -0.1328 0.1250
vt -0.1328 0.1250
vt 0.0312 0.1250
vt 0.0312 0.1113
vt -0.1328 0.1250
vt -0.1328 0.1113
vt 0.0312 0.1113
vt 0.0312 0.0547
vt 0.0127 -0.0127
vt 0.0059 -0.0127
vt -0.0068 -0.0127
vt -0.0137 -0.0127
vt -0.0049 0.0049
vt -0.0049 -0.0010
vt -0.1152 0.0010
vt 0.0020 0.0098
vt -0.1152 0.0068
vt 0.0127 -0.0127
vt 0.0127 0.0117
vt 0.0059 0.0117
vt -0.0068 0.0117
vt 0.0000 0.0000
vt -0.0371 0.0439
vt 0.0000 0.0635
vt -0.0371 0.0439
vt 0.0000 0.0439
vt 0.0000 0.0635
vt 0.0361 0.0439
vt 0.0361 0.0439
vt 0.0361 0.0439
vt 0.0000 0.0439
vt -0.0840 0.0615
vt 0.0244 0.0684
vt 0.0078 0.0732
vt -0.0146 0.0430
vt 0.0195 0.0361
vt 0.0010 0.0635
vt 0.0078 0.0732
vt -0.0059 0.0195
vt 0.0117 0.0391
vt -0.0117 0.0391
vt 0.0127 0.0107
vt -0.0234 0.0547
vt 0.0000 0.0840
vt 0.0234 0.0547
vt 0.0400 0.0654
vt -0.0400 0.0654
vt -0.0439 0.0254
vt 0.0234 0.0547
vt 0.0117 0.0391
vt 0.0410 0.0654
vt 0.0000 0.0840
vt -0.0410 0.0654
vt -0.0400 0.0654
vt -0.0439 0.0254
vt 0.0225 0.0146
vt -0.0127 0.0107
vt 0.0049 0.0107
vt -0.0361 0.0225
vt -0.0361 0.0225
vt -0.0078 0.0117
vt -0.0361 0.0225
vt 0.0000 0.0000
vt 16.7627 27.6025
vt 0.0312 0.0312
vt 0.0000 0.0576
vt 0.0625 0.0312
vt 0.0000 0.9209
vt 0.0000 1.6221
vt 0.0000 0.9668
vt 0.0000 0.9678
vt 0.0000 1.8926
vt -6.2500 0.0000
vt -2.7344 0.0000
vt -2.7500 1.1250
vt -4.0000 0.0000
vt -2.7500 0.6562
vt 6.6895 -11.4824
vt -6.5000 0.0000
vt -6.2500 0.0000
vt -3.5000 8.0020
vt -4.0000 0.0000
vt -4.0000 0.0000
vt -6.5000 0.0000
vt -6.2500 0.0000
vt -2.7422 1.1250
vt -2.7422 0.6641
vt -4.0000 0.0000
vt -4.0000 0.0000
vt -4.0000 0.0000
vt -2.7422 0.6562
vt -9.4453 0.0029
vt -6.5000 0.0000
vt -6.2500 0.0000
vt -2.7422 1.1250
vt -2.7422 0.6641
vt -4.0000 0.0000
vt -2.7422 0.6562
vt 1.5391 10.5430
vt -6.2500 0.0000
vt -6.5000 0.0000
vt -6.2500 0.0000
vt -4.0000 0.0000
vt 4.5234 -27.8379
vt 4.5234 -27.8379
vt -6.5000 0.0000
vt -6.2500 0.0000
vt -3.5000 8.0020
vt 4.0156 -31.9023
vt 4.0156 -31.9023
vt -6.5000 0.0000
vt -6.2500 0.0000
vt -4.0000 0.0000
vt -4.0000 0.0000
vt -2.7422 0.6562
vt 7.2412 25.9033
vt -6.5000 0.0000
vt -6.2500 0.0000
vt -2.7422 1.1250
vt -2.7422 0.6641
vt -4.0000 0.0000
vt -6.5000 0.0000
vt -6.2500 0.0000
vt -2.7500 1.1250
vt -2.7500 0.6641
vt -4.0000 0.0000
vt -3.5000 8.0020
vt -2.7344 0.0000
vt 4.0078 -27.9951
vt -4.0000 0.0000
vt -8.2500 0.0000
vt -13.3105 13.6895
vt 0.2520 0.2520
vt 20.9072 -20.5928
vt -0.2422 -0.2422
vt 0.1260 0.1270
f 38/38 1/1 90/90
f 128/128 128/128 128/128
f 7/7 1/1 96/96
f 127/127 127/127 128/128
f 9/9 1/1 57/57
f 111/111 111/111 128/128
f 8/8 1/1 61/61
f 128/128 128/128 128/128
f 43/43 127/127 123/123
f 56/56 4/4 61/61
f 57/57 4/4 63/63
f 45/45 127/127 124/124
f 73/73 124/124 91/91
f 101/101 101/101 128/128
f 30/30 1/1 98/98
f 34/34 1/1 87/87
f 7/7 1/1 96/96
f 57/57 46/46 128/128
f 38/38 1/1 90/90
f 57/57 46/46 128/128
f 92/92 1/1 30/30
f 57/57 1/1 65/65
f 4/4 4/4 1/1
f 17/17 31/31 20/20
f 32/32 31/31 17/17
f 22/22 32/32 17/17
f 10/10 13/13 11/11
f 21/21 20/20 31/31
f 21/21 31/31 32/32
f 14/14 25/25 15/15
f 21/21 22/22 23/23
f 21/21 23/23 24/24
f 9/9 8/8 7/7
f 9/9 7/7 10/10
f 21/21 22/22 23/23
f 21/21 23/23 24/24
f 9/9 6/6 5/5
f 9/9 5/5 10/10
f 17/17 18/18 11/11
f 18/18 9/9 11/11
f 19/19 31/31 32/32
f 19/19 32/32 20/20
f 11/11 12/12 10/10
f 11/11 10/10 9/9
f 25/25 28/28 30/30
f 14/14 16/16 17/17
f 28/28 31/31 26/26
f 32/32 23/23 27/27
f 31/31 32/32 27/27
f 26/26 30/30 25/25
f 28/28 31/31 27/27
f 28/28 32/32 31/31
f 1/1 2/2 3/3
f 4/4 3/3 2/2
f 52/52 3/3 75/75
f 52/52 103/103 54/54
f 128/128 4/4 64/64
f 128/128 4/4 128/128
f 66/66 3/3 66/66
