mtllib assets09_model_390.mtl
# Conker's Bad Fur Day — Real 3D Model (Multiplayer Level Models)
o assets09_model_390
usemtl assets09_model_390_mat

v 0.0000 19.9200 0.0000
v 0.0000 0.0000 -0.0100
v 0.0000 0.0000 -0.0100
v 0.0000 0.0000 -38.5600
v 0.0000 0.0000 -0.0100
v 0.0000 0.0000 -0.0100
v 0.0000 0.0000 -0.0100
v 0.0000 0.0000 -0.0100
v 0.0000 0.0000 -2.5600
v 0.0000 0.0000 -38.5600
v 0.0000 0.0000 -0.0100
v 0.0000 0.0000 -0.0100
v 0.0000 0.0000 -38.5600
v -6.8800 0.0000 0.0000
v -33.2800 0.0000 18.2300
v -27.2000 2.5600 15.3600
v -6.8800 0.0000 0.0000
v -7.5200 0.0000 0.6400
v -33.2800 0.0000 18.3500
v -27.4400 11.5200 2.5700
v -27.4400 6.7200 5.1200
v -27.4400 6.8000 7.6800
v -27.4400 6.8400 10.2400
v -7.5200 0.0000 0.6400
v -33.2800 0.0000 18.3500
v -6.8800 0.0000 0.0000
v -27.5200 20.4800 0.0900
v -27.5200 6.7200 5.2000
v -27.5200 6.8400 10.3200
v -33.2800 0.0000 18.3500
v 31.9700 34.5300 -34.6000
vt 0.0000 0.0000
vt 0.0000 0.0127
vt 0.0000 0.0146
vt 0.0088 0.0107
vt 0.0000 0.0049
vt -0.0059 0.0098
vt -0.0137 0.0195
vt -0.0078 0.0215
vt -0.0146 0.0137
vt -0.0059 0.0117
vt 0.0000 0.0049
vt 0.0000 0.0127
vt 0.0000 0.0352
vt -2.6719 0.0000
vt -2.6797 2.0000
vt -6.5000 0.0000
vt -3.2500 0.0000
vt -6.5000 0.0000
vt -2.6797 2.0000
vt -3.4688 8.5020
vt -3.4844 8.2520
vt -3.4922 8.1270
vt -3.4961 8.0645
vt -6.5000 0.0000
vt -2.6875 2.0000
vt -3.2500 0.0000
vt -2.6875 1.1250
vt -2.6875 0.6641
vt -0.7344 0.0000
vt -0.7344 0.0000
vt -11.3867 -13.3906
f 3/3 30/30 29/29
f 3/3 29/29 28/28
f 3/3 28/28 1/1
f 10/10 12/12 9/9
f 13/13 5/5 14/14
f 12/12 15/15 11/11
f 28/28 26/26 27/27
f 28/28 27/27 29/29
f 19/19 16/16 20/20
f 1/1 13/13 14/14
f 15/15 5/5 1/1
f 14/14 15/15 1/1
f 22/22 26/26 19/19
