# Conker's Bad Fur Day — Real 3D Model (Multiplayer Level Models)
o assets09_model_369

v 0.0000 10.3200 0.0000
v -27.3600 0.0000 17.9200
v -7.5200 0.0000 0.6400
v -33.2800 0.0000 18.5500
v -6.8800 0.0000 0.0000
v -7.5200 0.0000 0.6400
v 12.9800 25.8000 0.0000
v -6.8800 0.0000 0.0000
v -27.4400 20.4800 0.0100
v -7.5200 0.0000 0.6400
v -33.2800 0.0000 18.0300
vt 0.0000 0.0000
vt -3.2500 0.0000
vt -2.6562 0.2500
vt -2.6797 4.0000
vt -3.2500 0.0000
vt -6.5000 0.0000
vt -6.2500 0.0000
vt -3.2500 0.0000
vt -3.4375 9.0020
vt -6.5000 0.0000
vt -2.6797 1.0000
f 10/10 6/6 11/11
