# Conker's Bad Fur Day — Real 3D Model (Bat's Tower Level Models)
o assets0A_model_027

v 0.0000 0.9600 0.0000
v 0.0000 1.4400 0.0000
v 0.0000 3.0400 0.0000
v 0.0000 4.6400 0.0000
v 0.0000 6.5600 0.0000
v 0.0000 8.1600 0.0000
v 0.0300 0.1100 0.0600
v -6.6400 0.0000 0.0000
v 0.0300 0.4100 0.1200
v -5.9900 -0.0200 -0.3300
v -0.3300 -13.9300 1.9000
v 1.9000 0.0000 -5.9900
v -5.9900 -0.0200 -0.3300
v -0.3300 -13.9300 1.9000
v 1.9000 0.0000 -5.9900
v -5.9900 -0.0200 -0.3300
v -0.3300 -13.9300 1.9000
v 0.0300 0.4100 0.1200
v -5.5300 0.0000 -3.7600
v -3.7600 -1.1600 8.1100
v 8.1100 0.0000 -2.0800
v -1.2200 0.0000 -3.7600
v -3.7600 -1.1600 8.1100
v 8.1100 0.0000 -7.5500
v -8.1600 0.0000 -3.7600
v -3.7600 -1.1600 8.1100
v 0.0300 0.5100 0.1200
v -5.9100 0.0000 0.3900
v 0.3900 -13.5500 1.7700
v 1.7700 0.0000 -5.9100
v -5.9100 0.0000 0.3900
v 0.3900 -13.5500 1.7700
v 1.7700 0.0000 -5.9100
v -5.9100 0.0000 0.3900
v 0.3900 -13.5500 1.7700
v 1.7700 0.0000 -5.9100
v -5.9100 0.0000 0.3900
v 0.0300 0.4000 0.1200
v -6.0400 -0.1300 -4.1200
v -4.1200 -1.1700 8.1200
v 8.1200 0.0100 -6.0400
v -6.0400 -0.1300 -4.1200
v -4.1200 -1.1700 8.1200
v 8.1200 0.0100 -6.0400
v -6.0400 -0.1300 -4.1200
v -4.1200 -1.1700 8.1200
v 0.0300 1.2800 0.1200
v -6.2400 0.0000 -3.3700
v -3.3700 -1.0200 8.9500
v 8.9500 0.0000 -6.2400
v -6.2400 0.0000 -3.3700
v -3.3700 -1.0200 8.9500
v 8.9500 0.0000 -6.2400
v -6.2400 0.0000 -3.3700
v -3.3700 -1.0200 8.9500
v 8.9500 0.0000 -6.2400
v -6.2400 0.0000 -3.3700
v -3.3700 -1.0200 8.9500
v 8.9500 0.0000 -6.2400
v -6.2400 0.0000 -3.3700
v -3.3700 -1.0200 8.9500
v 8.9500 0.0000 -6.2400
v -6.2400 0.0000 -3.3700
v -3.3700 -1.0200 8.9500
v 8.9500 0.0000 -6.2400
v -6.2400 0.0000 -3.3700
v -3.3700 -1.0200 8.9500
v 8.9500 0.0000 -6.2400
v -6.2400 0.0000 -3.3700
v -3.3700 -1.0200 8.9500
v 8.9500 0.0000 -6.2400
vt 0.0000 0.1172
vt 0.0000 0.1641
vt 0.0000 0.3203
vt 0.0000 0.4766
vt 0.0000 0.6641
vt 0.0000 0.8203
vt 0.7500 16.0000
vt 0.0000 0.0000
vt 0.7500 -16.0000
vt 0.1855 0.0000
vt -0.5850 -0.0020
vt -0.0322 -1.3604
vt 0.1855 0.0000
vt -0.5850 -0.0020
vt -0.0322 -1.3604
vt 0.1855 0.0000
vt -0.5850 -0.0020
vt 0.7500 -16.0000
vt 0.7920 0.0000
vt -0.3096 0.0000
vt -0.3672 -0.1133
vt 0.7920 0.0000
vt -0.3154 0.0000
vt -0.3672 -0.1133
vt 0.7920 0.0000
vt -0.7373 0.0000
vt 0.7500 -16.0000
vt 0.1729 0.0000
vt -0.5771 0.0000
vt 0.0381 -1.3232
vt 0.1729 0.0000
vt -0.5771 0.0000
vt 0.0381 -1.3232
vt 0.1729 0.0000
vt -0.5771 0.0000
vt 0.0381 -1.3232
vt 0.1729 0.0000
vt 0.7500 -16.0000
vt 0.7930 0.0010
vt -0.5898 -0.0127
vt -0.4023 -0.1143
vt 0.7930 0.0010
vt -0.5898 -0.0127
vt -0.4023 -0.1143
vt 0.7930 0.0010
vt -0.5898 -0.0127
vt 0.7500 -16.0000
vt 0.8740 0.0000
vt -0.6094 0.0000
vt -0.3291 -0.0996
vt 0.8740 0.0000
vt -0.6094 0.0000
vt -0.3291 -0.0996
vt 0.8740 0.0000
vt -0.6094 0.0000
vt -0.3291 -0.0996
vt 0.8740 0.0000
vt -0.6094 0.0000
vt -0.3291 -0.0996
vt 0.8740 0.0000
vt -0.6094 0.0000
vt -0.3291 -0.0996
vt 0.8740 0.0000
vt -0.6094 0.0000
vt -0.3291 -0.0996
vt 0.8740 0.0000
vt -0.6094 0.0000
vt -0.3291 -0.0996
vt 0.8740 0.0000
vt -0.6094 0.0000
vt -0.3291 -0.0996
f 1/1 2/2 3/3
f 4/4 5/5 6/6
f 7/7 8/8 9/9
f 10/10 11/11 12/12
f 13/13 14/14 15/15
f 16/16 17/17 18/18
f 19/19 20/20 21/21
f 22/22 23/23 24/24
f 25/25 26/26 27/27
f 28/28 29/29 30/30
f 31/31 32/32 33/33
f 34/34 35/35 36/36
f 37/37 38/38 39/39
f 40/40 41/41 42/42
f 43/43 44/44 45/45
f 46/46 47/47 48/48
f 49/49 50/50 51/51
f 52/52 53/53 54/54
f 55/55 56/56 57/57
f 58/58 59/59 60/60
f 61/61 62/62 63/63
f 64/64 65/65 66/66
f 67/67 68/68 69/69
