# Conker's Bad Fur Day — Real 3D Model (Multiplayer Level Models)
o assets09_model_147

v 0.0000 25.5200 0.0000
v 0.3600 4.5100 -0.0100
v 0.3300 10.0200 -0.0100
v 2.6500 10.1800 -0.0100
v 2.6900 4.6700 -0.0100
v 5.1600 9.9500 -0.0100
v -0.1000 5.8600 -0.0100
v 5.1400 4.8100 -0.0100
v -0.2200 10.2200 -0.0100
v 5.1600 9.9500 -0.0100
v -0.1000 5.8600 -0.0100
v 5.1400 4.8100 -0.0100
v 4.7600 8.3500 -0.0100
v 2.9300 6.7700 -0.0100
v 4.6100 0.7200 -0.0100
v 0.3900 0.2100 -0.0100
v 2.7200 0.3700 -0.0100
v 0.0600 0.0500 -0.0100
v 5.1200 0.8000 -0.0100
v 0.0600 0.0500 -0.0100
v 5.1200 0.8000 -0.0100
v 0.4800 -0.0200 -0.0100
v 5.1200 0.0000 -0.0100
v 5.1200 5.1200 -0.0100
v 0.5700 5.1500 -0.0100
v 5.1200 5.1200 -0.0100
v 0.5700 5.1500 -0.0100
v 5.1200 0.0000 -0.0100
v 0.4800 -0.0200 -0.0100
v 0.6700 0.0200 -0.0100
v 5.1200 0.0000 -0.0100
v 5.1100 5.0200 -0.0100
v 0.4500 5.0200 -0.0100
v 0.4500 5.0200 -0.0100
v 5.1100 5.0200 -0.0100
v 0.6700 0.0200 -0.0100
v 5.1200 0.0000 -0.0100
v 0.5700 0.0300 -0.0100
v 5.1200 0.0000 -0.0100
v 5.1200 5.1200 -0.0100
v 0.6700 5.1400 -0.0100
v 5.1200 5.1200 -0.0100
v 0.6700 5.1400 -0.0100
v 0.5700 0.0300 -0.0100
v 5.1200 0.0000 -0.0100
v 2.4000 5.1500 -0.0100
v 3.8700 0.0400 -0.0100
v 3.8700 0.0400 -0.0100
v 2.4000 5.1500 -0.0100
v 19.7300 5.1800 -0.0100
v 20.3200 0.0800 -0.0100
v 5.5000 0.8900 -0.0100
v 6.8400 4.9900 -0.0100
v -0.1200 4.8800 -0.0100
v 5.5000 0.8900 -0.0100
v 6.8400 4.9900 -0.0100
v 19.7300 5.1800 -0.0100
v 20.3200 0.0800 -0.0100
v -0.1200 4.8800 -0.0100
v -0.0900 3.2300 -0.0100
v 7.6100 3.5200 -0.0100
v 7.3200 7.8300 -0.0100
v -0.3700 7.5400 -0.0100
v 0.2500 7.7200 -0.0100
v 8.1700 7.7800 -0.0100
v 7.9500 1.1700 -0.0100
v 0.0300 1.1100 -0.0100
v 7.9500 1.1700 -0.0100
v 0.2500 7.7200 -0.0100
v 0.0300 1.1100 -0.0100
v 8.1700 7.7800 -0.0100
v 0.0000 0.0000 -0.0100
v 5.1200 5.1200 -0.0100
v 0.0000 5.1200 -0.0100
v 5.1200 0.0000 -0.0100
v 0.1900 4.8900 -0.0100
v 5.0100 0.3700 -0.0100
v 0.0900 0.3300 -0.0100
v 0.0900 0.3300 -0.0100
v 0.1900 4.8900 -0.0100
v 5.1100 4.8000 -0.0100
v 0.1500 4.8600 -0.0100
v 5.0900 2.4800 -0.0100
v 0.1400 2.5300 -0.0100
v 0.1400 2.5300 -0.0100
v 5.0900 2.4800 -0.0100
v 0.1200 0.2100 -0.0100
v 5.0800 0.1500 -0.0100
v 2.0700 1.8200 -0.0100
v 0.0300 1.6300 -0.0100
v 1.0700 0.1100 -0.0100
v 1.0300 3.3400 -0.0100
v 5.1000 4.6000 -0.0100
v 0.1500 4.7100 -0.0100
v 0.1200 0.5700 -0.0100
v 5.0700 0.4500 -0.0100
v 0.0800 0.4600 -0.0100
v 5.1100 4.7500 -0.0100
v 5.0500 0.6800 -0.0100
v 0.1400 4.5300 -0.0100
v 0.1100 4.7300 -0.0100
v 0.0900 0.4600 -0.0100
v 5.1300 4.6800 -0.0100
v 5.1300 4.6800 -0.0100
v 0.0900 0.4600 -0.0100
v 5.1100 0.4100 -0.0100
v 7.9400 7.4200 -0.0100
v 0.2100 6.4900 -0.0100
v 1.3600 3.3600 -0.0100
v 8.6000 5.6000 -0.0100
v 8.4500 7.6600 -0.0100
v -0.0600 1.9000 -0.0100
v 8.3900 4.6600 -0.0100
v 0.0600 8.2700 -0.0100
v 0.0600 8.2700 -0.0100
v 8.4500 7.6600 -0.0100
v -0.0600 1.9000 -0.0100
v 8.3900 4.6600 -0.0100
v 6.5300 3.6100 -0.0100
v 6.3400 6.5300 -0.0100
v -0.6300 4.2100 -0.0100
v 20.1300 8.4100 -0.0100
v 10.4800 4.1500 -0.0100
v 10.5600 8.3500 -0.0100
v 17.9100 4.2100 -0.0100
v 20.0800 5.8700 -0.0100
v -1.2800 4.4500 -0.0100
v -0.3600 2.6900 -0.0100
v 7.5700 6.8300 -0.0100
v 8.4900 5.0700 -0.0100
v 4.3800 1.8300 -0.0100
v 4.6700 6.8500 -0.0100
v 1.2900 6.6800 -0.0100
v 1.0100 1.6600 -0.0100
v 17.9100 4.2100 -0.0100
v 20.0800 5.8700 -0.0100
v 6.1100 4.0100 -0.0100
v 5.5000 6.1700 -0.0100
v 1.1500 2.8000 -0.0100
v 0.5300 4.9500 -0.0100
v 20.1300 8.4100 -0.0100
v 10.4800 4.1500 -0.0100
v 17.9100 4.2100 -0.0100
v 20.0800 5.8700 -0.0100
v 10.5600 8.3500 -0.0100
v 8.3900 4.6600 -0.0100
v 10.4800 4.1500 -0.0100
v 8.4500 7.6600 -0.0100
v 8.3900 4.6600 -0.0100
v 10.5600 8.3500 -0.0100
v 8.4500 7.6600 -0.0100
v 0.1900 4.8900 -0.0100
v 5.0100 0.3700 -0.0100
v 0.0900 0.3300 -0.0100
v 0.0900 0.3300 -0.0100
v 5.1200 0.0000 -0.0100
v 5.1200 4.8100 -0.0100
v 0.0000 0.0000 -0.0100
v 0.0000 4.8100 -0.0100
v -28.0000 0.0000 17.9200
v -33.2800 0.0000 18.0700
v -28.1600 2.5600 15.3600
v -7.5200 0.0000 0.6400
v -7.5200 0.0000 0.0000
v -33.2800 0.0000 17.9900
v -28.0800 10.2400 0.0100
v -7.5200 0.0000 15.3600
v -7.5200 0.0000 0.6400
v -7.5200 0.0000 0.6400
v 2.5800 0.6400 2.5600
v -7.5200 0.0000 0.6400
v 12.8000 5.1600 0.0000
v -7.5200 0.0000 0.0000
v -33.2800 0.0000 18.5500
v -7.5200 0.0000 0.0000
v -33.2800 0.0000 17.9900
v -28.0800 10.2400 0.0100
v -27.9200 0.0000 17.9200
v -33.2800 0.0000 18.0700
v -27.9200 20.4800 0.0900
v -1.4100 1.2300 -14.1200
v 1.4800 1.4800 24.4300
v 24.2100 1.2600 0.6300
vt 0.0000 2.4961
vt -0.0684 -0.0088
vt -0.0684 -0.0186
vt -0.0537 -0.0186
vt -0.0684 -0.0186
vt -0.0391 -0.0137
vt -0.0537 -0.0186
vt -0.0518 -0.0137
vt -0.0684 -0.0088
vt -0.0391 -0.0137
vt -0.0537 -0.0088
vt -0.0684 -0.0186
vt -0.0684 -0.0088
vt -0.0518 -0.0137
vt -0.0508 -0.0088
vt -0.0508 -0.0186
vt -0.0352 -0.0137
vt -0.0508 -0.0186
vt -0.0352 -0.0137
vt -0.0508 -0.0088
vt 0.0000 0.0049
vt 0.0000 -0.0049
vt 0.0000 -0.0049
vt 0.0000 0.0049
vt 0.0000 -0.0049
vt 0.0000 0.0049
vt 0.0000 -0.0049
vt 0.0000 0.0049
vt 0.0068 0.0049
vt 0.0068 -0.0049
vt 0.0068 -0.0049
vt 0.0068 0.0049
vt 0.0068 0.0049
vt 0.0068 -0.0049
vt 0.0068 0.0049
vt 0.0068 -0.0049
vt 0.0000 0.0049
vt 0.0000 -0.0049
vt 0.0000 -0.0049
vt 0.0000 0.0049
vt 0.0000 -0.0049
vt 0.0000 0.0049
vt 0.0000 0.0049
vt 0.0000 -0.0049
vt 0.0400 -0.0137
vt -0.0996 -0.0137
vt -0.0996 -0.0137
vt 0.0400 -0.0137
vt -0.1182 -0.0107
vt -0.1182 -0.0137
vt -0.1504 -0.0137
vt -0.1465 -0.0117
vt -0.1621 -0.0137
vt -0.1504 -0.0137
vt -0.1465 -0.0156
vt -0.1182 -0.0166
vt -0.1182 -0.0137
vt -0.1621 -0.0137
vt -0.0996 -0.0107
vt -0.1182 -0.0107
vt -0.1182 -0.0166
vt -0.0996 -0.0166
vt -0.0996 -0.0166
vt -0.1182 -0.0166
vt -0.1182 -0.0137
vt -0.0996 -0.0137
vt -0.1182 -0.0137
vt -0.0996 -0.0107
vt -0.0996 -0.0137
vt -0.1182 -0.0107
vt -0.1113 -0.0059
vt -0.1113 -0.0215
vt -0.1113 -0.0137
vt -0.1113 -0.0137
vt -0.1006 -0.0137
vt -0.1113 -0.0137
vt -0.1113 -0.0166
vt -0.1113 -0.0117
vt -0.1006 -0.0137
vt -0.1113 -0.0137
vt -0.1006 -0.0137
vt -0.1113 -0.0059
vt -0.1006 -0.0059
vt -0.1006 -0.0215
vt -0.1113 -0.0215
vt -0.1006 -0.0137
vt -0.1113 -0.0137
vt -0.1006 -0.0059
vt -0.1006 -0.0215
vt -0.1006 -0.0137
vt -0.1006 -0.0137
vt -0.1006 -0.0088
vt -0.0693 -0.0088
vt -0.0693 -0.0186
vt -0.1006 -0.0186
vt -0.0693 -0.0186
vt -0.1006 -0.0137
vt -0.1006 -0.0186
vt -0.0693 -0.0137
vt -0.0693 -0.0137
vt -0.0693 -0.0088
vt -0.1006 -0.0137
vt -0.1006 -0.0137
vt -0.0693 -0.0088
vt -0.1006 -0.0088
vt -0.0059 -0.0205
vt 0.0400 -0.0264
vt 0.0400 -0.0020
vt -0.0059 -0.0068
vt -0.0059 -0.0068
vt 0.0400 -0.0137
vt -0.0059 -0.0137
vt 0.0400 -0.0020
vt 0.0400 -0.0264
vt -0.0059 -0.0205
vt 0.0400 -0.0137
vt -0.0059 -0.0137
vt 0.0400 -0.0020
vt 0.0400 -0.0264
vt 0.0400 -0.0137
vt -0.0693 -0.0225
vt -0.0166 -0.0225
vt -0.0166 -0.0225
vt -0.0576 -0.0225
vt -0.0693 -0.0225
vt -0.0166 -0.0225
vt -0.0166 -0.0049
vt -0.0693 -0.0225
vt -0.0693 -0.0049
vt -0.0693 -0.0225
vt -0.0693 -0.0225
vt -0.0693 -0.0049
vt -0.0693 -0.0049
vt -0.0576 -0.0049
vt -0.0693 -0.0049
vt -0.0576 -0.0225
vt -0.0576 -0.0049
vt -0.0166 -0.0225
vt -0.0166 -0.0049
vt -0.0693 -0.0049
vt -0.0166 -0.0049
vt -0.0576 -0.0049
vt -0.0693 -0.0049
vt -0.0166 -0.0049
vt -0.0059 -0.0137
vt -0.0166 -0.0225
vt -0.0059 -0.0205
vt -0.0059 -0.0137
vt -0.0166 -0.0225
vt -0.0059 -0.0068
vt -0.0293 -0.0137
vt -0.0234 -0.0137
vt -0.0215 -0.0176
vt -0.0215 -0.0098
vt -0.0342 -0.0137
vt -0.0342 -0.0137
vt -0.0166 -0.0137
vt -0.0166 -0.0137
vt 0.0000 2.5781
vt -6.5000 0.0000
vt -6.2500 0.0000
vt -6.5000 0.0000
vt -4.0000 0.0000
vt -6.5000 0.0000
vt -6.2500 0.0000
vt -3.5000 8.0020
vt -4.0000 0.0000
vt -4.0000 0.0000
vt -4.0000 0.0000
vt 1.5000 0.5039
vt -4.0000 0.0000
vt -6.2500 0.0000
vt -6.5000 0.0000
vt -6.2500 0.0000
vt -6.5000 0.0000
vt -6.2500 0.0000
vt -3.5000 8.0020
vt -6.5000 0.0000
vt -6.2500 0.0000
vt -4.2266 11.0615
vt -3.3711 -1.3711
vt 0.1396 0.1104
vt 0.0000 0.0000
f 128/128 1/1 83/83
f 128/128 128/128 128/128
f 128/128 1/1 83/83
f 128/128 128/128 128/128
f 128/128 1/1 83/83
f 128/128 128/128 128/128
f 19/19 11/11 20/20
f 10/10 4/4 3/3
f 19/19 20/20 21/21
f 22/22 20/20 19/19
f 15/15 18/18 20/20
f 1/1 2/2 3/3
f 4/4 2/2 1/1
f 29/29 27/27 26/26
f 30/30 31/31 32/32
f 1/1 2/2 3/3
f 16/16 17/17 18/18
f 18/18 17/17 19/19
f 17/17 16/16 19/19
f 20/20 21/21 22/22
f 22/22 21/21 23/23
f 1/1 12/12 1/1
f 1/1 4/4 1/1
