# Conker's Bad Fur Day — Real 3D Model (Sloprano Models)
o assets0E_model_010

v 0.0200 0.0000 0.0000
v 0.0200 0.0000 0.0000
v 0.0200 0.0000 0.0000
v 0.0200 0.0000 0.0000
v 2.5800 0.0000 0.0000
v 2.5800 0.0000 0.0000
v 2.5800 0.0000 0.0000
v 20.4800 0.0000 0.0000
v 20.4800 0.0000 0.0000
v 20.4800 0.0000 0.0000
vt 0.0312 0.0967
vt 0.0312 0.0967
vt 0.0312 0.0967
vt 0.0312 0.0967
vt 0.0000 0.0947
vt 0.0000 0.0947
vt 0.0000 0.5938
vt 0.0078 0.0195
vt 0.0078 0.0195
vt 0.0000 0.0654
f 1/1 1/1 1/1
f 1/1 1/1 1/1
