mtllib assets09_model_013.mtl
# Conker's Bad Fur Day — Real 3D Model (Multiplayer Level Models)
o assets09_model_013
usemtl assets09_model_013_mat

v 0.0000 20.5600 0.0000
v 4.8100 11.1600 -2.5800
v -0.8300 -0.4400 -2.5800
v 5.0000 -0.4900 -2.5800
v 10.8400 -0.5200 -2.5800
v 16.6700 -0.5100 -2.5800
v 16.3400 11.1400 -2.5800
v 10.5800 11.1400 -2.5800
v 22.5000 -0.4800 -2.5800
v 22.1000 11.1800 -2.5800
v -0.9500 11.2100 -2.5800
v 0.0000 0.0000 -0.0100
v 0.0000 0.0000 -0.0100
v 0.0000 0.0000 -0.0100
v 0.0000 0.0000 -0.0100
v 0.0000 0.0000 -0.0100
v 0.0000 0.0000 -0.0100
v 0.0000 0.0000 -0.0100
v 0.0000 0.0000 -0.0100
v 0.0000 0.0000 -0.0100
v 0.0000 0.0000 -0.0100
v 0.0000 0.0000 -0.0100
v 0.0000 0.0000 -0.0100
v 0.0000 0.0000 -0.0100
v 0.0000 0.0000 -0.0100
v 0.0000 0.0000 -0.0100
v 0.0000 0.0000 -0.0100
v 0.0000 0.0000 -0.0100
v 0.0000 0.0000 -0.0100
v 0.0000 0.0000 -0.0100
v 0.0000 0.0000 -0.0100
v 0.0000 0.0000 -0.0100
v 0.0000 0.0000 -0.0100
v 0.0000 0.0000 -0.0100
v 0.0000 0.0000 -0.0100
v 0.0000 0.0000 -0.0100
v 0.0000 0.0000 -0.0100
v 0.0000 0.0000 -0.0100
v 0.0000 0.0000 -0.0100
v 0.0000 0.0000 -0.0100
v 0.0000 0.0000 -0.0100
v 0.0000 0.0000 -0.0100
v 0.0000 0.0000 -0.0100
v 0.0000 0.0000 -0.0100
v 0.0000 0.0000 -0.0100
v 0.0000 0.0000 -0.0100
v 0.0000 0.0000 -0.0100
v 0.0000 0.0000 -0.0100
v 0.0000 0.0000 -0.0100
v 0.0000 0.0000 -0.0100
v 0.0000 0.0000 -0.0100
v 0.0000 0.0000 -0.0100
v 0.0000 0.0000 -0.0100
v 0.0000 0.0000 -0.0100
v 0.0000 0.0000 -0.0100
v 0.0000 0.0000 -0.0100
v 0.0000 0.0000 -0.0100
v 0.0000 0.0000 -0.0100
v 0.0000 0.0000 -0.0100
v 0.0000 0.0000 -0.0100
v 0.0000 0.0000 -0.0100
v 0.0000 0.0000 -0.0100
v 0.0000 0.0000 -0.0100
v 0.0000 0.0000 -0.0100
v 0.0000 0.0000 -0.0100
v 0.0000 0.0000 -0.0100
v 0.0000 0.0000 -0.0100
v 0.0000 0.0000 -0.0100
v 0.0000 0.0000 -0.0100
v 0.0000 0.0000 -0.0100
v 0.0000 0.0000 -0.0100
v 0.0000 0.0000 -0.0100
v 0.0000 0.0000 -0.0100
v 0.0000 0.0000 -0.0100
v 0.0000 0.0000 -0.0100
v 0.0000 0.0000 -0.0100
v 0.0000 0.0000 -0.0100
v 0.0000 0.0000 -0.0100
v 0.0000 0.0000 -0.0100
v 0.0000 0.0000 -0.0100
v 0.0000 0.0000 -0.0100
v 0.0000 0.0000 -0.0100
v 0.0000 0.0000 -0.0100
v 0.0000 0.0000 -0.0100
v 0.0000 0.0000 -0.0100
v 0.0000 0.0000 -0.0100
v 0.0000 0.0000 -0.0100
v 0.0000 0.0000 -0.0100
v 0.0000 0.0000 -0.0100
v 0.0000 0.0000 -0.0100
v 0.0000 0.0000 -0.0100
v 0.0000 0.0000 -0.0100
v 0.0000 0.0000 -0.0100
v 0.0000 0.0000 -0.0100
v 0.0000 0.0000 -0.0100
v 0.0000 0.0000 -0.0100
v 0.0000 0.0000 -0.0100
v 0.0000 0.0000 -0.0100
v 0.0000 0.0000 -0.0100
v 0.0000 0.0000 -0.0100
v 0.0000 0.0000 -0.0100
v 0.0000 0.0000 -0.0100
v 0.0000 0.0000 -0.0100
v 0.0000 0.0000 -0.0100
v 0.0000 0.0000 -0.0100
v 0.0000 0.0000 -0.0100
v 0.0000 0.0000 -0.0100
v 0.0000 0.0000 -0.0100
v 0.0000 0.0000 -0.0100
v 0.0000 0.0000 -0.0100
v 0.0000 0.0000 -0.0100
v 0.0000 0.0000 -0.0100
v 0.0000 0.0000 -0.0100
v 0.0000 0.0000 -0.0100
v 0.0000 0.0000 -0.0100
v 0.0000 0.0000 -0.0100
v 0.0000 0.0000 -0.0100
v 0.0000 0.0000 -0.0100
v 0.0000 0.0000 -0.0100
v 0.0000 0.0000 -0.0100
v 0.0000 0.0000 -0.0100
v 0.0000 0.0000 -0.0100
v 0.0000 0.0000 -0.0100
v 0.0000 0.0000 -0.0100
v 0.0000 0.0000 -0.0100
v 0.0000 0.0000 -0.0100
v 0.0000 0.0000 -0.0100
v 0.0000 0.0000 -0.0100
v -28.0000 0.0000 17.9200
v -33.2800 0.0000 18.5500
v -28.1600 2.5600 15.3600
v -7.5200 0.0000 0.6400
v -7.5200 0.0000 0.6400
v 2.5800 0.6400 2.5600
v 15.8800 10.3200 0.5000
v 6.3800 6.3800 6.3800
vt 0.0000 0.0000
vt -0.0879 -0.0684
vt -0.0527 -0.0898
vt -0.0156 -0.0703
vt -0.0146 -0.0283
vt -0.0156 -0.0273
vt -0.0166 -0.0684
vt -0.0508 -0.0068
vt -0.0508 -0.0059
vt -0.0879 -0.0674
vt -0.0508 -0.0068
vt -0.0146 -0.0283
vt -0.0225 -0.0322
vt -0.0869 -0.0273
vt -0.0508 -0.0146
vt -0.0879 -0.0684
vt -0.0801 -0.0312
vt -0.0508 -0.0254
vt -0.0332 -0.0371
vt -0.0156 -0.0273
vt -0.0703 -0.0361
vt -0.0508 -0.0059
vt -0.0869 -0.0264
vt -0.0703 -0.0576
vt -0.0879 -0.0674
vt -0.0527 -0.0898
vt -0.0811 -0.0654
vt -0.0156 -0.0703
vt -0.0518 -0.0820
vt -0.0225 -0.0664
vt -0.0518 -0.0684
vt -0.0332 -0.0576
vt -0.0527 -0.0889
vt -0.0166 -0.0684
vt -0.0518 -0.0273
vt -0.0352 -0.0371
vt -0.0391 -0.0391
vt -0.0674 -0.0361
vt -0.0518 -0.0312
vt -0.0645 -0.0391
vt -0.0615 -0.0400
vt -0.0518 -0.0342
vt -0.0518 -0.0342
vt -0.0420 -0.0400
vt -0.0352 -0.0371
vt -0.0684 -0.0547
vt -0.0674 -0.0361
vt -0.0645 -0.0391
vt -0.0615 -0.0518
vt -0.0615 -0.0400
vt -0.0645 -0.0527
vt -0.0703 -0.0361
vt -0.0518 -0.0645
vt -0.0361 -0.0557
vt -0.0518 -0.0605
vt -0.0391 -0.0537
vt -0.0518 -0.0684
vt -0.0420 -0.0518
vt -0.0518 -0.0576
vt -0.0391 -0.0391
vt -0.0332 -0.0576
vt -0.0703 -0.0576
vt -0.0518 -0.0312
vt -0.0332 -0.0371
vt -0.0225 -0.0322
vt -0.0508 -0.0146
vt -0.0508 -0.0068
vt -0.0801 -0.0312
vt -0.0869 -0.0273
vt -0.0518 -0.0488
vt -0.0811 -0.0654
vt -0.0879 -0.0684
vt -0.0156 -0.0273
vt -0.0508 -0.0059
vt -0.0508 -0.0254
vt -0.0869 -0.0264
vt -0.0703 -0.0361
vt -0.0508 -0.0068
vt -0.0869 -0.0273
vt -0.0879 -0.0674
vt -0.0703 -0.0576
vt -0.0879 -0.0684
vt -0.0811 -0.0654
vt -0.0518 -0.0820
vt -0.0527 -0.0898
vt -0.0225 -0.0664
vt -0.0156 -0.0703
vt -0.0518 -0.0488
vt -0.0225 -0.0322
vt -0.0146 -0.0283
vt -0.0527 -0.0889
vt -0.0518 -0.0684
vt -0.0166 -0.0684
vt -0.0332 -0.0576
vt -0.0332 -0.0371
vt -0.0391 -0.0391
vt -0.0518 -0.0312
vt -0.0518 -0.0273
vt -0.0645 -0.0391
vt -0.0674 -0.0361
vt -0.0615 -0.0400
vt -0.0352 -0.0371
vt -0.0518 -0.0342
vt -0.0645 -0.0391
vt -0.0645 -0.0527
vt -0.0684 -0.0547
vt -0.0674 -0.0361
vt -0.0615 -0.0518
vt -0.0703 -0.0361
vt -0.0703 -0.0576
vt -0.0518 -0.0605
vt -0.0518 -0.0645
vt -0.0391 -0.0537
vt -0.0361 -0.0557
vt -0.0518 -0.0684
vt -0.0332 -0.0576
vt -0.0420 -0.0518
vt -0.0518 -0.0576
vt -0.0391 -0.0391
vt -0.0352 -0.0371
vt -0.0420 -0.0400
vt -0.0332 -0.0371
vt -0.0518 -0.0312
vt -0.0508 -0.0254
vt -0.0508 -0.0146
vt -0.0225 -0.0322
vt -0.0518 -0.0488
vt 0.0000 2.0156
vt -6.5000 0.0000
vt -6.2500 0.0000
vt -6.5000 0.0000
vt -4.0000 0.0000
vt -4.0000 0.0000
vt 4.9072 5.0996
vt 1.3066 12.5586
vt -24.9316 27.5508
f 66/66 128/128 103/103
f 128/128 128/128 128/128
f 50/50 3/3 46/46
f 128/128 128/128 128/128
f 30/30 29/29 8/8
f 31/31 32/32 25/25
f 26/26 24/24 28/28
f 26/26 29/29 30/30
f 29/29 26/26 28/28
f 27/27 3/3 5/5
f 26/26 28/28 29/29
f 30/30 26/26 31/31
f 20/20 19/19 21/21
f 22/22 23/23 24/24
