mtllib assets10_model_064.mtl
# Conker's Bad Fur Day — Real 3D Model (Spooky Models)
o assets10_model_064
usemtl assets10_model_064_mat

v 0.0000 1.9200 0.0000
v 0.0000 2.3200 0.0000
v 0.0000 2.6400 0.0000
v 0.0000 3.2800 0.0000
v 0.0000 4.4000 0.0000
v 0.0000 5.5200 0.0000
v 0.0000 6.5600 0.0000
v 0.0000 7.6000 0.0000
v 0.0000 8.6400 0.0000
v 0.0000 9.7600 0.0000
v 0.0000 10.8800 0.0000
v 0.0000 11.2000 0.0000
v -19.7100 2.4700 0.5300
v -19.7100 2.4700 0.5300
v 0.0000 2.4700 0.0000
v 0.0300 5.3200 -10.0700
v 2.7900 2.4700 1.9200
v 3.9400 2.4700 1.7300
v -2.2900 2.4700 -4.2600
v 3.4900 2.4700 6.2500
v -6.2600 2.4700 1.0400
v -3.6100 2.4700 -0.5900
v 1.5200 2.4700 1.0400
v -3.8700 2.4700 3.0800
v 0.6200 2.4700 -1.2600
v -1.4300 2.4700 1.3300
v 5.3400 2.4700 2.1300
v 1.6800 2.4700 2.3400
v -0.1000 2.4700 2.2300
v 2.7700 2.4700 4.3900
v -1.6800 2.4700 -1.6600
v 2.3900 2.4700 0.7400
v -0.0900 2.4700 4.4000
v -0.0500 2.4700 -3.7900
v 0.3800 2.4700 1.1700
v 1.9000 2.4700 3.9400
v 3.2100 2.4700 -0.0800
v -1.5000 2.4700 3.3500
v -2.0900 2.4700 2.2700
v 0.6500 2.4700 2.0400
v 1.7900 2.4700 -1.8300
v -1.2300 2.4700 -1.3800
v 0.8600 2.4700 -2.4200
v 1.8300 2.4700 5.8200
v 3.3600 2.4700 -0.7600
v 4.3800 2.4700 0.8200
v 1.4400 2.4700 4.6400
v -3.3400 2.4700 1.4000
v 1.7800 2.4700 -2.8100
v -2.8900 2.4700 -2.9300
v -0.8000 2.4700 3.0600
v 1.0700 2.4700 1.3200
v 0.5000 2.4700 4.0600
v 2.6100 2.4700 -1.5900
v -1.0100 2.4700 4.4800
v 0.7700 2.4700 3.1000
v 3.3900 2.4700 0.7600
v -2.7600 2.4700 -1.0300
v 4.7000 2.4700 -0.2800
v 2.6900 2.4700 3.3900
v -1.4900 2.4700 1.8500
v 3.0800 2.4700 3.5600
v 4.4300 2.4700 1.9800
v -0.9500 2.4700 0.4900
v -0.9900 2.4700 5.8300
v 1.3700 2.4700 5.5200
v -2.3700 2.4700 0.6200
v 3.3400 2.4700 0.1200
v 1.3700 2.4700 5.5200
v 1.3700 2.4700 5.5200
v -16.1000 4.8700 0.5000
vt 0.0000 0.2109
vt 0.0000 0.2422
vt 0.0000 0.2734
vt 0.0000 0.3750
vt 0.0000 0.4844
vt 0.0000 0.5859
vt 0.0000 0.6875
vt 0.0000 0.7969
vt 0.0000 0.8984
vt 0.0000 1.0078
vt 0.0000 1.0781
vt 0.0000 1.1094
vt -1.9248 0.2412
vt 0.0000 0.2412
vt 0.0029 0.5195
vt 0.2725 0.2412
vt 0.3848 0.2412
vt -0.2275 0.2412
vt 0.4033 0.2412
vt -0.2402 0.2412
vt -0.3525 0.2412
vt 0.1924 0.2412
vt -0.1572 0.2412
vt 0.4316 0.2412
vt 0.0342 0.2412
vt 0.1162 0.2412
vt 0.4219 0.2412
vt -0.0098 0.2412
vt 0.2109 0.2412
vt 0.0605 0.2412
vt -0.2744 0.2412
vt 0.2334 0.2412
vt -0.3037 0.2412
vt 0.2871 0.2412
vt 0.1855 0.2412
vt 0.3301 0.2412
vt -0.1709 0.2412
vt -0.2041 0.2412
vt -0.0293 0.2412
vt -0.1084 0.2412
vt 0.1387 0.2412
vt -0.1201 0.2412
vt -0.0596 0.2412
vt 0.2158 0.2412
vt 0.3281 0.2412
vt 0.0000 0.2412
vt -0.0020 0.2412
vt 0.1738 0.2412
vt 0.3252 0.2412
vt -0.1357 0.2412
vt 0.4629 0.2412
vt 0.1045 0.2412
vt 0.3613 0.2412
vt -0.0488 0.2412
vt -0.0986 0.2412
vt 0.3721 0.2412
vt 0.0986 0.2412
vt 0.4590 0.2412
vt 0.1689 0.2412
vt 0.2500 0.2412
vt -0.0166 0.2412
vt 0.3008 0.2412
vt 0.1406 0.2412
vt -0.2891 0.2412
vt 0.1338 0.2412
vt -0.1016 0.2412
vt 0.1074 0.2412
vt 0.4004 0.2412
vt 0.1338 0.2412
vt 0.1338 0.2412
vt -1.5723 0.4756
f 1/1 2/2 3/3
f 4/4 5/5 6/6
f 7/7 8/8 9/9
f 10/10 11/11 12/12
f 13/13 14/14 15/15
f 16/16 17/17 18/18
f 19/19 20/20 21/21
f 22/22 23/23 24/24
f 25/25 26/26 27/27
f 28/28 29/29 30/30
f 31/31 32/32 33/33
f 34/34 35/35 36/36
f 37/37 38/38 39/39
f 40/40 41/41 42/42
f 43/43 44/44 45/45
f 46/46 47/47 48/48
f 49/49 50/50 51/51
f 52/52 53/53 54/54
f 55/55 56/56 57/57
f 58/58 59/59 60/60
f 61/61 62/62 63/63
f 64/64 65/65 66/66
f 67/67 68/68 69/69
