# Conker's Bad Fur Day — Real 3D Model (Multiplayer Level Models)
o assets09_model_032

v 0.0000 6.6400 0.0000
v 5.1200 0.0000 -0.0100
v 5.1200 10.2400 -0.0100
v 0.0000 10.2400 -0.0100
v 0.0000 0.0000 -0.0100
v 1.3900 0.5100 -0.0100
v 19.2500 0.5100 -0.0100
v 19.3200 0.5100 -0.0100
v 1.4200 0.5100 -0.0100
v 20.4800 5.1200 -2.5800
v 1.0800 5.1200 -0.0100
v 0.8900 10.2400 -0.0100
v 6.4100 10.2400 -0.0100
v 6.1500 7.5400 -0.0100
v 7.0900 10.2400 -0.0100
v 6.3000 7.5300 -0.0100
v 13.6000 10.2400 -0.0100
v 14.7200 7.4900 -0.0100
v 14.3500 10.2400 -0.0100
v 19.6300 10.2400 -0.0100
v 1.1400 5.1200 -0.0100
v 6.2100 7.6100 -0.0100
v 20.4800 5.1200 -2.5800
v 14.7200 7.4900 -0.0100
v 14.2200 7.5000 -0.0100
v 20.4800 0.0000 -0.0100
v 20.4800 20.4800 -0.0100
v 0.0000 20.4800 -0.0100
v 0.0000 0.0000 -0.0100
v 20.4800 20.4800 -0.0100
v 20.4800 0.0000 -0.0100
v 0.0000 0.0000 -0.0100
v 0.0000 20.4800 -0.0100
v -28.0000 0.0000 17.9200
v -33.2800 0.0000 18.5500
v -28.1600 2.5600 15.3600
v -7.5200 0.0000 0.6400
v -7.5200 0.0000 0.6400
v -7.5200 0.0000 0.0000
v -33.2800 0.0000 18.5500
v -7.5200 0.0000 1.2800
v -7.5200 0.0000 0.0000
v -33.2800 0.0000 18.5500
vt 0.0000 0.0000
vt -0.0068 -0.0273
vt 0.0146 -0.0273
vt 0.0146 -0.0273
vt -0.0117 -0.0410
vt -0.0117 0.1064
vt 0.0215 0.1064
vt 0.0215 -0.0410
vt -0.0215 0.1074
vt -0.0225 -0.0439
vt 0.0049 -0.0449
vt 0.0049 0.0000
vt -0.0098 -0.0020
vt 0.0049 0.0059
vt -0.0098 -0.0020
vt 0.0049 0.0596
vt -0.0107 0.0625
vt 0.0049 0.0654
vt 0.0049 0.1094
vt 0.0312 -0.0430
vt 0.0186 -0.0020
vt 0.0312 0.1084
vt 0.0186 0.0645
vt 0.0186 0.0645
vt 0.0342 -0.0400
vt 0.0342 -0.0449
vt -0.0244 -0.0449
vt -0.0244 -0.0410
vt 0.0332 0.1094
vt 0.0332 0.1064
vt -0.0254 0.1055
vt -0.0254 0.1084
vt 0.0000 0.6562
vt -6.5000 0.0000
vt -6.2500 0.0000
vt -6.5000 0.0000
vt -4.0000 0.0000
vt -4.0000 0.0000
vt -6.5000 0.0000
vt -6.2500 0.0000
vt -4.0000 0.0000
vt -6.5000 0.0000
vt -6.2500 0.0000
f 41/41 3/3 1/1
f 6/6 8/8 1/1
f 6/6 1/1 4/4
f 9/9 10/10 11/11
f 9/9 11/11 12/12
f 3/3 18/18 16/16
f 4/4 3/3 16/16
f 21/21 22/22 23/23
f 24/24 21/21 23/23
f 25/25 26/26 27/27
f 28/28 25/25 27/27
