mtllib assets01_model_007.mtl
# Conker's Bad Fur Day — Real 3D Model (HUD & UI Props)
o assets01_model_007
usemtl assets01_model_007_mat

v 0.0000 33.2800 0.0000
v 0.0000 0.0000 0.3600
v 0.0000 0.0000 0.3600
v 0.0000 0.0000 0.3600
v 0.0000 0.0000 0.3600
v 0.0000 0.0000 0.3600
v 0.0000 0.0000 0.3600
v 0.0000 0.0000 0.3600
v 0.0000 0.0000 0.3600
v 0.0000 0.0000 0.3600
v 0.0000 0.0000 0.3600
v 0.0000 0.0000 0.3600
v 0.0000 0.0000 0.3600
v 0.0000 0.0000 0.3600
v 0.0000 0.0000 0.3600
v 0.0000 0.0000 0.3600
v 0.0000 0.0000 0.3600
v 0.0000 0.0000 0.3600
v 0.0000 0.0000 0.3600
v 0.0000 0.0000 0.3600
v 0.0000 0.0000 0.3600
v 0.0000 0.0000 0.3600
v 0.0000 0.0000 0.3600
v 0.0000 0.0000 0.3600
v 0.0000 0.0000 0.3600
v 1.1900 3.6400 -0.7800
v 1.1700 3.6300 -0.7800
v 1.4100 5.2700 -0.7800
v 1.4800 5.4500 -0.7800
v 3.2100 9.4400 -0.0100
v 3.2100 9.4500 -0.0100
v 2.5000 3.6500 -0.7800
v 4.1400 4.2500 -0.0100
v 3.7300 15.6600 -0.0100
v 3.8000 12.6600 -0.0100
v 6.6500 20.0200 -0.0100
v 3.8000 12.6400 -0.0100
v 6.7600 14.8000 -0.0100
v 6.7600 14.8300 -0.0100
v 6.4300 6.5200 -0.0100
v 6.4300 6.4900 -0.0100
v 10.3600 14.8500 -0.0100
v 10.2500 20.1900 -0.0100
v 10.3600 14.8800 -0.0100
v 10.3000 5.7500 -0.0100
v 6.8400 0.9000 -0.0100
v 10.2300 0.2600 -0.0100
v 10.3000 5.7100 -0.0100
v 4.1500 4.2700 -0.0100
v 2.5000 3.6500 -0.7800
v 1.1700 3.6300 0.0000
v 1.1900 3.6400 0.0000
v 2.5000 3.6500 0.0000
v 2.5000 3.6500 0.0000
v 4.1500 4.2700 0.0000
v 4.1400 4.2500 0.0000
v 4.6600 1.8200 -0.0100
v 4.1500 4.2700 0.0000
v 6.4300 6.5200 0.0000
v 6.4300 6.4900 0.0000
v 4.1400 4.2500 0.0000
v 6.8400 0.9000 -0.0100
v 6.4300 6.4900 -0.0100
v 6.4300 6.5200 -0.0100
v 4.9600 5.4100 -0.0100
v 4.6600 15.0500 -0.0100
v 10.0100 10.6600 -0.0100
v 4.6600 15.0200 -0.0100
v 4.9600 5.3800 -0.0100
v 4.3000 0.2600 -0.0100
v 4.5000 20.2800 -0.0100
v -0.0400 20.5000 -0.0100
v 0.1200 15.1100 -0.0100
v 0.1200 15.1400 -0.0100
v 0.0800 5.9200 -0.0100
v 0.0200 0.3900 -0.0100
v 0.0800 5.8900 -0.0100
v 5.1000 10.0000 -2.5800
v 0.0000 0.0000 -2.5800
v 10.2400 0.0000 -2.5800
v 5.2400 9.6700 -2.5800
v 0.0000 0.0000 -2.5800
v 10.2400 0.0000 -2.5800
v 5.2400 9.8500 -2.5800
v 0.0000 0.0000 -2.5800
v 10.2400 0.0000 -2.5800
v 4.9800 9.9500 -2.5800
v 0.0000 0.0000 -2.5800
v 10.2400 0.0000 -2.5800
v 5.2400 10.1400 -2.5800
v 0.0000 0.0000 -2.5800
v 10.2400 0.0000 -2.5800
v 16.5700 10.2400 -2.5800
v 16.5700 0.0000 -2.5800
v 3.9100 0.0000 -2.5800
v 3.9100 10.2400 -2.5800
v 0.0000 10.2400 -2.5800
v 0.0000 0.0000 -2.5800
v 10.2400 0.0000 -2.5800
v 10.2400 10.2400 -2.5800
v 20.4800 10.2400 -2.5800
v 20.4800 0.0000 -2.5800
v 0.4800 5.2600 -2.5800
v 5.1000 5.0900 -0.0100
v 8.3400 1.9500 -0.0100
v 9.7100 5.3800 -0.0100
v 9.7100 5.3800 -0.0100
v 5.1000 5.0900 -0.0100
v 8.3400 1.9500 -0.0100
v 0.4800 5.2600 -2.5800
v 5.1200 8.6200 -0.0100
v 1.8600 8.7400 -0.0100
v 8.3900 8.8300 -2.5800
v 5.1300 10.2800 -0.0100
v 1.7600 1.7900 -0.0100
v 0.3300 5.3900 -0.0100
v 5.1300 4.9800 -0.0100
v 9.9200 5.0500 -0.0100
v 5.1000 8.6600 -0.0100
v 1.7100 8.9500 -2.5800
v 8.4900 8.7100 -0.0100
v 5.0800 10.3800 -0.0100
v 8.6000 0.3600 -0.0100
v 0.3800 13.8600 -0.0100
v 1.1700 0.1000 -0.0100
v 10.2600 13.2000 -0.0100
v 7.8900 19.6800 -0.0100
v 2.1800 19.8200 -0.0100
v 1.1700 0.1000 -0.0100
v 0.3800 13.8600 -0.0100
v 8.6000 0.3600 -0.0100
v 7.8900 19.6800 -0.0100
v 10.2600 13.2000 -0.0100
v 2.1800 19.8200 -0.0100
v -2.5600 0.0000 0.0000
v 0.0100 2.5600 0.0000
v 5.1500 7.6800 0.0000
v 0.0000 10.7500 0.0000
v 0.0000 10.7600 0.3200
v 0.3200 0.3200 0.0000
v 0.0000 16.5300 0.3200
v 0.6400 0.3200 0.0000
v -28.0000 0.0000 17.9200
v -33.2800 0.0000 18.5500
v -28.1600 2.5600 15.3600
v -7.5200 0.0000 0.6400
v 12.8200 10.2400 0.0000
v -7.5200 0.0000 0.0000
v -33.2800 0.0000 18.5500
v -7.5200 0.0000 0.0000
v -33.2800 0.0000 18.2300
v -28.0800 20.4800 0.0900
v 15.3600 5.1600 0.0600
v -7.5200 0.0000 0.6400
v -7.5200 0.0000 0.6400
v -7.5200 0.0000 0.0000
v -33.2800 0.0000 18.5500
v -28.0800 20.4800 0.0900
v -7.6900 -3.6900 -27.9300
vt 0.0000 3.4375
vt 0.0068 -0.0176
vt 0.0068 -0.0176
vt -0.0049 0.0010
vt 0.0029 -0.0156
vt -0.0029 -0.0078
vt 0.0039 -0.0107
vt -0.0117 -0.0039
vt -0.0059 0.0010
vt 0.0029 -0.0156
vt 0.0000 0.0068
vt 0.0068 0.0049
vt 0.0000 0.0088
vt 0.0000 0.0029
vt 0.0000 -0.0020
vt 0.0000 0.0020
vt -0.0049 0.0010
vt 0.0000 0.0068
vt 0.0068 0.0049
vt 0.0000 0.0088
vt 0.0000 0.0029
vt 0.0000 -0.0020
vt 0.0000 0.0020
vt -0.0059 0.0010
vt -0.0029 -0.0098
vt 0.0029 -0.0098
vt 0.0039 -0.0039
vt -0.0039 -0.0039
vt 0.0078 0.0098
vt -0.0078 0.0098
vt 0.0088 -0.0098
vt 0.0156 -0.0078
vt 0.0000 0.0303
vt -0.0156 0.0205
vt 0.0000 0.0449
vt 0.0156 0.0205
vt 0.0273 0.0273
vt -0.0273 0.0273
vt -0.0293 0.0000
vt 0.0293 0.0000
vt 0.0283 0.0273
vt 0.0000 0.0449
vt -0.0283 0.0273
vt -0.0303 -0.0020
vt 0.0000 -0.0186
vt 0.0000 -0.0205
vt 0.0303 -0.0020
vt -0.0156 -0.0078
vt -0.0088 -0.0098
vt 0.0029 -0.0098
vt -0.0029 -0.0098
vt -0.0088 -0.0098
vt 0.0088 -0.0098
vt -0.0156 -0.0078
vt 0.0156 -0.0078
vt 0.0000 -0.0156
vt 0.0049 -0.0088
vt -0.0293 0.0000
vt 0.0293 0.0000
vt 0.0156 -0.0078
vt 0.0000 -0.0186
vt 0.0293 0.0000
vt -0.0293 0.0000
vt 0.0244 -0.0020
vt -0.0273 0.0273
vt 0.0000 0.0127
vt 0.0273 0.0273
vt 0.0293 -0.0039
vt 0.0000 -0.0205
vt 0.0000 0.0449
vt 0.0000 0.0449
vt 0.0283 0.0273
vt -0.0283 0.0273
vt -0.0303 -0.0020
vt 0.0000 -0.0205
vt 0.0303 -0.0020
vt -0.0059 0.0645
vt -0.0068 0.0352
vt 0.0049 0.0439
vt -0.0029 0.0762
vt 0.0049 0.0439
vt -0.0029 0.0518
vt -0.0205 0.0781
vt -0.0029 0.0518
vt -0.0195 0.0459
vt -0.0342 0.0664
vt -0.0195 0.0459
vt -0.0215 0.0361
vt -0.0254 0.0586
vt -0.0215 0.0361
vt -0.0068 0.0352
vt -0.0029 0.0518
vt -0.0010 0.0449
vt -0.0176 0.0400
vt -0.0195 0.0459
vt -0.0215 0.0361
vt -0.0195 0.0293
vt -0.0049 0.0283
vt -0.0068 0.0352
vt 0.0049 0.0439
vt 0.0068 0.0381
vt 0.0166 0.0293
vt -0.0049 0.0156
vt -0.0098 0.0117
vt 0.0010 0.0156
vt 0.0010 0.0156
vt -0.0029 0.0068
vt 0.0049 0.0137
vt -0.0186 0.0146
vt -0.0088 0.0254
vt -0.0176 0.0244
vt -0.0156 0.0205
vt -0.0117 0.0322
vt -0.0049 0.0137
vt 0.0039 0.0068
vt 0.0059 0.0156
vt 0.0137 0.0078
vt 0.0166 0.0205
vt 0.0010 0.0303
vt 0.0010 0.0264
vt 0.0166 0.0293
vt 0.0010 0.0000
vt 0.0352 0.0293
vt 0.0010 0.0000
vt 0.0352 0.0234
vt 0.0488 0.0400
vt 0.0488 0.0420
vt 0.0000 0.0000
vt -0.0332 0.0293
vt 0.0000 0.0000
vt -0.0479 0.0400
vt -0.0332 0.0234
vt -0.0479 0.0420
vt -0.0059 0.0332
vt -15.7031 -14.9297
vt 15.4766 -27.4639
vt -15.6387 6.4365
vt 0.0312 0.0625
vt 0.0000 0.9219
vt 0.0000 1.8926
vt 0.0000 1.6133
vt 0.0000 0.9209
vt -6.5000 0.0000
vt -6.2500 0.0000
vt -6.5000 0.0000
vt -4.0000 0.0000
vt -6.2500 0.0000
vt -6.5000 0.0000
vt -6.2500 0.0000
vt -6.5000 0.0000
vt -6.2500 0.0000
vt -3.5000 8.0020
vt 1.2617 3.5156
vt -4.0000 0.0000
vt -4.0000 0.0000
vt -6.5000 0.0000
vt -6.2500 0.0000
vt -3.5000 8.0020
vt -10.2500 0.0020
f 61/61 3/3 1/1
f 128/128 128/128 128/128
f 61/61 1/1 1/1
f 128/128 128/128 128/128
f 4/4 4/4 1/1
f 75/75 55/55 7/7
f 26/26 28/28 29/29
f 28/28 30/30 31/31
f 28/28 31/31 29/29
f 2/2 3/3 1/1
f 15/15 14/14 19/19
f 19/19 16/16 15/15
f 26/26 27/27 28/28
f 29/29 30/30 31/31
f 1/1 2/2 3/3
f 4/4 5/5 6/6
f 7/7 8/8 9/9
f 17/17 16/16 19/19
f 18/18 17/17 19/19
f 28/28 26/26 29/29
f 28/28 24/24 26/26
f 30/30 31/31 32/32
f 23/23 28/28 30/30
f 13/13 14/14 15/15
f 13/13 15/15 16/16
f 26/26 28/28 29/29
f 28/28 30/30 31/31
f 28/28 31/31 29/29
f 17/17 16/16 25/25
f 15/15 14/14 19/19
f 19/19 16/16 15/15
f 26/26 27/27 28/28
f 29/29 30/30 31/31
f 18/18 17/17 19/19
f 28/28 26/26 29/29
f 28/28 24/24 26/26
f 30/30 31/31 32/32
f 23/23 28/28 30/30
f 13/13 14/14 15/15
f 13/13 15/15 16/16
