mtllib assets01_model_010.mtl
# Conker's Bad Fur Day — Real 3D Model (HUD & UI Props)
o assets01_model_010
usemtl assets01_model_010_mat

v 1.5100 7.0700 -0.0100
v 0.4400 7.6800 -2.5800
v 1.4200 1.9100 -0.0100
v 1.5100 7.0700 -0.0100
v 1.4200 1.9100 -0.0100
v 20.3500 4.5900 -0.0100
v 19.5300 6.1300 -0.0100
v 16.4800 5.7900 -0.0100
v 16.5500 4.4800 -0.0100
v 13.4700 7.3100 -0.0100
v 13.0200 8.3100 -0.0100
v 14.1400 4.3600 -0.0100
v 13.2900 2.1900 -0.0100
v 13.4700 7.3100 -0.0100
v 13.0200 8.3100 -0.0100
v 8.0500 8.7700 -0.0100
v 8.5900 7.3900 -0.0100
v 8.7400 3.9700 -0.0100
v 8.3300 1.5500 -0.0100
v 8.0500 8.7700 -0.0100
v 8.5900 7.3900 -0.0100
v 8.7400 3.9700 -0.0100
v 1.4200 1.9100 -0.0100
v 1.5100 7.0700 -0.0100
v 20.3500 4.5900 -0.0100
v 19.5300 6.1300 -0.0100
v 16.5500 4.4800 -0.0100
v 16.4800 5.7900 -0.0100
v 9.5900 11.8400 -0.0100
v 3.2500 6.1100 -0.0100
v 2.7800 9.0900 -0.0100
v 10.3600 0.1500 -0.0100
v 3.2500 6.1100 -0.0100
v 10.3600 0.1500 -0.0100
v 9.5900 11.8400 -0.0100
v 2.7800 9.0900 -0.0100
v 14.1400 4.3600 -0.0100
v 13.2900 2.1900 -0.0100
v 13.4700 7.3100 -0.0100
v -0.1100 0.7400 -0.0100
v 8.7400 3.9700 -0.0100
v 8.3300 1.5500 -0.0100
v 8.5900 7.3900 -0.0100
v 0.0700 2.2300 0.0000
v 9.9500 10.1700 -0.0100
v 5.4300 6.3200 0.0000
v 7.1000 6.2000 -0.0100
v 3.0000 6.1400 0.0000
v 5.4600 8.7500 0.0000
v 5.4300 6.3200 0.0000
v 8.0000 -0.1000 -0.0100
v 6.9300 4.2900 -0.0100
v 6.4100 3.5500 -0.0100
v 6.4100 3.5500 -0.0100
v 3.9400 4.0800 0.0000
v 3.9400 4.0800 0.0000
v 15.5800 1.4600 -0.0100
v 8.0600 3.3900 -0.0100
v 18.4800 5.9300 -0.0100
v 6.2900 11.0000 -0.0100
v 9.1300 4.3000 -0.0100
v 5.1000 7.8100 -0.0100
v 1.5200 9.6000 -0.0100
v 4.5700 2.1900 -0.0100
v 5.9500 5.0600 -0.0100
v 5.1000 7.8100 -0.0100
v 4.5700 2.1900 -0.0100
v -0.4800 7.4900 -0.0100
v 0.5500 5.3000 -0.0100
v 10.9400 6.1900 -0.0100
v -0.5600 6.6100 -0.0100
v 5.3100 8.6400 -2.5800
v 7.9700 8.9000 -2.5800
v 2.6700 9.0900 -2.5800
v 10.0300 7.7800 -38.5600
v 8.6000 9.8400 -2.5800
v 2.1500 10.0700 -2.5800
v 8.8600 2.4300 -0.0100
v 1.1400 2.7000 -0.0100
v 9.6800 9.8700 -0.0100
v 9.9800 0.7200 -0.0100
v 3.5000 7.8800 -0.0100
v 3.7100 1.4800 -0.0100
v -2.5300 1.5400 -0.0100
v -2.7000 6.6000 -0.0100
v 9.7600 -0.2900 -0.0100
v 9.3000 9.8700 -0.0100
v 4.1600 1.3400 -0.0100
v 3.8300 8.4500 -0.0100
v -1.4100 2.2000 -0.0100
v -1.6700 7.8200 -0.0100
v 16.0200 7.1100 -2.5800
v 12.7200 8.0200 -2.5800
v 10.4100 8.0500 -2.5800
v 16.3600 6.6700 -2.5800
v 20.0600 5.3500 -2.5800
v 15.2300 5.9400 -2.5800
v 12.6600 7.5000 -2.5800
v 10.3000 7.7300 -2.5800
v 18.8400 3.0100 -2.5800
v 12.8900 3.9900 -2.5800
v 4.7000 3.4200 -0.0100
v 4.2800 3.0600 -0.0100
v 6.6900 2.0600 -0.0100
v 7.7600 1.6700 -0.0100
v 4.1100 7.4700 -2.5800
v 12.2800 6.4000 -2.5800
v 16.6000 12.6700 -2.5800
v -0.2100 5.0000 -2.5800
v 2.1500 12.6000 -2.5800
v 8.8400 1.8700 -2.5800
v 10.1900 11.2600 -2.5800
v 6.1400 16.9400 -2.5800
v 10.1200 19.7600 -2.5800
v 4.8600 7.8100 -0.0100
v 4.1700 8.3300 -2.5800
v 10.6900 6.8900 -0.0100
v 11.8000 1.5500 -0.0100
v 4.6500 3.8800 0.0000
v 4.7000 3.4200 -0.0100
v 4.2800 3.0600 -0.0100
v 6.6900 2.0600 -0.0100
v 7.7600 1.6700 -0.0100
v 12.8900 3.9900 -2.5800
v 4.7000 3.4200 -0.0100
v 4.2800 3.0600 -0.0100
v 6.6900 2.0600 -0.0100
v 7.7600 1.6700 -0.0100
v 4.6500 3.8800 0.0000
v -0.5800 2.3900 -0.6800
v 0.8300 1.9800 -0.6800
v -0.5800 2.3900 -0.6800
v 0.8300 1.9800 -0.6800
v 4.8700 0.5300 -0.0100
v 3.1800 0.8900 -0.0100
v 3.3700 7.7900 -0.0100
v 0.1400 -0.4200 -0.0100
v 4.1100 7.4700 -2.5800
v 12.2800 6.4000 -2.5800
v -0.5500 2.8500 -0.0100
v 4.8600 7.8100 -0.0100
v 4.1700 8.3300 -2.5800
v 10.6900 6.8900 -0.0100
v 11.8000 1.5500 -0.0100
v -0.5500 2.8500 -0.0100
v 5.1600 0.2900 -0.0100
v 3.4700 2.4800 -0.0100
v 2.7700 8.6000 -0.0100
v 0.3800 -0.3300 -0.0100
v 10.2300 10.8400 -0.0100
v 10.2300 10.3200 -0.0100
v 12.0000 9.1600 -0.0100
v 10.2700 6.1300 -0.0100
v 8.4800 8.9800 -0.0100
v 11.1300 5.3000 -0.0100
v 14.5900 9.4200 -0.0100
v 15.0400 5.1100 -0.0100
v 17.2400 8.0400 -0.6800
v 17.3000 5.2900 -0.6800
v 9.4100 5.2200 -0.0100
v 5.8900 8.9900 -0.0100
v 5.5200 4.6500 -0.0100
v 3.2700 7.3500 -0.6800
v 3.2500 4.6000 -0.6800
v 10.2300 10.7400 -0.0100
v -0.3700 4.5600 -2.5800
v 9.3100 2.2900 -2.5800
v 1.0400 12.3100 -2.5800
v 19.4300 4.4900 -2.5800
v 20.0000 -1.1200 -0.0100
v 19.4800 17.6800 -0.0100
v 17.1700 35.2700 -0.0100
v 19.4400 15.6300 -0.0100
v 19.0300 -3.9400 -0.0100
v 18.0000 34.1700 -0.0100
v 15.8600 13.8600 -2.5800
v 9.3100 2.2900 -2.5800
v 9.4600 11.7200 -2.5800
v 1.0400 12.3100 -2.5800
v 4.5700 17.0800 -2.5800
v 8.2900 20.3500 -2.5800
v 0.0000 0.0000 -0.4400
v 0.0000 0.0000 -0.4400
v 0.0000 0.0000 -0.4400
v 0.0000 0.0000 -0.0100
v 0.0000 0.0000 -0.0100
v 0.0000 0.0000 -0.4400
v 0.0000 0.0000 -0.4400
v 0.0000 0.0000 -0.4400
v 0.8600 0.3000 -0.0100
v 17.9500 0.0700 -0.0100
v -0.2800 4.5500 -0.0100
v 21.3500 5.1800 -0.0100
v 0.5700 0.3200 -0.0100
v -0.0900 4.5000 -0.0100
v 19.1100 0.1100 -0.0100
v 20.9500 5.1700 -0.0100
v -2.5600 0.0000 0.0000
v 0.0100 2.5600 0.0000
v 2.5800 5.1200 0.0000
v 5.1500 7.6800 0.0000
v 7.7200 10.2400 0.0000
v 10.2900 12.8000 0.0000
v 10.3000 15.3600 0.0000
v 2.6300 17.9200 0.0000
v 18.0000 20.4800 0.0000
v 0.0900 23.0400 0.0000
v 23.1400 25.6000 0.0000
v 25.7100 28.1600 0.0000
v 0.0000 12.9800 0.0000
v 0.0000 13.0000 0.4400
v 0.6400 0.3200 0.0000
v 0.0000 17.4300 0.0000
v 0.0000 13.0800 0.6400
v 0.6400 0.6400 0.0000
v 0.0000 13.0500 0.0000
v 0.0000 13.0400 0.6400
v 0.4400 0.4400 0.0000
v -28.0000 0.0000 17.9200
v -33.2800 0.0000 18.5500
v -28.1600 2.5600 15.3600
v -7.5200 0.0000 0.6400
v -7.5200 0.0000 0.6400
v -7.5200 0.0000 0.6400
v -7.5200 0.0000 0.6400
v -7.6900 -3.6900 -27.9300
v 13.1400 5.1200 0.0000
v -7.5200 0.0000 0.6400
v -7.5200 0.0000 0.0000
v -33.2800 0.0000 18.2300
v -7.5200 0.0000 0.6400
v 12.8800 15.3800 0.0000
v -7.6900 -3.6900 -27.9300
v -7.5200 0.0000 17.9200
v -7.5200 0.0000 0.6400
v -7.5200 0.0000 0.6400
v 15.3600 5.1600 0.0600
v -7.5200 0.0000 0.6400
v -7.5200 0.0000 15.3600
v 15.5800 0.1800 0.0000
v -7.6900 -3.6900 -27.9300
v -7.4400 0.0000 0.0000
v 0.8300 1.1700 1.2100
vt 0.0000 0.1143
vt 0.1211 -0.0176
vt 0.0000 -0.0986
vt -0.1211 -0.0176
vt 0.0000 -0.0029
vt 0.0000 -0.0498
vt 0.0000 0.0420
vt 0.0479 -0.0020
vt 0.0000 -0.0400
vt 0.0078 0.1309
vt 0.0977 -0.0020
vt 0.0703 -0.0742
vt 0.0000 -0.1328
vt -0.0078 0.1309
vt 0.0166 0.1387
vt 0.0869 0.0918
vt 0.1377 -0.0225
vt 0.1064 -0.1025
vt 0.0000 -0.1279
vt -0.0869 0.0918
vt -0.1377 -0.0225
vt -0.0898 -0.0791
vt -0.0625 0.0928
vt -0.1211 -0.0176
vt 0.0000 -0.0498
vt -0.0479 -0.0020
vt 0.0000 -0.0400
vt 0.0000 -0.0791
vt 0.0000 -0.1064
vt 0.0000 -0.0791
vt 0.0000 -0.1924
vt 0.0000 -0.1064
vt 0.0000 -0.1924
vt 0.0000 -0.0908
vt 0.0000 -0.0791
vt -0.0977 -0.0020
vt -0.0703 -0.0742
vt -0.0605 0.0967
vt 0.0000 -0.1328
vt -0.1377 -0.0225
vt -0.1064 -0.1025
vt -0.0869 0.0918
vt 0.0000 -0.1279
vt 0.0000 0.0625
vt 0.0078 0.0439
vt 0.0000 0.0352
vt 0.0000 0.0488
vt 0.0000 0.0986
vt -0.0078 0.0439
vt 0.0000 0.0420
vt 0.0000 0.1455
vt 0.0078 0.1309
vt -0.0078 0.1309
vt 0.0166 0.1387
vt -0.0166 0.1387
vt 0.0000 -0.0273
vt 0.0000 0.0254
vt 0.0000 -0.0498
vt 0.0000 0.0732
vt 0.0000 -0.0869
vt 0.0273 0.0547
vt 0.0000 0.1006
vt 0.0244 -0.0771
vt 0.0000 -0.0107
vt 0.0000 -0.0898
vt -0.0244 -0.0771
vt 0.0000 0.0498
vt 0.0000 -0.0029
vt 0.0000 -0.0498
vt -0.1025 -0.0400
vt 0.0469 0.0078
vt 0.0000 -0.0029
vt 0.0459 -0.0010
vt -0.0459 -0.0010
vt 0.0576 0.0361
vt -0.0518 -0.0195
vt 0.0898 -0.0791
vt 0.0000 -0.0986
vt -0.0322 0.0410
vt -0.0322 -0.0469
vt -0.0322 0.0273
vt -0.0322 -0.0342
vt 0.0000 -0.0254
vt 0.0000 0.0234
vt 0.0322 -0.0469
vt 0.0322 0.0410
vt 0.0322 -0.0342
vt 0.0322 0.0273
vt 0.0000 -0.0254
vt 0.0000 0.0234
vt 0.0166 0.0098
vt 0.0273 0.0410
vt 0.0703 0.0449
vt -0.0166 0.0098
vt -0.0273 0.0410
vt 0.0020 0.0146
vt 0.0117 0.0156
vt -0.0703 0.0449
vt 0.1025 -0.0400
vt 0.0879 0.0430
vt 0.1055 0.0283
vt 0.1250 0.0186
vt 0.1172 -0.0234
vt 0.1025 -0.0400
vt 0.0459 -0.0303
vt 0.0068 0.0117
vt -0.0068 0.0117
vt 0.0557 -0.0322
vt 0.0000 0.0742
vt -0.0557 0.0137
vt -0.0469 0.0781
vt 0.0000 0.1006
vt 0.0000 0.1143
vt 0.0625 0.0928
vt 0.0000 0.1143
vt 0.0625 0.0928
vt 0.1211 -0.0176
vt 0.1211 -0.0176
vt 0.1055 0.0283
vt 0.1250 0.0186
vt 0.1172 -0.0234
vt 0.1025 -0.0400
vt -0.0879 0.0430
vt -0.1055 0.0283
vt -0.1250 0.0186
vt -0.1172 -0.0234
vt -0.1025 -0.0400
vt -0.0879 0.0430
vt 0.0742 0.0049
vt 0.0742 -0.0146
vt -0.0742 0.0049
vt -0.0742 -0.0146
vt -0.0137 -0.0293
vt -0.0264 -0.0293
vt -0.0176 -0.0459
vt -0.0234 -0.0273
vt -0.0068 0.0117
vt -0.0068 0.0117
vt 0.0557 0.0137
vt 0.0557 -0.0322
vt 0.0000 0.1143
vt -0.0625 0.0928
vt -0.1211 -0.0176
vt -0.1211 -0.0176
vt -0.0557 -0.0322
vt 0.0195 -0.0293
vt 0.0215 -0.0459
vt 0.0234 -0.0273
vt 0.0000 0.0264
vt 0.0000 0.0225
vt 0.0186 0.0137
vt 0.0000 -0.0059
vt -0.0186 0.0137
vt 0.0088 -0.0117
vt 0.0000 -0.0264
vt 0.0508 -0.0146
vt 0.0459 -0.0303
vt 0.0742 -0.0146
vt -0.0088 -0.0117
vt -0.0156 -0.0303
vt -0.0508 -0.0146
vt -0.0459 -0.0303
vt -0.0742 -0.0146
vt 0.0000 0.0205
vt 0.0557 0.0137
vt 0.0557 0.0137
vt 0.0000 0.0742
vt 0.0879 0.0430
vt 0.1553 -0.0801
vt 0.1621 -0.0059
vt 0.0186 -0.0039
vt -0.1602 -0.0059
vt -0.1533 -0.0801
vt -0.0156 -0.0039
vt 0.0068 0.0117
vt 0.0557 0.0137
vt 0.0469 0.0781
vt 0.0000 0.0742
vt 0.0000 0.1006
vt 0.0000 0.1143
vt -0.1182 0.0723
vt -0.1367 0.0635
vt -0.1426 0.1143
vt -0.1299 0.0625
vt -0.1348 0.1182
vt -0.0273 -0.0029
vt -0.0225 0.0078
vt -0.0176 -0.0088
vt -0.0781 0.0020
vt -0.1494 0.0410
vt -0.1680 0.0830
vt -0.1592 0.0811
vt -0.1592 0.0479
vt -0.1680 0.0830
vt -0.1299 0.0635
vt -0.1357 0.1084
vt 0.0000 4.9219
vt 0.0000 0.0000
vt -15.6631 -2.2441
vt 15.8008 -25.5957
vt -16.3633 -5.6562
vt -15.9531 30.9209
vt 16.5947 -10.3926
vt -15.3447 -16.4102
vt 16.7773 -9.2910
vt 16.5791 -9.0547
vt -15.9424 -24.9688
vt -15.3926 26.7998
vt 16.3994 -28.2988
vt 0.0312 0.0312
vt 0.0000 1.2754
vt 0.0000 1.2783
vt 0.0156 0.0312
vt 0.0000 1.2793
vt 0.0000 1.2715
vt 0.0312 0.0312
vt 0.0000 1.2705
vt 0.0000 1.2686
vt -6.5000 0.0000
vt -6.2500 0.0000
vt -6.5000 0.0000
vt -4.0000 0.0000
vt -4.0000 0.0000
vt -4.0000 0.0000
vt -4.0000 0.0000
vt -9.4453 0.0029
vt -6.2500 0.0000
vt -4.0000 0.0000
vt -6.5000 0.0000
vt -6.2500 0.0000
vt -4.0000 0.0000
vt -6.2500 0.0000
vt -9.4453 0.0029
vt -4.0000 0.0000
vt -4.0000 0.0000
vt -4.0000 0.0000
vt 1.2520 1.5039
vt -4.0000 0.0000
vt -4.0000 0.0000
vt -6.2500 0.0000
vt -10.2500 0.0020
vt -2.7266 0.0000
vt 0.0000 0.0000
f 57/57 2/2 34/34
f 128/128 128/128 128/128
f 60/60 1/1 97/97
f 128/128 128/128 128/128
f 101/101 1/1 42/42
f 111/111 111/111 128/128
f 6/6 1/1 107/107
f 111/111 111/111 128/128
f 95/95 1/1 65/65
f 6/6 1/1 107/107
f 111/111 111/111 128/128
f 34/34 2/2 110/110
f 12/12 2/2 32/32
f 68/68 1/1 91/91
f 25/25 1/1 110/110
f 34/34 2/2 110/110
f 12/12 2/2 32/32
f 60/60 1/1 97/97
f 128/128 128/128 128/128
f 101/101 1/1 42/42
f 111/111 111/111 128/128
f 57/57 2/2 34/34
f 128/128 128/128 128/128
f 6/6 1/1 107/107
f 111/111 111/111 128/128
f 95/95 1/1 65/65
f 68/68 1/1 91/91
f 25/25 1/1 110/110
f 34/34 2/2 110/110
f 12/12 1/1 74/74
f 128/128 128/128 128/128
f 31/31 2/2 4/4
f 89/89 89/89 128/128
f 34/34 2/2 100/100
f 128/128 128/128 128/128
f 127/127 2/2 69/69
f 46/46 1/1 125/125
f 89/89 89/89 128/128
f 51/51 2/2 78/78
f 128/128 128/128 128/128
f 122/122 2/2 42/42
f 5/5 1/1 72/72
f 63/63 3/3 122/122
f 128/128 128/128 128/128
f 5/5 1/1 72/72
f 90/90 2/2 88/88
f 113/113 1/1 128/128
f 94/94 1/1 11/11
f 95/95 2/2 19/19
f 95/95 97/97 128/128
f 98/98 2/2 9/9
f 95/95 97/97 128/128
f 5/5 2/2 119/119
f 69/69 69/69 128/128
f 9/9 1/1 39/39
f 86/86 86/86 128/128
f 91/91 7/7 100/100
f 128/128 128/128 18/18
f 26/26 3/3 54/54
f 128/128 128/128 128/128
f 23/23 24/24 12/12
f 7/7 32/32 8/8
f 11/11 12/12 24/24
f 22/22 9/9 11/11
f 17/17 18/18 19/19
f 20/20 17/17 19/19
f 9/9 11/11 7/7
f 11/11 13/13 7/7
f 11/11 16/16 13/13
f 15/15 10/10 13/13
f 5/5 6/6 7/7
f 19/19 18/18 1/1
f 18/18 2/2 1/1
f 27/27 17/17 16/16
f 27/27 16/16 15/15
f 4/4 6/6 7/7
f 5/5 4/4 2/2
f 10/10 11/11 18/18
f 11/11 12/12 18/18
f 10/10 13/13 11/11
f 24/24 16/16 22/22
f 22/22 16/16 3/3
f 3/3 21/21 22/22
f 7/7 29/29 28/28
f 7/7 8/8 29/29
f 30/30 27/27 4/4
f 15/15 9/9 32/32
f 9/9 10/10 32/32
f 28/28 7/7 11/11
f 16/16 17/17 18/18
f 19/19 16/16 18/18
f 17/17 19/19 18/18
f 1/1 2/2 3/3
f 4/4 1/1 3/3
f 2/2 4/4 3/3
f 28/28 20/20 5/5
f 20/20 9/9 5/5
f 30/30 31/31 32/32
f 12/12 1/1 10/10
f 1/1 12/12 11/11
