mtllib assets10_model_010.mtl
# Conker's Bad Fur Day — Real 3D Model (Spooky Models)
o assets10_model_010
usemtl assets10_model_010_mat

v 0.0000 1.0400 0.0000
v 0.0000 3.1200 0.0000
v 0.0000 3.4400 0.0000
v 0.0000 3.7600 0.0000
v 0.0000 4.0800 0.0000
v 0.0000 4.4000 0.0000
v 6.6500 -0.0900 -6.4400
v -6.6300 -0.0900 6.8900
v 0.0000 -0.0900 0.0200
v -14.5000 -0.0900 -14.6200
v 14.4600 -0.0900 14.5800
v -2.8200 -0.0900 -3.4900
v 5.2900 -0.0900 -5.9000
v 3.1800 -0.0900 1.4500
v -2.7600 -0.0900 0.8900
v -0.7400 -0.0900 8.6700
v 9.3200 -0.0900 6.5400
v -0.1900 -0.0900 4.3700
v 6.8100 -0.0900 -6.7600
v 6.8100 -0.0900 6.9300
v -6.6500 -0.0900 -6.5900
v -6.9800 -0.0900 7.2000
v 4.2100 -0.0900 6.0400
v -1.6600 -0.0900 -7.0000
v -1.3800 -0.0900 -10.1800
v -1.3800 -0.0900 -10.1800
v 11.4200 -0.0900 1.1000
vt 0.0000 0.2891
vt 0.0000 0.3203
vt 0.0000 0.3516
vt 0.0000 0.0000
vt 0.0000 0.4141
vt 0.1787 -0.0088
vt 0.6562 -0.0088
vt -0.6611 -0.0088
vt -1.4209 -0.0088
vt 1.4375 0.1865
vt -0.6562 -0.0088
vt -0.0088 -0.0088
vt 0.8125 -0.0088
vt 0.2129 -0.0088
vt -0.5000 -0.0088
vt 0.4033 -0.0088
vt 0.3926 -0.0088
vt 0.7988 0.0264
vt 0.7988 -0.0088
vt -0.7988 -0.0088
vt -0.7988 -0.0088
vt 0.2236 -0.0088
vt -0.4404 -0.0088
vt -0.1348 -0.0088
vt -0.1348 -0.0088
vt 1.1152 -0.0088
vt -2.3027 -0.1377
f 1/1 2/2 3/3
f 4/4 5/5 6/6
f 7/7 8/8 9/9
f 10/10 11/11 12/12
f 13/13 14/14 15/15
f 16/16 17/17 18/18
f 19/19 20/20 21/21
f 22/22 23/23 24/24
f 25/25 26/26 27/27
