# Conker's Bad Fur Day — Real 3D Model (HUD & UI Props)
o assets01_model_037

v 0.0000 11.4800 0.0000
v 0.0000 17.2800 0.0000
v 22.9500 -15.8200 -0.0100
v 20.6300 -19.9200 -0.0100
v 22.8400 -22.2700 -0.0100
v 25.3100 -20.3100 -0.0100
v 25.9500 -15.8000 -0.0100
v 24.9900 -11.1100 -0.0100
v 22.8100 -9.3100 -0.0100
v 20.7100 -10.3600 -0.0100
v 20.0000 -14.8800 -0.0100
v 20.6300 -19.9200 -0.0100
v 22.8400 -22.2700 -0.0100
v 25.3100 -20.3100 -0.0100
v 25.9500 -15.8000 -0.0100
v 24.9900 -11.1100 -0.0100
v 22.8100 -9.3100 -0.0100
v 20.7100 -10.3600 -0.0100
v 20.0000 -14.8800 -0.0100
v 17.8800 -23.2000 -0.0100
v 22.7400 -27.7800 -0.0100
v 28.7700 -23.0200 -0.0100
v 29.1500 -15.8300 -0.0100
v 28.5600 -8.3900 -0.0100
v 22.7000 -2.8600 -0.0100
v 17.4100 -8.6100 -0.0100
v 16.8700 -15.8100 -0.0100
v 17.8800 -23.2000 -0.0100
v 22.7400 -27.7800 -0.0100
v -1.9500 -23.0200 -0.0100
v 2.3900 -22.9000 -0.0100
v -1.5700 -15.8300 -0.0100
v -2.1600 -8.3900 -0.0100
v 17.4100 -8.6100 -0.0100
v 16.8700 -15.8100 -0.0100
v 13.4600 -8.3300 -0.0100
v 1.9000 -8.8100 -0.0100
v 13.2200 -22.9300 -0.0100
v 7.9500 -27.4400 -0.0100
v 2.3900 -22.9000 -0.0100
v 1.4600 -15.3100 -0.0100
v 1.9000 -8.8100 -0.0100
v 8.1900 -1.7700 -0.0100
v 13.4600 -8.3300 -0.0100
v 13.4900 -15.7900 -0.0100
v 13.2200 -22.9300 -0.0100
v 7.9500 -27.4400 -0.0100
v 2.3900 -22.9000 -0.0100
v 1.4600 -15.3100 -0.0100
v 1.9000 -8.8100 -0.0100
v 8.1900 -1.7700 -0.0100
v 13.4600 -8.3300 -0.0100
v 13.4900 -15.7900 -0.0100
v 9.3700 -20.0400 -0.0100
v 8.3000 -21.3000 -0.0100
v 5.6800 -21.0100 -0.0100
v 5.0100 -15.8100 -0.0100
v 5.8000 -11.4000 -0.0100
v 7.8000 -9.0400 -0.0100
v 9.7900 -11.4000 -0.0100
v 10.6500 -15.8200 -0.0100
v 8.3000 -21.3000 -0.0100
v 9.3700 -20.0400 -0.0100
v 5.6800 -21.0100 -0.0100
v 5.0100 -15.8100 -0.0100
v 5.8000 -11.4000 -0.0100
v 7.8000 -9.0400 -0.0100
v 9.7900 -11.4000 -0.0100
v 10.6500 -15.8200 -0.0100
v 7.7700 -15.8200 -0.0100
v 0.0000 36.1800 0.3200
v -28.0800 20.4800 2.5700
v -7.5200 0.0000 0.0000
v -28.0800 20.4800 0.0100
v -8.9400 0.0000 0.0000
vt 0.0000 1.2305
vt 0.0000 0.0000
vt 0.0410 0.0000
vt 0.0605 -0.0029
vt 0.0439 0.0000
vt 0.0000 0.0059
vt -0.0439 0.0000
vt -0.0576 -0.0049
vt -0.0518 -0.0049
vt -0.0098 0.0000
vt 0.0410 0.0000
vt 0.0605 -0.0029
vt 0.0439 0.0000
vt 0.0000 0.0059
vt -0.0439 0.0000
vt -0.0576 -0.0049
vt -0.0518 -0.0049
vt -0.0098 0.0000
vt 0.0693 0.0049
vt 0.0928 0.0000
vt 0.0723 0.0000
vt 0.0000 0.0000
vt -0.0654 0.0000
vt -0.0928 -0.0039
vt -0.0654 0.0000
vt 0.0000 0.0000
vt 0.0693 0.0049
vt 0.0928 0.0000
vt 0.0723 0.0000
vt 0.0928 0.0000
vt 0.0000 0.0000
vt -0.0654 0.0000
vt -0.0654 0.0000
vt 0.0000 0.0000
vt -0.0928 -0.0039
vt -0.0928 -0.0039
vt 0.0703 -0.0020
vt 0.0928 -0.0039
vt 0.0654 -0.0039
vt -0.0049 0.0000
vt -0.0674 0.0000
vt -0.1025 0.0127
vt -0.0703 0.0020
vt 0.0000 -0.0098
vt 0.0703 -0.0020
vt 0.0928 -0.0039
vt 0.0654 -0.0039
vt -0.0049 0.0000
vt -0.0674 0.0000
vt -0.1025 0.0127
vt -0.0703 0.0020
vt 0.0000 -0.0098
vt 0.0430 -0.0068
vt 0.0557 -0.0068
vt 0.0518 0.0000
vt 0.0000 -0.0068
vt -0.0410 0.0000
vt -0.0625 0.0020
vt -0.0430 -0.0029
vt 0.0000 -0.0010
vt 0.0557 -0.0068
vt 0.0430 -0.0068
vt 0.0518 0.0000
vt 0.0000 -0.0068
vt -0.0410 0.0000
vt -0.0625 0.0020
vt -0.0430 -0.0029
vt 0.0000 -0.0010
vt 0.0000 -0.0029
vt 0.0000 1.2422
vt -6.2500 0.0000
vt -3.5000 8.0020
vt -2.7344 0.0000
vt -3.5000 8.0020
vt 0.0000 0.0000
f 1/1 2/2 3/3
f 4/4 5/5 6/6
f 7/7 8/8 9/9
f 10/10 11/11 12/12
f 13/13 14/14 15/15
f 16/16 17/17 18/18
f 19/19 20/20 21/21
f 22/22 23/23 24/24
f 25/25 26/26 27/27
f 28/28 29/29 30/30
f 31/31 32/32 33/33
f 34/34 35/35 36/36
f 37/37 38/38 39/39
f 40/40 41/41 42/42
f 43/43 44/44 45/45
f 46/46 47/47 48/48
f 49/49 50/50 51/51
f 52/52 53/53 54/54
f 55/55 56/56 57/57
f 58/58 59/59 60/60
f 61/61 62/62 63/63
f 64/64 65/65 66/66
f 67/67 68/68 69/69
f 70/70 71/71 72/72
f 73/73 74/74 75/75
