# Conker's Bad Fur Day — Real 3D Model (Multiplayer Level Models)
o assets09_model_043

v 0.0000 26.8000 0.0000
v 10.9100 2.5500 -0.0100
v 10.2400 0.0000 -0.0100
v 0.0000 0.0000 -0.0100
v -0.6700 2.5500 -0.0100
v 10.2400 5.1200 -0.0100
v 0.0000 5.1200 -0.0100
v 10.9100 2.5500 -0.0100
v 10.2400 0.0000 -0.0100
v 0.0000 0.0000 -0.0100
v -0.6700 2.5500 -0.0100
v 10.9100 2.5500 -0.0100
v 0.0000 0.0000 -0.0100
v 10.2400 0.0000 -0.0100
v -0.6700 2.5500 -0.0100
v 10.9100 2.5500 -0.0100
v 0.0000 0.0000 -0.0100
v 10.2400 0.0000 -0.0100
v -0.6700 2.5500 -0.0100
v 10.2400 5.1200 -0.0100
v 0.0000 5.1200 -0.0100
v 10.2400 5.1200 -0.0100
v -0.6700 2.5500 -0.0100
v 10.9100 2.5500 -0.0100
v 0.0000 5.1200 -0.0100
v 10.2400 5.1200 -0.0100
v 10.9100 2.5500 -0.0100
v -0.6700 2.5500 -0.0100
v 0.0000 5.1200 -0.0100
v 10.2400 5.1200 -0.0100
v -0.6700 2.5500 -0.0100
v 10.9100 2.5500 -0.0100
v 0.0000 5.1200 -0.0100
v 0.0000 0.0000 -0.0100
v 0.0000 0.0000 -0.0100
v 0.0000 0.0000 -0.0100
v 0.0000 0.0000 -0.0100
v 0.0000 0.0000 -0.0100
v 0.0000 0.0000 -0.0100
v 0.0000 0.0000 -0.0100
v 0.0000 0.0000 -0.0100
v 0.0000 0.0000 -0.0100
v 0.0000 0.0000 -0.0100
v 0.0000 0.0000 -0.0100
v 0.0000 0.0000 -0.0100
v 0.0000 0.0000 -0.0100
v 0.0000 0.0000 -0.0100
v 0.0000 0.0000 -0.0100
v 0.0000 0.0000 -0.0100
v 0.0000 0.0000 -0.0100
v 0.0000 0.0000 -0.0100
v 0.0000 0.0000 -0.0100
v 0.0000 0.0000 -0.0100
v 0.0000 0.0000 -0.0100
v 0.0000 0.0000 -0.0100
v 0.0000 0.0000 -0.0100
v 0.0000 0.0000 -0.0100
v 0.0000 0.0000 -0.0100
v 0.0000 0.0000 -0.0100
v 0.0000 0.0000 -0.0100
v 0.0000 0.0000 -0.0100
v 0.0000 0.0000 -0.0100
v 0.0000 0.0000 -0.0100
v 0.0000 0.0000 -0.0100
v 0.0000 0.0000 -0.0100
v 0.0000 0.0000 -0.0100
v 0.0000 0.0000 -0.0100
v 0.0000 0.0000 -0.0100
v 0.0000 0.0000 -0.0100
v 0.0000 0.0000 -0.0100
v 0.0000 0.0000 -0.0100
v 0.0000 0.0000 -0.0100
v 0.0000 0.0000 -0.0100
v 0.0000 0.0000 -0.0100
v 0.0000 0.0000 -0.0100
v 0.0000 0.0000 -0.0100
v 0.0000 0.0000 -0.0100
v 0.0000 0.0000 -0.0100
v 0.0000 0.0000 -0.0100
v 0.0000 0.0000 -0.0100
v 0.0000 0.0000 -0.0100
v 0.0000 0.0000 -0.0100
v 0.0000 0.0000 -0.0100
v 0.0000 0.0000 -0.0100
v 0.0000 0.0000 -0.0100
v 0.0000 0.0000 -0.0100
v 0.0000 0.0000 -0.0100
v 0.0000 0.0000 -0.0100
v 0.0000 0.0000 -0.0100
v 0.0000 0.0000 -0.0100
v 0.0000 0.0000 -0.0100
v 0.0000 0.0000 -2.5800
v 0.0000 0.0000 -2.5800
v 0.0000 0.0000 -2.5800
v 0.0000 0.0000 -2.5800
v 0.0000 0.0000 -2.5800
v 0.0000 0.0000 -2.5800
v 0.0000 0.0000 -0.0100
v 0.0000 0.0000 -0.0100
v 0.0000 0.0000 -0.0100
v 0.0000 0.0000 -0.0100
v 0.0000 0.0000 -0.0100
v 0.0000 0.0000 -0.0100
v -28.0000 0.0000 17.9200
v -33.2800 0.0000 18.0700
v -28.1600 2.5600 15.3600
v -7.5200 0.0000 0.6400
v 2.5800 0.6400 2.5600
v 2.5700 0.3200 2.5600
v -7.5200 0.0000 0.6400
v -7.5200 0.0000 0.0000
v -33.2800 0.0000 18.0700
v -28.0800 20.4800 0.0900
vt 0.0000 0.0000
vt 0.0156 0.0703
vt 0.0156 0.0762
vt 0.0156 0.0703
vt -0.0020 0.0674
vt 0.0088 0.0781
vt -0.0283 0.0430
vt -0.0342 0.0293
vt -0.0410 0.0312
vt -0.0342 0.0293
vt -0.0254 0.0420
vt 0.0049 0.0596
vt -0.0205 0.0391
vt 0.0029 0.0645
vt 0.0000 0.0664
vt -0.0234 0.0400
vt 0.0020 0.0605
vt -0.0283 0.0430
vt -0.0303 0.0488
vt -0.0410 0.0381
vt -0.0273 0.0479
vt 0.0029 0.0645
vt -0.0254 0.0420
vt -0.0020 0.0674
vt -0.0020 0.0674
vt 0.0156 0.0762
vt 0.0088 0.0781
vt 0.0156 0.0762
vt -0.0049 0.0684
vt -0.0283 0.0430
vt 0.0000 0.0664
vt -0.0303 0.0488
vt -0.0371 0.0576
vt -0.0342 0.0596
vt -0.0518 0.0713
vt -0.0557 0.0684
vt -0.0479 0.0469
vt -0.0430 0.0508
vt -0.0508 0.0713
vt -0.0430 0.0508
vt -0.0547 0.0674
vt -0.0342 0.0557
vt -0.0312 0.0586
vt -0.0352 0.0830
vt -0.0352 0.0830
vt -0.0088 0.0762
vt -0.0117 0.0742
vt -0.0205 0.0947
vt -0.0117 0.0742
vt -0.0166 0.0977
vt 0.0020 0.0869
vt -0.0029 0.0830
vt -0.0215 0.0957
vt -0.0186 0.0986
vt -0.0117 0.0771
vt -0.0146 0.0752
vt -0.0146 0.0752
vt -0.0371 0.0840
vt -0.0381 0.0840
vt -0.0342 0.0596
vt -0.0303 0.0488
vt -0.0049 0.0684
vt 0.0088 0.0781
vt -0.0020 0.0674
vt -0.0342 0.0557
vt -0.0020 0.0674
vt -0.0273 0.0479
vt -0.0479 0.0469
vt -0.0410 0.0381
vt -0.0371 0.0576
vt -0.0303 0.0488
vt -0.0117 0.0771
vt -0.0381 0.0840
vt 0.0020 0.0869
vt -0.0186 0.0986
vt -0.0088 0.0762
vt -0.0166 0.0977
vt -0.0352 0.0830
vt -0.0547 0.0674
vt -0.0557 0.0684
vt -0.0352 0.0830
vt -0.0117 0.0742
vt -0.0205 0.0947
vt -0.0117 0.0742
vt -0.0029 0.0830
vt -0.0215 0.0957
vt -0.0146 0.0752
vt -0.0146 0.0752
vt -0.0049 0.0684
vt 0.0088 0.0781
vt -0.0117 0.0742
vt -0.0312 0.0586
vt -0.0430 0.0508
vt -0.0342 0.0596
vt -0.0146 0.0752
vt -0.0029 0.0830
vt -0.0303 0.0488
vt -0.0410 0.0381
vt -0.0273 0.0479
vt -0.0020 0.0674
vt 0.0088 0.0781
vt -0.0049 0.0684
vt 0.0049 0.0596
vt -6.5000 0.0000
vt -6.2500 0.0000
vt -6.5000 0.0000
vt -4.0000 0.0000
vt 4.8945 -27.8379
vt 4.5273 -27.8379
vt -4.0000 0.0000
vt -6.5000 0.0000
vt -6.2500 0.0000
vt -3.5000 8.0020
f 10/10 14/14 32/32
f 27/27 30/30 31/31
f 32/32 27/27 31/31
