# Conker's Bad Fur Day — Real 3D Model (Spooky Models)
o assets10_model_024

v 0.0000 1.6000 0.0000
v 0.0000 1.9200 0.0000
v 0.0000 2.2400 0.0000
v 0.0000 2.5600 0.0000
v 0.0000 2.8800 0.0000
v 0.0000 3.2000 0.0000
v 0.0000 3.5200 0.0000
v 0.0000 3.8400 0.0000
v 0.0000 4.1600 0.0000
v 0.0000 4.4800 0.0000
v -2.5400 -2.9100 22.9700
v 2.4700 -2.8900 22.7800
v 0.5300 -3.6800 16.5800
v 0.5300 -3.6800 16.5800
v 0.5300 -3.6800 16.5800
v 0.5300 -3.6800 16.5800
v 0.5300 -3.6800 16.5800
v 0.5300 -3.6800 16.5800
v 0.5300 -3.6800 16.5800
v -2.5400 -2.9100 22.9700
v 0.1900 -6.0200 19.9100
v 1.2600 -3.6800 17.7200
v -2.5400 -2.9100 22.9700
v -0.6900 -3.6800 15.7400
v -0.6900 -3.6800 15.7400
v -2.5400 -2.9100 22.9700
v -2.5400 -2.9100 22.9700
v -2.5400 -2.9100 22.9700
vt 0.0000 0.1719
vt 0.0000 0.2031
vt 0.0000 0.2344
vt 0.0000 0.2656
vt 0.0000 0.2969
vt 0.0000 0.3281
vt 0.0000 0.3594
vt 0.0000 0.3906
vt 0.0000 0.4219
vt 0.0000 0.4531
vt -0.2480 -0.2842
vt 0.2412 -0.2822
vt 0.0518 -0.3594
vt 0.0518 -0.3594
vt 0.0518 -0.3594
vt 0.0518 -0.3594
vt 0.0518 -0.3594
vt 0.0518 -0.3594
vt 0.0518 -0.3594
vt -0.2480 -0.2842
vt 0.0186 -0.5879
vt 0.1230 -0.3594
vt -0.2480 -0.2842
vt -0.0674 -0.3594
vt -0.0674 -0.3594
vt -0.2480 -0.2842
vt -0.2480 -0.2842
vt -0.2480 -0.2842
f 1/1 2/2 3/3
f 4/4 5/5 6/6
f 7/7 8/8 9/9
f 10/10 11/11 12/12
f 13/13 14/14 15/15
f 16/16 17/17 18/18
f 19/19 20/20 21/21
f 22/22 23/23 24/24
f 25/25 26/26 27/27
