mtllib assets0E_model_053.mtl
# Conker's Bad Fur Day — Real 3D Model (Sloprano Models)
o assets0E_model_053
usemtl assets0E_model_053_mat

v 20.4900 0.0000 0.0000
v 20.4900 0.0000 0.0000
v 20.4900 0.0000 0.0000
v 20.5000 0.0000 0.0000
v 20.5000 0.0000 0.0000
v 20.5100 0.0000 0.0000
v 20.5100 0.0000 0.0000
v 20.5100 0.0000 0.0000
v 20.4800 0.0000 0.0000
v 20.4800 0.0000 0.0000
v 20.4800 0.0000 0.0000
v 20.4800 0.0000 0.0000
v 20.4800 0.0000 0.0000
v 20.4800 0.0000 0.0000
v 20.4800 0.0000 0.0000
v 20.4800 0.0000 0.0000
v 20.4800 0.0000 0.0000
v 20.4800 0.0000 0.0000
v 20.4800 0.0000 0.0000
v 20.4800 0.0000 0.0000
v 20.4800 0.0000 0.0000
v 20.4800 0.0000 0.0000
v 20.4800 0.0000 0.0000
v 20.4800 0.0000 0.0000
v 20.4800 0.0000 0.0000
v 20.4800 0.0000 0.0000
v 20.4800 0.0000 0.0000
v 20.4800 0.0000 0.0000
v 20.4800 0.0000 0.0000
v 20.4800 0.0000 0.0000
v 20.4800 0.0000 0.0000
vt 0.0000 0.1904
vt 0.0000 0.1904
vt 0.0000 0.1904
vt 0.0000 0.1904
vt 0.0000 0.1904
vt 0.0000 0.1904
vt 0.0000 0.1904
vt 0.0000 0.1904
vt 0.0000 0.0654
vt 0.0000 0.0635
vt 0.0000 0.0635
vt 0.0000 0.0635
vt 0.0000 0.0654
vt 0.0000 0.0654
vt 0.0000 0.0654
vt 0.0000 0.0654
vt 0.0000 0.0654
vt 0.0000 -31.9346
vt 0.0000 -31.9346
vt 0.0000 -31.9346
vt 0.0000 0.0635
vt 0.0000 0.0635
vt 0.0000 0.1904
vt 0.0000 0.1904
vt 0.0000 0.1904
vt 0.0000 0.1904
vt 0.0000 0.1904
vt 0.0000 0.1904
vt 0.0000 -31.9346
vt 0.0000 -31.9346
vt 0.0000 -31.9346
f 1/1 1/1 1/1
f 1/1 1/1 1/1
