mtllib assets0A_model_009.mtl
# Conker's Bad Fur Day — Real 3D Model (Bat's Tower Level Models)
o assets0A_model_009
usemtl assets0A_model_009_mat

v 0.0000 0.6400 0.0000
v 0.0000 1.9200 0.0000
v 0.0000 10.7200 0.0000
v 0.0000 15.0400 0.0000
v 2.6100 -9.8000 -2.4900
v 0.1000 0.1600 0.1000
v 2.6100 -8.4300 -2.3800
v -0.0100 0.0000 -0.0100
v 0.0300 -0.0100 0.0000
v -0.0100 0.0500 -0.0100
v 0.0300 -0.0200 0.0600
v -0.0500 0.0300 -0.0900
v 0.1500 -0.0500 0.0300
v -0.0500 0.1600 -0.0600
v 0.1000 -0.0600 0.1800
v -0.0800 0.0500 -0.1500
v 0.2300 -0.0800 0.0500
v -0.0800 0.2300 -0.0800
v 0.1300 -0.0800 0.2300
v -0.0700 0.0400 -0.1200
v 0.1600 -0.0600 0.0400
v -0.0500 0.1400 -0.0500
v 0.0600 -0.0400 0.1100
v 0.5500 -0.3500 0.9900
v -1.7800 0.6700 -0.4200
v 0.6600 -1.8700 0.7000
v -1.0600 0.6700 -1.8900
v 15.4000 -1.0400 0.6600
v 0.6400 -0.4000 1.1500
v -0.9500 0.6000 -1.7000
v 0.6400 -0.4000 1.1500
v 0.6000 -1.7000 0.6400
v 2.1600 -0.9500 0.6000
v -1.7000 0.6400 -0.4000
v -0.9500 0.6000 -1.7000
v 0.0500 0.1100 0.0000
vt 0.0000 0.1016
vt 0.0000 0.2344
vt 0.0000 1.0938
vt 0.0000 1.5078
vt 0.7500 0.0156
vt 0.0000 0.0000
vt 0.7500 20.0000
vt -14.1934 -25.6367
vt -12.0264 -14.1816
vt -0.0029 -12.0264
vt 0.0010 -0.0039
vt -14.0918 -16.1152
vt -12.0264 -14.0762
vt -0.0107 -12.0264
vt 0.0039 -0.0117
vt -14.0059 -8.0996
vt -12.0264 -14.0020
vt -0.0146 -12.0264
vt 0.0049 -0.0146
vt -14.0449 -11.6074
vt -12.0264 -14.0645
vt -0.0088 -12.0264
vt 0.0020 -0.0068
vt -15.5977 -26.9180
vt -12.0264 -15.8789
vt 0.1230 -12.0264
vt -0.0439 0.1240
vt 0.0684 -0.0439
vt -15.8125 17.5391
vt -0.0391 0.1123
vt 7.8232 -6.3994
vt 0.1123 -28.1436
vt 0.0625 -0.0391
vt -31.0234 -19.5742
vt -0.0391 0.1123
vt 0.7500 0.0000
f 1/1 2/2 3/3
f 4/4 5/5 6/6
f 7/7 8/8 9/9
f 10/10 11/11 12/12
f 13/13 14/14 15/15
f 16/16 17/17 18/18
f 19/19 20/20 21/21
f 22/22 23/23 24/24
f 25/25 26/26 27/27
f 28/28 29/29 30/30
f 31/31 32/32 33/33
f 34/34 35/35 36/36
