mtllib assets09_model_188.mtl
# Conker's Bad Fur Day — Real 3D Model (Multiplayer Level Models)
o assets09_model_188
usemtl assets09_model_188_mat

v 0.0000 15.7600 0.0000
v 0.0000 0.0000 -1.8900
v 0.0000 0.0000 -0.0100
v 0.0000 0.0000 -0.0100
v 0.0000 0.0000 -1.8900
v 0.0000 0.0000 -1.8900
v 0.0000 0.0000 -1.8900
v 0.0000 0.0000 -0.0100
v 0.0000 0.0000 -1.8900
v 0.0000 0.0000 -1.8900
v 0.0000 0.0000 -0.0100
v 0.0000 0.0000 -1.8900
v 0.0000 0.0000 -1.8900
v 0.0000 0.0000 -0.0100
v 0.0000 0.0000 -1.8900
v 0.0000 0.0000 -1.8900
v 0.0000 0.0000 -0.0100
v 0.0000 0.0000 -1.8900
v 0.0000 0.0000 -1.8900
v 0.0000 0.0000 -0.0100
v 0.0000 0.0000 -1.8900
v 0.0000 0.0000 -1.8900
v 0.0000 0.0000 -0.0100
v 0.0000 0.0000 -1.8900
v 0.0000 0.0000 -1.8900
v 0.0000 0.0000 -0.0100
v 0.0000 0.0000 -1.8900
v 0.0000 0.0000 -1.8900
v 0.0000 0.0000 -0.0100
v 0.0000 0.0000 -1.8900
v 0.0000 0.0000 -1.8900
v 0.0000 0.0000 -0.0100
v 0.0000 0.0000 -1.8900
v 0.0000 0.0000 -0.0100
v 0.0000 0.0000 -1.8900
v 0.0000 0.0000 -1.8900
v 0.0000 0.0000 -1.8900
v 0.0000 0.0000 -0.0100
v 0.0000 0.0000 -1.8900
v 0.0000 0.0000 -1.8900
v 0.0000 0.0000 -0.0100
v 0.0000 0.0000 -1.8900
v 0.0000 0.0000 -1.8900
v 0.0000 0.0000 -1.8900
v 0.0000 0.0000 -1.8900
v 0.0000 0.0000 -1.8900
v 0.0000 0.0000 -1.8900
v 0.0000 0.0000 -1.8900
v 0.0000 0.0000 -1.8900
v 0.0000 0.0000 -1.8900
v 0.0000 0.0000 -1.8900
v 0.0000 0.0000 -1.8900
v 0.0000 0.0000 -1.8900
v 0.0000 0.0000 -1.8900
v 0.0000 0.0000 -1.8900
v 0.0000 0.0000 -1.8900
v 0.0000 0.0000 -1.8900
v 0.0000 0.0000 -1.8900
v 0.0000 0.0000 -1.8900
v 0.0000 0.0000 -1.8900
v 0.0000 0.0000 -1.8900
v 0.0000 0.0000 -1.8900
v 0.0000 0.0000 -1.8900
v 0.0000 0.0000 -1.8900
v 0.0000 0.0000 -1.8900
v 0.0000 0.0000 -1.8900
v 0.0000 0.0000 -1.8900
v 0.0000 0.0000 -1.8900
v 0.0000 0.0000 -1.8900
v 0.0000 0.0000 -1.8900
v 0.0000 0.0000 -1.8900
v 0.0000 0.0000 -1.8900
v 0.0000 0.0000 -1.8900
v 0.0000 0.0000 -1.8900
v 0.0000 0.0000 -1.8900
v 0.0000 0.0000 -1.8900
v 0.0000 0.0000 -1.8900
v 0.0000 0.0000 -1.8900
v 0.0000 0.0000 -1.8900
v 0.0000 0.0000 -1.8900
v 0.0000 0.0000 -1.8900
v 0.0000 0.0000 -1.8900
v 0.0000 0.0000 -1.8900
v 0.0000 0.0000 -1.8900
v 0.0000 0.0000 -1.8900
v 0.0000 0.0000 -1.8900
v 0.0000 0.0000 -1.8900
v 0.0000 0.0000 -1.8900
v 0.0000 0.0000 -1.8900
v 0.0000 0.0000 -1.8900
v 0.0000 0.0000 -1.8900
v 0.0000 0.0000 -1.8900
v 0.0000 0.0000 -1.8900
v 0.0000 0.0000 -1.8900
v 0.0000 0.0000 -1.8900
v 0.0000 0.0000 -1.8900
v 0.0000 0.0000 -1.8900
v 2.5800 0.6400 0.0000
v 2.5800 0.6400 0.0000
v 2.5800 0.6400 0.0000
vt 0.0000 0.0000
vt -0.0830 -0.1523
vt 0.0010 -0.1709
vt -0.0693 -0.1152
vt 0.0039 -0.1592
vt -0.0664 -0.1436
vt -0.1455 -0.0967
vt -0.1191 -0.0703
vt -0.1172 -0.0967
vt -0.1680 -0.0176
vt -0.1377 -0.0068
vt -0.1367 -0.0322
vt -0.1455 0.0615
vt -0.1191 0.0576
vt -0.1172 0.0352
vt -0.0830 0.1211
vt -0.0693 0.1055
vt -0.0664 0.0840
vt 0.0010 0.1455
vt -0.0010 0.1250
vt 0.0039 0.1045
vt 0.0850 0.1260
vt 0.0664 0.1094
vt 0.0742 0.0889
vt 0.1475 0.0703
vt 0.1162 0.0645
vt 0.1260 0.0420
vt 0.1699 -0.0078
vt 0.1348 0.0010
vt 0.1445 -0.0234
vt 0.1475 -0.0879
vt 0.1162 -0.0635
vt 0.1475 -0.0879
vt 0.1260 -0.0898
vt 0.1445 -0.0234
vt 0.1162 -0.0635
vt 0.0850 -0.1475
vt 0.0664 -0.1113
vt 0.0742 -0.1396
vt 0.0010 -0.1709
vt -0.0010 -0.1309
vt 0.0039 -0.1592
vt -0.0010 -0.0801
vt -0.0693 -0.1152
vt -0.0420 -0.0713
vt -0.0664 -0.1436
vt 0.0049 -0.1025
vt -0.0342 -0.0938
vt -0.1191 -0.0703
vt -0.0713 -0.0439
vt -0.1172 -0.0967
vt -0.0625 -0.0684
vt -0.1377 -0.0068
vt -0.0820 -0.0059
vt -0.1367 -0.0322
vt -0.0723 -0.0322
vt -0.1191 0.0576
vt -0.0713 0.0322
vt -0.1172 0.0352
vt -0.0625 0.0049
vt -0.0693 0.1055
vt -0.0420 0.0605
vt -0.0664 0.0840
vt -0.0342 0.0322
vt -0.0420 0.0605
vt -0.0010 0.1250
vt -0.0693 0.1055
vt -0.0010 0.0723
vt 0.0039 0.1045
vt -0.0342 0.0322
vt -0.0664 0.0840
vt 0.0049 0.0430
vt 0.0664 0.1094
vt 0.0400 0.0635
vt 0.0742 0.0889
vt 0.0430 0.0342
vt 0.1162 0.0645
vt 0.0693 0.0361
vt 0.1260 0.0420
vt 0.0713 0.0088
vt 0.1348 0.0010
vt 0.0801 -0.0020
vt 0.1445 -0.0234
vt 0.0820 -0.0273
vt 0.1162 -0.0635
vt 0.0693 -0.0400
vt 0.1260 -0.0898
vt 0.0713 -0.0645
vt 0.0664 -0.1113
vt 0.0400 -0.0693
vt 0.0742 -0.1396
vt 0.0430 -0.0918
vt -0.0010 -0.1309
vt -0.0010 -0.0801
vt 0.0039 -0.1592
vt 0.0049 -0.1025
vt -10.2500 0.0000
vt -4.2266 11.1709
vt 4.5039 3.1602
vt 4.5273 -27.8379
f 29/29 31/31 28/28
f 29/29 32/32 31/31
f 31/31 30/30 28/28
f 8/8 10/10 7/7
