mtllib assets09_model_137.mtl
# Conker's Bad Fur Day — Real 3D Model (Multiplayer Level Models)
o assets09_model_137
usemtl assets09_model_137_mat

v 0.0000 9.8400 0.0000
v 3.0600 9.1100 -2.5800
v 1.0000 9.1200 -2.5800
v 7.1800 9.0900 -2.5800
v 9.2300 9.0700 -2.5800
v 2.4900 0.7200 -2.5800
v 7.8200 0.4900 -2.5800
v -0.1200 5.3800 -2.5800
v 2.6100 9.8000 -2.5800
v 10.5400 4.9100 -2.5800
v 7.9400 9.5700 -2.5800
v 3.3900 18.2400 -2.5800
v 1.6200 18.2200 -2.5800
v 2.9500 16.4700 -2.5800
v 0.7400 16.4500 -2.5800
v 6.9300 18.2700 -2.5800
v 7.3900 16.5100 -2.5800
v 8.7000 18.2900 -2.5800
v 9.6000 16.5300 -2.5800
v 8.7000 18.2900 -2.5800
v 6.9300 18.2700 -2.5800
v 9.6000 16.5300 -2.5800
v 7.3900 16.5100 -2.5800
v 3.3900 18.2400 -2.5800
v 2.9500 16.4700 -2.5800
v 1.6200 18.2200 -2.5800
v 0.7400 16.4500 -2.5800
v 3.0600 16.4100 -2.5800
v 1.0000 16.4200 -2.5800
v 7.1800 16.3800 -2.5800
v 9.2300 16.3700 -2.5800
v 3.0600 9.1100 -2.5800
v 1.0000 9.1200 -2.5800
v 7.1800 9.0900 -2.5800
v 9.2300 9.0700 -2.5800
v 3.0600 16.4100 -2.5800
v 1.0000 16.4200 -2.5800
v 7.1800 16.3800 -2.5800
v 9.2300 16.3700 -2.5800
v 10.3200 5.1600 -2.5800
v 2.3400 0.4200 -2.5800
v 7.6800 0.5000 -2.5800
v 7.6300 9.7300 -2.5800
v 2.2900 9.6400 -2.5800
v -0.3600 4.9900 -2.5800
v 3.0600 1.6400 -2.5800
v 1.0000 1.6500 -2.5800
v 7.1800 1.6100 -2.5800
v 9.2300 1.6000 -2.5800
v 3.0600 1.6400 -2.5800
v 1.0000 1.6500 -2.5800
v 7.1800 1.6100 -2.5800
v 9.2300 1.6000 -2.5800
v 1.0000 9.0800 -2.5800
v 3.0600 9.0700 -2.5800
v 7.1800 9.0500 -2.5800
v 9.2300 9.0300 -2.5800
v 1.0000 9.0800 -2.5800
v 3.0600 9.0700 -2.5800
v 7.1800 9.0500 -2.5800
v 9.2300 9.0300 -2.5800
v -28.0000 0.0000 17.9200
v -33.2800 0.0000 18.2300
v -28.1600 2.5600 15.3600
v -7.5200 0.0000 0.6400
v -7.5200 0.0000 0.6400
v 15.5000 10.3000 0.1400
v -7.5200 0.0000 0.0000
v -33.2800 0.0000 18.2300
v -28.0800 20.4800 0.0100
v -7.5200 0.0000 0.6400
vt 0.0000 0.9648
vt 0.0156 0.0029
vt -0.0098 0.0117
vt -0.0156 -0.0029
vt 0.0098 0.0020
vt 0.0020 0.0107
vt 0.0059 -0.0098
vt -0.0068 -0.0117
vt -0.0098 0.0088
vt -0.0146 -0.0029
vt 0.0020 0.0107
vt 0.0098 0.0020
vt 0.0029 0.0137
vt 0.0127 0.0020
vt -0.0098 0.0088
vt -0.0117 0.0117
vt -0.0146 -0.0029
vt -0.0176 -0.0029
vt 0.0098 0.0020
vt 0.0059 -0.0098
vt 0.0127 0.0020
vt 0.0078 -0.0127
vt -0.0068 -0.0117
vt -0.0078 -0.0146
vt -0.0146 -0.0029
vt -0.0176 -0.0029
vt 0.0029 0.0137
vt 0.0127 0.0020
vt -0.0117 0.0117
vt -0.0176 -0.0029
vt -0.0049 -0.0146
vt -0.0156 -0.0029
vt 0.0098 -0.0117
vt 0.0156 0.0029
vt -0.0078 -0.0146
vt -0.0176 -0.0029
vt 0.0078 -0.0127
vt 0.0127 0.0020
vt 0.0098 -0.0117
vt 0.0049 0.0146
vt 0.0156 0.0029
vt -0.0049 -0.0146
vt -0.0156 -0.0029
vt -0.0098 0.0117
vt 0.0049 0.0146
vt 0.0156 0.0029
vt -0.0098 0.0117
vt -0.0156 -0.0029
vt -0.0049 -0.0146
vt -0.0156 -0.0029
vt 0.0098 -0.0117
vt 0.0156 0.0029
vt 0.0156 0.0029
vt 0.0049 0.0146
vt -0.0098 0.0117
vt -0.0156 -0.0029
vt -0.0156 -0.0029
vt -0.0049 -0.0146
vt 0.0098 -0.0117
vt 0.0156 0.0029
vt 0.0000 1.0312
vt -6.5000 0.0000
vt -6.2500 0.0000
vt -6.5000 0.0000
vt -4.0000 0.0000
vt -4.0000 0.0000
vt -6.2500 0.0000
vt -6.5000 0.0000
vt -6.2500 0.0000
vt -3.5000 8.0020
vt -4.0000 0.0000
f 30/30 3/3 4/4
f 30/30 29/29 3/3
f 8/8 3/3 4/4
f 8/8 7/7 3/3
