mtllib assets00_model_002.mtl
# Conker's Bad Fur Day — Real 3D Model (Vegetation & Foliage)
o assets00_model_002
usemtl assets00_model_002_mat

v -21.1400 0.0000 0.0000
v 0.0000 0.0000 1.0800
v 0.0000 0.0600 -0.0100
v -0.0100 -17.8300 0.0000
v 0.0000 0.1200 -0.0100
v -0.0100 -2.4700 0.0000
v -0.0100 -1.4800 0.0000
v 0.0000 9.2700 -0.0100
v -0.0100 -0.9700 0.0000
v 0.0000 1.1100 -0.0100
v -0.0100 -0.0100 0.6000
v -0.0100 -0.0100 0.6300
v 0.6300 -0.0100 -0.0100
v -0.0100 -0.0100 0.1200
v 0.1200 -0.0100 -0.0100
v 25.5900 -0.0100 0.0000
v -0.0100 -0.0100 0.0000
v 0.0000 0.0000 -0.0100
v 0.0000 0.0000 1.0500
v -4.9700 0.0100 -3.6900
v -3.6900 -1.7500 -1.0900
v -3.0500 -1.7500 -22.1500
v -21.1600 0.0000 0.0000
v -0.0100 -0.0100 0.0000
v 0.0000 0.0000 1.5900
v 0.0000 0.0600 -0.0100
v -0.0100 -17.8300 0.0000
v 0.0000 0.1200 -0.0100
v -0.0100 -33.1600 0.0000
v -0.0100 -10.1200 0.0000
v 0.0000 1.5900 -0.0100
v -0.0100 -1.9300 0.0000
v 0.0000 10.2300 -0.0100
v 0.0000 2.0700 -0.0100
v -0.0100 -0.0100 0.0000
v -0.0100 -0.0100 0.0000
v 0.0300 -0.0100 -0.0100
v -0.0100 -0.0100 0.0300
v -9.1600 -0.0100 0.0000
v 0.0000 33.2700 -25.0300
v 1.5900 -0.0100 0.0000
v 0.0000 0.0000 2.5500
v 2.0700 -0.0100 0.0000
v 0.0000 0.0000 0.0900
v 0.0100 0.0000 0.0000
v -6.2700 -5.6300 -4.9700
v -4.9900 -3.6900 -22.7900
v 0.0000 -0.0100 -0.0100
v 0.0000 0.0000 8.5400
v 0.0000 0.0000 16.9500
v 0.0000 0.0300 -0.0100
v 0.0000 0.0900 -0.0100
v -0.0100 -33.1900 0.0000
v 0.0000 0.6300 -0.0100
v -1.0900 1.5900 0.0000
v -0.0100 -24.4900 0.0000
v 0.0000 0.0900 -0.0100
v 0.0000 1.5900 -0.0100
v -0.0100 -0.0100 0.0000
v 0.0000 1.5900 -0.0100
v -0.0100 -0.0100 0.0000
v 0.0000 0.0000 9.2700
v 0.0000 1.5900 -0.0100
v 0.0000 1.5900 -0.0100
v -0.0100 -0.0100 0.0000
v 0.0000 0.6000 -0.0100
v 0.0000 0.0000 9.2400
v 0.0000 0.1200 0.0000
v 0.0100 0.0000 0.0000
v 0.0100 0.0000 0.0000
v -6.9100 -6.2700 -6.2700
v -6.2700 -6.2700 -6.2700
v -21.1400 -21.1600 -0.0200
v -24.0900 -3.0300 -2.3900
v -21.1300 -0.0200 0.0000
v -0.0100 0.0000 0.0000
v 0.0000 0.0000 8.5400
v 0.0000 0.0900 -0.0100
v 0.0000 0.1500 -0.0100
v -0.0100 -33.2200 0.0000
v 0.0000 1.5900 -0.0700
v -17.4400 17.4300 0.0000
v 1.0200 17.9100 0.0000
v 0.0000 0.0000 25.5900
v 0.0000 0.0300 -0.0100
v -0.0100 -0.0100 0.0000
v -0.0100 -0.0100 0.0000
v 0.0000 0.0300 -0.0100
v 0.0000 0.0000 8.1600
v 0.0000 0.0000 0.0300
v 0.6300 -0.0100 0.0000
v 0.0000 0.0000 1.5900
v 1.1100 -0.0100 0.0000
v 0.1200 -0.0100 0.0000
v 0.0000 9.7500 0.0000
v 0.0100 0.0000 0.0000
v -26.7500 -0.0100 0.0000
v 0.0000 0.5700 -0.0100
v 0.0000 1.1100 -0.0100
v 0.0000 1.5900 -0.6100
v 0.0000 0.0000 9.2100
v 25.5900 -1.0000 0.0000
v 0.0000 0.0000 17.9100
v 0.0000 0.0000 1.5900
v 0.0000 1.5900 0.0000
v 0.0000 17.9100 0.0000
v 0.0000 2.5500 0.0000
v 0.0000 0.0300 0.0000
vt 0.0000 0.0000
vt -12.0010 -0.0127
vt -15.9385 -0.0010
vt -4.0000 0.0000
vt -16.0000 14.4990
vt 24.0000 0.0000
vt 0.0000 0.0000
vt -0.0010 -15.2500
vt 0.0000 0.0000
vt -0.0010 -0.1094
vt 0.0000 0.0000
vt 0.0000 0.0000
vt -0.0010 -0.0039
vt 0.0000 0.0000
vt -0.0010 -0.0010
vt 0.0000 0.0000
vt 0.0000 0.0000
vt -4.0000 0.0000
vt 0.0000 0.0000
vt -12.3877 -18.5166
vt -10.3232 -14.4502
vt -10.3213 -12.3232
vt 0.0000 0.0000
vt 0.0000 0.0000
vt -0.0010 -0.0156
vt -15.9385 -0.0010
vt -16.0000 0.0000
vt -4.0000 15.2490
vt 24.0000 0.0000
vt 0.0000 0.0000
vt -0.0010 -0.9531
vt 0.0000 0.0000
vt -0.0010 -0.0625
vt -0.0010 -0.0625
vt 0.0000 0.0000
vt -16.0000 0.0000
vt -0.0010 -0.0010
vt -3.2500 0.0000
vt 24.0000 0.0000
vt -0.2383 -0.0098
vt 0.0000 0.0000
vt -0.0127 0.0000
vt 0.0000 0.0000
vt -27.2500 0.0000
vt 0.0000 0.0000
vt -0.3584 -4.4697
vt -12.3232 -14.4512
vt -6.1934 0.0000
vt -25.5850 25.2812
vt -0.0010 -0.0156
vt -2.2510 -0.0010
vt -15.7979 -0.0010
vt -28.0000 0.0000
vt -2.4971 27.9990
vt -28.0000 0.0000
vt 0.0000 0.0000
vt -0.0010 -0.9531
vt -0.0010 -15.1943
vt -0.2031 0.0000
vt -0.0010 -0.0010
vt -0.0156 0.0000
vt -0.0010 -0.0010
vt -0.0010 -0.0010
vt -0.0010 -3.8477
vt 12.7500 0.0000
vt -0.0010 -0.0156
vt -0.0010 -0.0566
vt 0.0000 0.0000
vt 0.0000 0.0000
vt 0.0000 0.0000
vt -0.5498 -0.4854
vt 12.2529 -12.8018
vt 0.0000 0.0000
vt -2.4170 -10.3955
vt 0.0000 0.0000
vt 0.0000 0.0000
vt -25.5859 25.0312
vt -1.5010 -0.0039
vt -3.7979 -0.0010
vt 24.0000 0.0000
vt -1.5508 -24.0010
vt 12.0000 0.0000
vt -0.0156 0.0000
vt -0.0010 -26.2510
vt -0.0010 -0.0010
vt -0.0010 -16.0000
vt -0.0010 -28.0000
vt -0.0010 -0.0039
vt -0.0010 -0.0010
vt -0.0010 -0.0010
vt -0.0039 0.0000
vt -0.1035 -0.0010
vt -0.0098 0.0000
vt -0.1562 0.0000
vt 12.0000 0.0000
vt 0.0000 0.0000
vt 20.6475 0.0000
vt -12.7510 -0.0039
vt -3.0479 -0.0010
vt -0.0010 -0.0010
vt -0.0010 -0.0010
vt -0.0010 -2.5000
vt -0.0010 -0.0010
vt -0.0010 -0.0010
vt -0.0010 -2.5000
vt -12.0010 24.0000
vt 2.2998 0.0000
vt 0.0000 0.0000
f 1/1 2/2 3/3
f 4/4 5/5 6/6
f 7/7 8/8 9/9
f 10/10 11/11 12/12
f 13/13 14/14 15/15
f 16/16 17/17 18/18
f 19/19 20/20 21/21
f 22/22 23/23 24/24
f 25/25 26/26 27/27
f 28/28 29/29 30/30
f 31/31 32/32 33/33
f 34/34 35/35 36/36
f 37/37 38/38 39/39
f 40/40 41/41 42/42
f 43/43 44/44 45/45
f 46/46 47/47 48/48
f 49/49 50/50 51/51
f 52/52 53/53 54/54
f 55/55 56/56 57/57
f 58/58 59/59 60/60
f 61/61 62/62 63/63
f 64/64 65/65 66/66
f 67/67 68/68 69/69
f 70/70 71/71 72/72
f 73/73 74/74 75/75
f 76/76 77/77 78/78
f 79/79 80/80 81/81
f 82/82 83/83 84/84
f 85/85 86/86 87/87
f 88/88 89/89 90/90
f 91/91 92/92 93/93
f 94/94 95/95 96/96
f 97/97 98/98 99/99
f 100/100 101/101 102/102
f 103/103 104/104 105/105
f 106/106 107/107 108/108
