mtllib assets0E_model_049.mtl
# Conker's Bad Fur Day — Real 3D Model (Sloprano Models)
o assets0E_model_049
usemtl assets0E_model_049_mat

v 20.4800 0.0000 0.0000
v 20.4800 0.0000 0.0000
v 20.4800 0.0000 0.0000
v 20.4800 0.0000 0.0000
v 20.4800 0.0000 0.0000
v 20.4800 0.0000 0.0000
v 20.4800 0.0000 0.0000
v 20.4800 0.0000 0.0000
v 20.4800 0.0000 0.0000
v 20.4800 0.0000 0.0000
v 20.4800 0.0000 0.0000
v 20.4800 0.0000 0.0000
v 20.4800 0.0000 0.0000
v 20.4800 0.0000 0.0000
v 20.4800 0.0000 0.0000
v 20.4800 0.0000 0.0000
v 20.4800 0.0000 0.0000
v 20.4800 0.0000 0.0000
v 20.4800 0.0000 0.0000
v 20.4800 0.0000 0.0000
v 20.4800 0.0000 0.0000
v 20.4800 0.0000 0.0000
vt 0.0078 0.0693
vt 0.0078 0.0693
vt 0.0078 0.0693
vt 0.0078 0.0195
vt 0.0000 -31.9971
vt 0.0312 0.5029
vt 0.0312 0.5029
vt 0.0312 0.5654
vt 0.0312 0.5654
vt 0.0312 0.5654
vt 0.0312 0.5654
vt 0.0312 0.5654
vt 0.0312 0.5654
vt 0.0312 0.5029
vt 0.0312 0.0029
vt 0.0078 0.0195
vt 0.0000 -31.9971
vt 0.0312 0.5029
vt 0.0078 0.0195
vt 0.0312 0.5029
vt 0.0312 0.5029
vt 0.0312 0.5029
f 1/1 1/1 1/1
