# Conker's Bad Fur Day — Real 3D Model (Multiplayer Level Models)
o assets09_model_096

v 0.0000 9.3600 0.0000
v 0.0000 4.3900 -0.0100
v 10.2400 0.0000 -0.0100
v 5.1200 4.3900 -0.0100
v 0.0000 0.0000 -0.0100
v 6.7000 -5.1000 -0.0100
v 0.0000 -5.1000 -0.0100
v 10.2400 4.3900 -0.0100
v 0.0000 0.0000 -0.0100
v 10.2400 0.0000 -0.0100
v 10.3900 4.9200 -0.0100
v 5.1200 4.9200 -0.0100
v 0.0000 4.8300 -0.0100
v 0.0000 -5.6100 -0.0100
v 7.1900 -5.7200 -0.0100
v 0.0000 4.8300 -0.0100
v 0.0000 4.3900 -0.0100
v 10.2400 4.3900 -0.0100
v 5.1200 4.3900 -0.0100
v 0.0000 0.0000 -0.0100
v 0.0000 -5.1000 -0.0100
v 0.0000 0.0000 -0.0100
v 6.7000 -5.1000 -0.0100
v 7.1900 -5.7200 -0.0100
v 0.0000 -5.6100 -0.0100
v 10.2400 0.0000 -0.0100
v 10.2400 0.0000 -0.0100
v 0.0000 20.4800 -0.0100
v 0.0000 0.0000 -0.0100
v 10.2400 20.4800 -0.0100
v 10.2400 0.0000 -0.0100
v 0.0000 0.0000 -0.0100
v 10.2400 0.0000 -0.0100
v 0.0000 20.4800 -0.0100
v 10.2400 20.4800 -0.0100
v -28.0000 0.0000 17.9200
v -33.2800 0.0000 18.0700
v -28.1600 2.5600 15.3600
v -7.5200 0.0000 0.6400
v 15.3600 5.1600 0.0600
v 15.3600 5.1600 0.0600
v -7.5200 0.0000 0.6400
v -7.5200 0.0000 0.6400
vt 0.0000 0.0000
vt 0.0176 -0.0059
vt 0.0312 -0.0195
vt 0.0459 -0.0059
vt 0.0586 -0.0195
vt 0.0459 -0.0088
vt 0.0176 -0.0195
vt 0.0312 -0.0195
vt 0.0176 -0.0342
vt 0.0166 -0.0195
vt 0.0312 -0.0195
vt 0.0459 -0.0088
vt 0.0459 -0.0088
vt 0.0596 -0.0195
vt 0.0459 -0.0342
vt 0.0312 -0.0195
vt 0.0176 -0.0195
vt 0.0312 -0.0195
vt 0.0459 -0.0342
vt 0.0459 -0.0303
vt 0.0459 -0.0342
vt 0.0586 -0.0195
vt 0.0596 -0.0195
vt 0.0459 -0.0312
vt 0.0312 -0.0195
vt 0.0176 -0.0195
vt 0.0459 -0.0059
vt 0.0459 -0.0342
vt 0.0459 -0.0059
vt 0.0459 -0.0059
vt 0.0176 -0.0059
vt 0.0176 -0.0342
vt 0.0176 -0.0059
vt 0.0176 -0.0342
vt 0.0000 0.9219
vt -6.5000 0.0000
vt -6.2500 0.0000
vt -6.5000 0.0000
vt -4.0000 0.0000
vt 1.2617 2.5137
vt 1.2578 0.0039
vt -4.0000 0.0000
vt -4.0000 0.0000
f 1/1 2/2 3/3
f 4/4 5/5 6/6
f 7/7 6/6 8/8
f 5/5 4/4 9/9
f 30/30 12/12 31/31
f 32/32 31/31 12/12
f 29/29 28/28 18/18
f 1/1 2/2 3/3
f 4/4 5/5 3/3
f 5/5 1/1 3/3
f 6/6 7/7 8/8
f 8/8 9/9 6/6
f 18/18 19/19 20/20
f 19/19 21/21 20/20
f 22/22 23/23 24/24
f 23/23 25/25 24/24
