mtllib assets10_model_053.mtl
# Conker's Bad Fur Day — Real 3D Model (Spooky Models)
o assets10_model_053
usemtl assets10_model_053_mat

v 0.0000 2.5600 0.0000
v 0.0000 4.5600 0.0000
v 0.0000 6.9600 0.0000
v 0.0000 9.0400 0.0000
v 0.0000 11.2800 0.0000
v 0.0000 12.4800 0.0000
v 0.0000 12.9600 0.0000
v 0.0000 13.4400 0.0000
v 0.0000 13.9200 0.0000
v 0.0000 14.4000 0.0000
v 0.0000 14.7200 0.0000
v 0.0000 15.0400 0.0000
v 0.0000 15.3600 0.0000
v 0.0000 15.6800 0.0000
v 0.0000 16.0000 0.0000
v 0.0000 16.3200 0.0000
v -3.7300 -1.5800 2.1900
v -3.3200 -1.5800 1.7400
v 10.1600 0.0000 -16.3600
v 2.3000 0.0000 34.3000
v -18.7800 0.0000 19.3100
v -25.2000 2.3600 17.6800
v -21.6600 2.3600 22.2400
v -16.3300 2.3600 24.8200
v -11.2000 2.3600 21.1700
v -15.8500 2.5600 14.2600
v -20.8600 2.3600 13.7900
v -24.2900 2.3800 14.0000
v -24.9800 2.3600 16.2900
v -23.7400 2.3600 22.4700
v -18.2200 2.3600 25.3100
v -13.0900 2.3600 23.0200
v -12.3100 2.4700 17.7900
v -16.8300 2.5200 13.8700
v -21.7300 2.3600 14.6000
v -18.6200 0.0000 19.2500
v -14.1200 2.3600 25.0500
v -11.4000 2.3600 22.3700
v -14.5200 2.4700 16.2700
v -18.1900 2.4500 13.0900
v -23.7800 2.3700 12.9700
v -24.0200 2.3600 19.8400
v -19.8700 2.3600 24.2900
v -13.6000 4.7400 -20.6000
v -7.0900 4.9400 -18.7200
v -2.7300 4.8000 -21.2300
v -1.1500 4.9100 -26.2100
v -8.0700 4.7400 -28.6300
v -13.7400 4.7400 -25.8900
v -7.8800 0.0000 -23.9800
v -14.2200 4.7400 -26.5600
v -14.1300 4.7400 -21.7200
v -8.2000 4.9600 -18.2200
v -1.1700 4.7400 -21.4400
v 0.3600 5.0600 -25.7500
v -6.8500 4.7400 -29.2100
v 21.2700 7.6900 1.5200
v 14.9100 7.8000 5.2900
v 12.8300 7.6200 11.6900
v 16.5900 7.6200 17.4700
v 22.2800 7.6200 14.2900
v 25.5600 7.6200 7.2300
v 23.8400 7.8100 2.5500
v 24.6200 7.7100 4.0500
v 19.4900 7.6200 1.8400
v 14.1800 7.8600 5.7100
v 13.4800 7.6200 11.2600
v 17.3100 7.6200 16.2300
v 24.6900 7.6200 12.6200
v 25.9800 7.6200 6.6400
v 23.2100 7.6200 13.7000
v 25.5100 7.6200 8.0800
v 22.8900 7.7800 1.9500
v 15.7000 7.8200 3.8700
v 13.0000 7.6200 9.7700
v 14.1600 7.7500 16.1200
v 19.2100 7.6200 16.6700
v -35.7100 0.0000 3.7400
v -27.3800 19.9900 1.6400
v -24.5900 17.0400 -10.0800
v -27.2900 0.0000 -23.3000
v -21.4200 17.7100 -16.4800
v 6.0000 17.5900 -26.2400
v 21.4000 0.0000 -32.6700
v 17.3800 21.5700 -20.5900
v 22.8000 22.0400 -14.9700
v 14.7900 0.0000 -7.4000
v 25.7300 20.1200 -5.2300
v 25.2600 20.0000 -1.9100
v -18.6100 -2.3900 19.1300
v -7.4000 0.0000 -24.2800
v 19.3400 2.8800 8.7600
v -11.7200 2.3600 23.0600
v -27.0200 2.3800 10.1800
v 22.1700 7.6200 15.1400
v 22.1700 7.6200 15.1400
v 22.1700 7.6200 15.1400
v 22.1700 7.6200 15.1400
v 22.1700 7.6200 15.1400
v 22.1700 7.6200 15.1400
v 19.2800 2.8800 9.1000
v 19.2800 2.8800 9.1000
vt 0.0000 0.3281
vt 0.0000 0.5625
vt 0.0000 0.7812
vt 0.0000 0.9922
vt 0.0000 0.0000
vt 0.0000 1.2422
vt 0.0000 1.2891
vt 0.0000 1.3359
vt 0.0000 1.3828
vt 0.0000 1.4219
vt 0.0000 1.4531
vt 0.0000 1.4844
vt 0.0000 1.5156
vt 0.0000 1.5469
vt 0.0000 1.5781
vt 0.0000 1.6094
vt -0.3320 -0.1543
vt -3.2158 0.0000
vt -0.3184 -0.1543
vt 1.9326 0.6670
vt -2.4238 0.2305
vt -2.3613 0.2305
vt -1.9229 0.2305
vt -1.2422 0.2305
vt -1.2666 0.2451
vt -1.8730 0.2324
vt -2.2041 0.2305
vt -1.8115 0.0000
vt -2.4023 0.2305
vt -2.0020 0.2305
vt -1.4678 0.2305
vt -1.0830 0.2305
vt -1.4492 0.2363
vt -1.9229 0.2305
vt -2.3291 0.2305
vt -1.6211 0.2305
vt -1.3350 0.2305
vt -1.1943 0.2334
vt -1.4863 0.2598
vt -1.9834 0.2305
vt -2.3613 0.2305
vt -2.2451 0.2305
vt -0.7842 0.0000
vt -0.9814 0.4658
vt -0.4053 0.4834
vt -0.0166 0.4785
vt -0.3848 0.4629
vt -1.1934 0.4629
vt -1.5557 0.4697
vt -1.0391 0.4629
vt -1.5391 0.4629
vt -1.1709 0.4629
vt -0.4922 0.4756
vt -0.0850 0.4717
vt -0.3330 0.4629
vt 1.9365 0.0000
vt 1.6865 0.7568
vt 1.3066 0.7559
vt 1.3320 0.7559
vt 1.9814 0.7441
vt 2.4717 0.7441
vt 2.4697 0.7529
vt 1.9111 0.0000
vt 2.2158 0.7578
vt 1.6260 0.7588
vt 1.2637 0.7607
vt 1.3838 0.7441
vt 2.0557 0.7441
vt 2.4834 0.7441
vt 1.9199 0.0000
vt 2.3965 0.7441
vt 2.4990 0.7539
vt 1.9189 0.7451
vt 1.3174 0.7705
vt 1.3330 0.7441
vt 1.6055 0.7441
vt 2.1328 0.7441
vt -2.7168 1.9492
vt -1.6777 0.0000
vt -2.2725 1.6641
vt -1.8848 1.6582
vt 0.6152 0.0000
vt 0.9229 1.8896
vt 1.3623 1.9551
vt 3.2832 0.0000
vt 2.3652 2.1787
vt 2.4844 2.0674
vt 3.4590 0.0000
vt 2.3008 1.9570
vt -2.1074 0.2305
vt -0.7627 0.4756
vt 1.9092 0.7441
vt -1.1270 0.2305
vt -2.6221 0.2334
vt 2.1650 0.7441
vt 2.1650 0.7441
vt 2.1650 0.7441
vt 2.1650 0.7441
vt 2.1650 0.7441
vt 2.1650 0.7441
vt 1.8828 0.2812
vt 1.8828 0.2812
f 96/96 2/2 4/4
f 14/14 1/1 1/1
f 30/30 2/2 4/4
f 43/43 2/2 4/4
f 65/65 2/2 5/5
f 54/54 1/1 1/1
f 70/70 2/2 10/10
f 8/8 2/2 6/6
f 44/44 1/1 1/1
f 18/18 2/2 8/8
f 66/66 1/1 1/1
f 35/35 2/2 11/11
f 69/69 2/2 4/4
f 57/57 1/1 1/1
f 102/102 5/5 55/55
f 100/100 1/1 1/1
