mtllib assets0E_model_028.mtl
# Conker's Bad Fur Day — Real 3D Model (Sloprano Models)
o assets0E_model_028
usemtl assets0E_model_028_mat

v 20.4800 0.0000 0.0000
v 20.4800 0.0000 0.0000
v 20.4800 0.0000 0.0000
v 20.4800 0.0000 0.0000
v 20.4800 0.0000 0.0000
v 20.4800 0.0000 0.0000
v 20.4800 0.0000 0.0000
v 20.4800 0.0000 0.0000
v 20.4800 0.0000 0.0000
v 20.4800 0.0000 0.0000
v 20.4800 0.0000 0.0000
v 20.4800 0.0000 0.0000
v 20.4800 0.0000 0.0000
v 20.4800 0.0000 0.0000
v 20.4800 0.0000 0.0000
v 20.4800 0.0000 0.0000
v 20.4800 0.0000 0.0000
v 20.4800 0.0000 0.0000
v 20.4800 0.0000 0.0000
v 20.4800 0.0000 0.0000
v 20.4900 0.0000 0.0000
v 20.4900 0.0000 0.0000
v 20.4900 0.0000 0.0000
v 20.4900 0.0000 0.0000
v 20.4800 0.0000 0.0000
v 20.4800 0.0000 0.0000
v 20.4800 0.0000 0.0000
v 20.4800 0.0000 0.0000
v 20.4800 0.0000 0.0000
v 20.4800 0.0000 0.0000
v 20.4800 0.0000 0.0000
v 20.4800 0.0000 0.0000
vt 0.0000 0.0693
vt 0.0000 0.0654
vt 0.0000 0.0654
vt 0.0000 0.0674
vt 0.0000 0.0654
vt 0.0000 0.0654
vt 0.0000 0.0654
vt 0.0000 0.0654
vt 0.0000 0.0654
vt 0.0000 0.0654
vt 0.0000 0.0693
vt 0.0000 0.5684
vt 0.0000 0.0654
vt 0.0000 0.0654
vt 0.0000 0.0654
vt 0.0000 0.0654
vt 0.0000 0.5684
vt 0.0000 0.5684
vt 0.0000 0.5684
vt 0.0000 0.5684
vt 0.0000 0.0645
vt 0.0000 0.0645
vt 0.0000 0.0645
vt 0.0000 0.0645
vt 0.0000 0.0654
vt 0.0000 0.0654
vt 0.0000 0.0654
vt 0.0000 0.0654
vt 0.0000 0.0654
vt 0.0000 0.0654
vt 0.0000 0.0654
vt 0.0000 0.0654
f 1/1 1/1 1/1
f 1/1 1/1 1/1
f 11/11 2/2 5/5
