# Conker's Bad Fur Day — Real 3D Model (Bat's Tower Level Models)
o assets0A_model_030

v 0.0400 22.7200 0.0000
v 0.0000 0.6400 0.0000
v 0.0000 21.6800 0.0000
v 0.0000 34.0800 0.0000
v -28.1100 39.0600 2.8700
v 0.0000 0.1600 0.1000
v 0.1000 0.1600 0.1000
v 0.1000 0.1600 0.1000
v 3.1100 8.4000 -2.3700
v 7.8800 -2.0400 0.0000
v -1.6400 0.4100 -2.5300
v 10.1100 1.1700 4.2500
v 1.0500 3.8200 6.6100
v 3.3800 6.6900 3.9200
v 6.7900 4.0500 4.7600
v 4.2200 4.2500 0.9200
v 3.7400 1.2000 3.3600
v 1.3700 3.7800 -2.0300
v 8.6800 1.3200 1.1600
v 2.7200 1.2400 9.4100
v 2.2500 13.2600 9.6600
v 15.2500 7.8200 0.0300
v 3.6200 1.0300 -8.2600
v 2.6400 -8.6300 7.1500
v -7.5200 4.4300 -2.4100
v 10.2400 9.5900 -2.0800
v 9.3000 -2.5900 0.3100
v -3.0700 -0.8300 9.2900
v -2.1300 9.6900 1.0000
v 10.7200 1.7700 -1.3900
v 3.1500 -0.6100 -3.0800
v 0.2900 -4.3400 1.3700
v -5.3900 2.2300 2.6900
v 10.2400 4.7500 6.1600
v 4.9600 9.4900 7.3100
vt 0.0039 3.3203
vt 0.0000 0.1172
vt 0.0000 2.1562
vt 0.0000 3.3828
vt 0.0000 28.0000
vt 0.0098 0.0156
vt 0.0098 0.0156
vt 1.0830 0.1475
vt -0.2588 -15.5703
vt -15.5703 0.5000
vt 0.5000 -31.9678
vt 0.3594 0.6172
vt 0.5664 -0.0273
vt 0.0156 0.2041
vt 0.2461 -0.2168
vt -0.2109 -15.5703
vt -15.5703 0.5000
vt 0.5000 -31.9639
vt 0.5264 0.2207
vt 0.1895 0.0605
vt -0.2529 0.5303
vt 0.5879 -0.1631
vt -0.1875 -15.5674
vt -15.5674 -4.2549
vt 2.7520 -15.8281
vt 0.9072 0.1426
vt 0.1250 0.1377
vt -0.0166 -0.3887
vt -0.2158 -0.1240
vt -0.0732 0.0381
vt 0.1377 -15.5664
vt -15.5664 12.2617
vt 10.2598 16.6406
vt 0.6025 1.0391
vt 1.4883 0.9961
f 1/1 2/2 3/3
f 4/4 5/5 6/6
f 7/7 8/8 9/9
f 10/10 11/11 12/12
f 13/13 14/14 15/15
f 16/16 17/17 18/18
f 19/19 20/20 21/21
f 22/22 23/23 24/24
f 25/25 26/26 27/27
f 28/28 29/29 30/30
f 31/31 32/32 33/33
