# Conker's Bad Fur Day — Real 3D Model (Multiplayer Level Models)
o assets09_model_180

v 0.0000 0.3200 0.0000
v 0.0000 7.6800 0.0000
v 0.0000 -0.1000 0.2800
v 0.0000 -0.0900 0.0900
v 0.0500 -0.0400 0.1500
v 0.0000 -0.0900 0.0900
v 0.0000 0.0000 -0.2900
v 0.0500 -0.0400 0.1500
v 0.0000 0.0000 0.1800
v -0.0500 -0.0400 0.1500
v 0.0000 0.0000 0.1800
v -0.0500 -0.0400 0.1500
v -0.3200 0.0900 -0.0400
v -0.3000 0.0900 0.1600
v 0.0000 0.0000 -0.2900
v -0.0500 -0.0400 0.1500
v -0.7900 0.1000 0.0500
v 0.0000 0.0000 -0.2900
v 0.0500 -0.0400 0.1500
v 0.3000 0.0900 0.1600
v 0.3200 0.0900 -0.0400
v 0.7900 0.1000 0.0500
v -0.1100 0.0000 -0.3200
v 0.0000 -0.0200 -0.1000
v 0.1100 0.0000 -0.3200
v 0.0000 -0.1000 0.2800
v 0.0000 -0.0900 0.0900
v 0.0500 -0.0400 0.1500
v 0.0000 -0.0900 0.0900
v 0.0000 0.0000 -0.2900
v 0.0500 -0.0400 0.1500
v 0.0000 0.0000 0.1800
v -0.0500 -0.0400 0.1500
v 0.0000 0.0000 0.1800
v -0.0500 -0.0400 0.1500
v -0.3200 0.0900 -0.0400
v -0.3000 0.0900 0.1600
v 0.0000 0.0000 -0.2900
v -0.0500 -0.0400 0.1500
v -0.7900 0.1000 0.0500
v 0.0000 0.0000 -0.2900
v 0.0500 -0.0400 0.1500
v 0.3000 0.0900 0.1600
v 0.3200 0.0900 -0.0400
v 0.7900 0.1000 0.0500
v -0.1100 0.0000 -0.3200
v 0.0000 -0.0200 -0.1000
v 0.1100 0.0000 -0.3200
v -28.0000 0.0000 17.9200
v 12.8600 20.5800 0.0000
v 12.8800 35.9600 0.0000
v 12.8000 10.4000 0.0000
v 12.9800 5.1200 0.0000
v 12.8000 5.1600 0.0000
v 12.8600 10.3200 0.0000
vt 0.0000 0.3906
vt 0.0000 0.8594
vt 0.2061 0.7314
vt 1.9580 0.4824
vt 1.8154 0.7598
vt 2.0381 0.5752
vt 3.3760 0.6602
vt 1.9043 0.6924
vt 1.8291 0.7646
vt 1.9043 0.6924
vt 1.7490 0.9287
vt 1.8154 0.7598
vt 1.1221 -0.0391
vt 1.3828 0.4785
vt 1.7393 -0.2510
vt 1.9775 0.4932
vt 0.0127 0.2881
vt 1.9189 -0.2256
vt 2.0000 0.4600
vt 1.2842 0.4746
vt 0.9980 0.0117
vt -0.1836 0.3770
vt 1.9922 -0.0088
vt 1.3887 0.5127
vt 0.4805 0.0811
vt 0.2061 0.7314
vt 1.9580 0.4824
vt 1.8154 0.7598
vt 2.0381 0.5752
vt 3.3760 0.6602
vt 1.9043 0.6924
vt 1.8291 0.7646
vt 1.9043 0.6924
vt 1.7490 0.9287
vt 1.8154 0.7598
vt 1.1221 -0.0391
vt 1.3828 0.4785
vt 1.7393 -0.2510
vt 1.9775 0.4932
vt 0.0127 0.2881
vt 1.9189 -0.2256
vt 2.0000 0.4600
vt 1.2842 0.4746
vt 0.9980 0.0117
vt -0.1836 0.3770
vt 1.9922 -0.0088
vt 1.3887 0.5127
vt 0.4805 0.0811
vt -3.2500 0.0000
vt 1.2598 2.0117
vt 1.2500 4.0176
vt 1.2637 2.0059
vt -9.5010 -1.0010
vt 1.2500 1.0059
vt 1.2598 3.0137
f 1/1 2/2 3/3
f 4/4 5/5 6/6
f 6/6 5/5 7/7
f 5/5 8/8 7/7
f 1/1 9/9 10/10
f 1/1 3/3 9/9
f 8/8 5/5 4/4
f 10/10 2/2 1/1
f 11/11 12/12 13/13
f 12/12 14/14 13/13
f 15/15 12/12 11/11
f 1/1 2/2 3/3
f 1/1 3/3 4/4
f 4/4 3/3 5/5
f 6/6 7/7 8/8
