# Conker's Bad Fur Day — Real 3D Model (Multiplayer Level Models)
o assets09_model_040

v 0.0000 21.3600 0.0000
v 2.1700 4.9200 -0.0100
v 3.5400 2.1300 -0.0100
v 3.8300 3.6800 -0.0100
v 3.8300 6.4200 -0.0100
v 3.6900 7.5400 -0.0100
v 5.2100 5.0500 -0.0100
v 6.5900 6.4200 -0.0100
v 6.7300 7.5400 -0.0100
v 8.2500 4.9300 -0.0100
v 6.5900 3.6800 -0.0100
v 6.8900 2.1300 -0.0100
v 0.7600 5.0200 -0.0100
v 2.9800 8.8500 -0.0100
v 7.4300 8.8600 -0.0100
v 9.6700 5.0200 -0.0100
v 7.4300 8.8600 -0.0100
v 9.6700 5.0200 -0.0100
v 7.4400 1.1800 -0.0100
v 5.2100 2.7600 -0.0100
v 2.9900 1.1800 -0.0100
v 0.0500 1.2700 -0.0100
v 10.4500 0.5200 -0.0100
v 0.0800 10.2900 -0.0100
v 10.5300 9.9500 -0.0100
v 0.0800 10.2900 -0.0100
v 10.4500 0.5200 -0.0100
v 0.0500 1.2700 -0.0100
v 10.5300 9.9500 -0.0100
v 9.8700 1.5400 -0.0100
v 0.1400 0.5900 -0.0100
v 10.2800 9.5700 -0.0100
v 0.0600 10.4200 -0.0100
v -0.0800 0.5700 -0.0100
v 10.4200 9.8400 -0.0100
v -0.1600 10.5100 -0.0100
v 10.0000 1.7200 -0.0100
v 0.2800 0.2300 -0.0100
v 10.0400 0.2100 -0.0100
v 0.3200 10.2000 -0.0100
v 10.0800 10.1700 -0.0100
v 0.0000 5.1200 -0.0100
v 5.1200 5.1200 -0.0100
v 0.0000 0.0000 -0.0100
v 5.1200 0.0000 -0.0100
v 5.1200 0.0000 -0.0100
v 5.1200 5.1200 -0.0100
v 0.0000 5.1200 -0.0100
v 0.0000 0.0000 -0.0100
v 5.1200 5.1200 -0.0100
v 0.0000 5.1200 -0.0100
v 5.1200 0.0000 -0.0100
v 0.0000 5.1200 -0.0100
v 5.1200 0.0000 -0.0100
v 0.0000 0.0000 -0.0100
v 5.1200 0.0000 -0.0100
v -0.2000 5.1300 -0.0100
v 0.0000 0.0000 -0.0100
v 5.1200 5.1200 -0.0100
v 0.0600 5.0000 -0.0100
v 0.0000 0.0000 -0.0100
v 5.1200 0.0000 -0.0100
v 5.1200 5.1200 -0.0100
v 0.1300 5.2700 -0.0100
v 0.0000 0.0000 -0.0100
v 5.1200 0.0000 -0.0100
v 7.6900 4.7900 -0.0100
v 5.1200 0.0000 -0.0100
v 0.1300 5.2700 -0.0100
v 7.6900 4.7900 -0.0100
v 0.0000 0.0000 -0.0100
v 5.1200 0.0000 -0.0100
v 0.0600 5.0000 -0.0100
v 5.1200 5.1200 -0.0100
v 0.0000 0.0000 -0.0100
v 5.1200 0.0000 -0.0100
v -0.2000 5.1300 -0.0100
v 5.1200 5.1200 -0.0100
v 0.0000 0.0000 -0.0100
v -0.1900 7.0000 -0.0100
v 8.5400 0.4600 -0.0100
v 10.5000 7.1700 -0.0100
v 1.9400 0.3600 -0.0100
v 5.1100 11.2100 -0.0100
v 20.2400 1.8300 -0.0100
v 20.1900 0.1100 -0.0100
v 0.3900 2.3100 -0.0100
v 0.3700 1.6000 -0.0100
v 0.3900 2.3100 -0.0100
v 0.3700 1.6000 -0.0100
v 20.1900 0.1100 -0.0100
v 0.3900 2.3100 -0.0100
v 0.4300 3.4600 -0.0100
v 20.3300 4.6100 -0.0100
v 20.2400 1.8300 -0.0100
v 0.4300 3.4600 -0.0100
v 20.3300 4.6100 -0.0100
v 0.4300 3.4600 -0.0100
v 20.3300 4.6100 -0.0100
v 20.3300 4.6100 -0.0100
v 0.4300 3.4600 -0.0100
v 1.9400 0.3600 -0.0100
v 8.5400 0.4600 -0.0100
v -0.1900 7.0000 -0.0100
v 10.5000 7.1700 -0.0100
v 5.1100 11.2100 -0.0100
v 0.3900 2.3100 -0.0100
v 20.1900 0.1100 -0.0100
v 20.2400 1.8300 -0.0100
v 0.3700 1.6000 -0.0100
v 20.1900 0.1100 -0.0100
v 0.3900 2.3100 -0.0100
v 0.4300 3.4600 -0.0100
v 0.3900 2.3100 -0.0100
v 20.3300 4.6100 -0.0100
v 20.2400 1.8300 -0.0100
v 0.4300 3.4600 -0.0100
v 20.3300 4.6100 -0.0100
v 0.4300 3.4600 -0.0100
v 20.3300 4.6100 -0.0100
v 20.3300 4.6100 -0.0100
v 0.0000 31.6800 0.0000
v -28.0800 20.4800 0.0100
v -7.5200 0.0000 0.0000
v 13.1600 10.2600 0.0000
v -7.5200 0.0000 0.0000
v -33.2800 0.0000 18.3400
v -28.0800 11.5200 2.5700
v -28.0800 6.7200 5.1200
v -28.0800 6.8000 7.6800
v -7.5200 0.0000 0.6400
v 15.3600 5.1600 0.0400
v -7.5200 0.0000 0.0000
v -33.2800 0.0000 17.9900
v -28.0800 10.2400 0.0100
v -7.5200 0.0000 0.6400
v -7.5200 0.0000 0.0000
v -28.0800 20.4800 0.0100
v 12.8800 0.0400 0.0000
v -27.9200 0.0000 17.9200
v -33.2800 0.0000 18.5500
v -28.0000 0.0000 17.9200
v -33.2800 0.0000 18.3400
v -28.1600 2.5600 15.3600
v -7.5200 0.0000 0.6400
v -28.0800 11.5200 2.5700
v -28.0800 6.7200 5.1200
v -28.0800 6.8000 7.6800
v 15.3600 5.1600 0.0400
v -27.9200 0.0000 17.9200
v -33.2800 0.0000 18.5500
v 1.1900 0.0000 0.0000
vt 0.0000 0.0000
vt -0.0225 0.0693
vt -0.0215 0.0859
vt -0.0215 0.0742
vt -0.0195 0.0479
vt 0.0000 0.0859
vt 0.0215 0.0742
vt 0.0195 0.0479
vt 0.0400 0.0605
vt 0.0215 0.0859
vt 0.0225 0.0693
vt -0.0469 0.0342
vt -0.0234 0.0176
vt 0.0234 0.0176
vt 0.0469 0.0342
vt 0.0234 0.0176
vt 0.0469 0.0342
vt 0.0234 0.0459
vt 0.0000 0.0840
vt -0.0234 0.0459
vt 0.0215 0.0684
vt 0.0127 0.0430
vt 0.0225 0.0693
vt 0.0234 0.0459
vt -0.0225 0.0693
vt -0.0137 0.0430
vt -0.0215 0.0684
vt -0.0234 0.0459
vt -0.0215 0.0684
vt 0.0000 0.0840
vt -0.0225 0.0693
vt 0.0000 0.0840
vt 0.0000 0.0840
vt 0.0225 0.0693
vt 0.0000 0.0840
vt 0.0215 0.0684
vt -0.0234 0.0459
vt -0.0488 0.0479
vt -0.0488 0.0664
vt -0.0488 0.0732
vt -0.0488 0.0664
vt -0.0488 0.0732
vt -0.0312 0.0664
vt -0.0312 0.0732
vt -0.0488 0.0410
vt -0.0488 0.0664
vt -0.0312 0.0664
vt -0.0312 0.0410
vt -0.0488 0.0479
vt -0.0488 0.0410
vt -0.0312 0.0479
vt -0.0312 0.0732
vt -0.0488 0.0479
vt -0.0312 0.0479
vt -0.0400 0.0693
vt -0.0410 0.0703
vt -0.0420 0.0625
vt -0.0381 0.0762
vt -0.0381 0.0762
vt -0.0400 0.0693
vt -0.0283 0.0713
vt -0.0273 0.0791
vt -0.0273 0.0791
vt -0.0283 0.0713
vt -0.0156 0.0693
vt -0.0088 0.0752
vt -0.0156 0.0693
vt -0.0273 0.0791
vt -0.0088 0.0752
vt -0.0283 0.0713
vt -0.0283 0.0713
vt -0.0381 0.0762
vt -0.0273 0.0791
vt -0.0400 0.0693
vt -0.0400 0.0693
vt -0.0410 0.0703
vt -0.0381 0.0762
vt -0.0420 0.0625
vt -0.0215 0.0684
vt 0.0127 0.0430
vt 0.0215 0.0684
vt -0.0137 0.0430
vt 0.0000 0.0840
vt -0.0703 0.0859
vt 0.0000 0.1367
vt -0.0166 0.0674
vt 0.0000 0.0791
vt 0.0156 0.0674
vt 0.0000 0.0791
vt 0.0000 0.1367
vt -0.0166 0.0674
vt -0.0098 0.0479
vt -0.0430 0.0039
vt 0.0703 0.0859
vt 0.0098 0.0479
vt 0.0430 0.0039
vt 0.0098 0.0479
vt 0.0430 0.0039
vt -0.0430 0.0039
vt -0.0098 0.0479
vt -0.0137 0.0430
vt 0.0127 0.0430
vt -0.0215 0.0684
vt 0.0215 0.0684
vt 0.0000 0.0840
vt -0.0166 0.0674
vt 0.0000 0.1367
vt -0.0703 0.0859
vt 0.0000 0.0791
vt 0.0000 0.1367
vt 0.0156 0.0674
vt -0.0098 0.0479
vt -0.0166 0.0674
vt -0.0430 0.0039
vt 0.0703 0.0859
vt 0.0098 0.0479
vt 0.0430 0.0039
vt 0.0098 0.0479
vt -0.0430 0.0039
vt 0.0430 0.0039
vt 0.0000 2.1016
vt -6.2500 0.0000
vt -3.5000 8.0020
vt -2.7344 0.0000
vt -6.2500 0.0000
vt -6.5000 0.0000
vt -6.2500 0.0000
vt -3.5000 8.0020
vt -3.5000 8.0020
vt -3.5000 8.0020
vt -4.0000 0.0000
vt -6.2500 0.0000
vt -6.5000 0.0000
vt -6.2500 0.0000
vt -3.5000 8.0020
vt -4.0000 0.0000
vt -2.7344 0.0000
vt -2.7422 1.1250
vt -8.2500 0.0000
vt -6.5000 0.0000
vt -6.2500 0.0000
vt -6.5000 0.0000
vt -6.2500 0.0000
vt -6.5000 0.0000
vt -4.0000 0.0000
vt -3.5000 8.0020
vt -3.5000 8.0020
vt -3.5000 8.0020
vt 1.2578 1.0059
vt -6.5000 0.0000
vt -6.2500 0.0000
vt 0.0000 0.0000
f 5/5 1/1 3/3
f 3/3 2/2 8/8
f 19/19 3/3 2/2
f 17/17 18/18 19/19
f 20/20 18/18 17/17
f 1/1 2/2 3/3
f 3/3 2/2 4/4
f 1/1 2/2 3/3
f 4/4 2/2 1/1
f 5/5 1/1 3/3
f 13/13 9/9 14/14
f 15/15 16/16 17/17
f 1/1 2/2 3/3
f 3/3 2/2 4/4
f 5/5 3/3 4/4
f 18/18 12/12 17/17
f 12/12 19/19 20/20
