# Conker's Bad Fur Day — Real 3D Model (Windy Level Models)
o assets0B_model_001

v -1.6000 0.0000 -1.7000
v 0.0000 0.0400 0.0000
v 0.0000 5.1100 0.0000
v 0.0000 0.0000 -4.8800
v 0.0000 0.0200 0.0000
v 10.2400 0.0000 0.0000
v 2.5500 0.0300 0.0000
v 0.0000 0.0000 10.2400
v -9.6600 0.0000 0.0000
v 0.0000 0.8100 5.1300
v -10.7600 2.7900 -18.3400
v 0.0000 0.0800 0.0000
v 0.0000 5.0800 0.0000
v 0.0000 0.0100 0.0000
v 10.2400 0.0000 0.0000
v 0.0000 0.1200 0.0000
v 0.0000 5.0300 2.5600
v 0.0000 0.0100 0.0000
v 2.5600 0.0000 0.0000
v 0.0000 0.1600 0.0000
v 0.0000 4.9900 2.5600
v 0.0000 0.0100 0.0000
v 2.5600 0.0000 0.0000
v 0.0000 0.2000 0.0000
v 0.0000 4.9500 2.5600
v 0.0000 0.0100 0.0000
v 2.5600 0.0000 0.0000
v 0.0000 0.2200 0.0000
v 0.0000 10.0300 2.5600
v 0.0000 0.0100 0.0000
vt 0.0000 0.0000
vt 0.2500 1.0830
vt 0.0000 0.0000
vt -0.1660 0.0000
vt 0.0000 0.0781
vt 0.0000 0.1396
vt 15.8750 0.0000
vt 0.0000 0.0000
vt 0.0000 0.0020
vt 0.0000 0.0000
vt 0.0000 0.0000
vt 0.0000 0.0000
vt 0.0000 0.0000
vt 0.0000 0.0000
vt 0.0000 0.0000
vt 0.0000 0.0000
vt 0.0000 0.0000
vt 0.0000 0.0000
vt 0.0000 0.0000
vt 0.0000 0.0000
vt 0.0000 0.0000
vt 0.0000 0.0000
vt 0.0000 0.0000
vt 0.0000 0.0000
vt 0.0000 0.0000
vt 0.0000 0.0000
vt 0.0000 0.0000
vt 0.0000 0.0000
vt 0.0000 0.0000
vt 0.0000 0.0000
f 1/1 2/2 3/3
f 4/4 5/5 6/6
f 7/7 8/8 9/9
f 10/10 11/11 12/12
f 13/13 14/14 15/15
f 16/16 17/17 18/18
f 19/19 20/20 21/21
f 22/22 23/23 24/24
f 25/25 26/26 27/27
f 28/28 29/29 30/30
