# Conker's Bad Fur Day — Real 3D Model (Multiplayer Level Models)
o assets09_model_016

v 0.0000 1.3600 0.0000
v 7.5600 10.0000 -2.5800
v -0.1200 6.5100 -2.5800
v 4.4000 1.0200 -2.5800
v 13.5500 9.9500 -2.5800
v 10.5000 -0.1300 -2.5800
v 16.5100 1.0100 -2.5800
v 21.1900 6.3100 -2.5800
v -28.0000 0.0000 17.9200
v -33.2800 0.0000 18.5500
v -28.1600 2.5600 15.3600
v -7.5200 0.0000 0.6400
v 12.8600 0.0800 0.0000
vt 0.0000 0.0000
vt -0.0215 0.0107
vt -0.0127 0.0029
vt 0.0059 0.0156
vt 0.0000 0.0020
vt 0.0117 0.0029
vt 0.0215 0.0107
vt 0.0000 0.1406
vt -6.5000 0.0000
vt -6.2500 0.0000
vt -6.5000 0.0000
vt -4.0000 0.0000
vt -8.2500 0.0000
f 4/4 1/1 5/5
