mtllib assets09_model_021.mtl
# Conker's Bad Fur Day — Real 3D Model (Multiplayer Level Models)
o assets09_model_021
usemtl assets09_model_021_mat

v 3.9200 12.5800 -2.5800
v 0.5900 0.0700 -2.5800
v 2.9400 0.0600 -2.5800
v 8.1900 12.5700 -2.5800
v 7.6300 0.0400 -2.5800
v 9.9700 0.0300 -2.5800
v 6.7700 12.5700 -2.5800
v 2.9400 0.0600 -2.5800
v 7.6300 0.0400 -2.5800
v 3.9200 12.5800 -2.5800
v 2.4900 12.5900 -2.5800
v 0.5900 0.0700 -2.5800
v 6.7700 12.5700 -2.5800
v 3.9200 12.5800 -2.5800
v 5.8100 20.2500 -2.5800
v 6.4400 20.0400 -2.5800
v 6.8400 19.9900 -2.5800
v 5.7500 20.2300 -2.5800
v 6.4400 20.0400 -2.5800
v 5.8100 20.2500 -2.5800
v 6.9000 19.8200 -2.5800
v 5.7500 20.2300 -2.5800
v 6.4100 19.8400 -2.5800
v 6.9000 19.8200 -2.5800
v 6.4400 20.0400 -2.5800
v 5.7500 20.2300 -2.5800
v 6.4100 19.8400 -2.5800
v 7.1400 18.4200 -2.5800
v 6.9000 19.8200 -2.5800
v 6.9000 19.8200 -2.5800
v 7.1400 18.4200 -2.5800
v 7.4600 19.4300 -2.5800
v 1.8200 18.4400 -2.5800
v 4.1400 19.7600 -2.5800
v 3.4800 19.8400 -2.5800
v 1.8200 18.4400 -2.5800
v 3.4800 19.8400 -2.5800
v 3.1200 19.4700 -2.5800
v 4.7900 20.2400 -2.5800
v 4.2500 20.0500 -2.5800
v 3.4800 19.8400 -2.5800
v 5.1600 20.2400 -2.5800
v 4.2500 20.0500 -2.5800
v 4.7900 20.2400 -2.5800
v 4.1400 19.7600 -2.5800
v 3.6000 18.4300 -2.5800
v 4.4800 19.6000 -2.5800
v 1.8200 18.4400 -2.5800
v 3.6000 18.4300 -2.5800
v 4.1400 19.7600 -2.5800
v 7.4600 19.4300 -2.5800
v 8.9100 18.4200 -2.5800
v 7.5000 19.8100 -2.5800
v 7.1400 18.4200 -2.5800
v 3.6000 18.4300 -2.5800
v 7.1400 18.4200 -2.5800
v 6.4100 19.8400 -2.5800
v 4.6100 20.0300 -2.5800
v 5.1400 20.0000 -2.5800
v 5.1500 20.2300 -2.5800
v 5.1400 20.0000 -2.5800
v 5.7500 20.2300 -2.5800
v 5.1500 20.2300 -2.5800
v 5.1400 20.0000 -2.5800
v 6.4100 19.8400 -2.5800
v 5.7500 20.2300 -2.5800
v 5.1400 20.0000 -2.5800
v 5.0900 19.7400 -2.5800
v 6.4100 19.8400 -2.5800
v 5.1500 20.2300 -2.5800
v 4.7900 20.2400 -2.5800
v 4.6100 20.0300 -2.5800
v 3.4800 19.8400 -2.5800
v 4.6100 20.0300 -2.5800
v 4.7900 20.2400 -2.5800
v 4.6100 20.0300 -2.5800
v 3.4800 19.8400 -2.5800
v 4.1400 19.7600 -2.5800
v 7.4200 15.0000 -2.5800
v 9.4800 15.0000 -2.5800
v 8.9100 18.4200 -2.5800
v 6.7500 12.5300 -2.5800
v 8.1600 12.5200 -2.5800
v 9.4800 15.0000 -2.5800
v 1.2200 15.0200 -2.5800
v 3.2900 15.0200 -2.5800
v 3.6000 18.4300 -2.5800
v 3.2900 15.0200 -2.5800
v 7.4200 15.0000 -2.5800
v 7.1400 18.4200 -2.5800
v 3.9300 12.5400 -2.5800
v 6.7500 12.5300 -2.5800
v 7.4200 15.0000 -2.5800
v 2.5200 12.5400 -2.5800
v 3.9300 12.5400 -2.5800
v 3.2900 15.0200 -2.5800
v 5.0900 19.7400 -2.5800
v 3.6000 18.4300 -2.5800
v 6.4100 19.8400 -2.5800
v 4.4800 19.6000 -2.5800
v 3.6000 18.4300 -2.5800
v 5.0900 19.7400 -2.5800
v 8.9100 18.4200 -2.5800
v 7.1400 18.4200 -2.5800
v 7.4200 15.0000 -2.5800
v 9.4800 15.0000 -2.5800
v 7.4200 15.0000 -2.5800
v 6.7500 12.5300 -2.5800
v 3.6000 18.4300 -2.5800
v 1.8200 18.4400 -2.5800
v 1.2200 15.0200 -2.5800
v 7.1400 18.4200 -2.5800
v 3.6000 18.4300 -2.5800
v 3.2900 15.0200 -2.5800
v 7.4200 15.0000 -2.5800
v 3.2900 15.0200 -2.5800
v 3.9300 12.5400 -2.5800
v 1.2200 15.0200 -2.5800
v 4.3400 19.8500 -2.5800
v 3.4500 19.4400 -2.5800
v 4.1100 19.8900 -2.5800
v 3.6000 18.4300 -2.5800
v 1.8200 18.4400 -2.5800
v 3.4500 19.4400 -2.5800
v 4.3400 19.8500 -2.5800
v 3.6000 18.4300 -2.5800
v 3.4500 19.4400 -2.5800
v 6.7500 12.5300 -2.5800
v 9.9700 -0.0100 -2.5800
v 7.6300 -0.0100 -2.5800
v 6.3100 19.7100 -2.5800
v 8.9100 18.4200 -2.5800
v 7.1400 18.4200 -2.5800
v 1.8200 18.4400 -2.5800
v 3.1200 19.4700 -2.5800
v 3.4500 19.4400 -2.5800
v 5.1600 20.2400 -2.5800
v 4.1100 19.8900 -2.5800
v 4.2500 20.0500 -2.5800
v 5.1600 20.2400 -2.5800
v 4.3400 19.8500 -2.5800
v 4.1100 19.8900 -2.5800
v 4.3400 19.8500 -2.5800
v 5.7000 19.5900 -2.5800
v 7.1400 18.4200 -2.5800
v 3.6000 18.4300 -2.5800
v 5.6500 20.0500 -2.5800
v 5.8100 20.2500 -2.5800
v 6.2800 19.9600 -2.5800
v 5.6500 20.0500 -2.5800
v 5.1600 20.2400 -2.5800
v 5.8100 20.2500 -2.5800
v 5.2700 19.8900 -2.5800
v 4.3400 19.8500 -2.5800
v 5.1600 20.2400 -2.5800
v 5.2700 19.8900 -2.5800
v 6.8400 19.9900 -2.5800
v 6.2800 19.9600 -2.5800
v 5.8100 20.2500 -2.5800
v 7.5000 19.8100 -2.5800
v 6.3100 19.7100 -2.5800
v 6.2800 19.9600 -2.5800
v 7.5000 19.8100 -2.5800
v 2.9400 0.0100 -2.5800
v 0.5900 0.0200 -2.5800
v 2.5200 12.5400 -2.5800
v 3.2900 15.0200 -2.5800
v 1.2200 15.0200 -2.5800
v 1.8200 18.4400 -2.5800
v 3.9300 12.5400 -2.5800
v 2.5200 12.5400 -2.5800
v 1.2200 15.0200 -2.5800
v 9.4800 15.0000 -2.5800
v 7.4200 15.0000 -2.5800
v 7.1400 18.4200 -2.5800
v 7.4200 15.0000 -2.5800
v 3.2900 15.0200 -2.5800
v 3.6000 18.4300 -2.5800
v 3.9300 12.5400 -2.5800
v 7.6300 -0.0100 -2.5800
v 2.9400 0.0100 -2.5800
v 6.7500 12.5300 -2.5800
v 3.9300 12.5400 -2.5800
v 3.2900 15.0200 -2.5800
v 8.1600 12.5200 -2.5800
v 6.7500 12.5300 -2.5800
v 7.4200 15.0000 -2.5800
v 8.9100 18.4200 -2.5800
v 6.3100 19.7100 -2.5800
v 7.5000 19.8100 -2.5800
v 6.7500 12.5300 -2.5800
v 8.1600 12.5200 -2.5800
v 9.9700 -0.0100 -2.5800
v 7.1400 18.4200 -2.5800
v 5.7000 19.5900 -2.5800
v 6.3100 19.7100 -2.5800
v 4.3400 19.8500 -2.5800
v 5.2700 19.8900 -2.5800
v 5.7000 19.5900 -2.5800
v 2.5200 12.5400 -2.5800
v 3.9300 12.5400 -2.5800
v 2.9400 0.0100 -2.5800
v 1.8200 18.4400 -2.5800
v 3.6000 18.4300 -2.5800
v 3.2900 15.0200 -2.5800
v 1.2200 15.0200 -2.5800
v 3.2900 15.0200 -2.5800
v 3.9300 12.5400 -2.5800
v 7.1400 18.4200 -2.5800
v 8.9100 18.4200 -2.5800
v 9.4800 15.0000 -2.5800
v 3.6000 18.4300 -2.5800
v 7.1400 18.4200 -2.5800
v 7.4200 15.0000 -2.5800
v 3.9300 12.5400 -2.5800
v 6.7500 12.5300 -2.5800
v 7.6300 -0.0100 -2.5800
v 3.2900 15.0200 -2.5800
v 7.4200 15.0000 -2.5800
v 6.7500 12.5300 -2.5800
v 7.4200 15.0000 -2.5800
v 9.4800 15.0000 -2.5800
v 8.1600 12.5200 -2.5800
v 5.4500 5.8500 -2.5800
v 11.8600 3.6500 -2.5800
v 6.2100 -1.1900 -2.5800
v 6.2100 -1.1900 -2.5800
v -0.2200 2.4700 -2.5800
v 5.4500 5.8500 -2.5800
v 5.4500 5.8500 -2.5800
v -0.2200 2.4700 -2.5800
v 0.2800 9.2700 -2.5800
v 9.0700 11.2300 -2.5800
v 5.4500 5.8500 -2.5800
v 0.2800 9.2700 -2.5800
v 11.8600 3.6500 -2.5800
v 5.4500 5.8500 -2.5800
v 9.0700 11.2300 -2.5800
v 5.9900 5.7700 -2.5800
v 6.3300 -0.1600 -2.5800
v -0.0900 1.7100 -2.5800
v 5.9900 5.7700 -2.5800
v 11.8800 4.8800 -2.5800
v 6.3300 -0.1600 -2.5800
v -0.0900 1.7100 -2.5800
v 1.2000 9.0900 -2.5800
v 5.9900 5.7700 -2.5800
v 5.9900 5.7700 -2.5800
v 1.2000 9.0900 -2.5800
v 7.6700 10.6600 -2.5800
v 11.8800 4.8800 -2.5800
v 5.9900 5.7700 -2.5800
v 7.6700 10.6600 -2.5800
v 6.1300 6.5400 -2.5800
v 3.6700 -0.7200 -2.5800
v 11.3700 1.8300 -2.5800
v 10.3100 9.0700 -2.5800
v 6.1300 6.5400 -2.5800
v 11.3700 1.8300 -2.5800
v 10.3100 9.0700 -2.5800
v 3.0600 11.1200 -2.5800
v 6.1300 6.5400 -2.5800
v 6.1300 6.5400 -2.5800
v 3.0600 11.1200 -2.5800
v -0.8100 4.8400 -2.5800
v 3.6700 -0.7200 -2.5800
v 6.1300 6.5400 -2.5800
v -0.8100 4.8400 -2.5800
v 5.3600 4.9000 -2.5800
v 7.5800 11.6900 -2.5800
v 11.8200 4.2100 -2.5800
v 6.1700 -0.6300 -2.5800
v 5.3600 4.9000 -2.5800
v 11.8200 4.2100 -2.5800
v 7.5800 11.6900 -2.5800
v 5.3600 4.9000 -2.5800
v 0.0300 9.9400 -2.5800
v 0.0300 9.9400 -2.5800
v 5.3600 4.9000 -2.5800
v -0.5800 1.2900 -2.5800
v 5.3600 4.9000 -2.5800
v 6.1700 -0.6300 -2.5800
v -0.5800 1.2900 -2.5800
v 5.7800 5.8200 -2.5800
v 10.2300 1.0700 -2.5800
v 2.7200 0.3700 -2.5800
v 5.7800 5.8200 -2.5800
v 10.3700 9.6400 -2.5800
v 10.2300 1.0700 -2.5800
v 10.3700 9.6400 -2.5800
v 5.7800 5.8200 -2.5800
v 3.7800 11.6100 -2.5800
v 5.7800 5.8200 -2.5800
v -0.8200 6.3300 -2.5800
v 3.7800 11.6100 -2.5800
v 5.7800 5.8200 -2.5800
v 2.7200 0.3700 -2.5800
v -0.8200 6.3300 -2.5800
v 5.1300 10.2800 -2.5800
v 10.0700 2.6600 -2.5800
v 9.9600 7.8700 -2.5800
v 5.1300 10.2800 -2.5800
v 5.3700 -0.1400 -2.5800
v 10.0700 2.6600 -2.5800
v 0.4400 7.4700 -2.5800
v 0.4400 7.4700 -2.5800
v 0.5600 2.2600 -2.5800
v 5.3700 -0.1400 -2.5800
v -28.0000 0.0000 17.9200
v -33.2800 0.0000 18.5500
v -28.1600 2.5600 15.3600
v -7.5200 0.0000 0.6400
v 2.5800 0.6400 2.5600
v -7.5200 0.0000 0.6400
v 15.3600 5.1600 0.0600
v -7.5200 0.0000 0.0000
v -33.2800 0.0000 18.2300
v -28.0800 20.4800 0.0900
v -7.5200 0.0000 0.6400
v 15.0700 15.0700 15.0700
v 1.4600 1.4600 0.0000
v 4.2500 4.2500 -18.7100
v 1.3200 1.4600 1.4600
v -6.7900 -6.7900 15.6300
v 7.9500 -7.4000 -7.4000
v 1.2400 1.2400 1.2500
v 1.2500 1.2500 0.0000
vt -0.0186 -0.0186
vt -0.0010 -0.0498
vt 0.0391 -0.0186
vt 0.0352 -0.0498
vt 0.0537 -0.0186
vt 0.0283 -0.0371
vt -0.0010 -0.0498
vt 0.0352 -0.0498
vt 0.0068 -0.0371
vt -0.0039 -0.0186
vt -0.0186 -0.0186
vt 0.0283 -0.0371
vt 0.0068 -0.0371
vt 0.0205 -0.0156
vt 0.0254 -0.0215
vt 0.0283 -0.0176
vt 0.0205 -0.0215
vt 0.0254 -0.0215
vt 0.0205 -0.0156
vt 0.0293 -0.0264
vt 0.0205 -0.0215
vt 0.0254 -0.0322
vt 0.0293 -0.0264
vt 0.0254 -0.0215
vt 0.0205 -0.0215
vt 0.0254 -0.0322
vt 0.0312 -0.0420
vt 0.0293 -0.0264
vt 0.0293 -0.0264
vt 0.0312 -0.0420
vt 0.0332 -0.0244
vt -0.0098 -0.0186
vt 0.0078 -0.0303
vt 0.0029 -0.0176
vt -0.0098 -0.0186
vt 0.0029 -0.0176
vt 0.0000 -0.0127
vt 0.0127 -0.0186
vt 0.0088 -0.0156
vt 0.0029 -0.0176
vt 0.0156 -0.0146
vt 0.0088 -0.0156
vt 0.0127 -0.0186
vt 0.0078 -0.0303
vt 0.0039 -0.0420
vt 0.0107 -0.0342
vt -0.0098 -0.0186
vt 0.0039 -0.0420
vt 0.0078 -0.0303
vt 0.0332 -0.0244
vt 0.0449 -0.0186
vt 0.0332 -0.0186
vt 0.0312 -0.0420
vt 0.0039 -0.0420
vt 0.0312 -0.0420
vt 0.0254 -0.0322
vt 0.0117 -0.0264
vt 0.0156 -0.0283
vt 0.0156 -0.0225
vt 0.0156 -0.0283
vt 0.0205 -0.0215
vt 0.0156 -0.0225
vt 0.0156 -0.0283
vt 0.0254 -0.0322
vt 0.0205 -0.0215
vt 0.0156 -0.0283
vt 0.0156 -0.0332
vt 0.0254 -0.0322
vt 0.0156 -0.0225
vt 0.0127 -0.0186
vt 0.0117 -0.0264
vt 0.0029 -0.0176
vt 0.0117 -0.0264
vt 0.0127 -0.0186
vt 0.0117 -0.0264
vt 0.0029 -0.0176
vt 0.0078 -0.0303
vt 0.0332 -0.0459
vt 0.0488 -0.0186
vt 0.0449 -0.0186
vt 0.0283 -0.0371
vt 0.0391 -0.0186
vt 0.0488 -0.0186
vt -0.0137 -0.0186
vt 0.0020 -0.0459
vt 0.0039 -0.0420
vt 0.0020 -0.0459
vt 0.0332 -0.0459
vt 0.0312 -0.0420
vt 0.0068 -0.0371
vt 0.0283 -0.0371
vt 0.0332 -0.0459
vt -0.0039 -0.0186
vt 0.0068 -0.0371
vt 0.0020 -0.0459
vt 0.0156 -0.0332
vt 0.0039 -0.0420
vt 0.0254 -0.0322
vt 0.0107 -0.0342
vt 0.0039 -0.0420
vt 0.0156 -0.0332
vt 0.0449 -0.0186
vt 0.0312 -0.0420
vt 0.0332 -0.0459
vt 0.0488 -0.0186
vt 0.0332 -0.0459
vt 0.0283 -0.0371
vt 0.0039 -0.0420
vt -0.0098 -0.0186
vt -0.0137 -0.0186
vt 0.0312 -0.0420
vt 0.0039 -0.0420
vt 0.0020 -0.0459
vt 0.0332 -0.0459
vt 0.0020 -0.0459
vt 0.0068 -0.0371
vt -0.0137 -0.0186
vt 0.0098 -0.0049
vt 0.0029 -0.0078
vt 0.0078 -0.0098
vt 0.0039 0.0049
vt -0.0098 -0.0186
vt 0.0029 -0.0078
vt 0.0098 -0.0049
vt 0.0039 0.0049
vt 0.0029 -0.0078
vt 0.0283 0.0000
vt 0.0537 -0.0186
vt 0.0352 0.0127
vt 0.0244 -0.0029
vt 0.0449 -0.0186
vt 0.0312 0.0049
vt -0.0098 -0.0186
vt 0.0000 -0.0127
vt 0.0029 -0.0078
vt 0.0156 -0.0146
vt 0.0078 -0.0098
vt 0.0088 -0.0156
vt 0.0156 -0.0146
vt 0.0098 -0.0049
vt 0.0078 -0.0098
vt 0.0098 -0.0049
vt 0.0195 -0.0020
vt 0.0312 0.0049
vt 0.0039 0.0049
vt 0.0195 -0.0098
vt 0.0205 -0.0156
vt 0.0244 -0.0088
vt 0.0195 -0.0098
vt 0.0156 -0.0146
vt 0.0205 -0.0156
vt 0.0166 -0.0049
vt 0.0098 -0.0049
vt 0.0156 -0.0146
vt 0.0166 -0.0049
vt 0.0283 -0.0176
vt 0.0244 -0.0088
vt 0.0205 -0.0156
vt 0.0332 -0.0186
vt 0.0244 -0.0029
vt 0.0244 -0.0088
vt 0.0332 -0.0186
vt 0.0000 0.0127
vt -0.0186 -0.0186
vt -0.0039 -0.0186
vt 0.0020 0.0088
vt -0.0137 -0.0186
vt -0.0098 -0.0186
vt 0.0068 0.0000
vt -0.0039 -0.0186
vt -0.0137 -0.0186
vt 0.0488 -0.0186
vt 0.0332 0.0088
vt 0.0312 0.0049
vt 0.0332 0.0088
vt 0.0020 0.0088
vt 0.0039 0.0049
vt 0.0068 0.0000
vt 0.0352 0.0127
vt 0.0000 0.0127
vt 0.0283 0.0000
vt 0.0068 0.0000
vt 0.0020 0.0088
vt 0.0391 -0.0186
vt 0.0283 0.0000
vt 0.0332 0.0088
vt 0.0449 -0.0186
vt 0.0244 -0.0029
vt 0.0332 -0.0186
vt 0.0283 0.0000
vt 0.0391 -0.0186
vt 0.0537 -0.0186
vt 0.0312 0.0049
vt 0.0195 -0.0020
vt 0.0244 -0.0029
vt 0.0098 -0.0049
vt 0.0166 -0.0049
vt 0.0195 -0.0020
vt -0.0039 -0.0186
vt 0.0068 0.0000
vt 0.0000 0.0127
vt -0.0098 -0.0186
vt 0.0039 0.0049
vt 0.0020 0.0088
vt -0.0137 -0.0186
vt 0.0020 0.0088
vt 0.0068 0.0000
vt 0.0312 0.0049
vt 0.0449 -0.0186
vt 0.0488 -0.0186
vt 0.0039 0.0049
vt 0.0312 0.0049
vt 0.0332 0.0088
vt 0.0068 0.0000
vt 0.0283 0.0000
vt 0.0352 0.0127
vt 0.0020 0.0088
vt 0.0332 0.0088
vt 0.0283 0.0000
vt 0.0332 0.0088
vt 0.0488 -0.0186
vt 0.0391 -0.0186
vt 0.0049 -0.0137
vt 0.0078 -0.0098
vt 0.0029 -0.0078
vt 0.0029 -0.0078
vt 0.0000 -0.0127
vt 0.0049 -0.0137
vt 0.0049 -0.0137
vt 0.0000 -0.0127
vt 0.0029 -0.0176
vt 0.0088 -0.0156
vt 0.0049 -0.0137
vt 0.0029 -0.0176
vt 0.0078 -0.0098
vt 0.0049 -0.0137
vt 0.0088 -0.0156
vt 0.0303 -0.0215
vt 0.0283 -0.0176
vt 0.0254 -0.0215
vt 0.0303 -0.0215
vt 0.0332 -0.0186
vt 0.0283 -0.0176
vt 0.0254 -0.0215
vt 0.0293 -0.0264
vt 0.0303 -0.0215
vt 0.0303 -0.0215
vt 0.0293 -0.0264
vt 0.0332 -0.0244
vt 0.0332 -0.0186
vt 0.0303 -0.0215
vt 0.0332 -0.0244
vt 0.0127 -0.0312
vt 0.0117 -0.0264
vt 0.0078 -0.0303
vt 0.0107 -0.0342
vt 0.0127 -0.0312
vt 0.0078 -0.0303
vt 0.0107 -0.0342
vt 0.0156 -0.0332
vt 0.0127 -0.0312
vt 0.0127 -0.0312
vt 0.0156 -0.0332
vt 0.0156 -0.0283
vt 0.0117 -0.0264
vt 0.0127 -0.0312
vt 0.0156 -0.0283
vt 0.0215 -0.0049
vt 0.0244 -0.0088
vt 0.0244 -0.0029
vt 0.0195 -0.0020
vt 0.0215 -0.0049
vt 0.0244 -0.0029
vt 0.0244 -0.0088
vt 0.0215 -0.0049
vt 0.0195 -0.0098
vt 0.0195 -0.0098
vt 0.0215 -0.0049
vt 0.0166 -0.0049
vt 0.0215 -0.0049
vt 0.0195 -0.0020
vt 0.0166 -0.0049
vt 0.0176 -0.0186
vt 0.0205 -0.0156
vt 0.0156 -0.0146
vt 0.0176 -0.0186
vt 0.0205 -0.0215
vt 0.0205 -0.0156
vt 0.0205 -0.0215
vt 0.0176 -0.0186
vt 0.0156 -0.0225
vt 0.0176 -0.0186
vt 0.0127 -0.0186
vt 0.0156 -0.0225
vt 0.0176 -0.0186
vt 0.0156 -0.0146
vt 0.0127 -0.0186
vt -0.0010 -0.0498
vt 0.0537 -0.0186
vt 0.0352 -0.0498
vt -0.0010 -0.0498
vt 0.0352 0.0127
vt 0.0537 -0.0186
vt -0.0186 -0.0186
vt -0.0186 -0.0186
vt 0.0000 0.0127
vt 0.0352 0.0127
vt 0.0000 4.8438
vt -6.5000 0.0000
vt -6.2500 0.0000
vt -6.5000 0.0000
vt -4.0000 0.0000
vt 5.1650 6.2266
vt -4.0000 0.0000
vt -6.2500 0.0000
vt -6.5000 0.0000
vt -6.2500 0.0000
vt -3.5000 8.0020
vt -4.0000 0.0000
vt 0.4746 0.4746
vt -23.5537 -23.5537
vt -1.8271 27.1895
vt -23.5537 -13.7246
vt 1.5264 0.7764
vt 7.2646 7.2646
vt 0.1221 0.1074
vt 0.1074 0.1074
f 23/23 24/24 25/25
f 26/26 27/27 28/28
f 29/29 30/30 31/31
f 25/25 26/26 27/27
f 28/28 29/29 30/30
f 3/3 25/25 1/1
f 26/26 27/27 28/28
f 29/29 30/30 31/31
f 23/23 24/24 25/25
f 26/26 27/27 28/28
f 29/29 30/30 31/31
f 25/25 26/26 27/27
f 28/28 29/29 30/30
f 1/1 2/2 3/3
f 4/4 5/5 6/6
f 25/25 26/26 27/27
f 28/28 29/29 30/30
f 13/13 14/14 15/15
f 16/16 17/17 18/18
f 19/19 20/20 21/21
f 114/114 3/3 114/114
f 14/14 2/2 14/14
f 14/14 2/2 14/14
f 45/45 128/128 32/32
f 32/32 128/128 32/32
