mtllib assets09_model_263.mtl
# Conker's Bad Fur Day — Real 3D Model (Multiplayer Level Models)
o assets09_model_263
usemtl assets09_model_263_mat

v 0.0000 7.2800 0.0000
v -27.3600 0.0000 17.9200
v -7.5200 0.0000 0.6400
v -6.8800 0.0000 0.0000
v -27.4400 20.4800 0.0900
v -27.4400 10.8800 2.6400
v -27.4400 5.9200 5.2000
v -27.4400 5.9600 7.7600
v -7.5200 0.0000 0.6400
v 12.9200 25.6800 0.0000
v -6.8800 0.0000 0.0000
v -27.4400 20.4800 0.0100
v -7.5200 0.0000 0.6400
vt 0.0000 0.0000
vt -3.2500 0.0000
vt -2.6562 0.2500
vt -3.2500 0.0000
vt -3.4375 9.0020
vt -3.4688 8.5020
vt -3.4844 8.2520
vt -3.4922 8.1270
vt -6.5000 0.0000
vt -6.2500 0.0000
vt -3.2500 0.0000
vt -3.4375 9.0020
vt -6.5000 0.0000
f 1/1 2/2 3/3
f 4/4 5/5 6/6
f 7/7 6/6 5/5
f 8/8 9/9 10/10
f 8/8 10/10 11/11
