mtllib assets09_model_391.mtl
# Conker's Bad Fur Day — Real 3D Model (Multiplayer Level Models)
o assets09_model_391
usemtl assets09_model_391_mat

v 0.0000 14.1600 0.0000
v 0.0000 0.0000 -0.0100
v 0.0000 0.0000 -0.0100
v 0.0000 0.0000 -2.5600
v 0.0000 0.0000 -0.0100
v 2.5800 0.6400 0.0000
v -6.8800 0.0000 0.0000
v -33.2800 0.0000 18.2300
v -27.2000 2.5600 15.3600
v -33.2800 0.0000 18.2300
v 13.0000 0.0400 0.0000
v -6.8800 0.0000 0.0000
v -27.5200 20.4800 0.0100
v -27.5200 11.5200 2.5700
v -27.5200 6.7200 5.1200
v -27.5200 6.8000 7.6800
v -27.5200 6.8400 10.2400
v -7.5200 0.0000 1.2800
v -6.8800 0.0000 0.0000
v -27.5200 20.4800 0.0900
v -27.5200 6.7200 5.2000
v -27.5200 6.8400 10.3200
v 15.3800 20.5200 0.0600
v -33.2800 0.0000 18.3500
v 0.9800 0.3800 0.3800
vt 0.0000 0.0000
vt 0.0195 0.0176
vt 0.0225 0.0273
vt 0.0146 0.0137
vt 0.0000 0.0020
vt 4.6484 -30.8730
vt -2.6719 0.0000
vt -2.6797 2.0000
vt -6.5000 0.0000
vt -0.7344 0.0000
vt -6.2500 0.0000
vt -3.2500 0.0000
vt -3.4375 9.0020
vt -3.4688 8.5020
vt -3.4844 8.2520
vt -3.4922 8.1270
vt -3.4961 8.0645
vt -6.5000 0.0000
vt -3.2500 0.0000
vt -2.6875 1.1250
vt -2.6875 0.6641
vt -0.7344 0.0000
vt 1.2715 2.5234
vt -0.7344 0.0000
vt 24.5479 13.5020
f 1/1 21/21 9/9
f 21/21 3/3 5/5
f 1/1 3/3 21/21
f 11/11 1/1 3/3
f 2/2 5/5 3/3
f 4/4 7/7 5/5
f 12/12 6/6 13/13
f 15/15 14/14 20/20
f 19/19 21/21 22/22
f 18/18 21/21 19/19
