mtllib assets09_model_155.mtl
# Conker's Bad Fur Day — Real 3D Model (Multiplayer Level Models)
o assets09_model_155
usemtl assets09_model_155_mat

v 0.0000 9.5200 0.0000
v 0.0000 0.0000 -0.0100
v 0.0000 0.0000 -0.0100
v 0.0000 0.0000 -0.0100
v 0.0000 0.0000 -0.0100
v 0.0000 0.0000 -0.0100
v 0.0000 0.0000 -0.0100
v 0.0000 0.0000 -0.0100
v 0.0000 0.0000 -0.0100
v 0.0000 0.0000 -0.0100
v 0.0000 0.0000 -0.0100
v 0.0000 0.0000 -0.0100
v 0.0000 0.0000 -0.0100
v 0.0000 0.0000 -0.0100
v 0.0000 0.0000 -0.0100
v 0.0000 0.0000 -0.0100
v 0.0000 0.0000 -0.0100
v 0.0000 0.0000 -0.0100
v 0.0000 0.0000 -0.0100
v 0.0000 0.0000 -0.0100
v 0.0000 0.0000 -0.0100
v 0.0000 0.0000 -0.0100
v 0.0000 0.0000 -0.0100
v 0.0000 0.0000 -0.0100
v 0.0000 0.0000 -0.0100
v 0.0000 0.0000 -0.0100
v 0.0000 0.0000 -0.0100
v 0.0000 0.0000 -0.0100
v 0.0000 0.0000 -0.0100
v 0.0000 0.0000 -0.0100
v 0.0000 0.0000 -0.0100
v 0.0000 0.0000 -0.0100
v 0.0000 0.0000 -0.0100
v 0.0000 0.0000 -0.0100
v 2.5600 0.0000 -0.0100
v 2.0200 13.5600 -0.0100
v 7.6800 0.0000 -0.0100
v 10.2400 0.0000 -0.0100
v 8.2200 13.5200 -0.0100
v 5.1200 13.5200 -0.0100
v 2.5600 0.0000 -0.0100
v 2.0200 13.5200 -0.0100
v 0.0000 0.0000 -0.0100
v 7.6800 0.0000 -0.0100
v 10.2400 0.0000 -0.0100
v 8.2200 13.5600 -0.0100
v 5.1200 13.5600 -0.0100
v 1.7600 -2.8400 -0.0100
v 7.4300 -2.8800 -0.0100
v 1.8100 24.7700 -0.0100
v 7.4800 24.7300 -0.0100
v 7.4300 -2.8800 -0.0100
v 13.1000 -2.9100 -0.0100
v 7.4800 24.7300 -0.0100
v 13.1500 24.6900 -0.0100
v 13.1000 -2.9100 -0.0100
v 18.7700 -2.9500 -0.0100
v 13.1500 24.6900 -0.0100
v 18.8200 24.6600 -0.0100
v -28.0000 0.0000 17.9200
v -33.2800 0.0000 18.3400
v -28.1600 2.5600 15.3600
v -7.5200 0.0000 0.6400
v -28.0800 11.5200 2.5700
v -28.0800 6.7200 5.1200
v -28.0800 6.8000 7.6800
v 2.5800 0.6400 2.5600
v -7.4400 0.0000 0.0000
v -28.0000 0.0000 17.9200
v -33.2800 0.0000 18.5500
v -28.1600 20.4800 0.0900
vt 0.0000 0.9336
vt -0.0127 -0.0029
vt -0.0068 -0.0029
vt -0.0068 -0.0469
vt -0.0068 -0.0029
vt 0.0068 -0.0469
vt 0.0068 -0.0029
vt 0.0127 -0.0469
vt 0.0127 -0.0029
vt 0.0068 -0.0469
vt 0.0068 -0.0029
vt -0.0068 -0.0469
vt 0.0039 0.0049
vt -0.0039 0.0049
vt -0.0078 0.0049
vt -0.0039 0.0049
vt 0.0039 0.0049
vt 0.0078 0.0049
vt 0.0000 0.0264
vt -0.0049 0.0264
vt 0.0000 0.0264
vt 0.0049 0.0264
vt 0.0000 0.0332
vt -0.0049 0.0332
vt 0.0000 0.0332
vt 0.0049 0.0332
vt 0.0049 0.0332
vt 0.0000 0.0332
vt 0.0000 -0.0078
vt -0.0049 0.0332
vt 0.0000 0.0332
vt 0.0000 -0.0078
vt 0.0078 0.0049
vt 0.0039 0.0049
vt 0.0049 0.0264
vt 0.0039 0.0049
vt 0.0078 0.0049
vt 0.0049 0.0264
vt 0.0000 0.0264
vt -0.0039 0.0049
vt -0.0049 0.0264
vt -0.0078 0.0049
vt -0.0039 0.0049
vt -0.0078 0.0049
vt -0.0049 0.0264
vt 0.0000 0.0264
vt -0.0127 -0.0469
vt -0.0068 -0.0469
vt -0.0127 -0.0029
vt -0.0068 -0.0029
vt -0.0068 -0.0469
vt 0.0068 -0.0469
vt -0.0068 -0.0029
vt 0.0068 -0.0029
vt 0.0068 -0.0469
vt 0.0127 -0.0469
vt 0.0068 -0.0029
vt 0.0127 -0.0029
vt 0.0000 0.9531
vt -6.5000 0.0000
vt -6.2500 0.0000
vt -6.5000 0.0000
vt -4.0000 0.0000
vt -3.5000 8.0020
vt -3.5000 8.0020
vt -3.5000 8.0020
vt 4.3945 -28.8740
vt -2.7266 0.0000
vt -6.5000 0.0000
vt -6.2500 0.0000
vt -3.5000 8.0020
f 31/31 26/26 32/32
f 26/26 23/23 29/29
f 2/2 11/11 14/14
f 2/2 14/14 3/3
f 9/9 10/10 11/11
f 10/10 12/12 11/11
