mtllib assets09_model_098.mtl
# Conker's Bad Fur Day — Real 3D Model (Multiplayer Level Models)
o assets09_model_098
usemtl assets09_model_098_mat

v 0.0000 8.8800 0.0000
v 0.0000 10.2400 -0.0100
v 0.0000 0.0000 -0.0100
v 20.4800 10.2400 -0.0100
v 20.4800 0.0000 -0.0100
v 5.1200 10.2400 -0.0100
v 5.1200 0.0000 -0.0100
v 0.0000 0.0000 -0.0100
v 0.0000 10.2400 -0.0100
v 0.0000 0.0000 -0.0100
v 5.1200 10.2400 -0.0100
v 5.1200 0.0000 -0.0100
v 0.0000 10.2400 -0.0100
v 0.0000 0.0000 -0.0100
v 5.1200 10.2400 -0.0100
v 5.1200 0.0000 -0.0100
v 10.2400 10.2400 -0.0100
v 0.0000 10.2400 -0.0100
v 10.2400 0.0000 -0.0100
v 0.0000 0.0000 -0.0100
v 5.1200 0.0000 -0.0100
v 0.0000 10.2400 -0.0100
v 5.1200 10.2400 -0.0100
v 6.0700 3.7900 -0.0100
v 6.0700 1.7800 -0.0100
v 1.9100 3.7900 -0.0100
v 1.9100 1.7800 -0.0100
v 26.7700 1.7400 -0.0100
v 37.0500 1.7400 -0.0100
v 37.0500 0.0000 -0.0100
v 37.0500 0.0000 -0.0100
v 37.0500 1.7400 -0.0100
v 26.7700 1.7400 -0.0100
v 1.9100 0.0000 -0.0100
v 1.9100 1.7800 -0.0100
v 6.0700 1.7800 -0.0100
v 6.0700 0.0000 -0.0100
v 26.9100 0.5700 -0.0100
v 26.6100 4.3200 -0.0100
v 16.2500 4.3400 -0.0100
v 16.5500 0.5900 -0.0100
v 1.9100 0.0000 -0.0100
v 6.0700 0.0000 -0.0100
v 6.0700 3.7900 -0.0100
v 1.9100 3.7900 -0.0100
v 6.0300 3.7200 -0.0100
v 26.7700 3.7200 -0.0100
v 6.0300 0.0000 -0.0100
v 16.5500 0.5900 -0.0100
v 16.2500 4.3400 -0.0100
v -4.6500 4.3900 -0.0100
v -4.3500 0.6400 -0.0100
v 6.0300 3.7200 -0.0100
v 6.0300 0.0000 -0.0100
v 26.7700 3.7200 -0.0100
v -28.0000 0.0000 17.9200
v -33.2800 0.0000 18.5500
v -28.1600 2.5600 15.3600
v -7.5200 0.0000 0.6400
v 15.3600 5.1600 0.0200
v -7.5200 0.0000 0.0000
v -33.2800 0.0000 18.0700
v -28.0800 10.2400 0.0100
v -7.5200 0.0000 0.6400
v -7.5200 0.0000 0.6400
v -7.5200 0.0000 0.6400
v 2.5800 0.6400 2.5600
vt 0.0000 0.0000
vt -0.0186 0.0020
vt -0.0117 0.0273
vt -0.0186 0.0020
vt 0.0000 0.0234
vt 0.0000 0.0234
vt -0.0117 0.0273
vt -0.0078 -0.0010
vt -0.0078 -0.0010
vt -0.0186 0.0020
vt -0.0186 0.0020
vt -0.0117 0.0273
vt -0.0186 0.0020
vt 0.0000 0.0234
vt -0.0078 -0.0010
vt 0.0000 0.0234
vt 0.0000 0.0234
vt -0.0078 -0.0010
vt -0.0078 -0.0010
vt -0.0186 0.0020
vt 0.0000 0.0234
vt -0.0117 0.0273
vt -0.0078 0.0322
vt -0.0088 0.0293
vt -0.0010 0.0303
vt -0.0020 0.0273
vt -0.0020 0.0273
vt -0.0020 0.0273
vt -0.0029 0.0244
vt -0.0098 0.0264
vt -0.0088 0.0293
vt -0.0088 0.0293
vt -0.0029 0.0244
vt -0.0020 0.0273
vt -0.0088 0.0293
vt -0.0098 0.0264
vt -0.0088 0.0293
vt -0.0020 0.0273
vt -0.0020 0.0273
vt -0.0088 0.0293
vt -0.0029 0.0244
vt -0.0098 0.0264
vt -0.0078 0.0322
vt -0.0010 0.0303
vt -0.0010 0.0303
vt -0.0010 0.0303
vt -0.0029 0.0244
vt -0.0078 0.0322
vt -0.0010 0.0303
vt -0.0010 0.0303
vt -0.0078 0.0322
vt -0.0078 0.0322
vt -0.0098 0.0264
vt -0.0078 0.0322
vt 0.0000 0.8750
vt -6.5000 0.0000
vt -6.2500 0.0000
vt -6.5000 0.0000
vt -4.0000 0.0000
vt -6.2500 0.0000
vt -6.5000 0.0000
vt -6.2500 0.0000
vt -3.5000 8.0020
vt -4.0000 0.0000
vt -4.0000 0.0000
vt -4.0000 0.0000
vt 4.9072 4.1621
f 60/60 1/1 30/30
f 60/60 1/1 30/30
f 1/1 2/2 3/3
f 2/2 4/4 3/3
f 12/12 13/13 14/14
f 13/13 15/15 14/14
f 16/16 17/17 18/18
f 17/17 9/9 18/18
f 19/19 20/20 21/21
f 20/20 22/22 21/21
f 31/31 8/8 10/10
f 32/32 30/30 10/10
