# Conker's Bad Fur Day — Real 3D Model (Sloprano Models)
o assets0E_model_035

v 20.5100 0.0000 0.0000
v 20.4800 0.0000 0.0000
v 20.5100 0.0000 0.0000
v 20.5000 0.0000 0.0000
v 20.5000 0.0000 0.0000
v 20.5300 0.0000 0.0000
v 20.5300 0.0000 0.0000
v 20.5300 0.0000 0.0000
v 20.4800 0.0000 0.0000
v 20.4800 0.0000 0.0000
v 30.7200 0.0000 0.0000
v 20.5100 0.0000 0.0000
v 20.5100 0.0000 0.0000
v 20.5100 0.0000 0.0000
v 20.5100 0.0000 0.0000
v 20.5100 0.0000 0.0000
v 20.4800 0.0000 0.0000
vt 0.0000 0.5674
vt 0.0000 0.0654
vt 0.0000 0.0654
vt 0.0000 0.0645
vt 0.0000 0.0645
vt 0.0000 0.0713
vt 0.0000 0.0713
vt 0.0000 0.0713
vt 0.0000 0.6006
vt 0.5000 0.6006
vt 0.0000 0.6006
vt 0.0000 -31.4971
vt 0.0000 0.0654
vt 0.0000 0.0654
vt 0.0000 -31.4346
vt 0.0000 -31.4346
vt 0.0000 -31.4346
f 1/1 1/1 1/1
f 1/1 1/1 1/1
