mtllib assets09_model_035.mtl
# Conker's Bad Fur Day — Real 3D Model (Multiplayer Level Models)
o assets09_model_035
usemtl assets09_model_035_mat

v 0.0000 5.6800 0.0000
v 10.8400 3.5400 -2.5800
v 5.7600 0.4200 -2.5800
v 10.2300 0.5500 -2.5800
v 6.3700 3.4100 -2.5800
v 3.3000 0.7600 -2.5800
v 10.5100 3.2400 -2.5800
v 4.4100 3.0600 -2.5800
v 9.4000 0.9400 -2.5800
v 4.8300 0.4500 -2.5800
v 11.3300 0.4200 -2.5800
v 4.7900 3.4900 -2.5800
v 11.2900 3.4500 -2.5800
v 15.1600 1.2000 -2.5800
v 0.1000 0.4400 -2.5800
v 15.1600 4.4800 -2.5800
v 1.0800 4.5700 -2.5800
v 15.1600 4.4800 -2.5800
v 0.1000 0.4400 -2.5800
v 15.1600 1.2000 -2.5800
v 1.0800 4.5700 -2.5800
v 0.0000 0.0000 -2.5800
v 0.0000 0.0000 -2.5800
v 0.0000 0.0000 -2.5800
v 0.0000 0.0000 -2.5800
v 0.0000 0.0000 -2.5800
v 0.0000 0.0000 -2.5800
v 0.0000 0.0000 -2.5800
v 0.0000 0.0000 -2.5800
v 0.0000 0.0000 -2.5800
v 0.0000 0.0000 -2.5800
v 0.0000 0.0000 -2.5800
v 0.0000 0.0000 -2.5800
v 0.0000 0.0000 -2.5800
v 0.0000 0.0000 -2.5800
v -28.0000 0.0000 17.9200
v -33.2800 0.0000 18.1500
v -28.1600 2.5600 15.3600
v -7.5200 0.0000 0.6400
v -7.5200 0.0000 0.6400
v 0.2700 0.2700 0.2700
v 1.3000 1.3000 1.3000
vt 0.0000 0.0000
vt 0.0039 -0.0059
vt 0.0039 0.0088
vt -0.0039 -0.0059
vt -0.0039 0.0088
vt 0.0039 0.0088
vt 0.0039 0.0088
vt -0.0039 0.0088
vt 0.0039 -0.0029
vt 0.0039 -0.0059
vt -0.0039 -0.0029
vt -0.0039 -0.0059
vt -0.0039 -0.0029
vt -0.0039 -0.0059
vt -0.0039 0.0088
vt -0.0039 0.0088
vt 0.0039 0.0088
vt 0.0039 -0.0059
vt 0.0039 -0.0029
vt 0.0039 0.0088
vt 0.0039 0.0088
vt 0.0039 -0.0029
vt 0.0000 0.0088
vt 0.0000 -0.0107
vt 0.0000 -0.0029
vt 0.0000 -0.0146
vt -0.0039 -0.0029
vt -0.0039 0.0088
vt 0.0039 -0.0029
vt -0.0039 -0.0029
vt 0.0000 -0.0146
vt -0.0039 0.0088
vt 0.0039 0.0088
vt 0.0000 0.0088
vt 0.0000 0.5625
vt -6.5000 0.0000
vt -6.2500 0.0000
vt -6.5000 0.0000
vt -4.0000 0.0000
vt -4.0000 0.0000
vt 0.1240 0.1240
vt -31.7500 -31.7500
f 17/17 18/18 19/19
f 17/17 20/20 18/18
f 2/2 5/5 3/3
f 3/3 5/5 7/7
