# Conker's Bad Fur Day — Real 3D Model (HUD & UI Props)
o assets01_model_017

v -1.3300 7.9300 -2.5800
v -1.5500 6.9000 -2.5800
v 1.9700 2.0500 -2.5800
v 5.0800 1.3200 -2.5800
v 8.6400 7.0300 -2.5800
v 8.8500 4.3900 -2.5800
v 5.2600 7.4400 -2.5800
v 5.1900 3.9700 -2.5800
v 1.8500 4.4800 -2.5800
v 2.2000 7.0500 -2.5800
v 5.2600 9.7500 -2.5800
v 5.9200 17.2000 -2.5800
v 4.7800 19.3800 -2.5800
v 4.4700 16.5500 -0.0100
v 4.7800 19.3800 -2.5800
v 4.4700 16.5500 -0.0100
v 5.8800 16.4300 -0.0100
v 5.6800 3.4900 -2.5800
v 7.9600 4.7200 -2.5800
v 9.5700 3.7600 -2.5800
v 7.7000 3.3100 -2.5800
v 11.1200 5.2800 -2.5800
v 5.3700 7.5900 -2.5800
v 7.3500 5.4900 -2.5800
v 8.5400 2.5000 -2.5800
v 7.1200 2.8900 -2.5800
v 5.9800 4.3500 -2.5800
v 7.9600 4.7200 -2.5800
v 5.6800 3.4900 -2.5800
v 7.7000 3.3100 -2.5800
v 9.5700 3.7600 -2.5800
v 5.6800 3.4900 -2.5800
v 11.1200 5.2800 -2.5800
v 7.9600 4.7200 -2.5800
v 5.9800 4.3500 -2.5800
v 7.1200 2.8900 -2.5800
v 8.5400 2.5000 -2.5800
v 7.3500 5.4900 -2.5800
v 5.3700 7.5900 -2.5800
v 7.0900 2.9300 -2.5800
v 5.3400 8.4200 -0.0100
v 5.1200 7.3800 -0.0100
v 4.8700 6.2000 -0.0100
v 6.7600 20.9400 -0.0100
v 7.5800 19.4200 -0.0100
v 5.5400 21.3900 -0.0100
v 4.3100 20.9400 -0.0100
v 3.4400 19.4100 -0.0100
v 9.0300 0.6900 -0.0100
v 10.2200 1.2000 -0.0100
v 7.7400 0.2500 -0.0100
v 5.1200 7.3800 -0.0100
v 5.3400 8.4200 -0.0100
v 4.8700 6.2000 -0.0100
v 9.0300 0.6900 -0.0100
v 10.2200 1.2000 -0.0100
v 7.7400 0.2500 -0.0100
v 6.7600 20.9400 -0.0100
v 5.5300 20.5400 -0.0100
v 5.4800 17.6500 -2.5800
v 6.9600 18.1600 -0.0100
v 7.5800 19.4200 -0.0100
v 4.3100 20.9400 -0.0100
v 3.4400 19.4100 -0.0100
v 4.0100 18.1600 -2.5800
v 5.3900 12.0600 -2.5800
v 5.2700 4.6900 -2.5800
v 1.5600 4.9600 -2.5800
v 2.2900 1.5500 -33.4200
v 5.4800 17.6500 -2.5800
v 4.0100 18.1600 -2.5800
v 5.3900 12.0600 -2.5800
v 1.5600 4.9600 -2.5800
v 5.2700 4.6900 -2.5800
v 2.2900 1.5500 -33.4200
v 3.4000 3.6100 -2.5800
v 2.9000 3.8100 -2.5800
v 3.5700 2.9600 -38.5600
v 15.9800 4.7600 -0.0100
v 15.9800 4.7600 -0.0100
v 12.8100 1.8900 -0.0100
v 11.5100 3.5300 -0.0100
v 2.5500 4.9800 -0.0100
v -0.3200 2.9400 -0.0100
v 2.8800 0.6000 -0.0100
v 17.2400 4.1700 -0.0100
v 0.0400 6.4200 -0.0100
v 1.7300 2.9900 -0.0100
v 3.8500 4.1500 -0.0100
v 3.8500 4.1500 -0.0100
v 13.3200 9.6600 -0.0100
v 15.9800 4.7600 -0.0100
v 15.9800 4.7600 -0.0100
v 18.8000 5.1400 -0.0100
v 17.2300 6.4700 -0.0100
v 18.8000 5.1400 -0.0100
v 7.1600 3.6100 -0.0100
v 13.7500 5.9000 -0.0100
v 6.9300 1.1500 -0.0100
v 13.1300 6.8500 -0.0100
v 7.4400 5.6600 -0.0100
v 7.1600 3.6100 -0.0100
v 13.7500 5.9000 -0.0100
v 17.2400 4.1700 -0.0100
v 19.8200 4.1600 -0.0100
v 20.9000 5.8500 -0.0100
v 20.2700 7.0400 -0.0100
v 15.0200 9.3400 -0.0100
v 14.7200 10.0200 -0.0100
v 19.8700 8.3500 -0.0100
v 15.6900 8.2800 -0.0100
v 15.5900 6.9800 -0.0100
v 20.2700 7.0400 -0.0100
v 15.0200 9.3400 -0.0100
v 15.5900 6.9800 -0.0100
v -0.2200 11.1300 -0.0100
v -0.2700 11.4900 -0.0100
v 15.9800 4.7600 -0.0100
v 15.9800 4.7600 -0.0100
v 17.2300 6.4700 -0.0100
v 18.8000 5.1400 -0.0100
v 17.2300 6.4700 -0.0100
v 18.8000 5.1400 -0.0100
v 15.0200 9.3400 -0.0100
v 15.5900 6.9800 -0.0100
v 15.6900 8.2800 -0.0100
v 13.7500 5.9000 -0.0100
v 19.8700 8.3500 -0.0100
v 20.2700 7.0400 -0.0100
v 13.1300 6.8500 -0.0100
v 14.7200 10.0200 -0.0100
v 15.0200 9.3400 -0.0100
v 20.2700 7.0400 -0.0100
v 17.2400 4.1700 -0.0100
v 7.1200 9.7500 -0.0100
v 8.6900 5.3000 -0.0100
v 0.6800 3.5500 -0.0100
v 0.0400 -0.9700 -0.0100
v 9.9800 -0.4000 -0.0100
v 7.5900 9.4900 -0.0100
v 9.0900 4.9800 -0.0100
v 0.3800 3.9700 -0.0100
v 10.2300 -0.7300 -0.0100
v -0.5000 -0.4100 -0.0100
v 13.7600 6.2300 -2.5800
v 13.3000 5.4700 -2.5800
v 9.2100 1.8200 -2.5800
v 1.3300 3.7000 -2.5800
v 5.4900 1.0800 -2.5800
v 5.5900 3.4300 -2.5800
v 9.5600 3.9800 -2.5800
v 5.8100 6.5200 -2.5800
v 9.3700 6.2500 -2.5800
v 6.0100 8.5700 -2.5800
v 5.8700 15.1800 -2.5800
v 4.6900 19.5600 -2.5800
v 4.4400 16.7400 -0.0100
v 4.6900 19.5600 -2.5800
v 5.6200 16.4800 -2.5800
v 4.4400 16.7400 -0.0100
v 5.2900 1.2900 -2.5800
v 4.8200 4.8400 -2.5800
v 6.9300 9.3700 -2.5800
v 6.2800 9.8200 -33.4200
v 4.6200 1.4000 -2.5800
v 4.5000 1.3700 -33.4200
v 4.4100 1.9900 -2.5800
v 1.4300 1.3100 -2.5800
v 4.6000 1.0100 -2.5800
v 5.5900 4.1500 -2.5800
v 4.1000 8.3400 -2.5800
v 3.1700 8.6800 -2.5800
v 5.3300 1.3600 -2.5800
v 5.1400 1.3300 -2.5800
v -0.5700 13.5500 -28.2800
v 6.0400 14.9800 -2.5800
v -0.5700 13.5500 -2.5800
v 5.8600 8.1900 -2.5800
v 5.7800 5.0800 -2.5800
v -1.7100 7.0200 -2.5800
v 3.9100 -0.0200 -2.5800
v -2.1800 4.3000 -2.5800
v 5.7800 4.5300 -2.5800
v -1.7100 7.0200 -2.5800
v -2.8500 10.8000 -2.5800
v 4.7100 3.8600 -2.5800
v 5.0300 13.4400 -2.5800
v 9.9700 14.2100 -2.5800
v 13.0500 10.1400 -2.5800
v 7.2500 2.8700 -2.5800
v 5.6400 15.0000 -2.5800
v 20.7700 7.9700 -0.0100
v 9.7100 1.9200 -0.0100
v 3.7600 2.8900 -2.5800
v 2.1200 10.1200 -2.5800
v 0.6900 0.5100 -2.5800
v 1.4300 21.0000 -2.5800
v 6.7800 10.3000 -0.0100
v 10.1600 5.1300 -0.0100
v 7.0500 0.1100 -0.0100
v -0.2700 5.4800 -0.0100
v -0.2700 5.4800 -0.0100
v 7.0500 0.1100 -0.0100
v 6.7800 10.3000 -0.0100
v 10.1600 5.1300 -0.0100
v 0.8400 9.9200 -0.0100
v 0.6600 2.2500 -0.0100
v 0.0000 0.0000 0.0100
v 0.0000 32.8000 0.0000
v 0.0000 10.8000 0.3200
v 0.6400 0.3200 0.0000
v 0.0000 32.7400 0.0000
v 0.0000 32.8200 0.3200
v 0.3200 0.6400 0.0000
v 0.0000 32.7700 0.0000
v 0.0000 32.9600 0.3200
v 0.3200 0.1600 0.0000
v 0.0000 32.7200 0.0000
v -28.0000 0.0000 17.9200
v -33.2800 0.0000 18.3400
v -28.1600 2.5600 15.3600
v -7.5200 0.0000 0.6400
v -28.0800 11.5200 2.6500
v -28.0800 6.7200 5.2000
v -28.0800 6.8000 7.7600
v 15.7200 0.0400 0.2400
v -7.5200 0.0000 0.6400
v 15.3600 10.3000 0.0000
v -7.5200 0.0000 0.6400
v -7.5200 0.0000 0.0000
v -33.2800 0.0000 18.2300
v -28.0800 20.4800 0.0900
v 15.4800 36.0000 0.1200
v -7.5200 0.0000 0.6400
v -7.5200 0.0000 0.0000
v -33.2800 0.0000 18.2300
v -28.0800 20.4800 0.0900
v -7.5200 0.0000 0.6400
v 12.8800 15.3800 0.0000
v -7.5200 0.0000 0.0000
v -33.2800 0.0000 18.5500
v -28.0800 20.4800 0.0900
v -7.5200 0.0000 0.0000
v -33.2800 0.0000 18.2300
v -28.0800 20.4800 0.0900
v -7.5200 0.0000 0.0000
v -33.2800 0.0000 18.5500
v -28.0800 20.4800 0.0900
v 15.4600 36.0000 0.1000
v -28.0800 20.4800 2.6500
v -7.5200 0.0000 17.9200
v -7.5200 0.0000 0.6400
v -7.5200 0.0000 0.6400
v 12.9600 10.3000 0.0000
v -7.5200 0.0000 0.0000
v -33.2800 0.0000 18.5500
v 15.9600 20.9800 0.6000
v -7.5200 0.0000 15.3600
v -7.5200 0.0000 17.9200
v -7.5200 0.0000 0.6400
v -7.5200 0.0000 0.6400
v 15.3600 10.6000 0.4200
v -7.5200 0.0000 0.6400
v 15.3800 10.3000 0.0200
v -7.5200 0.0000 0.6400
v -7.5200 0.0000 0.6400
v -7.5200 0.0000 0.6400
v -7.5200 0.0000 0.6400
v -28.0800 20.4800 0.0900
v -7.5200 0.0000 0.0000
v -28.0800 20.4800 0.0900
v -7.5200 0.0000 0.0000
v -7.5200 0.0000 0.6400
v -7.5200 0.0000 0.6400
v -7.5200 0.0000 0.6400
v 1.3000 4.0700 4.1400
v 1.4000 0.0000 0.0000
vt 0.0020 -0.0059
vt 0.0049 -0.0010
vt 0.0117 0.0039
vt 0.0225 -0.0068
vt 0.0283 0.0059
vt 0.0234 -0.0059
vt 0.0303 0.0098
vt 0.0283 0.0078
vt 0.0146 0.0059
vt 0.0078 -0.0059
vt 0.0352 -0.0039
vt 0.0029 -0.0039
vt 0.0322 0.0000
vt 0.0010 0.0039
vt 0.0322 0.0000
vt 0.0059 0.0352
vt 0.0088 0.0293
vt -0.0098 0.0137
vt -0.0029 0.0098
vt -0.0107 0.0049
vt -0.0068 0.0117
vt -0.0068 0.0117
vt -0.0098 0.0137
vt -0.0117 0.0098
vt -0.0107 0.0049
vt -0.0068 0.0049
vt 0.0029 0.0098
vt 0.0117 0.0098
vt 0.0107 0.0049
vt 0.0068 0.0049
vt 0.0117 0.0098
vt 0.0068 0.0117
vt 0.0098 0.0137
vt 0.0068 0.0049
vt 0.0107 0.0049
vt 0.0117 0.0098
vt 0.0098 0.0137
vt 0.0068 0.0117
vt 0.0000 0.0020
vt 0.0029 -0.0029
vt 0.0039 0.0010
vt 0.0000 0.0215
vt 0.0049 0.0498
vt 0.0088 0.0420
vt 0.0068 0.0361
vt 0.0088 0.0293
vt -0.0068 0.0361
vt -0.0088 0.0293
vt 0.0000 0.0518
vt 0.0000 0.0479
vt 0.0205 0.0059
vt 0.0000 0.0049
vt 0.0000 0.0215
vt -0.0049 0.0498
vt 0.0000 0.0518
vt 0.0000 0.0479
vt 0.0049 0.0498
vt 0.0000 0.0479
vt 0.0000 0.0332
vt 0.0059 0.0352
vt 0.0088 0.0420
vt 0.0088 0.0293
vt -0.0088 0.0420
vt -0.0059 0.0352
vt 0.0127 0.0371
vt 0.0156 0.0059
vt -0.0127 0.0371
vt -0.0215 -0.0068
vt -0.0088 0.0293
vt -0.0059 0.0352
vt -0.0127 0.0371
vt -0.0156 0.0059
vt 0.0000 0.0049
vt -0.0117 -0.0107
vt 0.0000 -0.0127
vt 0.0000 0.0117
vt -0.0068 0.0029
vt -0.0029 0.0117
vt -0.0049 -0.0010
vt 0.0088 -0.0010
vt 0.0078 -0.0088
vt -0.0078 -0.0088
vt 0.0000 -0.0166
vt 0.0078 -0.0088
vt 0.0000 -0.0156
vt 0.0000 0.0166
vt 0.0000 -0.0029
vt 0.0146 0.0039
vt -0.0146 0.0039
vt 0.0000 0.0039
vt 0.0088 -0.0010
vt -0.0049 -0.0010
vt 0.0146 -0.0059
vt 0.0166 0.0020
vt -0.0186 -0.0059
vt 0.0146 -0.0195
vt 0.0088 -0.0205
vt 0.0000 -0.0342
vt 0.0000 -0.0010
vt 0.0000 -0.0078
vt 0.0000 -0.0293
vt -0.0088 -0.0059
vt -0.0088 -0.0205
vt 0.0000 -0.0156
vt 0.0000 -0.0059
vt 0.0078 0.0010
vt 0.0107 0.0137
vt 0.0000 0.0176
vt 0.0000 0.0088
vt 0.0117 0.0078
vt 0.0137 0.0000
vt -0.0078 0.0010
vt -0.0107 0.0137
vt -0.0146 0.0000
vt 0.0000 0.0039
vt 0.0000 0.0039
vt -0.0049 -0.0010
vt 0.0088 -0.0010
vt 0.0088 -0.0010
vt -0.0186 -0.0059
vt 0.0166 0.0020
vt 0.0146 -0.0059
vt -0.0107 0.0137
vt -0.0146 0.0000
vt -0.0117 0.0078
vt -0.0088 -0.0059
vt 0.0000 0.0088
vt -0.0078 0.0010
vt 0.0000 -0.0010
vt 0.0000 0.0176
vt 0.0107 0.0137
vt 0.0078 0.0010
vt 0.0000 -0.0156
vt 0.0107 0.0137
vt 0.0117 0.0078
vt 0.0000 0.0059
vt 0.0000 -0.0010
vt 0.0137 0.0000
vt -0.0107 0.0137
vt -0.0117 0.0078
vt 0.0000 0.0059
vt -0.0146 0.0000
vt 0.0000 -0.0010
vt 0.0088 -0.0205
vt -0.0020 -0.0068
vt -0.0146 0.0020
vt -0.0186 -0.0068
vt -0.0127 0.0029
vt -0.0049 0.0088
vt -0.0029 0.0059
vt -0.0195 -0.0078
vt -0.0127 0.0049
vt -0.0049 -0.0068
vt -0.0352 -0.0039
vt -0.0020 -0.0039
vt -0.0322 0.0000
vt -0.0010 0.0039
vt -0.0322 0.0000
vt -0.0088 0.0420
vt -0.0088 0.0293
vt 0.0098 -0.0078
vt 0.0039 0.0029
vt 0.0127 -0.0068
vt -0.0273 -0.0068
vt 0.0020 0.0020
vt 0.0039 0.0029
vt 0.0029 -0.0186
vt 0.0000 0.0010
vt 0.0000 -0.0078
vt -0.0127 -0.0068
vt -0.0068 -0.0186
vt -0.0010 -0.0186
vt -0.0010 -0.0186
vt 0.0117 -0.0107
vt -0.0117 -0.0049
vt -0.0068 0.0029
vt -0.0117 -0.0029
vt -0.0117 -0.0020
vt -0.0068 0.0059
vt 0.0000 0.0010
vt 0.0000 0.0068
vt 0.0117 -0.0020
vt 0.0068 0.0059
vt 0.0000 0.0059
vt 0.0117 -0.0029
vt -0.0117 -0.0029
vt -0.0117 -0.0049
vt -0.0166 -0.0146
vt 0.0127 -0.0049
vt 0.0000 0.0146
vt 0.0029 0.0039
vt 0.0000 0.0342
vt -0.0029 0.0049
vt -0.0020 0.0049
vt 0.0020 0.0098
vt 0.0059 0.0049
vt 0.0088 0.0049
vt 0.0029 0.0068
vt 0.0029 -0.0137
vt 0.0068 0.0127
vt 0.0068 0.0127
vt 0.0029 -0.0137
vt 0.0039 0.0303
vt 0.0029 0.0068
vt 0.0000 0.0059
vt 0.0000 0.0020
vt 0.0000 6.7031
vt 0.0000 0.0000
vt 0.0312 0.0312
vt 0.0000 3.2080
vt 0.0000 3.1943
vt 0.0312 0.0312
vt 0.0000 3.2021
vt 0.0000 3.2178
vt 0.0625 0.0312
vt 0.0000 3.2041
vt 0.0000 3.1963
vt 0.0312 0.0312
vt -6.5000 0.0000
vt -6.2500 0.0000
vt -6.5000 0.0000
vt -4.0000 0.0000
vt -3.5000 8.0020
vt -3.5000 8.0020
vt -3.5000 8.0020
vt 1.2852 11.0371
vt -4.0000 0.0000
vt 1.2520 1.5078
vt -4.0000 0.0000
vt -6.5000 0.0000
vt -6.2500 0.0000
vt -3.5000 8.0020
vt 1.2617 4.5195
vt -4.0000 0.0000
vt -6.5000 0.0000
vt -6.2500 0.0000
vt -3.5000 8.0020
vt -4.0000 0.0000
vt -6.2500 0.0000
vt -6.5000 0.0000
vt -6.2500 0.0000
vt -3.5000 8.0020
vt -6.5000 0.0000
vt -6.2500 0.0000
vt -3.5000 8.0020
vt -6.5000 0.0000
vt -6.2500 0.0000
vt -3.5000 8.0020
vt -10.2500 2.2520
vt -3.5000 8.0020
vt -4.0000 0.0000
vt -4.0000 0.0000
vt -4.0000 0.0000
vt -6.2500 0.0000
vt -6.5000 0.0000
vt -6.2500 0.0000
vt -9.4453 0.0029
vt -4.0000 0.0000
vt -4.0000 0.0000
vt -4.0000 0.0000
vt -4.0000 0.0000
vt 1.2871 11.0352
vt -4.0000 0.0000
vt 1.2578 1.0020
vt -4.0000 0.0000
vt -4.0000 0.0000
vt -4.0000 0.0000
vt -4.0000 0.0000
vt -3.5000 8.0020
vt -2.7344 0.0000
vt -3.5000 8.0020
vt -2.7344 0.0000
vt -4.0000 0.0000
vt -4.0000 0.0000
vt -4.0000 0.0000
vt 23.3320 0.1230
vt 0.0000 0.0000
f 32/32 1/1 111/111
f 128/128 128/128 128/128
f 32/32 1/1 111/111
f 128/128 128/128 128/128
f 1/1 1/1 95/95
f 95/95 1/1 81/81
f 128/128 128/128 128/128
f 27/27 2/2 100/100
f 32/32 1/1 111/111
f 128/128 128/128 128/128
f 32/32 1/1 111/111
f 128/128 128/128 128/128
f 94/94 2/2 68/68
f 128/128 128/128 128/128
f 48/48 2/2 40/40
f 17/17 2/2 87/87
f 48/48 2/2 40/40
f 95/95 1/1 81/81
f 128/128 128/128 128/128
f 112/112 2/2 84/84
f 97/97 2/2 118/118
f 17/17 2/2 31/31
f 128/128 128/128 128/128
f 12/12 2/2 94/94
f 128/128 128/128 128/128
f 112/112 2/2 84/84
f 12/12 2/2 94/94
f 128/128 128/128 128/128
f 32/32 1/1 111/111
f 128/128 128/128 128/128
f 32/32 1/1 111/111
f 128/128 128/128 128/128
f 94/94 2/2 68/68
f 128/128 128/128 128/128
f 94/94 2/2 68/68
f 128/128 128/128 128/128
f 112/112 2/2 84/84
f 12/12 2/2 94/94
f 128/128 128/128 128/128
f 17/17 2/2 31/31
f 128/128 128/128 128/128
f 48/48 2/2 40/40
f 17/17 2/2 87/87
f 97/97 2/2 118/118
f 112/112 2/2 84/84
f 95/95 1/1 81/81
f 128/128 128/128 128/128
f 49/49 2/2 56/56
f 68/68 2/2 48/48
f 40/40 2/2 102/102
f 26/26 2/2 18/18
f 13/13 2/2 124/124
f 10/10 2/2 118/118
f 19/19 1/1 3/3
f 13/13 21/21 22/22
f 19/19 23/23 20/20
f 1/1 3/3 4/4
f 1/1 4/4 2/2
f 2/2 4/4 5/5
f 7/7 8/8 9/9
f 7/7 9/9 10/10
f 7/7 10/10 11/11
f 9/9 10/10 11/11
f 9/9 11/11 12/12
f 9/9 12/12 13/13
f 7/7 1/1 4/4
f 5/5 7/7 4/4
f 5/5 4/4 2/2
f 29/29 32/32 30/30
f 32/32 26/26 25/25
f 6/6 8/8 9/9
f 6/6 9/9 7/7
f 5/5 2/2 12/12
f 5/5 7/7 8/8
f 9/9 10/10 11/11
f 9/9 11/11 3/3
f 9/9 3/3 4/4
f 31/31 5/5 26/26
f 31/31 27/27 32/32
f 6/6 3/3 13/13
f 3/3 7/7 20/20
f 5/5 31/31 32/32
f 1/1 3/3 2/2
f 3/3 4/4 5/5
f 1/1 3/3 19/19
f 22/22 21/21 15/15
f 20/20 23/23 19/19
f 2/2 3/3 4/4
f 2/2 4/4 1/1
f 5/5 3/3 2/2
f 14/14 17/17 19/19
f 18/18 19/19 22/22
f 8/8 20/20 17/17
f 21/21 8/8 16/16
f 24/24 25/25 26/26
f 25/25 27/27 26/26
f 27/27 24/24 26/26
f 64/64 128/128 95/95
f 64/64 3/3 104/104
f 1/1 63/63 14/14
f 128/128 1/1 1/1
f 1/1 1/1 1/1
