mtllib assets09_model_090.mtl
# Conker's Bad Fur Day — Real 3D Model (Multiplayer Level Models)
o assets09_model_090
usemtl assets09_model_090_mat

v 0.0000 3.6000 0.0000
v 4.8800 0.0800 0.0000
v 0.9200 0.0400 -0.0100
v 0.0200 3.6600 -0.0100
v 4.8500 3.7000 0.0000
v 2.9100 0.3000 0.0000
v 6.8400 0.3400 0.0000
v 8.8400 0.1100 -0.0100
v 9.6900 3.7400 0.0000
v 1.4100 7.2900 -0.0100
v 4.8300 7.3200 0.0000
v 2.9200 7.3100 -0.0100
v 6.7400 7.3400 -0.0100
v 8.2500 7.3500 -0.0100
v 4.8200 8.6600 -0.0100
v 0.0000 0.0000 -2.5800
v 10.2500 0.0000 -2.5800
v 10.2100 14.4600 -2.5800
v 0.0400 14.4300 -2.5800
v -28.0000 0.0000 17.9200
v -33.2800 0.0000 18.2300
v -28.1600 2.5600 15.3600
v -7.5200 0.0000 0.6400
v -7.5200 0.0000 0.6400
v 15.3600 5.1600 0.0000
v 1.2600 0.0000 0.0000
vt 0.0000 0.0000
vt -0.0537 0.0381
vt -0.0654 0.0840
vt 0.0000 0.0840
vt -0.0332 0.0840
vt 0.0264 0.0410
vt 0.0332 0.0840
vt 0.0654 0.0840
vt -0.0459 0.1299
vt 0.0000 0.1299
vt -0.0254 0.1299
vt 0.0254 0.1299
vt 0.0459 0.1299
vt 0.0000 0.0186
vt 0.1123 0.1299
vt 0.0713 0.1709
vt 0.0049 0.1182
vt 0.0449 0.0674
vt 0.0000 0.3594
vt -6.5000 0.0000
vt -6.2500 0.0000
vt -6.5000 0.0000
vt -4.0000 0.0000
vt -4.0000 0.0000
vt -8.2500 0.0000
vt 0.0000 0.0000
f 8/8 9/9 10/10
f 1/1 2/2 3/3
f 1/1 3/3 4/4
