# Conker's Bad Fur Day — Real 3D Model (Multiplayer Level Models)
o assets09_model_153

v 0.0000 8.5600 0.0000
v 1.4000 2.0500 -2.5800
v 9.2700 1.9300 -2.5800
v 9.2600 4.6500 -2.5800
v 1.3900 4.7700 -2.5800
v 8.9300 7.9200 -2.5800
v 0.7300 7.8700 -2.5800
v 0.7700 0.9400 -2.5800
v 8.9700 0.9800 -2.5800
v 8.8400 1.5800 -2.5800
v 8.8500 2.8500 -2.5800
v 0.5600 2.8700 -2.5800
v 0.5600 2.8700 -2.5800
v 8.8500 2.8500 -2.5800
v 8.8400 1.5800 -2.5800
v 1.3900 4.7700 -2.5800
v 9.2600 4.6500 -2.5800
v 20.4800 10.2400 -2.5800
v 0.0000 10.2400 -2.5800
v 0.5500 1.5900 -2.5800
v 0.5500 1.5900 -2.5800
v 9.2700 1.9300 -2.5800
v 1.4000 2.0500 -2.5800
v 0.0000 0.0000 -2.5800
v 20.4800 0.0000 -2.5800
v 1.3900 4.7700 -2.5800
v 9.2600 4.6500 -2.5800
v 9.2700 1.9300 -2.5800
v 1.4000 2.0500 -2.5800
v 8.9700 0.9800 -2.5800
v 0.7700 0.9400 -2.5800
v 0.7300 7.8700 -2.5800
v 8.9300 7.9200 -2.5800
v 0.5600 2.8700 -2.5800
v 8.8500 2.8500 -2.5800
v 8.8400 1.5800 -2.5800
v 0.5500 1.5900 -2.5800
v 0.5500 1.5900 -2.5800
v 8.8400 1.5800 -2.5800
v 8.8500 2.8500 -2.5800
v 0.5600 2.8700 -2.5800
v 1.4000 2.0500 -2.5800
v 9.2700 1.9300 -2.5800
v 9.2600 4.6500 -2.5800
v 1.3900 4.7700 -2.5800
v 0.0000 0.0000 -2.5800
v 20.4800 0.0000 -2.5800
v 20.4800 10.2400 -2.5800
v 0.0000 10.2400 -2.5800
v 14.8400 12.9400 -2.5800
v -3.7300 12.7900 -2.5800
v -3.9800 -3.1800 -2.5800
v 14.6000 -3.0200 -2.5800
v -28.0000 0.0000 17.9200
v -33.2800 0.0000 18.3400
v -28.1600 2.5600 15.3600
v -7.5200 0.0000 0.6400
v -28.0800 11.5200 2.6500
v -28.0800 6.7200 5.2000
v -28.0800 6.8000 7.7600
v -7.5200 0.0000 0.0000
v -33.2800 0.0000 18.5500
v -7.5200 0.0000 0.6400
v -7.5200 0.0000 0.0000
v -33.2800 0.0000 18.5500
v -27.9200 0.0000 17.9200
v -33.2800 0.0000 18.5500
v 15.4000 15.3600 0.0400
vt 0.0000 0.8398
vt 0.0459 -0.0742
vt 0.0459 -0.0742
vt -0.0420 -0.0742
vt -0.0420 -0.0742
vt 0.0459 -0.0742
vt 0.0459 0.0000
vt -0.0420 0.0000
vt -0.0420 -0.0742
vt -0.0420 -0.0742
vt -0.0420 0.0000
vt 0.0459 0.0000
vt 0.0459 -0.0742
vt 0.0459 -0.0742
vt -0.0420 0.0000
vt 0.0459 0.0000
vt 0.0459 -0.0742
vt -0.0420 -0.0742
vt -0.1113 -0.0244
vt -0.0234 -0.0244
vt -0.0234 -0.0244
vt -0.1113 -0.0244
vt -0.1113 -0.0244
vt -0.0234 -0.0244
vt -0.1113 -0.0098
vt -0.0234 -0.0098
vt -0.0234 -0.0244
vt -0.1113 -0.0244
vt -0.1113 -0.0098
vt -0.0234 -0.0098
vt -0.0234 -0.0098
vt -0.1113 -0.0098
vt -0.1113 -0.0098
vt -0.1113 -0.0098
vt -0.1113 -0.0244
vt -0.1113 -0.0244
vt -0.0234 -0.0244
vt -0.0234 -0.0244
vt -0.0234 -0.0098
vt -0.0234 -0.0098
vt -0.1113 -0.0244
vt -0.0234 -0.0244
vt -0.0234 -0.0098
vt -0.1113 -0.0098
vt -0.1113 -0.0244
vt -0.0234 -0.0244
vt -0.0234 -0.0244
vt -0.1113 -0.0244
vt 0.0459 -0.0742
vt -0.0420 -0.0742
vt -0.1113 -0.0244
vt -0.0234 -0.0244
vt 0.0000 0.8750
vt -6.5000 0.0000
vt -6.2500 0.0000
vt -6.5000 0.0000
vt -4.0000 0.0000
vt -3.5000 8.0020
vt -3.5000 8.0020
vt -3.5000 8.0020
vt -6.5000 0.0000
vt -6.2500 0.0000
vt -4.0000 0.0000
vt -6.5000 0.0000
vt -6.2500 0.0000
vt -6.5000 0.0000
vt -6.2500 0.0000
vt -8.2500 0.0000
f 15/15 16/16 21/21
f 15/15 21/21 22/22
f 23/23 17/17 18/18
f 23/23 24/24 17/17
f 17/17 18/18 19/19
f 17/17 19/19 20/20
f 21/21 22/22 23/23
f 21/21 23/23 24/24
f 3/3 4/4 1/1
f 3/3 1/1 2/2
