# Conker's Bad Fur Day — Real 3D Model (Vegetation & Foliage)
o assets00_model_000

v 0.0000 0.0000 0.0100
v 0.0100 0.0100 0.0100
v 0.0100 0.0100 0.0100
v 0.0100 0.0100 0.0100
v 0.0100 0.0000 0.0000
v 0.0100 0.0100 0.0100
v 0.0100 0.0100 0.0000
v 0.0100 0.0100 0.0100
v 0.0100 0.0100 0.0000
v 0.0100 0.0100 0.0100
v 0.0100 0.0000 0.0000
v 0.0000 0.0000 0.0100
v 11.5900 9.6500 0.0000
v 11.5900 9.6500 0.0000
v 11.5900 9.6500 0.0000
v 11.5900 9.6500 0.0000
v 11.5900 9.6500 0.0000
v 10.9500 8.9900 0.0000
v 31.4100 8.9900 0.0000
v 30.7700 8.3500 0.0000
v 30.7700 8.3500 0.0000
v 29.4900 7.0500 0.0000
v -0.2000 -0.1700 -0.2000
v 0.0700 -0.0100 0.0000
v 0.4600 -0.0100 0.0000
v 0.0000 0.0000 2.2300
v 30.7100 -4.3300 0.0000
v 0.0000 0.1200 -0.0100
v -0.0900 1.2700 0.0000
v 0.0000 33.2700 -4.3200
v 0.0000 1.2700 0.0000
v 0.0000 1.2700 0.0000
v 0.0000 1.2700 0.0000
v 0.0000 1.1100 0.0000
v 0.0000 0.7900 0.0000
v 0.0000 0.0000 0.0100
v 0.0000 0.0000 0.0600
v 0.0000 0.0000 0.5100
v 0.0000 0.0000 0.7000
v 0.0000 0.0000 0.0300
v 0.0000 0.0000 0.0100
v 0.0100 0.0100 0.0100
v 0.0100 0.0100 0.0100
v 0.0100 0.0100 0.0100
v 0.0100 0.0000 0.0000
v 0.0100 0.0100 0.0100
v 0.0100 21.7800 21.1500
v 0.0100 0.0100 0.0000
v 0.0100 0.0100 0.0100
v 0.0100 0.0100 0.0000
v 0.0100 0.0100 0.0100
v 0.0100 0.0000 0.0000
v 0.0000 0.0000 0.0100
v 10.9300 10.9300 0.0000
v 10.9300 10.9300 0.0000
v 10.9300 10.2900 0.0000
v 10.9300 10.2900 0.0000
v 10.9300 10.9300 0.0000
v 10.2900 10.2900 0.0000
v 10.2900 10.2900 0.0000
v 9.6500 10.2900 5.7700
v 9.0100 10.2900 7.7100
v 8.9900 10.2900 7.7100
v 8.3500 9.6500 7.7100
v 7.0700 9.6500 7.6900
v 5.7700 7.7100 6.4100
v -0.2000 -0.2200 -0.1600
v -0.2200 -0.2300 -0.2000
v 0.0300 -0.0100 0.0000
v 0.1300 -0.0100 0.0000
v 0.0000 0.0000 1.1100
v 7.5100 -1.2900 0.0000
v 0.0000 0.0000 35.8300
v 0.0000 0.6300 -0.0900
v -1.7600 0.3100 0.0000
v 0.0000 13.9400 0.0000
v 0.0000 0.1300 0.0000
v 0.0000 0.1100 0.0000
v 0.0000 0.0700 0.0000
v 0.0000 0.0500 0.0000
v 0.0000 13.7100 0.0000
v 0.0000 0.0000 0.0300
v 0.0000 1.0100 0.0000
v 0.0000 0.0000 0.0100
v 0.0100 0.0100 0.0100
v 0.0100 0.0100 0.0100
v 0.0100 0.0100 0.0100
v 0.0100 0.0000 0.0000
v 0.0100 0.0100 0.0100
v 0.0100 21.1400 21.1500
v 0.0100 0.0100 0.0000
v 0.0100 0.0100 0.0100
v 0.0100 0.0100 0.0000
v 0.0100 0.0100 0.0100
v 0.0100 0.0000 0.0000
v 0.0000 0.0000 0.0100
v 0.0000 0.0000 21.7700
v 9.6500 10.9300 0.0000
v 10.2900 10.9300 0.0000
v 10.2900 10.9300 0.0000
v 9.6500 10.9300 0.0000
v 9.6500 10.9300 7.6900
v 9.0100 10.9300 8.9900
v 8.3500 10.9300 9.6300
v 7.7100 10.9300 9.6500
v 7.0700 10.2900 9.6500
v 5.7900 9.6500 8.9900
v 5.1500 9.0100 8.9900
v 4.4900 8.3500 8.9900
v 3.8500 7.0700 8.9900
v 2.5700 5.1300 27.5500
v -0.2400 -0.1700 -21.2700
v -0.2200 -0.2100 -0.1900
v -21.2700 -0.1800 0.0000
v -21.3600 0.0000 0.0000
v 0.0600 -0.0100 0.0000
v 0.0000 0.0000 0.3000
v 1.2700 -0.5200 0.0000
v 0.0000 0.0000 7.5100
v 0.0000 0.0000 30.7100
v -0.0700 0.1000 0.0000
v -1.1200 0.0800 0.0000
v 0.0000 0.4700 -25.6000
v 0.0000 0.0400 0.0000
v 0.0000 0.8600 0.0000
v 0.0000 15.7400 0.0000
v 0.0000 13.7800 0.0000
v 0.0000 0.0000 0.0100
v 0.0100 0.0100 0.0100
v 0.0100 0.0100 0.0100
v 0.0100 0.0100 0.0100
v 0.0100 0.0000 0.0000
v 0.0100 0.0100 0.0100
v 0.0100 21.1400 21.1500
v 0.0100 0.0100 0.0000
v 0.0100 0.0100 0.0100
v 0.0100 0.0100 0.0000
v 0.0100 0.0100 0.0100
v 0.0100 0.0000 0.0000
v 0.0000 0.0000 0.0100
v 9.0100 11.5700 9.0100
v 0.0000 0.0000 21.7700
v 9.0100 11.5700 9.6300
v 8.3700 11.5700 9.6300
v 8.3500 10.9300 9.6500
v 8.3500 10.9300 9.6300
v 7.7100 10.9300 9.6500
v 6.4300 10.2900 9.6500
v 5.7900 10.2900 9.6500
v 5.1500 9.6500 10.2900
v 4.4900 8.3500 10.2900
v 3.8500 7.7100 9.6500
v 3.2100 6.4300 9.6300
v 3.2100 5.1300 8.3500
v 0.0000 3.8500 7.0700
v 0.0000 2.5700 5.1500
v -0.1400 -0.2100 -0.2100
v -21.3500 -0.2100 -0.2100
v -0.2000 -0.2100 -21.3200
v 0.0300 -0.0100 0.0000
v 0.0000 0.0000 0.0900
v 0.3000 -0.0400 0.0000
v 0.0000 0.0000 1.1100
v 0.0000 0.0000 2.2300
v 15.3500 -10.1700 0.0000
v 0.0000 0.0000 30.7100
v 0.0000 0.0700 0.0000
v 0.0000 0.8300 0.0000
v 0.0000 0.8300 0.0000
v 0.0000 0.5100 0.0000
v 0.0000 0.1000 0.0000
v 0.0000 0.0000 0.0100
v 0.0100 0.0100 0.0100
v 0.0100 0.0100 0.0100
v 0.0100 0.0100 0.0100
v 0.0100 0.0000 0.0000
v 0.0100 0.0100 0.0100
v 0.0100 21.1400 21.1500
v 0.0100 0.0100 0.0000
v 0.0100 0.0100 0.0100
v 0.0100 0.0100 0.0000
v 0.0100 0.0100 0.0100
v 0.0100 0.0000 0.0000
v 0.0000 0.0000 0.0100
v 7.7100 11.5700 10.2900
v 7.0700 10.9300 10.2900
v 7.0700 10.9300 9.6500
v 7.0700 10.9300 10.2900
v 6.4300 10.2900 9.6500
v 5.1500 9.6500 10.2900
v 4.5100 9.0100 10.2900
v 3.8500 8.3500 10.2900
v 3.8500 7.0700 10.2900
v 3.8500 5.7900 9.6500
v 0.0000 4.4900 8.3500
v 0.0000 3.8500 7.0700
v 0.0000 2.5700 5.7700
v 0.0000 2.5700 3.8500
v 0.0000 0.0000 3.2100
v -0.2100 -0.2200 -0.2200
v 0.0000 0.0000 0.0300
v 0.0800 -0.0200 0.0000
v 0.0000 0.0000 0.1300
v 0.0000 0.0000 0.4700
v 1.2700 -1.2600 0.0000
v 0.0000 0.0000 1.9100
v 2.3900 -10.2400 0.0000
v 5.1100 -28.1600 0.0000
v 0.0000 0.0000 7.6700
v 0.0000 0.0000 1.6200
v 0.0000 0.0400 0.0000
v 0.0000 0.0600 0.0000
v 0.0000 0.0200 0.0000
v 0.0000 0.0000 0.0100
v 0.0100 0.0100 0.0100
v 0.0100 0.0100 0.0100
v 0.0100 0.0100 0.0100
v 0.0100 0.0000 0.0000
v 0.0100 0.0100 0.0100
v 0.0100 21.1400 21.1500
v 0.0100 0.0100 0.0000
v 0.0100 0.0100 0.0100
v 0.0100 0.0100 0.0000
v 0.0100 0.0100 0.0100
v 0.0100 0.0000 0.0000
v 0.0000 0.0000 0.0100
v 7.7100 11.5700 10.2900
v 7.0700 10.9300 10.2900
v 7.0700 10.9300 9.6500
v 7.0700 10.9300 10.2900
v 6.4300 10.2900 9.6500
v 5.1500 9.6500 10.2900
v 4.5100 9.0100 10.2900
v 3.8500 8.3500 10.2900
v 3.8500 7.0700 10.2900
v 3.8500 5.7900 9.6500
v 0.0000 4.4900 8.3500
v 0.0000 3.8500 7.0700
v 0.0000 2.5700 5.7700
v 0.0000 2.5700 3.8500
v 0.0000 0.0000 2.5700
v 0.0000 0.0000 1.9300
v 0.0000 0.0000 0.0300
v 0.0800 -0.0200 0.0000
v 0.0000 0.0000 0.1300
v 0.0000 0.0000 0.4700
v 1.2700 -1.2600 0.0000
v 0.0000 0.0000 1.9100
v 2.3900 -10.2400 0.0000
v 5.1100 -28.1600 0.0000
v 0.0000 0.0000 7.6700
v 0.0000 0.0000 1.6200
vt 0.0010 0.0010
vt 0.0010 0.0010
vt 0.0010 0.0010
vt 0.0010 0.0010
vt 0.0000 0.0000
vt 0.0010 0.0000
vt 0.0000 0.0000
vt 0.0010 4.2500
vt 0.0000 0.0000
vt 0.0010 6.3125
vt 0.0000 0.0000
vt 0.0010 8.4375
vt 20.9385 27.2510
vt 21.0010 27.1885
vt 0.0000 23.0029
vt 0.0000 0.0000
vt 0.0000 0.0000
vt 0.0000 0.0000
vt 0.0000 0.0000
vt 0.0000 0.0000
vt 0.0000 0.0000
vt 0.0000 0.0000
vt -22.7246 -6.2139
vt 0.0000 0.0000
vt 0.0000 0.0000
vt -1.2666 -3.0000
vt 0.0000 0.0000
vt -2.4072 -1.2500
vt 0.0000 0.0000
vt -2.7402 -1.0000
vt 0.0000 0.0000
vt 0.0000 0.0000
vt 0.0000 0.0000
vt 0.0000 0.0000
vt 0.0000 0.0000
vt -0.1523 29.3936
vt -0.0322 -23.1035
vt -0.0508 -9.7764
vt -0.0010 -10.4160
vt 30.7109 17.6777
vt 0.0010 0.0010
vt 0.0010 0.0010
vt 0.0010 0.0010
vt 0.0010 0.0010
vt 0.0000 0.0000
vt 0.0010 0.0000
vt 0.0010 0.0010
vt 0.0000 0.0000
vt 0.0010 6.2510
vt 0.0000 0.0000
vt 0.0010 6.3135
vt 0.0000 0.0000
vt 0.0010 8.4385
vt 18.8760 21.0010
vt 23.0635 16.8135
vt 18.8760 18.8760
vt 14.6885 21.0010
vt 0.0000 18.8760
vt 0.0000 0.0000
vt 0.0000 0.0000
vt 0.0000 0.0000
vt 0.0000 0.0000
vt 0.0000 0.0000
vt 0.0000 0.0000
vt 0.0000 0.0000
vt 0.0000 0.0000
vt -0.0156 -0.0186
vt -8.2793 -0.0166
vt 0.0000 0.0000
vt 0.0000 0.0000
vt -0.8604 -1.2500
vt 0.0000 0.0000
vt -1.2363 -0.1719
vt -1.2500 27.9844
vt 0.0000 0.0000
vt -0.5000 0.0000
vt 0.0000 0.0000
vt 0.0000 0.0000
vt 0.0000 0.0000
vt 0.0000 0.0000
vt 0.0000 0.0000
vt -8.0010 -4.3506
vt 0.0000 0.0000
vt 0.0010 0.0010
vt 0.0010 0.0010
vt 0.0010 0.0010
vt 0.0010 0.0010
vt 0.0000 0.0000
vt 0.0010 0.0000
vt 0.0010 0.0010
vt 0.0000 0.0000
vt 0.0010 6.2510
vt 0.0000 0.0000
vt 0.0010 6.3125
vt 0.0000 0.0000
vt 0.0010 10.4385
vt 31.4385 16.8135
vt 21.0010 16.7510
vt 20.9385 16.7510
vt 14.6885 23.0010
vt 8.3760 18.8135
vt 0.0000 12.5635
vt 0.0000 0.0000
vt 0.0000 0.0000
vt 0.0000 0.0000
vt 0.0000 0.0000
vt 0.0000 0.0000
vt 0.0000 0.0000
vt 0.0000 0.0000
vt 0.0000 0.0000
vt 30.9570 -24.7881
vt 0.0000 0.0000
vt -24.5908 -24.4668
vt 0.0000 0.0000
vt 0.0000 0.0000
vt 0.0000 0.0000
vt -0.2041 -0.1875
vt 0.0000 0.0000
vt -0.2461 -0.0146
vt -0.2500 -16.0059
vt 12.0000 0.0000
vt 0.0000 0.0000
vt -0.1406 0.0000
vt 0.0000 0.0000
vt 13.2500 0.0000
vt -26.0752 0.0000
vt 21.8750 0.0000
vt 0.0010 0.0010
vt 0.0010 0.0010
vt 0.0010 0.0010
vt 0.0010 0.0010
vt 0.0000 0.0000
vt 0.0010 0.0000
vt 0.0010 0.0010
vt 0.0000 0.0000
vt 0.0010 6.2500
vt 0.0000 0.0000
vt 0.0010 6.3750
vt 0.0000 0.0000
vt 0.0010 10.4385
vt 23.0010 16.7510
vt 31.3760 18.8135
vt 18.8760 18.8135
vt 12.6260 21.0010
vt 8.2510 14.6885
vt 0.0000 8.2510
vt 0.0000 0.0000
vt 0.0000 0.0000
vt 0.0000 0.0000
vt 0.0000 0.0000
vt 0.0000 0.0000
vt 0.0000 0.0000
vt 0.0000 0.0000
vt 0.5635 0.0000
vt 0.5010 0.0000
vt 4.6279 -20.6611
vt -24.6582 -18.4004
vt -0.0186 -12.2725
vt 0.0000 0.0000
vt 0.0000 0.0000
vt -0.2051 -0.0625
vt 0.0000 0.0000
vt -0.2031 -24.0010
vt -0.2031 3.2490
vt -2.0000 0.0000
vt -0.1406 0.0020
vt -26.1367 0.0000
vt -27.1523 12.0000
vt -10.6348 16.0000
vt -19.1943 8.0000
vt 26.0518 0.0000
vt 0.0010 0.0010
vt 0.0010 0.0010
vt 0.0010 0.0010
vt 0.0010 0.0010
vt 0.0000 0.0000
vt 0.0010 0.0010
vt 0.0010 0.0010
vt 0.0000 0.0000
vt 0.0010 6.2500
vt 0.0000 0.0000
vt 0.0010 8.3760
vt 0.0000 0.0000
vt 0.0010 10.4375
vt 20.9385 16.8135
vt 14.6260 21.0010
vt 8.2510 14.6885
vt 0.0000 8.2510
vt 0.0000 0.0000
vt 0.0000 0.0000
vt 0.0000 0.0000
vt 0.0000 0.0000
vt 0.0000 0.0000
vt 0.0000 0.0000
vt 0.6885 0.0000
vt 0.7529 0.0000
vt 0.7529 0.2510
vt 0.6260 8.5684
vt 8.6943 6.7549
vt -0.0244 0.0000
vt -0.1816 -0.0068
vt -28.0000 0.0000
vt -0.1406 3.2490
vt -0.1406 0.1553
vt -29.3594 0.0000
vt -0.0469 0.0000
vt 0.0000 0.0000
vt 0.0000 0.0000
vt 19.9932 0.0000
vt 3.2490 4.0000
vt -0.8525 13.2500
vt -0.4209 14.0000
vt -0.9326 21.5000
vt 0.0010 0.0010
vt 0.0010 0.0010
vt 0.0010 0.0010
vt 0.0010 0.0010
vt 0.0000 0.0000
vt 0.0010 0.0010
vt 0.0010 0.0010
vt 0.0000 0.0000
vt 0.0010 6.2500
vt 0.0000 0.0000
vt 0.0010 8.3760
vt 0.0000 0.0000
vt 0.0010 10.4375
vt 20.9385 16.8135
vt 14.6260 21.0010
vt 8.2510 14.6885
vt 0.0000 8.2510
vt 0.0000 0.0000
vt 0.0000 0.0000
vt 0.0000 0.0000
vt 0.0000 0.0000
vt 0.0000 0.0000
vt 0.0000 0.0000
vt 0.6885 0.0000
vt 0.7529 0.0000
vt 0.7529 0.2510
vt 0.8154 0.6260
vt 0.7510 0.6885
vt 0.6260 0.6885
vt -0.1816 -0.0068
vt -28.0000 0.0000
vt -0.1406 3.2490
vt -0.1406 0.1553
vt -29.3594 0.0000
vt -0.0469 0.0000
vt 0.0000 0.0000
vt 0.0000 0.0000
vt 19.9932 0.0000
vt 3.2490 4.0000
f 128/128 127/127 4/4
f 84/84 65/65 51/51
f 44/44 9/9 1/1
