mtllib assets09_model_377.mtl
# Conker's Bad Fur Day — Real 3D Model (Multiplayer Level Models)
o assets09_model_377
usemtl assets09_model_377_mat

v 0.0000 9.8400 0.0000
v 2.5800 0.6400 0.0000
v 15.5000 20.5800 0.0800
v -27.3600 0.0000 17.9200
v -27.4400 20.4800 0.0900
v -7.5200 0.0000 0.6400
v -6.8800 0.0000 0.0000
v -27.4400 10.2400 0.0900
v -7.5200 0.0000 0.6400
v -6.8800 0.0000 0.0000
v -27.4400 20.4800 0.0100
v -7.5200 0.0000 0.6400
v -33.2800 0.0000 18.2300
v -7.5200 0.0000 0.6400
v -2.7100 0.4400 0.9600
vt 0.0000 0.0000
vt 4.6484 -29.9062
vt -10.2500 0.0020
vt -3.2500 0.0000
vt -3.4375 1.0000
vt -2.6562 0.2500
vt -3.2500 0.0000
vt -3.4375 1.0000
vt -6.5000 0.0000
vt -3.2500 0.0000
vt -3.4375 1.0000
vt -6.5000 0.0000
vt -2.6797 2.0000
vt -6.5000 0.0000
vt 0.0000 0.0000
f 8/8 5/5 6/6
f 5/5 4/4 6/6
f 8/8 7/7 9/9
f 9/9 11/11 10/10
