# Conker's Bad Fur Day — Real 3D Model (HUD & UI Props)
o assets01_model_029

v 0.0000 27.0000 0.0000
v 9.0400 9.8000 -0.0100
v 5.3600 8.5500 -0.0100
v 9.7900 7.6100 -0.0100
v 6.2600 6.8000 -0.0100
v 2.4900 5.3800 -0.0100
v 3.4300 4.7100 -0.0100
v 1.2100 1.7700 -0.0100
v 1.7400 1.4800 -0.0100
v 9.7800 7.6100 -0.0100
v 5.3600 8.5500 -0.0100
v 9.0400 9.8000 -0.0100
v 6.2600 6.8000 -0.0100
v 2.4900 5.3800 -0.0100
v 1.2100 1.7700 -0.0100
v 1.2100 1.7700 -0.0100
v 1.2100 1.7700 -0.0100
v 0.0700 0.7700 -0.0100
v 0.6700 1.2000 -0.0100
v 1.6800 0.8900 -0.0100
v 0.6800 3.4800 -0.0100
v 1.6900 3.5300 -0.0100
v 2.9600 0.8500 -0.0100
v 2.9800 3.9100 -0.0100
v 4.0500 0.9000 -0.0100
v 4.0700 4.1800 -0.0100
v 0.2100 2.2500 -0.0100
v 4.1500 3.1400 -0.0100
v 2.5100 3.3400 -0.0100
v 2.4800 1.8700 -0.0100
v 0.5800 1.0100 -0.0100
v 0.6100 2.9100 -0.0100
v 10.8300 7.6000 -0.0100
v 15.2600 8.5100 -0.0100
v 11.6000 9.7900 -0.0100
v 14.3500 6.7600 -0.0100
v 18.1000 5.3200 -0.0100
v 17.1600 4.6600 -0.0100
v 19.3500 1.6900 -0.0100
v 18.8100 1.4100 -0.0100
v 11.6000 9.7900 -0.0100
v 15.2600 8.5100 -0.0100
v 10.8300 7.6000 -0.0100
v 14.3500 6.7600 -0.0100
v 18.1000 5.3200 -0.0100
v 19.3500 1.6900 -0.0100
v 19.3500 1.6900 -0.0100
v 20.4700 0.6900 -0.0100
v 0.5700 4.0700 -0.0100
v 1.6700 1.1000 -0.0100
v 0.5500 1.6300 -0.0100
v 4.5300 2.6600 -0.0100
v 4.8400 0.8500 -0.0100
v 4.5300 2.6600 -0.0100
v 1.7000 3.9200 -0.0100
v 3.1100 0.8000 -0.0100
v 3.1400 4.0800 -0.0100
v 4.3300 0.6400 -0.0100
v 4.3600 4.1600 -0.0100
v 0.0400 2.8400 -0.0100
v 2.4600 1.2500 -0.0100
v 2.4300 2.5900 -0.0100
v 0.6900 1.9900 -0.0100
v 4.4800 0.9400 -0.0100
v 4.4800 0.9400 -0.0100
v 4.4300 2.6700 -0.0100
v 2.4300 2.5900 -0.0100
v 20.4700 1.8900 -0.0100
v 20.4800 3.4200 -0.0100
v 10.5500 3.7900 -0.0100
v 10.5300 1.5800 -0.0100
v 6.2200 2.0500 -0.0100
v 6.2300 3.3400 -0.0100
v 0.1000 3.9000 -0.0100
v 0.0800 1.5200 -0.0100
v 0.2000 3.5500 -0.0100
v -0.0900 0.1500 -0.0100
v 6.3500 3.2100 -0.0100
v 8.3400 1.5400 -0.0100
v 10.5900 4.2100 -0.0100
v 10.6100 2.7700 -0.0100
v 20.5200 4.0600 -0.0100
v 20.5400 2.8600 -0.0100
v 6.3500 3.2100 -0.0100
v -0.0900 0.1500 -0.0100
v 0.2000 3.5500 -0.0100
v 8.3400 1.5400 -0.0100
v 10.5900 4.2100 -0.0100
v 10.6100 2.7700 -0.0100
v 20.5200 4.0600 -0.0100
v 20.5400 2.8600 -0.0100
v 5.4300 2.7200 -0.0100
v 3.7400 3.6200 -0.0100
v 1.2400 0.7500 -0.0100
v 2.9300 -0.1500 -0.0100
v 9.7900 9.2900 -0.0100
v 12.3700 9.6800 -0.0100
v 7.6500 9.4400 -0.0100
v 12.7900 9.5700 -0.0100
v 10.8300 7.6000 -0.0100
v 9.7800 7.6100 -0.0100
v 11.6000 9.7900 -0.0100
v 9.0400 9.8000 -0.0100
v 8.0300 9.4100 -0.0100
v 11.2500 9.3900 -0.0100
v 12.5600 9.4700 -0.0100
v 8.0800 9.4000 -0.0100
v 9.1400 9.3700 -0.0100
v 12.4400 9.6400 -0.0100
v 8.0400 9.2600 -0.0100
v 11.3900 9.5100 -0.0100
v 9.0400 9.8000 -0.0100
v 9.7900 7.6100 -0.0100
v 10.8300 7.6000 -0.0100
v 11.6000 9.7900 -0.0100
v 11.3900 9.5100 -0.0100
v 9.1400 9.3700 -0.0100
v 3.7700 3.8800 -0.0100
v 2.4800 3.9000 -0.0100
v 2.5200 1.1600 -0.0100
v 1.2600 2.5000 -0.0100
v 3.7200 2.4200 -0.0100
v 3.7600 3.8400 -0.0100
v 1.3000 3.9200 -0.0100
v 2.3300 3.7200 -0.0100
v 0.6900 4.1200 -0.0100
v 2.3300 0.8900 -0.0100
v 0.6900 1.2800 -0.0100
v 3.8100 1.1400 -0.0100
v 39.4400 4.8800 -0.0100
v 39.4400 4.8800 -0.0100
v 0.4300 4.6500 -0.0100
v 0.4300 4.6500 -0.0100
v 0.0000 13.1200 0.1600
v 0.6400 0.1600 0.0000
v 0.0000 13.1300 0.0000
v 0.0000 13.1400 0.1600
v 0.1600 0.1600 0.0000
v -7.5200 0.0000 0.0000
v -7.5200 0.0000 0.0000
v -33.2800 0.0000 17.9900
v -28.0800 10.2400 0.0100
v -7.5200 0.0000 0.0000
v -33.2800 0.0000 18.5500
v 2.5800 0.6400 2.5600
v -7.5200 0.0000 0.0000
v -33.2800 0.0000 17.9900
v -28.0800 10.2400 0.0100
v -7.5200 0.0000 0.6400
v -7.5200 0.0000 0.0000
v -33.2800 0.0000 18.2300
v -7.5200 0.0000 0.6400
v -7.5200 0.0000 0.0000
v -33.2800 0.0000 17.9900
v -28.0800 10.2400 0.0100
v -7.5200 0.0000 0.6400
vt 0.0000 2.6836
vt -0.0371 -0.0166
vt 0.0020 -0.0195
vt -0.0293 -0.0146
vt -0.0615 -0.0117
vt -0.0537 -0.0088
vt -0.0723 -0.0078
vt -0.0684 -0.0059
vt 0.0020 -0.0088
vt -0.0371 -0.0068
vt -0.0049 -0.0088
vt -0.0293 -0.0068
vt -0.0615 -0.0039
vt -0.0723 -0.0010
vt -0.0723 -0.0010
vt -0.0723 -0.0078
vt -0.0820 -0.0039
vt -0.0723 -0.0078
vt -0.0615 -0.0117
vt -0.0723 -0.0010
vt -0.0615 -0.0039
vt -0.0371 -0.0166
vt -0.0371 -0.0068
vt -0.0049 -0.0195
vt -0.0049 -0.0088
vt -0.0820 -0.0039
vt -0.0537 -0.0088
vt -0.0293 -0.0068
vt -0.0293 -0.0146
vt 0.0020 -0.0195
vt 0.0020 -0.0088
vt 0.0107 -0.0195
vt 0.0488 -0.0166
vt 0.0176 -0.0195
vt 0.0410 -0.0146
vt 0.0742 -0.0117
vt 0.0654 -0.0088
vt 0.0850 -0.0078
vt 0.0801 -0.0059
vt 0.0176 -0.0088
vt 0.0488 -0.0068
vt 0.0107 -0.0088
vt 0.0410 -0.0068
vt 0.0742 -0.0039
vt 0.0850 -0.0010
vt 0.0850 -0.0010
vt 0.0947 -0.0039
vt 0.0850 -0.0010
vt 0.0742 -0.0117
vt 0.0850 -0.0078
vt 0.0742 -0.0117
vt 0.0850 -0.0010
vt 0.0742 -0.0039
vt 0.0742 -0.0039
vt 0.0488 -0.0166
vt 0.0488 -0.0068
vt 0.0176 -0.0195
vt 0.0176 -0.0088
vt 0.0947 -0.0039
vt 0.0410 -0.0146
vt 0.0410 -0.0068
vt 0.0654 -0.0088
vt 0.0107 -0.0195
vt 0.0107 -0.0195
vt 0.0107 -0.0088
vt 0.0410 -0.0068
vt 0.0137 -0.0459
vt 0.0107 -0.0088
vt 0.0127 -0.0088
vt 0.0000 -0.0088
vt 0.0020 -0.0186
vt 0.0098 -0.0186
vt 0.0137 -0.0156
vt -0.0010 -0.0156
vt -0.0010 -0.0156
vt -0.0010 -0.0459
vt 0.0020 -0.0186
vt 0.0029 -0.0322
vt 0.0000 -0.0088
vt 0.0000 -0.0215
vt 0.0020 -0.0088
vt 0.0020 -0.0195
vt 0.0098 -0.0186
vt 0.0137 -0.0459
vt 0.0137 -0.0156
vt 0.0098 -0.0322
vt 0.0127 -0.0088
vt 0.0127 -0.0215
vt 0.0107 -0.0088
vt 0.0107 -0.0195
vt -0.0010 -0.0156
vt 0.0137 -0.0156
vt 0.0137 -0.0459
vt -0.0010 -0.0459
vt 0.0059 -0.0137
vt 0.0273 -0.0088
vt 0.0273 -0.0088
vt 0.0156 -0.0137
vt -0.0029 -0.0137
vt 0.0020 -0.0088
vt 0.0176 -0.0088
vt -0.0049 -0.0088
vt -0.0156 -0.0088
vt -0.0029 -0.0137
vt 0.0059 -0.0137
vt -0.0156 -0.0195
vt -0.0029 -0.0137
vt -0.0029 -0.0137
vt 0.0273 -0.0195
vt 0.0156 -0.0137
vt 0.0059 -0.0137
vt 0.0020 -0.0195
vt 0.0107 -0.0195
vt 0.0059 -0.0137
vt 0.0059 -0.0137
vt 0.0156 -0.0137
vt 0.0059 -0.0137
vt 0.0273 -0.0088
vt 0.0273 -0.0195
vt -0.0156 -0.0195
vt 0.0273 -0.0195
vt 0.0273 -0.0088
vt -0.0156 -0.0088
vt -0.0156 -0.0088
vt -0.0049 -0.0088
vt -0.0156 -0.0195
vt -0.0049 -0.0195
vt 0.0176 -0.0195
vt 0.0000 0.0039
vt 0.0000 -0.0039
vt 0.0850 -0.0010
vt 0.0850 -0.0078
vt 0.0000 2.7578
vt 0.0000 1.2861
vt 0.0000 1.2852
vt 0.0625 0.0312
vt 0.0000 1.2842
vt -6.2500 0.0000
vt -2.7344 0.0000
vt -6.5000 0.0000
vt -6.2500 0.0000
vt -3.5000 8.0020
vt -6.5000 0.0000
vt -6.2500 0.0000
vt 4.6406 3.1260
vt -6.5000 0.0000
vt -6.2500 0.0000
vt -3.5000 8.0020
vt -4.0000 0.0000
vt -6.5000 0.0000
vt -6.2500 0.0000
vt -4.0000 0.0000
vt -6.5000 0.0000
vt -6.2500 0.0000
vt -3.5000 8.0020
vt -4.0000 0.0000
f 124/124 2/2 42/42
f 78/78 2/2 83/83
f 91/91 1/1 106/106
f 128/128 128/128 128/128
f 124/124 2/2 42/42
f 78/78 2/2 83/83
f 16/16 17/17 8/8
f 14/14 8/8 17/17
f 28/28 30/30 29/29
f 28/28 31/31 30/30
f 8/8 16/16 7/7
f 16/16 8/8 14/14
f 29/29 32/32 30/30
f 1/1 2/2 3/3
f 1/1 2/2 3/3
f 4/4 1/1 3/3
f 29/29 30/30 31/31
f 10/10 11/11 12/12
f 22/22 21/21 23/23
f 24/24 13/13 15/15
