# Conker's Bad Fur Day — Real 3D Model (Multiplayer Level Models)
o assets09_model_154

v 0.0000 2.0000 0.0000
v 0.0000 0.0000 -2.5800
v 0.0000 0.0000 -2.5800
v 0.0000 0.0000 -2.5800
v 0.0000 0.0000 -2.5800
v 0.0000 0.0000 -2.5800
v 0.0000 0.0000 -2.5800
v 0.0000 0.0000 -2.5800
v 0.0000 0.0000 -2.5800
v 0.0000 0.0000 -2.5800
v 0.0000 0.0000 -2.5800
v 0.0000 0.0000 -2.5800
v -28.0000 0.0000 17.9200
v -33.2800 0.0000 18.3400
v -28.1600 2.5600 15.3600
v -7.5200 0.0000 0.6400
v -28.0800 11.5200 2.5700
v -28.0800 6.7200 5.1200
v -28.0800 6.8000 7.6800
vt 0.0000 0.1992
vt 0.0078 0.0020
vt 0.0000 0.0020
vt -0.0078 0.0020
vt 0.0000 -0.0059
vt 0.0000 0.0020
vt 0.0000 0.0020
vt 0.0000 0.0020
vt -0.0410 -0.0293
vt -0.0273 -0.0293
vt -0.0342 -0.0146
vt 0.0000 0.2344
vt -6.5000 0.0000
vt -6.2500 0.0000
vt -6.5000 0.0000
vt -4.0000 0.0000
vt -3.5000 8.0020
vt -3.5000 8.0020
vt -3.5000 8.0020
f 1/1 2/2 3/3
f 4/4 5/5 6/6
f 7/7 8/8 9/9
f 10/10 11/11 12/12
f 13/13 14/14 15/15
f 16/16 17/17 18/18
