mtllib assets01_model_028.mtl
# Conker's Bad Fur Day — Real 3D Model (HUD & UI Props)
o assets01_model_028
usemtl assets01_model_028_mat

v 0.0000 21.5600 0.0000
v 0.0000 33.1200 0.0000
v 5.0800 13.7200 -0.0100
v 2.5200 13.7200 -0.0100
v -0.0400 13.7200 -0.0100
v 5.0800 13.7200 -0.0100
v 2.5200 13.7200 -0.0100
v -0.0400 13.7200 -0.0100
v 5.0500 20.5800 -0.0100
v 2.4900 20.5800 -0.0100
v -0.0700 20.5800 -0.0100
v 5.0500 20.5800 -0.0100
v 2.4900 20.5800 -0.0100
v -0.0700 20.5800 -0.0100
v 1.8300 0.1900 -0.0100
v 2.7400 0.0900 -0.0100
v 3.2100 0.0300 -0.0100
v 5.1000 6.8600 -0.0100
v 2.5400 6.8600 -0.0100
v -0.0200 6.8600 -0.0100
v 5.1000 6.8600 -0.0100
v 2.5400 6.8600 -0.0100
v -0.0200 6.8600 -0.0100
v 2.5600 0.0000 -0.0100
v 5.1200 0.0000 -0.0100
v 5.1200 0.0000 -0.0100
v 0.0000 0.0000 -0.0100
v 0.0000 0.0000 -0.0100
v 2.5600 0.0000 -0.0100
v 2.5600 6.7200 -0.0100
v 0.0000 6.7200 -0.0100
v 0.0000 0.0000 -0.0100
v 2.5600 0.0000 -0.0100
v 5.1200 6.7200 -0.0100
v 2.5600 6.7200 -0.0100
v 2.5600 0.0000 -0.0100
v 5.1200 0.0000 -0.0100
v 0.0000 6.7200 -0.0100
v 5.1200 6.7200 -0.0100
v 5.1200 0.0000 -0.0100
v 0.0000 0.0000 -0.0100
v 0.0000 20.1700 -0.0100
v 5.1200 20.1700 -0.0100
v 2.5600 20.1700 -0.0100
v 2.5600 13.4500 -0.0100
v 0.0000 13.4500 -0.0100
v 5.1200 13.4500 -0.0100
v 2.5600 13.4500 -0.0100
v 0.0000 13.4500 -0.0100
v 5.1200 13.4500 -0.0100
v 2.5600 20.1700 -0.0100
v 0.0000 20.1700 -0.0100
v 5.1200 20.1700 -0.0100
v 2.5600 20.1700 -0.0100
v 0.0000 20.1700 -0.0100
v 5.1200 20.1700 -0.0100
v 0.0000 14.0700 -0.0100
v 5.1200 14.0700 -0.0100
v 2.5600 14.0700 -0.0100
v 0.0000 14.0700 -0.0100
v 5.1200 14.0700 -0.0100
v 2.5600 14.0700 -0.0100
v 0.0000 21.1000 -0.0100
v 5.1200 21.1000 -0.0100
v 2.5600 21.1000 -0.0100
v 0.0000 21.1000 -0.0100
v 5.1200 21.1000 -0.0100
v 2.5600 21.1000 -0.0100
v 2.5600 0.0000 -0.0100
v 5.1200 0.0000 -0.0100
v 0.0000 0.0000 -0.0100
v 0.0000 7.0300 -0.0100
v 5.1200 7.0300 -0.0100
v 2.5600 7.0300 -0.0100
v 0.0000 7.0300 -0.0100
v 5.1200 7.0300 -0.0100
v 2.5600 7.0300 -0.0100
v 5.1200 0.0000 -0.0100
v 0.0000 0.0000 -0.0100
v 0.0000 0.0000 -0.0100
v 2.5600 0.0000 -0.0100
v 2.5600 0.0000 -0.0100
v 5.1200 0.0000 -0.0100
v 0.0400 16.7800 -0.0100
v 2.5600 -0.9300 -0.0100
v 2.6000 15.8400 -0.0100
v 0.0000 0.0000 -0.0100
v 5.1600 16.7800 -0.0100
v 5.1200 0.0000 -0.0100
v 4.1800 18.2800 -0.0100
v 4.1500 1.5100 -0.0100
v 0.9800 1.5100 -0.0100
v 1.0200 18.2800 -0.0100
v 4.7200 4.1200 -0.0100
v 2.3700 2.2800 -0.0100
v 3.1700 5.3000 -0.0100
v 4.2300 2.2500 -0.0100
v 1.7100 4.1600 -0.0100
v 4.1200 5.0600 -0.0100
v 5.1200 0.0000 -0.0100
v 4.1400 -0.0600 -0.0100
v 5.1200 5.1200 -0.0100
v 2.5600 0.0400 -0.0100
v 2.5100 5.1600 -0.0100
v -0.1000 5.1200 -0.0100
v 0.0000 0.0000 -0.0100
v 0.8900 5.0600 -0.0100
v 0.9800 -0.0600 -0.0100
v 0.0400 16.7800 -0.0100
v 2.5600 -0.9300 -0.0100
v 2.6000 15.8400 -0.0100
v 0.0000 0.0000 -0.0100
v 5.1600 16.7800 -0.0100
v 5.1200 0.0000 -0.0100
v 4.1800 18.2800 -0.0100
v 4.1500 1.5100 -0.0100
v 0.9800 1.5100 -0.0100
v 1.0200 18.2800 -0.0100
v 4.5600 5.5600 -0.0100
v 1.2400 5.6100 -0.0100
v 4.2300 2.9800 -0.0100
v 2.7100 7.1800 -0.0100
v 2.1800 3.0100 -0.0100
v 0.0000 0.0000 -0.0100
v 0.8900 5.0600 -0.0100
v 0.9800 -0.0600 -0.0100
v -0.1000 5.1200 -0.0100
v 4.1200 5.0600 -0.0100
v 4.1400 -0.0600 -0.0100
v 5.1200 0.0000 -0.0100
v 5.1200 5.1200 -0.0100
v 2.5100 5.1600 -0.0100
v 2.5600 0.0400 -0.0100
v 0.0000 39.2900 0.1600
v 0.1600 0.1600 0.0000
v -28.0000 20.4800 0.0100
v -7.5200 0.0000 0.0000
v -28.0800 10.2400 0.0100
v -7.4400 0.0000 0.0000
v -7.5200 0.0000 0.0000
v -7.5200 0.0000 0.6400
v -7.4400 0.0000 0.0000
v -5.1200 -5.1200 -5.1200
v 2.1900 0.0000 0.0000
vt 0.0000 2.2773
vt 0.0000 0.0000
vt 0.0020 0.0000
vt -0.0107 0.0000
vt 0.0078 0.0000
vt 0.0020 0.0000
vt -0.0107 0.0000
vt 0.0078 0.0488
vt 0.0020 0.0488
vt -0.0107 0.0488
vt 0.0078 0.0488
vt 0.0020 0.0488
vt -0.0107 0.0488
vt -0.0107 0.0488
vt 0.0020 0.0488
vt 0.0078 0.0488
vt 0.0078 0.0000
vt 0.0020 0.0000
vt -0.0107 0.0000
vt 0.0078 0.0000
vt 0.0020 0.0000
vt -0.0107 0.0000
vt 0.0020 0.0000
vt 0.0078 0.0000
vt 0.0078 0.0000
vt -0.0107 0.0000
vt -0.0107 0.0000
vt 0.0020 0.0000
vt 0.0000 0.0000
vt -0.0098 0.0000
vt -0.0098 -0.0488
vt 0.0000 -0.0488
vt 0.0098 0.0000
vt 0.0000 0.0000
vt 0.0000 -0.0488
vt 0.0098 -0.0488
vt -0.0098 0.0000
vt 0.0098 0.0000
vt 0.0098 -0.0488
vt -0.0098 -0.0488
vt -0.0098 -0.0488
vt 0.0098 -0.0488
vt 0.0000 -0.0488
vt 0.0000 0.0000
vt -0.0098 0.0000
vt 0.0098 0.0000
vt 0.0000 0.0000
vt -0.0098 0.0000
vt 0.0098 0.0000
vt 0.0000 0.0000
vt -0.0098 0.0000
vt 0.0098 0.0000
vt 0.0000 0.0000
vt -0.0098 0.0000
vt 0.0098 0.0000
vt -0.0098 0.0000
vt 0.0088 0.0000
vt 0.0010 0.0000
vt -0.0098 0.0000
vt 0.0088 0.0000
vt 0.0010 0.0000
vt -0.0098 0.0488
vt 0.0088 0.0488
vt 0.0010 0.0488
vt -0.0098 0.0488
vt 0.0088 0.0488
vt 0.0010 0.0488
vt 0.0010 0.0488
vt 0.0088 0.0488
vt -0.0098 0.0488
vt -0.0098 0.0000
vt 0.0088 0.0000
vt 0.0010 0.0000
vt -0.0098 0.0000
vt 0.0088 0.0000
vt 0.0010 0.0000
vt 0.0088 0.0000
vt -0.0098 0.0000
vt -0.0098 0.0000
vt 0.0010 0.0000
vt 0.0010 0.0000
vt 0.0088 0.0000
vt -0.0371 -0.0469
vt -0.0215 0.1221
vt -0.0215 -0.0469
vt -0.0371 0.1221
vt 0.0244 -0.0469
vt 0.0244 0.1221
vt 0.0381 -0.0469
vt 0.0381 0.1221
vt -0.0010 0.1221
vt -0.0010 -0.0469
vt 0.0244 0.1221
vt -0.0371 0.1221
vt 0.0381 0.1221
vt -0.0215 0.1221
vt -0.0010 0.1221
vt 0.0381 0.1221
vt 0.0293 0.1631
vt 0.0439 0.1631
vt 0.0244 0.1221
vt -0.0254 0.1631
vt -0.0215 0.1221
vt -0.0371 0.1221
vt -0.0439 0.1631
vt -0.0010 0.1221
vt -0.0010 0.1631
vt -0.0371 0.0469
vt 0.0000 -0.1221
vt 0.0000 0.0469
vt -0.0371 -0.1221
vt 0.0381 0.0469
vt 0.0381 -0.1221
vt 0.0234 0.0469
vt 0.0234 -0.1221
vt -0.0225 -0.1221
vt -0.0225 0.0469
vt 0.0381 -0.1221
vt -0.0371 -0.1221
vt 0.0234 -0.1221
vt 0.0000 -0.1221
vt -0.0225 -0.1221
vt -0.0439 -0.1631
vt -0.0225 -0.1221
vt -0.0264 -0.1631
vt -0.0371 -0.1221
vt 0.0234 -0.1221
vt 0.0273 -0.1631
vt 0.0449 -0.1631
vt 0.0381 -0.1221
vt 0.0000 -0.1221
vt 0.0000 -0.1631
vt 0.0000 2.3047
vt 0.0000 3.8350
vt -6.2500 0.0000
vt -3.5000 8.0020
vt -2.7344 0.0000
vt -2.7422 0.5312
vt -2.7266 0.0000
vt -2.7344 0.0000
vt -4.0000 0.0000
vt -2.7266 0.0000
vt 0.6953 -24.5547
vt 0.0000 0.0000
f 11/11 12/12 6/6
f 11/11 6/6 5/5
f 13/13 14/14 15/15
f 26/26 27/27 21/21
f 26/26 21/21 20/20
f 13/13 14/14 15/15
f 11/11 12/12 6/6
f 11/11 6/6 5/5
f 13/13 14/14 15/15
f 15/15 13/13 12/12
f 23/23 24/24 25/25
f 24/24 23/23 22/22
f 15/15 13/13 12/12
f 19/19 25/25 24/24
f 25/25 19/19 16/16
