mtllib assets09_model_273.mtl
# Conker's Bad Fur Day — Real 3D Model (Multiplayer Level Models)
o assets09_model_273
usemtl assets09_model_273_mat

v 0.0000 3.6000 0.0000
v -27.3600 0.0000 17.9200
v -27.4400 20.4800 0.0900
v -27.4400 11.5200 2.6500
v -27.4400 6.7200 5.2000
v -27.4400 6.8000 7.7600
v -27.4400 6.8400 10.3200
v -7.5200 0.0000 0.6400
v 12.8800 35.8600 0.0000
v -6.8800 0.0000 0.0000
v -27.4400 20.4800 0.0100
v -26.7200 0.0000 17.9200
v -26.8000 20.4800 0.0900
vt 0.0000 0.0000
vt -3.2500 0.0000
vt -3.4375 9.0020
vt -3.4688 8.5020
vt -3.4844 8.2520
vt -3.4922 8.1270
vt -3.4961 8.0645
vt -2.6562 0.2500
vt -6.2500 0.0000
vt -3.2500 0.0000
vt -0.7344 0.0000
vt -3.2500 0.0000
vt -3.4375 9.0020
f 7/7 3/3 2/2
f 4/4 3/3 7/7
f 5/5 8/8 2/2
f 9/9 10/10 11/11
