mtllib assets09_model_335.mtl
# Conker's Bad Fur Day — Real 3D Model (Multiplayer Level Models)
o assets09_model_335
usemtl assets09_model_335_mat

v 0.0000 8.7200 0.0000
v 0.0000 0.0000 -2.5800
v 0.0000 0.0000 -2.5800
v 0.0000 0.0000 -2.5800
v 0.0000 0.0000 -2.5800
v 2.5800 0.6400 0.0000
v -6.8800 0.0000 0.0000
v -33.2800 0.0000 18.5500
v -27.2000 2.5600 15.3600
v -33.2800 0.0000 18.2300
v 12.8600 30.8000 0.0000
v -6.8800 0.0000 0.0000
v -27.4400 25.6000 0.0900
v -7.5200 0.0000 0.6400
v -6.8800 0.0000 0.0000
v -27.4400 10.2400 0.0800
v -7.5200 0.0000 0.6400
vt 0.0000 0.0000
vt -0.0146 -0.0195
vt 0.0000 -0.0186
vt 0.0000 -0.0186
vt 0.0000 -0.0186
vt 1.5000 0.5039
vt -2.6719 0.0000
vt -2.6797 4.0000
vt -6.5000 0.0000
vt -2.6797 2.0000
vt -6.2500 0.0000
vt -3.2500 0.0000
vt -3.4375 9.0020
vt -6.5000 0.0000
vt -3.2500 0.0000
vt -3.4375 9.0020
vt -6.5000 0.0000
f 1/1 2/2 3/3
f 2/2 1/1 4/4
f 4/4 7/7 5/5
f 14/14 15/15 13/13
f 13/13 15/15 8/8
