# Conker's Bad Fur Day — Real 3D Model (Multiplayer Level Models)
o assets09_model_029

v 0.0000 2.8000 0.0000
v 2.5600 8.6500 -0.0100
v 3.8400 0.3000 -0.0100
v 2.7600 0.3100 -0.0100
v 4.6800 8.6300 -0.0100
v 2.7600 0.3100 -0.0100
v 2.5600 8.6500 -0.0100
v 1.6800 0.3200 -0.0100
v 0.4500 8.6700 -0.0100
v 2.0700 8.2000 -0.0100
v 4.0000 7.5400 -0.0100
v 4.9100 9.3200 -0.0100
v 1.2100 9.8500 -0.0100
v 2.5300 9.8400 -0.0100
v 3.8500 9.8300 -0.0100
v 2.5300 9.8400 -0.0100
v 2.9800 9.9700 -0.0100
v -28.0000 0.0000 17.9200
v -33.2800 0.0000 18.0700
v -28.1600 2.5600 15.3600
v -7.5200 0.0000 0.6400
v 2.5700 0.3200 2.5600
vt 0.0000 0.0000
vt -0.0098 0.0146
vt -0.0146 0.0088
vt -0.0186 0.0098
vt -0.0029 0.0088
vt -0.0107 0.0010
vt -0.0078 0.0029
vt -0.0176 -0.0068
vt -0.0234 0.0000
vt -0.0186 -0.0039
vt -0.0146 0.0000
vt -0.0186 -0.0039
vt -0.0234 0.0000
vt -0.0195 0.0049
vt -0.0146 0.0000
vt -0.0195 0.0049
vt 0.0000 0.2812
vt -6.5000 0.0000
vt -6.2500 0.0000
vt -6.5000 0.0000
vt -4.0000 0.0000
vt 4.5117 -27.9658
f 1/1 2/2 3/3
f 4/4 5/5 6/6
f 7/7 8/8 9/9
f 10/10 11/11 12/12
f 13/13 14/14 15/15
f 16/16 17/17 18/18
f 19/19 20/20 21/21
