mtllib assets10_model_059.mtl
# Conker's Bad Fur Day — Real 3D Model (Spooky Models)
o assets10_model_059
usemtl assets10_model_059_mat

v 0.0000 0.4800 0.0000
v 0.0000 0.8800 0.0000
v 0.0000 1.9200 0.0000
v 32.5000 -34.0000 -22.8000
v 30.6000 -33.5000 -36.6000
v -34.2400 -20.1800 38.1900
v -1.4500 -35.4300 -24.5100
v 33.5000 -34.7800 -18.7100
v 22.3400 -30.6300 13.6800
v -17.5200 -20.8800 14.1300
v -11.0400 -14.7400 19.1700
v -39.0500 20.0800 2.1000
vt 0.0000 0.0703
vt 0.0000 0.1719
vt 0.0000 0.2031
vt 3.1738 -3.3203
vt -3.3438 -1.9707
vt -0.0078 -3.4795
vt 0.6875 -3.4648
vt 4.0264 -3.3232
vt 0.7832 -2.9570
vt -2.4561 -2.0049
vt -1.0781 -1.4395
vt -3.8135 1.9609
f 1/1 2/2 3/3
f 4/4 5/5 6/6
f 7/7 8/8 9/9
f 10/10 11/11 12/12
