mtllib assets09_model_077.mtl
# Conker's Bad Fur Day — Real 3D Model (Multiplayer Level Models)
o assets09_model_077
usemtl assets09_model_077_mat

v 0.0000 17.0400 0.0000
v 1.5600 2.0200 -0.0100
v 4.9600 5.0500 -0.0100
v 1.6000 4.9700 -0.0100
v 1.6000 4.9700 -2.5800
v 4.9600 5.0500 -2.5800
v 1.6000 4.9700 -2.5800
v 1.5600 2.0200 -2.5800
v 1.5400 5.0400 -2.5800
v 1.4100 1.7100 -2.5800
v 4.8100 1.7100 -2.5800
v 4.9400 5.0500 -2.5800
v 0.7600 1.1300 -2.5800
v 4.8600 4.9600 -2.5800
v 0.7500 4.9600 -2.5800
v 4.8700 1.1300 -2.5800
v 4.8700 1.1300 -2.5800
v 0.7600 1.1300 -2.5800
v 4.8600 4.9600 -2.5800
v 0.7500 4.9600 -2.5800
v -1.3000 0.3900 -2.5800
v 6.5100 0.3200 -2.5800
v 2.5000 7.8500 -2.5800
v 7.2600 6.1800 -2.5800
v 0.0400 6.4400 -2.5800
v 0.4300 4.0700 -2.5800
v 7.4900 4.8000 -2.5800
v 8.4500 7.6600 -2.5800
v -0.0600 1.9000 -2.5800
v 8.3900 4.6600 -2.5800
v 0.0600 8.2700 -2.5800
v 0.0600 8.2700 -2.5800
v 8.4500 7.6600 -2.5800
v -0.0600 1.9000 -2.5800
v 6.3500 7.3400 -2.5800
v 2.4700 8.4600 -2.5800
v 2.9200 3.1500 -2.5800
v 20.1300 8.4100 -2.5800
v 10.4800 4.1500 -2.5800
v 10.5600 8.3500 -2.5800
v 17.9100 4.2100 -2.5800
v 20.0800 5.8700 -2.5800
v 9.0100 6.4200 -2.5800
v 9.3000 4.6800 -2.5800
v 20.1000 6.6000 -2.5800
v 20.3300 5.2400 -2.5800
v 4.1500 4.3600 -2.5800
v 3.1000 6.4000 -2.5800
v 1.3400 5.9300 -2.5800
v 2.4000 3.8900 -2.5800
v 17.9100 4.2100 -2.5800
v 20.0800 5.8700 -2.5800
v 6.1100 4.0100 -2.5800
v 5.5000 6.1700 -2.5800
v 1.1500 2.8000 -2.5800
v 1.1500 2.8000 -2.5800
v 5.5000 6.1700 -2.5800
v 0.5300 4.9500 -2.5800
v 20.1300 8.4100 -2.5800
v 10.4800 4.1500 -2.5800
v 17.9100 4.2100 -2.5800
v 20.0800 5.8700 -2.5800
v 10.5600 8.3500 -2.5800
v 8.3900 4.6600 -2.5800
v 10.4800 4.1500 -2.5800
v 8.4500 7.6600 -2.5800
v 10.5600 8.3500 -2.5800
v 9.0100 6.4200 -2.5800
v 7.2600 6.1800 -2.5800
v 9.3000 4.6800 -2.5800
v 7.4900 4.8000 -2.5800
v 8.4500 7.6600 -2.5800
v 10.2400 0.0000 0.0000
v 10.2400 9.6200 0.0000
v 0.0000 9.6200 0.0000
v 0.5800 0.6400 -2.5800
v 2.7900 1.0800 -2.5800
v 2.8400 3.0300 -2.5800
v 2.7900 1.0800 -2.5800
v 4.3500 0.6200 -2.5800
v 2.8400 3.0300 -2.5800
v 4.6800 0.8200 -2.5800
v 0.3900 0.8600 -2.5800
v 3.8200 4.8700 -2.5800
v 4.6500 0.8400 -2.5800
v 3.8700 0.9900 -2.5800
v 3.9000 0.9700 -2.5800
v 2.1900 5.1500 -2.5800
v 0.5600 1.0200 -2.5800
v 0.0000 5.1200 -2.5800
v 5.1200 5.1200 -2.5800
v 0.0000 0.0000 -2.5800
v 0.0000 5.1200 -2.5800
v 0.0000 0.0000 -2.5800
v 5.1200 5.1200 -2.5800
v 5.1200 0.0000 -2.5800
v 5.1200 0.0000 -2.5800
v 2.7300 0.2700 -2.5800
v 3.8800 0.2600 -2.5800
v 3.8700 10.7500 -2.5800
v 2.7200 10.7500 -2.5800
v 1.4900 10.7500 -2.5800
v 2.6400 10.7500 -2.5800
v 2.6500 0.2600 -2.5800
v 1.5000 0.2600 -2.5800
v -28.0000 0.0000 17.9200
v -33.2800 0.0000 17.9900
v -28.1600 2.5600 15.3600
v -7.5200 0.0000 0.6400
v -7.5200 0.0000 0.0000
v -33.2800 0.0000 17.9900
v -28.0800 10.2400 0.0900
v -7.5200 0.0000 0.6400
v 2.5800 0.6400 2.5600
v -27.9200 0.0000 17.9200
v -33.2800 0.0000 18.5500
v -7.5200 0.0000 0.0000
v -7.5200 0.0000 0.6400
v 12.8000 25.6800 0.0000
v 15.5000 20.6000 0.1000
v -7.5200 0.0000 0.0000
v -33.2800 0.0000 17.9900
v -7.5200 0.0000 0.0000
v -33.2800 0.0000 18.2300
v -28.0800 10.2400 0.0100
vt 0.0000 0.0000
vt 0.0059 -0.1250
vt 0.0078 -0.1270
vt 0.0078 -0.1270
vt 0.0059 -0.1250
vt 0.0039 -0.1270
vt 0.0059 -0.1182
vt 0.0020 -0.1289
vt 0.0020 -0.0732
vt 0.0098 -0.0732
vt 0.0098 -0.1289
vt 0.0098 -0.0732
vt 0.0059 -0.1279
vt 0.0098 -0.1289
vt 0.0059 -0.0723
vt 0.0059 -0.0723
vt 0.0020 -0.0732
vt 0.0059 -0.1279
vt 0.0020 -0.1289
vt 0.0020 -0.1289
vt 0.0098 -0.1289
vt 0.0059 -0.1279
vt 0.0137 -0.0010
vt 0.0176 0.0557
vt -0.0049 0.0557
vt -0.0010 -0.0010
vt -0.0010 -0.0010
vt 0.0059 0.0498
vt 0.0059 -0.0039
vt -0.0049 0.0557
vt 0.0176 0.0557
vt 0.0137 -0.0010
vt 0.0059 0.0498
vt -0.0049 0.0557
vt 0.0176 0.0557
vt 0.0059 0.0498
vt 0.0137 -0.0723
vt 0.0156 -0.0156
vt 0.0156 -0.0117
vt 0.0137 -0.0449
vt 0.0137 -0.0742
vt 0.0156 -0.0117
vt -0.0029 -0.0117
vt 0.0137 -0.0723
vt -0.0010 -0.0723
vt 0.0137 -0.0742
vt 0.0137 -0.0723
vt -0.0010 -0.0723
vt -0.0010 -0.0742
vt -0.0020 -0.0449
vt -0.0010 -0.0742
vt 0.0137 -0.0449
vt -0.0020 -0.0449
vt 0.0156 -0.0156
vt 0.0156 -0.0156
vt -0.0020 -0.0449
vt -0.0029 -0.0156
vt -0.0010 -0.0723
vt -0.0029 -0.0156
vt -0.0020 -0.0449
vt -0.0010 -0.0742
vt -0.0029 -0.0117
vt 0.0059 -0.0039
vt 0.0156 -0.0156
vt 0.0137 -0.0010
vt 0.0156 -0.0117
vt 0.0156 -0.0117
vt 0.0137 -0.0010
vt -0.0029 -0.0117
vt -0.0010 -0.0010
vt -0.0010 -0.0010
vt 0.0059 -0.0371
vt 0.0059 -0.0352
vt 0.0059 -0.0176
vt 0.0010 -0.0195
vt 0.0000 -0.0127
vt -0.0117 -0.0156
vt 0.0000 -0.0127
vt -0.0010 -0.0205
vt -0.0117 -0.0156
vt 0.0029 -0.0381
vt 0.0059 -0.0430
vt 0.0059 -0.0371
vt 0.0088 -0.0381
vt 0.0088 -0.0205
vt 0.0029 -0.0205
vt 0.0059 -0.0195
vt 0.0059 -0.0254
vt 0.0059 -0.0068
vt 0.0117 -0.0078
vt 0.0000 -0.0078
vt 0.0059 -0.0479
vt 0.0000 -0.0488
vt 0.0117 -0.0488
vt 0.0059 -0.0498
vt 0.0059 -0.0088
vt 0.0000 -0.0488
vt 0.0059 -0.0479
vt 0.0059 -0.0068
vt 0.0000 -0.0078
vt 0.0059 -0.0088
vt 0.0117 -0.0078
vt 0.0117 -0.0488
vt 0.0059 -0.0498
vt 0.0000 1.6719
vt -6.5000 0.0000
vt -6.2500 0.0000
vt -6.5000 0.0000
vt -4.0000 0.0000
vt -6.5000 0.0000
vt -6.2500 0.0000
vt 1.2871 10.0410
vt -4.0000 0.0000
vt 4.6406 -27.8379
vt -6.5000 0.0000
vt -6.2500 0.0000
vt -2.7344 0.0000
vt -4.0000 0.0000
vt -8.9453 0.0137
vt -6.2500 0.0000
vt -6.5000 0.0000
vt -6.2500 0.0000
vt -6.5000 0.0000
vt -6.2500 0.0000
vt -3.5000 8.0020
f 18/18 17/17 19/19
f 20/20 21/21 22/22
f 30/30 31/31 32/32
f 15/15 14/14 16/16
f 5/5 8/8 17/17
f 5/5 17/17 9/9
f 18/18 19/19 20/20
f 20/20 19/19 21/21
f 1/1 2/2 3/3
f 4/4 5/5 6/6
f 1/1 6/6 5/5
f 8/8 5/5 7/7
f 6/6 8/8 7/7
