mtllib assets0E_model_024.mtl
# Conker's Bad Fur Day — Real 3D Model (Sloprano Models)
o assets0E_model_024
usemtl assets0E_model_024_mat

v 0.3200 2.5800 30.7200
v 20.4800 0.0000 0.0000
v 20.4800 0.0000 0.0000
v 20.4800 0.0000 0.0000
v 20.4800 0.0000 0.0000
v 20.4800 0.0000 0.0000
v 20.4800 0.0000 0.0000
v 20.4800 0.0000 0.0000
v 20.4800 0.0000 0.0000
v 0.3200 2.5800 38.4000
v 20.4800 0.0000 0.0000
v 20.4800 0.0000 0.0000
v 20.4800 0.0000 0.0000
v 20.4800 0.0000 0.0000
v 20.4800 0.0000 0.0000
v 20.4800 0.0000 0.0000
v 20.4800 0.0000 0.0000
v 20.4800 0.0000 0.0000
v 20.4800 0.0000 0.0000
v 20.4800 0.0000 0.0000
v 20.4800 0.0000 0.0000
v 20.4800 0.0000 0.0000
vt -0.2842 2.2432
vt 0.0000 0.0654
vt 0.0000 0.0654
vt 0.0000 0.0654
vt 0.0000 0.0654
vt 0.0000 0.0654
vt 0.0000 0.0654
vt 0.0000 0.0654
vt 0.0000 0.0654
vt -0.3594 1.6191
vt 0.0000 0.0654
vt 0.0000 0.0654
vt 0.0000 0.0654
vt 0.0000 0.0654
vt 0.0000 0.0654
vt 0.0000 0.0654
vt 0.0000 0.0654
vt 0.0000 0.0654
vt 0.0000 0.0654
vt 0.0000 0.0654
vt 0.0000 0.0654
vt 0.0000 0.0654
f 1/1 1/1 1/1
