# Conker's Bad Fur Day — Real 3D Model (HUD & UI Props)
o assets01_model_041

v 6.8000 4.2500 -2.6800
v 5.7900 1.2900 -2.6800
v 8.0300 4.1400 -2.6800
v 6.6600 1.2200 -2.6800
v 3.1000 4.5600 -2.6800
v 3.1800 1.5100 -2.6800
v 7.4100 7.2300 -2.6800
v 9.9000 7.0200 -2.6800
v 8.2800 7.1600 -2.6800
v 4.7900 7.4600 -2.6800
v 2.3400 4.6200 -2.6800
v 4.2500 7.5000 -2.6800
v 7.2600 8.5100 -2.6800
v 4.9300 5.9000 -2.6800
v 0.9900 7.2600 -2.6800
v 3.8700 2.2200 -2.6800
v 9.6300 4.2800 -2.6800
v 7.1900 1.0700 -2.6800
v 3.2500 6.4800 -2.6800
v 8.9000 8.5700 -2.6800
v 5.1300 9.8800 -2.6800
v 3.5200 10.4300 -2.6800
v 6.3100 9.4700 -2.6800
v 9.6300 8.3200 -2.6800
v 7.2000 10.8400 -2.6800
v 0.0000 0.0000 1.3400
v 10.7800 -0.5600 -0.0100
v 0.0000 0.0000 1.3400
v 0.0000 0.0000 36.7000
v 5.8700 6.2100 -0.0100
v 4.4700 4.2100 -0.0100
v 0.0000 0.0000 36.7000
v 0.0000 0.0000 1.3400
v 0.0900 4.7100 -0.0100
v 0.0000 0.0000 1.3400
v 9.8500 0.6700 -0.0100
v 0.0000 0.0000 36.7000
v 0.0000 0.0000 1.3400
v 4.0900 4.3700 -0.0100
v 5.5600 6.6800 -0.0100
v 0.0000 0.0000 1.3400
v 0.0000 0.0000 36.7000
v -0.6500 4.5600 -0.0100
v 0.0000 0.0000 34.1000
v 0.0000 0.0000 34.1000
v 0.0000 0.0000 36.7000
v 0.0000 0.0000 34.1000
v 0.0000 0.0000 1.3400
v 0.0000 0.0000 39.3700
v 0.0000 0.0000 36.7200
v 0.0000 0.0000 1.3400
v 0.0000 0.0000 39.3700
v 5.3000 2.6600 -0.0100
v 5.5500 2.6300 -0.0100
v 9.1000 1.1700 -0.0100
v 1.1500 1.3300 -0.0100
v 5.1400 -1.7100 -0.0100
v 9.3700 1.9000 -0.0100
v 5.3200 -1.2400 -0.0100
v 11.1300 9.5300 -0.0100
v 11.4900 10.5800 -0.0100
v 10.3000 19.5700 -0.0100
v 0.7900 7.5400 -0.0100
v 1.0800 2.6200 -0.0100
v 4.9200 10.2400 -0.0100
v 5.5000 0.4100 -0.0100
v 9.3400 8.0300 -0.0100
v 9.6300 3.1200 -0.0100
v 9.7700 10.7500 -0.0100
v -0.4700 10.2900 -0.0100
v 9.7000 2.8700 -0.0100
v 2.9500 2.5700 -0.0100
v 10.1300 10.4200 -0.0100
v -0.3900 12.0000 -0.0100
v 10.0900 2.3400 -0.0100
v 3.1400 3.3900 -0.0100
v -0.4700 10.2900 -0.0100
v 9.7700 10.7500 -0.0100
v 0.9900 19.7600 -0.0100
v 9.8600 20.1500 -0.0100
v 1.0700 21.4300 -0.0100
v 10.1900 20.0500 -0.0100
v 10.1800 10.8100 -0.0100
v 0.1200 10.8000 -0.0100
v 6.7600 2.9400 -0.0100
v 0.1300 2.9400 -0.0100
v 9.7900 10.8200 -0.0100
v 0.0600 10.4100 -0.0100
v 6.4900 2.5200 -0.0100
v 0.0700 2.2500 -0.0100
v 0.1100 20.1800 -0.0100
v 8.8300 20.1900 -0.0100
v 0.0400 20.1500 -0.0100
v 8.4700 20.5000 -0.0100
v 5.1800 12.8100 -0.0100
v -1.1500 17.9400 -0.0100
v 6.7000 22.0400 -0.0100
v 5.1500 12.8300 -0.0100
v -1.6200 3.2400 -0.0100
v 4.9500 3.9800 -0.0100
v 5.1600 4.4600 -0.0100
v 5.8200 9.1700 -0.0100
v 5.3300 -0.3800 -0.0100
v 5.3400 -0.6300 -0.0100
v 5.9800 8.8500 -0.0100
v 5.7900 16.9300 -0.0100
v -1.9300 3.8400 -0.0100
v -1.8700 6.7600 -0.0100
v -1.9500 9.8400 -0.0100
v 3.3900 -0.0600 -0.0100
v 9.2800 5.6300 -0.0100
v 4.2400 7.5800 -0.0100
v 4.2700 7.5700 -0.0100
v 9.1300 17.1600 -0.0100
v 4.1100 14.4900 -0.0100
v 3.9600 14.0500 -0.0100
v 5.4200 0.6200 -0.0100
v 6.0300 11.5100 -0.0100
v 5.4300 0.3300 -0.0100
v 6.2500 11.1100 -0.0100
v 5.9600 20.4300 -0.0100
v -4.3100 6.7300 -0.0100
v -4.2300 10.0800 -0.0100
v -4.3600 13.6300 -0.0100
v 5.2900 -0.8700 -0.0100
v 9.0200 7.8700 -0.0100
v 5.2500 7.9000 -0.0100
v 8.1400 17.2200 -0.0100
v 5.1900 20.3600 -0.0100
v 1.4800 7.4500 -0.0100
v 2.2800 16.8900 -0.0100
v 5.6600 -1.2600 -0.0100
v 9.5200 7.5500 -0.0100
v 5.6500 8.2000 -0.0100
v 8.6500 17.7500 -0.0100
v 5.6400 21.6200 -0.0100
v 1.7700 8.3300 -0.0100
v 2.6300 18.3600 -0.0100
v 6.1000 15.9700 -2.6800
v 6.0100 4.8600 -2.6800
v -0.9600 13.5100 -2.6800
v 5.9400 5.8300 -2.6800
v 5.9900 -0.6500 -2.6800
v -1.5800 5.4700 -2.6800
v 5.9000 -0.1200 -2.6800
v 5.9400 5.7500 -2.6800
v -1.3000 2.8200 -2.6800
v -1.0400 6.3500 -2.6800
v 6.0100 4.8600 -2.6800
v 6.0900 15.9700 -2.6800
v -0.9600 13.5100 -2.6800
v 6.0100 15.7800 -2.6800
v 6.1300 21.7100 -2.6800
v 0.8300 20.1100 -2.6800
v 6.1600 21.6500 -2.6800
v 6.0200 15.7900 -2.6800
v -0.6000 20.0100 -2.6800
v -0.7900 14.0900 -2.6800
v -3.5600 10.2700 -2.6800
v -1.8800 12.9000 -2.6800
v 3.3100 19.2100 -2.6800
v 1.1700 11.9400 -2.6800
v 5.6100 14.8700 -2.6800
v -2.3100 13.7000 -2.6800
v 1.2000 9.6000 -2.6800
v 2.3700 11.8100 -2.6800
v 1.8900 18.1600 -2.6800
v -0.4200 12.7800 -2.6800
v 4.5700 9.0000 -2.6800
v 1.4800 17.2000 -2.6800
v 1.8600 9.8300 -2.6800
v 0.7400 11.7900 -0.0100
v 5.1800 17.4500 -2.6800
v 4.0000 10.9500 -2.6800
v 5.0200 19.5300 -2.6800
v 2.1700 11.9800 -2.6800
v 2.4500 15.0800 -2.6800
v 2.6900 19.4400 -2.6800
v -0.8500 14.9700 -2.6800
v -2.6900 13.4900 -2.6800
v 3.0900 19.3100 -2.6800
v 3.7800 12.5300 -2.6800
v 1.9300 18.0900 -2.6800
v -2.0700 13.5400 -2.6800
v 3.3700 12.7700 -2.6800
v -3.4700 15.3600 -2.6800
v 4.5600 21.1800 -2.6800
v 0.2900 10.5000 -2.6800
v 1.6800 12.2000 -2.6800
v 3.5700 20.1900 -2.6800
v -5.2800 16.7800 -2.6800
v 1.8200 17.8600 -2.6800
v -2.2800 11.2000 -2.6800
v 2.2000 8.9200 -2.6800
v 3.7200 12.0300 -2.6800
v 3.4200 19.0800 -2.6800
v -6.9400 12.2600 -2.6800
v 4.2100 10.2700 -2.6800
v 4.6900 18.3800 -2.6800
v 2.4300 10.3600 -2.6800
v 0.0000 10.8000 0.3200
v 0.3200 0.3200 0.0000
v 0.0000 8.0000 0.0000
v 0.0000 14.1300 0.3200
v 0.3200 0.3200 0.0000
v 0.0000 14.1500 0.0000
v 0.0000 14.1400 0.3200
v 0.3200 0.3200 0.0000
v -28.0000 0.0000 17.9200
v -33.2800 0.0000 18.2300
v -28.1600 2.5600 15.3600
v -7.5200 0.0000 17.9200
v -7.5200 0.0000 15.3600
v -7.6900 -3.6900 -27.9300
v -7.5200 0.0000 0.0000
v -33.2800 0.0000 18.2300
v 15.3800 25.7200 0.2000
v 15.5000 20.6600 0.1400
v -7.5200 0.0000 0.6400
v 13.0000 30.8200 0.0000
v -7.6900 -3.6900 -27.9300
v -7.5200 0.0000 0.6400
v -7.5200 0.0000 0.6400
v -7.5200 0.0000 0.0000
v -33.2800 0.0000 18.5500
v -28.0800 20.4800 0.0900
v 2.5800 0.6400 2.5600
v -7.5200 0.0000 0.6400
v -7.5200 0.0000 0.6400
v 15.3800 0.1600 0.0000
v -7.5200 0.0000 0.0000
v -33.2800 0.0000 18.5500
v -7.5200 0.0000 0.6400
v -7.6900 -3.6900 -27.9300
v -7.5200 0.0000 0.0000
v -33.2800 0.0000 18.5500
v -7.5200 0.0000 0.6400
v 2.5700 0.3600 2.5600
v -7.5200 0.0000 0.0000
v -33.2800 0.0000 18.5500
v 2.5800 0.6400 2.5600
v -7.5200 0.0000 0.6400
v -7.5200 0.0000 0.6400
v 12.8800 15.4800 0.0000
v 0.5600 -30.3600 -29.1400
v 0.5600 32.3000 31.0800
v 1.7100 2.3100 0.0000
vt -0.0127 -0.0127
vt -0.0078 0.0010
vt -0.0049 -0.0127
vt 0.0146 0.0010
vt 0.0098 -0.0127
vt -0.0010 0.0137
vt -0.0127 0.0137
vt -0.0049 0.0137
vt 0.0098 0.0137
vt 0.0176 0.0010
vt 0.0127 0.0137
vt 0.0010 -0.0186
vt -0.0029 0.0010
vt -0.0195 0.0010
vt -0.0020 -0.0137
vt 0.0176 0.0010
vt 0.0127 -0.0137
vt 0.0137 0.0010
vt 0.0098 0.0146
vt -0.0068 0.0146
vt -0.0146 0.0146
vt -0.0020 0.0146
vt 0.0127 0.0146
vt 0.0000 -0.0195
vt 0.0322 -0.0400
vt 0.0322 -0.0400
vt 0.0293 -0.0176
vt 0.0254 -0.0234
vt 0.0342 -0.0098
vt 0.0254 -0.0234
vt 0.0293 0.0566
vt 0.0312 0.0791
vt 0.0303 0.0977
vt 0.0303 0.0977
vt -0.0322 -0.0400
vt -0.0254 -0.0234
vt -0.0293 -0.0176
vt -0.0342 -0.0098
vt -0.0342 -0.0098
vt -0.0312 0.0791
vt -0.0293 0.0566
vt -0.0303 0.0977
vt 0.0000 0.0205
vt 0.0146 0.0352
vt 0.0000 0.0273
vt -0.0146 0.0352
vt 0.0361 0.0557
vt 0.0352 0.1035
vt 0.0000 0.0938
vt -0.0361 0.0557
vt -0.0352 0.1035
vt 0.0361 0.0557
vt 0.0000 0.0605
vt -0.0342 0.0752
vt 0.0273 -0.0684
vt 0.0000 -0.0850
vt 0.0273 -0.0684
vt -0.0273 -0.0684
vt -0.0420 -0.0186
vt 0.0420 -0.0186
vt -0.0420 -0.0186
vt -0.0361 0.0400
vt -0.0361 0.0400
vt -0.0361 0.0400
vt 0.0361 0.0400
vt 0.0361 0.0400
vt 0.0723 0.0400
vt -0.0547 -0.0684
vt -0.0420 -0.0186
vt -0.0547 -0.0684
vt -0.0273 -0.0684
vt 0.0840 -0.0186
vt 0.0420 -0.0186
vt 0.0557 -0.0684
vt 0.0273 -0.0684
vt -0.0420 -0.0186
vt -0.0840 -0.0186
vt -0.0361 0.0400
vt -0.0723 0.0400
vt 0.0361 0.0400
vt 0.0723 0.0400
vt -0.0420 -0.0186
vt -0.0840 -0.0186
vt -0.0273 -0.0684
vt -0.0547 -0.0684
vt 0.0420 -0.0186
vt 0.0840 -0.0186
vt 0.0273 -0.0684
vt 0.0557 -0.0684
vt -0.0723 0.0400
vt -0.0361 0.0400
vt 0.0723 0.0400
vt 0.0361 0.0400
vt 0.0127 -0.0078
vt 0.0244 0.0088
vt 0.0264 -0.0225
vt 0.0127 -0.0078
vt 0.0303 -0.0332
vt 0.0352 -0.0049
vt 0.0361 -0.0059
vt 0.0352 -0.0049
vt 0.0303 -0.0332
vt 0.0303 -0.0332
vt 0.0361 -0.0059
vt 0.0381 0.0186
vt -0.0010 0.0000
vt 0.0400 0.0000
vt 0.0410 0.0088
vt -0.0264 -0.0225
vt -0.0244 0.0088
vt -0.0127 -0.0078
vt -0.0127 -0.0078
vt -0.0303 -0.0332
vt -0.0352 -0.0049
vt -0.0361 -0.0059
vt -0.0303 -0.0332
vt -0.0352 -0.0049
vt -0.0303 -0.0332
vt -0.0361 -0.0059
vt -0.0381 0.0186
vt 0.0010 0.0059
vt -0.0400 0.0000
vt -0.0410 0.0088
vt 0.0000 -0.0049
vt 0.0000 -0.0049
vt 0.0000 -0.0068
vt 0.0176 -0.0078
vt 0.0000 -0.0117
vt -0.0312 -0.0264
vt -0.0176 -0.0078
vt -0.0312 -0.0264
vt 0.0000 -0.0049
vt 0.0000 -0.0068
vt 0.0176 -0.0078
vt 0.0000 -0.0117
vt -0.0312 -0.0264
vt -0.0176 -0.0078
vt -0.0312 -0.0264
vt -0.0361 -0.0146
vt 0.0205 0.0156
vt -0.0205 0.0156
vt -0.0723 -0.0146
vt -0.0205 0.0156
vt -0.0420 0.0156
vt -0.0361 -0.0146
vt -0.0420 0.0156
vt -0.0205 0.0156
vt -0.0361 -0.0146
vt 0.0361 -0.0146
vt -0.0205 0.0156
vt 0.0361 -0.0146
vt 0.0723 -0.0146
vt 0.0205 0.0156
vt 0.0723 -0.0146
vt 0.0361 -0.0146
vt 0.0420 0.0156
vt 0.0205 0.0156
vt 0.0000 0.0273
vt -0.0420 0.0156
vt -0.0020 0.0771
vt -0.0059 0.0195
vt -0.0039 -0.0049
vt -0.0020 0.0078
vt 0.0088 -0.0010
vt -0.0029 -0.0029
vt -0.0059 0.0371
vt -0.0020 0.0059
vt 0.0068 -0.0010
vt -0.0332 -0.0234
vt -0.0020 0.0078
vt 0.0000 -0.0068
vt -0.0020 0.0068
vt 0.0049 0.0000
vt 0.0381 -0.0215
vt 0.0010 0.0068
vt 0.0010 0.0000
vt -0.0283 0.0410
vt -0.0020 -0.0010
vt 0.0000 -0.0039
vt -0.0361 0.0098
vt 0.0020 0.0059
vt 0.0000 -0.0078
vt 0.0059 0.0039
vt -0.0078 0.0020
vt 0.0049 -0.0049
vt 0.0283 0.0400
vt 0.0029 0.0039
vt -0.0039 0.0029
vt -0.0049 -0.0127
vt 0.0049 0.0029
vt -0.0049 0.0029
vt -0.0029 0.0059
vt 0.0049 0.0010
vt -0.0049 0.0000
vt -0.0010 -0.0400
vt 0.0068 0.0000
vt 0.0020 -0.0039
vt 0.0361 -0.0059
vt 0.0049 0.0039
vt 0.0010 0.0029
vt 0.0000 0.7822
vt 0.0000 0.7803
vt 0.0312 0.0625
vt 0.0000 1.3760
vt 0.0000 1.3770
vt 0.0312 0.0156
vt 0.0000 1.3789
vt 0.0000 1.3779
vt -6.5000 0.0000
vt -6.2500 0.0000
vt -6.5000 0.0000
vt -4.0000 0.0000
vt -4.0000 0.0000
vt -9.4453 0.0029
vt -6.5000 0.0000
vt -6.2500 0.0000
vt 1.2617 2.5215
vt -6.2500 0.0000
vt -4.0000 0.0000
vt -6.2500 0.0000
vt -9.4453 0.0029
vt -4.0000 0.0000
vt -4.0000 0.0000
vt -6.5000 0.0000
vt -6.2500 0.0000
vt -3.5000 8.0020
vt 4.1250 -25.7812
vt -4.0000 0.0000
vt -4.0000 0.0000
vt -6.2500 0.0000
vt -6.5000 0.0000
vt -6.2500 0.0000
vt -4.0000 0.0000
vt -9.4453 0.0029
vt -6.5000 0.0000
vt -6.2500 0.0000
vt -4.0000 0.0000
vt 4.5078 -27.8408
vt -6.5000 0.0000
vt -6.2500 0.0000
vt 4.6523 -27.8379
vt -4.0000 0.0000
vt -4.0000 0.0000
vt -9.4453 0.0029
vt 0.0547 9.3662
vt 0.0547 -9.1338
vt 0.0000 0.0000
f 1/1 1/1 82/82
f 50/50 1/1 74/74
f 21/21 1/1 44/44
f 31/31 1/1 47/47
f 11/11 12/12 16/16
f 12/12 14/14 16/16
f 10/10 5/5 9/9
f 5/5 3/3 9/9
f 2/2 6/6 7/7
f 11/11 7/7 12/12
f 7/7 6/6 12/12
f 8/8 5/5 10/10
f 8/8 4/4 5/5
f 6/6 7/7 2/2
f 11/11 6/6 12/12
f 11/11 7/7 6/6
f 9/9 21/21 6/6
f 11/11 27/27 28/28
f 17/17 18/18 19/19
f 17/17 20/20 18/18
f 10/10 9/9 13/13
f 9/9 14/14 13/13
f 29/29 30/30 31/31
f 32/32 31/31 30/30
f 2/2 1/1 9/9
f 1/1 10/10 9/9
f 19/19 20/20 15/15
f 20/20 16/16 15/15
f 10/10 21/21 23/23
f 13/13 14/14 23/23
f 23/23 14/14 10/10
f 17/17 20/20 19/19
f 17/17 16/16 20/20
f 23/23 21/21 11/11
f 23/23 14/14 13/13
f 11/11 14/14 23/23
f 16/16 27/27 25/25
f 27/27 3/3 25/25
f 28/28 29/29 30/30
f 29/29 31/31 30/30
f 30/30 31/31 32/32
f 1/1 2/2 3/3
f 4/4 5/5 6/6
f 5/5 7/7 6/6
f 5/5 4/4 7/7
f 17/17 18/18 19/19
f 18/18 20/20 19/19
f 18/18 17/17 20/20
