mtllib assets09_model_134.mtl
# Conker's Bad Fur Day — Real 3D Model (Multiplayer Level Models)
o assets09_model_134
usemtl assets09_model_134_mat

v 0.0000 31.7600 0.0000
v 20.2800 9.9900 -0.0100
v 20.2800 9.9900 -0.0100
v 19.7500 8.2500 -0.0100
v 19.7500 8.2500 -0.0100
v 16.8600 8.4600 -0.0100
v 16.6900 8.2600 -0.0100
v 15.0000 7.2600 -0.0100
v 14.8700 7.1000 -0.0100
v 14.8700 7.1000 -0.0100
v 15.0000 7.2600 -0.0100
v 7.6200 7.5200 -0.0100
v 7.6200 7.5200 -0.0100
v 7.8600 10.2100 -0.0100
v 7.8600 10.2100 -0.0100
v 13.7000 5.4100 -0.0100
v 13.7000 5.4100 -0.0100
v 9.0300 5.4100 -0.0100
v 9.0300 5.4100 -0.0100
v 9.0700 5.4700 -0.0100
v 13.8100 5.5100 -0.0100
v 13.6700 10.2400 -0.0100
v 7.5200 10.1600 -0.0100
v 13.8100 5.5100 -0.0100
v 9.0700 5.4700 -0.0100
v 7.5200 10.1600 -0.0100
v 13.6700 10.2400 -0.0100
v 9.0300 5.4100 -0.0100
v 7.4800 10.0300 -0.0100
v 7.5900 6.9600 -0.0100
v 7.4800 10.0300 -0.0100
v 9.0300 5.4100 -0.0100
v 7.5900 6.9600 -0.0100
v 16.6900 8.2600 -0.0100
v 16.6900 8.2600 -0.0100
v 16.8600 8.4600 -0.0100
v 16.8600 8.4600 -0.0100
v 19.9700 8.4900 -0.0100
v 20.5100 10.2700 -0.0100
v 19.7500 8.2500 -0.0100
v 19.7500 8.2500 -0.0100
v 20.5100 10.2700 -0.0100
v 19.9700 8.4900 -0.0100
v 14.1200 6.6600 -0.0100
v 14.7200 9.5500 -0.0100
v 14.8700 7.1000 -0.0100
v 15.0000 7.2600 -0.0100
v 13.6700 10.2400 -0.0100
v 13.6700 10.2400 -0.0100
v 2.0800 10.9800 -0.0100
v 7.6700 11.1200 -0.0100
v 7.9200 14.2900 -0.0100
v 1.9600 14.1300 -0.0100
v 9.2000 9.6800 -0.0100
v 8.5100 6.3700 -0.0100
v 11.1500 6.4100 -0.0100
v 11.8400 9.7100 -0.0100
v 13.5900 4.0700 -0.0100
v 9.1600 4.0300 -0.0100
v 9.1600 4.0300 -0.0100
v 13.5900 4.0700 -0.0100
v 13.1300 5.8100 -0.0100
v 15.6500 2.8000 -0.0100
v 8.4300 2.7300 -0.0100
v 8.4300 2.7300 -0.0100
v 15.6500 2.8000 -0.0100
v 8.4300 2.7300 -0.0100
v 14.8700 7.9600 -0.0100
v 14.5200 12.6000 -0.0100
v 8.0700 12.0800 -0.0100
v 8.4100 7.4400 -0.0100
v 7.4400 1.8900 -0.0100
v 16.6900 1.9800 -0.0100
v 16.6900 1.9800 -0.0100
v 7.4400 1.8900 -0.0100
v 14.1100 8.2500 -0.0100
v 13.8100 12.2000 -0.0100
v 14.8200 12.8600 -0.0100
v 15.2000 7.7600 -0.0100
v 9.3800 11.8400 -0.0100
v 7.7400 12.2900 -0.0100
v 9.6800 7.8900 -0.0100
v 8.1200 7.1900 -0.0100
v 18.8900 2.0000 -0.0100
v 4.1100 1.8600 -0.0100
v 4.8300 0.0100 -0.0100
v 18.3000 0.1300 -0.0100
v 9.1600 4.0300 -0.0100
v 9.5000 5.7800 -0.0100
v 13.5900 4.0700 -0.0100
v 13.1300 5.8100 -0.0100
v 9.1600 4.0300 -0.0100
v 13.1300 5.8100 -0.0100
v 9.5000 5.7800 -0.0100
v 7.1000 8.2100 -0.0100
v 4.6900 8.1500 -0.0100
v 2.5300 8.0900 -0.0100
v 4.7600 8.1500 -0.0100
v 6.8500 11.7100 -0.0100
v 4.8200 11.6600 -0.0100
v 2.5300 8.0900 -0.0100
v 2.9200 11.6100 -0.0100
v 4.8200 11.6600 -0.0100
v 2.5300 8.0900 -0.0100
v 2.9200 11.6100 -0.0100
v 7.7000 5.6400 -0.0100
v 1.8300 5.4800 -0.0100
v 1.8300 5.4800 -0.0100
v 7.7000 5.6400 -0.0100
v 1.8300 5.4800 -0.0100
v 4.1100 1.8600 -0.0100
v 18.8900 2.0000 -0.0100
v 18.3000 0.1300 -0.0100
v 4.8300 0.0100 -0.0100
v 1.1300 3.8000 -0.0100
v 8.3300 3.9900 -0.0100
v 8.3300 3.9900 -0.0100
v 1.1300 3.8000 -0.0100
v 7.1000 8.2100 -0.0100
v 4.8200 11.6600 -0.0100
v 6.8500 11.7100 -0.0100
v 2.5300 8.0900 -0.0100
v 4.7600 8.1500 -0.0100
v 4.8200 11.6600 -0.0100
v 2.5300 8.0900 -0.0100
v 4.6900 8.1500 -0.0100
v 7.1000 8.2100 -0.0100
v 1.8300 5.4800 -0.0100
v 7.7000 5.6400 -0.0100
v 7.7000 5.6400 -0.0100
v 1.8300 5.4800 -0.0100
v 0.0900 3.7700 -0.0100
v 9.3700 4.0200 -0.0100
v 8.8800 0.2700 -0.0100
v 0.4300 0.0500 -0.0100
v 9.3700 4.0200 -0.0100
v 0.0900 3.7700 -0.0100
v 0.4300 0.0500 -0.0100
v 8.8800 0.2700 -0.0100
v 1.0300 8.7500 -0.0100
v 1.2000 8.2100 -0.0100
v 0.8400 9.4400 -0.0100
v 4.5600 9.9300 -0.0100
v 4.4300 9.8300 -0.0100
v 4.4300 9.8300 -0.0100
v 4.3000 8.5500 -0.0100
v 4.4300 9.8300 -0.0100
v 4.3800 7.4600 -0.0100
v 4.4500 6.9200 -0.0100
v 4.3800 7.4600 -0.0100
v 4.3000 8.5500 -0.0100
v 4.4300 9.8300 -0.0100
v 7.0300 10.0500 -0.0100
v 7.0400 10.0500 -0.0100
v 7.0300 10.0500 -0.0100
v 7.0300 10.0500 -0.0100
v 7.9600 8.3700 -0.0100
v 7.9600 8.3700 -0.0100
v 7.0300 10.0500 -0.0100
v 7.4900 10.0300 -0.0100
v 7.4800 10.0300 -0.0100
v 8.4400 7.8400 -0.0100
v 7.4800 10.0300 -0.0100
v 8.4400 7.8400 -0.0100
v 9.5200 5.4300 -0.0100
v 9.5000 4.3500 -0.0100
v 9.5200 5.4300 -0.0100
v 8.4400 7.8400 -0.0100
v 0.7100 9.5600 -0.0100
v 0.8400 9.4400 -0.0100
v 0.8400 9.4400 -0.0100
v 1.0300 8.7500 -0.0100
v 0.8400 9.4400 -0.0100
v 1.2000 8.2100 -0.0100
v 1.3400 7.8500 -0.0100
v 1.2000 8.2100 -0.0100
v 0.2300 8.8800 -0.0100
v 0.2300 9.1200 -0.0100
v 0.1800 8.5800 -0.0100
v 0.1600 8.4000 -0.0100
v 0.1800 8.5800 -0.0100
v 1.0300 8.7500 -0.0100
v 0.2300 8.8800 -0.0100
v 0.2300 9.1200 -0.0100
v 0.2400 9.3200 -0.0100
v -0.0800 8.9300 -0.0100
v -0.0800 8.9300 -0.0100
v 4.4300 9.8300 -0.0100
v 4.5600 9.9300 -0.0100
v 4.4300 9.8300 -0.0100
v 4.4300 9.8300 -0.0100
v 4.3000 8.5500 -0.0100
v 4.3800 7.4600 -0.0100
v 4.4500 6.9200 -0.0100
v 4.3800 7.4600 -0.0100
v -28.0000 0.0000 17.9200
v -33.2800 0.0000 18.5500
v -28.1600 2.5600 15.3600
v -7.5200 0.0000 0.6400
v -7.5200 0.0000 0.0000
v -33.2800 0.0000 18.5500
v -28.0800 20.4800 0.0100
v -7.5200 0.0000 0.0000
v -33.2800 0.0000 18.5500
v 12.8800 25.7200 0.0000
v -7.5200 0.0000 0.0000
v -33.2800 0.0000 18.5500
v -28.0800 20.4800 0.0100
v -7.5200 0.0000 0.6400
v 2.1600 2.1600 2.1600
v 1.4100 1.4100 2.1200
v 2.1500 2.1500 2.1500
v 0.4500 0.4200 0.4500
vt 0.0000 3.1055
vt 0.0283 0.0098
vt 0.0254 -0.0068
vt -0.0254 -0.0068
vt 0.0254 -0.0068
vt -0.0254 -0.0068
vt 0.0244 -0.0107
vt -0.0244 -0.0107
vt 0.0244 -0.0107
vt -0.0244 -0.0107
vt -0.0273 0.0322
vt 0.0273 0.0322
vt 0.0322 0.0605
vt -0.0322 0.0605
vt -0.0254 0.0176
vt 0.0254 0.0176
vt 0.0254 0.0176
vt -0.0254 0.0176
vt 0.0254 0.0176
vt 0.0254 0.0176
vt 0.0322 0.0605
vt 0.0322 0.0605
vt -0.0254 0.0176
vt -0.0254 0.0176
vt -0.0322 0.0605
vt -0.0322 0.0605
vt 0.0254 0.0176
vt 0.0322 0.0605
vt 0.0273 0.0322
vt -0.0322 0.0605
vt -0.0254 0.0176
vt -0.0273 0.0322
vt -0.0254 -0.0068
vt 0.0254 -0.0068
vt -0.0254 -0.0068
vt 0.0254 -0.0068
vt 0.0254 -0.0068
vt 0.0283 0.0098
vt -0.0254 -0.0068
vt 0.0254 -0.0068
vt -0.0283 0.0098
vt -0.0254 -0.0068
vt 0.0283 0.0098
vt -0.0283 0.0098
vt 0.0244 -0.0107
vt -0.0244 -0.0107
vt -0.0322 0.0605
vt 0.0322 0.0605
vt -0.0254 0.0176
vt 0.0254 0.0176
vt 0.0273 0.0322
vt -0.0273 0.0322
vt -0.0322 0.0605
vt 0.0322 0.0605
vt 0.0322 0.0605
vt -0.0322 0.0605
vt 0.0215 0.0049
vt 0.0215 0.0049
vt -0.0215 0.0049
vt -0.0215 0.0049
vt 0.0186 0.0205
vt 0.0273 0.0078
vt 0.0273 0.0078
vt -0.0273 0.0078
vt -0.0273 0.0078
vt 0.0273 0.0078
vt -0.0391 0.0000
vt 0.0391 0.0000
vt 0.0391 0.0000
vt -0.0391 0.0000
vt 0.0332 0.0166
vt 0.0332 0.0166
vt -0.0332 0.0166
vt -0.0332 0.0166
vt -0.0332 0.0166
vt 0.0332 0.0166
vt 0.0430 0.0166
vt -0.0430 0.0166
vt 0.0332 0.0166
vt 0.0430 0.0166
vt -0.0332 0.0166
vt -0.0430 0.0166
vt 0.0430 0.0166
vt 0.0430 0.0166
vt 0.0391 0.0000
vt 0.0391 0.0000
vt -0.0215 0.0049
vt -0.0186 0.0205
vt -0.0215 0.0049
vt -0.0186 0.0205
vt 0.0215 0.0049
vt 0.0186 0.0205
vt 0.0186 0.0205
vt 0.0215 0.0049
vt -0.0010 0.0049
vt -0.0215 0.0049
vt -0.0010 0.0049
vt 0.0186 0.0205
vt -0.0010 0.0205
vt -0.0215 0.0049
vt -0.0186 0.0205
vt -0.0010 0.0205
vt -0.0215 0.0049
vt -0.0186 0.0205
vt 0.0273 0.0078
vt -0.0273 0.0078
vt -0.0273 0.0078
vt 0.0273 0.0078
vt -0.0273 0.0078
vt -0.0430 0.0166
vt -0.0430 0.0166
vt -0.0391 0.0000
vt -0.0391 0.0000
vt -0.0332 0.0166
vt 0.0332 0.0166
vt 0.0332 0.0166
vt -0.0332 0.0166
vt 0.0215 0.0049
vt -0.0010 0.0205
vt 0.0186 0.0205
vt -0.0215 0.0049
vt -0.0010 0.0049
vt -0.0010 0.0205
vt -0.0215 0.0049
vt -0.0010 0.0049
vt 0.0215 0.0049
vt -0.0273 0.0078
vt 0.0273 0.0078
vt 0.0273 0.0078
vt -0.0273 0.0078
vt -0.0430 0.0166
vt 0.0430 0.0166
vt 0.0391 0.0000
vt -0.0391 0.0000
vt 0.0430 0.0166
vt -0.0430 0.0166
vt -0.0391 0.0000
vt 0.0391 0.0000
vt 0.0107 0.0059
vt 0.0078 -0.0010
vt 0.0078 0.0137
vt 0.0000 0.0244
vt 0.0127 0.0234
vt -0.0127 0.0234
vt -0.0176 0.0078
vt -0.0127 0.0234
vt -0.0127 -0.0049
vt 0.0000 -0.0107
vt 0.0127 -0.0049
vt 0.0176 0.0078
vt 0.0127 0.0234
vt 0.0176 0.0605
vt 0.0000 0.0605
vt -0.0176 0.0605
vt -0.0176 0.0605
vt -0.0225 0.0400
vt -0.0156 0.0176
vt 0.0176 0.0605
vt 0.0000 0.0605
vt 0.0176 0.0605
vt 0.0000 0.0400
vt -0.0176 0.0605
vt -0.0225 0.0400
vt -0.0156 0.0176
vt 0.0000 0.0078
vt 0.0156 0.0176
vt 0.0225 0.0400
vt 0.0000 0.0156
vt 0.0078 0.0137
vt -0.0078 0.0137
vt -0.0107 0.0059
vt -0.0078 0.0137
vt -0.0078 -0.0010
vt 0.0000 -0.0059
vt 0.0078 -0.0010
vt -0.0049 0.0068
vt -0.0039 0.0098
vt -0.0039 0.0039
vt 0.0000 0.0020
vt 0.0039 0.0039
vt 0.0107 0.0059
vt 0.0049 0.0068
vt 0.0039 0.0098
vt 0.0000 0.0127
vt 0.0000 0.0078
vt 0.0000 0.0078
vt 0.0127 0.0234
vt 0.0000 0.0244
vt -0.0127 0.0234
vt -0.0127 0.0234
vt -0.0176 0.0078
vt -0.0127 -0.0049
vt 0.0000 -0.0107
vt 0.0127 -0.0049
vt 0.0000 3.2500
vt -6.5000 0.0000
vt -6.2500 0.0000
vt -6.5000 0.0000
vt -4.0000 0.0000
vt -6.5000 0.0000
vt -6.2500 0.0000
vt -3.5000 8.0020
vt -6.5000 0.0000
vt -6.2500 0.0000
vt -6.2500 0.0000
vt -6.5000 0.0000
vt -6.2500 0.0000
vt -3.5000 8.0020
vt -4.0000 0.0000
vt 31.2256 0.1318
vt 0.1230 0.1230
vt 0.2100 0.0000
vt 3.0381 0.0303
f 76/76 2/2 40/40
f 128/128 128/128 128/128
f 67/67 2/2 30/30
f 128/128 128/128 128/128
f 111/111 2/2 108/108
f 104/104 2/2 100/100
f 104/104 2/2 100/100
f 111/111 2/2 108/108
f 46/46 2/2 15/15
f 46/46 2/2 15/15
f 51/51 2/2 20/20
f 44/44 3/3 1/1
f 51/51 2/2 20/20
f 44/44 3/3 1/1
f 67/67 2/2 30/30
f 128/128 128/128 128/128
f 67/67 2/2 30/30
f 128/128 128/128 128/128
f 76/76 2/2 40/40
f 128/128 128/128 128/128
f 76/76 2/2 40/40
f 128/128 128/128 128/128
f 67/67 2/2 78/78
f 97/97 2/2 94/94
f 104/104 2/2 100/100
f 111/111 2/2 108/108
f 44/44 3/3 1/1
f 44/44 3/3 1/1
f 40/40 1/1 76/76
f 40/40 1/1 76/76
f 17/17 2/2 35/35
f 15/15 1/1 13/13
f 128/128 128/128 128/128
f 15/15 1/1 13/13
f 128/128 128/128 128/128
f 104/104 2/2 15/15
f 87/87 3/3 119/119
f 67/67 1/1 100/100
f 128/128 128/128 128/128
f 67/67 1/1 100/100
f 128/128 128/128 128/128
f 66/66 2/2 29/29
f 51/51 3/3 99/99
f 102/102 3/3 4/4
f 121/121 2/2 5/5
f 40/40 1/1 76/76
f 17/17 2/2 35/35
f 17/17 2/2 35/35
f 21/21 7/7 5/5
f 9/9 8/8 6/6
f 17/17 18/18 19/19
f 17/17 19/19 20/20
f 27/27 29/29 30/30
f 5/5 6/6 7/7
f 17/17 13/13 18/18
f 13/13 5/5 12/12
f 64/64 127/127 64/64
