# Conker's Bad Fur Day — Real 3D Model (Multiplayer Level Models)
o assets09_model_283

v 0.0000 17.5200 0.0000
v -6.8800 0.0000 0.0000
v -33.2800 0.0000 18.2300
v -27.2000 2.5600 15.3600
v -6.8800 0.0000 0.0000
v -7.5200 0.0000 0.6400
v -6.8800 0.0000 0.0000
v -27.4400 10.2400 0.0900
v -27.4400 5.7600 2.6500
v -27.4400 5.9200 5.2000
v -27.4400 6.0000 7.7600
v -7.5200 0.0000 0.6400
v -33.2800 0.0000 18.2300
v -33.2800 0.0000 18.2300
v -7.5200 0.0000 0.6400
v 1.1100 0.9500 0.0000
vt 0.0000 0.0000
vt -2.6719 0.0000
vt -2.6797 2.0000
vt -6.5000 0.0000
vt -3.2500 0.0000
vt -6.5000 0.0000
vt -3.2500 0.0000
vt -3.4375 9.0020
vt -3.4688 8.5020
vt -3.4844 8.2520
vt -3.4922 8.1270
vt -6.5000 0.0000
vt -2.6797 2.0000
vt -2.6797 2.0000
vt -6.5000 0.0000
vt 0.1201 19.0791
f 9/9 10/10 11/11
f 7/7 10/10 8/8
f 12/12 13/13 14/14
f 14/14 15/15 12/12
