# Conker's Bad Fur Day — Real 3D Model (Multiplayer Level Models)
o assets09_model_346

v 0.0000 3.9200 0.0000
v -27.3600 0.0000 17.9200
v -27.4400 20.4800 0.0100
v -27.4400 11.5200 2.5700
v -27.4400 6.7200 5.1200
v -27.4400 6.8000 7.6800
v -27.4400 6.8400 10.2400
v -7.5200 0.0000 0.6400
v -33.2800 0.0000 18.5500
v 15.4000 15.3600 0.0600
vt 0.0000 0.0000
vt -3.2500 0.0000
vt -3.4375 9.0020
vt -3.4688 8.5020
vt -3.4844 8.2520
vt -3.4922 8.1270
vt -3.4961 8.0645
vt -2.6562 0.2500
vt -2.6797 8.0000
vt -8.2500 0.0000
f 6/6 8/8 4/4
f 10/10 9/9 1/1
f 3/3 4/4 1/1
f 4/4 6/6 1/1
