# Conker's Bad Fur Day — Real 3D Model (Multiplayer Level Models)
o assets09_model_023

v 0.0000 10.4800 0.0000
v 12.0900 -1.3400 -2.5800
v 12.6600 9.9000 -2.5800
v 9.0700 -1.2900 -2.5800
v 9.6300 9.9500 -2.5800
v 12.1500 -1.3400 -2.5800
v 12.7100 9.9000 -2.5800
v 12.0900 -1.3400 -2.5800
v 12.6600 9.9000 -2.5800
v 12.6600 9.9000 -2.5800
v 12.0900 -1.3400 -2.5800
v 9.0400 -1.2900 -2.5800
v 9.6100 9.9500 -2.5800
v 23.6300 10.1200 -2.5800
v 0.0000 10.1200 -2.5800
v 0.0000 0.0000 -2.5800
v 23.6300 0.0000 -2.5800
v 20.4800 0.0000 -2.5800
v 20.4800 20.4800 -2.5800
v 0.0000 20.4800 -2.5800
v 0.0000 0.0000 -2.5800
v -28.0000 0.0000 17.9200
v -33.2800 0.0000 18.3400
v -28.1600 2.5600 15.3600
v -7.5200 0.0000 0.6400
v -28.0800 11.5200 2.5700
v -28.0800 6.7200 5.1200
v -28.0800 6.8000 7.6800
v -7.5200 0.0000 1.2800
vt 0.0000 0.0000
vt 0.0127 -0.0576
vt -0.0352 -0.0693
vt 0.0195 -0.0645
vt -0.0234 -0.0918
vt 0.0244 -0.0762
vt -0.0234 -0.0879
vt 0.0186 -0.0674
vt 0.0186 -0.0674
vt -0.0293 -0.0830
vt -0.0293 -0.0781
vt 0.0186 -0.0635
vt -0.0342 -0.0625
vt -0.0039 -0.0059
vt -0.0537 -0.0215
vt -0.0342 -0.0518
vt -0.0361 -0.0820
vt -0.0039 -0.0059
vt 0.0156 -0.0361
vt 0.0332 -0.0967
vt 0.0000 1.0312
vt -6.5000 0.0000
vt -6.2500 0.0000
vt -6.5000 0.0000
vt -4.0000 0.0000
vt -3.5000 8.0020
vt -3.5000 8.0020
vt -3.5000 8.0020
vt -4.0000 0.0000
f 10/10 1/1 1/1
f 14/14 3/3 1/1
f 14/14 3/3 1/1
f 10/10 1/1 1/1
f 6/6 5/5 7/7
f 6/6 7/7 8/8
