mtllib assets09_model_256.mtl
# Conker's Bad Fur Day — Real 3D Model (Multiplayer Level Models)
o assets09_model_256
usemtl assets09_model_256_mat

v 0.0000 6.6400 0.0000
v -27.3600 0.0000 17.9200
v -27.4400 20.4800 0.0900
v -27.4400 11.5200 2.6500
v -27.4400 6.7200 5.2000
v -27.4400 6.8000 7.7600
v -27.4400 6.8400 10.3200
v -7.5200 0.0000 0.6400
v 2.5800 0.6400 0.0000
v -33.2800 0.0000 18.3500
v -33.2800 0.0000 18.2300
v -7.5200 0.0000 0.6400
v -6.5600 0.0000 0.0000
v -33.2800 0.0000 18.5500
vt 0.0000 0.0000
vt -3.2500 0.0000
vt -3.4375 9.0020
vt -3.4688 8.5020
vt -3.4844 8.2520
vt -3.4922 8.1270
vt -3.4961 8.0645
vt -2.6562 0.2500
vt 4.0156 2.0361
vt -0.7344 0.0000
vt -2.6797 2.0000
vt -6.5000 0.0000
vt -2.6406 0.0000
vt -2.6484 4.0000
f 1/1 2/2 3/3
f 4/4 5/5 6/6
f 7/7 8/8 9/9
f 10/10 11/11 12/12
