mtllib assets09_model_099.mtl
# Conker's Bad Fur Day — Real 3D Model (Multiplayer Level Models)
o assets09_model_099
usemtl assets09_model_099_mat

v 0.0000 9.6800 0.0000
v 0.0000 0.0000 -0.0100
v 0.0000 0.0000 -0.0100
v 0.0000 0.0000 -0.0100
v 0.0000 0.0000 -0.0100
v 0.0000 0.0000 -0.0100
v 0.0000 0.0000 -0.0100
v 0.0000 0.0000 -0.0100
v 0.0000 0.0000 -0.0100
v 0.0000 0.0000 -0.0100
v 0.0000 0.0000 -0.0100
v 0.0000 0.0000 -0.0100
v 0.0000 0.0000 -0.0100
v 0.0000 0.0000 -0.0100
v 0.0000 0.0000 -0.0100
v 0.0000 0.0000 -0.0100
v 4.0300 3.0000 -0.0100
v 0.7600 2.9700 -0.0100
v 0.7700 1.0800 -0.0100
v 4.0500 1.1100 -0.0100
v 2.4200 0.1500 -0.0100
v 2.3900 3.9300 -0.0100
v 7.4300 0.0000 -0.0100
v 2.7000 0.0000 -0.0100
v 5.1300 5.2500 -0.0100
v 2.5400 5.2500 -0.0100
v 0.3300 0.0000 -0.0100
v 5.1300 5.2500 -0.0100
v 2.7000 0.0000 -0.0100
v 2.7000 0.0000 -0.0100
v 7.4300 0.0000 -0.0100
v 7.9600 5.2500 -0.0100
v 9.8000 0.0000 -0.0100
v 6.2300 2.5300 -0.0100
v 3.9200 4.7100 -0.0100
v 3.9900 0.4700 -0.0100
v 1.6900 2.4600 -0.0100
v 0.7700 1.0800 -0.0100
v 0.7600 2.9700 -0.0100
v 4.0300 3.0000 -0.0100
v 4.0500 1.1100 -0.0100
v 2.4200 0.1500 -0.0100
v 2.3900 3.9300 -0.0100
v 5.1300 5.2500 -0.0100
v 2.7000 0.0000 -0.0100
v 7.4300 0.0000 -0.0100
v 2.5400 5.2500 -0.0100
v 0.3300 0.0000 -0.0100
v 2.7000 0.0000 -0.0100
v 5.1300 5.2500 -0.0100
v 2.7000 0.0000 -0.0100
v 7.4300 0.0000 -0.0100
v 7.9600 5.2500 -0.0100
v 7.4300 0.0000 -0.0100
v 9.8000 0.0000 -0.0100
v 7.4300 0.0000 -0.0100
v 3.9900 0.4700 -0.0100
v 3.9200 4.7100 -0.0100
v 6.2300 2.5300 -0.0100
v 1.6900 2.4600 -0.0100
v -28.0000 0.0000 17.9200
v -33.2800 0.0000 18.3400
v -28.1600 2.5600 15.3600
v -7.5200 0.0000 0.6400
v -28.0800 11.5200 2.5700
v -28.0800 6.7200 5.1200
v -28.0800 6.8000 7.6800
v -7.5200 0.0000 0.6400
v -28.0800 20.4800 2.5700
vt 0.0000 0.0000
vt -0.0156 0.0635
vt -0.0195 0.0576
vt -0.0156 0.0566
vt 0.0195 0.0664
vt 0.0195 0.0576
vt 0.0156 0.0635
vt 0.0156 0.0566
vt 0.0000 0.0723
vt 0.0000 0.0771
vt -0.0156 0.0566
vt -0.0156 0.0645
vt 0.0156 0.0645
vt 0.0156 0.0566
vt 0.0000 0.0732
vt -0.0146 0.0527
vt -0.0146 0.0557
vt -0.0176 0.0469
vt -0.0176 0.0449
vt -0.0195 0.0420
vt -0.0127 0.0586
vt -0.0146 0.0527
vt -0.0176 0.0449
vt -0.0225 0.0518
vt -0.0244 0.0479
vt -0.0195 0.0420
vt -0.0225 0.0537
vt -0.0176 0.0469
vt -0.0176 0.0469
vt -0.0146 0.0557
vt -0.0205 0.0576
vt -0.0127 0.0586
vt -0.0225 0.0537
vt -0.0205 0.0576
vt -0.0244 0.0479
vt -0.0225 0.0518
vt 0.0176 0.0469
vt 0.0146 0.0557
vt 0.0146 0.0527
vt 0.0176 0.0449
vt 0.0195 0.0420
vt 0.0127 0.0586
vt 0.0225 0.0518
vt 0.0176 0.0449
vt 0.0146 0.0527
vt 0.0244 0.0479
vt 0.0195 0.0420
vt 0.0176 0.0469
vt 0.0225 0.0537
vt 0.0176 0.0469
vt 0.0146 0.0557
vt 0.0205 0.0576
vt 0.0146 0.0557
vt 0.0127 0.0586
vt 0.0146 0.0527
vt 0.0244 0.0479
vt 0.0205 0.0576
vt 0.0225 0.0537
vt 0.0225 0.0518
vt 0.0000 0.9531
vt -6.5000 0.0000
vt -6.2500 0.0000
vt -6.5000 0.0000
vt -4.0000 0.0000
vt -3.5000 8.0020
vt -3.5000 8.0020
vt -3.5000 8.0020
vt -4.0000 0.0000
vt -3.5000 8.0020
f 1/1 2/2 3/3
f 4/4 5/5 6/6
f 7/7 8/8 9/9
f 10/10 11/11 12/12
f 13/13 14/14 15/15
f 16/16 17/17 18/18
f 19/19 20/20 21/21
f 22/22 23/23 24/24
f 25/25 26/26 27/27
f 28/28 29/29 30/30
f 31/31 32/32 33/33
f 34/34 35/35 36/36
f 37/37 38/38 39/39
f 40/40 41/41 42/42
f 43/43 44/44 45/45
f 46/46 47/47 48/48
f 49/49 50/50 51/51
f 52/52 53/53 54/54
f 55/55 56/56 57/57
f 58/58 59/59 60/60
f 61/61 62/62 63/63
f 64/64 65/65 66/66
f 67/67 68/68 69/69
