mtllib assets09_model_174.mtl
# Conker's Bad Fur Day — Real 3D Model (Multiplayer Level Models)
o assets09_model_174
usemtl assets09_model_174_mat

v 0.0000 0.3200 0.0000
v 0.0000 0.0000 -0.0300
v -0.1200 0.0000 -0.2900
v 0.1200 0.0000 -0.2900
v 0.0000 -0.0800 0.1000
v -0.0900 0.0000 0.1400
v 0.0000 0.0000 -0.2200
v 0.0000 0.0000 0.3000
v -0.0900 0.0000 0.1400
v 0.0000 -0.0800 0.1000
v 0.0900 0.0000 0.1400
v 0.0900 0.0000 0.1400
v 0.0000 0.0800 0.1200
v 0.0000 0.0000 -0.2200
v -0.3000 0.0000 0.0100
v 0.0000 0.0000 -0.2200
v -0.0900 0.0000 0.1400
v 0.3000 0.0000 0.0100
v 0.0900 0.0000 0.1400
v 0.0000 0.0000 -0.2200
v 0.0000 0.0000 -0.0300
v -0.1200 0.0000 -0.2900
v 0.1200 0.0000 -0.2900
v 0.0000 -0.0800 0.1000
v -0.0900 0.0000 0.1400
v 0.0000 0.0000 -0.2200
v 0.0000 0.0000 0.3000
v -0.0900 0.0000 0.1400
v 0.0000 -0.0800 0.1000
v 0.0900 0.0000 0.1400
v 0.0900 0.0000 0.1400
v 0.0000 0.0800 0.1200
v 0.0000 0.0000 -0.2200
v -0.3000 0.0000 0.0100
v 0.0000 0.0000 -0.2200
v -0.0900 0.0000 0.1400
v 0.3000 0.0000 0.0100
v 0.0900 0.0000 0.1400
vt 0.0000 0.3281
vt 0.3066 0.4590
vt 0.4678 0.0547
vt 0.0596 0.0547
vt -0.0820 1.1846
vt -0.0967 0.7119
vt 0.2354 0.9131
vt 0.4893 0.7656
vt 0.0352 0.7979
vt -0.0420 1.0820
vt -0.0967 0.7119
vt 0.0352 0.7979
vt -0.0293 0.5078
vt -0.9883 0.8623
vt 1.4805 0.5527
vt 1.0430 1.0879
vt 0.7646 0.4893
vt 1.5137 0.6152
vt 0.8516 0.4775
vt 0.7559 1.1543
vt 0.3066 0.4590
vt 0.4678 0.0547
vt 0.0596 0.0547
vt -0.0820 1.1846
vt -0.0967 0.7119
vt 0.2354 0.9131
vt 0.4893 0.7656
vt 0.0352 0.7979
vt -0.0420 1.0820
vt -0.0967 0.7119
vt 0.0352 0.7979
vt -0.0293 0.5078
vt -0.9883 0.8623
vt 1.4805 0.5527
vt 1.0430 1.0879
vt 0.7646 0.4893
vt 1.5137 0.6152
vt 0.8516 0.4775
f 1/1 2/2 3/3
f 4/4 5/5 6/6
f 7/7 8/8 9/9
f 10/10 11/11 12/12
f 13/13 14/14 15/15
f 16/16 17/17 18/18
f 19/19 20/20 21/21
f 22/22 23/23 24/24
f 25/25 26/26 27/27
f 28/28 29/29 30/30
f 31/31 32/32 33/33
f 34/34 35/35 36/36
