# Conker's Bad Fur Day — Real 3D Model (Multiplayer Level Models)
o assets09_model_037

v 0.0000 10.6400 0.0000
v 8.3400 1.2100 -0.0100
v 8.0400 2.7100 -0.0100
v 9.3600 2.6500 -0.0100
v 2.6800 1.1600 -0.0100
v 2.8900 2.6600 -0.0100
v 9.6100 5.6500 -0.0100
v 7.9400 5.6300 -0.0100
v 8.0500 10.0600 -0.0100
v 9.1600 8.6400 -0.0100
v 7.8400 8.5600 -0.0100
v 1.5700 2.5800 -0.0100
v 1.1200 5.5800 -0.0100
v 2.7900 5.5900 -0.0100
v 2.7000 8.5200 -0.0100
v 1.3700 8.5800 -0.0100
v 2.3900 10.0200 -0.0100
v 9.3600 2.6500 -0.0100
v 8.0400 2.7100 -0.0100
v 2.8900 2.6600 -0.0100
v 9.6100 5.6500 -0.0100
v 7.9400 5.6300 -0.0100
v 7.8400 8.5600 -0.0100
v 9.1600 8.6400 -0.0100
v 1.5700 2.5800 -0.0100
v 1.1200 5.5800 -0.0100
v 2.7900 5.5900 -0.0100
v 1.3700 8.5800 -0.0100
v 2.7000 8.5200 -0.0100
v 9.9900 0.5500 -0.0100
v 8.4500 3.2200 -0.0100
v 1.6400 3.5200 -0.0100
v 0.0700 0.8900 -0.0100
v 4.9900 5.3900 -0.0100
v 5.1800 5.0900 -0.0100
v 0.2400 0.8000 -0.0100
v 1.9700 3.3400 -0.0100
v 8.4400 3.2100 -0.0100
v 9.9800 0.5300 -0.0100
v 5.1500 5.1100 -0.0100
v 5.3700 5.1100 -0.0100
v -28.0000 0.0000 17.9200
v -33.2800 0.0000 17.9900
v -28.1600 2.5600 15.3600
v -7.5200 0.0000 0.6400
v 15.4600 5.2400 0.1400
v -7.5200 0.0000 0.6400
v -7.5200 0.0000 0.6400
v -7.5200 0.0000 1.2800
v 15.6200 35.9000 0.1000
vt 0.0000 0.0000
vt 0.0098 -0.0137
vt 0.0059 -0.0049
vt -0.0137 -0.0225
vt 0.0000 -0.0303
vt 0.0098 -0.0078
vt 0.0117 -0.0166
vt -0.0039 -0.0078
vt 0.0039 -0.0068
vt 0.0088 -0.0156
vt -0.0098 -0.0293
vt -0.0068 -0.0352
vt 0.0020 -0.0332
vt -0.0020 -0.0322
vt -0.0117 -0.0322
vt -0.0156 -0.0264
vt -0.0059 0.0020
vt -0.0156 0.0029
vt -0.0264 -0.0137
vt -0.0107 0.0049
vt -0.0195 0.0029
vt -0.0176 0.0000
vt -0.0078 0.0000
vt -0.0215 -0.0225
vt -0.0273 -0.0225
vt -0.0303 -0.0137
vt -0.0234 -0.0254
vt -0.0273 -0.0166
vt -0.0156 -0.0264
vt -0.0117 -0.0322
vt -0.0137 -0.0225
vt -0.0156 -0.0264
vt -0.0098 -0.0293
vt -0.0068 -0.0352
vt -0.0059 0.0020
vt -0.0049 -0.0088
vt -0.0078 0.0000
vt -0.0049 -0.0088
vt -0.0107 0.0049
vt 0.0098 -0.0078
vt 0.0000 1.0469
vt -6.5000 0.0000
vt -6.2500 0.0000
vt -6.5000 0.0000
vt -4.0000 0.0000
vt 1.2539 4.0059
vt -4.0000 0.0000
vt -4.0000 0.0000
vt -4.0000 0.0000
vt -8.2500 0.0000
f 6/6 2/2 7/7
f 8/8 6/6 7/7
f 3/3 9/9 4/4
f 9/9 3/3 14/14
f 2/2 14/14 3/3
f 14/14 8/8 4/4
f 6/6 14/14 4/4
