# Conker's Bad Fur Day — Real 3D Model (Sloprano Models)
o assets0E_model_039

v 0.3200 2.5800 17.9200
v 20.4800 0.0000 0.0000
v 0.3200 2.6700 12.8000
v 0.0000 2.6500 12.8000
v 0.0000 2.6500 12.8000
v 0.0000 2.6500 12.8000
v 0.0000 2.6500 12.8000
v 0.0000 2.6500 12.8000
v 0.0000 2.6500 12.8000
v 0.0000 2.6500 12.8000
v 0.0000 2.6500 12.8000
v 0.0000 2.6500 12.8000
v 0.0000 2.6500 12.8000
v 0.0000 2.6500 12.8000
v 0.0000 2.6500 12.8000
v 0.0000 2.6500 12.8000
v 0.0000 2.6500 12.8000
v 0.0000 2.6500 12.8000
v 0.0000 2.6500 12.8000
v 0.0000 2.6500 12.8000
v 0.0000 2.6500 12.8000
vt 0.1826 0.0010
vt 0.0000 0.0654
vt 0.1826 0.0674
vt 0.3486 -2.3750
vt 0.9736 -2.3789
vt 0.3096 -2.3311
vt 0.3291 -0.3438
vt 1.0127 0.7080
vt 0.3096 1.7471
vt 0.3096 1.7705
vt 0.9395 0.7646
vt 0.3193 -0.3096
vt 0.3486 -2.3984
vt 0.9736 -2.3301
vt 0.2656 -2.3037
vt 0.2607 -0.3994
vt 0.8906 0.6240
vt 0.2900 1.6611
vt 0.2217 1.6846
vt 0.9590 0.8594
vt 0.2900 -0.4268
f 1/1 2/2 3/3
f 4/4 5/5 6/6
f 7/7 8/8 9/9
f 10/10 11/11 12/12
f 13/13 14/14 15/15
f 16/16 17/17 18/18
f 19/19 20/20 21/21
