# Conker's Bad Fur Day — Real 3D Model (Spooky Models)
o assets10_model_027

v 0.0000 2.2400 0.0000
v 0.0000 3.3600 0.0000
v 0.0000 4.0800 0.0000
v 0.0000 4.4000 0.0000
v 0.0000 4.7200 0.0000
v 0.0000 5.0400 0.0000
v 0.0000 5.3600 0.0000
v 0.0000 5.6800 0.0000
v 0.0000 6.0000 0.0000
v 0.0000 6.3200 0.0000
v 0.0000 6.6400 0.0000
v 0.0000 6.9600 0.0000
v 0.0000 7.2800 0.0000
v 0.0000 7.6000 0.0000
v 12.5300 0.3600 35.6600
v 2.8200 0.3500 36.0800
v 2.0900 0.3500 35.4700
v -3.5300 0.2800 33.4800
v -1.0100 0.1900 9.6700
v 3.4600 0.3400 0.4600
v 8.0100 0.3200 -11.9100
v -3.9600 1.8900 25.0500
v -2.8600 0.2700 18.0300
v -1.7300 0.2700 11.9400
v 0.6300 0.2700 8.5800
v 1.4500 0.2700 8.6600
v 6.1700 1.3800 0.7100
v 0.7800 0.2300 10.8600
v 4.5200 0.1300 3.2300
v 10.3000 0.3800 -10.7900
v 9.0900 0.2800 -15.1300
vt 0.0000 0.2656
vt 0.0000 0.3438
vt 0.0000 0.4141
vt 0.0000 0.4453
vt 0.0000 0.4766
vt 0.0000 0.5078
vt 0.0000 0.5391
vt 0.0000 0.5703
vt 0.0000 0.6016
vt 0.0000 0.6328
vt 0.0000 0.6641
vt 0.0000 0.6953
vt 0.0000 0.7266
vt 0.0000 0.7578
vt 0.1592 0.0332
vt 0.2627 0.0332
vt -0.3545 0.0264
vt 0.0205 0.0156
vt 0.5635 0.0322
vt 0.7744 0.0303
vt -0.3975 0.0225
vt -0.0713 0.0264
vt 0.0908 0.0264
vt 0.1680 0.0264
vt 0.4521 0.0264
vt 0.7012 0.0264
vt 0.0361 0.4717
vt 0.5586 0.4863
vt 0.8203 0.4863
vt 0.7275 0.0273
vt 2.3154 0.0322
f 28/28 1/1 17/17
f 1/1 1/1 1/1
f 22/22 1/1 17/17
f 16/16 1/1 1/1
