# Conker's Bad Fur Day — Real 3D Model (Multiplayer Level Models)
o assets09_model_112

v 0.0000 8.0800 0.0000
v 0.0000 0.0000 -0.0100
v 0.0000 0.0000 -0.0100
v 0.0000 0.0000 -0.0100
v 0.0000 0.0000 -0.0100
v 0.0000 0.0000 -0.0100
v 0.0000 0.0000 -0.0100
v 0.0000 0.0000 -0.0100
v 0.0000 0.0000 -0.0100
v 0.0000 0.0000 -0.0100
v 0.0000 0.0000 -0.0100
v 0.0000 0.0000 -0.0100
v 0.0000 0.0000 -0.0100
v 0.0000 0.0000 -0.0100
v 0.0000 0.0000 -0.0100
v 0.0000 0.0000 -0.0100
v 0.0000 0.0000 -0.0100
v 0.0000 0.0000 -0.0100
v 0.0000 0.0000 -0.0100
v 0.0000 0.0000 -0.0100
v 0.0000 0.0000 -0.0100
v 0.0000 0.0000 -0.0100
v 0.0000 0.0000 -0.0100
v 0.0000 0.0000 -0.0100
v 0.0000 0.0000 -0.0100
v 0.0000 0.0000 -0.0100
v 0.0000 0.0000 -0.0100
v 0.0000 0.0000 -0.0100
v 0.0000 0.0000 -0.0100
v 0.0000 0.0000 -0.0100
v 0.0000 0.0000 -0.0100
v 0.0000 0.0000 -0.0100
v 0.0000 0.0000 -0.0100
v 0.0000 0.0000 -0.0100
v 0.0000 0.0000 -0.0100
v 0.0000 0.0000 -0.0100
v 0.0000 0.0000 -0.0100
v 0.0000 0.0000 -0.0100
v 0.0000 0.0000 -0.0100
v 0.0000 0.0000 -0.0100
v 0.0000 0.0000 -0.0100
v 0.0000 0.0000 -0.0100
v 0.0000 0.0000 -0.0100
v 0.0000 0.0000 -0.0100
v 0.0000 0.0000 -0.0100
v 0.0000 0.0000 -0.0100
v 0.0000 0.0000 -0.0100
v 0.0000 0.0000 -0.0100
v 0.0000 0.0000 -0.0100
v 0.0000 0.0000 -0.0100
v -28.0000 0.0000 17.9200
v -33.2800 0.0000 18.3400
v -28.1600 2.5600 15.3600
v -7.5200 0.0000 0.6400
v -28.0800 11.5200 2.5700
v -28.0800 6.7200 5.1200
v -28.0800 6.8000 7.6800
v 15.3600 10.7000 0.4000
vt 0.0000 0.0000
vt -0.0098 0.0000
vt 0.0088 0.0000
vt -0.0195 -0.0156
vt -0.0127 -0.0156
vt -0.0098 -0.0322
vt -0.0010 -0.0254
vt 0.0088 -0.0322
vt 0.0176 -0.0156
vt 0.0107 -0.0156
vt 0.0088 0.0000
vt -0.0098 0.0000
vt -0.0195 -0.0156
vt -0.0098 -0.0322
vt 0.0088 -0.0322
vt 0.0176 -0.0156
vt -0.0010 -0.0156
vt 0.0088 0.0000
vt -0.0098 0.0000
vt -0.0010 -0.0156
vt -0.0195 -0.0156
vt -0.0098 -0.0322
vt 0.0088 -0.0322
vt 0.0176 -0.0156
vt -0.0010 -0.0156
vt -0.0010 -0.0137
vt -0.0010 -0.0088
vt -0.0039 -0.0156
vt -0.0078 -0.0156
vt -0.0010 -0.0186
vt -0.0010 -0.0225
vt 0.0020 -0.0156
vt 0.0059 -0.0156
vt -0.0107 0.0020
vt -0.0215 -0.0156
vt -0.0107 -0.0332
vt 0.0088 -0.0332
vt 0.0195 -0.0156
vt 0.0088 0.0020
vt -0.0107 0.0020
vt 0.0088 0.0020
vt -0.0215 -0.0156
vt 0.0195 -0.0156
vt 0.0088 -0.0332
vt -0.0107 -0.0332
vt -0.0010 -0.0098
vt 0.0049 -0.0156
vt -0.0010 -0.0215
vt -0.0068 -0.0156
vt 0.0000 0.7969
vt -6.5000 0.0000
vt -6.2500 0.0000
vt -6.5000 0.0000
vt -4.0000 0.0000
vt -3.5000 8.0020
vt -3.5000 8.0020
vt -3.5000 8.0020
vt -9.5049 -0.0010
f 1/1 3/3 24/24
f 21/21 1/1 24/24
