# Conker's Bad Fur Day — Real 3D Model (It's War Models)
o assets0C_model_002

v 0.0000 0.9600 0.0000
v 0.0000 0.9600 0.0000
v 0.0000 16.4800 0.0000
v -1.3000 7.4600 0.0400
v 0.0000 0.0300 0.0000
v 0.0000 0.0100 0.0000
v 0.0000 0.0000 -2.2900
v 4.6300 0.0000 0.0000
v 0.0000 0.1600 0.2000
v -37.4800 0.6700 -7.7000
v 0.0000 0.0300 0.0000
v 0.0000 0.0500 0.0000
v 0.0000 0.0000 -17.4100
v 0.2000 0.0000 0.0000
v -13.8100 0.0000 0.0000
v 0.0000 0.1600 0.2000
v 0.0000 0.0300 0.0000
v 0.0000 0.0900 0.0000
v 0.2000 0.0000 0.0000
v 23.0300 0.0000 0.0000
v 0.0000 0.1600 0.2000
v 37.2800 -4.2400 9.9700
v 0.0000 0.0300 0.0000
v 0.0000 0.1300 0.0000
v 0.2000 0.0000 0.0000
v -0.2900 0.0000 0.0000
v 0.0000 0.1600 0.2000
v 0.0000 0.5100 0.0000
v 0.0000 0.1700 2.5600
v 0.0200 0.0200 0.0000
v 0.0200 0.0200 0.0000
v 0.0200 0.0200 0.0000
v 0.0200 0.0200 0.0000
v 0.0200 0.0200 0.0000
v 0.0200 0.0200 0.0000
v 0.0200 0.0200 0.0000
v 0.0200 0.0200 0.0000
v 0.7400 0.0100 0.0000
v -25.0600 -0.5700 0.0800
v 0.0000 0.0000 0.2000
v 0.0000 0.0000 0.4900
v 0.0000 4.5100 0.0000
v 7.2700 18.1100 0.0000
v 0.0000 4.8000 0.0000
v 0.0100 1.6100 9.4900
v 0.0200 5.1700 0.0000
v 11.6400 -1.4100 0.2900
v 0.0000 1.5500 0.0000
v 11.3300 1.0000 0.0000
v 0.0000 5.0600 0.0000
v 17.1500 15.0800 11.3300
v 0.1200 5.1200 0.0000
v 0.0000 0.0000 0.1200
v 0.0000 0.0000 35.1700
v -0.0600 2.4100 8.1100
v 2.7000 5.1200 0.0000
v 0.0000 0.0000 3.0000
v 7.2700 1.0000 0.0000
v 0.0000 0.0100 0.0000
v -0.1900 6.8200 7.2700
v 0.2000 5.1400 0.0000
v 0.0000 0.0000 0.2000
v 7.2700 1.0000 0.0000
v 0.0000 0.0100 0.0000
v -17.7100 6.0100 7.2700
v 0.2000 5.1500 0.0000
v -5.1100 -0.2500 -8.0300
v 0.0000 0.0000 4.7600
v 0.0000 0.0100 0.0000
v -8.1600 4.3800 1.1800
v 0.1800 7.7700 0.0000
v 0.0000 0.0000 0.0900
v 1.5100 7.7000 0.0000
v 7.2700 1.0000 0.0000
v 0.0000 14.0000 1.5100
v -17.6500 14.0800 7.2700
v 0.0900 6.0200 0.0000
v -1.4100 -2.2000 0.1300
v 0.0000 0.0000 0.0800
v 0.0000 0.0000 21.2700
v 0.8300 9.0000 0.0000
v 8.0800 1.0000 0.0000
v 0.1500 2.8100 5.6600
v 0.0200 5.1200 0.0000
v -0.3700 6.6000 0.0500
v 0.0000 0.0000 3.0200
v 7.2700 1.0000 0.0000
v -3.7000 2.5300 7.2700
v 0.0000 5.1700 0.0000
v 5.5100 1.0000 0.0000
v 0.0000 0.1600 0.0000
v -0.3800 7.6900 9.6600
v 2.6800 5.1200 0.0000
v 0.0000 0.0000 0.0200
v 0.0000 0.0000 -35.9900
v 7.2700 1.0000 0.0000
v 0.0000 0.0100 0.0000
v 10.9600 4.1900 7.2700
v 0.2000 5.1300 0.0000
v -36.2600 -0.5700 11.0700
v 0.0000 0.0000 0.2000
v 0.0000 0.0000 -11.5600
v 0.0000 0.1900 0.0000
v 30.1300 4.4400 8.3600
v 0.0200 5.1700 0.0000
v 38.9900 -6.4800 -15.9300
v 0.0000 0.1500 0.0000
v 0.0000 10.0000 0.0000
v 7.2700 1.0000 0.0000
v 0.1600 12.5900 7.2700
v 0.0400 5.1200 0.0000
v -0.8700 -0.8800 0.0900
v 0.0000 0.0000 0.0400
v 12.7500 1.0000 0.0000
v 0.0600 5.1300 0.0000
v -33.3900 0.6900 -0.8100
v 0.0000 0.0000 0.6400
v 0.0000 0.0000 -11.9800
v 0.0000 0.0100 0.0000
v 0.1300 8.8200 7.2700
v 2.6800 5.1200 0.0000
v 0.0000 0.0000 2.6800
v 6.9900 1.0000 0.0000
v 0.0400 0.4700 6.9900
v 2.9300 15.3600 10.2300
v 0.0000 0.0000 0.2000
v 7.2700 1.0000 0.0000
v 0.0000 0.0100 0.0000
v -14.0400 7.2400 7.2700
v 0.2000 5.1600 0.0000
v 0.0000 0.0000 0.2000
v 7.2700 1.0000 0.0000
v 0.0000 0.0100 0.0000
v -14.0400 7.8900 7.2700
v 0.0400 5.1300 0.0000
v 0.0000 0.0000 0.0400
v 7.2700 1.0000 0.0000
v -0.1000 5.4500 7.2700
v 0.1500 15.4900 0.0000
v 0.0000 0.0000 2.6800
v 4.9600 1.0000 0.0000
v 0.0000 0.0100 0.0000
v -17.4300 2.2900 4.9600
v 0.3500 5.7900 0.0000
v 9.0100 1.0000 0.0000
v -20.9300 1.7000 3.6700
v 0.1400 5.1200 0.0000
v 13.8600 1.0000 0.0000
v 0.0000 0.4800 0.0000
v 0.1600 3.8200 8.3100
v 2.8700 6.0600 0.0000
v -8.7500 6.8300 26.7300
v 0.1500 5.1200 0.0000
v 35.3600 -4.6000 8.4600
v 0.0000 1.1500 0.0000
v 12.6900 1.0000 0.0000
v 0.0000 3.6500 0.0000
v 0.0000 4.1600 11.1700
v 0.0000 5.1200 0.0000
v 0.0000 10.1300 2.0000
v 0.0000 0.0000 0.3500
v 0.0000 0.0000 -0.6400
v 0.0000 8.6000 0.0000
v 0.0000 0.0100 0.0000
v -0.6900 10.4200 10.3600
v 0.1200 5.1200 0.0000
v 0.0000 0.0000 0.0600
v 0.0000 0.0000 -0.2400
v 0.0000 0.0100 0.0000
v -0.0500 2.3000 8.3600
v 0.2000 5.1500 0.0000
v 0.0000 0.0000 -0.2800
v 7.2700 2.1200 0.0000
v 0.0000 3.0300 0.0000
v -9.6900 16.9900 7.2700
v 0.0200 0.0000 0.0000
v 0.0000 8.8200 0.0000
v -6.4500 0.2300 0.0400
v -37.5000 0.0000 0.1900
v -38.3200 0.0000 0.1100
v -14.7900 0.8900 4.2900
v -6.6800 9.7800 0.3500
v 39.2000 23.6400 -2.2300
v -0.0200 6.1400 0.0000
v -2.9400 7.0500 0.1500
v -9.0800 5.8100 -4.3000
v 0.0000 0.4000 0.0600
v 0.0000 1.3000 0.0700
v 15.5800 -35.9900 -11.2100
v -36.2600 11.0700 -0.5700
v 13.8900 -17.5200 7.2700
v -0.0500 -16.2400 8.3600
vt 0.0000 0.0938
vt 0.0000 1.2344
vt 0.0000 2.0156
vt 0.0000 0.0000
vt 0.0000 0.0000
vt 0.0000 0.0000
vt 0.0039 0.0000
vt 0.0000 0.0000
vt 0.0000 0.0000
vt 0.0000 0.0000
vt 0.0195 0.0000
vt 0.0000 0.0000
vt -1.1992 0.0000
vt 15.9023 -12.7998
vt 0.0000 0.0000
vt 0.0000 0.0000
vt 0.0195 0.0000
vt 0.0000 0.0000
vt 15.8750 0.0000
vt 0.0000 0.0000
vt 0.0000 0.0000
vt 0.0000 0.0000
vt 0.0195 0.0000
vt 0.0000 0.0000
vt 15.8750 0.0000
vt 0.0000 0.0000
vt 0.0000 0.0000
vt 0.0000 0.0000
vt 0.0000 0.0000
vt 8.0000 12.0000
vt 8.0020 12.0020
vt 8.0039 12.0039
vt 8.0059 12.0059
vt 8.0078 12.0078
vt 8.0098 12.0098
vt 8.0117 12.0117
vt 8.0137 12.0137
vt 8.0156 0.0000
vt 0.7100 0.0977
vt 0.0000 0.0000
vt 0.0078 0.7197
vt 0.0000 0.0000
vt 0.0000 0.0000
vt 0.0000 0.0127
vt 0.0000 0.0000
vt 0.0000 0.6836
vt 0.5469 0.2148
vt 0.0000 0.0000
vt 0.0000 0.0000
vt 0.0000 0.0000
vt 0.0000 0.0000
vt 0.0000 0.0000
vt 0.0000 0.0000
vt 0.0088 0.1797
vt 0.0000 0.0000
vt 0.0000 0.0000
vt 0.0000 0.0000
vt 0.0000 0.0000
vt 0.0000 0.0000
vt 0.0000 0.0000
vt 0.0000 0.0000
vt 0.0000 0.0010
vt 0.0000 0.0000
vt 0.0000 0.0000
vt 0.0000 0.0000
vt 0.0000 0.0000
vt 0.1152 0.2002
vt 0.8262 0.3711
vt 0.0000 0.0000
vt 15.8242 -12.6035
vt 0.0000 0.0000
vt 0.0000 1.6895
vt 0.0000 0.0000
vt 0.0000 0.0000
vt 0.0000 0.0000
vt 0.0000 0.0000
vt 0.1475 0.4883
vt 1.6875 0.0977
vt 0.0000 1.6602
vt -0.0205 1.2520
vt 0.0000 0.0000
vt 0.0000 0.0000
vt 16.9199 19.2012
vt 0.0000 0.0684
vt 0.4648 0.1191
vt 0.0000 0.0000
vt 0.0000 0.0000
vt 0.0000 0.0000
vt 0.0000 1.1328
vt 0.0000 0.0000
vt 0.0000 0.0000
vt 0.0000 0.0000
vt 0.0000 0.3906
vt 0.0000 0.3438
vt -1.0947 0.3945
vt 0.0000 0.0000
vt 0.0000 0.0000
vt 0.0000 0.0000
vt 0.0000 0.0000
vt 0.7100 0.0977
vt 0.0000 0.0010
vt 0.0498 0.3936
vt 0.0000 0.0146
vt 16.9209 -32.0000
vt 0.0000 0.9766
vt 0.8164 1.0645
vt 0.0000 0.0000
vt 0.0000 0.0000
vt 0.0000 0.0000
vt 0.0000 0.0000
vt 0.0000 0.0000
vt 1.1221 0.0977
vt 0.0000 0.0000
vt 0.0000 0.0000
vt 0.0000 0.0000
vt 0.0508 0.0977
vt 26.7197 -0.5010
vt 0.0205 3.2090
vt 0.0000 0.0000
vt 0.0000 0.0000
vt 0.0000 0.0000
vt 0.0000 0.0000
vt 0.0000 0.0000
vt 0.0000 0.0000
vt 0.0000 13.0000
vt 0.0000 0.0010
vt 0.0000 0.0000
vt 0.0000 0.0000
vt 0.0000 0.0000
vt 0.0000 0.0000
vt 0.0000 0.0010
vt 0.0000 0.0000
vt 0.0000 0.0000
vt 0.0000 0.0000
vt 0.0000 0.0000
vt 0.0000 0.0000
vt 0.0000 0.0000
vt 0.0000 0.0000
vt 0.0000 0.0000
vt 0.0000 0.0000
vt 16.6543 0.0029
vt 0.0000 0.0000
vt 0.0000 0.0000
vt 0.0000 0.0000
vt 16.6836 -12.7969
vt 16.1934 25.5996
vt 0.0000 0.0000
vt 16.6748 -0.0049
vt 0.0000 0.0000
vt 0.0000 0.0000
vt 0.0000 0.0000
vt 15.6992 -9.7852
vt 0.0000 0.0000
vt 2.6104 0.0977
vt 0.0000 0.0000
vt 0.0000 0.0000
vt 0.0000 0.0020
vt 14.0020 1.4990
vt 0.0000 0.0684
vt 0.4023 0.0977
vt 0.0000 0.0078
vt -0.0010 0.2441
vt 0.0000 0.0000
vt 0.0000 0.0000
vt 0.0000 0.0000
vt 0.0000 0.0000
vt 0.0000 0.0000
vt -0.0020 0.4229
vt 0.0000 0.0000
vt 15.6992 -12.7998
vt 0.0000 0.0000
vt 0.0156 0.4297
vt 16.9209 6.4004
vt 0.0000 0.0000
vt 0.0000 0.0000
vt 0.0000 0.0947
vt 0.0000 0.0000
vt -14.8447 8.0000
vt -14.6738 -16.2119
vt -14.6621 -7.7959
vt 0.0000 1.9531
vt 0.0000 0.6836
vt 0.0000 1.9531
vt 0.0000 1.9531
vt 0.0000 1.9531
vt 0.0000 0.7334
vt 0.0000 0.0977
vt 0.0000 0.1953
vt 0.7100 -31.6055
vt -31.5908 -1.1289
vt 4.9795 -0.0186
vt 7.9434 -3.9346
f 90/90 3/3 115/115
f 55/55 1/1 51/51
f 55/55 2/2 14/14
f 81/81 4/4 106/106
f 97/97 1/1 51/51
f 1/1 1/1 1/1
f 114/114 1/1 51/51
f 116/116 2/2 16/16
f 108/108 1/1 51/51
f 116/116 2/2 37/37
f 108/108 1/1 51/51
f 54/54 1/1 51/51
f 12/12 121/121 121/121
f 80/80 128/128 100/100
f 55/55 125/125 21/21
f 116/116 125/125 21/21
f 108/108 66/66 40/40
f 114/114 67/67 118/118
