mtllib assets10_model_007.mtl
# Conker's Bad Fur Day — Real 3D Model (Spooky Models)
o assets10_model_007
usemtl assets10_model_007_mat

v 0.0000 1.6000 0.0000
v 0.0000 2.2400 0.0000
v 0.0000 2.7200 0.0000
v 0.0000 3.2000 0.0000
v 0.0000 4.4800 0.0000
v 0.0000 4.7200 0.0000
v 0.0000 4.8800 0.0000
v 0.0000 5.2000 0.0000
v -4.7800 -17.4000 22.4700
v 39.4400 -19.1000 6.4200
v 34.8700 -19.0200 11.4900
v 37.2500 -19.0600 1.2400
v 26.0100 -17.7000 8.0200
v 38.3300 -19.0100 6.8400
v 6.4400 -17.7000 2.5600
v 38.7800 -19.0100 7.4700
v 6.4500 -17.5000 2.3200
v 4.6300 -17.8800 1.2700
v 9.2200 -17.6800 6.1800
v 9.1800 -17.5000 1.1400
v 18.9500 -19.0600 -1.0300
v 28.3500 -19.2100 7.0100
v 23.5400 -19.0600 1.1400
v 11.9500 -19.0600 -2.3800
v -5.4300 -19.0100 13.2500
vt 0.0000 0.1953
vt 0.0000 0.2422
vt 0.0000 0.2891
vt 0.0000 0.3594
vt 0.0000 0.0000
vt 0.0000 0.0000
vt 0.0000 0.4922
vt 0.0000 0.5234
vt -0.4463 -1.9307
vt 3.9141 -1.8584
vt 3.5195 -1.7285
vt 3.8389 -1.8564
vt 4.0166 -1.9648
vt 1.9551 -1.7285
vt 3.6631 -1.7910
vt -0.1855 -1.7285
vt 0.2236 -1.7510
vt 1.4395 -1.8584
vt -0.1719 -1.8047
vt 0.5352 -1.7637
vt 1.9414 -1.7734
vt 2.3828 -1.7490
vt 1.5020 -1.7637
vt 0.6611 -1.7637
vt 4.8125 -1.0244
f 1/1 2/2 3/3
f 4/4 5/5 6/6
f 7/7 8/8 9/9
f 10/10 11/11 12/12
f 13/13 14/14 15/15
f 16/16 17/17 18/18
f 19/19 20/20 21/21
f 22/22 23/23 24/24
