# Conker's Bad Fur Day — Real 3D Model (Multiplayer Level Models)
o assets09_model_217

v 0.0000 6.8000 0.0000
v -27.3600 0.0000 17.9200
v -27.4400 20.4800 0.0900
v -27.4400 11.5200 2.6500
v -27.4400 6.7200 5.2000
v -27.4400 6.8000 7.7600
v -27.4400 6.8400 10.3200
v -7.5200 0.0000 0.6400
v 15.4200 5.1200 0.0600
v -33.2800 0.0000 18.0700
v -7.5200 0.0000 1.2800
v -6.8800 0.0000 0.0000
v -27.4400 20.4800 0.0900
v -7.5200 0.0000 0.6400
v 15.3600 25.6200 0.1400
vt 0.0000 0.0000
vt -3.2500 0.0000
vt -3.4375 9.0020
vt -3.4688 8.5020
vt -3.4844 8.2520
vt -3.4922 8.1270
vt -3.4961 8.0645
vt -2.6562 0.2500
vt 1.2559 4.0137
vt -2.6875 1.0000
vt -6.5000 0.0000
vt -3.2500 0.0000
vt -3.4375 9.0020
vt -6.5000 0.0000
vt 1.2656 2.5137
f 4/4 2/2 1/1
f 4/4 8/8 2/2
f 4/4 9/9 8/8
f 1/1 6/6 2/2
f 8/8 6/6 1/1
f 9/9 6/6 8/8
