# Conker's Bad Fur Day — Real 3D Model (It's War Models)
o assets0C_model_001

v 0.0000 0.9600 0.0000
v 0.0000 0.9600 0.0000
v 0.0000 12.1600 0.0000
v 11.7400 11.6700 -9.7800
v 0.0000 0.0300 0.0000
v 0.0000 0.0100 0.0000
v 26.0000 0.0000 6.1100
v 0.3000 0.0000 0.0000
v -9.7800 0.0000 0.0000
v 0.0000 0.1600 0.3000
v -12.2300 0.6200 -4.1300
v 0.0000 0.0300 0.0000
v 0.0000 0.0700 0.0000
v 0.0000 0.0000 6.3200
v 0.3000 0.0000 0.0000
v -39.6900 0.0000 0.0000
v 0.0000 0.1600 0.3000
v 11.7500 1.9600 -27.6400
v 0.0000 0.5100 0.0000
v 0.0000 0.1000 0.0000
v 0.0000 0.0000 11.7000
v -15.7300 0.9000 3.1500
v -2.4800 9.3300 -15.8500
v 0.0000 0.5100 0.0000
v 0.0000 0.1300 0.0000
v 0.0200 0.0200 0.0000
v 0.0200 0.0200 0.0000
v 0.0200 0.0200 0.0000
v 0.0200 0.0200 0.0000
v 0.0200 0.0200 0.0000
v 0.7400 0.0100 0.0000
v 0.7400 0.0100 0.0000
v 5.8100 9.9700 -9.2200
v 0.0000 0.1500 0.0000
v 0.0000 0.0000 17.7300
v 0.0000 0.0200 0.0000
v -0.7600 2.7200 5.9100
v 2.9100 5.2400 0.0000
v -3.3300 -0.9200 -2.1800
v 0.0000 0.0000 0.1200
v 0.0000 0.0400 0.0000
v 0.0000 0.0000 -10.7800
v 7.7600 3.2000 0.0000
v -1.5500 2.4700 7.7600
v 0.1200 5.1400 0.0000
v 16.6300 -1.2900 0.3200
v 0.0000 0.0000 0.1200
v 0.0000 0.0400 0.0000
v 0.0000 0.0000 12.6900
v 4.8300 7.5700 0.0000
v -17.1100 1.5700 4.8300
v 2.6800 5.1200 0.0000
v -7.0800 10.6800 -9.8700
v 0.0000 0.0000 0.4600
v 0.0000 0.0400 0.0000
v 0.0000 0.0000 0.4800
v 4.8300 0.6100 0.0000
v -17.8600 1.1800 5.8600
v 0.4400 5.2200 0.0000
v 11.7900 16.6300 -23.5000
v 0.0000 0.0400 0.0000
v 0.0000 0.0000 11.8600
v 1.2000 0.4300 0.0000
v -18.0900 17.8400 17.1700
v 2.9100 5.2800 0.0000
v 11.8400 10.5500 -13.6100
v 0.0000 0.0400 0.0000
v 0.0000 0.0000 -3.2800
v 4.8300 1.6700 0.0000
v -9.8400 1.5600 4.8300
v 2.7000 5.1200 0.0000
v -3.2300 -0.6300 0.4400
v 0.0000 0.0000 3.1000
v 0.0000 0.0400 0.0000
v 0.0000 0.0000 11.4000
v 0.0000 10.2700 0.0000
v 14.6600 3.6100 0.0000
v 0.0000 0.0500 0.0000
v -33.5200 1.5200 11.1500
v 0.0000 5.1700 0.0000
v 5.5400 -0.4300 -35.9400
v 0.0000 0.0400 0.0000
v 0.0000 0.0000 18.9400
v 0.0000 9.6600 0.0000
v 8.7800 7.2100 0.0000
v 0.0000 0.0800 0.0000
v -18.2800 6.9500 8.7800
v 0.1400 5.1200 0.0000
v 0.0000 0.1500 0.0000
v 0.0000 0.0000 -12.5300
v 0.0000 1.6800 0.0000
v 5.5400 7.2100 0.0000
v 0.0000 0.0300 0.0000
v -9.7800 1.9200 3.9900
v 3.0800 5.1200 0.0000
v -10.0000 9.4300 -10.0600
v 0.0000 0.1500 0.0000
v 0.0000 0.0000 10.9800
v 9.0400 12.1900 0.0000
v -16.1500 2.1900 9.0400
v 0.1500 5.1200 3.2900
v 12.8100 -0.5400 -21.6500
v 0.0000 0.1500 0.0000
v 0.0000 0.0000 -1.3800
v 8.7800 7.2100 0.0000
v -9.6000 22.1700 8.7800
v 0.0400 5.1300 0.0000
v -3.7000 -0.3300 -9.1100
v 0.0000 0.0000 18.5600
v 5.3900 5.1800 0.0000
v -19.3500 2.1800 1.8500
v 0.0200 5.1600 0.0000
v -3.4600 2.2100 0.6900
v 0.0000 0.3100 0.0000
v 0.0000 0.0000 11.9300
v 8.7800 7.2100 0.0000
v 9.7000 -7.6900 0.0000
v -9.6000 0.6900 5.1900
v 0.3700 15.3600 10.2300
v 15.5700 5.8000 -0.4800
v 0.0000 0.3000 0.0000
v 0.0000 0.0000 4.7700
v 5.1900 6.5200 0.0000
v 9.3300 -0.0100 0.0000
v 0.3700 15.3600 10.2300
v 6.4500 -0.4100 -22.7500
v 0.0000 0.0000 12.8800
v 4.7200 6.5200 0.0000
v -19.6900 2.1900 8.7800
v 0.2000 5.1300 0.0000
v 5.4900 -0.5300 -24.5700
v 0.0000 0.0000 3.4900
v 0.0000 0.0500 0.0000
v 0.0400 5.1300 0.0000
v -2.6400 -9.8400 -17.4300
v 0.0000 0.0000 0.3500
v 0.0000 0.0400 0.0000
v 0.0000 0.0000 -13.0600
v 0.0000 1.2400 0.0000
v 8.7800 6.5200 0.0000
v 0.0000 0.0300 0.0000
v -9.7900 19.6300 11.6900
v 2.6000 5.1300 0.0000
v 11.1000 2.5000 -12.2300
v 0.0000 0.0000 -0.6400
v 0.0000 0.1400 0.0000
v -32.6800 8.2000 14.6600
v 0.0200 5.1700 0.0000
v -3.1700 4.3000 -16.4500
v 0.0000 0.0000 -3.3400
v 4.3700 2.0800 0.0000
v 0.0000 0.1600 0.0000
v -3.1000 0.0300 -2.5000
v 18.4300 0.0800 -33.5300
v 16.6500 0.4400 -22.8700
v 16.6900 0.0800 -33.5200
v -5.8500 12.4800 -11.7900
v 12.9200 2.6800 -25.2800
v 7.1500 11.5000 -29.8400
v 12.0800 3.4500 -33.3900
v -9.8500 4.2200 -12.3500
v 11.7700 14.1800 -3.0200
v 1.0300 18.2200 -10.7000
v -3.0400 10.2100 -9.3600
v 6.5900 11.2200 -22.0300
v 0.0000 0.1600 0.0200
v 17.6800 -19.6900 -0.5300
v 0.0000 0.0000 0.3100
vt 0.0000 0.0938
vt 0.0000 0.9688
vt 0.0000 1.5000
vt 0.0000 0.0000
vt 0.0293 0.0000
vt 0.0000 0.0000
vt 0.1094 0.0000
vt 15.8750 0.0000
vt 0.0000 0.0000
vt 0.0000 0.0000
vt 0.0000 0.0000
vt 0.0293 0.0000
vt 0.0000 0.0000
vt -3.0283 0.0000
vt 15.8750 0.0000
vt 0.0000 0.0000
vt 0.0000 0.0000
vt 0.0000 0.0000
vt 0.0000 0.0000
vt 0.0000 0.0000
vt -2.7764 0.0889
vt 0.0000 0.0000
vt 0.0430 0.0000
vt 0.0000 0.0000
vt 0.0000 0.0000
vt 8.0000 12.0000
vt 8.0020 12.0020
vt 8.0039 12.0039
vt 8.0059 12.0059
vt 8.0068 12.0068
vt 8.0088 0.0000
vt 8.0117 0.0000
vt 0.8574 0.6367
vt 0.0000 0.0000
vt -2.2031 0.2100
vt 0.0000 0.0039
vt 15.8242 -12.7021
vt 0.0000 0.0098
vt 0.7578 0.3125
vt 0.0000 0.0000
vt 0.0000 0.0000
vt -1.4580 0.2266
vt 0.0000 0.0000
vt 0.0000 0.0000
vt 0.0000 0.0000
vt 0.7578 0.3125
vt 0.0000 0.0000
vt 0.0000 0.0000
vt -2.1465 1.4863
vt 0.0000 0.0000
vt 0.0000 0.0000
vt 0.0000 0.0000
vt 0.4717 0.0596
vt 0.0000 0.0000
vt 0.0000 0.0000
vt -0.9619 0.2168
vt 0.0000 0.0000
vt 0.0000 0.0000
vt 0.0000 0.0000
vt 0.0791 0.0703
vt 0.0000 0.0000
vt -2.2256 0.0420
vt 0.0000 0.0000
vt 16.6758 25.5986
vt 0.0000 0.0000
vt 0.4717 0.0596
vt 0.0000 0.0000
vt -0.9697 0.1523
vt 15.5742 -16.0117
vt 0.0000 0.0000
vt 0.0000 0.0000
vt 0.4600 0.1670
vt 0.0000 0.0068
vt 0.0000 0.0000
vt -3.1768 0.7080
vt 0.0000 0.0000
vt 0.0000 0.0000
vt 0.0000 0.0039
vt 0.0000 0.0000
vt 0.0000 0.4658
vt 1.0889 0.4775
vt 0.0000 0.0000
vt -3.2705 0.0938
vt 0.0000 0.0000
vt 0.0000 0.0000
vt 0.0000 0.0039
vt 0.0000 0.0000
vt 0.0000 0.2871
vt 0.0000 0.0000
vt -0.9414 0.2656
vt 0.0000 0.0000
vt 16.9248 19.1992
vt 0.0000 0.0146
vt 0.0000 0.0000
vt 0.0000 0.0000
vt 0.8828 1.1904
vt 0.0000 0.0000
vt -1.0020 1.1553
vt 16.7900 12.8076
vt 0.0000 0.0000
vt 0.3330 -30.6201
vt 0.5176 0.2695
vt 0.0000 0.0000
vt -0.8750 2.2549
vt 16.9248 -19.2002
vt 0.0000 0.0000
vt 0.0000 0.0000
vt 0.9834 0.4609
vt -1.9111 0.3525
vt 16.9248 -19.2002
vt 0.0000 0.0000
vt 0.0000 0.1641
vt 0.5068 0.6367
vt 0.0000 0.0000
vt -2.5977 0.0693
vt 16.9248 -19.2002
vt 0.0000 0.0293
vt 0.0000 0.0000
vt 0.0000 0.0000
vt 0.5068 0.6367
vt 0.0000 0.0000
vt -0.2812 0.0674
vt 16.9248 -19.2002
vt 0.0000 0.0293
vt 0.0000 12.5000
vt 0.8574 0.6367
vt -2.7236 0.3154
vt 16.9248 -19.2002
vt 0.0000 0.0000
vt 0.0000 0.0000
vt 0.8574 0.6367
vt -0.7588 0.0674
vt 0.0000 0.0000
vt 0.0000 0.0000
vt 1.7285 1.2979
vt 0.0000 0.0020
vt 0.0000 0.0000
vt -0.9785 0.3574
vt 0.0000 0.0000
vt 16.9248 -19.2002
vt 0.0000 0.0146
vt 0.0000 0.0000
vt 0.0000 0.0000
vt 1.4023 1.0596
vt -0.9414 1.0859
vt 0.0000 0.0049
vt 0.0000 0.0000
vt 0.0000 0.7646
vt 0.4717 0.7393
vt -0.0576 0.3105
vt 16.9248 -19.2002
vt 0.0000 0.0000
vt -14.9609 -32.0000
vt 17.1729 16.0000
vt 17.1406 -8.0000
vt 17.1533 -16.0000
vt 0.0000 0.7812
vt 0.0000 1.0176
vt 0.0000 1.0928
vt 0.0000 0.4658
vt 0.0000 0.7812
vt 0.0000 0.5107
vt 0.0000 0.7812
vt 0.0000 0.7812
vt 0.0000 0.7812
vt 0.0000 0.0000
vt -31.7861 0.5361
vt 0.0312 0.0000
f 80/80 1/1 54/54
f 103/103 1/1 1/1
f 37/37 3/3 83/83
f 67/67 1/1 1/1
f 64/64 128/128 64/64
f 17/17 1/1 124/124
f 94/94 1/1 53/53
f 1/1 128/128 102/102
f 11/11 2/2 35/35
f 105/105 1/1 35/35
f 75/75 128/128 108/108
f 41/41 1/1 74/74
f 118/118 3/3 25/25
f 90/90 26/26 26/26
f 79/79 3/3 31/31
f 44/44 2/2 7/7
f 49/49 1/1 93/93
f 65/65 1/1 23/23
f 9/9 1/1 75/75
f 67/67 1/1 5/5
f 117/117 1/1 64/64
f 41/41 3/3 127/127
f 108/108 1/1 1/1
f 7/7 1/1 7/7
f 117/117 125/125 40/40
f 102/102 2/2 56/56
