mtllib assets09_model_148.mtl
# Conker's Bad Fur Day — Real 3D Model (Multiplayer Level Models)
o assets09_model_148
usemtl assets09_model_148_mat

v 0.0000 10.1600 0.0000
v 0.3300 10.0200 -0.0100
v 2.6500 10.1800 -0.0100
v 0.2400 10.1700 -0.0100
v 4.3100 10.0400 -0.0100
v 0.2400 10.1700 -0.0100
v 4.9500 10.1000 -0.0100
v 4.7600 8.3500 -0.0100
v 2.9300 6.7700 -0.0100
v 4.6100 0.7200 -0.0100
v -0.6900 0.2900 -0.0100
v 6.0000 0.1700 -0.0100
v 2.5100 6.1300 -0.0100
v 0.8900 1.0700 -0.0100
v 15.6600 2.4600 -0.0100
v 0.9400 2.4100 -0.0100
v 0.9300 4.4200 -0.0100
v 0.9300 4.4200 -0.0100
v 15.6600 2.4600 -0.0100
v 7.9400 7.4200 -0.0100
v 1.3600 3.3600 -0.0100
v 8.6000 5.6000 -0.0100
v 8.4500 7.6600 -0.0100
v -0.0600 1.9000 -0.0100
v 8.3900 4.6600 -0.0100
v 0.0600 8.2700 -0.0100
v 0.0600 8.2700 -0.0100
v 8.4500 7.6600 -0.0100
v -0.0600 1.9000 -0.0100
v 17.9500 3.0400 -0.0100
v 10.8600 3.4100 -0.0100
v 10.8500 8.4700 -0.0100
v 19.9900 8.4400 -0.0100
v 17.9100 4.2100 -0.0100
v 20.1300 8.4100 -0.0100
v 20.0800 5.8700 -0.0100
v -1.2800 4.4500 -0.0100
v -0.3600 2.6900 -0.0100
v 7.5700 6.8300 -0.0100
v 8.4900 5.0700 -0.0100
v 4.3800 1.8300 -0.0100
v 4.6700 6.8500 -0.0100
v 1.2900 6.6800 -0.0100
v 1.0100 1.6600 -0.0100
v 17.9100 4.2100 -0.0100
v 20.0800 5.8700 -0.0100
v 6.1100 4.0100 -0.0100
v 5.5000 6.1700 -0.0100
v 1.1500 2.8000 -0.0100
v 19.9900 8.4400 -0.0100
v 10.8500 8.4700 -0.0100
v 17.9500 3.0400 -0.0100
v 20.0800 5.8700 -0.0100
v 20.1300 8.4100 -0.0100
v 17.9100 4.2100 -0.0100
v 10.8600 3.4100 -0.0100
v 10.5600 8.3500 -0.0100
v 10.4800 4.1500 -0.0100
v 8.4500 7.6600 -0.0100
v 10.5600 8.3500 -0.0100
v 8.4500 7.6600 -0.0100
v -28.0000 0.0000 17.9200
v -33.2800 0.0000 18.0700
v -28.1600 2.5600 15.3600
v -7.5200 0.0000 0.6400
v -7.5200 0.0000 0.6400
v -7.5200 0.0000 0.6400
v -7.5200 0.0000 0.0000
v -33.2800 0.0000 18.5500
vt 0.0000 0.9961
vt -0.0684 -0.0186
vt -0.0518 -0.0137
vt -0.0361 -0.0127
vt -0.0518 -0.0137
vt -0.0684 -0.0088
vt -0.0684 -0.0186
vt -0.0684 -0.0088
vt -0.0518 -0.0137
vt -0.1084 -0.0088
vt -0.1084 -0.0186
vt -0.1084 -0.0137
vt -0.1084 -0.0088
vt 0.0049 -0.0146
vt -0.1084 -0.0186
vt -0.1084 -0.0137
vt -0.1084 -0.0137
vt 0.0049 -0.0146
vt -0.0059 -0.0205
vt 0.0400 -0.0117
vt -0.0059 -0.0068
vt -0.0059 -0.0068
vt 0.0400 -0.0137
vt -0.0166 -0.0137
vt 0.0400 -0.0117
vt 0.0400 -0.0117
vt -0.0059 -0.0205
vt 0.0400 -0.0137
vt -0.0576 -0.0225
vt -0.0166 -0.0137
vt -0.0166 -0.0225
vt -0.0693 -0.0225
vt -0.0576 -0.0225
vt -0.0693 -0.0225
vt -0.0693 -0.0225
vt -0.0166 -0.0225
vt -0.0166 -0.0049
vt -0.0693 -0.0225
vt -0.0693 -0.0049
vt -0.0693 -0.0225
vt -0.0693 -0.0225
vt -0.0693 -0.0049
vt -0.0693 -0.0049
vt -0.0576 -0.0049
vt -0.0693 -0.0049
vt -0.0576 -0.0225
vt -0.0576 -0.0049
vt -0.0166 -0.0137
vt -0.0693 -0.0049
vt -0.0166 -0.0049
vt -0.0576 -0.0049
vt -0.0693 -0.0049
vt -0.0693 -0.0049
vt -0.0576 -0.0049
vt -0.0166 -0.0137
vt -0.0166 -0.0225
vt -0.0166 -0.0137
vt -0.0059 -0.0205
vt -0.0166 -0.0049
vt -0.0059 -0.0068
vt 0.0000 1.0781
vt -6.5000 0.0000
vt -6.2500 0.0000
vt -6.5000 0.0000
vt -4.0000 0.0000
vt -4.0000 0.0000
vt -4.0000 0.0000
vt -6.5000 0.0000
vt -6.2500 0.0000
f 1/1 2/2 3/3
f 4/4 5/5 6/6
f 5/5 7/7 6/6
f 8/8 9/9 4/4
f 26/26 17/17 27/27
f 15/15 17/17 26/26
f 28/28 29/29 30/30
f 8/8 10/10 11/11
f 11/11 10/10 12/12
f 9/9 11/11 12/12
