mtllib assets09_model_091.mtl
# Conker's Bad Fur Day — Real 3D Model (Multiplayer Level Models)
o assets09_model_091
usemtl assets09_model_091_mat

v 0.0000 5.3600 0.0000
v 1.1300 -0.2900 -38.5600
v 2.8000 1.8700 -0.0100
v 2.8200 10.0900 -0.0100
v 4.3900 2.1200 -2.5800
v 1.6100 0.9900 1.3400
v 3.2700 1.0900 -0.0100
v 2.5100 11.0900 -0.0100
v 4.2200 0.0500 -2.5800
v 2.5900 2.0200 1.3400
v 4.4700 1.7300 -0.0100
v 2.6800 10.6400 -0.0100
v 1.0900 1.2000 -0.0100
v 0.4600 0.6500 1.3400
v 3.0400 9.8800 -0.0100
v 2.3800 0.9800 -0.0100
v 2.4300 0.2200 -2.5800
v 2.7800 9.4600 -0.0100
v 0.8000 0.2500 -0.0100
v 2.7900 10.2600 -0.0100
v 3.1500 -0.0700 -38.5600
v 3.9300 -0.2400 -0.0100
v 1.4100 0.9700 -2.5800
v 2.6300 10.3900 -0.0100
v 3.0600 1.9000 -0.0100
v 0.6400 0.2700 -0.0100
v 3.2400 1.4400 -2.5800
v 2.7900 8.7700 -0.0100
v -28.0000 0.0000 17.9200
v -33.2800 0.0000 18.0700
v -28.1600 2.5600 15.3600
v -7.5200 0.0000 0.6400
v 15.3600 5.1600 0.0200
v 15.3600 5.1600 0.0200
v 15.3600 5.1600 0.0200
v 15.3600 5.1600 0.0200
v 15.3600 5.1600 0.0200
v 15.3600 5.1600 0.0200
v 15.3600 5.1600 0.0200
v 15.3600 5.1600 0.0200
vt 0.0000 0.0000
vt -0.0127 0.0596
vt -0.0137 0.1143
vt 0.0078 0.0664
vt -0.0146 0.0527
vt -0.0137 0.0635
vt -0.0293 0.1104
vt 0.0059 0.0645
vt 0.0020 0.0508
vt 0.0010 0.0674
vt 0.0342 0.0957
vt 0.0195 0.0479
vt -0.0049 0.0254
vt 0.0283 0.0059
vt 0.0186 0.0312
vt -0.0195 0.0283
vt -0.0400 0.0088
vt 0.0020 0.0283
vt 0.0254 0.1182
vt 0.0156 0.0586
vt 0.0088 0.0352
vt 0.0176 0.0586
vt 0.0801 0.0469
vt 0.0234 0.0371
vt -0.0195 0.0361
vt -0.0195 0.0586
vt -0.0762 0.0654
vt -0.0098 0.0469
vt -6.5000 0.0000
vt -6.2500 0.0000
vt -6.5000 0.0000
vt -4.0000 0.0000
vt 1.2559 0.0039
vt 1.2559 0.0039
vt 1.2559 0.0039
vt 1.2559 0.0039
vt 1.2559 0.0039
vt 1.2559 0.0039
vt 1.2559 0.0039
vt 1.2559 0.0039
f 1/1 2/2 3/3
f 2/2 4/4 3/3
f 4/4 1/1 3/3
f 1/1 2/2 3/3
f 2/2 4/4 3/3
f 4/4 1/1 3/3
f 1/1 2/2 3/3
f 2/2 4/4 3/3
f 4/4 1/1 3/3
f 1/1 2/2 3/3
f 2/2 4/4 3/3
f 4/4 1/1 3/3
f 1/1 2/2 3/3
f 2/2 4/4 3/3
f 4/4 1/1 3/3
f 1/1 2/2 3/3
f 2/2 4/4 3/3
f 4/4 1/1 3/3
f 1/1 2/2 3/3
f 2/2 4/4 3/3
f 4/4 1/1 3/3
f 1/1 2/2 3/3
f 2/2 4/4 3/3
f 4/4 1/1 3/3
