# Conker's Bad Fur Day — Real 3D Model (Heist Models)
o assets11_model_000

v 0.0000 0.1600 0.0000
v 0.2100 2.0000 12.8100
v 0.6000 0.0000 0.2700
v 0.4900 1.0000 0.8700
v 10.2900 0.0000 10.0000
v 12.8500 0.0000 0.0000
v 12.8500 0.0000 0.0000
v 10.2900 0.0000 0.0000
v 7.6800 0.0000 0.0000
v 2.6100 0.0000 0.0000
v 0.0500 12.8000 10.0000
v 5.1700 0.0000 0.0000
v 10.2400 10.0000 0.0000
v 30.7700 0.0000 0.0000
v 23.2600 0.0000 0.0000
v 0.0000 0.0500 0.0000
v 2.6100 0.0000 0.0000
v 0.0000 0.0500 0.0000
v 0.0500 0.0000 0.0000
vt 0.0000 0.0781
vt 6.2754 6.7744
vt 0.2490 0.0498
vt 11.2559 2.9297
vt 6.2744 0.0049
vt 6.2744 0.7549
vt 7.5293 0.5049
vt 7.2783 0.7549
vt 2.2549 0.7500
vt 8.2822 0.5049
vt 7.5293 2.7549
vt 8.2822 0.5098
vt 1.7549 0.0000
vt 7.5273 1.0049
vt 6.2744 3.7549
vt 0.0000 0.0000
vt 8.0312 0.5049
vt 0.0000 0.0000
vt 7.7803 0.0049
f 3/3 1/1 1/1
f 3/3 1/1 1/1
f 3/3 1/1 1/1
f 3/3 1/1 1/1
