mtllib assets09_model_164.mtl
# Conker's Bad Fur Day — Real 3D Model (Multiplayer Level Models)
o assets09_model_164
usemtl assets09_model_164_mat

v 0.0000 14.4800 0.0000
v 10.2000 -0.1100 -2.5800
v 10.1500 10.8500 -2.5800
v 8.1200 0.8100 -2.5800
v 0.8900 0.9400 -2.5800
v 0.7900 7.6400 -2.5800
v 7.7800 7.5100 -2.5800
v 6.3000 7.4400 -0.0100
v 2.4100 7.5000 -0.0100
v 2.4400 1.2800 -0.0100
v 6.3300 1.2300 -0.0100
v 10.2900 10.3900 -2.5800
v 10.2400 0.5500 -2.5800
v 0.0400 11.1000 -2.5800
v -0.0100 -0.5800 -2.5800
v 9.3100 0.7800 -2.5800
v 8.1200 0.8100 -2.5800
v 9.2100 7.4800 -2.5800
v 7.7800 7.5100 -2.5800
v 5.3800 4.8400 -2.5800
v 6.0900 1.4500 -2.5800
v 0.2600 3.8000 -2.5800
v 7.9200 8.8900 -2.5800
v 4.5300 8.2000 -2.5800
v 0.9100 7.4600 -2.5800
v 4.0400 9.5700 -2.5800
v 7.7700 5.3300 -2.5800
v 8.1300 3.6400 -2.5800
v 7.7800 1.8000 -2.5800
v 8.6700 7.8800 -2.5800
v 7.8600 1.0800 -2.5800
v 7.2500 9.3400 -2.5800
v 3.8800 8.3600 -2.5800
v 4.8200 4.9400 -2.5800
v 7.2100 5.6400 -2.5800
v 0.3600 3.6400 -2.5800
v 5.9000 1.5600 -2.5800
v 7.0500 3.7400 -2.5800
v 7.5800 2.0500 -2.5800
v 0.7200 7.4400 -2.5800
v 3.6200 9.8200 -2.5800
v 7.8700 1.3700 -2.5800
v 10.0900 -0.0900 -2.5800
v 10.1200 10.7600 -2.5800
v 4.9500 0.2800 -2.5800
v 5.0800 10.5100 -2.5800
v 0.3300 10.3500 -2.5800
v 0.3000 0.5400 -2.5800
v -28.1600 10.2400 0.0900
v -7.5200 0.0000 0.0000
v -7.5200 0.0000 0.6400
v -28.0800 11.5200 2.6500
v -28.0800 6.7200 5.2000
v -28.0800 6.8000 7.7600
v -7.5200 0.0000 0.6400
v -7.5200 0.0000 0.0000
v -33.2800 0.0000 18.0700
v -28.1600 10.2400 0.0900
v -7.5200 0.0000 0.0000
v -33.2800 0.0000 18.3400
v -28.0800 20.4800 0.0900
v -7.5200 0.0000 17.9200
v -33.2800 0.0000 18.5500
v 12.9000 30.8800 0.0000
v -7.5200 0.0000 15.3600
v -33.2800 0.0000 18.5500
v 15.5400 5.3400 0.0200
v -7.5200 0.0000 0.6400
vt 0.0000 1.4180
vt -0.0352 0.0479
vt 0.0352 0.0479
vt 0.0352 0.0479
vt -0.0352 0.0479
vt -0.0352 0.0479
vt 0.0322 0.0254
vt -0.0322 0.0254
vt -0.0322 0.0254
vt 0.0322 0.0000
vt -0.0322 0.0000
vt 0.0322 0.0000
vt 0.0322 0.0000
vt 0.0381 0.0000
vt 0.0381 0.0000
vt 0.0020 0.0244
vt -0.0020 0.0215
vt -0.0020 0.0244
vt 0.0332 0.0225
vt 0.0010 0.0049
vt 0.0312 0.0195
vt 0.0195 0.0020
vt 0.0078 0.0439
vt 0.0273 0.0410
vt 0.0000 -0.0029
vt 0.0117 0.0273
vt 0.0117 0.0176
vt 0.0117 0.0068
vt 0.0088 0.0420
vt -0.0010 0.0518
vt 0.0088 0.0420
vt -0.0078 0.0371
vt -0.0029 0.0205
vt 0.0117 0.0273
vt -0.0244 0.0146
vt 0.0020 0.0049
vt -0.0127 0.0000
vt 0.0117 0.0068
vt -0.0225 0.0322
vt 0.0049 -0.0020
vt -0.0010 0.0518
vt 0.0020 0.0215
vt -0.0020 0.0215
vt 0.0332 0.0215
vt -0.0332 0.0215
vt -0.0322 0.0254
vt 0.0322 0.0254
vt 0.0000 1.5625
vt -3.5000 8.0020
vt -2.7344 0.0000
vt -4.0000 0.0000
vt -3.5000 8.0020
vt -3.5000 8.0020
vt -3.5000 8.0020
vt -4.0000 0.0000
vt -6.5000 0.0000
vt -6.2500 0.0000
vt -4.2422 -20.9385
vt -6.5000 0.0000
vt -6.2500 0.0000
vt -4.2256 -20.9385
vt -6.5000 0.0000
vt -6.2500 0.0000
vt -6.2500 0.0000
vt -6.5000 0.0000
vt -6.2500 0.0000
vt -6.2500 0.0000
vt -4.0000 0.0000
f 17/17 18/18 7/7
f 17/17 7/7 8/8
f 19/19 27/27 28/28
f 19/19 28/28 20/20
f 9/9 10/10 1/1
f 9/9 1/1 2/2
f 23/23 14/14 15/15
f 24/24 16/16 14/14
f 4/4 2/2 8/8
f 5/5 6/6 9/9
f 6/6 7/7 9/9
f 10/10 2/2 12/12
f 2/2 1/1 12/12
