# Conker's Bad Fur Day — Real 3D Model (Spooky Models)
o assets10_model_020

v 0.0000 2.0000 0.0000
v 0.0000 2.3200 0.0000
v 0.0000 3.7600 0.0000
v 0.0000 5.2000 0.0000
v 0.0000 6.6400 0.0000
v 0.0000 7.4400 0.0000
v 0.0000 8.2400 0.0000
v 0.0000 8.5600 0.0000
v 0.0000 9.3600 0.0000
v 0.0000 9.6800 0.0000
v 0.0000 10.0000 0.0000
v 0.0000 10.3200 0.0000
v 0.0000 10.6400 0.0000
v -10.0300 -0.3800 -17.7800
v -13.1700 -0.3800 21.3100
v 14.6200 -0.3800 -19.8200
v -12.7900 -0.4400 8.4900
v -0.2000 -0.2000 -4.3600
v -27.7800 -0.3800 -4.1900
v 19.6800 -0.3800 8.9800
v 10.3000 -0.3300 0.2800
v 7.4600 -0.3800 27.2100
v -10.0300 -0.3800 -17.7800
v -13.1700 -0.3800 21.3100
v 14.6200 -0.3800 -19.8200
v -12.7900 -0.4400 8.4900
v -0.2000 -0.2000 -4.3600
v -27.7800 -0.3800 -4.1900
v 19.6800 -0.3800 8.9800
v 10.3000 -0.3300 0.2800
v 7.4600 -0.3800 27.2100
v -10.0300 -0.3800 -17.7800
v -13.1700 -0.3800 21.3100
v 14.6200 -0.3800 -19.8200
v -12.7900 -0.4400 8.4900
v -0.2000 -0.2000 -4.3600
v -27.7800 -0.3800 -4.1900
v 19.6800 -0.3800 8.9800
v 10.3000 -0.3300 0.2800
v 7.4600 -0.3800 27.2100
v -33.8400 -0.3800 8.1900
v -6.9100 -0.2800 -2.7900
v -32.0500 -0.3800 -0.6000
v -33.8400 -0.3800 8.1900
v -6.9100 -0.2800 -2.7900
v -30.6600 -0.3800 12.0800
v 0.4500 0.0000 -3.9200
v 0.4500 0.0000 -3.9200
v -33.8400 -0.3800 8.1900
v -6.9100 -0.2800 -2.7900
v -24.1100 -0.3800 18.5100
v 7.8500 -0.4400 15.4900
v 7.8500 -0.4400 15.4900
v 7.8500 -0.4400 15.4900
v 7.8500 -0.4400 15.4900
v 4.6600 -0.2500 5.1900
v 4.6600 -0.2500 5.1900
v 4.6600 -0.2500 5.1900
vt 0.0000 0.2109
vt 0.0000 0.2969
vt 0.0000 0.4375
vt 0.0000 0.5781
vt 0.0000 0.6875
vt 0.0000 0.7656
vt 0.0000 0.8203
vt 0.0000 0.8750
vt 0.0000 0.9297
vt 0.0000 0.9609
vt 0.0000 0.9922
vt 0.0000 1.0234
vt 0.0000 0.0000
vt -2.7129 -0.0371
vt 1.9219 -0.0371
vt 1.0059 -0.0322
vt 0.7285 -0.0371
vt -0.9795 -0.0371
vt -1.2861 -0.0371
vt 1.4277 -0.0371
vt -1.2490 -0.0430
vt -0.0195 -0.0195
vt -2.7129 -0.0371
vt 1.9219 -0.0371
vt 1.0059 -0.0322
vt 0.7285 -0.0371
vt -0.9795 -0.0371
vt -1.2861 -0.0371
vt 1.4277 -0.0371
vt -1.2490 -0.0430
vt -0.0195 -0.0195
vt -2.7129 -0.0371
vt 1.9219 -0.0371
vt 1.0059 -0.0322
vt 0.7285 -0.0371
vt -0.9795 -0.0371
vt -1.2861 -0.0371
vt 1.4277 -0.0371
vt -1.2490 -0.0430
vt -0.6748 -0.0273
vt -3.0059 -0.0371
vt -5.6191 0.3359
vt -0.6748 -0.0273
vt -3.1973 -0.0371
vt -5.6191 0.3359
vt 0.0439 0.0000
vt 0.0439 0.0000
vt -0.6748 -0.0273
vt -2.7061 -0.0371
vt -5.6191 0.3359
vt 0.7666 -0.0430
vt 0.7666 -0.0430
vt 0.7666 -0.0430
vt 0.7666 -0.0430
vt 0.4551 -0.0244
vt 0.4551 -0.0244
vt 0.4551 -0.0244
vt -8.2090 2.1250
f 1/1 2/2 3/3
f 4/4 5/5 6/6
f 7/7 8/8 9/9
f 10/10 11/11 12/12
f 13/13 14/14 15/15
f 16/16 17/17 18/18
f 19/19 20/20 21/21
f 22/22 23/23 24/24
f 25/25 26/26 27/27
f 28/28 29/29 30/30
f 31/31 32/32 33/33
f 34/34 35/35 36/36
f 37/37 38/38 39/39
f 40/40 41/41 42/42
f 43/43 44/44 45/45
f 46/46 47/47 48/48
f 49/49 50/50 51/51
f 52/52 53/53 54/54
f 55/55 56/56 57/57
