mtllib assets09_model_123.mtl
# Conker's Bad Fur Day — Real 3D Model (Multiplayer Level Models)
o assets09_model_123
usemtl assets09_model_123_mat

v 0.0000 7.4400 0.0000
v 2.5400 16.3600 -0.0100
v 4.7100 16.3300 -0.0100
v 2.5300 17.9800 -0.0100
v 4.1800 17.9500 -0.0100
v 2.5400 16.3600 -0.0100
v 2.5300 17.9800 -0.0100
v 4.6500 7.8900 -0.0100
v 2.4700 7.9200 -0.0100
v 2.4700 7.9200 -0.0100
v 4.3700 6.3900 -0.0100
v 2.7200 6.4200 -0.0100
v 2.7200 6.4200 -0.0100
v 2.7200 5.7500 -0.0100
v 8.1500 4.6400 -0.0100
v 1.0300 6.5400 -0.0100
v 8.9000 1.6500 -0.0100
v 2.4700 3.0700 -0.0100
v 0.2100 5.1000 -0.0100
v 6.9700 0.8500 -0.0100
v 1.0300 6.5400 -0.0100
v 8.2000 4.7200 -0.0100
v 0.2100 5.1000 -0.0100
v 2.4700 3.0700 -0.0100
v 8.9300 1.6300 -0.0100
v 6.9700 0.8500 -0.0100
v 7.6800 2.4500 -0.0100
v 7.7200 2.5200 -0.0100
v 6.5500 0.4500 -0.0100
v 1.0500 4.0400 -0.0100
v 0.3300 5.4600 -0.0100
v 0.3300 5.4600 -0.0100
v 1.0500 4.0400 -0.0100
v -28.0000 0.0000 17.9200
v -33.2800 0.0000 18.2300
v -28.1600 2.5600 15.3600
v -7.5200 0.0000 0.6400
v -7.5200 0.0000 0.6400
vt 0.0000 0.0000
vt -0.0049 -0.0098
vt -0.0068 -0.0225
vt -0.0039 -0.0117
vt 0.0029 -0.0312
vt 0.0049 -0.0186
vt -0.0059 -0.0205
vt 0.0020 -0.0293
vt 0.0068 -0.0186
vt -0.0049 -0.0117
vt -0.0068 -0.0225
vt 0.0020 -0.0283
vt -0.0010 -0.0195
vt 0.0000 -0.0127
vt 0.0029 -0.0225
vt 0.0029 -0.0225
vt 0.0029 -0.0322
vt 0.0000 -0.0244
vt 0.0039 -0.0352
vt -0.0039 -0.0137
vt -0.0039 -0.0254
vt 0.0000 -0.0244
vt 0.0029 -0.0322
vt -0.0039 -0.0254
vt 0.0039 -0.0352
vt 0.0029 -0.0225
vt -0.0039 -0.0254
vt 0.0039 -0.0352
vt 0.0029 -0.0225
vt -0.0039 -0.0137
vt -0.0039 -0.0137
vt 0.0000 -0.0244
vt -0.0039 -0.0254
vt -6.5000 0.0000
vt -6.2500 0.0000
vt -6.5000 0.0000
vt -4.0000 0.0000
vt -4.0000 0.0000
f 18/18 19/19 20/20
f 21/21 22/22 23/23
