mtllib assets09_model_051.mtl
# Conker's Bad Fur Day — Real 3D Model (Multiplayer Level Models)
o assets09_model_051
usemtl assets09_model_051_mat

v 0.0000 2.8000 0.0000
v 2.4800 3.4500 -0.0100
v 0.2500 3.4400 -0.0100
v 0.2800 0.0000 -0.0100
v 2.5100 0.0000 -0.0100
v 4.7300 0.0000 -0.0100
v 4.7100 3.4500 -0.0100
v 3.8800 0.0000 -0.0100
v 3.8600 3.4500 -0.0100
v 1.1000 3.4500 -0.0100
v 1.1300 0.0000 -0.0100
v 2.4700 5.1500 -0.0100
v 1.2100 0.6600 -0.0100
v 4.7900 3.3400 -0.0100
v 0.3700 3.3500 -0.0100
v 2.5800 5.0100 -0.0100
v 3.9400 0.6500 -0.0100
v -28.0000 0.0000 17.9200
v -33.2800 0.0000 17.9900
v -28.1600 2.5600 15.3600
v -7.5200 0.0000 0.6400
v 2.5700 0.3200 2.5600
v -7.5200 0.0000 0.6400
vt 0.0000 0.0000
vt 0.0166 0.0059
vt 0.0166 0.0059
vt 0.0000 0.0176
vt -0.0166 0.0059
vt -0.0166 0.0059
vt -0.0107 -0.0146
vt -0.0107 -0.0146
vt 0.0107 -0.0146
vt 0.0107 -0.0146
vt 0.0000 0.0000
vt 0.0107 -0.0146
vt -0.0166 0.0059
vt 0.0166 0.0059
vt 0.0000 0.0176
vt -0.0107 -0.0146
vt 0.0000 0.2812
vt -6.5000 0.0000
vt -6.2500 0.0000
vt -6.5000 0.0000
vt -4.0000 0.0000
vt 4.6250 -28.8750
vt -4.0000 0.0000
f 6/6 11/11 1/1
f 8/8 11/11 6/6
f 9/9 11/11 8/8
f 12/12 13/13 14/14
f 15/15 14/14 13/13
f 13/13 12/12 16/16
