mtllib assets09_model_088.mtl
# Conker's Bad Fur Day — Real 3D Model (Multiplayer Level Models)
o assets09_model_088
usemtl assets09_model_088_mat

v 0.0000 3.7600 0.0000
v 9.9400 0.6800 -2.5800
v 4.3600 2.2200 -2.5800
v 1.1400 9.8100 -2.5800
v 4.7600 2.2900 -2.5800
v 11.3600 0.9500 -2.5800
v 8.6400 9.7300 -2.5800
v -1.9000 1.0800 -2.5800
v 0.9900 9.8100 -2.5800
v 10.2100 9.9400 -2.5800
v -0.3600 9.7200 -2.5800
v 4.4200 3.5500 -2.5800
v 9.9400 0.6800 -2.5800
v 4.3600 2.2200 -2.5800
v 1.1400 9.8100 -2.5800
v 2.6800 14.6800 -2.5800
v 4.6500 2.0600 -2.5800
v 4.6500 2.0600 -2.5800
v 4.6500 2.0600 -2.5800
v 2.6800 14.6800 -2.5800
v 0.4900 1.2400 -2.5800
v 4.6500 2.0600 -2.5800
v -28.0000 0.0000 17.9200
v -33.2800 0.0000 18.2300
v -28.1600 2.5600 15.3600
v -7.5200 0.0000 0.6400
v -7.5200 0.0000 0.6400
vt 0.0000 0.0000
vt 0.0000 0.0117
vt -0.0137 0.0186
vt 0.0000 0.0029
vt -0.0205 0.0010
vt -0.0137 0.0186
vt 0.0205 0.0010
vt 0.0176 0.0127
vt 0.0176 0.0127
vt -0.0137 0.0186
vt 0.0000 0.0117
vt 0.0156 -0.0049
vt 0.0205 0.0010
vt 0.0176 0.0127
vt 0.0000 0.0283
vt 0.0049 0.0146
vt -0.0049 0.0146
vt 0.0049 0.0146
vt 0.0000 0.0283
vt 0.0000 0.0127
vt -0.0049 0.0146
vt 0.0000 0.3750
vt -6.5000 0.0000
vt -6.2500 0.0000
vt -6.5000 0.0000
vt -4.0000 0.0000
vt -4.0000 0.0000
f 16/16 17/17 18/18
f 19/19 20/20 21/21
f 20/20 22/22 21/21
