# Conker's Bad Fur Day — Real 3D Model (Multiplayer Level Models)
o assets09_model_151

v 0.0000 4.7200 0.0000
v 18.4900 2.1200 -2.5800
v 18.5000 1.5100 -2.5800
v 18.5000 1.5100 -2.5800
v 10.4900 2.3100 -2.5800
v 10.4400 1.4900 -2.5800
v 10.4400 1.4900 -2.5800
v 23.8700 2.0900 -2.5800
v 23.9600 1.5100 -2.5800
v 23.9600 1.5100 -2.5800
v 28.7300 2.0200 -2.5800
v 28.7100 1.5200 -2.5800
v 28.7100 1.5200 -2.5800
v 33.6000 2.0300 -2.5800
v 33.6000 1.5400 -2.5800
v 33.6000 1.5400 -2.5800
v 39.3200 2.0300 -2.5800
v 39.3200 1.5300 -2.5800
v 39.3200 1.5300 -2.5800
v 22.4200 2.7100 -2.5800
v -2.5600 0.0000 0.0000
v 0.0100 2.5600 0.0000
v 2.5800 5.1200 0.0000
v 5.1500 7.6800 0.0000
v 7.7200 10.2400 0.0000
v 10.2900 12.8000 0.0000
v -28.0000 0.0000 17.9200
v -33.2800 0.0000 18.5500
v -28.1600 2.5600 15.3600
v -7.5200 0.0000 0.6400
v -28.0000 0.0000 17.9200
v -33.2800 0.0000 18.5500
v -28.1600 2.5600 15.3600
v -7.5200 0.0000 0.6400
vt 0.0000 0.4688
vt -0.0137 0.0010
vt 0.0000 -0.0088
vt 0.0000 0.0664
vt -0.0186 0.0547
vt 0.0000 0.0430
vt 0.0000 0.0098
vt -0.0127 0.0000
vt 0.0000 -0.0088
vt 0.0000 0.0059
vt -0.0107 -0.0010
vt 0.0000 -0.0088
vt 0.0000 0.0068
vt -0.0107 0.0000
vt 0.0000 -0.0078
vt 0.0000 0.0908
vt -0.0107 0.0840
vt 0.0000 0.0762
vt 0.0000 0.0664
vt -0.0186 0.0547
vt 0.0000 0.0000
vt 16.6875 -5.1279
vt 16.4766 -7.7686
vt 16.5098 17.2021
vt 16.4971 31.5381
vt 16.5205 -13.3643
vt -6.5000 0.0000
vt -6.2500 0.0000
vt -6.5000 0.0000
vt -4.0000 0.0000
vt -6.5000 0.0000
vt -6.2500 0.0000
vt -6.5000 0.0000
vt -4.0000 0.0000
f 1/1 2/2 3/3
f 2/2 4/4 3/3
