mtllib assets0E_model_012.mtl
# Conker's Bad Fur Day — Real 3D Model (Sloprano Models)
o assets0E_model_012
usemtl assets0E_model_012_mat

v 20.4900 0.0000 0.0000
v 20.4900 0.0000 0.0000
v 20.4900 0.0000 0.0000
v 20.4900 0.0000 0.0000
v 20.4900 0.0000 0.0000
v 20.4900 0.0000 0.0000
v 20.4900 0.0000 0.0000
v 20.4900 0.0000 0.0000
v 20.4800 0.0000 0.0000
v 20.4800 0.0000 0.0000
v 20.4800 0.0000 0.0000
v 20.4800 0.0000 0.0000
v 20.4800 0.0000 0.0000
v 20.4800 0.0000 0.0000
v 20.4800 0.0000 0.0000
v 20.4800 0.0000 0.0000
v 20.4800 0.0000 0.0000
v 20.4900 0.0000 0.0000
v 20.4900 0.0000 0.0000
v 20.4900 0.0000 0.0000
v 20.4900 0.0000 0.0000
v 20.4900 0.0000 0.0000
v 20.4900 0.0000 0.0000
v 20.4900 0.0000 0.0000
v 20.4900 0.0000 0.0000
v 20.4800 0.0000 0.0000
v 20.4800 0.0000 0.0000
v 20.4900 0.0000 0.0000
v 20.4900 0.0000 0.0000
v 0.3200 2.6500 12.8000
v 20.4800 0.0000 0.0000
v 0.3200 2.6500 12.8000
v 20.4800 0.0000 0.0000
v 0.3200 2.6500 12.8000
v 20.4800 0.0000 0.0000
v 20.4900 0.0000 0.0000
v 20.4800 0.0000 0.0000
v 20.4900 0.0000 0.0000
v 20.4800 0.0000 0.0000
vt 0.0000 0.0957
vt 0.0000 0.0957
vt 0.0000 0.0957
vt 0.0000 0.0957
vt 0.0000 0.0957
vt 0.0000 0.0957
vt 0.0000 0.0957
vt 0.0000 0.0957
vt 0.5000 0.0967
vt 0.5000 -15.9971
vt 0.5000 -15.9990
vt 0.5000 16.0029
vt 0.5000 16.0029
vt 0.5000 16.0029
vt 0.5000 16.0029
vt 0.2812 0.5967
vt 0.0000 0.0996
vt 0.0000 0.0957
vt 0.0000 0.0957
vt 0.0000 0.0957
vt 0.0000 0.0957
vt 0.0000 0.0957
vt 0.0000 0.0957
vt 0.0000 0.0957
vt 0.0000 0.0957
vt 0.5312 0.0967
vt 0.5312 0.0967
vt 0.5000 0.0957
vt 0.5000 0.0967
vt 3.4805 -3.0957
vt 0.5000 -31.9033
vt 4.8574 -2.5322
vt 0.5000 -31.9033
vt 6.8252 -2.5703
vt 0.5000 -31.9033
vt 0.6250 0.0957
vt 0.0000 0.0957
vt 0.5000 0.0957
vt 0.5000 0.0957
f 1/1 1/1 1/1
