# Conker's Bad Fur Day — Real 3D Model (Multiplayer Level Models)
o assets09_model_052

v 0.0000 4.7200 0.0000
v 2.7200 14.3700 -0.0100
v 4.8700 14.3500 -0.0100
v 2.8700 2.0100 -0.0100
v 4.5800 0.8500 -0.0100
v 4.5800 0.8500 -0.0100
v 0.5600 14.3900 -0.0100
v 1.2000 0.8800 -0.0100
v 1.2000 0.8800 -0.0100
v 3.3100 12.1400 -0.0100
v 4.2500 12.3100 -0.0100
v 3.3400 16.2600 -0.0100
v 1.1400 12.0100 -0.0100
v 0.2000 12.0800 -0.0100
v 1.1700 16.1300 -0.0100
v 2.2000 8.5400 -0.0100
v 3.3100 12.1400 -0.0100
v 4.2500 12.3100 -0.0100
v 1.1400 12.0100 -0.0100
v 0.2000 12.0800 -0.0100
v -28.0000 0.0000 17.9200
v -33.2800 0.0000 18.2300
v -28.1600 2.5600 15.3600
v -7.5200 0.0000 0.6400
vt 0.0000 0.0000
vt -0.0049 -0.0166
vt 0.0020 -0.0117
vt -0.0039 -0.0166
vt 0.0020 -0.0215
vt 0.0020 -0.0234
vt 0.0068 -0.0166
vt 0.0068 -0.0166
vt 0.0020 -0.0215
vt 0.0020 -0.0234
vt 0.0020 -0.0166
vt 0.0127 -0.0283
vt 0.0088 -0.0166
vt 0.0127 -0.0166
vt 0.0020 -0.0088
vt -0.0088 -0.0039
vt -0.0176 -0.0166
vt 0.0020 -0.0068
vt 0.0215 -0.0166
vt 0.0000 0.4688
vt -6.5000 0.0000
vt -6.2500 0.0000
vt -6.5000 0.0000
vt -4.0000 0.0000
f 1/1 2/2 3/3
f 4/4 5/5 6/6
f 7/7 8/8 9/9
f 10/10 11/11 12/12
f 13/13 14/14 15/15
f 16/16 17/17 18/18
f 19/19 20/20 21/21
f 22/22 23/23 24/24
