mtllib assets09_model_422.mtl
# Conker's Bad Fur Day — Real 3D Model (Multiplayer Level Models)
o assets09_model_422
usemtl assets09_model_422_mat

v 0.0000 15.1200 0.0000
v 2.5800 0.6400 0.0000
v 15.4600 30.7400 0.0800
v -27.3600 0.0000 17.9200
v -7.5200 0.0000 0.6400
v -6.8800 0.0000 0.0000
v -27.4400 10.2400 0.0900
v -7.5200 0.0000 0.6400
v -6.8800 0.0000 0.0000
v -7.5200 0.0000 0.6400
v -33.2800 0.0000 18.5700
v -33.2800 0.0000 18.2300
v -27.0400 0.0000 17.9200
vt 0.0000 0.0000
vt 4.5195 4.0312
vt -10.2500 0.0020
vt -3.2500 0.0000
vt -2.6562 0.2500
vt -3.2500 0.0000
vt -3.4375 9.0020
vt -6.5000 0.0000
vt -3.2500 0.0000
vt -6.5000 0.0000
vt -2.6797 3.0000
vt -2.6797 2.0000
vt -3.2500 0.0000
f 6/6 7/7 2/2
f 5/5 8/8 6/6
