mtllib assets09_model_146.mtl
# Conker's Bad Fur Day — Real 3D Model (Multiplayer Level Models)
o assets09_model_146
usemtl assets09_model_146_mat

v 0.0000 27.1200 0.0000
v 0.4800 -0.0200 -0.0100
v 5.1200 0.0000 -0.0100
v 5.1200 5.1200 -0.0100
v 0.5700 5.1500 -0.0100
v 5.1200 5.1200 -0.0100
v 0.5700 5.1500 -0.0100
v 5.1200 0.0000 -0.0100
v 0.4800 -0.0200 -0.0100
v 0.6700 0.0200 -0.0100
v 5.1200 0.0000 -0.0100
v 5.1100 5.0200 -0.0100
v 0.4500 5.0200 -0.0100
v 0.4500 5.0200 -0.0100
v 5.1100 5.0200 -0.0100
v 0.6700 0.0200 -0.0100
v 5.1200 0.0000 -0.0100
v 0.5700 0.0300 -0.0100
v 5.1200 0.0000 -0.0100
v 5.1200 5.1200 -0.0100
v 0.6700 5.1400 -0.0100
v 5.1200 5.1200 -0.0100
v 0.6700 5.1400 -0.0100
v 0.5700 0.0300 -0.0100
v 5.1200 0.0000 -0.0100
v 2.4000 5.1500 -0.0100
v 3.8700 0.0400 -0.0100
v 3.8700 0.0400 -0.0100
v 2.4000 5.1500 -0.0100
v 8.6800 7.4600 -0.0100
v 4.9300 4.3300 -0.0100
v 7.0600 4.8600 -0.0100
v 8.0900 4.0600 -0.0100
v 0.4000 3.5100 -0.0100
v -0.1000 6.3400 -0.0100
v 7.5900 6.8800 -0.0100
v 6.7400 6.7900 -0.0100
v 1.5400 4.7200 -0.0100
v 4.0500 4.6700 -0.0100
v 1.1800 7.5800 -0.0100
v 3.4100 7.5000 -0.0100
v 8.9300 6.8500 -0.0100
v 4.5800 4.0100 -0.0100
v 6.9900 4.0900 -0.0100
v 1.3500 2.5400 -0.0100
v 8.9800 3.4500 -0.0100
v 7.9900 7.2600 -0.0100
v 0.3600 6.3600 -0.0100
v 3.0100 7.3700 -0.0100
v 8.3000 4.3700 -0.0100
v 8.9600 7.0900 -0.0100
v 4.3600 4.5600 -0.0100
v 8.5100 4.5400 -0.0100
v 8.6600 7.2800 -0.0100
v 4.9300 4.2200 -0.0100
v 3.2400 6.7900 -0.0100
v 0.5200 5.3900 -0.0100
v 1.3100 2.1700 -0.0100
v 7.2000 3.9900 -0.0100
v 6.4100 7.2200 -0.0100
v 6.1600 3.9200 -0.0100
v 3.3900 3.8000 -0.0100
v 8.2000 6.7700 -0.0100
v 1.8000 7.3400 -0.0100
v 4.9300 4.3300 -0.0100
v 8.6800 7.4600 -0.0100
v 3.7500 6.9000 -0.0100
v 7.9400 7.4200 -0.0100
v 0.2100 6.4900 -0.0100
v 1.3600 3.3600 -0.0100
v 8.6000 5.6000 -0.0100
v 8.4500 7.6600 -0.0100
v -0.0600 1.9000 -0.0100
v 8.3900 4.6600 -0.0100
v 0.0600 8.2700 -0.0100
v 0.0600 8.2700 -0.0100
v 8.4500 7.6600 -0.0100
v -0.0600 1.9000 -0.0100
v 8.3900 4.6600 -0.0100
v 6.5300 3.6100 -0.0100
v 6.3400 6.5300 -0.0100
v -0.6300 4.2100 -0.0100
v 20.1300 8.4100 -0.0100
v 10.4800 4.1500 -0.0100
v 10.5600 8.3500 -0.0100
v 17.9100 4.2100 -0.0100
v 20.0800 5.8700 -0.0100
v -1.2800 4.4500 -0.0100
v -0.3600 2.6900 -0.0100
v 7.5700 6.8300 -0.0100
v 8.4900 5.0700 -0.0100
v 4.3800 1.8300 -0.0100
v 4.6700 6.8500 -0.0100
v 1.2900 6.6800 -0.0100
v 1.0100 1.6600 -0.0100
v 17.9100 4.2100 -0.0100
v 20.0800 5.8700 -0.0100
v 20.0800 5.8700 -0.0100
v 17.9100 4.2100 -0.0100
v 6.1100 4.0100 -0.0100
v 5.5000 6.1700 -0.0100
v 1.1500 2.8000 -0.0100
v 0.5300 4.9500 -0.0100
v 20.1300 8.4100 -0.0100
v 10.4800 4.1500 -0.0100
v 10.5600 8.3500 -0.0100
v 8.3900 4.6600 -0.0100
v 10.4800 4.1500 -0.0100
v 8.4500 7.6600 -0.0100
v 10.5600 8.3500 -0.0100
v 8.4500 7.6600 -0.0100
v 8.3900 4.6600 -0.0100
v 0.1900 4.8900 -0.0100
v 5.0100 0.3700 -0.0100
v 0.0900 0.3300 -0.0100
v 0.0900 0.3300 -0.0100
v 5.1200 0.0000 -0.0100
v 5.1200 4.8100 -0.0100
v 0.0000 0.0000 -0.0100
v 0.0000 4.8100 -0.0100
v 3.3500 0.9500 -0.0100
v 3.0000 9.1500 -0.0100
v 4.4000 9.1900 -0.0100
v 4.1100 0.9700 -0.0100
v -0.1400 10.2400 -0.0100
v 5.1200 0.0000 -0.0100
v 0.0000 0.0000 -0.0100
v 5.3700 10.0900 -0.0100
v -0.1700 10.0100 -0.0100
v 5.3300 10.1500 -0.0100
v 0.0000 0.0000 -0.0100
v 5.1200 0.0000 -0.0100
v 5.9300 9.1200 -0.0100
v 4.3200 8.7800 -0.0100
v 5.0500 2.8800 -0.0100
v 0.0000 0.0000 -0.0100
v 5.1200 5.1200 -0.0100
v 0.0000 5.1200 -0.0100
v 5.1200 0.0000 -0.0100
v 0.1900 4.8900 -0.0100
v 5.0100 0.3700 -0.0100
v 0.0900 0.3300 -0.0100
v 0.0900 0.3300 -0.0100
v 5.0100 0.3700 -0.0100
v 0.1900 4.8900 -0.0100
v 5.1100 4.8000 -0.0100
v 0.1500 4.8600 -0.0100
v 5.0900 2.4800 -0.0100
v 0.1400 2.5300 -0.0100
v 0.1400 2.5300 -0.0100
v 5.0900 2.4800 -0.0100
v 0.1200 0.2100 -0.0100
v 5.0800 0.1500 -0.0100
v 2.0700 1.8200 -0.0100
v 0.0300 1.6300 -0.0100
v 1.0700 0.1100 -0.0100
v 1.0300 3.3400 -0.0100
v 5.1000 4.6000 -0.0100
v 0.1500 4.7100 -0.0100
v 0.1200 0.5700 -0.0100
v 5.0700 0.4500 -0.0100
v 0.0800 0.4600 -0.0100
v 5.1100 4.7500 -0.0100
v 5.0500 0.6800 -0.0100
v 0.1400 4.5300 -0.0100
v 0.1100 4.7300 -0.0100
v 0.0900 0.4600 -0.0100
v 5.1300 4.6800 -0.0100
v 5.1100 0.4100 -0.0100
v -28.0000 0.0000 17.9200
v -33.2800 0.0000 17.9900
v -28.1600 2.5600 15.3600
v -7.5200 0.0000 0.6400
v -7.5200 0.0000 0.6400
v -7.5200 0.0000 0.0000
v -33.2800 0.0000 17.9900
v -28.0800 10.2400 0.0100
v -27.9200 0.0000 17.9200
v -33.2800 0.0000 18.0700
v -27.9200 20.4800 0.0900
v -7.5200 0.0000 0.0000
v -7.5200 0.0000 0.6400
v -7.5200 0.0000 0.0000
v -33.2800 0.0000 17.9900
v -28.0800 10.2400 0.0900
v 15.3600 5.1600 0.0600
v -7.5200 0.0000 0.0000
v -33.2800 0.0000 17.9900
v -28.0800 10.2400 0.0100
v 15.3600 5.1600 0.0400
v 1.4800 1.4800 1.4800
v 1.1300 1.2600 1.1300
vt 0.0000 2.6523
vt 0.0000 -0.0049
vt 0.0000 -0.0049
vt 0.0000 0.0049
vt 0.0000 -0.0049
vt 0.0000 0.0049
vt 0.0000 -0.0049
vt 0.0000 0.0049
vt 0.0000 0.0049
vt 0.0000 -0.0049
vt 0.0000 -0.0049
vt 0.0000 0.0049
vt 0.0000 0.0049
vt 0.0000 -0.0049
vt 0.0000 0.0049
vt 0.0000 -0.0049
vt 0.0000 0.0049
vt 0.0000 -0.0049
vt 0.0000 -0.0049
vt 0.0000 0.0049
vt 0.0000 -0.0049
vt 0.0000 0.0049
vt 0.0000 0.0049
vt 0.0000 -0.0049
vt 0.0400 -0.0137
vt -0.1084 -0.0137
vt -0.1084 -0.0137
vt 0.0400 -0.0137
vt -0.0557 -0.0195
vt -0.0547 -0.0137
vt -0.0508 -0.0137
vt -0.0293 -0.0195
vt -0.0176 -0.0195
vt -0.0176 -0.0078
vt -0.0293 -0.0078
vt -0.0293 -0.0078
vt -0.0303 -0.0137
vt -0.0332 -0.0137
vt -0.0176 -0.0078
vt -0.0176 -0.0195
vt -0.0293 -0.0195
vt -0.0303 -0.0137
vt -0.0332 -0.0137
vt -0.0557 -0.0195
vt -0.0293 -0.0195
vt -0.0293 -0.0078
vt -0.0557 -0.0078
vt -0.0293 -0.0078
vt -0.0508 -0.0137
vt -0.0557 -0.0078
vt -0.0332 -0.0137
vt -0.0332 -0.0137
vt -0.0293 -0.0195
vt -0.0508 -0.0137
vt -0.0557 -0.0195
vt -0.0664 -0.0078
vt -0.0664 -0.0195
vt -0.0557 -0.0195
vt -0.0557 -0.0078
vt -0.0508 -0.0137
vt -0.0547 -0.0137
vt -0.0557 -0.0078
vt -0.0664 -0.0078
vt -0.0547 -0.0137
vt -0.0557 -0.0195
vt -0.0664 -0.0195
vt -0.0059 -0.0205
vt 0.0400 -0.0264
vt 0.0400 -0.0020
vt -0.0059 -0.0068
vt -0.0059 -0.0068
vt 0.0400 -0.0137
vt -0.0059 -0.0137
vt 0.0400 -0.0020
vt 0.0400 -0.0264
vt -0.0059 -0.0205
vt 0.0400 -0.0137
vt -0.0059 -0.0137
vt 0.0400 -0.0020
vt 0.0400 -0.0264
vt 0.0400 -0.0137
vt -0.0693 -0.0225
vt -0.0166 -0.0225
vt -0.0166 -0.0225
vt -0.0576 -0.0225
vt -0.0693 -0.0225
vt -0.0166 -0.0225
vt -0.0166 -0.0049
vt -0.0693 -0.0225
vt -0.0693 -0.0049
vt -0.0693 -0.0225
vt -0.0693 -0.0225
vt -0.0693 -0.0049
vt -0.0693 -0.0049
vt -0.0576 -0.0049
vt -0.0693 -0.0225
vt -0.0693 -0.0049
vt -0.0576 -0.0225
vt -0.0576 -0.0225
vt -0.0576 -0.0049
vt -0.0166 -0.0225
vt -0.0166 -0.0049
vt -0.0693 -0.0049
vt -0.0166 -0.0049
vt -0.0166 -0.0049
vt -0.0059 -0.0137
vt -0.0166 -0.0225
vt -0.0059 -0.0205
vt -0.0166 -0.0225
vt -0.0059 -0.0068
vt -0.0059 -0.0137
vt -0.0293 -0.0137
vt -0.0234 -0.0137
vt -0.0215 -0.0176
vt -0.0215 -0.0098
vt -0.0342 -0.0137
vt -0.0342 -0.0137
vt -0.0166 -0.0137
vt -0.0166 -0.0137
vt -0.0508 -0.0088
vt -0.0586 -0.0049
vt -0.0586 -0.0225
vt -0.0508 -0.0186
vt -0.0586 -0.0225
vt -0.0352 -0.0137
vt -0.0508 -0.0186
vt -0.0332 -0.0137
vt -0.0332 -0.0137
vt -0.0586 -0.0049
vt -0.0352 -0.0137
vt -0.0508 -0.0088
vt -0.0586 -0.0225
vt -0.0586 -0.0049
vt -0.0332 -0.0137
vt -0.1406 -0.0049
vt -0.1406 -0.0234
vt -0.1406 -0.0137
vt -0.1406 -0.0137
vt -0.1309 -0.0137
vt -0.1406 -0.0137
vt -0.1406 -0.0166
vt -0.1406 -0.0107
vt -0.1406 -0.0137
vt -0.1309 -0.0137
vt -0.1406 -0.0137
vt -0.1084 -0.0137
vt -0.1406 -0.0049
vt -0.1084 -0.0049
vt -0.1084 -0.0234
vt -0.1406 -0.0234
vt -0.1084 -0.0137
vt -0.1406 -0.0137
vt -0.1084 -0.0049
vt -0.1084 -0.0234
vt -0.1084 -0.0137
vt -0.1084 -0.0137
vt -0.1084 -0.0088
vt -0.0693 -0.0088
vt -0.0693 -0.0186
vt -0.1084 -0.0186
vt -0.0693 -0.0186
vt -0.1084 -0.0137
vt -0.1084 -0.0186
vt -0.0693 -0.0137
vt -0.0693 -0.0137
vt -0.0693 -0.0088
vt -0.1084 -0.0137
vt -0.1084 -0.0088
vt 0.0000 2.7344
vt -6.5000 0.0000
vt -6.2500 0.0000
vt -6.5000 0.0000
vt -4.0000 0.0000
vt -4.0000 0.0000
vt -6.5000 0.0000
vt -6.2500 0.0000
vt -3.5000 8.0020
vt -6.5000 0.0000
vt -6.2500 0.0000
vt -4.2266 11.0615
vt -2.7344 0.0000
vt -4.0000 0.0000
vt -6.5000 0.0000
vt -6.2500 0.0000
vt -3.5000 8.0020
vt -6.2500 0.0000
vt -6.5000 0.0000
vt -6.2500 0.0000
vt 5.2939 -23.7119
vt -8.2500 0.0000
vt 0.1445 0.1396
vt 0.0000 0.0000
f 128/128 1/1 83/83
f 128/128 128/128 128/128
f 128/128 1/1 83/83
f 128/128 128/128 128/128
f 128/128 1/1 83/83
f 128/128 128/128 128/128
f 26/26 25/25 27/27
f 28/28 29/29 30/30
f 31/31 28/28 30/30
f 26/26 23/23 27/27
f 28/28 29/29 30/30
f 30/30 29/29 31/31
f 22/22 23/23 24/24
f 24/24 23/23 25/25
f 23/23 22/22 25/25
f 26/26 27/27 28/28
f 28/28 27/27 29/29
f 9/9 10/10 11/11
f 11/11 10/10 12/12
f 13/13 14/14 15/15
f 1/1 2/2 3/3
f 4/4 2/2 1/1
f 30/30 28/28 27/27
f 1/1 2/2 3/3
f 3/3 2/2 4/4
