mtllib assets09_model_071.mtl
# Conker's Bad Fur Day — Real 3D Model (Multiplayer Level Models)
o assets09_model_071
usemtl assets09_model_071_mat

v 0.0000 13.8400 0.0000
v 4.3100 3.1600 -2.5800
v 4.3100 3.1600 -2.5800
v 4.3000 5.0300 -2.5800
v 4.9100 1.3100 -2.5800
v 0.5300 1.3200 -2.5800
v 4.9100 1.3100 -2.5800
v 0.5300 1.3200 -2.5800
v 4.8900 5.0500 -2.5800
v 0.5100 5.0500 -2.5800
v 0.5200 3.8100 -2.5800
v 4.9000 3.8000 -2.5800
v 4.9000 3.8000 -2.5800
v 0.5200 3.8100 -2.5800
v 5.0500 -1.5500 -2.5800
v 12.1700 4.9800 -2.5800
v -2.0900 5.3800 -2.5800
v 5.0300 11.9100 -2.5800
v 0.2500 2.5800 -2.5800
v 0.2500 5.0600 -2.5800
v 0.2500 2.5800 -2.5800
v 0.2500 5.0600 -2.5800
v 9.1800 4.6600 -2.5800
v 8.3300 5.1200 -2.5800
v 8.1800 3.0300 -2.5800
v 6.6200 2.5500 -2.5800
v 6.8500 4.1100 -2.5800
v 5.0900 4.1300 -2.5800
v 5.4100 5.1500 -2.5800
v 8.5800 5.7500 -2.5800
v 8.3600 7.1600 -2.5800
v 8.3500 8.0400 -2.5800
v 6.9100 8.1900 -2.5800
v 6.9100 9.7700 -2.5800
v 5.1700 9.3800 -2.5800
v 5.4400 7.1900 -2.5800
v 3.4400 9.8000 -2.5800
v 9.1400 2.3800 -2.5800
v 4.8100 5.1500 -2.5800
v 4.8400 7.1900 -2.5800
v 3.2200 1.0500 -2.5800
v 6.8700 1.0100 -2.5800
v 5.0400 1.0700 -2.5800
v 0.9900 2.4600 -2.5800
v 1.9700 3.0900 -2.5800
v 3.5100 2.5800 -2.5800
v 1.0200 4.7400 -2.5800
v 1.8800 5.1800 -2.5800
v 3.3300 4.1500 -2.5800
v 1.6500 5.8100 -2.5800
v 1.9100 7.2200 -2.5800
v 1.9500 8.1000 -2.5800
v 3.3900 8.2200 -2.5800
v 0.2200 2.2600 -2.5800
v 0.2800 7.9900 -2.5800
v 9.9800 2.4100 -2.5800
v 5.1900 10.9400 -2.5800
v 10.0400 8.1500 -2.5800
v 5.0700 -0.5300 -2.5800
v 0.0000 0.0000 -2.5800
v 0.0000 0.0000 -2.5800
v 0.0000 0.0000 -2.5800
v 0.0000 0.0000 -2.5800
v 0.0000 0.0000 -2.5800
v 0.0000 0.0000 -2.5800
v 9.9800 2.4100 -2.5800
v 0.2800 7.9900 -2.5800
v 0.2200 2.2600 -2.5800
v 10.0400 8.1500 -2.5800
v 5.1900 10.9400 -2.5800
v 5.0700 -0.5300 -2.5800
v 0.0000 0.0000 -2.5800
v 0.0000 0.0000 -2.5800
v 0.0000 0.0000 -2.5800
v 0.0000 0.0000 -2.5800
v 0.0000 0.0000 -2.5800
v 0.0000 0.0000 -2.5800
v -28.0000 0.0000 17.9200
v -33.2800 0.0000 17.9900
v -28.1600 2.5600 15.3600
v -7.5200 0.0000 0.6400
v 15.3600 5.1600 0.0600
v 15.4200 10.3400 0.1600
v -7.5200 0.0000 0.0000
v -33.2800 0.0000 18.2300
v -28.0800 20.4800 0.0900
v -7.5200 0.0000 0.6400
v -7.5200 0.0000 0.6400
v -27.9200 0.0000 17.9200
v -33.2800 0.0000 18.5500
v -7.4400 0.0000 0.0000
v -33.2800 0.0000 18.5500
vt 0.0000 0.0000
vt 0.0127 0.0068
vt 0.0000 0.0176
vt 0.0000 -0.0039
vt 0.0000 -0.0166
vt -0.0166 -0.0020
vt -0.0166 0.0039
vt 0.0000 0.0127
vt 0.0000 0.0186
vt -0.0166 0.0039
vt -0.0166 -0.0020
vt 0.0166 -0.0020
vt 0.0166 0.0039
vt 0.0000 -0.0166
vt 0.0166 -0.0020
vt -0.0166 -0.0020
vt 0.0000 0.0127
vt 0.0059 -0.0010
vt 0.0059 0.0020
vt 0.0000 0.0098
vt 0.0000 0.0137
vt 0.0342 0.0225
vt 0.0273 0.0254
vt 0.0264 0.0098
vt 0.0127 0.0068
vt 0.0146 0.0176
vt 0.0000 0.0176
vt 0.0029 0.0254
vt 0.0293 0.0303
vt 0.0273 0.0400
vt 0.0264 0.0469
vt 0.0146 0.0479
vt 0.0146 0.0596
vt 0.0000 0.0566
vt 0.0029 0.0400
vt -0.0146 0.0596
vt 0.0342 0.0059
vt -0.0029 0.0254
vt -0.0029 0.0400
vt -0.0156 -0.0049
vt 0.0156 -0.0049
vt 0.0000 -0.0039
vt -0.0342 0.0059
vt -0.0264 0.0098
vt -0.0127 0.0068
vt -0.0342 0.0225
vt -0.0273 0.0254
vt -0.0146 0.0176
vt -0.0293 0.0303
vt -0.0273 0.0400
vt -0.0264 0.0469
vt -0.0146 0.0479
vt -0.0029 0.0254
vt -0.0029 0.0400
vt -0.0273 0.0254
vt -0.0146 0.0479
vt -0.0273 0.0400
vt -0.0146 0.0176
vt -0.0273 0.0254
vt -0.0146 0.0176
vt -0.0029 0.0254
vt -0.0029 0.0400
vt -0.0273 0.0400
vt -0.0146 0.0479
vt 0.0273 0.0254
vt 0.0029 0.0400
vt 0.0029 0.0254
vt 0.0273 0.0400
vt 0.0146 0.0479
vt 0.0146 0.0176
vt 0.0029 0.0254
vt 0.0146 0.0176
vt 0.0273 0.0254
vt 0.0029 0.0400
vt 0.0273 0.0400
vt 0.0146 0.0479
vt 0.0000 1.3594
vt -6.5000 0.0000
vt -6.2500 0.0000
vt -6.5000 0.0000
vt -4.0000 0.0000
vt -9.5010 -0.0010
vt -6.2500 0.0000
vt -6.5000 0.0000
vt -6.2500 0.0000
vt -3.5000 8.0020
vt -4.0000 0.0000
vt -4.0000 0.0000
vt -6.5000 0.0000
vt -6.2500 0.0000
vt -6.5000 0.0000
vt -6.2500 0.0000
f 1/1 2/2 3/3
f 4/4 2/2 1/1
f 4/4 3/3 6/6
f 9/9 8/8 12/12
f 13/13 14/14 15/15
f 14/14 16/16 15/15
f 7/7 8/8 9/9
f 7/7 9/9 10/10
f 3/3 21/21 20/20
f 5/5 3/3 2/2
