# Conker's Bad Fur Day — Real 3D Model (Spooky Models)
o assets10_model_014

v 0.0000 1.9200 0.0000
v 0.0000 2.0800 0.0000
v 0.0000 2.4000 0.0000
v 0.0000 2.8800 0.0000
v 0.0000 3.3600 0.0000
v 0.0000 3.8400 0.0000
v 0.0000 4.3200 0.0000
v 0.0000 4.7200 0.0000
v 0.0000 5.2000 0.0000
v 0.0000 5.6000 0.0000
v 0.0000 5.9200 0.0000
v 0.0000 6.2400 0.0000
v 10.9000 2.2800 9.6500
v 10.9000 2.2800 9.6500
v 10.0500 2.3000 26.4500
v 10.9100 2.3000 28.1400
v 26.3400 2.3000 26.4700
v 29.4600 2.3000 22.2100
v 29.0100 2.3000 20.3800
v 31.4300 2.3000 13.4200
v 30.0700 2.3000 -3.3000
v 29.7800 2.3000 -6.4400
v 27.8700 2.3000 -6.3300
v 22.6500 2.3000 -8.9400
v 22.0000 2.3000 -11.3600
v 4.2500 1.8800 -6.2100
v 7.4800 2.3000 27.8900
v -6.2700 2.1200 -7.0600
v -6.6000 2.1600 -5.3000
v -3.9100 2.2800 7.6500
v -5.9400 2.2800 7.0700
v -6.1500 2.2800 9.3100
v -8.2300 2.2800 7.4500
v 10.9000 2.2800 9.6500
v 10.9000 2.2800 9.6500
v 10.9000 2.2800 9.6500
v 10.9000 2.2800 9.6500
vt 0.0000 0.0000
vt 0.0000 0.2188
vt 0.0000 0.2578
vt 0.0000 0.3047
vt 0.0000 0.3516
vt 0.0000 0.3984
vt 0.0000 0.4375
vt 0.0000 0.4844
vt 0.0000 0.5312
vt 0.0000 0.5625
vt 0.0000 0.5938
vt 0.0000 0.6250
vt 2.2227 -1.1328
vt 1.0645 0.2227
vt 0.9248 0.2246
vt 2.2295 0.2246
vt 2.7197 0.2246
vt 2.8535 0.2246
vt 2.9648 0.2246
vt 2.8291 0.2246
vt 2.7480 0.2246
vt 2.8672 0.2246
vt 2.6924 0.2246
vt 2.2588 0.2246
vt 0.2031 0.1836
vt 0.0742 0.1836
vt 0.7305 0.2246
vt -0.1582 0.1875
vt -0.7852 0.2227
vt -0.4639 0.2227
vt -0.6006 0.2227
vt -0.3477 0.2227
vt -0.7979 0.2227
vt 1.0645 0.2227
vt 1.0645 0.2227
vt 1.0645 0.2227
vt 1.0645 0.2227
f 1/1 2/2 3/3
f 4/4 5/5 6/6
f 7/7 8/8 9/9
f 10/10 11/11 12/12
f 13/13 14/14 15/15
f 16/16 17/17 18/18
f 19/19 20/20 21/21
f 22/22 23/23 24/24
f 25/25 26/26 27/27
f 28/28 29/29 30/30
f 31/31 32/32 33/33
f 34/34 35/35 36/36
