mtllib assets0C_model_000.mtl
# Conker's Bad Fur Day — Real 3D Model (It's War Models)
o assets0C_model_000
usemtl assets0C_model_000_mat

v 0.0000 0.9600 0.0000
v 0.0000 0.9600 0.0000
v 0.0000 13.7600 0.0000
v 0.0000 36.9600 0.0000
v 0.0000 37.7600 0.0000
v -2.5600 0.5500 -26.2700
v 0.0000 0.0300 0.0000
v 0.0000 0.0100 0.0000
v 0.0000 0.0000 -24.5200
v 0.3000 0.0000 0.0000
v 24.9900 0.0000 0.0000
v 0.0000 0.1600 0.3000
v 5.9500 0.5500 25.5900
v 0.0000 0.0300 0.0000
v 0.0000 0.0500 0.0000
v 0.0000 0.0000 25.8800
v 0.3000 0.0000 0.0000
v -23.4800 0.0000 0.0000
v 0.0000 0.1600 0.3000
v -13.3700 -1.0600 -17.5600
v 0.0000 0.5100 0.0000
v 0.0000 0.0900 2.5600
v 0.0000 0.0000 -17.9100
v 0.4300 0.0000 0.0000
v 13.1100 0.9000 2.2200
v 2.5600 0.0000 0.0000
v 13.2800 -1.0800 17.4300
v 0.0000 0.5100 0.0000
v 0.0000 0.1300 2.5600
v 0.0000 0.0000 17.7100
v 3.4600 0.0000 0.0000
v -22.0500 2.6900 1.3500
v 0.0200 0.0200 0.0000
v 0.0200 0.0200 0.0000
v 0.0200 0.0200 0.0000
v 0.0200 0.0200 0.0000
v 0.7400 0.0100 0.0000
v 0.7400 0.0100 0.0000
v 0.7400 0.0100 0.0000
v 0.7400 0.0100 0.0000
v 4.4400 -0.2700 -25.5800
v 0.0000 0.0000 -9.1900
v 3.2900 0.6900 0.0000
v 8.6700 1.1500 3.2900
v 2.7000 5.1200 0.0000
v -0.0400 -4.3500 0.0300
v 0.0000 0.0000 -0.0400
v 36.1100 1.0000 0.0000
v 0.0000 9.9800 0.0000
v -33.6200 4.8300 23.8900
v 0.0200 5.1700 0.0000
v 30.7600 6.6300 -21.2800
v 0.0000 0.0000 -0.0400
v 28.2100 1.0000 0.0000
v -21.8200 9.2900 13.6000
v 0.0200 5.1700 0.0000
v 16.1100 -0.7000 -17.6400
v 0.0000 0.0000 26.0300
v 0.0000 15.3900 0.0000
v 19.7400 6.6100 0.0000
v 0.0000 8.4400 0.0000
v -10.4600 1.1800 3.2900
v 3.2200 15.3600 2.5500
v 0.0000 -0.2600 -3.1600
v 0.0000 0.0000 4.1600
v 0.0000 0.8000 0.0000
v 2.7600 1.0000 0.0000
v 13.4200 1.8500 2.7600
v 2.7000 5.1200 0.0000
v 0.2400 -0.2700 0.1700
v 0.0000 0.0000 0.2400
v 15.1900 2.1000 9.3700
v 0.0600 5.1800 0.0000
v -4.4800 -3.7800 16.8000
v 0.0000 0.0000 -17.9700
v -16.0600 7.8000 9.3700
v 0.1200 5.1200 0.0000
v 15.6600 -0.1500 -15.4300
v 0.0000 0.0000 18.5300
v 8.9500 1.3000 0.0000
v 0.0000 0.0100 0.0000
v -15.2400 5.9100 11.5500
v 2.7000 5.1200 0.0000
v -16.0400 -1.4000 16.2200
v 0.0000 0.0000 14.9000
v 7.7200 1.8600 0.0000
v 15.4100 2.8500 13.3300
v 0.2000 0.0100 0.0000
v 1.0100 -4.3500 17.9300
v 4.1900 0.0000 -25.1700
v 3.4800 0.0000 -22.8400
v -0.4800 15.4400 -0.6300
v 9.3800 18.3300 3.4300
v -0.4800 33.4500 -0.6300
v 0.0000 0.1600 0.0300
v -0.0400 0.0300 -4.3500
v 0.3100 0.0000 0.1200
v 0.6700 0.0000 0.0000
vt 0.0000 0.0938
vt 0.0000 1.1562
vt 0.0000 1.7188
vt 0.0000 0.0938
vt 0.0000 3.8594
vt 0.0000 0.0000
vt 0.0293 0.0000
vt 0.0000 0.0000
vt -0.6914 0.0000
vt 15.8750 0.0000
vt 0.0000 0.0000
vt 0.0000 0.0000
vt 0.0000 0.0000
vt 0.0293 0.0000
vt 0.0000 0.0000
vt 0.3232 0.0000
vt 15.8750 0.0000
vt 0.0000 0.0000
vt 0.0000 0.0000
vt 0.1309 0.0000
vt 0.0000 0.0000
vt 0.0000 0.0000
vt -1.3037 0.0879
vt 0.0000 0.0498
vt 0.0000 0.0000
vt 0.0000 0.0000
vt 0.3047 0.0000
vt 0.0000 0.0000
vt 0.0000 0.0000
vt 1.3086 0.0879
vt 0.0000 0.0498
vt 0.0000 0.0000
vt 8.0000 12.0000
vt 8.0020 12.0020
vt 8.0039 12.0039
vt 8.0059 12.0059
vt 8.0078 0.0000
vt 8.0098 0.0000
vt 8.0117 0.0000
vt 8.0137 0.0000
vt 0.4199 0.0977
vt -1.4238 0.1152
vt 16.9004 19.1992
vt 0.0000 0.0000
vt 0.0000 0.0000
vt 1.3018 0.0977
vt 0.0029 2.0684
vt 16.9180 0.0000
vt 0.0000 0.0010
vt 0.0000 0.0000
vt 0.0000 1.5029
vt 2.3340 0.6455
vt 0.0029 0.3945
vt 16.3594 0.0127
vt 0.0000 0.0000
vt 0.0000 1.0537
vt 1.5068 0.4629
vt -2.6465 0.6074
vt 0.0000 0.0000
vt 16.7568 0.0010
vt 0.0000 0.0137
vt 0.0000 0.0000
vt 0.1738 -31.6367
vt 0.6006 0.0977
vt -2.4111 0.3926
vt 0.0000 0.0000
vt 16.7842 -12.7998
vt 0.0000 0.0000
vt 0.0000 0.0000
vt 4.3027 0.0977
vt 0.0166 2.1572
vt 15.7744 -25.5996
vt 0.0000 0.0000
vt 0.9150 0.4541
vt 1.0635 0.7617
vt 15.7744 -25.5996
vt 0.0000 0.0000
vt 0.3818 0.3525
vt -1.9453 0.4414
vt 16.7842 -12.7998
vt 0.0000 0.0000
vt 0.0000 0.0000
vt 0.0000 0.0000
vt 0.9219 0.8438
vt 1.4512 0.5088
vt 16.7842 -12.7998
vt 0.0000 0.0000
vt 0.0000 0.0000
vt 1.3018 0.0977
vt 16.9814 -32.0000
vt 16.8066 0.0000
vt 0.0000 1.5029
vt 0.0000 1.5029
vt 0.0000 1.0537
vt 0.0000 0.0000
vt 1.6895 -0.9424
vt 0.0312 0.0000
vt 0.0000 0.0000
f 16/16 1/1 46/46
f 31/31 1/1 46/46
f 27/27 1/1 51/51
f 15/15 1/1 53/53
f 1/1 1/1 1/1
f 32/32 1/1 93/93
f 89/89 2/2 98/98
f 35/35 2/2 7/7
f 3/3 1/1 15/15
f 27/27 1/1 51/51
f 27/27 1/1 51/51
f 1/1 1/1 1/1
f 27/27 65/65 15/15
