mtllib assets09_model_260.mtl
# Conker's Bad Fur Day — Real 3D Model (Multiplayer Level Models)
o assets09_model_260
usemtl assets09_model_260_mat

v 0.0000 8.5600 0.0000
v -27.3600 0.0000 17.9200
v -27.4400 20.4800 0.0900
v -27.4400 11.5200 2.6500
v -27.4400 6.7200 5.2000
v -27.4400 6.8000 7.7600
v -27.4400 6.8400 10.3200
v -7.5200 0.0000 0.6400
v 2.5800 0.6400 0.0000
v -33.2800 0.0000 18.2300
v -33.2800 0.0000 18.5500
v 3.8300 1.3000 1.3000
v 1.2700 3.8600 3.8600
vt 0.0000 0.0000
vt -3.2500 0.0000
vt -3.4375 9.0020
vt -3.4688 8.5020
vt -3.4844 8.2520
vt -3.4922 8.1270
vt -3.4961 8.0645
vt -2.6562 0.2500
vt 4.2539 -29.8721
vt -0.7344 0.0000
vt -2.6797 2.0000
vt 0.1270 0.1240
vt 0.3770 31.7500
f 6/6 7/7 8/8
f 8/8 7/7 9/9
