mtllib assets09_model_116.mtl
# Conker's Bad Fur Day — Real 3D Model (Multiplayer Level Models)
o assets09_model_116
usemtl assets09_model_116_mat

v 10.2400 0.0000 -0.0100
v 10.2400 0.0000 -0.0100
v -1.6900 17.1400 -0.0100
v 10.2400 17.1400 -0.0100
v 10.2400 0.0000 -0.0100
v 10.2400 0.0000 -0.0100
v 10.2400 0.0000 -0.0100
v 0.0000 0.0000 -0.0100
v 0.0000 0.0000 -0.0100
v 10.2400 0.0000 -0.0100
v 0.0000 0.0000 -0.0100
v 10.2400 0.0000 -0.0100
v -1.6900 17.1400 -0.0100
v 10.2400 17.1400 -0.0100
v -1.6900 17.1400 -0.0100
v 10.2400 17.1400 -0.0100
v -1.6900 17.1400 -0.0100
v 10.2400 17.1400 -0.0100
v 10.2400 0.0000 -0.0100
v 0.0000 0.0000 -0.0100
v 0.0000 0.0000 -0.0100
v 10.2400 0.0000 -0.0100
v 0.0000 0.0000 -0.0100
v 10.2400 0.0000 -0.0100
v 0.0000 0.0000 -0.0100
v 10.2400 0.0000 -0.0100
v 0.0000 0.0000 -0.0100
v 10.2400 0.0000 -0.0100
v 10.2400 0.0000 -0.0100
v 0.0000 0.0000 -0.0100
v 0.0000 0.0000 -0.0100
v 10.2400 0.0000 -0.0100
v 0.0000 0.0000 -0.0100
v 10.2400 0.0000 -0.0100
v 0.0000 0.0000 -0.0100
v 0.0000 0.0000 -0.0100
v 10.2400 0.0000 -0.0100
v 0.0000 0.0000 -0.0100
v 10.2400 0.0000 -0.0100
v -1.6900 17.1400 -0.0100
v 10.2400 17.1400 -0.0100
v -1.6900 17.1400 -0.0100
v 10.2400 17.1400 -0.0100
v -1.6900 17.1400 -0.0100
v 10.2400 17.1400 -0.0100
v 10.2400 0.0000 -0.0100
v 0.0000 0.0000 -0.0100
v 0.0000 0.0000 -0.0100
v 10.2400 0.0000 -0.0100
v 10.2400 0.0000 -0.0100
v 0.0000 0.0000 -0.0100
v 10.2400 0.0000 -0.0100
v 0.0000 0.0000 -0.0100
v 0.0000 0.0000 -0.0100
v 0.0000 0.0000 -0.0100
v 10.2400 0.0000 -0.0100
v 10.2400 0.0000 -0.0100
v -1.6900 17.1400 -0.0100
v 10.2400 17.1400 -0.0100
v -1.6900 17.1400 -0.0100
v -1.6900 17.1400 -0.0100
v 10.2400 17.1400 -0.0100
v -1.6900 17.1400 -0.0100
v 10.2400 17.1400 -0.0100
v -1.6900 17.1400 -0.0100
v 10.2400 0.0000 -0.0100
v 10.2400 0.0000 -0.0100
v 2.1100 8.4400 -0.0100
v 8.0400 2.0600 -0.0100
v 7.7100 14.9600 -0.0100
v 0.0000 0.0000 -0.0100
v 10.2400 0.0000 -0.0100
v 0.0000 0.0000 -0.0100
v 0.0000 0.0000 -0.0100
v 10.2400 0.0000 -0.0100
v 0.0000 0.0000 -0.0100
v 10.2400 0.0000 -0.0100
v 1.3800 20.4800 -0.0100
v 9.1400 20.4800 -0.0100
v 11.5900 20.4800 -0.0100
v 19.5800 0.0000 -0.0100
v 11.8000 0.0000 -0.0100
v 1.3800 20.4800 -0.0100
v 9.1400 20.4800 -0.0100
v 19.3600 20.4800 -0.0100
v 11.5900 20.4800 -0.0100
v 19.5800 0.0000 -0.0100
v 11.8000 0.0000 -0.0100
v 19.3600 20.4800 -0.0100
v 11.5900 20.4800 -0.0100
v 9.1400 20.4800 -0.0100
v 1.3800 20.4800 -0.0100
v 11.5900 20.4800 -0.0100
v 19.5800 0.0000 -0.0100
v 11.8000 0.0000 -0.0100
v 19.3600 20.4800 -0.0100
v 9.1400 20.4800 -0.0100
v 9.1400 20.4800 -0.0100
v 1.3800 20.4800 -0.0100
v 8.0400 2.0600 -0.0100
v 8.0400 2.0600 -0.0100
v 8.0400 2.0600 -0.0100
v 9.1900 30.7400 -0.0100
v 1.5400 30.7400 -0.0100
v 1.5400 30.7400 -0.0100
v 9.1900 30.7400 -0.0100
v 9.1900 30.7400 -0.0100
v 1.5400 30.7400 -0.0100
v 9.1900 30.7400 -0.0100
v 4.7600 20.4300 0.0000
v 0.0000 0.0000 -0.0100
v 10.2400 0.0000 -0.0100
v 0.0000 0.0000 -0.0100
v 10.2400 0.0000 -0.0100
v 0.0000 0.0000 -0.0100
v 10.2400 0.0000 -0.0100
v 7.4800 11.2000 -0.0100
v 2.2800 10.6900 -0.0100
v 4.7600 20.4300 0.0000
v 7.4800 11.2000 -0.0100
v 2.2800 10.6900 -0.0100
v 7.4800 11.2000 -0.0100
v 7.4800 11.2000 -0.0100
v 2.2800 10.6900 -0.0100
v 4.7600 20.4300 0.0000
v 7.4800 11.2000 -0.0100
v 4.7600 20.4300 0.0000
v 2.2800 10.6900 -0.0100
v 7.4800 11.2000 -0.0100
v 7.4800 11.2000 -0.0100
v 2.2800 10.6900 -0.0100
v 7.4800 11.2000 -0.0100
v 2.2800 10.6900 -0.0100
v 4.7600 20.4300 0.0000
v 2.2800 10.6900 -0.0100
v 7.4800 11.2000 -0.0100
v 7.4800 11.2000 -0.0100
v 2.2800 10.6900 -0.0100
v 7.4800 11.2000 -0.0100
v 2.2800 10.6900 -0.0100
v 4.9300 15.3700 -0.0100
v 0.4500 15.3000 -0.0100
v 5.0400 15.5400 -0.0100
v 0.4100 15.4400 -0.0100
v 0.4500 15.3000 -0.0100
v 4.9300 15.3700 -0.0100
v 0.4100 15.4400 -0.0100
v 5.0400 15.5400 -0.0100
v 2.7100 18.6800 -0.0100
v 2.7300 18.8400 -0.0100
v 2.7100 18.6800 -0.0100
v 4.9300 15.3700 -0.0100
v 0.4500 15.3000 -0.0100
v 5.0400 15.5400 -0.0100
v 0.4100 15.4400 -0.0100
v 0.4500 15.3000 -0.0100
v 4.9300 15.3700 -0.0100
v 0.4100 15.4400 -0.0100
v 5.0400 15.5400 -0.0100
v 2.7100 18.6800 -0.0100
v 2.7300 18.8400 -0.0100
v 4.9300 15.3700 -0.0100
v 0.4500 15.3000 -0.0100
v 5.0400 15.5400 -0.0100
v 0.4100 15.4400 -0.0100
v 0.4500 15.3000 -0.0100
v 4.9300 15.3700 -0.0100
v 0.4100 15.4400 -0.0100
v 5.0400 15.5400 -0.0100
v 2.7100 18.6800 -0.0100
v 2.7300 18.8400 -0.0100
v 2.7300 18.8400 -0.0100
v -28.0000 0.0000 17.9200
v -33.2800 0.0000 18.5500
v -28.1600 2.5600 15.3600
v -7.5200 0.0000 0.6400
v 2.5800 0.6400 2.5600
v -7.5200 0.0000 0.0000
v -33.2800 0.0000 18.5500
v -7.5200 0.0000 0.0000
v -33.2800 0.0000 18.5500
v -7.5200 0.0000 0.0000
v -33.2800 0.0000 18.0700
v -28.1600 5.1200 0.0900
v 0.1000 0.1000 -22.8900
v 33.4500 33.4500 33.4500
v 2.4000 2.4000 2.4600
v 2.4600 2.4600 2.4600
v 25.4500 25.4500 25.4500
v -30.8900 -30.8900 0.0000
v 36.0800 36.0800 0.0000
vt -0.0459 0.0596
vt -0.0293 0.0420
vt -0.0342 0.0449
vt -0.0312 -0.0088
vt -0.0391 -0.0039
vt -0.0391 -0.0020
vt -0.0488 0.0107
vt -0.0488 -0.0303
vt -0.0410 -0.0127
vt -0.0127 -0.0098
vt -0.0303 -0.0098
vt -0.0332 0.0430
vt -0.0332 0.0479
vt -0.0410 0.0479
vt -0.0391 0.0469
vt -0.0430 0.0400
vt -0.0391 0.0400
vt -0.0303 0.0400
vt -0.0459 0.0283
vt -0.0391 0.0400
vt -0.0283 0.0283
vt -0.0352 0.0469
vt -0.0430 0.0400
vt -0.0430 0.0566
vt -0.0400 0.0449
vt -0.0303 0.0400
vt -0.0342 0.0342
vt 0.0098 -0.0459
vt -0.0068 -0.0566
vt 0.0029 -0.0459
vt 0.0127 -0.0400
vt 0.0010 -0.0244
vt 0.0029 -0.0352
vt 0.0205 -0.0342
vt 0.0049 -0.0322
vt 0.0107 -0.0498
vt 0.0049 -0.0381
vt 0.0059 -0.0352
vt 0.0117 -0.0371
vt 0.0049 -0.0381
vt 0.0098 -0.0459
vt 0.0029 -0.0459
vt -0.0010 -0.0352
vt 0.0029 -0.0352
vt 0.0049 -0.0322
vt -0.1006 -0.0566
vt -0.0898 -0.0469
vt -0.0742 -0.0576
vt -0.0830 -0.0469
vt -0.0928 -0.0254
vt -0.0898 -0.0361
vt -0.1006 -0.0566
vt -0.0898 -0.0469
vt -0.0801 -0.0322
vt -0.0723 -0.0498
vt -0.0801 -0.0381
vt -0.0762 -0.0381
vt -0.0801 -0.0381
vt -0.0830 -0.0469
vt -0.0879 -0.0449
vt -0.0830 -0.0469
vt -0.0850 -0.0352
vt -0.0898 -0.0361
vt -0.0801 -0.0322
vt -0.0781 -0.0352
vt -0.0850 -0.0352
vt 0.0029 -0.0098
vt -0.0166 -0.0381
vt -0.0166 0.0244
vt 0.0029 -0.0098
vt -0.0430 -0.0068
vt -0.0430 -0.0098
vt -0.0430 -0.0098
vt -0.0322 -0.0127
vt -0.0303 -0.0068
vt -0.0332 -0.0020
vt -0.0352 -0.0020
vt 0.0010 -0.0293
vt -0.0078 -0.0186
vt -0.0303 -0.0098
vt -0.0078 -0.0186
vt -0.0322 -0.0127
vt -0.0020 -0.0342
vt -0.0107 -0.0234
vt -0.0107 -0.0234
vt -0.0410 -0.0127
vt -0.0615 -0.0215
vt -0.0430 -0.0098
vt -0.0635 -0.0186
vt -0.0615 -0.0215
vt -0.0752 -0.0293
vt -0.0771 -0.0264
vt -0.0391 -0.0020
vt -0.0381 0.0195
vt -0.0352 -0.0020
vt -0.0352 0.0195
vt -0.0381 0.0361
vt -0.0332 0.0186
vt -0.0352 0.0361
vt -0.0283 0.0596
vt -0.0068 -0.0186
vt -0.0898 -0.0186
vt -0.0400 -0.0020
vt -0.0439 -0.0039
vt -0.0332 -0.0127
vt -0.0332 -0.0107
vt -0.0303 -0.0068
vt -0.0332 -0.0020
vt -0.0371 -0.0098
vt -0.0127 -0.0098
vt -0.0244 0.0107
vt -0.0488 0.0107
vt -0.0605 -0.0098
vt -0.0488 -0.0303
vt -0.0244 -0.0303
vt -0.0293 0.0566
vt -0.0430 0.0566
vt -0.0371 0.0400
vt -0.0557 0.0342
vt -0.0498 0.0244
vt -0.0234 0.0244
vt -0.0234 0.0244
vt -0.0186 0.0342
vt -0.0371 0.0400
vt -0.0293 0.0566
vt 0.0068 -0.0410
vt 0.0254 -0.0469
vt 0.0146 -0.0244
vt 0.0195 -0.0557
vt -0.0068 -0.0566
vt -0.0117 -0.0469
vt 0.0010 -0.0244
vt -0.0869 -0.0420
vt -0.0684 -0.0479
vt -0.0801 -0.0254
vt -0.0742 -0.0576
vt -0.1006 -0.0566
vt -0.1055 -0.0479
vt -0.0928 -0.0254
vt -0.0811 -0.0488
vt -0.0947 -0.0518
vt -0.0918 -0.0488
vt -0.0869 -0.0527
vt -0.0811 -0.0488
vt -0.0869 -0.0439
vt -0.0811 -0.0381
vt -0.0957 -0.0439
vt -0.0918 -0.0371
vt -0.0918 -0.0488
vt -0.0918 -0.0488
vt -0.0420 0.0449
vt -0.0312 0.0410
vt -0.0303 0.0439
vt -0.0400 0.0420
vt -0.0420 0.0449
vt -0.0410 0.0332
vt -0.0430 0.0342
vt -0.0332 0.0322
vt -0.0322 0.0322
vt -0.0361 0.0371
vt -0.0020 -0.0400
vt 0.0098 -0.0400
vt 0.0098 -0.0332
vt 0.0020 -0.0459
vt -0.0020 -0.0400
vt 0.0068 -0.0547
vt 0.0049 -0.0508
vt 0.0146 -0.0498
vt 0.0166 -0.0439
vt 0.0088 -0.0488
vt 0.0088 -0.0488
vt 0.0000 6.0938
vt -6.5000 0.0000
vt -6.2500 0.0000
vt -6.5000 0.0000
vt -4.0000 0.0000
vt 4.6328 -29.9648
vt -6.5000 0.0000
vt -6.2500 0.0000
vt -6.5000 0.0000
vt -6.2500 0.0000
vt -6.5000 0.0000
vt -6.2500 0.0000
vt -3.5000 8.0020
vt -2.2354 -2.2354
vt 3.2666 3.2666
vt 0.2402 0.2402
vt 2.4854 2.4854
vt -3.0166 -3.0166
vt 0.0000 0.0000
vt 0.0000 0.0000
f 30/30 32/32 29/29
f 24/24 32/32 21/21
f 32/32 31/31 21/21
f 29/29 30/30 31/31
f 32/32 29/29 31/31
f 31/31 26/26 32/32
f 32/32 28/28 29/29
f 26/26 28/28 32/32
f 30/30 31/31 32/32
f 14/14 28/28 12/12
f 30/30 31/31 32/32
f 25/25 27/27 28/28
f 28/28 27/27 29/29
f 28/28 29/29 30/30
f 30/30 31/31 29/29
f 29/29 31/31 32/32
f 12/12 18/18 17/17
f 14/14 18/18 12/12
