mtllib assets09_model_111.mtl
# Conker's Bad Fur Day — Real 3D Model (Multiplayer Level Models)
o assets09_model_111
usemtl assets09_model_111_mat

v 0.0000 6.9600 0.0000
v 6.0600 3.9600 -0.0100
v 27.1900 5.2100 -38.4000
v 6.0800 6.4200 -0.0100
v 27.1900 5.2100 -38.4000
v 6.0600 3.9600 -0.0100
v 4.6900 8.2800 -0.0100
v 4.2200 6.8000 -0.0100
v 2.4800 6.7200 -0.0100
v 4.2200 6.8000 -0.0100
v 4.2000 3.5800 -0.0100
v 4.6600 2.1000 -0.0100
v 2.4700 3.6500 -0.0100
v 4.2000 3.5800 -0.0100
v 15.6800 5.2400 -0.0100
v 11.8800 3.3900 -0.0100
v 15.7200 3.0700 -0.0100
v 11.9100 1.5100 -0.0100
v 11.8200 7.1500 -0.0100
v 11.7900 9.0300 -0.0100
v 15.6500 7.4100 -0.0100
v 7.4500 3.1500 -0.0100
v 7.4800 0.9900 -0.0100
v 7.3700 7.4600 -0.0100
v 7.3400 9.6100 -0.0100
v 3.8800 2.8300 -0.0100
v 3.8300 5.3300 -0.0100
v 3.7900 7.8300 -0.0100
v 16.9800 5.2300 -0.0100
v 2.7000 5.3400 -0.0100
v 13.4400 6.8600 -0.0100
v 13.4800 3.6600 -0.0100
v 11.9000 2.3300 -0.0100
v 7.3500 8.7900 -0.0100
v 11.8000 8.3200 -0.0100
v 5.7600 3.8100 -0.0100
v 7.4700 1.7400 -0.0100
v 5.9400 7.1100 -0.0100
v 15.6800 5.2400 -0.0100
v 3.8300 5.3300 -0.0100
v -28.0000 0.0000 17.9200
v -33.2800 0.0000 18.5500
v -28.1600 2.5600 15.3600
v -7.5200 0.0000 0.6400
v -7.5200 0.0000 0.0000
v -7.5200 0.0000 0.6400
vt 0.0000 0.0000
vt -0.0049 -0.0225
vt 0.0029 -0.0205
vt 0.0000 -0.0127
vt -0.0078 -0.0146
vt 0.0107 -0.0254
vt 0.0000 -0.0293
vt 0.0039 -0.0215
vt 0.0088 -0.0137
vt -0.0137 -0.0215
vt -0.0156 -0.0098
vt -0.0088 -0.0137
vt -0.0049 -0.0059
vt -0.0049 -0.0225
vt 0.0068 -0.0332
vt -0.0078 -0.0264
vt -0.0117 -0.0332
vt 0.0156 -0.0176
vt 0.0068 -0.0020
vt 0.0029 -0.0088
vt 0.0078 -0.0352
vt -0.0127 -0.0352
vt 0.0176 -0.0176
vt 0.0078 0.0000
vt -0.0088 -0.0273
vt 0.0068 -0.0225
vt 0.0039 -0.0068
vt -0.0029 -0.0176
vt -0.0029 -0.0176
vt -0.0098 -0.0049
vt -0.0176 -0.0176
vt -0.0156 -0.0264
vt 0.0000 0.0000
vt 0.0000 -0.0020
vt -0.0186 -0.0166
vt -0.0166 -0.0293
vt -0.0107 -0.0029
vt -0.0107 -0.0127
vt -0.0117 -0.0117
vt 0.0000 0.6875
vt -6.5000 0.0000
vt -6.2500 0.0000
vt -6.5000 0.0000
vt -4.0000 0.0000
vt -2.7344 0.0000
vt -4.0000 0.0000
f 17/17 2/2 7/7
f 19/19 1/1 26/26
f 17/17 2/2 7/7
f 16/16 5/5 10/10
f 12/12 2/2 1/1
