mtllib assets0E_model_047.mtl
# Conker's Bad Fur Day — Real 3D Model (Sloprano Models)
o assets0E_model_047
usemtl assets0E_model_047_mat

v 20.4800 0.0000 0.0000
v 20.4800 0.0000 0.0000
v 20.4800 0.0000 0.0000
v 20.4800 0.0000 0.0000
v 20.4800 0.0000 0.0000
v 20.4800 0.0000 0.0000
v 20.4800 0.0000 0.0000
v 20.4800 0.0000 0.0000
v 20.4800 0.0000 0.0000
v 20.4800 0.0000 0.0000
v 20.4800 0.0000 0.0000
v 20.4800 0.0000 0.0000
v 20.4800 0.0000 0.0000
v 20.4800 0.0000 0.0000
v 20.4800 0.0000 0.0000
v 20.4800 0.0000 0.0000
vt 4.0000 0.0654
vt 4.0000 0.0654
vt 4.0000 0.0654
vt 4.0000 0.0654
vt 4.0000 0.0693
vt 4.0000 0.0654
vt 4.0000 0.0654
vt 4.0000 0.0654
vt 4.0000 0.0654
vt 4.0000 0.0654
vt 4.0000 0.0654
vt 4.0000 0.0654
vt 4.0000 0.0654
vt 0.0312 -31.9990
vt 0.0000 0.0654
vt 4.0000 0.0693
f 1/1 1/1 1/1
f 1/1 1/1 1/1
