mtllib assets0E_model_007.mtl
# Conker's Bad Fur Day — Real 3D Model (Sloprano Models)
o assets0E_model_007
usemtl assets0E_model_007_mat

v 0.3200 2.6800 20.4800
v 20.5300 0.0000 0.0000
v 0.3200 2.6800 25.6000
v 20.4900 0.0000 0.0000
v 0.3200 2.6800 25.6000
v 20.4900 0.0000 0.0000
v 0.3200 2.6800 25.6000
v 20.4900 0.0000 0.0000
v 0.3200 2.6800 25.6000
v 20.4900 0.0000 0.0000
v 0.3200 2.6800 25.6000
v 20.4900 0.0000 0.0000
v 20.5200 0.0000 0.0000
v 20.5200 0.0000 0.0000
v 20.4900 0.0000 0.0000
v 0.3200 2.5800 23.0400
v 20.4900 0.0000 0.0000
v 20.4900 0.0000 0.0000
v 0.0100 0.0000 0.0000
v 0.0100 0.0000 0.0000
v 0.3200 2.6800 25.6000
v 20.4800 0.0000 0.0000
v 0.3200 2.6800 20.4800
v 20.4800 0.0000 0.0000
v 20.4800 0.0000 0.0000
v 20.4900 0.0000 0.0000
v 20.4900 0.0000 0.0000
v 20.4900 0.0000 0.0000
vt -1.9307 2.1680
vt 0.0000 0.0967
vt -1.8086 1.2822
vt 0.0000 0.0967
vt -1.7588 0.6875
vt 0.0000 0.0967
vt -1.7979 0.2627
vt 0.0000 0.0967
vt -1.8564 0.1973
vt 0.0000 0.0967
vt -1.8564 0.7881
vt 0.0000 0.0967
vt 0.0000 0.1006
vt 0.0000 0.1006
vt 0.0000 0.0967
vt -1.8564 0.3555
vt 0.0000 0.0967
vt 0.0000 0.0967
vt 0.0000 0.0967
vt 0.0000 0.0967
vt -1.8564 1.2939
vt 0.0000 0.0967
vt -1.6426 -1.7969
vt 0.0000 16.5957
vt 0.0000 0.0967
vt 0.0000 0.0967
vt 0.0000 0.0967
vt 0.0000 0.0967
f 1/1 2/2 3/3
f 4/4 5/5 6/6
f 7/7 8/8 9/9
f 10/10 11/11 12/12
f 13/13 14/14 15/15
f 16/16 17/17 18/18
f 19/19 20/20 21/21
f 22/22 23/23 24/24
f 25/25 26/26 27/27
