mtllib assets09_model_024.mtl
# Conker's Bad Fur Day — Real 3D Model (Multiplayer Level Models)
o assets09_model_024
usemtl assets09_model_024_mat

v 0.0000 15.2800 0.0000
v 2.3800 5.7200 -2.5800
v 0.7700 5.8100 -2.5800
v 2.7500 2.2300 -2.5800
v 4.0300 2.7400 -2.5800
v 5.4500 8.4600 -2.5800
v 4.4500 9.0900 -2.5800
v 11.4300 9.3500 -2.5800
v 11.6300 10.1600 -2.5800
v 16.8200 7.8700 -2.5800
v 18.1000 8.3900 -2.5800
v 18.4600 4.8900 -2.5800
v 20.0700 4.8100 -2.5800
v 15.4000 2.1500 -2.5800
v 16.3900 1.5200 -2.5800
v 9.4200 1.2600 -2.5800
v 5.3900 -1.1700 -2.5800
v 5.2000 11.2700 -2.5800
v -10.6600 11.4300 -2.5800
v -7.8300 -1.0300 -2.5800
v 18.6100 -1.3100 -2.5800
v 21.0600 11.1000 -2.5800
v 2.4200 5.0500 -2.5800
v 10.2400 9.3500 -2.5800
v 4.5600 8.0300 -2.5800
v 5.0700 2.1600 -2.5800
v 16.1300 8.2400 -2.5800
v 10.9600 1.0500 -2.5800
v 16.6400 2.3700 -2.5800
v 18.7800 5.3500 -2.5800
v 3.1800 8.6800 -2.5800
v 0.5500 5.0200 -2.5800
v 10.1600 10.3000 -2.5800
v 17.4000 8.9400 -2.5800
v 20.6500 5.3800 -2.5800
v 18.0200 1.7200 -2.5800
v 11.0400 0.1000 -2.5800
v 3.8000 1.4600 -2.5800
v 0.0000 0.0000 -2.5800
v 0.0000 0.0000 -2.5800
v 0.0000 0.0000 -2.5800
v 0.0000 0.0000 -2.5800
v 0.0000 0.0000 -2.5800
v 0.0000 0.0000 -2.5800
v 0.0000 0.0000 -2.5800
v 0.0000 0.0000 -2.5800
v 0.0000 0.0000 -2.5800
v 0.0000 0.0000 -2.5800
v 0.0000 0.0000 -2.5800
v 0.0000 0.0000 -2.5800
v 0.0000 0.0000 -2.5800
v 0.0000 0.0000 -2.5800
v 0.0000 0.0000 -2.5800
v 0.0000 0.0000 -2.5800
v 0.0000 0.0000 -2.5800
v 0.0000 0.0000 -2.5800
v 0.0000 0.0000 -2.5800
v 0.0000 0.0000 -2.5800
v 0.0000 0.0000 -2.5800
v 0.0000 0.0000 -2.5800
v 0.0000 0.0000 -2.5800
v 0.0000 0.0000 -2.5800
v 0.0000 0.0000 -2.5800
v 0.0000 0.0000 -2.5800
v 0.0000 0.0000 -2.5800
v 0.0000 0.0000 -2.5800
v 0.0000 0.0000 -2.5800
v 0.0000 0.0000 -2.5800
v 0.0000 0.0000 -2.5800
v 0.0000 0.0000 -2.5800
v 0.0000 0.0000 -2.5800
v 0.0000 0.0000 -2.5800
v 0.0000 0.0000 -2.5800
v 0.0000 0.0000 -2.5800
v 0.0000 0.0000 -2.5800
v 0.0000 0.0000 -2.5800
v 0.0000 0.0000 -2.5800
v 0.0000 0.0000 -2.5800
v 0.0000 0.0000 -2.5800
v 0.0000 0.0000 -2.5800
v 0.0000 0.0000 -2.5800
v 0.0000 0.0000 -2.5800
v 0.0000 0.0000 -2.5800
v 0.0000 0.0000 -2.5800
v 0.0000 0.0000 -2.5800
v 0.0000 0.0000 -2.5800
v 0.0000 0.0000 -2.5800
v 0.0000 0.0000 -2.5800
v 0.0000 0.0000 -2.5800
v 0.0000 0.0000 -2.5800
v 0.0000 0.0000 -2.5800
v 0.0000 0.0000 -2.5800
v 0.0000 0.0000 -2.5800
v 0.0000 0.0000 -2.5800
v 0.0000 0.0000 -2.5800
v -28.0000 0.0000 17.9200
v -33.2800 0.0000 18.5500
v -28.1600 2.5600 15.3600
v -7.5200 0.0000 0.6400
v -7.5200 0.0000 0.6400
v -7.5200 0.0000 0.6400
v 2.5700 0.3200 2.5600
v 15.6600 15.3600 0.1800
v -7.5200 0.0000 0.0000
v -33.2800 0.0000 18.1200
v -28.0800 20.4800 0.0100
v -28.0800 10.8800 2.5600
v -28.0800 5.9200 5.1200
v 15.5400 35.8600 0.0000
v -7.5200 0.0000 0.6400
vt 0.0000 0.0000
vt -0.0615 -0.0049
vt -0.0430 -0.0049
vt -0.0361 -0.0283
vt -0.0361 -0.0283
vt -0.0430 -0.0049
vt 0.0000 -0.0283
vt 0.0000 -0.0049
vt 0.0361 -0.0283
vt 0.0430 -0.0049
vt 0.0508 -0.0283
vt 0.0615 -0.0049
vt 0.0361 -0.0283
vt 0.0430 -0.0049
vt 0.0000 -0.0283
vt 0.0000 -0.0283
vt 0.0000 -0.0049
vt 0.0430 -0.0049
vt 0.0361 -0.0283
vt -0.0361 -0.0283
vt -0.0430 -0.0049
vt -0.0459 -0.0244
vt 0.0000 -0.0244
vt -0.0322 -0.0244
vt -0.0322 -0.0244
vt 0.0332 -0.0244
vt 0.0000 -0.0244
vt 0.0332 -0.0244
vt 0.0459 -0.0244
vt -0.0400 -0.0068
vt -0.0566 -0.0068
vt 0.0000 -0.0068
vt 0.0400 -0.0068
vt 0.0566 -0.0068
vt 0.0400 -0.0068
vt 0.0000 -0.0068
vt -0.0400 -0.0068
vt 0.0059 -0.0039
vt 0.0000 -0.0098
vt 0.0059 -0.0156
vt 0.0107 -0.0137
vt 0.0059 -0.0215
vt 0.0000 -0.0215
vt -0.0049 -0.0215
vt -0.0059 -0.0156
vt -0.0107 -0.0137
vt -0.0049 -0.0039
vt 0.0000 -0.0098
vt -0.0059 -0.0156
vt -0.0049 -0.0166
vt 0.0000 -0.0117
vt 0.0000 -0.0215
vt 0.0000 -0.0215
vt 0.0059 -0.0156
vt 0.0049 -0.0166
vt 0.0000 -0.0127
vt -0.0088 -0.0127
vt 0.0000 -0.0068
vt 0.0059 -0.0215
vt 0.0000 -0.0176
vt 0.0098 -0.0127
vt -0.0049 -0.0215
vt -0.0107 -0.0137
vt -0.0049 -0.0039
vt 0.0059 -0.0039
vt 0.0000 -0.0049
vt 0.0000 -0.0068
vt 0.0400 -0.0068
vt 0.0430 -0.0049
vt 0.0000 -0.0049
vt 0.0000 -0.0068
vt -0.0400 -0.0068
vt -0.0430 -0.0049
vt 0.0566 -0.0068
vt 0.0400 -0.0068
vt 0.0430 -0.0049
vt 0.0615 -0.0049
vt -0.0566 -0.0068
vt -0.0400 -0.0068
vt -0.0430 -0.0049
vt -0.0615 -0.0049
vt -0.0430 -0.0049
vt -0.0400 -0.0068
vt 0.0000 -0.0068
vt 0.0000 -0.0049
vt -0.0088 -0.0127
vt -0.0049 -0.0039
vt 0.0000 -0.0068
vt 0.0098 -0.0127
vt 0.0059 -0.0039
vt 0.0107 -0.0137
vt -0.0049 -0.0215
vt 0.0000 -0.0176
vt 0.0059 -0.0215
vt 0.0000 1.5000
vt -6.5000 0.0000
vt -6.2500 0.0000
vt -6.5000 0.0000
vt -4.0000 0.0000
vt -4.0000 0.0000
vt -4.0000 0.0000
vt 4.6406 3.1260
vt -6.2500 0.0000
vt -6.5000 0.0000
vt -6.2500 0.0000
vt -3.5000 8.0020
vt -3.5000 8.0020
vt -3.5000 8.0020
vt -9.5049 -0.0010
vt -4.0000 0.0000
f 74/74 2/2 10/10
f 3/3 1/1 108/108
f 52/52 1/1 77/77
f 39/39 2/2 29/29
f 103/103 2/2 64/64
f 11/11 4/4 13/13
f 11/11 9/9 4/4
f 16/16 4/4 1/1
f 10/10 16/16 1/1
f 10/10 8/8 2/2
f 1/1 10/10 2/2
f 15/15 9/9 16/16
f 17/17 12/12 14/14
