# Conker's Bad Fur Day — Real 3D Model (HUD & UI Props)
o assets01_model_034

v 4.6400 1.4300 -0.0100
v 3.6600 5.4100 -0.0100
v 0.6800 4.2100 -0.0100
v 0.9000 7.7300 -0.0100
v 5.1100 9.4300 -0.0100
v 3.0000 8.5800 -0.0100
v 2.7000 10.0100 -0.0100
v 6.6400 6.6100 -0.0100
v 6.3800 2.2500 -0.0100
v 7.7100 9.7600 -0.0100
v 9.5600 6.9700 -0.0100
v 7.3800 8.3400 -0.0100
v 3.5800 7.1500 -0.0100
v 6.6600 5.2100 -0.0100
v 3.6000 2.6000 -0.0100
v 5.9800 1.2700 -0.0100
v 5.2000 9.7100 -0.0100
v 9.7300 3.2700 -0.0100
v 6.3100 8.6000 -0.0100
v 9.0400 8.8800 -0.0100
v 6.3500 10.3500 -0.0100
v 8.5000 3.9900 -0.0100
v 9.7900 4.1200 -0.0100
v 6.1900 3.7500 -0.0100
v 3.1100 3.2900 -0.0100
v 6.4000 -10.9500 -0.0100
v 8.1400 -5.6000 -0.0100
v 5.3700 -5.7100 -0.0100
v 6.4000 -10.9500 -0.0100
v 17.1500 8.9400 -0.0100
v 18.3500 9.4000 -0.0100
v 15.6600 10.4400 -0.0100
v 17.1700 2.2100 -0.0100
v 17.1700 2.2100 -0.0100
v 19.5600 6.0800 -0.0100
v 15.5900 6.2800 -0.0100
v 15.5500 4.5600 -0.0100
v 14.6600 2.4000 -0.0100
v 14.3700 1.3300 -0.0100
v 15.1800 1.3300 -0.0100
v 10.2000 5.0500 -0.0100
v 13.1000 9.8300 -0.0100
v 10.7800 2.8200 -0.0100
v 12.3900 1.4200 -0.0100
v 17.1500 8.9400 -0.0100
v 15.5900 6.2800 -0.0100
v 15.5500 4.5600 -0.0100
v 14.6600 2.4000 -0.0100
v 14.3700 1.3300 -0.0100
v 13.1000 9.8300 -0.0100
v 10.2000 5.0500 -0.0100
v 10.7800 2.8200 -0.0100
v 9.8600 6.7700 -0.0100
v 8.7300 0.6500 -0.0100
v 0.2700 5.0100 -0.0100
v -1.6900 4.4600 -0.0100
v -0.2000 3.2200 -0.0100
v 2.4400 5.8700 -0.0100
v 2.3200 7.1300 -0.0100
v 5.3100 3.1600 -0.0100
v 6.3800 4.1100 -0.0100
v 4.8800 -0.4300 -0.0100
v 5.1500 7.0500 -0.0100
v 4.2700 5.0600 -0.0100
v 4.2700 5.0600 -0.0100
v 4.7300 2.3600 -0.0100
v 2.2600 1.7700 -0.0100
v 4.7300 2.3600 -0.0100
v 12.3900 1.4200 -0.0100
v 10.7800 2.8200 -0.0100
v 10.7800 2.8200 -0.0100
v 9.8600 6.7700 -0.0100
v 10.2000 5.0500 -0.0100
v 10.2000 5.0500 -0.0100
v 5.5400 2.0600 -0.0100
v 4.8300 0.3600 -0.0100
v 8.5300 2.2500 -0.0100
v 0.3600 2.6800 -0.0100
v 9.1800 5.5000 -0.0100
v 0.3600 2.6800 -0.0100
v 6.9100 1.9700 -0.0100
v 9.3200 3.1600 -0.0100
v 7.2600 0.3900 -0.0100
v 0.5700 1.0400 -0.0100
v -0.0100 5.4700 -0.0100
v 2.2000 0.6800 -0.0100
v 8.0400 5.9300 -0.0100
v 6.8400 -0.2000 -0.0100
v 6.8400 -0.2000 -0.0100
v 3.4200 8.8500 -0.0100
v 5.3100 3.1600 -0.0100
v 2.6700 0.5100 -0.0100
v 4.8800 -0.4300 -0.0100
v -0.1100 -0.2100 -0.0100
v -0.2000 3.2200 -0.0100
v -1.6900 4.4600 -0.0100
v 2.5500 3.2900 -0.0100
v 2.4400 5.8700 -0.0100
v 4.2000 4.8200 -0.0100
v 3.6500 7.6200 -0.0100
v 0.8300 2.7000 -0.0100
v 4.9200 5.9500 -0.0100
v 6.2500 8.9300 -0.0100
v 0.4300 5.2200 -0.0100
v 9.8300 9.7300 -0.0100
v 0.5700 1.0400 -0.0100
v -0.0100 5.4700 -0.0100
v 6.8400 -0.2000 -0.0100
v 3.4200 8.8500 -0.0100
v 9.8300 9.7300 -0.0100
v 3.5900 9.4500 -0.0100
v 6.3000 8.2800 -0.0100
v 9.2800 9.4100 -0.0100
v 2.2000 5.3000 -0.0100
v 6.1900 4.5600 -0.0100
v 10.9200 5.0400 -0.0100
v 0.0400 3.4600 -0.0100
v -3.5900 8.5500 -0.0100
v -3.6700 8.2500 -0.0100
v -3.7100 9.2400 -0.0100
v 6.7900 -0.2700 -0.0100
v 3.7200 -0.8200 -0.0100
v -0.2800 9.0300 -0.0100
v -0.7600 8.5500 -7.7200
v 0.2500 8.3500 -7.7200
v 4.2200 8.6600 -0.0100
v 4.1000 9.1800 -0.0100
v 3.4000 8.2500 -0.0100
v 4.2200 8.6600 -0.0100
v 6.8500 10.2500 -0.0100
v 9.1200 8.3700 -0.0100
v 6.7600 8.3200 -0.0100
v 9.6100 3.0500 -0.0100
v 8.4900 3.0200 -0.0100
v 6.5000 2.9800 -0.0100
v 3.8300 2.7600 -0.0100
v 5.4800 -7.3900 -0.0100
v 7.8700 -7.5300 -0.0100
v 6.1900 -13.2800 -0.0100
v 5.2800 2.9800 -7.7200
v 5.2800 2.9800 -7.7200
v 5.1500 3.2400 -7.7200
v 20.1800 0.6300 -0.0100
v 19.5900 0.6700 -0.0100
v 19.6200 1.0100 -0.0100
v 5.2300 7.6600 -0.0100
v 4.1500 9.5700 -0.0100
v 5.2700 9.7700 -0.0100
v 6.4200 9.5800 -0.0100
v 4.2700 8.7900 -0.0100
v 3.4800 8.1600 -0.0100
v 6.1500 8.8600 -0.0100
v 6.9900 8.1700 -0.0100
v 6.1500 8.8600 -0.0100
v 4.2700 8.7900 -0.0100
v 5.2200 7.1600 -0.0100
v 10.0100 2.0500 -0.0100
v 5.0900 1.5200 -0.0100
v 0.2000 2.0300 -0.0100
v 9.0300 4.8000 -0.0100
v 5.1600 4.4700 -0.0100
v 1.3000 4.7800 -0.0100
v 0.5400 4.7300 -0.0100
v 9.7800 4.7600 -0.0100
v 2.4100 2.3300 -0.0100
v 5.1500 3.9200 -0.0100
v 20.1800 0.6300 -0.0100
v 19.5700 0.3200 -0.0100
v 19.5900 0.6700 -0.0100
v 19.5900 0.6700 -0.0100
v 19.6200 1.0100 -0.0100
v 19.6200 1.0100 -0.0100
v 19.5900 0.6700 -0.0100
v 13.4300 1.0400 -0.0100
v 13.6100 1.6200 -0.0100
v 13.4300 1.0400 -0.0100
v 13.4200 0.2800 -0.0100
v 6.8500 1.7000 -0.0100
v 6.9000 2.7400 -0.0100
v 6.8500 1.7000 -0.0100
v 6.8100 0.6300 -0.0100
v -0.3200 3.0800 -0.0100
v 0.3500 4.8700 -0.0100
v -0.3200 3.0800 -0.0100
v -0.3200 1.3400 -0.0100
v -0.2400 4.1100 -0.0100
v 1.9000 5.2800 -0.0100
v 5.9600 4.5300 -0.0100
v 3.1500 9.5400 -0.0100
v 5.9500 8.1100 -0.0100
v 8.9300 8.8800 -0.0100
v 10.7400 4.4800 -0.0100
v 14.1200 8.4600 -0.0100
v 14.1900 8.1700 -0.0100
v 14.3000 9.1600 -0.0100
v 6.7300 -0.2000 -0.0100
v 3.6400 -0.4000 -0.0100
v 10.8500 8.9800 -0.0100
v 11.3000 8.4900 -0.0100
v 10.2700 8.3100 -7.7200
v 6.4500 9.1600 -0.0100
v 6.1700 8.6900 -0.0100
v 7.0500 8.2300 -0.0100
v 6.1700 8.6900 -0.0100
v 0.0000 0.0000 5.1500
v 0.0000 0.0000 7.7200
v 0.0000 0.0000 10.2900
v 0.0000 37.3600 0.0000
v 0.0000 37.2400 0.3200
v 0.3200 0.6400 0.0000
v 0.0000 37.1800 0.0000
v 0.0000 37.2700 0.3200
v 0.3200 0.3200 0.0000
v 0.0000 37.2300 0.0000
v 0.0000 37.4000 0.6400
v 0.1600 0.1600 0.0000
v -28.0800 20.4800 0.0900
v -7.5200 0.0000 17.9200
v -7.5200 0.0000 15.3600
v -7.5200 0.0000 0.6400
v -7.5200 0.0000 0.0000
v -33.2800 0.0000 18.5500
v -7.5200 0.0000 0.6400
v -7.5200 0.0000 0.0000
v -33.2800 0.0000 18.2300
v -28.0800 20.4800 0.0900
v -7.5200 0.0000 0.6400
v -6.5600 0.0000 0.0000
v -33.2800 0.0000 18.5500
v -27.1200 20.4800 0.0900
v -7.5200 0.0000 0.0000
v -33.2800 0.0000 18.2300
v -28.0800 20.4800 0.0900
v -7.5200 0.0000 0.0000
v -33.2800 0.0000 18.2300
v -7.5200 0.0000 0.6400
v 15.5800 0.3600 0.3600
v -7.5200 0.0000 0.0000
v -33.2800 0.0000 17.9900
v -28.0800 10.2400 0.0900
v -28.0800 20.4800 0.0900
v -7.5200 0.0000 0.0000
v -7.5200 0.0000 0.0000
v -33.2800 0.0000 18.2300
v -7.5200 0.0000 0.6400
v -28.0000 0.0000 17.9200
v -33.2800 0.0000 18.2300
v -28.1600 2.5600 15.3600
v -7.5200 0.0000 0.6400
v -7.5200 0.0000 0.6400
v -7.5200 0.0000 0.0000
v -33.2800 0.0000 18.2300
v 13.1800 0.0400 0.0000
v 1.5000 1.3200 29.6300
vt -0.0068 0.0020
vt -0.0195 -0.0010
vt -0.0186 0.0098
vt -0.0146 0.0107
vt -0.0088 0.0127
vt -0.0098 0.0166
vt 0.0068 0.0059
vt 0.0049 -0.0078
vt -0.0146 0.0000
vt 0.0195 0.0068
vt 0.0166 0.0078
vt -0.0068 0.0078
vt 0.0068 0.0010
vt -0.0078 -0.0059
vt 0.0029 -0.0107
vt -0.0020 0.0049
vt 0.0049 0.0137
vt 0.0146 -0.0029
vt -0.0156 -0.0107
vt 0.0010 -0.0107
vt 0.0176 -0.0107
vt -0.0244 -0.0068
vt -0.0029 0.0215
vt 0.0166 0.0127
vt 0.0205 -0.0068
vt -0.0166 -0.0078
vt 0.0000 0.0068
vt 0.0098 -0.0078
vt 0.0000 -0.0039
vt 0.0000 0.0566
vt 0.0000 0.0645
vt 0.0166 0.0127
vt -0.0166 0.0127
vt 0.0000 0.0352
vt 0.0205 0.0391
vt 0.0283 0.0283
vt 0.0254 0.0146
vt 0.0059 0.0088
vt 0.0000 0.0078
vt 0.0166 0.0342
vt 0.0156 0.0625
vt 0.0137 0.0195
vt 0.0000 0.0098
vt -0.0156 0.0547
vt -0.0205 0.0391
vt -0.0283 0.0283
vt -0.0254 0.0146
vt -0.0059 0.0088
vt -0.0156 0.0625
vt -0.0166 0.0342
vt -0.0137 0.0195
vt 0.0000 0.0449
vt -0.0107 0.0000
vt 0.0000 -0.0039
vt -0.0068 -0.0088
vt -0.0068 0.0029
vt 0.0010 0.0107
vt 0.0000 0.0127
vt 0.0078 0.0029
vt 0.0107 0.0039
vt 0.0068 -0.0088
vt 0.0000 0.0176
vt -0.0195 0.0059
vt 0.0195 0.0059
vt 0.0195 -0.0107
vt 0.0000 -0.0137
vt -0.0195 -0.0107
vt 0.0010 -0.0029
vt 0.0137 0.0195
vt -0.0137 0.0195
vt 0.0000 0.0449
vt 0.0166 0.0342
vt -0.0166 0.0342
vt 0.0078 -0.0068
vt -0.0010 -0.0186
vt -0.0029 0.0068
vt 0.0020 -0.0312
vt 0.0000 0.0195
vt 0.0020 -0.0312
vt -0.0068 -0.0068
vt 0.0039 0.0068
vt 0.0010 -0.0186
vt 0.0010 -0.0186
vt 0.0039 0.0068
vt -0.0010 -0.0322
vt 0.0000 0.0186
vt -0.0010 -0.0322
vt -0.0010 -0.0322
vt 0.0000 0.0186
vt 0.0078 0.0029
vt 0.0010 -0.0049
vt 0.0068 -0.0088
vt -0.0068 -0.0088
vt -0.0068 0.0029
vt -0.0107 0.0049
vt 0.0010 0.0039
vt 0.0010 0.0107
vt 0.0000 0.0352
vt 0.0156 0.0547
vt 0.0166 0.0127
vt 0.0000 0.0352
vt -0.0156 0.0547
vt -0.0166 0.0127
vt 0.0166 0.0127
vt -0.0010 -0.0186
vt -0.0029 0.0068
vt 0.0020 -0.0312
vt 0.0000 0.0195
vt 0.0127 -0.0059
vt -0.0166 0.0127
vt -0.0156 0.0068
vt -0.0186 -0.0059
vt -0.0049 -0.0049
vt 0.0000 0.0146
vt -0.0186 -0.0059
vt 0.0020 -0.0020
vt 0.0020 -0.0020
vt 0.0000 -0.0068
vt -0.0010 0.0078
vt -0.0010 0.0078
vt 0.0000 -0.0068
vt 0.0000 -0.0020
vt -0.0322 -0.0020
vt -0.0254 -0.0049
vt -0.0068 0.0088
vt -0.0078 0.0156
vt -0.0117 0.0029
vt -0.0068 0.0088
vt -0.0010 -0.0107
vt 0.0156 -0.0107
vt -0.0010 0.0098
vt -0.0176 -0.0107
vt 0.0166 0.0127
vt 0.0029 0.0215
vt -0.0166 0.0127
vt -0.0205 -0.0068
vt 0.0166 -0.0078
vt 0.0078 -0.0078
vt -0.0078 -0.0078
vt 0.0127 -0.0312
vt -0.0020 -0.0146
vt -0.0010 -0.0332
vt -0.0029 -0.0029
vt 0.0000 0.0000
vt 0.0000 0.0098
vt -0.0078 0.0156
vt 0.0000 0.0176
vt 0.0078 0.0156
vt -0.0068 0.0088
vt -0.0117 0.0029
vt 0.0059 0.0098
vt 0.0117 0.0029
vt 0.0000 0.0176
vt -0.0068 0.0088
vt 0.0000 -0.0068
vt 0.0322 0.0088
vt 0.0000 0.0039
vt 0.0000 -0.0088
vt 0.0254 0.0342
vt 0.0000 0.0312
vt -0.0254 0.0342
vt -0.0303 0.0342
vt 0.0303 0.0342
vt 0.0000 -0.0029
vt 0.0000 0.0264
vt 0.0000 -0.0029
vt 0.0000 -0.0059
vt -0.0029 -0.0029
vt 0.0029 -0.0029
vt 0.0000 0.0000
vt 0.0000 0.0000
vt -0.0029 -0.0029
vt 0.0059 -0.0059
vt 0.0000 -0.0010
vt -0.0059 -0.0059
vt 0.0000 -0.0127
vt 0.0107 -0.0127
vt 0.0000 -0.0039
vt -0.0107 -0.0127
vt 0.0000 -0.0215
vt 0.0186 0.0117
vt 0.0000 0.0264
vt -0.0176 0.0117
vt 0.0000 -0.0029
vt 0.0010 -0.0049
vt 0.0039 -0.0068
vt 0.0010 0.0127
vt 0.0215 -0.0098
vt 0.0156 0.0039
vt 0.0195 -0.0088
vt 0.0010 -0.0049
vt -0.0010 -0.0049
vt 0.0010 -0.0068
vt 0.0020 0.0078
vt 0.0020 0.0078
vt 0.0010 -0.0068
vt 0.0010 -0.0020
vt 0.0059 -0.0029
vt -0.0010 -0.0059
vt 0.0078 0.0156
vt 0.0059 0.0098
vt 0.0117 0.0029
vt 0.0059 0.0098
vt 0.0000 5.6328
vt 0.0000 0.0000
vt 0.0000 0.0000
vt 0.0000 0.0000
vt 0.0156 0.0156
vt 0.0000 7.1016
vt 0.0000 3.6377
vt 0.0312 0.0312
vt 0.0000 3.6348
vt 0.0000 3.6328
vt 0.0312 0.0312
vt 0.0000 1.1729
vt -6.2500 0.0000
vt -3.5000 8.0020
vt -2.7344 0.0000
vt -4.0000 0.0000
vt -4.0000 0.0000
vt -6.5000 0.0000
vt -6.2500 0.0000
vt -4.0000 0.0000
vt -6.5000 0.0000
vt -6.2500 0.0000
vt -3.5000 8.0020
vt -4.0000 0.0000
vt -6.5000 0.0000
vt -6.2500 0.0000
vt -3.5000 8.0020
vt -6.5000 0.0000
vt -6.2500 0.0000
vt -3.5000 8.0020
vt -6.5000 0.0000
vt -6.2500 0.0000
vt -4.0000 0.0000
vt 1.2500 1.0371
vt -6.5000 0.0000
vt -6.2500 0.0000
vt -3.5000 8.0020
vt -3.5000 8.0020
vt -2.7344 0.0000
vt -6.5000 0.0000
vt -6.2500 0.0000
vt -4.0000 0.0000
vt -6.5000 0.0000
vt -6.2500 0.0000
vt -6.5000 0.0000
vt -4.0000 0.0000
vt -4.0000 0.0000
vt -6.5000 0.0000
vt -6.2500 0.0000
vt -8.2500 0.0000
vt -22.3359 0.1143
f 90/90 2/2 64/64
f 128/128 128/128 128/128
f 16/16 3/3 11/11
f 128/128 128/128 128/128
f 91/91 1/1 111/111
f 128/128 128/128 128/128
f 91/91 1/1 111/111
f 128/128 128/128 128/128
f 12/12 2/2 59/59
f 128/128 128/128 128/128
f 10/10 1/1 101/101
f 128/128 128/128 128/128
f 94/94 1/1 121/121
f 79/79 1/1 67/67
f 120/120 1/1 67/67
f 16/16 2/2 108/108
f 90/90 2/2 64/64
f 128/128 128/128 128/128
f 12/12 2/2 59/59
f 128/128 128/128 128/128
f 10/10 1/1 101/101
f 128/128 128/128 128/128
f 94/94 1/1 121/121
f 79/79 1/1 67/67
f 16/16 2/2 108/108
f 32/32 1/1 53/53
f 41/41 1/1 82/82
f 32/32 1/1 53/53
f 32/32 1/1 15/15
f 67/67 2/2 40/40
f 70/70 2/2 25/25
f 76/76 2/2 75/75
f 14/14 3/3 13/13
f 17/17 16/16 26/26
f 27/27 26/26 28/28
f 14/14 13/13 16/16
f 17/17 16/16 15/15
f 3/3 5/5 1/1
f 1/1 6/6 2/2
f 23/23 15/15 21/21
f 12/12 1/1 19/19
f 19/19 1/1 20/20
f 1/1 3/3 20/20
f 19/19 32/32 27/27
f 27/27 13/13 19/19
f 1/1 2/2 3/3
f 18/18 15/15 19/19
f 19/19 15/15 12/12
f 19/19 12/12 16/16
f 21/21 15/15 23/23
f 19/19 3/3 12/12
f 20/20 3/3 19/19
f 20/20 1/1 3/3
f 59/59 16/16 68/68
f 66/66 101/101 73/73
f 66/66 54/54 113/113
f 104/104 121/121 36/36
