mtllib assets09_model_312.mtl
# Conker's Bad Fur Day — Real 3D Model (Multiplayer Level Models)
o assets09_model_312
usemtl assets09_model_312_mat

v 0.0000 13.8400 0.0000
v 0.0000 0.0000 -2.5800
v 0.0000 0.0000 -2.5800
v 0.0000 0.0000 -2.5800
v 0.0000 0.0000 -2.5800
v 0.0000 0.0000 -2.5800
v 0.0000 0.0000 -2.5800
v 0.0000 0.0000 -2.5800
v 0.0000 0.0000 -2.5800
v 0.0000 0.0000 -2.5800
v 0.0000 0.0000 -2.5800
v 0.0000 0.0000 -2.5800
v 0.0000 0.0000 -2.5800
v 0.0000 0.0000 -2.5800
v 0.0000 0.0000 -2.5800
v 0.0000 0.0000 -2.5800
v 0.0000 0.0000 -2.5800
v 0.0000 0.0000 -2.5800
v 0.0000 0.0000 -2.5800
v 0.0000 0.0000 -2.5800
v 0.0000 0.0000 -2.5800
v 0.0000 0.0000 -2.5800
v 0.0000 0.0000 -2.5800
v 0.0000 0.0000 -2.5800
v 0.0000 0.0000 -2.5800
v 0.0000 0.0000 -2.5800
v 0.0000 0.0000 -2.5800
v 0.0000 0.0000 -2.5800
v 0.0000 0.0000 -2.5800
v 0.0000 0.0000 -2.5800
v 0.0000 0.0000 -2.5800
v 0.0000 0.0000 -2.5800
v 0.0000 0.0000 -2.5800
v 0.0000 0.0000 -2.5800
v 0.0000 0.0000 -2.5800
v 0.0000 0.0000 -2.5800
v 0.0000 0.0000 -2.5800
v 0.0000 0.0000 -2.5800
v 0.0000 0.0000 -2.5800
v 0.0000 0.0000 -2.5800
v 0.0000 0.0000 -2.5800
v 0.0000 0.0000 -2.5800
v 0.0000 0.0000 -2.5800
v 0.0000 0.0000 -2.5800
v 0.0000 0.0000 -2.5800
v 0.0000 0.0000 -2.5800
v 0.0000 0.0000 -2.5800
v 0.0000 0.0000 -2.5800
v 0.0000 0.0000 -2.5800
v 0.0000 0.0000 -2.5800
v 2.5800 0.6400 0.0000
v 2.5800 0.6400 0.0000
v -27.3600 0.0000 17.9200
v -27.4400 20.4800 0.0100
v -7.5200 0.0000 0.6400
v -26.7200 0.0000 17.9200
v -26.8000 35.8400 0.0900
v -27.3600 0.0000 17.9200
v -27.4400 20.4800 0.0900
v -27.4400 11.5200 2.6500
v -27.4400 6.7200 5.2000
v -27.4400 6.8000 7.7600
v -27.4400 6.8400 10.3200
v -7.5200 0.0000 0.6400
vt 0.0000 0.0000
vt 0.0068 -0.0068
vt 0.0010 -0.0029
vt 0.0029 -0.0127
vt -0.0088 -0.0078
vt 0.0068 -0.0127
vt -0.0107 0.0010
vt 0.0029 -0.0098
vt 0.0078 -0.0117
vt -0.0039 -0.0098
vt -0.0088 -0.0098
vt -0.0020 -0.0010
vt 0.0039 0.0000
vt 0.0039 -0.0176
vt -0.0049 -0.0146
vt 0.0039 -0.0166
vt -0.0049 -0.0088
vt -0.0049 -0.0146
vt -0.0059 0.0059
vt 0.0039 0.0049
vt 0.0029 0.0049
vt -0.0068 0.0068
vt -0.0156 -0.0088
vt 0.0020 -0.0225
vt -0.0068 -0.0205
vt 0.0029 -0.0225
vt -0.0068 -0.0205
vt -0.0127 0.0029
vt -0.0098 0.0010
vt -0.0186 -0.0088
vt -0.0146 -0.0098
vt 0.0059 -0.0225
vt 0.0020 -0.0225
vt 0.0020 -0.0244
vt 0.0059 -0.0225
vt 0.0029 -0.0225
vt 0.0039 -0.0176
vt 0.0039 -0.0166
vt -0.0068 -0.0205
vt -0.0146 -0.0098
vt -0.0088 -0.0098
vt -0.0049 -0.0146
vt -0.0098 0.0010
vt -0.0020 -0.0010
vt -0.0059 0.0059
vt -0.0156 -0.0088
vt -0.0068 -0.0205
vt -0.0049 -0.0146
vt -0.0088 -0.0078
vt 0.0205 0.0371
vt 4.1250 -25.8682
vt 4.5195 3.1270
vt -3.2500 0.0000
vt -3.4375 9.0020
vt -2.6562 0.2500
vt -3.2500 0.0000
vt -3.4375 9.0020
vt -3.2500 0.0000
vt -3.4375 9.0020
vt -3.4688 8.5020
vt -3.4844 8.2520
vt -3.4922 8.1270
vt -3.4961 8.0645
vt -6.5000 0.0000
f 28/28 29/29 31/31
f 28/28 31/31 30/30
f 16/16 24/24 32/32
f 11/11 13/13 12/12
f 14/14 15/15 16/16
f 17/17 14/14 16/16
f 18/18 19/19 20/20
f 18/18 21/21 19/19
f 19/19 21/21 22/22
f 32/32 31/31 30/30
f 9/9 2/2 1/1
f 10/10 9/9 11/11
