# Conker's Bad Fur Day — Real 3D Model (Multiplayer Level Models)
o assets09_model_139

v 0.0000 24.2400 0.0000
v 1.4200 16.0300 -0.0100
v 1.6400 1.6300 -0.0100
v 3.3000 2.2900 -0.0100
v 3.0600 16.8100 -0.0100
v 0.4800 14.4700 -0.0100
v 0.8000 1.7900 -0.0100
v 3.0000 1.0600 -0.0100
v 2.6500 15.2000 -0.0100
v 0.8100 15.2400 -0.0100
v 1.3500 0.5300 -0.0100
v 3.9800 -0.3100 -0.0100
v 3.3900 16.0900 -0.0100
v 4.2700 0.5300 -0.0100
v 6.2600 14.2300 -0.0100
v 4.1700 14.9800 -0.0100
v 6.3500 1.2500 -0.0100
v 6.4700 15.7000 -0.0100
v 3.2800 16.5400 -0.0100
v 4.7700 -0.1900 -0.0100
v 7.8000 0.6900 -0.0100
v 8.6200 12.2500 -0.0100
v 5.9600 12.9100 -0.0100
v 4.4200 1.2500 -0.0100
v 7.1100 0.6800 -0.0100
v 2.6800 12.2300 -0.0100
v 7.1100 0.6800 -0.0100
v 1.1800 0.7000 -0.0100
v 5.2200 1.5500 -0.0100
v 5.0000 15.9000 -0.0100
v 1.4200 16.0300 -0.0100
v 4.8600 14.4400 -0.0100
v 5.1700 1.8100 -0.0100
v 6.4600 15.2300 -0.0100
v 6.9900 0.5700 -0.0100
v 1.3500 0.5300 -0.0100
v 0.8100 15.2400 -0.0100
v 1.8300 1.3000 -0.0100
v 1.7400 14.2300 -0.0100
v 6.2600 14.2300 -0.0100
v 6.3500 1.2500 -0.0100
v 1.0500 0.6800 -0.0100
v -0.2700 15.6200 -0.0100
v 6.4700 15.7000 -0.0100
v 7.8000 0.6900 -0.0100
v 3.3900 16.0900 -0.0100
v 6.9900 0.5700 -0.0100
v 6.4600 15.2300 -0.0100
v 3.9800 -0.3100 -0.0100
v 3.0000 1.0600 -0.0100
v 5.1700 1.8100 -0.0100
v 2.6500 15.2000 -0.0100
v 4.8600 14.4400 -0.0100
v 5.0000 15.9000 -0.0100
v 3.0600 16.8100 -0.0100
v 5.2200 1.5500 -0.0100
v 3.3000 2.2900 -0.0100
v 1.1800 0.7000 -0.0100
v 5.9600 12.9100 -0.0100
v 2.6800 12.2300 -0.0100
v 4.4200 1.2500 -0.0100
v 3.2800 16.5400 -0.0100
v 1.0500 0.6800 -0.0100
v 4.7700 -0.1900 -0.0100
v -0.2700 15.6200 -0.0100
v 1.8300 1.3000 -0.0100
v 4.2700 0.5300 -0.0100
v 4.1700 14.9800 -0.0100
v 1.7400 14.2300 -0.0100
v 3.7200 0.4800 -0.0100
v 4.9000 13.6100 -0.0100
v 3.6100 14.0000 -0.0100
v 5.0000 0.4600 -0.0100
v 3.6100 14.0200 -0.0100
v 3.7200 0.4800 -0.0100
v 2.4400 0.4900 -0.0100
v 2.3400 13.6300 -0.0100
v 10.2300 3.2300 -0.0100
v 6.5800 9.6400 -0.0100
v 6.5800 9.6400 -0.0100
v -1.8600 5.9200 -0.0100
v -1.8600 5.9200 -0.0100
v -1.8800 9.6800 -0.0100
v -1.8800 9.6800 -0.0100
v -1.8600 5.9200 -0.0100
v -11.7600 5.9800 -0.0100
v -11.7600 5.9800 -0.0100
v -11.7800 9.7300 -0.0100
v -11.7600 5.9800 -0.0100
v -20.5300 6.0700 -0.0100
v -20.5500 9.7700 -0.0100
v -20.5300 6.0700 -0.0100
v 10.2300 3.2300 -0.0100
v 6.6200 3.2500 -0.0100
v 6.5800 9.6400 -0.0100
v -1.8600 5.9200 -0.0100
v -1.8600 5.9200 -0.0100
v -1.8800 9.6800 -0.0100
v -11.7800 9.7300 -0.0100
v -11.7600 5.9800 -0.0100
v -11.7800 9.7300 -0.0100
v -20.5500 9.7700 -0.0100
v -20.5300 6.0700 -0.0100
v -28.0000 0.0000 17.9200
v -33.2800 0.0000 18.5500
v -28.1600 2.5600 15.3600
v -7.5200 0.0000 0.6400
v 2.5800 0.6400 2.5600
v -7.4400 0.0000 0.0000
v 15.4000 0.0200 0.0000
vt 0.0000 2.3711
vt -0.0010 -0.0225
vt 0.0039 -0.0186
vt 0.0449 -0.0186
vt 0.0410 -0.0225
vt 0.0410 -0.0225
vt 0.0449 -0.0186
vt 0.0449 -0.0186
vt -0.0010 -0.0225
vt 0.0410 -0.0225
vt 0.0449 -0.0186
vt -0.0010 -0.0186
vt -0.0469 -0.0186
vt -0.0010 -0.0225
vt -0.0010 -0.0186
vt -0.0420 -0.0225
vt -0.0420 -0.0225
vt -0.0469 -0.0186
vt -0.0469 -0.0186
vt -0.0420 -0.0225
vt -0.0420 -0.0225
vt -0.0469 -0.0186
vt -0.0059 -0.0186
vt -0.0010 -0.0225
vt -0.0420 -0.0137
vt -0.0010 -0.0225
vt -0.0010 -0.0137
vt -0.0010 -0.0137
vt 0.0400 -0.0137
vt 0.0410 -0.0225
vt 0.0400 -0.0137
vt 0.0400 -0.0137
vt -0.0010 -0.0137
vt 0.0400 -0.0137
vt 0.0410 -0.0225
vt -0.0010 -0.0225
vt -0.0420 -0.0137
vt -0.0010 -0.0137
vt -0.0010 -0.0225
vt -0.0420 -0.0225
vt -0.0420 -0.0137
vt -0.0420 -0.0137
vt -0.0420 -0.0225
vt -0.0420 -0.0225
vt -0.0010 -0.0186
vt 0.0400 -0.0137
vt -0.0010 -0.0137
vt 0.0449 -0.0186
vt 0.0449 -0.0186
vt 0.0400 -0.0137
vt 0.0449 -0.0186
vt 0.0400 -0.0137
vt 0.0400 -0.0137
vt 0.0449 -0.0186
vt -0.0010 -0.0137
vt 0.0039 -0.0186
vt -0.0010 -0.0137
vt -0.0469 -0.0186
vt -0.0420 -0.0137
vt -0.0059 -0.0186
vt -0.0469 -0.0186
vt -0.0420 -0.0137
vt -0.0469 -0.0186
vt -0.0420 -0.0137
vt -0.0420 -0.0137
vt -0.0469 -0.0186
vt -0.0010 -0.0186
vt -0.0010 -0.0137
vt -0.0010 -0.0225
vt 0.0039 -0.0186
vt -0.0010 -0.0225
vt 0.0039 -0.0186
vt -0.0010 -0.0137
vt -0.0010 -0.0137
vt -0.0059 -0.0186
vt -0.0059 -0.0186
vt 0.0000 0.0176
vt -0.0234 0.0664
vt 0.0000 0.0664
vt 0.0000 0.0664
vt -0.0361 0.0771
vt 0.0000 0.0771
vt 0.0000 0.0771
vt 0.0361 0.0771
vt 0.0020 0.0723
vt -0.0293 0.0723
vt 0.0020 0.0723
vt 0.0332 0.0723
vt 0.0332 0.0723
vt -0.0010 -0.0137
vt 0.0400 -0.0137
vt 0.0000 0.0176
vt 0.0234 0.0664
vt 0.0000 0.0664
vt 0.0361 0.0771
vt 0.0361 0.0771
vt 0.0000 0.0771
vt 0.0020 0.0723
vt 0.0332 0.0723
vt 0.0020 0.0723
vt -0.0010 -0.0137
vt 0.0400 -0.0137
vt 0.0000 2.4531
vt -6.5000 0.0000
vt -6.2500 0.0000
vt -6.5000 0.0000
vt -4.0000 0.0000
vt 4.5234 -27.8379
vt -2.7266 0.0000
vt -8.2500 0.0000
f 31/31 32/32 6/6
f 31/31 6/6 5/5
f 17/17 13/13 21/21
f 2/2 5/5 6/6
f 3/3 1/1 2/2
f 1/1 4/4 2/2
