# Conker's Bad Fur Day — Real 3D Model (Bat's Tower Level Models)
o assets0A_model_028

v 0.0000 0.8000 0.0000
v 0.0000 0.9600 0.0000
v 0.0000 3.0400 0.0000
v 0.0000 4.2400 0.0000
v 0.0000 5.4400 0.0000
v 0.0200 0.1100 0.0000
v 0.0200 0.7600 0.0900
v -1.8700 0.0000 0.0000
v -4.6000 -4.3100 4.9200
v 0.0200 0.5500 0.0600
v 7.6800 0.0000 0.0000
v -3.5100 5.2300 -3.4200
v -3.4200 -3.5100 5.2300
v 5.2300 -3.4200 -3.5100
v -3.5100 5.2300 -3.4200
v -3.4200 -3.5100 5.2300
v 5.2300 0.0000 0.0000
v -3.1100 -2.5700 4.3000
v 4.3000 -3.1100 -2.5700
v -2.5700 4.3000 -3.1100
v -3.1100 -2.5700 4.3000
v 4.3000 -3.1100 -2.5700
v -2.5700 4.3000 -3.1100
v 0.0200 2.1600 0.0600
v 6.0800 0.0000 0.0000
v -2.5700 4.3000 -3.1100
v -3.1100 -2.5700 4.3000
v 4.3000 -3.1100 -2.5700
v -2.5700 4.3000 -3.1100
v -3.1100 -2.5700 4.3000
v 4.3000 -3.1100 -2.5700
v -2.5700 4.3000 -3.1100
v -3.1100 -2.5700 4.3000
v 4.3000 -3.1100 -2.5700
v -2.5700 4.3000 -3.1100
v -3.1100 -2.5700 4.3000
v 4.3000 -3.1100 -2.5700
v -2.5700 4.3000 -3.1100
v -3.1100 -2.5700 4.3000
v 4.3000 -3.1100 -2.5700
v -2.5700 4.3000 -3.1100
v -3.1100 -2.5700 4.3000
v 4.3000 -3.1100 -2.5700
v -2.5700 4.3000 -3.1100
v -3.1100 -2.5700 4.3000
vt 0.0000 0.0938
vt 0.0000 0.1172
vt 0.0000 0.3203
vt 0.0000 0.4375
vt 0.0000 0.5547
vt 0.7500 0.0000
vt 0.7500 -32.0000
vt -0.4668 -0.4482
vt -23.7520 13.7480
vt 0.7500 -32.0000
vt -0.3340 -0.3428
vt 0.5107 -0.3340
vt -0.3428 0.5107
vt -0.3340 -0.3428
vt 0.5107 -0.3340
vt -0.3428 0.5107
vt 0.0020 0.0596
vt -0.2510 0.4199
vt -0.3037 -0.2510
vt 0.4199 -0.3037
vt -0.2510 0.4199
vt -0.3037 -0.2510
vt 0.4199 -0.3037
vt 0.7500 -32.0000
vt -0.3037 -0.2510
vt 0.4199 -0.3037
vt -0.2510 0.4199
vt -0.3037 -0.2510
vt 0.4199 -0.3037
vt -0.2510 0.4199
vt -0.3037 -0.2510
vt 0.4199 -0.3037
vt -0.2510 0.4199
vt -0.3037 -0.2510
vt 0.4199 -0.3037
vt -0.2510 0.4199
vt -0.3037 -0.2510
vt 0.4199 -0.3037
vt -0.2510 0.4199
vt -0.3037 -0.2510
vt 0.4199 -0.3037
vt -0.2510 0.4199
vt -0.3037 -0.2510
vt 0.4199 -0.3037
vt -0.2510 0.4199
f 1/1 2/2 3/3
f 4/4 5/5 6/6
f 7/7 8/8 9/9
f 10/10 11/11 12/12
f 13/13 14/14 15/15
f 16/16 17/17 18/18
f 19/19 20/20 21/21
f 22/22 23/23 24/24
f 25/25 26/26 27/27
f 28/28 29/29 30/30
f 31/31 32/32 33/33
f 34/34 35/35 36/36
f 37/37 38/38 39/39
f 40/40 41/41 42/42
f 43/43 44/44 45/45
