# Conker's Bad Fur Day — Real 3D Model (Multiplayer Level Models)
o assets09_model_078

v 0.0000 9.3600 0.0000
v 2.3900 9.5600 -0.0100
v 5.6100 15.8700 -0.0100
v 5.0400 19.3500 -0.0100
v 5.8700 16.1500 -0.0100
v 5.0400 19.3500 -0.0100
v 5.6100 15.8700 -0.0100
v 7.6000 9.6300 -0.0100
v 4.9900 8.9100 -0.0100
v 7.7200 7.7600 -0.0100
v 5.0300 16.3000 -0.0100
v 8.4900 7.3000 -0.0100
v 8.4900 7.3000 -0.0100
v 2.3900 9.5600 -0.0100
v 5.0300 16.3000 -0.0100
v -28.0000 0.0000 17.9200
v -33.2800 0.0000 18.2300
v -28.1600 2.5600 15.3600
v -7.5200 0.0000 1.2800
vt 0.0000 0.0000
vt -0.0225 0.3193
vt -0.0527 0.3359
vt 0.0176 0.3398
vt -0.0527 0.3359
vt 0.0029 0.3379
vt -0.0332 0.3135
vt 0.0000 0.2529
vt 0.0547 0.2109
vt -0.0186 0.2666
vt 0.0420 0.2441
vt -0.0371 0.2676
vt -0.0518 0.2461
vt -0.0049 0.3311
vt 0.0000 0.0586
vt -6.5000 0.0000
vt -6.2500 0.0000
vt -6.5000 0.0000
vt -4.0000 0.0000
f 1/1 2/2 3/3
f 4/4 5/5 6/6
f 7/7 8/8 9/9
f 10/10 11/11 12/12
f 13/13 14/14 15/15
f 16/16 17/17 18/18
