mtllib assets10_model_016.mtl
# Conker's Bad Fur Day — Real 3D Model (Spooky Models)
o assets10_model_016
usemtl assets10_model_016_mat

v 0.0000 1.0400 0.0000
v 0.0000 2.1600 0.0000
v 0.0000 2.6400 0.0000
v 0.0000 2.9600 0.0000
v 0.0000 3.2800 0.0000
v 0.0000 3.6000 0.0000
v 0.0000 0.2900 0.0000
v 6.3700 0.2100 -3.0500
v -2.6600 0.2900 -4.7300
v 0.4600 0.2900 -1.8500
v -0.7800 0.2900 2.9200
v 4.4900 0.2900 -1.9400
v -2.3600 0.2900 -1.5700
v -4.9300 0.0500 7.1100
v 0.5100 0.2900 1.0500
v -35.5300 11.4900 -9.2400
v -29.9500 26.0900 10.4900
v -19.0800 29.2900 -18.5000
v 24.9300 29.5900 -7.0400
v -4.2600 34.8900 17.5300
v -0.5500 39.0400 -16.8500
v -2.3600 0.2900 4.1800
vt 0.0000 0.1562
vt 0.0000 0.2266
vt 0.0000 0.2734
vt 0.0000 0.3047
vt 0.0000 0.3359
vt -0.1719 0.0283
vt 0.5137 0.0283
vt 0.2256 0.0283
vt -0.4590 0.0283
vt -0.3301 0.0283
vt 0.3408 0.0283
vt 0.0264 0.0283
vt -0.4814 9.7656
vt 0.0498 9.7656
vt -3.4697 1.1221
vt -2.9248 2.5479
vt -1.8633 2.8604
vt 2.4346 2.8896
vt -0.4160 3.4072
vt -0.0537 3.8125
vt -0.2305 0.0283
vt -0.4160 3.4072
f 1/1 2/2 3/3
f 4/4 5/5 6/6
f 7/7 8/8 9/9
f 10/10 11/11 12/12
f 13/13 14/14 15/15
f 16/16 17/17 18/18
f 19/19 20/20 21/21
