mtllib assets09_model_082.mtl
# Conker's Bad Fur Day — Real 3D Model (Multiplayer Level Models)
o assets09_model_082
usemtl assets09_model_082_mat

v 0.0000 3.7600 0.0000
v 6.8100 7.0900 -0.0100
v 10.0200 4.8200 -0.0100
v 6.7000 1.7800 -0.0100
v 6.8100 7.0900 -0.0100
v 0.5700 6.5600 -0.0100
v 1.6000 3.6600 -0.0100
v 6.7000 1.7800 -0.0100
v 3.3900 2.1400 -0.0100
v 1.6000 3.6600 -0.0100
v 3.3900 2.1400 -0.0100
v 35.1500 4.7300 -0.0100
v 35.1300 0.4700 -0.0100
v 35.1300 0.4700 -0.0100
v 35.1500 4.7300 -0.0100
v 2.3300 3.8500 -0.0100
v 2.3300 3.8500 -0.0100
v 2.3200 0.9800 -0.0100
v 2.3200 0.9800 -0.0100
v 0.5200 2.4000 -0.0100
v -28.0000 0.0000 17.9200
v -33.2800 0.0000 18.3400
v -28.1600 2.5600 15.3600
v -7.5200 0.0000 0.6400
v -28.0800 11.5200 2.5700
v -28.0800 6.7200 5.1200
v -28.0800 6.8000 7.6800
v -7.5200 0.0000 0.6400
v 15.3600 5.1600 0.0600
vt 0.0000 0.0000
vt -0.0254 -0.0137
vt -0.0322 -0.0137
vt -0.0186 -0.0156
vt -0.0186 -0.0137
vt -0.0264 -0.0137
vt -0.0322 -0.0137
vt -0.0303 -0.0137
vt -0.0264 -0.0137
vt -0.0303 -0.0137
vt -0.0225 -0.0127
vt -0.0273 -0.0107
vt -0.0273 -0.0176
vt -0.0176 -0.0176
vt -0.0225 -0.0156
vt -0.0195 -0.0156
vt -0.0254 -0.0156
vt -0.0254 -0.0127
vt -0.0225 -0.0137
vt -0.0225 -0.0127
vt -6.5000 0.0000
vt -6.2500 0.0000
vt -6.5000 0.0000
vt -4.0000 0.0000
vt -3.5000 8.0020
vt -3.5000 8.0020
vt -3.5000 8.0020
vt -4.0000 0.0000
vt -10.2500 2.2520
f 6/6 8/8 4/4
f 10/10 9/9 1/1
f 1/1 2/2 3/3
f 4/4 5/5 6/6
