mtllib assets09_model_046.mtl
# Conker's Bad Fur Day — Real 3D Model (Multiplayer Level Models)
o assets09_model_046
usemtl assets09_model_046_mat

v 0.0000 3.4400 0.0000
v 10.2300 0.1300 -0.0100
v 6.2100 10.4100 -0.0100
v 0.1300 0.1900 -0.0100
v 0.3600 0.5000 -0.0100
v 3.1500 0.2600 -0.0100
v 1.5500 10.9700 -0.0100
v 0.1300 0.1400 -0.0100
v 4.8900 0.2300 -0.0100
v 2.5600 11.5200 -0.0100
v 0.6100 0.4400 -0.0100
v 2.7700 11.5700 -0.0100
v 4.8900 0.7500 -0.0100
v 2.2100 6.3600 -2.5800
v 1.6700 10.4200 -2.5800
v 2.8100 10.6800 -2.5800
v -28.0000 0.0000 17.9200
v -33.2800 0.0000 18.2300
v -28.1600 2.5600 15.3600
v -7.5200 0.0000 0.6400
v -7.5200 0.0000 0.6400
v -7.5200 0.0000 0.0000
v -33.2800 0.0000 18.5500
v -28.0800 20.4800 0.0900
vt 0.0000 0.0000
vt -0.0078 0.0098
vt -0.0117 -0.0059
vt -0.0068 0.0000
vt -0.0078 0.0059
vt -0.0195 0.0029
vt -0.0078 0.0059
vt -0.0088 -0.0020
vt -0.0195 0.0029
vt -0.0068 0.0000
vt -0.0195 0.0029
vt -0.0088 -0.0020
vt 0.0010 0.0020
vt 0.0000 0.0068
vt -0.0020 -0.0088
vt 0.0000 0.3438
vt -6.5000 0.0000
vt -6.2500 0.0000
vt -6.5000 0.0000
vt -4.0000 0.0000
vt -4.0000 0.0000
vt -6.5000 0.0000
vt -6.2500 0.0000
vt -3.5000 8.0020
f 1/1 2/2 3/3
f 4/4 5/5 6/6
f 7/7 8/8 9/9
f 10/10 11/11 12/12
