# Conker's Bad Fur Day — Real 3D Model (Spooky Models)
o assets10_model_056

v 0.0000 0.7200 0.0000
v 0.0000 1.0400 0.0000
v 0.0000 1.3600 0.0000
v 0.0000 1.6800 0.0000
v 0.0000 2.0000 0.0000
v -2.1700 -5.8500 0.7300
v -2.1700 -5.8500 0.7300
v -2.1700 -5.8500 0.7300
v -2.3100 -5.8500 -0.6400
v -2.3100 -5.8500 -0.6400
vt 0.0000 0.0859
vt 0.0000 0.1172
vt 0.0000 0.1484
vt 0.0000 0.1797
vt 0.0000 0.0000
vt -0.2119 -0.5713
vt -0.2119 -0.5713
vt -0.2256 -0.5713
vt -0.2256 -0.5713
vt -0.1963 -0.5713
f 1/1 2/2 3/3
f 4/4 5/5 6/6
f 7/7 8/8 9/9
