# Conker's Bad Fur Day — Real 3D Model (Multiplayer Level Models)
o assets09_model_085

v 0.0000 7.7600 0.0000
v 10.2400 0.0000 -0.0100
v 10.2400 10.2400 -0.0100
v 0.0000 10.2400 -0.0100
v 0.0000 0.0000 -0.0100
v 0.0000 10.2400 -0.0100
v 10.2400 10.2400 -0.0100
v 10.2400 0.0000 -0.0100
v 0.0000 0.0000 -0.0100
v 0.0000 0.0000 -0.0100
v 0.0000 0.0000 -0.0100
v 0.0000 0.0000 -0.0100
v 0.0000 0.0000 -0.0100
v 0.0000 0.0000 -0.0100
v 0.0000 0.0000 -0.0100
v 0.0000 0.0000 -0.0100
v 0.0000 0.0000 -0.0100
v 0.0000 0.0000 -0.0100
v 0.0000 0.0000 -0.0100
v 0.0000 0.0000 -0.0100
v 0.0000 0.0000 -0.0100
v 0.0000 0.0000 -0.0100
v 0.0000 0.0000 -0.0100
v 0.0000 0.0000 -0.0100
v 0.0000 0.0000 -0.0100
v 0.0000 0.0000 -0.0100
v 0.0000 0.0000 -0.0100
v 0.0000 0.0000 -0.0100
v 0.0000 0.0000 -0.0100
v 0.0000 0.0000 -0.0100
v 0.0000 0.0000 -0.0100
v 0.0000 0.0000 -0.0100
v 0.0000 0.0000 -0.0100
v 0.0000 0.0000 -0.0100
v 0.0000 0.0000 -0.0100
v 0.0000 0.0000 -0.0100
v 0.0000 0.0000 -0.0100
v 0.0000 0.0000 -0.0100
v 0.0000 0.0000 -0.0100
v 0.0000 0.0000 -0.0100
v 0.0000 0.0000 -0.0100
v 0.0000 0.0000 -0.0100
v 0.0000 0.0000 -0.0100
v 0.0000 0.0000 -0.0100
v 0.0000 0.0000 -0.0100
v 0.0000 0.0000 -0.0100
v 0.0000 0.0000 -0.0100
v 0.0000 0.0000 -0.0100
v -7.4400 0.0000 0.0000
v 15.3600 5.1600 0.0000
v -7.5200 0.0000 0.0000
v -28.0800 20.4800 0.0100
v 15.5200 5.1200 0.1400
v 12.8600 0.0400 0.0000
v 15.4800 35.9200 0.0000
v 1.2700 1.2700 1.2700
v 1.2700 1.2700 1.2700
vt 0.0000 0.0000
vt -0.0078 0.0000
vt -0.0264 0.0000
vt -0.0264 0.0000
vt 0.0264 0.0000
vt 0.0078 0.0000
vt 0.0078 0.0000
vt 0.0264 0.0000
vt 0.0000 0.0000
vt 0.0000 0.0098
vt -0.0098 0.0000
vt -0.0098 0.0000
vt 0.0000 0.0098
vt 0.0000 -0.0098
vt 0.0098 0.0000
vt 0.0000 -0.0098
vt 0.0098 0.0000
vt -0.0098 0.0000
vt 0.0000 -0.0098
vt 0.0000 0.0098
vt 0.0098 0.0000
vt -0.0098 0.0000
vt 0.0000 0.0098
vt 0.0000 -0.0098
vt 0.0098 0.0000
vt 0.0000 0.0078
vt 0.0000 0.0078
vt -0.0078 0.0000
vt -0.0078 0.0000
vt 0.0000 -0.0078
vt 0.0000 -0.0078
vt 0.0078 0.0000
vt 0.0078 0.0000
vt 0.0000 0.0000
vt 0.0029 -0.0020
vt 0.0000 0.0039
vt 0.0000 0.0000
vt -0.0029 -0.0020
vt 0.0000 0.0000
vt 0.0010 -0.0010
vt 0.0020 -0.0010
vt 0.0000 0.0010
vt 0.0000 0.0029
vt -0.0020 -0.0010
vt -0.0020 -0.0010
vt -0.0010 -0.0010
vt 0.0000 0.0010
vt 0.0000 0.7656
vt -2.7266 0.0000
vt -8.9453 0.0137
vt -2.7344 0.0000
vt -2.7422 1.1250
vt -9.5049 -0.0010
vt -9.5049 -0.0010
vt 1.2500 1.0117
vt 0.0000 0.0000
vt 0.0000 0.0000
f 1/1 2/2 3/3
f 1/1 3/3 4/4
f 1/1 2/2 3/3
f 4/4 1/1 3/3
f 9/9 2/2 1/1
f 8/8 1/1 3/3
f 1/1 2/2 3/3
f 2/2 4/4 5/5
f 4/4 1/1 3/3
f 7/7 8/8 5/5
f 1/1 7/7 5/5
f 1/1 3/3 7/7
