mtllib assets09_model_060.mtl
# Conker's Bad Fur Day — Real 3D Model (Multiplayer Level Models)
o assets09_model_060
usemtl assets09_model_060_mat

v 0.0000 9.2000 0.0000
v 0.0000 10.2400 -2.5800
v 10.2400 10.2400 -2.5800
v 0.0000 0.0000 -2.5800
v 10.2400 0.0000 -2.5800
v 0.0000 10.2400 -2.5800
v 0.0000 0.0000 -2.5800
v 10.2400 10.2400 -2.5800
v 10.2400 0.0000 -2.5800
v 5.5000 5.3400 -0.0100
v 9.4000 5.4500 -0.0100
v 7.3500 7.9800 -0.0100
v 7.5500 2.8100 -0.0100
v 15.3600 5.2100 -2.5800
v 15.3700 2.2600 -2.5800
v 20.2900 5.2200 -2.5800
v 15.3500 8.1500 -2.5800
v 20.2700 9.5600 -2.5800
v 20.3100 0.8800 -2.5800
v 15.2700 8.5000 -2.5800
v 15.1900 5.3800 -2.5800
v 0.3200 8.5100 -2.5800
v 0.2400 5.3800 -2.5800
v 0.2400 5.3800 -2.5800
v 0.1500 2.2500 -2.5800
v 15.1900 5.3800 -2.5800
v 15.1000 2.2500 -2.5800
v 20.3100 0.8800 -2.5800
v 20.2900 5.2200 -2.5800
v 15.3700 2.2600 -2.5800
v 15.3600 5.2100 -2.5800
v 15.3500 8.1500 -2.5800
v 20.2700 9.5600 -2.5800
v 15.3500 8.1500 -2.5800
v 20.2900 5.2200 -2.5800
v 20.2700 9.5600 -2.5800
v 15.3600 5.2100 -2.5800
v 15.3700 2.2600 -2.5800
v 20.3100 0.8800 -2.5800
v 20.3100 0.8800 -2.5800
v 20.2900 5.2200 -2.5800
v 15.3700 2.2600 -2.5800
v 15.3500 8.1500 -2.5800
v 20.2700 9.5600 -2.5800
v 15.3600 5.2100 -2.5800
v 7.8000 3.0400 -0.0100
v 9.9500 5.3400 -0.0100
v 5.6300 5.3000 -0.0100
v 7.7800 7.5900 -0.0100
v 9.9100 5.7400 -2.5800
v 8.7800 5.6600 -2.5800
v 8.9700 14.0800 -2.5800
v 7.6400 5.2200 -2.5800
v 9.8900 4.9800 -2.5800
v 8.7600 4.9000 -2.5800
v 8.9600 13.7200 -2.5800
v 7.6200 4.4600 -2.5800
v -28.0000 0.0000 17.9200
v -33.2800 0.0000 18.2300
v -28.1600 2.5600 15.3600
v -7.5200 0.0000 0.6400
v -7.5200 0.0000 0.0000
v -33.2800 0.0000 18.5500
v 2.5700 0.3200 2.5600
v -7.5200 0.0000 0.6400
v 12.8600 0.0400 0.0000
v 12.8600 0.0400 0.0000
v 4.3000 -3.8800 -3.9300
v -3.8600 4.2100 6.4400
vt 0.0000 0.0000
vt -0.0254 0.0576
vt -0.0918 0.0557
vt -0.0576 0.0254
vt -0.0605 0.1562
vt -0.0977 0.1201
vt -0.0225 0.1221
vt -0.0596 0.0859
vt -0.0283 0.1064
vt -0.0918 0.1055
vt -0.0605 0.1357
vt -0.0596 0.0762
vt -0.0283 0.1064
vt -0.0605 0.1357
vt -0.0225 0.1221
vt -0.0596 0.0762
vt -0.0596 0.0859
vt -0.0605 0.1562
vt -0.0605 0.1289
vt -0.0352 0.1064
vt -0.0596 0.0908
vt -0.0352 0.0684
vt -0.0830 0.0674
vt -0.0586 0.0449
vt -0.0840 0.1055
vt -0.0596 0.0830
vt -0.0596 0.0859
vt -0.0977 0.1201
vt -0.0596 0.0762
vt -0.0918 0.1055
vt -0.0605 0.1357
vt -0.0605 0.1562
vt -0.0596 0.0957
vt -0.0254 0.0576
vt -0.0596 0.0879
vt -0.0293 0.0684
vt -0.0586 0.0400
vt -0.0576 0.0254
vt -0.0596 0.0879
vt -0.0918 0.0557
vt -0.0596 0.0957
vt -0.0586 0.0400
vt -0.0576 0.0254
vt -0.0879 0.0674
vt -0.0586 0.0400
vt -0.0293 0.0684
vt -0.0879 0.0674
vt -0.0596 0.0957
vt -0.0156 0.0322
vt -0.0049 0.0527
vt -0.0693 0.1055
vt 0.0068 0.0547
vt -0.0127 0.0107
vt -0.0010 0.0312
vt -0.0684 0.0859
vt 0.0098 0.0322
vt 0.0000 0.9062
vt -6.5000 0.0000
vt -6.2500 0.0000
vt -6.5000 0.0000
vt -4.0000 0.0000
vt -6.5000 0.0000
vt -6.2500 0.0000
vt 4.6289 -28.8740
vt -4.0000 0.0000
vt -8.9453 0.0137
vt -8.2500 0.0000
vt -0.3838 31.5020
vt 0.4111 17.0352
f 1/1 2/2 5/5
f 1/1 2/2 5/5
f 1/1 2/2 5/5
f 1/1 2/2 5/5
f 30/30 28/28 31/31
f 31/31 28/28 32/32
f 13/13 14/14 15/15
f 15/15 14/14 16/16
f 1/1 2/2 3/3
f 2/2 4/4 3/3
f 4/4 1/1 3/3
f 1/1 2/2 3/3
f 2/2 4/4 3/3
f 4/4 1/1 3/3
