# Conker's Bad Fur Day — Real 3D Model (HUD & UI Props)
o assets01_model_038

v 0.0000 23.4800 0.0000
v 0.0000 32.1600 0.0000
v 34.4500 0.5200 -0.0100
v 26.6800 0.6000 -0.0100
v 23.5700 5.6000 -0.0100
v 18.7000 0.5700 -0.0100
v 11.2300 0.5400 -0.0100
v 8.3900 7.0700 -0.0100
v 18.7000 0.5700 -0.0100
v 11.2300 0.5400 -0.0100
v -4.6200 1.6800 -0.0100
v 3.2500 0.5100 -0.0100
v -7.6400 7.2200 -0.0100
v -4.6200 1.6800 -0.0100
v 3.2500 0.5100 -0.0100
v 26.6800 0.6000 -0.0100
v 0.8400 1.7500 -0.0100
v 5.1000 5.7700 -0.0100
v -1.5000 5.9700 -0.0100
v 5.1000 9.9000 -0.0100
v 11.4700 5.7300 -0.0100
v 9.3600 1.6000 -0.0100
v 5.1000 1.1400 -0.0100
v 1.4600 6.7200 -0.0100
v 4.8600 6.1800 -0.0100
v 5.0900 17.4800 -0.0100
v 3.9000 11.9400 -0.0100
v 2.4100 13.6800 -0.0100
v 3.7000 17.5300 -0.0100
v 4.6700 0.2800 -0.0100
v 1.1200 17.5400 -0.0100
v 3.9000 11.9400 -0.0100
v 1.1200 17.5400 -0.0100
v 0.9400 11.9500 -0.0100
v 3.9000 11.9400 -0.0100
v 4.6700 0.2800 -0.0100
v 3.9000 11.9400 -0.0100
v 0.2200 0.2900 -0.0100
v 2.4100 13.6800 -0.0100
v 0.9400 11.9500 -0.0100
v 0.2200 0.2900 -0.0100
v 3.5200 18.0400 -0.0100
v 2.3600 13.7400 -0.0100
v 2.4300 19.2200 -0.0100
v 3.7400 10.7900 -0.0100
v 4.8400 0.3300 -0.0100
v 0.8100 17.3300 -0.0100
v 0.6900 10.0000 -0.0100
v 0.2100 0.2800 -0.0100
v 2.3600 13.7400 -0.0100
v 2.2400 20.0600 -0.0100
v 2.3000 15.6300 -0.0100
v 3.6300 18.4000 -0.0100
v 3.9500 9.4300 -0.0100
v 4.8700 0.2000 -0.0100
v 3.6300 18.4000 -0.0100
v 0.8600 18.4800 -0.0100
v 2.2400 20.0600 -0.0100
v 3.9500 9.4300 -0.0100
v 0.8300 9.5300 -0.0100
v 4.8700 0.2000 -0.0100
v 0.1800 0.3400 -0.0100
v 2.3000 15.6300 -0.0100
v 3.8400 19.0800 -0.0100
v 2.6200 15.6500 -0.0100
v 2.6300 16.8300 -0.0100
v 3.9600 13.5800 -0.0100
v 3.9600 13.5800 -0.0100
v 4.5400 2.6500 -0.0100
v 1.4300 19.1100 -0.0100
v 1.2400 13.6200 -0.0100
v 1.2400 13.6200 -0.0100
v 0.4500 2.7000 -0.0100
v 2.6200 15.6500 -0.0100
v 2.5000 15.2100 -0.0100
v 2.5000 14.6600 -0.0100
v 3.8600 18.7700 -0.0100
v 2.5000 14.6600 -0.0100
v 4.0300 12.7700 -0.0100
v 4.0300 12.7700 -0.0100
v 4.7800 0.2300 -0.0100
v 3.8600 18.7700 -0.0100
v 1.1800 18.8200 -0.0100
v 2.5000 15.2100 -0.0100
v 0.9600 12.8200 -0.0100
v 0.1600 0.3100 -0.0100
v 2.5000 14.6600 -0.0100
v 1.1800 18.8200 -0.0100
v 2.9000 17.4500 -0.0100
v 2.5300 14.9400 -0.0100
v 3.7600 19.9900 -0.0100
v 3.7600 19.9900 -0.0100
v 2.5300 14.9400 -0.0100
v 3.6900 12.8200 -0.0100
v 4.8300 0.2200 -0.0100
v 0.9900 19.3500 -0.0100
v 3.6900 12.8200 -0.0100
v 0.5800 12.1100 -0.0100
v 0.5800 12.1100 -0.0100
v 0.0900 0.2900 -0.0100
v 2.9000 17.4500 -0.0100
v 0.0900 0.2900 -0.0100
v 19.5900 0.6700 -0.0100
v 19.5700 0.3200 -0.0100
v 19.5900 0.6700 -0.0100
v 19.6200 1.0100 -0.0100
v 20.1800 0.6300 -0.0100
v 20.1800 0.6300 -0.0100
v 13.4300 1.0400 -0.0100
v 13.4200 0.2800 -0.0100
v 13.4300 1.0400 -0.0100
v 13.6100 1.6200 -0.0100
v 6.8500 1.7000 -0.0100
v 6.8100 0.6300 -0.0100
v 6.8500 1.7000 -0.0100
v 6.9000 2.7400 -0.0100
v -0.3200 1.3400 -0.0100
v -0.3200 3.0800 -0.0100
v -0.3200 3.0800 -0.0100
v 0.3500 4.8700 -0.0100
v 0.0000 37.1400 0.3200
v 0.1600 0.6400 0.0000
v -28.0000 0.0000 17.9200
v -33.2800 0.0000 18.2300
v -28.1600 2.5600 15.3600
v -7.5200 0.0000 0.6400
v -7.5200 0.0000 0.6400
v 2.5800 0.6400 2.5600
v -7.5200 0.0000 0.6400
v 8.8100 -30.0900 -30.0900
vt 0.0000 2.3711
vt 0.0000 0.0000
vt -0.0088 -0.0117
vt 0.0000 0.0010
vt 0.0088 -0.0117
vt 0.0117 -0.0117
vt 0.0000 0.0049
vt -0.0088 -0.0117
vt -0.0117 -0.0117
vt -0.0088 -0.0088
vt -0.0117 -0.0117
vt 0.0000 0.0049
vt 0.0088 -0.0088
vt 0.0117 -0.0117
vt 0.0088 -0.0117
vt 0.0117 -0.0088
vt 0.0000 0.0049
vt 0.0186 0.0049
vt 0.0000 0.0205
vt -0.0186 0.0049
vt -0.0117 -0.0088
vt 0.0000 -0.0107
vt 0.0303 0.0293
vt 0.0391 0.0332
vt 0.0391 0.0332
vt 0.0371 -0.0010
vt 0.0303 0.0293
vt 0.0391 0.0332
vt 0.0293 0.0127
vt 0.0391 0.0332
vt 0.0371 -0.0010
vt 0.0391 0.0332
vt 0.0371 -0.0010
vt 0.0371 -0.0010
vt 0.0088 -0.0117
vt 0.0371 -0.0010
vt 0.0088 -0.0117
vt 0.0303 0.0293
vt 0.0293 0.0127
vt 0.0088 -0.0117
vt 0.0430 0.0166
vt 0.0332 0.0186
vt 0.0391 0.0381
vt 0.0322 -0.0020
vt 0.0264 0.0098
vt 0.0430 0.0166
vt 0.0322 -0.0020
vt 0.0117 -0.0088
vt 0.0332 0.0186
vt 0.0264 0.0098
vt -0.0371 0.0283
vt -0.0469 0.0303
vt -0.0400 0.0029
vt -0.0322 0.0127
vt -0.0469 0.0303
vt -0.0469 0.0303
vt -0.0361 0.0508
vt -0.0400 0.0029
vt -0.0400 0.0029
vt -0.0117 -0.0117
vt -0.0117 -0.0117
vt -0.0371 0.0283
vt -0.0322 0.0127
vt 0.0322 0.0293
vt 0.0264 0.0498
vt 0.0400 0.0029
vt 0.0400 0.0029
vt 0.0322 0.0127
vt 0.0420 0.0332
vt 0.0400 0.0029
vt 0.0400 0.0029
vt 0.0117 -0.0117
vt 0.0322 0.0293
vt 0.0322 0.0127
vt -0.0215 0.0342
vt -0.0293 0.0410
vt -0.0215 0.0342
vt -0.0371 0.0059
vt -0.0234 0.0166
vt 0.0000 0.0010
vt -0.0293 0.0410
vt -0.0293 0.0410
vt -0.0117 0.0479
vt -0.0371 0.0059
vt -0.0088 -0.0117
vt -0.0215 0.0342
vt -0.0293 0.0410
vt -0.0234 0.0166
vt -0.0264 0.0244
vt -0.0352 0.0283
vt -0.0352 0.0283
vt -0.0264 0.0244
vt -0.0332 0.0029
vt -0.0254 0.0137
vt -0.0352 0.0283
vt -0.0332 0.0029
vt -0.0332 0.0029
vt -0.0332 0.0029
vt -0.0117 -0.0088
vt -0.0205 0.0449
vt 0.0000 0.0049
vt -0.0020 -0.0029
vt 0.0000 -0.0059
vt 0.0029 -0.0029
vt 0.0000 0.0000
vt 0.0000 -0.0029
vt 0.0000 -0.0029
vt -0.0059 -0.0020
vt 0.0000 -0.0078
vt 0.0068 -0.0020
vt 0.0000 0.0029
vt -0.0098 -0.0107
vt 0.0000 -0.0195
vt 0.0107 -0.0107
vt 0.0000 -0.0020
vt 0.0000 -0.0107
vt -0.0186 0.0049
vt 0.0186 0.0049
vt 0.0000 0.0205
vt 0.0000 2.4062
vt 0.0000 3.6279
vt 0.0000 3.6523
vt -6.5000 0.0000
vt -6.2500 0.0000
vt -6.5000 0.0000
vt -4.0000 0.0000
vt -4.0000 0.0000
vt 4.3945 -28.8740
vt -4.0000 0.0000
vt -12.4727 6.8701
f 32/32 1/1 53/53
f 32/32 1/1 15/15
f 32/32 1/1 53/53
f 41/41 1/1 82/82
f 30/30 29/29 25/25
f 31/31 32/32 27/27
f 26/26 29/29 28/28
f 29/29 30/30 28/28
f 28/28 30/30 31/31
f 31/31 32/32 30/30
f 24/24 28/28 29/29
f 30/30 28/28 24/24
