# Conker's Bad Fur Day — Real 3D Model (Sloprano Models)
o assets0E_model_060

v 20.4800 0.0000 0.0000
v 20.4800 0.0000 0.0000
v 20.4800 0.0000 0.0000
v 20.4800 0.0000 0.0000
v 20.4800 0.0000 0.0000
v 0.3200 2.5800 0.0000
v 20.4800 0.0000 0.0000
v 20.4800 0.0000 0.0000
v 20.4800 0.0000 0.0000
v 20.4800 0.0000 0.0000
v 20.4900 0.0000 0.0000
v 20.4900 0.0000 0.0000
v 20.4900 0.0000 0.0000
v 20.4800 0.0000 0.0000
v 20.4800 0.0000 0.0000
v 20.4800 0.0000 0.0000
v 20.4800 0.0000 0.0000
v 20.4800 0.0000 0.0000
v 20.4800 0.0000 0.0000
v 20.4800 0.0000 0.0000
v 20.4800 0.0000 0.0000
v 20.4800 0.0000 0.0000
v 20.4800 0.0000 0.0000
v 20.4800 0.0000 0.0000
v 20.4800 0.0000 0.0000
v 20.4800 0.0000 0.0000
v 20.4800 0.0000 0.0000
v 20.4800 0.0000 0.0000
v 20.4800 0.0000 0.0000
v 20.4800 0.0000 0.0000
v 20.4800 0.0000 0.0000
v 20.4800 0.0000 0.0000
v 20.4800 0.0000 0.0000
v 20.4800 0.0000 0.0000
v 20.4800 0.0000 0.0000
v 20.4800 0.0000 0.0000
v 20.4800 0.0000 0.0000
v 20.4800 0.0000 0.0000
v 20.4800 0.0000 0.0000
v 20.4800 0.0000 0.0000
v 20.4800 0.0000 0.0000
v 20.4800 0.0000 0.0000
v 20.4800 0.0000 0.0000
v 20.4800 0.0000 0.0000
v 20.4800 0.0000 0.0000
v 20.4800 0.0000 0.0000
v 20.4800 0.0000 0.0000
v 20.4800 0.0000 0.0000
v 20.4800 0.0000 0.0000
v 20.4800 0.0000 0.0000
v 20.4800 0.0000 0.0000
v 20.4800 0.0000 0.0000
v 20.4800 0.0000 0.0000
v 20.4800 0.0000 0.0000
v 20.4800 0.0000 0.0000
v 20.4800 0.0000 0.0000
v 20.4800 0.0000 0.0000
v 20.4800 0.0000 0.0000
v 20.4800 0.0000 0.0000
v 20.4800 0.0000 0.0000
v 20.4800 0.0000 0.0000
v 20.4800 0.0000 0.0000
v 20.4800 0.0000 0.0000
v 20.4800 0.0000 0.0000
v 20.4800 0.0000 0.0000
v 20.4800 0.0000 0.0000
v 20.4800 0.0000 0.0000
vt 0.0000 0.0654
vt 0.1250 0.0654
vt 0.1250 0.0654
vt 0.1250 0.0654
vt 0.1250 0.0654
vt -0.2383 -6.5098
vt 0.0000 0.0654
vt 0.0000 0.0654
vt 0.5000 -31.4346
vt 0.5000 -31.9346
vt 0.0000 0.0654
vt 0.0000 0.0654
vt 0.0000 0.0654
vt 0.1250 0.0654
vt 0.1250 0.0654
vt 0.1250 0.0654
vt 0.1250 0.0654
vt 0.1250 0.0654
vt 0.1250 0.0654
vt 0.1250 0.0654
vt 0.1250 0.0654
vt 0.1250 0.0654
vt 0.1250 0.0654
vt 0.1250 0.0654
vt 0.1250 0.0654
vt 0.1250 0.0654
vt 0.0000 -31.4043
vt 0.0000 -31.4043
vt 0.0000 -31.4043
vt 0.0000 -31.4043
vt 0.0000 -31.4043
vt 0.0000 -31.4043
vt 0.0000 -31.4043
vt 0.1250 0.0654
vt 0.1250 0.0654
vt 0.1250 0.0654
vt 0.1250 0.0654
vt 0.1250 0.0654
vt 0.1250 0.0654
vt 0.1250 0.0654
vt 0.1250 0.0654
vt 0.1250 0.0654
vt 0.1250 0.0654
vt 0.1250 0.0654
vt 0.1250 0.0654
vt 0.1250 0.0654
vt 0.1250 0.0654
vt 0.1250 0.0654
vt 0.1250 0.0654
vt 0.1250 0.0654
vt 0.1250 0.0654
vt 0.1250 0.0654
vt 0.1250 0.0654
vt 0.1250 0.0654
vt 0.1250 0.0654
vt 0.1250 0.0654
vt 0.1250 0.0654
vt 0.1250 0.0654
vt 0.1250 0.0654
vt 0.1250 0.0654
vt 0.1250 0.0654
vt 0.1250 0.0654
vt 0.1250 0.0654
vt 0.1250 0.0654
vt 0.1250 0.0654
vt 0.1250 0.0654
vt 0.1250 0.0654
f 1/1 1/1 1/1
f 1/1 1/1 1/1
f 1/1 1/1 5/5
