# Conker's Bad Fur Day — Real 3D Model (HUD & UI Props)
o assets01_model_008

v 2.5700 5.6900 -0.0100
v 13.5600 7.6100 -0.0100
v 3.0600 7.0700 -0.0100
v 0.0000 0.0000 -2.5800
v 0.0000 0.0000 -2.5800
v 0.0000 0.0000 -2.5800
v 0.0000 0.0000 -2.5800
v 0.0000 0.0000 -2.5800
v 0.0000 0.0000 -2.5800
v 0.0000 0.0000 -2.5800
v 0.0000 0.0000 -2.5800
v 0.0000 0.0000 -2.5800
v 0.0000 0.0000 -2.5800
v 0.0000 0.0000 -2.5800
v 0.2900 6.5900 -0.0100
v 10.2500 6.5800 -0.0100
v 9.1900 9.3500 -0.0100
v 7.2300 10.1800 -0.0100
v 8.3200 9.4800 -0.0100
v 7.5300 7.3200 -0.0100
v 5.2200 8.2800 -0.0100
v 5.2500 7.3200 -0.0100
v 5.1600 9.9400 -0.0100
v 5.1400 10.5200 -0.0100
v 1.1700 9.3600 -0.0100
v 2.0400 9.4800 -0.0100
v 3.0800 10.1800 -0.0100
v 2.9700 7.3200 -0.0100
v 8.5500 1.1900 -0.0100
v 8.1100 4.1200 -0.0100
v 5.4600 0.8800 -0.0100
v 5.3700 3.7200 -0.0100
v 2.3500 1.2000 -0.0100
v 2.5900 4.1300 -0.0100
v 8.8500 0.9700 -0.0100
v 10.0500 5.0900 -0.0100
v 2.0600 0.9700 -0.0100
v 0.5900 5.1000 -0.0100
v 5.5000 -0.2600 -0.0100
v -0.9500 3.8000 -0.0100
v 7.0500 3.9800 -0.0100
v 2.3500 1.3100 -2.5800
v 2.9600 8.8500 -0.0100
v 2.4000 2.9500 -2.5800
v 2.5500 8.5400 -0.0100
v -0.2300 0.9200 -0.0100
v 6.2100 1.0700 -0.0100
v 2.0000 1.3200 -2.5800
v 2.4600 9.5000 -0.0100
v 3.1700 10.2100 -0.0100
v 6.1500 7.9800 -0.0100
v 4.2500 7.9100 -0.0100
v 4.7100 9.6900 -0.0100
v 10.5900 5.9000 -0.0100
v 10.4400 5.2500 -0.0100
v 10.7000 4.5200 -0.0100
v 12.7500 6.1400 -0.0100
v 12.7400 5.9500 -0.0100
v 12.2700 5.3200 -0.0100
v 13.0700 3.8400 -0.0100
v 12.5800 3.8300 -0.0100
v 5.4900 1.9300 -0.0100
v 9.6400 1.1400 -0.0100
v 2.0700 4.8000 -0.0100
v -0.9900 5.6700 -0.0100
v 8.5000 7.2000 -0.0100
v 13.0600 4.2500 -0.0100
v 10.7900 3.8900 -0.0100
v 10.1700 1.8500 -2.5800
v -0.1100 4.3700 -2.5800
v 4.2100 5.3000 -2.5800
v 8.9100 5.1000 -2.5800
v 11.5000 3.9000 -0.5200
v 12.1700 3.8700 -0.8600
v 4.1100 8.4700 -2.5800
v 2.0400 9.1000 -2.5800
v 8.3200 8.3000 -2.5800
v 9.9400 8.7800 -2.5800
v 6.1400 10.7000 -2.5800
v 6.0700 5.3300 -2.5800
v 1.0900 5.6000 -2.5800
v -1.6200 4.7300 -0.5200
v -2.2900 4.7600 -0.8600
v 8.4000 8.6400 -2.5800
v 6.2600 8.2500 -2.5800
v 2.0800 8.4800 -2.5800
v 0.5400 9.0700 -2.5800
v 4.5300 10.4900 -2.5800
v 4.8900 0.4800 -0.0100
v 9.9100 3.0000 -0.0100
v 7.7000 4.0200 -0.0100
v 5.0700 2.7000 -0.0100
v 7.6800 3.8300 -0.0100
v 5.0600 2.5200 -0.0100
v 2.7200 4.5200 -0.0100
v 2.7000 4.3400 -0.0100
v 0.3800 3.9600 -0.0100
v 4.8900 0.4800 -0.0100
v 5.0700 2.7000 -0.0100
v 5.0600 2.5200 -0.0100
v 6.5000 3.6300 -0.0100
v 13.1900 6.1800 -0.0100
v 15.3400 4.6900 -0.0100
v 12.7400 4.3900 -0.0100
v 14.2200 2.8200 -0.0100
v 0.8500 4.1300 -0.0100
v -17.5200 7.0300 -0.0100
v -14.1200 4.4700 -0.0100
v -4.8300 1.7800 -0.0100
v -9.5700 4.3700 -0.0100
v 2.8600 4.4400 -0.0100
v 2.4300 7.0700 -0.0100
v 1.7400 8.0300 -0.0100
v 2.4300 7.0700 -0.0100
v 2.8600 4.4400 -0.0100
v 14.9500 3.1500 -0.0100
v 16.6900 1.3100 -0.0100
v 14.2600 5.7600 -0.0100
v 14.3600 4.7700 -0.0100
v 14.2600 5.7600 -0.0100
v 14.3600 4.7700 -0.0100
v 14.6200 3.5700 -0.0100
v 14.6200 3.5700 -0.0100
v 10.2000 7.2700 -0.0100
v 10.6600 4.8600 -0.0100
v 11.9500 2.2500 -0.0100
v 10.2000 7.2700 -0.0100
v 10.6600 4.8600 -0.0100
v 11.9500 2.2500 -0.0100
v 6.0600 4.8500 -0.0100
v 6.1300 1.3100 -0.0100
v 5.0700 8.3700 -0.0100
v 3.6300 9.1100 -0.0100
v 6.0600 4.8500 -0.0100
v 6.1300 1.3100 -0.0100
v 5.0700 8.3700 -0.0100
v 7.2800 9.2700 -0.0100
v 7.2800 9.2700 -0.0100
v 2.9500 1.8800 -0.0100
v 2.8600 4.4400 -0.0100
v 2.6100 0.7200 -0.0100
v 2.8600 4.4400 -0.0100
v 2.9500 1.8800 -0.0100
v 14.2600 5.7600 -0.0100
v 14.3600 4.7700 -0.0100
v 14.6200 3.5700 -0.0100
v 14.9500 3.1500 -0.0100
v 14.2600 5.7600 -0.0100
v 14.3600 4.7700 -0.0100
v 14.6200 3.5700 -0.0100
v 7.3500 12.5700 -0.0100
v 7.2800 9.2700 -0.0100
v 5.1500 10.9100 -0.0100
v 8.7700 9.6900 -0.0100
v 3.6300 9.1100 -0.0100
v 7.2800 9.2700 -0.0100
v 6.1300 1.3100 -0.0100
v 6.1300 1.3100 -0.0100
v 11.9500 2.2500 -0.0100
v 11.9500 2.2500 -0.0100
v 5.2600 11.2900 -0.0100
v 4.4000 3.4100 -0.0100
v 1.5000 3.2300 -0.0100
v 2.1200 9.7400 -0.0100
v 4.8000 3.2500 -0.0100
v 4.2300 -1.7200 -0.0100
v 0.4500 -1.3900 -0.0100
v 1.1800 3.2000 -0.0100
v 5.3300 16.2300 -0.0100
v 5.5000 9.6100 -0.0100
v 1.8600 9.5300 -0.0100
v 1.8200 15.8900 -0.0100
v 4.7400 2.8800 -0.0100
v 1.7100 4.3700 -0.0100
v 1.9400 10.5500 -0.0100
v 4.8900 10.3700 -0.0100
v 4.9900 3.1100 -0.0100
v 1.0400 3.6100 -0.0100
v 4.9900 3.1100 -0.0100
v 5.5000 9.6100 -0.0100
v 1.8600 9.5300 -0.0100
v 1.0400 3.6100 -0.0100
v 3.7200 -2.8800 -0.0100
v 5.0700 3.4900 -0.0100
v 1.0300 3.1300 -0.0100
v -0.4600 -2.7700 -0.0100
v 5.3300 16.2300 -0.0100
v 1.8200 15.8900 -0.0100
v 16.6900 1.3100 -0.0100
v 14.9500 3.1500 -0.0100
v 17.7100 3.7300 -2.5800
v 18.5400 3.8900 -2.5800
v 18.5400 3.8900 -2.5800
v 9.3100 4.3700 -28.2800
v 16.3300 5.0500 -2.5800
v 10.7600 7.8300 -2.5800
v 16.3000 5.2500 -2.5800
v 9.3100 4.3700 -2.5800
v 9.4200 7.1000 -2.5800
v 16.3300 5.0500 -2.5800
v 9.2000 8.2200 -2.5800
v 7.4700 7.6900 -2.5800
v 17.7100 3.7300 -2.5800
v 18.5400 3.8900 -2.5800
v 20.1800 0.9400 -0.0100
v 20.8900 5.4400 -0.0100
v 16.3300 5.0500 -2.5800
v 16.3000 5.2500 -2.5800
v 9.4200 7.1000 -2.5800
v 10.7600 7.8300 -2.5800
v 7.4600 7.8700 -0.0100
v 10.1900 8.5100 -0.0100
v 10.1800 9.1400 -0.0100
v 13.0800 7.9200 -0.0100
v 10.2100 4.8800 -0.0100
v 10.2500 2.4100 -0.0100
v 13.6800 4.2700 -0.0100
v 15.0900 2.2200 -0.0100
v 13.3700 6.6800 -0.0100
v 10.1500 10.2600 -0.0100
v 7.2500 4.2100 -0.0100
v 9.2000 8.2200 -2.5800
v 7.4700 7.6900 -2.5800
v 5.1600 2.5800 -0.0100
v 1.8000 3.4200 -0.0100
v 3.3700 5.5400 -0.0100
v -0.5700 5.2400 -0.0100
v 0.3600 0.7600 -0.0100
v 20.8900 5.4400 -0.0100
v 3.6100 8.5100 -0.0100
v 1.8300 7.6400 -0.0100
v 7.2500 4.2100 -0.0100
v 5.4100 2.1300 -0.0100
v 10.2500 2.4100 -0.0100
v 7.5300 6.6200 -0.0100
v 7.4600 7.8700 -0.0100
v 10.1800 9.1400 -0.0100
v 10.1500 10.2600 -0.0100
v 13.3700 6.6800 -0.0100
v 13.6800 4.2700 -0.0100
v 13.0800 7.9200 -0.0100
v 10.2100 4.8800 -0.0100
v 5.2500 8.9200 -0.0100
v 4.7000 9.4800 -0.0100
v 5.4000 5.0000 -0.0100
v 6.0500 7.9900 -0.0100
v 7.8500 5.1500 -0.0100
v 5.1600 2.5800 -0.0100
v 1.8000 3.4200 -0.0100
v 1.8000 3.4200 -0.0100
v 3.3700 5.5400 -0.0100
v 3.3700 5.5400 -0.0100
v 3.6100 8.5100 -0.0100
v 1.8300 7.6400 -0.0100
v 3.6100 8.5100 -0.0100
v 5.2500 8.9200 -0.0100
v 4.7000 9.4800 -0.0100
v 5.4000 5.0000 -0.0100
v 6.0500 7.9900 -0.0100
v 7.8500 5.1500 -0.0100
v 3.3800 9.8200 -0.0100
v 1.1800 -0.1900 -2.5800
v 2.8700 8.5500 -0.0100
v 2.4100 -0.6800 -2.5800
v 0.2300 -0.2000 -23.1400
v 2.6900 8.5000 -0.0100
v -0.9500 3.8000 -0.0100
v 7.0500 3.9800 -0.0100
v 0.2600 0.9700 -0.0100
v 5.7300 1.1000 -0.0100
v 3.1700 10.2100 -0.0100
v 2.9700 -0.2000 -0.0100
v 1.6300 -0.3900 -0.0100
v 4.3100 -0.3300 -0.0100
v 13.2200 0.0800 -2.5800
v 30.2300 0.6800 -2.5800
v 12.9100 10.5300 -2.5800
v -2.5000 9.6400 -2.5800
v -2.4300 -0.0900 -2.5800
v 31.1500 9.5400 -2.5800
v 2.3700 -0.0300 -2.5800
v 2.4500 9.9100 -2.5800
v -14.8900 0.6700 -2.5800
v 18.0700 9.3200 -2.5800
v 18.2300 0.0400 -2.5800
v -16.0300 9.2100 -2.5800
v 4.4900 1.5200 -0.0100
v 2.6100 1.8200 -0.0100
v 2.6800 1.9100 -0.0100
v 1.1200 5.3000 -0.0100
v 1.2500 5.4800 -0.0100
v 4.6800 10.3000 -0.0100
v 5.3700 6.0700 -0.0100
v 3.1300 8.1300 -0.0100
v 3.0500 8.0100 -0.0100
v 5.4900 6.2400 -0.0100
v 0.4400 9.9300 -0.0100
v 3.2900 13.5400 -0.0100
v 1.0800 13.7600 -0.0100
v 3.4100 13.7100 -0.0100
v 0.3800 9.8400 -0.0100
v 0.0000 15.2800 0.3200
v 0.3200 0.3200 0.0000
v 0.0000 17.3600 0.0000
v 0.0000 39.2900 0.1600
v 0.3200 0.3200 0.0000
v 0.0000 17.5100 0.0000
v 0.0000 17.4500 0.3200
v 0.3200 0.3200 0.0000
v 0.0000 17.4300 0.0000
v 0.0000 17.4600 0.1600
v 0.3200 0.3200 0.0000
v 0.0000 15.2200 0.0000
v -28.0000 0.0000 17.9200
v -33.2800 0.0000 18.5500
v -28.1600 2.5600 15.3600
v -7.5200 0.0000 0.6400
v -7.5200 0.0000 0.6400
v 12.8000 10.6200 0.0000
v 15.4000 15.4400 0.0400
v -7.5200 0.0000 0.0000
v -33.2800 0.0000 18.2300
v -28.0800 20.4800 0.0900
v -7.5200 0.0000 0.0000
v -33.2800 0.0000 18.0700
v -28.0800 10.2400 0.0900
v -7.5200 0.0000 0.0000
v -33.2800 0.0000 18.0700
v -7.5200 0.0000 0.6400
v -7.5200 0.0000 0.6400
v -7.5200 0.0000 0.0000
v -33.2800 0.0000 18.2300
v -28.0800 20.4800 0.0900
v -7.5200 0.0000 0.0000
v -33.2800 0.0000 18.5500
v -7.5200 0.0000 0.0000
v -33.2800 0.0000 18.2300
v -28.0800 20.4800 0.0900
v -28.0800 20.4800 10.2500
v -7.5200 0.0000 0.0000
v -33.2800 0.0000 18.2300
v -28.0800 20.4800 12.8100
v -7.5200 0.0000 0.6400
v -7.5200 0.0000 0.0000
v -33.2800 0.0000 18.5500
v 15.3800 25.6000 0.0200
v -7.5200 0.0000 0.0000
v -33.2800 0.0000 18.2300
v -28.0800 10.2400 0.0900
v -7.5200 0.0000 0.6400
v -7.5200 0.0000 0.6400
v -7.5200 0.0000 0.6400
v -7.5200 0.0000 0.6400
v -7.5200 0.0000 0.0000
v -33.2800 0.0000 18.0700
v 15.4400 35.9400 0.0800
v -7.5200 0.0000 0.0000
v -33.2800 0.0000 18.3400
v -28.0800 20.4800 0.0900
v -28.0800 11.5200 2.6500
v -28.0800 6.7200 5.2000
v -28.0800 6.8000 7.7600
v -7.5200 0.0000 0.0000
v -33.2800 0.0000 18.0200
v -28.0800 10.2400 0.0100
v -28.0800 5.4400 2.5600
v -28.0800 5.5200 5.1200
v -7.5200 0.0000 15.3600
v -33.2800 0.0000 18.2300
v -28.0800 20.4800 0.0900
v -7.5200 0.0000 17.9200
v -33.2800 0.0000 18.2300
v 1.9700 0.5000 1.2600
v 0.4200 -4.2400 1.1100
v 1.3700 4.8000 -36.4600
vt 0.0000 0.1172
vt 0.0000 -0.1318
vt -0.0293 -0.0020
vt -0.0039 0.0977
vt 0.0166 0.0938
vt 0.0947 0.0918
vt 0.0693 0.0508
vt -0.0693 -0.0791
vt -0.0908 0.0049
vt 0.0811 0.0166
vt -0.0537 0.0781
vt -0.0645 0.0674
vt -0.0771 0.0537
vt -0.0049 -0.0107
vt 0.0039 -0.0107
vt -0.0361 0.0449
vt 0.0361 0.0449
vt 0.0547 0.0361
vt 0.0391 0.0088
vt 0.0000 0.0205
vt 0.0000 0.0088
vt 0.0000 0.0420
vt 0.0000 0.0488
vt -0.0693 0.0342
vt -0.0547 0.0361
vt -0.0361 0.0449
vt -0.0391 0.0088
vt 0.0537 -0.0312
vt 0.0479 0.0059
vt 0.0000 -0.0352
vt 0.0000 0.0010
vt -0.0537 -0.0312
vt -0.0479 0.0059
vt 0.0586 -0.0938
vt 0.0811 -0.0693
vt -0.0586 -0.0938
vt -0.0811 -0.0693
vt 0.0000 -0.1055
vt -0.0049 -0.0107
vt 0.0039 -0.0107
vt -0.0439 0.0303
vt -0.0479 0.0928
vt -0.0234 0.0361
vt -0.0146 0.0586
vt -0.0068 0.0420
vt 0.0693 0.0342
vt 0.0293 0.0352
vt 0.0469 0.0781
vt 0.0488 0.0352
vt -0.0107 -0.0273
vt -0.0127 -0.0273
vt -0.0215 -0.0371
vt -0.0225 -0.0117
vt -0.0166 -0.0059
vt -0.0127 -0.0195
vt -0.0127 -0.0195
vt 0.0000 0.0342
vt -0.0195 0.0205
vt -0.0195 0.0205
vt -0.0537 0.0811
vt -0.0586 0.0811
vt -0.0420 0.0811
vt 0.0078 -0.0352
vt 0.0166 0.0078
vt 0.0225 0.0029
vt 0.0098 0.0322
vt 0.0586 0.0811
vt 0.0420 0.0811
vt 0.0586 0.0811
vt -0.0020 0.0361
vt 0.0283 0.0361
vt 0.0381 0.0361
vt 0.0479 0.0557
vt 0.0078 0.0762
vt -0.0020 0.0781
vt 0.0283 0.0762
vt 0.0352 0.0781
vt 0.0166 0.0869
vt 0.0107 -0.0146
vt -0.0078 0.0361
vt -0.0283 0.0361
vt -0.0381 0.0361
vt 0.0020 0.0781
vt -0.0078 0.0762
vt -0.0283 0.0762
vt -0.0352 0.0781
vt -0.0166 0.0869
vt 0.0400 -0.1729
vt 0.0605 -0.1377
vt 0.0312 -0.1270
vt 0.0244 -0.1406
vt 0.0312 -0.1289
vt 0.0244 -0.1436
vt 0.0371 -0.0801
vt -0.0195 -0.0986
vt -0.0195 -0.1016
vt -0.0391 -0.1729
vt -0.0234 -0.1406
vt -0.0234 -0.1436
vt -0.0801 -0.0479
vt -0.1377 -0.0762
vt -0.0645 -0.0225
vt -0.0967 -0.0371
vt -0.0732 -0.0508
vt 0.1475 -0.0742
vt 0.1006 -0.0137
vt 0.0664 -0.0215
vt 0.0771 -0.0508
vt 0.1006 -0.0381
vt -0.1064 -0.0068
vt -0.0850 0.0752
vt 0.0000 0.1055
vt 0.0850 0.0752
vt 0.1055 -0.0068
vt -0.0010 -0.0576
vt -0.0010 -0.1162
vt -0.0469 0.0234
vt -0.0742 -0.0078
vt -0.0010 0.0352
vt 0.0732 -0.0078
vt 0.0586 -0.0449
vt -0.0596 -0.0449
vt -0.0010 -0.0977
vt -0.1221 0.0059
vt 0.0830 -0.0762
vt -0.0010 0.1055
vt 0.1211 0.0059
vt -0.0840 -0.0762
vt -0.1465 0.0078
vt -0.1104 -0.1016
vt -0.0947 0.1182
vt -0.0010 0.1426
vt 0.1455 0.0078
vt 0.1094 -0.1016
vt 0.0938 0.1182
vt 0.0254 0.1445
vt -0.0264 0.1445
vt -0.0820 -0.0859
vt -0.1064 -0.0068
vt 0.0000 -0.1221
vt 0.1055 -0.0068
vt 0.0820 -0.0859
vt -0.0010 0.0254
vt 0.0732 -0.0078
vt 0.0586 -0.0449
vt -0.0010 -0.0576
vt -0.0469 0.0234
vt -0.0742 -0.0078
vt -0.0596 -0.0449
vt -0.0010 0.2471
vt -0.0264 0.1445
vt -0.0010 0.1973
vt -0.0010 0.1562
vt -0.0010 0.1055
vt 0.0254 0.1445
vt -0.1104 -0.1016
vt 0.1094 -0.1016
vt -0.0010 -0.1338
vt -0.0840 -0.0762
vt -0.0010 -0.0977
vt 0.0000 0.1055
vt 0.0000 0.0986
vt 0.0703 0.0752
vt -0.0820 -0.0859
vt 0.0000 -0.1221
vt 0.0000 -0.1055
vt -0.0771 -0.0752
vt -0.0850 0.0752
vt -0.1064 -0.0068
vt -0.0908 -0.0029
vt -0.0703 0.0752
vt -0.0850 0.0752
vt -0.0703 0.0752
vt 0.0000 0.0986
vt 0.0000 0.1055
vt -0.0820 -0.0859
vt -0.0771 -0.0752
vt 0.0820 -0.0859
vt 0.1055 -0.0068
vt 0.0908 -0.0029
vt 0.0771 -0.0752
vt 0.0000 -0.1221
vt 0.0820 -0.0859
vt 0.0771 -0.0752
vt 0.0000 -0.1055
vt 0.0850 0.0752
vt 0.0703 0.0752
vt -0.0010 -0.1162
vt -0.0010 -0.0576
vt -0.0010 -0.0977
vt -0.0010 0.0176
vt 0.0000 0.0020
vt 0.0693 0.0332
vt 0.0479 0.0557
vt 0.0596 0.0771
vt 0.0000 0.0967
vt 0.0273 0.0654
vt -0.0938 -0.0156
vt -0.0596 0.0771
vt -0.0273 0.0654
vt 0.0703 0.0752
vt 0.0908 -0.0029
vt 0.0010 0.0176
vt 0.0000 0.0020
vt -0.0049 0.0254
vt -0.0596 0.0771
vt -0.0273 0.0654
vt -0.0713 0.0762
vt 0.0000 0.1006
vt -0.0938 -0.0156
vt 0.0000 0.0508
vt 0.0000 0.0537
vt 0.0176 0.0479
vt 0.0000 0.0332
vt 0.0000 0.0205
vt 0.0205 0.0303
vt 0.0293 0.0195
vt 0.0186 0.0420
vt 0.0000 0.0596
vt 0.0176 0.0479
vt 0.0000 0.0986
vt -0.0703 0.0752
vt -0.0908 -0.0029
vt -0.0049 -0.0332
vt -0.0186 -0.0820
vt 0.0039 0.0254
vt 0.0098 0.0039
vt -0.0049 0.0254
vt -0.0049 0.0254
vt -0.0098 0.0039
vt -0.0176 0.0303
vt -0.0283 0.0195
vt 0.0000 0.0205
vt -0.0156 0.0420
vt -0.0156 0.0479
vt -0.0156 0.0479
vt 0.0000 0.0596
vt 0.0176 0.0479
vt 0.0205 0.0303
vt 0.0176 0.0479
vt 0.0000 0.0332
vt 0.0273 0.0479
vt 0.0000 0.0576
vt 0.1104 -0.0264
vt 0.0693 0.0332
vt 0.0938 -0.0156
vt 0.0586 -0.0938
vt 0.0264 -0.0830
vt -0.0088 -0.0293
vt -0.0049 -0.0107
vt 0.0039 -0.0107
vt 0.0039 0.0254
vt 0.0098 0.0039
vt 0.0195 0.0020
vt -0.0234 0.0049
vt 0.0000 0.0576
vt -0.1104 -0.0264
vt -0.0693 0.0332
vt -0.0938 -0.0156
vt -0.0586 -0.0938
vt -0.0381 0.0205
vt -0.0303 -0.0107
vt -0.0215 0.0156
vt 0.0205 0.0176
vt 0.0283 -0.0107
vt -0.0049 -0.0107
vt 0.0039 -0.0107
vt 0.0098 0.0039
vt -0.0098 0.0039
vt 0.0000 -0.0312
vt 0.0000 0.0205
vt -0.0283 0.0195
vt 0.0293 0.0195
vt 0.0420 -0.0605
vt 0.0684 -0.0771
vt 0.0420 -0.0166
vt 0.0000 -0.0078
vt 0.0000 -0.0488
vt 0.0684 -0.0391
vt -0.0420 -0.0605
vt -0.0420 -0.0166
vt -0.0684 -0.0771
vt 0.0000 -0.0078
vt 0.0000 -0.0488
vt -0.0684 -0.0391
vt 0.0400 -0.1729
vt 0.0264 -0.1973
vt 0.0264 -0.1953
vt 0.0000 -0.2041
vt 0.0000 -0.2021
vt 0.0000 -0.1367
vt 0.0244 -0.1436
vt 0.0000 -0.1660
vt 0.0000 -0.1680
vt 0.0244 -0.1406
vt -0.0264 -0.1953
vt -0.0244 -0.1436
vt -0.0400 -0.1729
vt -0.0244 -0.1406
vt -0.0264 -0.1973
vt -0.0107 -0.0146
vt 0.0000 1.7109
vt 0.0000 1.7080
vt 0.0156 0.0625
vt 0.0000 3.6729
vt 0.0000 1.7090
vt 0.0312 0.0312
vt 0.0000 1.7070
vt 0.0000 1.4893
vt 0.0156 0.0312
vt 0.0000 1.4873
vt 0.0000 1.4883
vt 0.0312 0.0312
vt -6.5000 0.0000
vt -6.2500 0.0000
vt -6.5000 0.0000
vt -4.0000 0.0000
vt -4.0000 0.0000
vt -9.5049 -0.0010
vt 1.2539 2.5117
vt -6.5000 0.0000
vt -6.2500 0.0000
vt 7.2021 -6.1689
vt -6.5000 0.0000
vt -6.2500 0.0000
vt -3.5000 8.0020
vt -6.5000 0.0000
vt -6.2500 0.0000
vt -4.0000 0.0000
vt -4.0000 0.0000
vt -6.5000 0.0000
vt -6.2500 0.0000
vt -3.5000 8.0020
vt -6.5000 0.0000
vt -6.2500 0.0000
vt -6.5000 0.0000
vt -6.2500 0.0000
vt -3.5000 8.0020
vt -6.2500 0.0000
vt -6.5000 0.0000
vt -6.2500 0.0000
vt -9.4453 0.0029
vt -4.0000 0.0000
vt -6.5000 0.0000
vt -6.2500 0.0000
vt -9.4453 0.0029
vt -6.5000 0.0000
vt -6.2500 0.0000
vt -3.5000 8.0020
vt -4.0000 0.0000
vt -4.0000 0.0000
vt -4.0000 0.0000
vt -4.0000 0.0000
vt -6.5000 0.0000
vt -6.2500 0.0000
vt -6.2500 0.0000
vt -6.5000 0.0000
vt -6.2500 0.0000
vt -3.5000 8.0020
vt -3.5000 8.0020
vt -3.5000 8.0020
vt -3.5000 8.0020
vt -6.5000 0.0000
vt -6.2500 0.0000
vt -3.5000 8.0020
vt -3.5000 8.0020
vt -3.5000 8.0020
vt -6.5000 0.0000
vt -6.2500 0.0000
vt -3.5000 8.0020
vt -6.5000 0.0000
vt -6.2500 0.0000
vt -20.9951 -4.8789
vt -21.0869 21.6631
vt 0.0000 0.0000
f 39/39 2/2 125/125
f 14/14 1/1 65/65
f 6/6 2/2 118/118
f 14/14 1/1 85/85
f 91/91 1/1 87/87
f 20/20 2/2 54/54
f 128/128 1/1 107/107
f 72/72 1/1 14/14
f 108/108 1/1 30/30
f 67/67 1/1 66/66
f 128/128 128/128 128/128
f 74/74 2/2 33/33
f 79/79 1/1 111/111
f 81/81 2/2 52/52
f 74/74 2/2 33/33
f 79/79 1/1 111/111
f 92/92 1/1 51/51
f 92/92 1/1 51/51
f 81/81 2/2 52/52
f 74/74 2/2 33/33
f 79/79 1/1 111/111
f 92/92 1/1 51/51
f 108/108 1/1 30/30
f 74/74 2/2 33/33
f 79/79 1/1 111/111
f 92/92 1/1 51/51
f 67/67 1/1 66/66
f 128/128 128/128 128/128
f 108/108 1/1 30/30
f 69/69 1/1 37/37
f 49/49 54/54 128/128
f 118/118 1/1 59/59
f 128/128 128/128 128/128
f 118/118 1/1 41/41
f 74/74 83/83 128/128
f 16/16 1/1 94/94
f 88/88 1/1 43/43
f 49/49 1/1 125/125
f 128/128 128/128 128/128
f 28/28 1/1 92/92
f 80/80 80/80 128/128
f 48/48 2/2 7/7
f 128/128 128/128 128/128
f 100/100 1/1 85/85
f 16/16 1/1 72/72
f 49/49 54/54 128/128
f 16/16 1/1 94/94
f 88/88 1/1 43/43
f 28/28 1/1 92/92
f 80/80 80/80 128/128
f 49/49 1/1 125/125
f 128/128 128/128 128/128
f 100/100 1/1 85/85
f 69/69 1/1 37/37
f 49/49 54/54 128/128
f 118/118 1/1 59/59
f 128/128 128/128 128/128
f 118/118 1/1 41/41
f 80/80 80/80 128/128
f 28/28 1/1 92/92
f 80/80 80/80 128/128
f 49/49 1/1 125/125
f 128/128 128/128 128/128
f 100/100 1/1 85/85
f 16/16 1/1 72/72
f 49/49 54/54 128/128
f 48/48 2/2 7/7
f 128/128 128/128 128/128
f 15/15 2/2 13/13
f 45/45 1/1 86/86
f 115/115 1/1 112/112
f 29/29 2/2 79/79
f 15/15 2/2 13/13
f 15/15 2/2 13/13
f 29/29 2/2 79/79
f 45/45 1/1 86/86
f 15/15 2/2 13/13
f 22/22 1/1 5/5
f 6/6 3/3 15/15
f 1/1 3/3 20/20
f 3/3 4/4 5/5
f 3/3 5/5 6/6
f 3/3 6/6 7/7
f 19/19 16/16 1/1
f 8/8 11/11 2/2
f 8/8 10/10 9/9
f 10/10 7/7 9/9
f 1/1 11/11 17/17
f 17/17 12/12 2/2
f 17/17 11/11 12/12
f 13/13 14/14 15/15
f 14/14 16/16 15/15
f 16/16 13/13 15/15
f 22/22 15/15 21/21
f 6/6 14/14 13/13
f 7/7 6/6 8/8
f 20/20 19/19 26/26
f 21/21 16/16 23/23
f 14/14 6/6 7/7
f 8/8 7/7 6/6
f 25/25 19/19 20/20
f 12/12 13/13 14/14
f 14/14 13/13 12/12
f 2/2 6/6 1/1
f 2/2 4/4 6/6
f 2/2 5/5 1/1
f 5/5 4/4 1/1
f 25/25 26/26 31/31
f 29/29 31/31 30/30
f 5/5 15/15 26/26
f 15/15 31/31 32/32
f 14/14 30/30 31/31
f 14/14 31/31 15/15
f 22/22 23/23 5/5
f 6/6 25/25 26/26
f 27/27 21/21 20/20
f 17/17 16/16 25/25
f 25/25 13/13 18/18
f 10/10 25/25 18/18
f 30/30 14/14 31/31
f 14/14 29/29 31/31
f 5/5 8/8 6/6
f 5/5 7/7 3/3
f 12/12 13/13 14/14
f 14/14 13/13 12/12
f 5/5 48/48 26/26
f 1/1 1/1 1/1
