mtllib assets0C_model_004.mtl
# Conker's Bad Fur Day — Real 3D Model (It's War Models)
o assets0C_model_004
usemtl assets0C_model_004_mat

v 0.0000 0.9600 0.0000
v 0.0000 0.9600 0.0000
v 0.0000 13.1200 0.0000
v 0.0000 0.5600 0.0000
v 0.0000 0.0100 2.5600
v 0.0000 0.0000 -23.7300
v 0.4600 0.0000 0.0000
v 2.5600 0.0000 0.0000
v 0.0000 0.5400 0.0000
v 0.0000 0.0500 2.5600
v 0.0000 0.0000 -24.5400
v 0.4600 0.0000 0.0000
v 2.5600 0.0000 0.0000
v 0.0000 0.5300 0.0000
v 0.0000 0.0900 2.5600
v 0.0000 0.0000 -25.1300
v 0.4600 0.0000 0.0000
v 38.0100 0.0000 0.0000
v 0.0000 0.1600 0.0000
v -3.4700 -0.0200 28.2300
v 0.0000 0.0300 0.0000
v 0.0000 0.1300 0.0000
v 0.0000 0.0000 -7.0400
v 38.2100 0.0000 0.0000
v 0.0000 0.1600 0.0000
v 0.7900 0.0100 0.0000
v 0.7800 0.0100 0.0000
v 0.7700 0.0100 0.0000
v 0.7600 0.0100 0.0000
v 0.7600 0.0100 0.0000
v 0.7500 0.0100 0.0000
v 0.0200 0.0200 0.0000
v 0.0200 0.0200 0.0000
v 0.0000 0.0200 0.0000
v 0.0000 0.0000 -4.8000
v 0.0000 2.5500 0.0000
v 0.1400 5.1200 2.5500
v 0.0000 0.0000 2.6800
v 0.0000 0.0000 -21.2200
v 2.7100 29.0700 0.0000
v 2.5500 1.2800 0.0000
v 2.6800 5.1200 2.5500
v 0.0000 0.4600 0.0000
v 0.0000 0.0000 -12.6400
v 23.7800 6.4000 0.0000
v 0.0000 3.0000 0.0000
v 0.5000 5.1300 0.0000
v 0.0000 0.0000 -34.3200
v 2.6000 4.0100 11.1300
v 10.4600 6.1800 0.0000
v 2.9700 15.3600 0.4100
v -17.2500 -3.8900 37.4400
v 0.0000 0.0000 -15.4400
v 10.4600 6.1800 0.0000
v 2.9300 15.3600 8.5000
v 0.0000 0.0000 4.6200
v 10.4600 6.1800 0.0000
v 0.0000 0.0000 -4.4500
v 1.4600 1.0600 5.9700
v 0.0000 0.0000 1.0600
v 39.1700 0.4300 10.4600
v 2.6900 5.1200 0.0000
v 0.0000 0.0000 -19.3700
v 0.0000 0.0000 2.5700
v 39.8500 0.9900 1.4700
v 3.2700 15.3600 7.6800
v 0.0000 0.0000 -15.8000
v 39.4400 3.0100 13.2400
v 0.0400 5.1300 0.0000
v 11.1300 11.0200 0.0000
v 0.0000 0.0000 -26.7700
v 6.6800 3.1000 0.0000
v 2.6800 5.1200 0.0000
v 0.0000 0.1600 0.0000
v 0.0000 0.0000 6.8800
v 0.0000 1.2400 0.0000
v 2.7100 5.1200 0.0000
v 0.0000 0.0000 -10.8400
v 0.1200 5.1200 0.0000
v 0.0000 0.0000 -23.3700
v 0.1200 5.1200 0.0000
v 0.0000 0.0000 2.6800
v 0.0000 0.0000 -21.1200
v 6.2200 29.0700 0.0000
v 2.5500 1.2800 0.0000
v 2.6800 5.1200 2.5500
v 0.0000 0.0000 0.0600
v 0.0000 0.0000 -0.0600
v 4.5900 29.0700 0.0000
v 2.5500 1.2800 0.0000
v 0.1200 5.1200 2.5500
v 0.0000 0.0000 0.1200
v 0.0000 0.0000 -15.8900
v 12.2800 23.5000 0.0000
v 2.5500 1.2800 0.0000
v -3.3400 1.8200 18.4100
vt 0.0000 0.0938
vt 0.0000 1.1562
vt 0.0000 1.6562
vt 0.0000 0.0000
vt 0.0000 0.0000
vt 4.2334 0.0381
vt 0.0000 0.0537
vt 0.0000 0.0000
vt 0.0000 0.0000
vt 0.0000 0.0000
vt 4.3779 0.0381
vt 0.0000 0.0518
vt 0.0000 0.0000
vt 0.0000 0.0000
vt 0.0000 0.0000
vt 4.4385 0.0381
vt 0.0000 0.0508
vt 0.0000 0.0000
vt 0.0000 0.0000
vt 0.0000 0.0000
vt 0.0000 0.0000
vt 0.0000 0.0000
vt 2.6621 0.0000
vt 0.0000 0.0000
vt 0.0000 0.0000
vt 8.0000 0.0000
vt 8.0020 0.0000
vt 8.0039 0.0000
vt 8.0059 0.0000
vt 8.0078 0.0000
vt 8.0098 0.0000
vt 8.0117 12.0010
vt 8.0137 12.0029
vt 0.0000 0.0000
vt 5.3672 2.0830
vt 0.0000 0.0000
vt 0.0000 0.0000
vt 0.2490 0.1250
vt 7.1064 0.2705
vt 0.0000 0.0000
vt 0.0000 0.0000
vt 0.0000 0.0000
vt 0.0000 0.0000
vt 3.8408 0.8848
vt 0.0000 0.0000
vt 0.0000 0.0000
vt 0.0000 0.0996
vt 6.8691 2.7930
vt 0.0000 0.0000
vt 16.8486 25.6016
vt 0.0000 0.0000
vt 0.3301 0.0977
vt 3.9258 0.0488
vt 16.9131 6.4004
vt 0.0000 18.0000
vt 8.2402 0.0850
vt 16.9131 6.4004
vt 9.1895 1.7295
vt 0.0000 0.0000
vt 0.6699 0.7559
vt 0.0000 0.0000
vt 0.0000 0.0000
vt 5.8408 0.0967
vt 0.0000 0.0000
vt 15.8994 -25.5020
vt 0.0000 0.0000
vt 3.7822 0.0850
vt 0.0000 0.0000
vt 0.0000 0.0000
vt 0.0000 0.0000
vt 9.7568 0.2119
vt 15.6992 -11.7842
vt 0.0000 0.0000
vt 0.0000 0.0000
vt 4.5176 1.0469
vt 0.0000 0.0000
vt 0.0000 0.0000
vt 7.6465 1.3818
vt 0.0000 0.0000
vt 6.0879 0.2295
vt 0.0000 0.0000
vt 0.2490 0.1250
vt 7.1230 0.2969
vt 0.0000 0.0000
vt 0.0000 0.0000
vt 0.0000 0.0000
vt 0.0000 0.0000
vt 7.3154 0.3623
vt 0.0000 0.0000
vt 0.0000 0.0000
vt 0.0000 0.0000
vt 0.2490 0.1250
vt 3.8135 0.2939
vt 14.0020 1.4990
vt 0.0000 0.0000
vt 0.0000 0.0977
f 64/64 1/1 44/44
f 54/54 1/1 50/50
f 81/81 3/3 13/13
f 1/1 1/1 1/1
f 23/23 1/1 86/86
f 23/23 1/1 86/86
f 23/23 1/1 86/86
f 23/23 1/1 86/86
f 23/23 1/1 86/86
