mtllib assets10_model_013.mtl
# Conker's Bad Fur Day — Real 3D Model (Spooky Models)
o assets10_model_013
usemtl assets10_model_013_mat

v 0.0000 0.0800 0.0000
v -1.5100 0.0000 25.2800
v 13.9300 0.0000 20.5600
v 26.4000 0.0000 8.9400
v 33.3000 0.0000 -2.3500
v 30.5500 0.0000 -12.7800
v 25.4600 0.0000 -18.5000
v 13.1900 0.0000 -15.5500
v 1.0300 0.0000 -20.9100
v -6.7200 0.0000 -24.9500
v -29.5900 0.0000 -14.2200
v -16.4000 0.0000 -4.3800
v -32.2200 0.0000 -4.0600
v -24.6600 0.0000 5.0100
v -11.1600 0.0000 16.9900
v -34.9500 0.0000 14.9700
vt 0.0000 -0.3721
vt 0.4170 0.0000
vt 1.6875 0.0000
vt 3.2881 0.0000
vt 2.4258 0.0000
vt 3.2637 0.0000
vt 1.8672 0.0000
vt 1.4316 0.0000
vt -0.2881 0.0000
vt -2.5186 0.0000
vt -2.4443 0.0000
vt -2.4326 0.0000
vt -3.3564 0.0000
vt -1.6689 0.0000
vt -3.2559 0.0000
vt -0.5146 0.0000
f 1/1 2/2 3/3
f 4/4 5/5 6/6
f 7/7 8/8 9/9
f 10/10 11/11 12/12
f 13/13 14/14 15/15
