# Conker's Bad Fur Day — Real 3D Model (Spooky Models)
o assets10_model_048

v 0.0000 2.0800 0.0000
v 0.0000 2.4000 0.0000
v 0.0000 2.7200 0.0000
v 0.0000 3.0400 0.0000
v 0.0000 3.3600 0.0000
v 0.0000 3.6800 0.0000
v 0.0000 4.0000 0.0000
v 0.0000 4.3200 0.0000
v 0.0000 4.6400 0.0000
v 0.0000 4.9600 0.0000
v 0.0000 5.2800 0.0000
v 0.0000 5.6000 0.0000
v 0.0000 5.9200 0.0000
v -3.9200 -4.3900 -37.3500
vt 0.0000 0.2188
vt 0.0000 0.2500
vt 0.0000 0.2812
vt 0.0000 0.3125
vt 0.0000 0.3438
vt 0.0000 0.3750
vt 0.0000 0.4062
vt 0.0000 0.4375
vt 0.0000 0.4688
vt 0.0000 0.5000
vt 0.0000 0.5312
vt 0.0000 0.5625
vt 0.0000 0.5938
vt -0.3828 -0.4287
f 1/1 2/2 3/3
f 4/4 5/5 6/6
f 7/7 8/8 9/9
f 10/10 11/11 12/12
