mtllib assets01_model_002.mtl
# Conker's Bad Fur Day — Real 3D Model (HUD & UI Props)
o assets01_model_002
usemtl assets01_model_002_mat

v 3.6300 6.5200 -0.0100
v 2.3500 0.7600 -2.5800
v 5.1400 0.0700 -0.0100
v 0.8300 1.9200 -0.0100
v 6.6600 6.5200 -0.0100
v 3.6300 6.5200 -0.0100
v 7.6600 7.0800 -0.0100
v 7.1300 8.3500 -0.0100
v 5.1600 9.4300 -0.0100
v 8.2300 9.6100 -0.0100
v 6.9100 10.2900 -0.0100
v 3.1500 8.3500 -0.0100
v 2.6100 7.0800 -0.0100
v 3.3800 10.2300 -0.0100
v 2.0500 9.6100 -0.0100
v 5.1400 0.0700 -0.0100
v 7.9100 0.7600 -2.5800
v 7.9100 0.7600 -0.0100
v 9.4300 1.9200 -0.0100
v 0.8300 1.9200 -0.0100
v 7.1600 8.0900 -0.0100
v 3.1200 8.0900 -0.0100
v 8.2300 9.6100 -0.0100
v 6.7500 10.1000 -0.0100
v 5.2400 -8.9300 -0.0100
v 5.2500 -2.4100 -0.0100
v 9.0000 -1.2000 -0.0100
v 9.1300 -3.7500 -0.0100
v 5.3100 -6.4600 -0.0100
v 7.5900 -8.4700 -0.0100
v 1.5100 -1.2000 -0.0100
v 3.0300 -8.4700 -0.0100
v 1.3500 -3.7500 -0.0100
v 2.4700 1.4100 -2.5800
v 7.8200 1.4100 -0.0100
v 6.9100 10.2900 -0.0100
v 8.2300 9.6100 -0.0100
v 6.7500 10.1000 -0.0100
v 7.1600 8.0900 -2.5800
v 3.5400 10.1000 -0.0100
v 2.0500 9.6100 -0.0100
v 3.3800 10.2300 -0.0100
v 3.1200 8.0900 -0.0100
v 7.1600 8.0900 -0.0100
v 3.1200 8.0900 -2.5800
v 9.4300 1.9200 -0.0100
v 7.8200 1.4100 -2.5800
v 2.4700 1.4100 -0.0100
v 0.8300 1.9200 -0.0100
v 3.5400 10.1000 -0.0200
v 6.7500 10.1000 -0.0200
v 7.1600 8.0900 -0.0200
v 0.0000 0.0000 -0.0100
v 0.0000 0.0000 -0.0100
v 0.0000 0.0000 -0.0100
v 0.0000 0.0000 -0.0100
v 0.0000 0.0000 -0.0100
v 1.9400 4.1500 -0.0100
v 7.6400 4.1500 -0.0100
v 10.2400 0.0000 -0.0100
v 2.1700 1.1100 -0.0100
v 0.0000 0.0000 -0.0100
v 0.0000 0.0000 -0.0100
v 0.0000 0.0000 -0.0100
v 0.0000 0.0000 -0.0100
v 2.5500 10.3100 -0.0100
v 7.5600 9.9900 -2.5800
v 7.0300 15.9000 -0.0100
v 1.9400 4.1500 -0.0100
v 2.1700 1.1100 -0.0100
v 7.6400 4.1500 -0.0100
v 10.2400 0.0000 -0.0100
v 2.3000 16.7800 -0.0100
v 8.1900 17.7700 -0.0100
v 0.4900 9.4700 -0.0100
v 2.5500 10.3100 -0.0100
v 9.7300 10.8000 -0.0100
v 7.5600 9.9900 -0.0100
v 3.2700 17.4400 -0.0100
v 3.6900 14.3700 -0.0100
v 7.0300 15.9000 -0.0100
v 2.1400 3.3100 -0.0100
v 2.1500 5.8700 -0.0100
v 0.3200 5.7000 -0.0100
v 4.3000 3.2400 -0.0100
v 2.0700 0.4500 -0.0100
v 4.0100 0.4500 -0.0100
v 3.9300 0.1200 -0.0100
v 4.3000 3.2400 -2.5800
v 4.1700 3.1700 -0.0100
v 1.6900 3.2500 -0.0100
v 2.1400 3.3100 -0.0100
v 1.6900 3.2500 -2.5800
v 4.2400 8.9000 -0.0100
v 4.8100 9.1000 -0.0100
v 3.3000 7.5200 -0.0100
v 3.5600 6.5300 -0.0100
v 2.1500 5.8700 -0.0100
v 0.3200 5.7000 -0.0100
v 0.0000 0.0000 -0.0100
v 0.0000 0.0000 -0.0100
v 0.0000 0.0000 -0.0100
v 0.0000 0.0000 -0.0100
v 0.0000 0.0000 -0.0100
v 1.9400 4.1500 -0.0100
v 7.6400 4.1500 -0.0100
v 10.2400 0.0000 -0.0100
v 2.1700 1.1100 -0.0100
v 0.0000 0.0000 -0.0100
v 0.0000 0.0000 -0.0100
v 0.0000 0.0000 -0.0100
v 0.0000 0.0000 -0.0100
v 7.5600 9.9900 -2.5800
v 2.5500 10.3100 -0.0100
v 7.0300 15.9000 -0.0100
v 1.9400 4.1500 -0.0100
v 2.1700 1.1100 -0.0100
v 7.6400 4.1500 -0.0100
v 10.2400 0.0000 -0.0100
v 8.1900 17.7700 -0.0100
v 2.3000 16.7800 -0.0100
v 2.5500 10.3100 -0.0100
v 0.4900 9.4700 -0.0100
v 9.7300 10.8000 -0.0100
v 7.5600 9.9900 -0.0100
v 3.2700 17.4400 -0.0100
v 7.0300 15.9000 -0.0100
v 3.6900 14.3700 -0.0100
v 2.1400 3.3100 -0.0100
v 0.3200 5.7000 -0.0100
v 2.1500 5.8700 -0.0100
v 4.3000 3.2400 -0.0100
v 2.0700 0.4500 -0.0100
v 4.0100 0.4500 -0.0100
v 3.9300 0.1200 -0.0100
v 4.3000 3.2400 -2.5800
v 4.1700 3.1700 -0.0100
v 1.6900 3.2500 -0.0100
v 2.1400 3.3100 -0.0100
v 1.6900 3.2500 -2.5800
v 4.8100 9.1000 -0.0100
v 4.2400 8.9000 -0.0100
v 3.3000 7.5200 -0.0100
v 3.5600 6.5300 -0.0100
v 2.1500 5.8700 -0.0100
v 0.3200 5.7000 -0.0100
v 0.0000 0.0000 -0.0100
v 0.0000 0.0000 -0.0100
v 0.0000 0.0000 -2.5800
v 2.7000 4.1000 -2.5800
v 3.4800 4.4100 -2.5800
v 1.2500 6.9800 -2.5800
v 1.5000 7.6500 -2.5800
v 3.1000 1.0000 -2.5800
v 4.6700 1.1200 -2.5800
v 4.6900 1.3600 -2.5800
v 3.2200 1.0000 -2.5800
v 2.8200 4.2800 -2.5800
v 3.4800 4.4100 -2.5800
v 2.7000 4.1000 -2.5800
v 1.1100 6.9500 -2.5800
v 1.5000 7.6500 -2.5800
v 0.3600 6.4100 -2.5800
v 0.0000 0.0000 -0.0100
v 0.0000 0.0000 -0.0100
v 0.0000 0.0000 -2.5800
v 3.4800 4.4100 -2.5800
v 2.7000 4.1000 -2.5800
v 1.5000 7.6500 -2.5800
v 4.6700 1.1200 -2.5800
v 3.1000 1.0000 -2.5800
v 4.6900 1.3600 -2.5800
v 3.2200 1.0000 -2.5800
v 3.4800 4.4100 -2.5800
v 2.8200 4.2800 -2.5800
v 2.7000 4.1000 -2.5800
v 1.1100 6.9500 -2.5800
v 1.5000 7.6500 -2.5800
v 0.3600 6.4100 -2.5800
v 0.4700 5.9500 -2.5800
v 0.0000 0.0000 -0.0100
v 0.0000 0.0000 -1.7900
v 0.0000 0.0000 -1.7900
v 0.0000 0.0000 -0.0100
v 0.0000 0.0000 -1.3800
v 0.0000 0.0000 -1.7900
v 0.0000 0.0000 -1.7900
v 0.0000 0.0000 -1.3800
v 0.0000 0.0000 -1.7900
v 0.0000 0.0000 -1.7900
v 0.0000 0.0000 -1.7900
v 0.0000 0.0000 -1.7900
v 0.0000 0.0000 -38.6400
v 0.0000 0.0000 -0.0100
v 0.0000 0.0000 -0.0100
v 0.0000 0.0000 -38.6400
v 0.0000 0.0000 -0.0100
v 0.0000 0.0000 -0.5200
v 0.0000 0.0000 -1.7900
v 0.0000 0.0000 -38.6400
v 0.0000 0.0000 -38.6400
v 0.0000 0.0000 -0.0100
v 0.0000 0.0000 -1.7900
v 7.1500 1.5500 -0.0100
v 9.9600 2.5200 -0.0100
v 5.4200 8.7300 -0.0100
v 1.0700 7.7500 -0.0100
v 1.0000 6.8800 -0.0100
v 1.3100 9.5400 -0.0100
v 1.4300 9.5400 -0.0100
v 4.3500 8.6300 -0.0100
v 1.3900 7.7300 -0.0100
v 1.3400 6.8600 -0.0100
v 11.2000 5.3000 -0.0100
v 12.3200 5.3800 -0.0100
v 5.4200 8.7300 -0.0100
v 1.0000 6.8800 -0.0100
v 7.1100 0.9100 -0.0100
v 19.4300 2.5200 -0.0100
v 16.3200 11.6300 -0.0100
v 13.7800 9.5300 -0.0100
v 22.7200 7.1300 -0.0100
v 0.8200 4.3600 -0.0100
v 1.1600 4.3300 -0.0100
v 6.2500 0.8800 -0.0100
v 12.0500 9.4900 -0.0100
v 11.2000 5.3000 -0.0100
v 4.3500 8.6300 -0.0100
v 16.8700 2.4300 -0.0100
v 6.2500 0.8800 -0.0100
v 19.6000 7.0500 -0.0100
v 14.1500 11.5800 -0.0100
v 5.4200 8.7300 -0.0100
v 12.3200 5.3800 -0.0100
v 13.7800 9.5300 -0.0100
v 0.8200 4.3600 -0.0100
v 0.7000 1.3000 -0.0100
v 7.1100 0.9100 -0.0100
v 1.1600 4.3300 -0.0100
v 0.8400 1.2900 -0.0100
v 0.0000 2.9400 -0.0100
v 3.1300 1.9300 -0.0100
v -0.1800 3.1600 -0.0100
v 9.9600 2.5200 -0.0100
v 1.6300 12.4000 -0.0100
v 9.4300 12.9800 -0.0100
v 9.5000 11.9300 -0.0100
v 1.6600 13.0900 -0.0100
v 0.0000 2.9400 -0.0100
v 10.8800 3.2800 -0.0100
v 0.0000 0.0000 -1.7900
v 0.0000 0.0000 -1.7900
v 0.0000 0.0000 -1.7900
v 0.0000 0.0000 -1.7900
v 0.0000 0.0000 -1.7900
v 0.0000 0.0000 -1.7900
v 0.0000 0.0000 -1.7900
v 0.0000 0.0000 -0.0100
v 0.0000 0.0000 -0.2700
v 0.0000 0.0000 -0.2700
v 0.0000 0.0000 -1.7900
v 0.0000 0.0000 -0.2700
v 0.0000 0.0000 -0.2700
v 0.0000 0.0000 -0.2700
v 0.0000 0.0000 -1.7900
v 0.0000 0.0000 -1.7900
v 0.0000 0.0000 -0.0100
v 0.0000 0.0000 -0.0100
v 0.0000 0.0000 -0.0100
v 0.0000 0.0000 -0.0100
v 0.0000 0.0000 -0.0100
v 0.0000 0.0000 -0.0100
v 0.0000 0.0000 -0.2700
v 0.0000 0.0000 -0.2700
v 0.0000 0.0000 -0.2700
v 0.0000 0.0000 -0.2700
v 0.0000 0.0000 -0.2700
v -1.4900 2.7800 -0.0100
v 2.1000 -0.1900 -0.0100
v 7.2400 17.3700 -0.0100
v 9.9600 2.2700 -0.0100
v -1.3300 20.3300 -0.0100
v -1.4700 2.2800 -0.0100
v 10.5600 3.2300 -0.0100
v 1.7200 -0.1000 -0.0100
v 7.1200 17.4200 -0.0100
v -1.2700 18.6500 -0.0100
v 0.0000 22.6000 0.3200
v 0.3200 0.6400 0.0000
v 0.3200 0.6400 0.0000
v 0.0000 28.3400 0.0000
v 0.0000 28.3500 0.3200
v 0.3200 0.6400 0.0000
v 0.0000 15.6600 0.0000
v 0.0000 26.1300 0.6400
v 0.6400 0.3200 0.0000
v 0.0000 30.9200 0.0000
v 0.0000 30.9600 0.3200
v 0.3200 0.3200 0.0000
v 0.0000 30.9800 0.0000
v 0.0000 31.0000 0.6400
v 0.6400 0.3200 0.0000
v 0.0000 30.9900 0.0000
v 0.0000 30.9300 0.3200
v 0.3200 0.6400 0.0000
v 0.0000 19.4000 0.0000
v 0.0000 19.4100 0.3200
v 0.3200 0.6400 0.0000
v 0.0000 19.4400 0.0000
v 0.0000 19.4500 0.3200
v 0.3200 0.6400 0.0000
v 0.0000 19.3500 0.0000
v 0.0000 36.5100 0.3200
v 0.3200 0.3200 0.0000
v 0.0000 36.5200 0.0000
v 0.0000 36.5300 0.3200
v 0.3200 0.3200 0.0000
v 0.0000 36.5600 0.0000
v 12.8000 20.5800 0.0000
v 12.9400 0.1000 0.0000
v -28.0000 0.0000 17.9200
v -33.2800 0.0000 18.2300
v -28.1600 2.5600 15.3600
v -7.5200 0.0000 0.6400
v 12.8000 10.3000 0.0000
v 12.8800 0.0600 0.0000
v 13.0000 35.9200 0.0000
v 12.8800 5.1200 0.0000
v 12.8800 25.7200 0.0000
v 13.0000 20.6000 0.0000
v 13.0200 20.7200 0.0000
v -7.5200 0.0000 0.0000
v -33.2800 0.0000 18.1400
v -28.1600 10.2400 0.0900
v 12.8400 0.0600 0.0000
v 12.8000 5.1600 0.0000
v 12.8800 25.7200 0.0000
v 12.9400 25.6800 0.0000
v 12.9200 36.0000 0.0000
v 12.9400 30.7200 0.0000
v 12.8400 15.4400 0.0000
v 13.0000 10.3400 0.0000
v 12.8800 25.7200 0.0000
v -7.5200 0.0000 0.6400
v 12.8000 5.3800 0.0000
v 12.8000 15.4000 0.0000
v 13.0200 36.0800 0.0000
v 12.9400 30.7200 0.0000
v -7.5200 0.0000 1.2800
v 13.0600 0.2400 0.0000
v 12.8400 5.2200 0.0000
v 12.8600 20.6200 0.0000
v 12.8000 15.4600 0.0000
v -7.6900 -3.6900 -27.9300
v 12.9400 5.1200 0.0000
v 12.8400 20.5800 0.0000
v 12.8600 10.4800 0.0000
v -7.5200 0.0000 0.0000
v -33.2800 0.0000 18.5500
v -28.0800 20.4800 0.0900
v 13.0400 0.2600 0.0000
v 12.8400 0.0200 0.0000
v 12.9200 36.0400 0.0000
v 13.0000 35.9400 0.0000
v 13.0400 30.9200 0.0000
v 12.9400 0.0200 0.0000
v 12.8600 10.4000 0.0000
v -7.5200 0.0000 0.0000
v -33.2800 0.0000 18.0500
v -28.1600 5.1200 0.0100
v 12.9000 0.1800 0.0000
v 12.9800 0.2400 0.0000
v 13.0600 0.1400 0.0000
v 12.9200 5.2200 0.0000
v 12.9400 15.3800 0.0000
v 12.9000 10.3000 0.0000
v 12.8000 20.6600 0.0000
v 12.9000 0.1800 0.0000
v 12.9400 10.3600 0.0000
v -7.5200 0.0000 0.0000
v -33.2800 0.0000 18.0500
v -28.1600 5.1200 0.0900
v -28.1600 5.6000 5.2000
v 12.8800 35.9400 0.0000
v 12.9200 0.0200 0.0000
v 12.8400 15.4400 0.0000
v 12.9200 5.2200 0.0000
v 12.9800 20.4800 0.0000
v 12.9800 0.1000 0.0000
v 12.9200 10.3800 0.0000
v -7.5200 0.0000 0.0000
v -33.2800 0.0000 18.0500
v 12.8800 35.9400 0.0000
v 12.8000 5.2400 0.0000
v 12.9000 15.4000 0.0000
v 12.8800 0.1200 0.0000
v 12.9600 30.9200 0.0000
v -7.6900 -3.6900 -27.9300
v 2.5700 0.3200 2.5600
v 12.8400 15.4400 0.0000
v 12.9200 25.6600 0.0000
v 12.8400 20.6200 0.0000
v 12.8000 5.1600 0.0000
v 12.8200 20.5800 0.0000
v 12.8600 10.3600 0.0000
v 12.8600 20.5800 0.0000
v 12.9200 35.8600 0.0000
v 12.8800 15.5800 0.0000
v 12.8600 25.8600 0.0000
v 12.8000 5.1600 0.0000
v 12.8800 25.7200 0.0000
v 12.9000 0.0200 0.0000
v 12.9400 0.1000 0.0000
v 12.9600 5.1200 0.0000
v -7.5200 0.0000 28.1600
v -33.2800 0.0000 18.2300
v -7.5200 0.0000 0.0000
v -33.2800 0.0000 18.5500
v 12.8000 5.1600 0.0000
v 12.8600 5.2000 0.0000
v 13.0200 25.8400 0.0000
v 12.9000 36.1000 0.0000
v 13.0800 15.4400 0.0000
v 12.8000 5.1600 0.0000
v 12.9000 0.1200 0.0000
v 12.8600 5.2200 0.0000
v -7.5200 0.0000 25.6000
v -7.5200 0.0000 28.1600
v -33.2800 0.0000 18.2300
v 12.8200 15.4000 0.0000
v -7.5200 0.0000 25.6000
v 12.8800 30.8600 0.0000
v -7.6900 -3.6900 -27.9300
v 13.0000 25.7200 0.0000
v 13.0600 30.9000 0.0000
v 12.9000 5.2400 0.0000
v 12.9800 5.1600 0.0000
v 12.9800 15.5200 0.0000
v 12.9400 15.4400 0.0000
v 12.9400 0.1000 0.0000
v 12.8200 10.3000 0.0000
v 12.8400 5.2200 0.0000
v 12.8600 20.6600 0.0000
v 12.9600 36.0400 0.0000
v 13.0600 25.8200 0.0000
v 13.0800 20.5200 0.0000
v 12.8200 0.1200 0.0000
v 12.8000 30.7400 0.0000
v 12.9600 10.3000 0.0000
v 12.9400 0.0400 0.0000
v 13.0000 20.5000 0.0000
v 12.8200 20.5800 0.0000
v 12.8400 0.1000 0.0000
v -7.5200 0.0000 15.3600
v -33.2800 0.0000 18.5500
v -28.0800 20.4800 0.0900
v 12.8000 5.1600 0.0000
v 12.8600 25.6200 0.0000
v -7.5200 0.0000 17.9200
v -33.2800 0.0000 18.5500
v 12.9200 36.0000 0.0000
v 1.9400 1.3100 -21.5200
v 1.3200 1.4100 1.3200
vt 0.0283 0.0049
vt 0.0000 -0.0068
vt -0.0293 0.0049
vt 0.0098 0.0176
vt -0.0107 0.0176
vt 0.0127 0.0264
vt 0.0127 0.0283
vt 0.0000 0.0342
vt 0.0205 0.0352
vt 0.0117 0.0400
vt -0.0137 0.0283
vt -0.0137 0.0264
vt -0.0117 0.0391
vt -0.0205 0.0352
vt 0.0000 -0.0068
vt 0.0186 -0.0029
vt 0.0186 -0.0029
vt 0.0283 0.0049
vt -0.0293 0.0049
vt 0.0127 0.0264
vt -0.0137 0.0264
vt 0.0205 0.0352
vt 0.0107 0.0391
vt 0.0000 -0.0107
vt -0.0186 0.0010
vt 0.0176 0.0010
vt 0.0186 -0.0029
vt 0.0000 -0.0068
vt 0.0000 -0.0107
vt -0.0186 0.0010
vt -0.0107 -0.0098
vt -0.0186 -0.0029
vt -0.0186 0.0010
vt 0.0176 0.0010
vt 0.0117 0.0400
vt 0.0205 0.0352
vt 0.0107 0.0391
vt 0.0127 0.0264
vt -0.0107 0.0391
vt -0.0205 0.0352
vt -0.0117 0.0391
vt -0.0137 0.0264
vt 0.0127 0.0264
vt -0.0137 0.0264
vt 0.0283 0.0049
vt 0.0176 0.0010
vt -0.0186 0.0010
vt -0.0293 0.0049
vt -0.0107 0.0391
vt 0.0107 0.0391
vt 0.0127 0.0264
vt 0.0039 -0.0088
vt -0.0166 -0.0020
vt -0.0166 -0.0088
vt 0.0059 -0.0176
vt -0.0186 -0.0176
vt -0.0127 0.0098
vt 0.0039 0.0098
vt 0.0049 -0.0020
vt -0.0166 -0.0020
vt -0.0039 -0.0176
vt 0.0078 -0.0107
vt 0.0078 -0.0107
vt 0.0059 -0.0176
vt -0.0117 -0.0020
vt 0.0029 -0.0029
vt 0.0068 -0.0127
vt -0.0127 0.0098
vt -0.0166 -0.0020
vt 0.0039 0.0098
vt 0.0049 -0.0020
vt -0.0039 -0.0107
vt 0.0078 -0.0107
vt -0.0195 -0.0107
vt -0.0117 -0.0020
vt 0.0078 -0.0107
vt 0.0029 -0.0029
vt -0.0039 -0.0146
vt -0.0039 -0.0127
vt 0.0068 -0.0127
vt 0.0068 -0.0156
vt -0.0107 -0.0098
vt 0.0000 -0.0107
vt -0.0078 -0.0010
vt 0.0068 -0.0127
vt -0.0039 -0.0127
vt -0.0039 -0.0146
vt -0.0078 -0.0010
vt -0.0078 -0.0166
vt 0.0068 -0.0156
vt 0.0068 -0.0156
vt 0.0068 -0.0156
vt -0.0186 -0.0029
vt -0.0293 0.0049
vt -0.0186 -0.0029
vt -0.0186 0.0010
vt -0.0107 -0.0098
vt 0.0000 -0.0107
vt -0.0029 -0.0078
vt -0.0039 0.0000
vt -0.0029 -0.0078
vt -0.0059 -0.0176
vt 0.0049 -0.0107
vt 0.0039 -0.0176
vt -0.0029 0.0107
vt -0.0039 0.0000
vt 0.0176 0.0000
vt -0.0068 -0.0107
vt 0.0049 -0.0107
vt 0.0039 -0.0176
vt -0.0068 -0.0176
vt 0.0195 -0.0176
vt 0.0127 -0.0020
vt -0.0068 -0.0117
vt 0.0127 0.0107
vt 0.0176 0.0000
vt -0.0029 0.0107
vt -0.0039 0.0000
vt -0.0068 -0.0107
vt 0.0049 -0.0107
vt 0.0127 -0.0020
vt 0.0195 -0.0098
vt -0.0078 -0.0098
vt -0.0029 -0.0020
vt 0.0039 -0.0137
vt -0.0068 -0.0117
vt 0.0049 -0.0117
vt -0.0059 -0.0156
vt 0.0000 -0.0107
vt 0.0107 -0.0098
vt 0.0088 0.0000
vt -0.0068 -0.0117
vt 0.0049 -0.0117
vt 0.0039 -0.0137
vt 0.0088 0.0000
vt 0.0088 -0.0166
vt -0.0059 -0.0156
vt -0.0059 -0.0156
vt -0.0059 -0.0156
vt 0.0283 0.0049
vt 0.0186 -0.0029
vt 0.0186 -0.0029
vt 0.0176 0.0010
vt 0.0107 -0.0098
vt 0.0000 -0.0107
vt 0.0107 -0.0127
vt 0.0107 -0.0127
vt -0.0088 -0.0049
vt -0.0088 -0.0049
vt -0.0186 -0.0195
vt -0.0137 0.0264
vt -0.0205 0.0352
vt -0.0020 -0.0195
vt -0.0068 -0.0205
vt -0.0127 -0.0176
vt -0.0020 -0.0195
vt -0.0107 -0.0176
vt -0.0186 -0.0195
vt -0.0117 -0.0244
vt -0.0137 0.0283
vt -0.0205 0.0352
vt -0.0137 0.0264
vt -0.0098 -0.0127
vt -0.0098 -0.0127
vt 0.0078 -0.0049
vt 0.0078 -0.0049
vt 0.0117 -0.0244
vt 0.0205 0.0352
vt 0.0068 -0.0195
vt 0.0010 -0.0186
vt 0.0127 -0.0166
vt 0.0010 -0.0186
vt 0.0186 -0.0195
vt 0.0107 -0.0176
vt 0.0117 -0.0244
vt 0.0127 0.0283
vt 0.0205 0.0352
vt 0.0127 0.0264
vt 0.0127 0.0264
vt 0.0254 0.0332
vt 0.0195 0.0273
vt 0.0322 0.0078
vt -0.0371 0.0215
vt -0.0254 0.0332
vt -0.0176 0.0469
vt -0.0186 0.0498
vt 0.0000 0.0469
vt 0.0215 0.0576
vt -0.0186 0.0498
vt 0.0195 0.0273
vt 0.0186 0.0498
vt -0.0186 0.0498
vt -0.0098 0.0098
vt -0.0107 -0.0010
vt 0.0049 0.0078
vt 0.0107 -0.0010
vt 0.0000 -0.0020
vt -0.0107 0.0615
vt -0.0186 0.0498
vt 0.0107 -0.0010
vt 0.0107 0.0098
vt 0.0107 0.0615
vt 0.0186 0.0498
vt 0.0000 0.0244
vt -0.0215 0.0264
vt 0.0000 0.0195
vt 0.0000 0.0176
vt 0.0000 0.0244
vt 0.0000 0.0244
vt -0.0059 0.0225
vt 0.0000 0.0195
vt 0.0000 0.0176
vt -0.0205 0.0146
vt 0.0195 0.0146
vt 0.0068 0.0225
vt 0.0000 0.0176
vt 0.0117 0.0020
vt 0.0322 0.0078
vt 0.0254 0.0332
vt 0.0215 0.0264
vt 0.0371 0.0215
vt 0.0000 0.0098
vt 0.0000 0.0098
vt -0.0107 0.0020
vt -0.0215 0.0264
vt -0.0205 0.0146
vt -0.0059 0.0225
vt -0.0322 0.0078
vt -0.0107 0.0020
vt -0.0371 0.0215
vt -0.0254 0.0332
vt 0.0068 0.0225
vt 0.0195 0.0146
vt 0.0215 0.0264
vt 0.0000 0.0098
vt 0.0000 0.0020
vt 0.0117 0.0020
vt 0.0000 0.0098
vt 0.0000 0.0020
vt 0.0215 0.0264
vt 0.0068 0.0225
vt -0.0215 0.0264
vt 0.0000 0.0244
vt -0.0176 0.0469
vt 0.0000 0.0469
vt 0.0166 0.0459
vt 0.0000 0.0469
vt 0.0000 0.0244
vt 0.0215 0.0264
vt 0.0391 -0.0010
vt 0.0127 0.0381
vt -0.0400 -0.0195
vt 0.0029 -0.0039
vt 0.0000 -0.0078
vt -0.0039 -0.0039
vt 0.0000 -0.0010
vt -0.0117 0.0088
vt 0.0059 0.0352
vt 0.0127 0.0400
vt 0.0410 0.0020
vt -0.0381 0.0254
vt -0.0273 -0.0195
vt -0.0371 -0.0205
vt 0.0107 -0.0361
vt -0.0361 0.0264
vt 0.0127 0.0381
vt -0.0117 0.0088
vt 0.0029 -0.0098
vt 0.0127 0.0020
vt 0.0039 0.0137
vt 0.0000 0.0029
vt -0.0332 0.0186
vt -0.0273 -0.0195
vt 0.0146 -0.0264
vt 0.0342 0.0068
vt 0.0059 0.0352
vt 0.0215 0.0264
vt 0.0068 0.0225
vt 0.0166 0.0459
vt 0.0215 0.0264
vt 0.0000 0.0469
vt 0.0000 0.0244
vt -0.0215 0.0264
vt -0.0059 0.0225
vt -0.0176 0.0469
vt 0.0000 0.0469
vt 0.0000 7.4375
vt 0.0000 1.5303
vt 0.0000 3.3408
vt 0.0000 7.5508
vt 0.0312 0.0625
vt 0.0000 2.7705
vt 0.0000 4.5020
vt 0.0625 0.0156
vt 0.0000 2.5508
vt 0.0000 3.5635
vt 0.0312 0.0312
vt 0.0000 3.0225
vt 0.0000 3.0244
vt 0.0156 0.0312
vt 0.0000 3.0215
vt 0.0000 3.0283
vt 0.0156 0.0312
vt 0.0000 1.8916
vt 0.0000 1.8936
vt 0.0312 0.0625
vt 0.0000 1.8965
vt 0.0000 1.8975
vt 0.0312 0.0625
vt 0.0000 1.9004
vt 0.0000 1.8887
vt 0.0312 0.0625
vt 0.0000 3.5645
vt 0.0000 3.5713
vt 0.0312 0.0312
vt 0.0000 3.5684
vt 0.0000 3.5693
vt 0.0312 0.0312
vt 1.2617 1.0000
vt 1.2617 0.0137
vt -6.5000 0.0000
vt -6.2500 0.0000
vt -6.5000 0.0000
vt -4.0000 0.0000
vt 1.2578 2.5117
vt 1.2637 4.0020
vt 1.2637 0.5078
vt -9.4453 0.0029
vt 1.2637 4.0176
vt 1.2578 5.0176
vt 1.2676 4.0254
vt -6.5000 0.0000
vt -6.2500 0.0000
vt -2.7500 0.5625
vt -9.4453 0.0029
vt 1.2695 5.5059
vt 1.2637 2.0156
vt 1.2676 6.0254
vt 1.2656 4.5117
vt 1.2500 0.5137
vt 1.2598 1.0078
vt 1.2598 5.5195
vt 1.2617 3.5156
vt -4.0000 0.0000
vt 1.2520 0.0039
vt -9.4453 0.0029
vt 1.2578 3.0195
vt 1.2520 0.0117
vt -4.0000 0.0000
vt 1.2637 0.0254
vt 1.2520 1.5137
vt 1.2559 1.0098
vt -6.2500 0.0000
vt -10.2500 0.0020
vt 1.2539 1.5078
vt 1.2598 2.0195
vt 1.2773 6.5293
vt -6.5000 0.0000
vt -6.2500 0.0000
vt -3.5000 8.0020
vt 1.2734 0.5000
vt 1.2539 1.5000
vt 1.2715 3.0234
vt 1.2578 4.0215
vt 1.2656 4.5215
vt 1.2676 4.0039
vt -6.2500 0.0000
vt -6.5000 0.0000
vt -6.2500 0.0000
vt -3.5000 8.0020
vt 1.2598 5.5117
vt 1.2734 0.0254
vt 1.2773 4.0215
vt 1.2598 0.5039
vt 1.2637 2.0059
vt 1.2598 1.5000
vt 1.2500 2.5020
vt 1.2695 5.5117
vt 1.2715 4.0137
vt -6.5000 0.0000
vt -6.2500 0.0000
vt -2.7500 0.5312
vt 1.2734 6.5273
vt 1.2656 2.5137
vt 1.2598 0.5039
vt 1.2617 2.0059
vt 1.2598 1.0078
vt 1.2520 2.5000
vt 1.2617 5.0215
vt 1.2637 4.0195
vt -6.5000 0.0000
vt -6.2500 0.0000
vt 1.2637 2.0156
vt 1.2539 0.0078
vt 1.2559 2.5117
vt 1.2598 1.0078
vt -6.2500 0.0000
vt -10.2500 0.0020
vt 1.2500 0.5039
vt 1.2559 2.5078
vt 1.2520 1.5039
vt 1.2578 2.5137
vt 1.2500 1.0059
vt 1.2578 0.5000
vt 1.2637 4.0098
vt 1.2559 0.0039
vt 1.2539 0.5137
vt 1.2637 3.0176
vt -9.4453 0.0029
vt 1.2559 0.5234
vt -9.4453 0.0029
vt 1.2617 2.5020
vt 1.2656 3.0020
vt 1.2539 1.5078
vt -6.5000 0.0000
vt -6.2500 0.0000
vt -6.5000 0.0000
vt -6.2500 0.0000
vt 1.2539 0.5059
vt 1.2598 3.0137
vt 1.2734 2.5176
vt 1.2754 4.0098
vt 1.2578 7.5273
vt 1.2559 2.0020
vt 1.2598 0.5000
vt 1.2637 4.0176
vt -4.0000 0.0000
vt -6.5000 0.0000
vt -6.2500 0.0000
vt -10.2500 11.2520
vt -4.0000 0.0000
vt -6.2500 0.0000
vt -10.2500 0.0020
vt 1.2715 2.5195
vt 1.2754 4.5234
vt 1.2617 0.5176
vt 1.2676 1.0059
vt 1.2656 1.5137
vt 1.2637 2.0000
vt -9.4453 0.0029
vt 1.2578 1.5039
vt 1.2598 0.5117
vt 1.2695 4.5078
vt 1.2695 3.5176
vt 1.2734 2.0273
vt 1.2715 2.5156
vt -9.4453 0.0029
vt 1.2617 0.0137
vt 1.2637 1.0156
vt 1.2656 1.5176
vt 1.2676 2.0195
vt 1.2598 0.0020
vt 1.2559 2.5078
vt -6.5000 0.0000
vt -6.2500 0.0000
vt -3.5000 8.0020
vt 1.2559 0.5078
vt -6.2500 0.0000
vt -6.5000 0.0000
vt -6.2500 0.0000
vt 1.2637 3.0176
vt 7.4043 -10.7988
vt 2.1221 -15.9316
f 49/49 3/3 70/70
f 128/128 128/128 128/128
f 50/50 2/2 93/93
f 76/76 1/1 122/122
f 128/128 128/128 128/128
f 68/68 3/3 68/68
f 50/50 2/2 93/93
f 1/1 2/2 5/5
f 1/1 5/5 6/6
f 7/7 3/3 1/1
f 8/8 1/1 6/6
f 7/7 1/1 8/8
f 2/2 9/9 5/5
f 9/9 2/2 4/4
f 7/7 9/9 3/3
f 4/4 3/3 9/9
f 11/11 12/12 13/13
f 10/10 14/14 15/15
f 10/10 16/16 14/14
f 12/12 13/13 1/1
f 1/1 14/14 15/15
f 2/2 12/12 1/1
f 1/1 3/3 4/4
f 5/5 6/6 7/7
f 1/1 15/15 3/3
f 5/5 4/4 6/6
f 5/5 1/1 4/4
f 8/8 9/9 2/2
f 10/10 11/11 5/5
f 9/9 16/16 2/2
f 11/11 8/8 5/5
f 8/8 2/2 5/5
f 5/5 2/2 1/1
f 5/5 6/6 7/7
f 8/8 9/9 10/10
f 11/11 5/5 7/7
f 5/5 11/11 10/10
f 12/12 5/5 13/13
f 10/10 9/9 14/14
f 10/10 13/13 5/5
f 1/1 15/15 2/2
f 1/1 16/16 15/15
f 3/3 1/1 4/4
f 1/1 2/2 3/3
f 11/11 12/12 4/4
f 5/5 6/6 7/7
f 8/8 5/5 9/9
f 8/8 6/6 5/5
f 10/10 13/13 14/14
f 1/1 2/2 3/3
f 7/7 8/8 9/9
f 9/9 10/10 7/7
f 8/8 7/7 1/1
f 1/1 2/2 8/8
f 3/3 4/4 5/5
f 6/6 3/3 5/5
f 11/11 3/3 6/6
f 6/6 12/12 11/11
f 4/4 13/13 14/14
f 14/14 5/5 4/4
f 15/15 13/13 16/16
f 5/5 6/6 7/7
f 7/7 8/8 9/9
f 7/7 9/9 10/10
f 5/5 11/11 12/12
f 7/7 10/10 5/5
f 15/15 13/13 14/14
f 13/13 1/1 14/14
f 1/1 2/2 14/14
f 2/2 1/1 3/3
f 1/1 4/4 3/3
f 5/5 11/11 6/6
f 11/11 7/7 8/8
f 12/12 8/8 13/13
f 5/5 7/7 11/11
f 13/13 9/9 6/6
f 11/11 8/8 12/12
f 13/13 10/10 9/9
f 6/6 11/11 13/13
f 8/8 7/7 1/1
f 2/2 1/1 7/7
f 3/3 9/9 10/10
f 9/9 3/3 4/4
f 15/15 16/16 14/14
f 10/10 11/11 6/6
f 11/11 1/1 6/6
f 7/7 12/12 6/6
f 13/13 1/1 11/11
f 14/14 1/1 13/13
f 8/8 1/1 14/14
f 12/12 9/9 15/15
f 6/6 2/2 7/7
f 3/3 2/2 6/6
f 2/2 4/4 8/8
f 4/4 5/5 8/8
f 4/4 3/3 6/6
f 1/1 4/4 6/6
f 7/7 8/8 9/9
f 9/9 10/10 7/7
f 1/1 9/9 8/8
f 8/8 2/2 1/1
f 3/3 4/4 5/5
f 3/3 5/5 6/6
f 6/6 5/5 11/11
f 11/11 12/12 6/6
f 13/13 14/14 4/4
f 4/4 3/3 13/13
f 15/15 14/14 16/16
f 5/5 6/6 7/7
f 8/8 9/9 5/5
f 10/10 8/8 5/5
f 11/11 12/12 7/7
f 7/7 10/10 5/5
f 13/13 14/14 15/15
f 13/13 1/1 14/14
f 13/13 2/2 1/1
f 3/3 1/1 2/2
f 3/3 4/4 1/1
f 5/5 11/11 6/6
f 7/7 8/8 11/11
f 12/12 7/7 13/13
f 11/11 8/8 6/6
f 5/5 9/9 12/12
f 13/13 7/7 11/11
f 9/9 10/10 12/12
f 12/12 11/11 5/5
f 1/1 8/8 7/7
f 8/8 1/1 2/2
f 10/10 9/9 3/3
f 4/4 3/3 9/9
f 14/14 15/15 16/16
f 6/6 10/10 11/11
f 6/6 1/1 10/10
f 6/6 12/12 7/7
f 10/10 1/1 13/13
f 13/13 1/1 14/14
f 14/14 1/1 8/8
f 15/15 9/9 12/12
f 7/7 2/2 6/6
f 6/6 2/2 3/3
f 8/8 4/4 2/2
f 8/8 5/5 4/4
f 6/6 3/3 4/4
f 6/6 4/4 1/1
f 1/1 5/5 10/10
f 1/1 6/6 2/2
f 6/6 1/1 10/10
f 11/11 12/12 7/7
f 6/6 10/10 11/11
f 7/7 12/12 8/8
f 8/8 3/3 7/7
f 12/12 9/9 8/8
f 12/12 10/10 9/9
f 9/9 4/4 3/3
f 8/8 9/9 3/3
f 13/13 14/14 15/15
f 16/16 15/15 14/14
f 5/5 8/8 6/6
f 9/9 6/6 8/8
f 7/7 10/10 5/5
f 8/8 5/5 10/10
f 7/7 1/1 2/2
f 6/6 2/2 3/3
f 3/3 4/4 5/5
f 7/7 5/5 4/4
f 7/7 2/2 6/6
f 6/6 3/3 5/5
f 10/10 5/5 1/1
f 2/2 6/6 1/1
f 10/10 1/1 6/6
f 7/7 11/11 12/12
f 12/12 10/10 6/6
f 8/8 11/11 7/7
f 7/7 3/3 8/8
f 8/8 9/9 11/11
f 9/9 10/10 11/11
f 3/3 4/4 9/9
f 3/3 9/9 8/8
f 15/15 13/13 14/14
f 5/5 8/8 6/6
f 8/8 5/5 9/9
f 6/6 10/10 7/7
f 10/10 6/6 8/8
f 1/1 2/2 7/7
f 3/3 1/1 5/5
f 6/6 4/4 3/3
f 4/4 6/6 7/7
f 5/5 1/1 7/7
f 6/6 3/3 5/5
f 9/9 7/7 11/11
f 1/1 2/2 3/3
f 3/3 4/4 5/5
f 4/4 6/6 5/5
f 7/7 6/6 4/4
f 2/2 4/4 3/3
f 3/3 5/5 8/8
f 5/5 6/6 8/8
f 9/9 10/10 11/11
f 12/12 13/13 14/14
f 13/13 9/9 14/14
f 13/13 12/12 15/15
f 9/9 13/13 10/10
f 12/12 16/16 15/15
f 1/1 2/2 3/3
f 1/1 3/3 4/4
f 2/2 5/5 6/6
f 5/5 2/2 1/1
f 4/4 3/3 7/7
f 8/8 9/9 6/6
f 8/8 10/10 9/9
f 2/2 11/11 3/3
f 12/12 13/13 14/14
f 1/1 2/2 3/3
f 4/4 5/5 6/6
f 4/4 1/1 3/3
f 7/7 8/8 2/2
f 3/3 2/2 8/8
f 9/9 10/10 7/7
f 11/11 8/8 10/10
f 5/5 4/4 12/12
f 8/8 7/7 10/10
f 1/1 13/13 2/2
f 14/14 1/1 4/4
f 4/4 6/6 14/14
f 8/8 9/9 10/10
f 11/11 12/12 10/10
f 1/1 2/2 3/3
f 4/4 2/2 13/13
f 4/4 13/13 14/14
f 13/13 2/2 15/15
f 4/4 14/14 16/16
f 2/2 4/4 16/16
f 5/5 6/6 7/7
f 6/6 1/1 2/2
f 7/7 6/6 2/2
f 8/8 1/1 6/6
f 9/9 7/7 2/2
f 9/9 2/2 1/1
f 3/3 4/4 5/5
f 10/10 11/11 12/12
f 13/13 14/14 15/15
f 16/16 14/14 13/13
f 1/1 2/2 3/3
f 3/3 2/2 4/4
f 4/4 2/2 5/5
f 6/6 7/7 8/8
f 6/6 9/9 10/10
f 11/11 12/12 13/13
f 12/12 6/6 13/13
f 13/13 6/6 10/10
f 6/6 8/8 14/14
f 14/14 9/9 6/6
f 15/15 4/4 5/5
f 5/5 16/16 15/15
f 1/1 2/2 3/3
f 4/4 5/5 2/2
f 6/6 1/1 7/7
f 6/6 2/2 1/1
f 4/4 2/2 6/6
f 8/8 9/9 10/10
f 11/11 12/12 13/13
f 14/14 5/5 15/15
f 1/1 2/2 3/3
f 1/1 2/2 3/3
f 2/2 4/4 3/3
f 5/5 6/6 7/7
f 5/5 7/7 8/8
f 11/11 6/6 7/7
f 12/12 6/6 11/11
f 6/6 12/12 8/8
f 12/12 9/9 8/8
f 9/9 12/12 13/13
f 7/7 14/14 11/11
f 14/14 7/7 10/10
f 14/14 10/10 13/13
f 13/13 10/10 9/9
f 6/6 1/1 2/2
f 6/6 2/2 7/7
f 7/7 2/2 10/10
f 10/10 2/2 3/3
f 10/10 3/3 4/4
f 10/10 4/4 9/9
f 9/9 4/4 8/8
f 8/8 4/4 5/5
f 8/8 5/5 1/1
f 8/8 1/1 6/6
f 2/2 3/3 4/4
f 5/5 4/4 3/3
f 3/3 2/2 6/6
f 6/6 2/2 7/7
f 8/8 9/9 7/7
f 6/6 7/7 9/9
f 4/4 5/5 10/10
f 11/11 10/10 5/5
f 9/9 8/8 11/11
f 11/11 8/8 10/10
f 12/12 9/9 11/11
f 13/13 11/11 5/5
f 14/14 6/6 12/12
f 13/13 5/5 15/15
f 15/15 5/5 3/3
f 12/12 6/6 9/9
f 12/12 11/11 16/16
f 16/16 11/11 13/13
f 6/6 14/14 3/3
f 15/15 3/3 14/14
f 2/2 1/1 7/7
f 1/1 7/7 2/2
f 7/7 1/1 8/8
f 9/9 3/3 4/4
f 8/8 3/3 9/9
f 8/8 1/1 3/3
f 9/9 4/4 10/10
f 11/11 5/5 2/2
f 10/10 5/5 11/11
f 5/5 10/10 4/4
f 3/3 6/6 4/4
f 2/2 5/5 6/6
f 6/6 1/1 2/2
f 3/3 1/1 6/6
f 4/4 6/6 5/5
f 1/1 2/2 3/3
f 4/4 2/2 5/5
f 4/4 6/6 2/2
f 7/7 8/8 9/9
f 8/8 7/7 10/10
f 11/11 10/10 7/7
