# Conker's Bad Fur Day — Real 3D Model (HUD & UI Props)
o assets01_model_014

v 0.0000 25.2400 0.0000
v 0.0000 38.8800 0.0000
v 9.8100 2.4000 -2.5800
v 8.2200 1.8600 -2.5800
v 10.7300 0.6400 -2.5800
v 8.4600 0.9600 -2.5800
v 8.2200 1.8600 -2.5800
v 9.0100 2.5600 -2.5800
v 7.7900 2.5500 -2.5800
v 7.3300 1.0100 -2.5800
v 2.2000 1.9100 -2.5800
v 0.7300 2.6000 -2.5800
v 2.2000 1.9100 -2.5800
v 2.0500 0.8600 -2.5800
v -0.2700 0.6200 -2.5800
v 1.3700 2.7600 -2.5800
v 2.7000 2.5100 -2.5800
v 3.1700 0.9800 -2.5800
v 1.3700 2.7600 -2.5800
v 2.7000 2.5100 -2.5800
v 3.1200 14.8900 -2.5800
v 7.3000 14.9300 -2.5800
v 8.5900 15.2700 -2.5800
v 1.8300 15.2100 -2.5800
v 2.3800 10.9900 -2.5800
v 8.0700 11.0400 -2.5800
v 9.5600 11.0500 -2.5800
v 0.8900 10.9800 -2.5800
v 0.6500 5.9700 -2.5800
v 2.2200 5.9900 -2.5800
v 5.2500 0.9900 -2.5800
v 5.2400 2.5300 -2.5800
v 7.7900 2.5500 -2.5800
v 9.0100 2.5600 -2.5800
v 2.7000 2.5100 -2.5800
v 7.6000 19.6800 -2.5800
v 7.6000 19.6800 -2.5800
v 8.9100 22.0000 -0.0100
v 1.6900 21.8900 -1.2900
v 3.4000 20.9900 -0.0100
v 2.9800 19.5200 -2.5800
v 2.9800 19.5200 -2.5800
v 3.3100 18.8500 -2.5800
v 3.3100 18.8500 -2.5800
v 3.4700 20.1500 -2.5800
v 1.8300 15.2100 -2.5800
v 3.1200 14.8900 -2.5800
v 7.1000 18.8800 -2.5800
v 2.3800 10.9900 -2.5800
v 8.0700 11.0400 -2.5800
v 9.5600 11.0500 -2.5800
v 0.8900 10.9800 -2.5800
v 9.8200 6.0500 -2.5800
v 8.2500 6.0400 -2.5800
v 2.2200 5.9900 -2.5800
v 2.2200 5.9900 -2.5800
v 8.2500 6.0400 -2.5800
v 9.8200 6.0500 -2.5800
v 0.6500 5.9700 -2.5800
v 5.2400 2.5300 -2.5800
v 8.2200 1.8600 -2.5800
v 8.4600 0.9600 -2.5800
v 9.0100 2.5600 -2.5800
v 7.7900 2.5500 -2.5800
v 7.3300 1.0100 -2.5800
v 8.6400 19.5500 -2.5800
v 7.6000 19.6800 -2.5800
v 8.9100 22.0000 -0.0100
v 7.6000 19.6800 -2.5800
v 3.4000 20.9900 -0.0100
v 8.2100 18.9600 -0.4400
v 7.1000 18.8800 -2.5800
v 7.3000 14.9300 -2.5800
v 8.5900 15.2700 -2.5800
v 3.3100 18.8500 -2.5800
v 3.1200 14.8900 -2.5800
v 3.4700 20.1500 -2.5800
v 7.1000 18.8800 -2.5800
v 3.3100 18.8500 -2.5800
v 2.9800 19.5200 -2.5800
v 7.3000 14.9300 -2.5800
v 3.1200 14.8900 -2.5800
v 1.8300 15.2100 -2.5800
v 8.5900 15.2700 -2.5800
v 8.0700 11.0400 -2.5800
v 2.3800 10.9900 -2.5800
v 0.8900 10.9800 -2.5800
v 9.5600 11.0500 -2.5800
v 7.7900 2.5500 -2.5800
v 7.3300 1.0100 -2.5800
v 9.0100 2.5600 -2.5800
v 7.7900 2.5500 -2.5800
v 2.2000 1.9100 -2.5800
v 2.0500 0.8600 -2.5800
v 1.3700 2.7600 -2.5800
v 2.7000 2.5100 -2.5800
v 3.1700 0.9800 -2.5800
v 2.7000 2.5100 -2.5800
v 1.3700 2.7600 -2.5800
v 3.3100 18.8500 -2.5800
v 3.1200 14.8900 -2.5800
v 1.8300 15.2100 -2.5800
v 7.1000 18.8800 -2.5800
v 7.3000 14.9300 -2.5800
v 9.5600 11.0500 -2.5800
v 8.0700 11.0400 -2.5800
v 0.8900 10.9800 -2.5800
v 2.3800 10.9900 -2.5800
v 9.8200 6.0500 -2.5800
v 8.2500 6.0400 -2.5800
v 0.6500 5.9700 -2.5800
v 2.2200 5.9900 -2.5800
v 9.8200 6.0500 -2.5800
v 8.2500 6.0400 -2.5800
v 2.2200 5.9900 -2.5800
v 0.6500 5.9700 -2.5800
v 5.2500 0.9900 -2.5800
v 5.2400 2.5300 -2.5800
v 8.2100 18.9600 -0.4400
v 8.5900 15.2700 -2.5800
v 7.3000 14.9300 -2.5800
v 7.1000 18.8800 -2.5800
v 3.3100 18.8500 -2.5800
v 3.4700 20.1500 -2.5800
v 7.7800 8.9400 -2.5800
v 10.5100 7.1900 -2.5800
v 2.2400 6.4000 -2.5800
v 4.9700 4.6500 -2.5800
v 5.0500 10.6900 -2.5800
v 7.7100 2.9000 -2.5800
v 7.7100 2.9000 -2.5800
v 4.9700 4.6500 -2.5800
v 10.5100 7.1900 -2.5800
v 7.7800 8.9400 -2.5800
v 5.0500 10.6900 -2.5800
v 2.2400 6.4000 -2.5800
v 0.0000 39.6100 0.3200
v 0.3200 0.3200 0.0000
v -28.0000 0.0000 17.9200
v -33.2800 0.0000 18.5500
v -28.1600 2.5600 15.3600
v -7.5200 0.0000 0.6400
v -7.5200 0.0000 0.6400
v -7.5200 0.0000 0.0000
v -33.2800 0.0000 18.2300
v -28.0800 20.4800 0.0900
vt 0.0000 2.6367
vt 0.0000 0.0000
vt 0.0039 -0.0029
vt 0.0625 -0.0186
vt 0.0088 -0.0137
vt 0.0039 -0.0029
vt 0.0508 -0.0215
vt 0.0215 -0.0215
vt 0.0107 -0.0400
vt -0.0039 -0.0039
vt -0.0391 0.0049
vt -0.0039 -0.0039
vt -0.0078 -0.0166
vt -0.0625 -0.0186
vt -0.0527 -0.0186
vt -0.0215 -0.0225
vt -0.0107 -0.0410
vt -0.0527 -0.0186
vt -0.0215 -0.0225
vt -0.0488 0.0000
vt 0.0498 0.0000
vt 0.0801 0.0049
vt -0.0791 0.0049
vt -0.0674 0.0000
vt 0.0674 0.0000
vt 0.1035 0.0000
vt -0.1025 0.0000
vt -0.1094 0.0010
vt -0.0713 0.0010
vt 0.0000 -0.0010
vt 0.0000 0.0176
vt 0.0215 -0.0215
vt 0.0508 -0.0215
vt -0.0215 -0.0225
vt 0.0117 0.0107
vt -0.0010 0.0283
vt 0.0430 0.0391
vt -0.0371 0.0127
vt 0.0020 0.0264
vt -0.0518 0.0566
vt -0.0518 0.0566
vt -0.0449 0.0488
vt -0.0703 0.0537
vt -0.0410 0.0645
vt -0.0791 0.0049
vt -0.0488 0.0000
vt 0.0449 0.0488
vt 0.0410 0.0645
vt 0.0674 0.0000
vt 0.1035 0.0000
vt -0.1025 0.0000
vt 0.1084 0.0010
vt 0.0713 0.0010
vt -0.0713 0.0010
vt -0.0713 0.0010
vt 0.0713 0.0010
vt 0.1084 0.0010
vt -0.1094 0.0010
vt 0.0000 0.0176
vt 0.0039 -0.0029
vt 0.0088 -0.0137
vt 0.0508 -0.0215
vt 0.0215 -0.0215
vt 0.0107 -0.0400
vt 0.0361 0.0088
vt 0.0117 0.0107
vt 0.0430 0.0391
vt 0.0117 0.0107
vt -0.0010 0.0283
vt 0.0713 0.0498
vt 0.0449 0.0488
vt 0.0498 0.0000
vt 0.0801 0.0049
vt -0.0449 0.0488
vt -0.0488 0.0000
vt 0.0410 0.0645
vt 0.0449 0.0488
vt -0.0449 0.0488
vt -0.0518 0.0566
vt 0.0498 0.0000
vt -0.0488 0.0000
vt -0.0791 0.0049
vt 0.0801 0.0049
vt 0.0674 0.0000
vt -0.0674 0.0000
vt -0.1025 0.0000
vt 0.1035 0.0000
vt 0.0215 -0.0215
vt 0.0107 -0.0400
vt 0.0508 -0.0215
vt 0.0215 -0.0215
vt -0.0039 -0.0039
vt -0.0078 -0.0166
vt -0.0527 -0.0186
vt -0.0215 -0.0225
vt -0.0107 -0.0410
vt -0.0215 -0.0225
vt -0.0527 -0.0186
vt -0.0703 0.0537
vt -0.0488 0.0000
vt -0.0791 0.0049
vt 0.0449 0.0488
vt 0.0498 0.0000
vt 0.1035 0.0000
vt 0.0674 0.0000
vt -0.1025 0.0000
vt -0.0674 0.0000
vt 0.1084 0.0010
vt 0.0713 0.0010
vt -0.1094 0.0010
vt -0.0713 0.0010
vt 0.1084 0.0010
vt 0.0713 0.0010
vt -0.0713 0.0010
vt -0.1094 0.0010
vt 0.0000 -0.0010
vt 0.0000 0.0176
vt 0.0713 0.0498
vt 0.0801 0.0049
vt 0.0498 0.0000
vt 0.0449 0.0488
vt -0.0449 0.0488
vt -0.0410 0.0645
vt 0.0410 0.0645
vt 0.0371 0.0312
vt 0.0332 0.0479
vt -0.0098 0.0244
vt 0.0127 0.0449
vt 0.0049 0.0479
vt 0.0332 0.0010
vt -0.0312 0.0020
vt -0.0342 0.0322
vt -0.0449 0.0254
vt -0.0293 0.0488
vt -0.0010 0.0469
vt 0.0117 0.0234
vt 0.0000 1.8906
vt 0.0000 3.8691
vt -6.5000 0.0000
vt -6.2500 0.0000
vt -6.5000 0.0000
vt -4.0000 0.0000
vt -4.0000 0.0000
vt -6.5000 0.0000
vt -6.2500 0.0000
vt -3.5000 8.0020
f 27/27 17/17 18/18
f 27/27 18/18 28/28
f 19/19 5/5 20/20
f 6/6 5/5 7/7
f 21/21 11/11 19/19
f 1/1 5/5 4/4
