mtllib assets01_model_021.mtl
# Conker's Bad Fur Day — Real 3D Model (HUD & UI Props)
o assets01_model_021
usemtl assets01_model_021_mat

v 0.0000 22.0400 0.0000
v 0.0000 33.1200 0.0000
v 4.0800 -7.9400 -0.0100
v 2.6100 -8.2200 -0.0100
v 5.9100 -9.1500 -0.0100
v 6.7900 0.0600 -0.0100
v 5.3200 -0.2200 -0.0100
v 3.4900 0.9900 -0.0100
v 5.3200 -0.2200 -0.0100
v 2.3700 -0.7700 -0.0100
v 0.9000 -1.0500 -0.0100
v 6.7800 -3.6800 -0.0100
v 8.8700 -3.2900 -0.0100
v 2.6200 -4.4700 -0.0100
v 0.5300 -4.8600 -0.0100
v 7.0300 -7.3800 -0.0100
v 8.5000 -7.1100 -0.0100
v 2.3700 -0.7700 -0.0100
v 7.0300 -7.3800 -0.0100
v 4.0800 -7.9400 -0.0100
v 5.9100 -9.1500 -0.0100
v 8.5000 -7.1100 -0.0100
v 5.3200 -0.2200 -0.0100
v 2.3700 -0.7700 -0.0100
v 3.4900 0.9900 -0.0100
v 0.9000 -1.0500 -0.0100
v 2.6100 -8.2200 -0.0100
v 2.6200 -4.4700 -0.0100
v 0.5300 -4.8600 -0.0100
v 6.7800 -3.6800 -0.0100
v 8.8700 -3.2900 -0.0100
v 2.3700 -0.7700 -0.0100
v 5.3200 -0.2200 -0.0100
v 6.7900 0.0600 -0.0100
v 0.0000 10.2400 -0.0100
v 20.4800 10.2400 -0.0100
v 20.2900 10.2400 -0.0100
v 0.0000 10.2600 -0.0100
v 20.4800 10.2400 -0.0100
v 0.0000 10.2100 -0.0100
v 0.0000 10.2100 -0.0100
v 20.4800 10.2400 -0.0100
v 0.0000 10.2400 -0.0100
v 20.4800 10.2400 -0.0100
v 0.0000 10.2600 -0.0100
v 20.2900 10.2400 -0.0100
v 20.4800 0.0000 -0.0100
v 0.0000 0.0000 -0.0100
v 0.0000 0.0200 -0.0100
v 20.2900 0.0000 -0.0100
v 20.4800 0.0000 -0.0100
v 0.0000 0.0000 -0.0100
v 20.4800 0.0300 -0.0100
v 20.4800 0.0300 -0.0100
v 0.0000 0.0000 -0.0100
v 20.4800 0.0000 -0.0100
v 0.0000 0.0000 -0.0100
v 20.2900 0.0000 -0.0100
v 0.0000 0.0200 -0.0100
v 20.4800 0.0000 -0.0100
v 0.0000 10.2400 -0.0100
v 20.4800 10.2400 -0.0100
v 20.4800 0.0000 -0.0100
v 0.0000 0.0000 -0.0100
v 0.0000 14.2100 -0.0100
v 14.0800 14.0800 -0.0100
v 14.0800 0.0000 -0.0100
v 20.2900 10.2400 -0.0100
v 0.0000 10.2600 -0.0100
v 20.4800 10.2400 -0.0100
v 0.0000 10.2400 -0.0100
v 20.4800 10.2400 -0.0100
v 0.0100 10.2100 -0.0100
v 0.0100 10.2100 -0.0100
v 20.4800 10.2400 -0.0100
v 0.0000 10.2400 -0.0100
v 20.4800 10.2400 -0.0100
v 0.0000 10.2600 -0.0100
v 20.2900 10.2400 -0.0100
v -0.0100 0.0200 -0.0100
v 20.2900 0.0000 -0.0100
v 0.0000 0.0000 -0.0100
v 20.4800 0.0000 -0.0100
v 0.0000 0.0000 -0.0100
v 20.4700 0.0300 -0.0100
v 20.4700 0.0300 -0.0100
v 0.0000 0.0000 -0.0100
v 20.4800 0.0000 -0.0100
v 0.0000 0.0000 -0.0100
v 20.2900 0.0000 -0.0100
v -0.0100 0.0200 -0.0100
v 20.4800 0.0000 -0.0100
v 14.0800 14.0800 -0.0100
v 14.0800 0.0000 -0.0100
v 0.0000 0.0000 -0.0100
v -0.1300 14.0800 -0.0100
v 0.0000 14.2100 -0.0100
v 14.0800 0.0000 -0.0100
v 0.0000 0.0000 -0.0100
v 0.0000 0.0000 -0.0100
v 14.0800 0.0000 -0.0100
v 14.0800 14.0800 -0.0100
v 0.0000 14.2100 -0.0100
v 0.0000 10.2400 -0.0100
v 20.4800 10.2400 -0.0100
v 20.3000 10.2400 -0.0100
v 0.0100 10.2600 -0.0100
v 20.4800 10.2400 -0.0100
v 0.0100 10.2100 -0.0100
v 0.0100 10.2100 -0.0100
v 20.4800 10.2400 -0.0100
v 0.0000 10.2400 -0.0100
v 20.4800 10.2400 -0.0100
v 20.4800 0.0000 -0.0100
v 0.0000 0.0000 -0.0100
v 0.0000 0.0200 -0.0100
v 20.3000 0.0000 -0.0100
v 20.4800 0.0000 -0.0100
v 0.0000 0.0000 -0.0100
v 20.4700 0.0300 -0.0100
v 20.4700 0.0300 -0.0100
v 0.0000 0.0000 -0.0100
v 20.4800 0.0000 -0.0100
v 0.0000 0.0000 -0.0100
v -0.1300 14.0800 -0.0100
v 0.0000 0.0000 -0.0100
v 14.0800 0.0000 -0.0100
v 14.0800 14.0800 -0.0100
v 0.0100 10.2600 -0.0100
v 20.3000 10.2400 -0.0100
v 20.4800 10.2400 -0.0100
v 0.0000 10.2400 -0.0100
v 20.3000 0.0000 -0.0100
v 0.0000 0.0200 -0.0100
v 0.0000 0.0000 -0.0100
v 20.4800 0.0000 -0.0100
v 0.0000 16.4700 0.6400
v 0.6400 0.3200 0.0000
v 0.0000 16.4600 0.0000
v 0.0000 16.3600 0.3200
v -28.0800 20.4800 10.2500
v -28.0000 0.0000 17.9200
v -33.2800 0.0000 18.2300
v -28.1600 2.5600 15.3600
v -7.5200 0.0000 0.6400
v -7.5200 0.0000 0.0000
v -33.2800 0.0000 18.5500
v -7.5200 0.0000 0.6400
v -7.5200 0.0000 0.0000
v -33.2800 0.0000 18.5700
v -28.0800 30.7200 0.0900
v -7.5200 0.0000 0.0000
v -33.2800 0.0000 18.5500
vt 0.0000 2.2305
vt 0.0000 0.0000
vt -0.0283 0.0117
vt -0.0117 0.0078
vt -0.0088 0.0547
vt -0.0156 0.0527
vt -0.0254 0.0586
vt -0.0156 0.0527
vt -0.0303 0.0498
vt -0.0371 0.0479
vt -0.0078 0.0352
vt 0.0029 0.0381
vt -0.0283 0.0312
vt -0.0391 0.0283
vt -0.0059 0.0166
vt 0.0010 0.0186
vt -0.0303 0.0498
vt 0.0205 0.0127
vt 0.0068 0.0176
vt 0.0117 0.0078
vt 0.0273 0.0107
vt 0.0303 0.0488
vt 0.0156 0.0537
vt 0.0254 0.0586
vt 0.0088 0.0557
vt -0.0010 0.0195
vt 0.0078 0.0361
vt -0.0020 0.0391
vt 0.0283 0.0303
vt 0.0381 0.0264
vt 0.0156 0.0537
vt 0.0303 0.0488
vt 0.0371 0.0469
vt -0.0977 0.0342
vt -0.0977 0.0352
vt 0.0977 0.0342
vt 0.0977 0.0342
vt 0.0977 0.0342
vt 0.0977 0.0342
vt 0.0977 0.0342
vt -0.0977 0.0352
vt -0.0977 0.0342
vt 0.0977 0.0342
vt 0.0977 0.0342
vt 0.0977 0.0342
vt -0.0977 0.0303
vt -0.0977 0.0303
vt 0.0977 0.0303
vt 0.0977 0.0303
vt 0.0977 0.0303
vt 0.0977 0.0303
vt -0.0977 0.0303
vt -0.0977 0.0303
vt 0.0977 0.0303
vt 0.0977 0.0303
vt -0.0977 0.0303
vt 0.0977 0.0303
vt 0.0977 0.0303
vt -0.0977 0.0303
vt -0.0977 0.0303
vt -0.0977 0.0303
vt -0.0977 0.0010
vt -0.0977 0.0010
vt -0.0977 0.0518
vt 0.0977 0.0518
vt 0.0977 0.0518
vt 0.0977 0.0303
vt 0.0977 0.0303
vt 0.0977 0.0303
vt -0.0977 0.0303
vt -0.0977 0.0303
vt 0.0977 0.0303
vt 0.0977 0.0303
vt -0.0977 0.0303
vt -0.0977 0.0303
vt 0.0977 0.0303
vt 0.0977 0.0303
vt 0.0977 0.0303
vt 0.0977 0.0010
vt 0.0977 0.0010
vt -0.0977 0.0010
vt 0.0977 0.0010
vt 0.0977 0.0010
vt -0.0977 0.0010
vt -0.0977 0.0010
vt 0.0977 0.0010
vt 0.0977 0.0010
vt -0.0977 0.0010
vt 0.0977 0.0010
vt 0.0977 0.0010
vt -0.0977 0.0010
vt -0.0977 0.0010
vt 0.0977 0.0010
vt 0.0977 0.0010
vt -0.0977 0.0010
vt -0.0977 0.0518
vt 0.0977 0.0518
vt -0.0977 0.0518
vt -0.0977 0.0518
vt 0.0977 0.0518
vt 0.0977 0.0518
vt -0.0977 0.0518
vt -0.0977 0.0518
vt -0.0977 0.0518
vt 0.0977 0.0518
vt 0.0977 0.0518
vt 0.0977 0.0518
vt 0.0977 0.0518
vt 0.0977 0.0518
vt -0.0977 0.0518
vt -0.0977 0.0518
vt 0.0977 0.0518
vt -0.0977 0.0352
vt -0.0977 0.0342
vt 0.0977 0.0342
vt 0.0977 0.0342
vt 0.0977 0.0342
vt 0.0977 0.0342
vt -0.0977 0.0352
vt -0.0977 0.0352
vt 0.0977 0.0342
vt 0.0977 0.0342
vt -0.0977 0.0342
vt -0.0977 0.0010
vt 0.0977 0.0010
vt 0.0977 0.0010
vt -0.0977 0.0010
vt 0.0977 0.0518
vt 0.0977 0.0518
vt -0.0977 0.0518
vt -0.0977 0.0518
vt 0.0977 0.0342
vt 0.0977 0.0342
vt -0.0977 0.0342
vt -0.0977 0.0352
vt 0.0000 2.2891
vt 0.0000 1.6094
vt 0.0000 1.6064
vt 0.0625 0.0312
vt -6.2500 0.0000
vt -0.7344 0.0000
vt -6.5000 0.0000
vt -6.2500 0.0000
vt -6.5000 0.0000
vt -4.0000 0.0000
vt -6.5000 0.0000
vt -6.2500 0.0000
vt -4.0000 0.0000
vt -6.5000 0.0000
vt -6.2500 0.0000
vt -3.5000 8.0020
vt -6.5000 0.0000
vt -6.2500 0.0000
f 65/65 3/3 65/65
f 65/65 1/1 1/1
f 65/65 3/3 65/65
f 65/65 1/1 1/1
f 65/65 1/1 1/1
f 65/65 1/1 1/1
f 65/65 3/3 65/65
f 65/65 1/1 1/1
f 65/65 3/3 65/65
f 14/14 1/1 3/3
f 18/18 25/25 19/19
f 27/27 28/28 29/29
f 27/27 29/29 30/30
f 25/25 28/28 11/11
f 25/25 11/11 12/12
f 29/29 30/30 31/31
f 29/29 31/31 32/32
f 1/1 2/2 3/3
f 29/29 31/31 32/32
