mtllib assets09_model_079.mtl
# Conker's Bad Fur Day — Real 3D Model (Multiplayer Level Models)
o assets09_model_079
usemtl assets09_model_079_mat

v 0.0000 14.4800 0.0000
v 4.9200 4.9300 -0.0100
v 7.8800 5.2200 -0.0100
v 1.8500 5.1700 -0.0100
v 4.9000 -0.1100 -0.0100
v 7.0000 7.8800 -0.0100
v 4.9600 15.6800 -0.0100
v 4.9700 20.0200 -0.0100
v 4.1800 15.2100 -0.0100
v 4.9700 20.0200 -0.0100
v 3.8600 15.5000 -0.0100
v 4.1800 15.2100 -0.0100
v 8.7200 4.5100 -0.0100
v 2.8600 7.8500 -0.0100
v 1.0400 4.4600 -0.0100
v 3.8600 15.5000 -0.0100
v 20.1600 2.7200 -2.5800
v 20.1700 4.7000 -2.5800
v 17.9800 3.9100 -2.5800
v 17.9700 2.6600 -2.5800
v 20.1500 0.7500 -2.5800
v 17.9700 2.6600 -2.5800
v 20.1600 2.7200 -2.5800
v 20.1500 0.7500 -2.5800
v 4.7500 2.8800 -2.5800
v 4.7400 2.2700 -2.5800
v 4.7400 1.6600 -2.5800
v 4.7400 2.2700 -2.5800
v 4.7400 1.6600 -2.5800
v 8.1600 2.9100 -2.5800
v 8.6700 2.9200 -2.5800
v 9.2800 3.9000 -2.5800
v 8.1600 3.8800 -2.5800
v 7.6500 2.9000 -2.5800
v 8.1600 3.8800 -2.5800
v 8.1600 2.9100 -2.5800
v 7.6500 2.9000 -2.5800
v 9.2400 8.1600 -2.5800
v 8.1200 8.1400 -2.5800
v 8.1200 8.1400 -2.5800
v 9.2400 8.1600 -2.5800
v 8.1100 8.8600 -2.5800
v 5.5600 7.8100 -2.5800
v 3.5800 8.2900 -2.5800
v 0.9400 9.8700 -2.5800
v 1.0200 0.5500 -2.5800
v -28.0000 0.0000 17.9200
v -33.2800 0.0000 18.2300
v -28.1600 2.5600 15.3600
v -7.5200 0.0000 1.2800
v -7.5200 0.0000 0.6400
v 12.8800 35.8400 0.0000
v -7.5200 0.0000 0.0000
v -33.2800 0.0000 18.2300
v -28.0800 20.4800 0.0100
v 15.5000 25.7200 0.0800
vt 0.0000 0.0000
vt 0.0586 0.1025
vt 0.0000 0.1191
vt -0.0420 0.0293
vt 0.0410 0.1406
vt 0.0059 0.2178
vt 0.0195 0.1387
vt 0.0361 0.2100
vt 0.0488 0.2373
vt 0.0283 0.2002
vt -0.0137 0.2158
vt 0.0752 0.0830
vt -0.0195 0.1387
vt 0.0488 0.1104
vt -0.0225 0.2246
vt 0.0000 0.1191
vt 0.0498 0.0264
vt 0.0234 0.0439
vt 0.0098 0.0332
vt 0.0078 -0.0068
vt -0.0039 0.0225
vt 0.0498 0.0264
vt 0.0078 -0.0068
vt -0.0039 0.0225
vt -0.1045 0.1758
vt -0.1104 0.1709
vt -0.0977 0.1816
vt -0.1104 0.1709
vt -0.1045 0.1758
vt -0.0977 0.1816
vt -0.1006 0.2012
vt -0.1152 0.1895
vt -0.1104 0.1709
vt -0.1289 0.1777
vt -0.0977 0.1816
vt -0.1104 0.1709
vt -0.1289 0.1777
vt -0.1621 0.2490
vt -0.1768 0.2373
vt -0.1475 0.2607
vt -0.1699 0.2588
vt -0.1895 0.2139
vt -0.1289 0.1777
vt -0.1523 0.1680
vt -0.1729 0.0713
vt 0.0000 1.4219
vt -6.5000 0.0000
vt -6.2500 0.0000
vt -6.5000 0.0000
vt -4.0000 0.0000
vt -4.0000 0.0000
vt -6.2500 0.0000
vt -6.5000 0.0000
vt -6.2500 0.0000
vt -3.5000 8.0020
vt -8.2500 0.0000
f 5/5 8/8 1/1
f 27/27 30/30 31/31
f 29/29 28/28 31/31
f 28/28 27/27 31/31
f 8/8 6/6 7/7
f 5/5 2/2 1/1
