# Conker's Bad Fur Day — Real 3D Model (Bat's Tower Level Models)
o assets0A_model_002

v 0.0000 1.1200 0.0000
v 0.0000 3.4400 0.0000
v 0.0000 5.4400 0.0000
v 0.0000 6.8000 0.0000
v 0.0000 9.6800 0.0000
v 0.0000 14.4000 0.0000
v 0.0000 30.5600 0.0000
v 0.0900 0.5300 0.1200
v 21.2000 0.0500 -5.7100
v 7.6800 0.0000 0.0000
v -14.6600 -1.2200 0.0000
v -7.9400 0.0000 0.0000
v 0.0900 0.2300 0.1000
v 0.0500 0.0500 0.0400
v 0.0000 -6.6700 0.0000
v 7.6800 0.0000 0.0000
v 0.0600 -31.6000 -17.2000
v 0.0000 0.0000 -28.0700
v 0.0000 0.0000 -23.6000
v 0.0900 0.9100 0.1700
v -26.1700 0.0400 -0.9300
v -11.1100 16.3900 -33.8500
v 0.0900 0.2400 0.1200
v -14.0100 0.0000 0.0000
v 32.0800 -1.5300 -6.6500
v -16.9000 -33.5200 7.4200
vt 0.0000 0.1719
vt 0.0000 0.3984
vt 0.0000 0.5938
vt 0.0000 0.7266
vt 0.0000 1.0078
vt 0.0000 1.4688
vt 0.0000 3.0469
vt 0.7500 0.0000
vt 2.0938 -0.1221
vt 0.0000 0.0000
vt -0.0244 -1.2129
vt 0.2500 0.0898
vt 0.7500 0.0000
vt 0.0049 -3.1182
vt -1.7441 0.0000
vt -2.0234 0.0000
vt -1.6787 0.0000
vt -0.2764 -9.3662
vt 0.0000 -8.7412
vt 0.0000 0.0000
vt 0.0000 -5.8672
vt -0.5869 -1.6504
vt 0.0000 0.0000
vt 0.0000 -3.6250
vt 0.0000 0.0000
vt -4.6787 0.0000
f 1/1 2/2 3/3
f 4/4 5/5 6/6
f 7/7 8/8 9/9
f 10/10 11/11 12/12
f 13/13 14/14 15/15
f 16/16 17/17 18/18
f 19/19 20/20 21/21
f 22/22 23/23 24/24
