mtllib assets0E_model_011.mtl
# Conker's Bad Fur Day — Real 3D Model (Sloprano Models)
o assets0E_model_011
usemtl assets0E_model_011_mat

v 0.3200 2.5800 38.4000
v 20.4900 0.0000 0.0000
v 20.4800 0.0000 0.0000
v 20.4800 0.0000 0.0000
v 20.4800 0.0000 0.0000
v 20.4800 0.0000 0.0000
v 20.4800 0.0000 0.0000
v 20.4800 0.0000 0.0000
v 20.4800 0.0000 0.0000
v 20.4800 0.0000 0.0000
v 20.4800 0.0000 0.0000
v 20.4800 0.0000 0.0000
v 20.4800 0.0000 0.0000
v 20.4800 0.0000 0.0000
v 20.4800 0.0000 0.0000
vt -1.5146 -1.1680
vt 0.0000 0.0654
vt 0.0000 0.0654
vt 0.0000 0.0654
vt 0.0000 -31.9346
vt 0.0000 -31.9346
vt 0.0000 -31.9346
vt 0.0000 -15.9346
vt 0.0000 -31.4043
vt 0.0000 -31.4043
vt 0.0000 -31.4043
vt 0.0312 0.0654
vt 0.0312 0.0654
vt 0.0312 0.0654
vt 0.0312 0.0654
f 1/1 1/1 5/5
