# Conker's Bad Fur Day — Real 3D Model (Bat's Tower Level Models)
o assets0A_model_005

v 0.0000 1.1200 0.0000
v 0.0000 3.1200 0.0000
v 0.0000 6.9600 0.0000
v 0.0000 8.3200 0.0000
v 0.0000 8.8800 0.0000
v 0.0000 10.4800 0.0000
v 0.0000 13.4400 0.0000
v 0.0800 0.5700 0.0900
v 0.1600 7.7800 0.1600
v 0.0000 -2.1600 0.0000
v 7.6800 0.0000 0.0000
v 0.0000 -5.0700 0.0000
v 0.0000 0.0000 -9.5200
v 7.6800 0.0000 0.0000
v 0.1600 15.4500 0.0000
v 0.0700 0.0000 0.0000
v 0.0800 0.6200 0.0000
v -0.6600 0.5300 0.0400
v -0.6600 0.5300 0.0400
v 28.5800 0.0000 0.0000
v 6.6400 0.0000 -1.7100
v 6.6400 0.0000 -1.7100
v 0.0800 0.5600 0.0700
v 0.0000 0.0000 0.0900
v 0.0000 -13.3900 -8.9000
vt 0.0000 0.1719
vt 0.0000 0.3594
vt 0.0000 0.7422
vt 0.0000 0.8672
vt 0.0000 0.9219
vt 0.0000 1.0781
vt 0.0000 1.3672
vt 0.7500 0.0000
vt 0.0156 0.7598
vt -0.1494 0.0000
vt 0.0000 0.0000
vt -0.8389 0.0000
vt 0.0000 -0.7109
vt 0.0156 1.5088
vt 0.0000 0.0000
vt -5.8867 14.5000
vt 0.7500 3.3750
vt 0.0078 -0.0645
vt 0.0000 -0.0645
vt 0.0000 0.0000
vt -23.9980 -26.0000
vt 8.0020 -26.0000
vt 0.7500 0.0000
vt 0.0000 0.0000
vt 0.0000 0.0000
f 1/1 2/2 3/3
f 4/4 5/5 6/6
f 7/7 8/8 9/9
f 10/10 11/11 12/12
f 13/13 14/14 15/15
f 16/16 17/17 18/18
f 19/19 20/20 21/21
f 22/22 23/23 24/24
