mtllib assets09_model_185.mtl
# Conker's Bad Fur Day — Real 3D Model (Multiplayer Level Models)
o assets09_model_185
usemtl assets09_model_185_mat

v 0.0000 37.3600 0.0000
v 0.0000 0.0000 -0.0100
v 0.0000 0.0000 -0.0100
v 0.0000 0.0000 -0.0100
v 0.0000 0.0000 -0.0100
v 0.0000 0.0000 -0.0100
v 0.0000 0.0000 -0.0100
v 0.0000 0.0000 -0.0100
v 0.0000 0.0000 -0.0100
v 0.0000 0.0000 -0.0100
v 6.9900 6.6900 -0.0100
v 5.0400 3.9300 -38.5600
v 5.0300 6.8700 -0.0100
v 3.0600 6.6600 -0.0100
v -3.6500 6.4800 -0.0100
v 3.3700 0.9700 -0.0100
v 3.3700 0.9700 -0.0100
v -3.6500 6.4800 -0.0100
v 12.5600 7.7400 -0.0100
v 8.6900 -3.0700 -1.2900
v -1.4600 7.0500 -2.1400
v 5.6000 8.2000 -1.2900
v 3.0200 21.7000 -1.2900
v 11.7800 11.8300 -0.0100
v 3.0200 21.7000 -1.2900
v 1.2800 -1.8500 -2.1400
v 6.9800 4.0600 -1.2900
v 12.5600 7.7400 -0.0100
v 5.6000 8.2000 -1.2900
v 15.0200 6.5900 -1.2900
v 14.8300 12.7900 -1.2900
v 18.1200 22.7500 -1.2900
v 18.3000 14.4800 -1.2900
v 3.7700 16.9700 -1.7900
v 12.1900 -21.4100 -1.2900
v 8.8600 0.8100 -2.1400
v 8.6900 3.8400 -2.1400
v 15.0200 6.5900 -1.2900
v 12.1900 -21.4100 -1.2900
v 18.3000 14.4800 -1.2900
v 10.4700 -12.3500 -2.1400
v 3.7700 16.9700 -1.7900
v 12.1900 -21.4100 -1.2900
v 9.2900 9.6100 -2.1400
v 14.8300 12.7900 -1.2900
v 8.3100 16.7100 -2.1400
v 18.1200 22.7500 -1.2900
v 10.4700 -12.3500 -2.1400
v 12.1900 -21.4100 -1.2900
v 14.8300 12.7900 -1.2900
v 8.3100 16.7100 -2.1400
v 3.7700 16.9700 -1.7900
v 7.3900 5.8200 -0.0100
v 1.0600 3.0100 -0.0100
v 3.2700 11.2200 -0.0100
v 5.8100 11.0400 -0.0100
v 6.3800 2.2400 -0.0100
v 4.3600 10.8800 -0.0100
v 2.9600 6.1300 -0.0100
v 6.6900 10.8800 -0.0100
v 8.8100 3.1000 -0.0100
v 3.9200 2.7300 -0.0100
v 2.7700 16.6400 -0.0100
v 0.5300 7.6900 -0.0100
v 7.3000 15.7200 -0.0100
v 9.3600 0.4500 -0.0100
v 0.9100 1.2000 -0.0100
v 7.4200 16.0500 -0.0100
v 0.4800 7.9000 -0.0100
v 2.7600 17.0700 -0.0100
v 9.6000 0.2900 -0.0100
v 0.9100 1.2000 -0.0100
v 12.8000 15.3800 0.0000
v -7.5200 0.0000 0.0000
v -28.0800 20.4800 0.0100
v -28.0800 11.5200 2.5700
v -28.0800 6.7200 5.1200
v -28.0800 6.8000 7.6800
v -7.5200 0.0000 1.2800
v -7.5200 0.0000 1.2800
v -28.1600 11.5200 2.6100
v -28.1600 6.8000 7.7200
v -7.5200 0.0000 0.0000
v -33.2800 0.0000 18.3400
v -7.5200 0.0000 28.1600
v -7.5200 0.0000 25.6000
v -33.2800 0.0000 18.2300
v -7.5200 0.0000 15.3600
v -33.2800 0.0000 18.5500
v -28.0800 20.4800 0.0900
v -7.5200 0.0000 17.9200
vt 0.0000 0.0000
vt 0.0176 -0.0127
vt 0.0225 -0.0029
vt 0.0000 -0.0205
vt -0.0088 -0.0156
vt -0.0225 -0.0029
vt -0.0176 -0.0127
vt 0.0000 -0.0273
vt 0.0117 -0.0098
vt 0.0078 -0.0049
vt 0.0000 -0.0127
vt 0.0000 -0.0068
vt 0.0000 -0.0039
vt 0.0000 -0.0205
vt 0.0361 0.0010
vt 0.0342 -0.0146
vt -0.0293 -0.0068
vt -0.0215 -0.0137
vt -0.0234 0.0410
vt -0.0195 0.0371
vt -0.0176 0.0420
vt -0.0205 0.0283
vt 0.0312 0.0371
vt 0.0234 0.0410
vt 0.0146 0.0283
vt 0.0176 0.0420
vt 0.0205 0.0371
vt -0.0205 0.0381
vt -0.0234 0.0410
vt 0.0049 0.0273
vt 0.0000 0.0352
vt -0.0049 0.0273
vt -0.0088 0.0166
vt -0.0205 0.0283
vt -0.0205 0.0186
vt -0.0098 0.0361
vt -0.0049 0.0273
vt 0.0000 0.0352
vt -0.0225 0.0078
vt -0.0273 0.0049
vt -0.0205 0.0283
vt 0.0205 0.0186
vt 0.0205 0.0283
vt 0.0205 0.0186
vt 0.0098 0.0361
vt 0.0225 0.0078
vt 0.0156 0.0176
vt 0.0264 0.0156
vt 0.0254 0.0176
vt 0.0205 0.0186
vt 0.0225 -0.0029
vt 0.0068 -0.0049
vt -0.0225 0.0078
vt -0.0156 0.0176
vt -0.0088 0.0166
vt -0.0078 -0.0049
vt 0.0088 0.0166
vt 0.0049 0.0039
vt 0.0156 0.0176
vt 0.0225 0.0078
vt 0.0078 -0.0049
vt 0.0088 0.0166
vt 0.0049 0.0039
vt 0.0156 0.0176
vt 0.0225 0.0078
vt 0.0078 -0.0049
vt -0.0156 0.0176
vt -0.0049 0.0039
vt -0.0088 0.0166
vt -0.0225 0.0078
vt -0.0078 -0.0049
vt 0.0000 3.6562
vt -6.2500 0.0000
vt -2.7344 0.0000
vt -3.5000 8.0020
vt -3.5000 8.0020
vt -3.5000 8.0020
vt -3.5000 8.0020
vt -4.0000 0.0000
vt -4.0000 0.0000
vt -2.7500 0.6562
vt 7.2217 25.8691
vt -6.5000 0.0000
vt -6.2500 0.0000
vt -4.0000 0.0000
vt -6.5000 0.0000
vt -6.2500 0.0000
vt -6.5000 0.0000
vt -6.2500 0.0000
vt -3.5000 8.0020
vt -4.0000 0.0000
f 88/88 1/1 82/82
f 20/20 3/3 8/8
f 4/4 6/6 8/8
f 54/54 1/1 73/73
f 20/20 3/3 8/8
f 23/23 7/7 76/76
f 4/4 6/6 8/8
f 24/24 23/23 27/27
f 25/25 26/26 29/29
f 31/31 3/3 30/30
f 1/1 2/2 3/3
f 2/2 4/4 5/5
f 1/1 4/4 2/2
f 13/13 16/16 19/19
f 16/16 15/15 19/19
f 20/20 21/21 22/22
f 22/22 23/23 20/20
f 28/28 30/30 29/29
f 31/31 26/26 27/27
f 24/24 26/26 31/31
f 17/17 18/18 13/13
f 30/30 31/31 32/32
f 26/26 27/27 25/25
f 28/28 29/29 30/30
f 25/25 26/26 27/27
f 6/6 28/28 29/29
f 22/22 30/30 23/23
f 17/17 18/18 19/19
f 20/20 21/21 22/22
