mtllib assets09_model_129.mtl
# Conker's Bad Fur Day — Real 3D Model (Multiplayer Level Models)
o assets09_model_129
usemtl assets09_model_129_mat

v 0.0000 7.9200 0.0000
v 0.0000 0.0000 -0.0100
v 0.0000 0.0000 -0.0100
v 0.0000 0.0000 -0.0100
v 0.0000 0.0000 -0.0100
v 0.0000 0.0000 -0.0100
v 0.0000 0.0000 -0.0100
v 0.0000 0.0000 -0.0100
v 0.0000 0.0000 -0.0100
v 0.0000 0.0000 -0.0100
v 0.0000 0.0000 -0.0100
v 0.0000 0.0000 -0.0100
v 0.0000 0.0000 -0.0100
v 0.0000 0.0000 -0.0100
v 0.0000 0.0000 -0.0100
v 0.0000 0.0000 -0.0100
v 0.0000 0.0000 -0.0100
v 0.0000 0.0000 -0.0100
v 0.0000 0.0000 -0.0100
v 0.0000 0.0000 -0.0100
v 0.0000 0.0000 -0.0100
v 0.0000 0.0000 -0.0100
v 0.0000 0.0000 -0.0100
v 0.0000 0.0000 -0.0100
v 0.0000 0.0000 -0.0100
v 0.0000 0.0000 -0.0100
v 0.0000 0.0000 -0.0100
v 0.0000 0.0000 -0.0100
v 0.0000 0.0000 -0.0100
v 0.0000 0.0000 -0.0100
v 0.0000 0.0000 -0.0100
v 0.0000 0.0000 -0.0100
v 0.0000 0.0000 -0.0100
v 0.0000 0.0000 -0.0100
v 0.0000 0.0000 -0.0100
v 0.0000 0.0000 -0.0100
v 0.0000 0.0000 -0.0100
v 0.0000 0.0000 -0.0100
v 0.0000 0.0000 -0.0100
v 0.0000 0.0000 -0.0100
v 0.0000 0.0000 -0.0100
v 0.0000 0.0000 -0.0100
v 0.0000 0.0000 -0.0100
v 0.0000 0.0000 -0.0100
v 0.0000 0.0000 -0.0100
v 0.0000 0.0000 -0.0100
v 0.0000 0.0000 -0.0100
v 0.0000 0.0000 -0.0100
v 0.0000 0.0000 -0.0100
v -28.0000 0.0000 17.9200
v -33.2800 0.0000 18.3400
v -28.1600 2.5600 15.3600
v -7.5200 0.0000 0.6400
v -28.0800 11.5200 2.5700
v -28.0800 6.7200 5.1200
v -28.0800 6.8000 7.6800
v -7.4400 0.0000 0.0000
vt 0.0000 0.0000
vt 0.0176 -0.0107
vt 0.0166 -0.0117
vt 0.0088 -0.0098
vt 0.0010 -0.0156
vt 0.0020 -0.0156
vt 0.0195 -0.0205
vt 0.0049 -0.0244
vt 0.0127 -0.0264
vt 0.0039 -0.0254
vt 0.0205 -0.0205
vt 0.0137 -0.0273
vt 0.0029 -0.0264
vt 0.0020 -0.0156
vt 0.0000 -0.0146
vt 0.0039 -0.0244
vt 0.0176 -0.0107
vt 0.0186 -0.0098
vt 0.0078 -0.0068
vt 0.0078 -0.0088
vt 0.0195 -0.0205
vt 0.0137 -0.0273
vt 0.0215 -0.0205
vt 0.0137 -0.0283
vt -0.0029 -0.0146
vt -0.0010 -0.0146
vt 0.0010 -0.0273
vt 0.0020 -0.0264
vt 0.0068 -0.0049
vt 0.0205 -0.0088
vt 0.0195 -0.0088
vt 0.0078 -0.0059
vt 0.0225 -0.0215
vt 0.0137 -0.0303
vt 0.0244 -0.0215
vt 0.0146 -0.0312
vt 0.0010 -0.0273
vt 0.0000 -0.0146
vt -0.0029 -0.0146
vt 0.0029 -0.0264
vt 0.0186 -0.0098
vt 0.0205 -0.0088
vt 0.0068 -0.0049
vt 0.0078 -0.0068
vt 0.0215 -0.0205
vt 0.0244 -0.0215
vt 0.0137 -0.0283
vt 0.0146 -0.0312
vt 0.0000 0.7812
vt -6.5000 0.0000
vt -6.2500 0.0000
vt -6.5000 0.0000
vt -4.0000 0.0000
vt -3.5000 8.0020
vt -3.5000 8.0020
vt -3.5000 8.0020
vt -2.7266 0.0000
f 1/1 2/2 3/3
f 4/4 5/5 6/6
f 7/7 8/8 9/9
f 10/10 11/11 12/12
f 13/13 14/14 15/15
f 16/16 17/17 18/18
f 19/19 20/20 21/21
f 22/22 23/23 24/24
f 25/25 26/26 27/27
f 28/28 29/29 30/30
f 31/31 32/32 33/33
f 34/34 35/35 36/36
f 37/37 38/38 39/39
f 40/40 41/41 42/42
f 43/43 44/44 45/45
f 46/46 47/47 48/48
f 49/49 50/50 51/51
f 52/52 53/53 54/54
f 55/55 56/56 57/57
