mtllib assets0F_model_000.mtl
# Conker's Bad Fur Day — Real 3D Model (Uga Buga Models)
o assets0F_model_000
usemtl assets0F_model_000_mat

v 0.5000 0.0000 0.0000
v 0.0200 0.0000 0.0000
v 0.4800 0.0100 0.0000
v 0.0600 0.0200 0.0000
v 0.5200 0.0100 0.0000
v 0.8200 0.0000 0.0000
v 1.7600 0.0000 0.0000
v 1.8400 0.0100 0.0000
v 0.0200 0.0000 0.0000
v 0.8600 0.0000 0.0000
v 0.1800 0.0000 0.0000
v 0.8400 0.0000 0.0000
v 1.0000 0.0000 0.0000
v 1.0200 0.0000 0.0000
v 1.0600 0.0000 0.0000
v 1.0800 0.0000 0.0000
v 2.3000 0.0000 0.0000
v 0.5800 0.0000 0.0000
v 1.9400 0.0100 0.0000
v 0.5600 0.3500 0.0000
v 2.0000 0.0000 0.0000
v 4.1800 0.0000 0.0000
v 1.3400 0.4000 0.0000
v 0.6800 0.3300 0.0000
v 0.4600 0.0200 0.0000
v 1.5000 0.0100 0.0000
v 0.1000 0.0100 0.0000
v 0.0800 0.0000 0.0000
v 2.4800 0.0000 0.0000
v 0.2600 0.0000 0.0000
v 0.9400 0.0000 0.0000
v 1.1600 0.2000 0.0000
v 1.1400 0.2200 0.0000
v 1.4600 0.0100 0.0000
v 1.5600 0.0100 0.0000
v 1.5800 0.0000 0.0000
v 0.4600 0.0300 0.0000
v 1.4400 0.0000 0.0000
v 6.5000 0.0000 0.0000
v 6.5400 0.0000 0.0000
v 2.6200 0.0100 0.0000
v 0.6600 0.0000 0.0000
v 5.7600 0.0100 0.0000
v 0.7200 0.3400 0.0000
v 1.8600 0.0000 0.0000
v 1.9000 0.0000 0.0000
v 2.5400 0.0100 0.0000
v 2.5800 0.0100 0.0000
v 2.6800 0.0000 0.0000
v 2.2200 0.0000 0.0000
v 2.2600 0.0100 0.0000
v 2.6600 0.0100 0.0000
v 2.8000 0.0000 0.0000
v 3.0400 0.0000 0.0000
v 2.7400 0.0100 0.0000
v 2.7800 0.0000 0.0000
v 0.5400 0.0100 0.0000
v 2.9000 0.0000 0.0000
v 3.7400 0.4900 0.0000
v 3.8400 0.0100 0.0000
v 0.8000 0.0000 0.0000
v 2.0400 0.0000 0.0000
v 2.1000 0.0000 0.0000
v 2.9600 0.0000 0.0000
v 2.9800 0.0100 0.0000
v 3.0200 0.0000 0.0000
v 3.0600 0.0100 0.0000
v 3.1000 0.0100 0.0000
v 3.1400 0.0100 0.0000
v 3.1600 0.0000 0.0000
v 4.5000 0.0100 0.0000
v 3.3400 0.0000 0.0000
v 3.2400 0.0000 0.0000
v 3.3000 0.0100 0.0000
v 0.3400 0.0000 0.0000
v 3.3600 0.0000 0.0000
v 3.5200 0.0100 0.0000
v 3.5600 0.0000 0.0000
v 3.6000 0.0000 0.0000
v 3.4400 0.0000 0.0000
v 3.1800 0.0000 0.0000
v 3.4800 0.0000 0.0000
v 1.1800 0.3600 0.0000
v 1.2600 0.3800 0.0000
v 1.2800 0.3800 0.0000
v 1.5200 0.3600 0.0000
v 3.9000 0.0000 0.0000
v 3.6600 0.0000 0.0000
v 3.7000 0.0000 0.0000
v 2.3600 0.4400 0.0000
v 2.4400 0.4600 0.0000
v 3.8200 0.0000 0.0000
v 0.1400 0.0100 0.0000
v 4.0800 0.0000 0.0000
v 4.2000 0.4200 0.0000
v 4.2600 0.0100 0.0000
v 4.6400 0.0000 0.0000
v 3.9400 0.0100 0.0000
v 4.0600 0.0100 0.0000
v 3.8600 0.0100 0.0000
v 0.6600 0.0000 0.0000
v 2.6000 0.0000 0.0000
v 4.6000 0.0000 0.0000
v 4.1000 0.0000 0.0000
v 4.0000 0.0000 0.0000
v 4.1200 0.0000 0.0000
v 0.3200 0.0100 0.0000
v 0.3600 0.0000 0.0000
v 4.1400 0.0000 0.0000
v 4.4600 0.0000 0.0000
v 2.4200 0.4500 0.0000
v 6.5600 0.0000 0.0000
v 4.2200 0.0100 0.0000
v 4.2600 0.0100 0.0000
v 4.2800 0.0000 0.0000
v 4.3200 0.0000 0.0000
v 0.4600 0.0200 0.0000
v 4.3400 0.0000 0.0000
v 4.3800 0.0000 0.0000
v 0.7000 0.0100 0.0000
v 0.6200 0.0000 0.0000
v 0.6800 0.0000 0.0000
v 1.7800 0.0000 0.0000
v 4.4200 0.0000 0.0000
v 2.5600 0.0100 0.0000
v 4.0200 0.0100 0.0000
v 4.5400 0.0000 0.0000
v 4.5600 0.0100 0.0000
v 2.1600 0.0100 0.0000
v 4.6600 0.0000 0.0000
v 4.7000 0.0000 0.0000
v 4.7400 0.0000 0.0000
v 3.9800 0.0000 0.0000
v 4.0400 0.4200 0.0000
v 4.8200 0.0100 0.0000
v 4.8600 0.0100 0.0000
v 4.9000 0.0000 0.0000
v 4.9600 0.0100 0.0000
v 5.0000 0.0000 0.0000
v 5.0400 0.0100 0.0000
v 2.1200 0.0100 0.0000
v 5.0800 0.0000 0.0000
v 5.3400 0.0000 0.0000
v 5.1200 0.0100 0.0000
v 5.1600 0.0100 0.0000
v 5.2000 0.0000 0.0000
v 5.2400 0.0100 0.0000
v 5.2800 0.0100 0.0000
v 5.3200 0.0100 0.0000
v 1.9200 0.4200 0.0000
v 1.9800 0.5500 0.0000
v 5.4000 0.0000 0.0000
v 5.4400 0.0000 0.0000
v 5.4800 0.0000 0.0000
v 5.5200 0.0000 0.0000
v 5.5400 0.4200 0.0000
v 5.6600 0.0000 0.0000
v 5.6400 0.0000 0.0000
v 5.7000 0.0000 0.0000
v 5.7400 0.0000 0.0000
v 1.9600 0.4200 0.0000
v 5.8000 0.0100 0.0000
v 5.8400 0.0000 0.0000
v 5.9000 0.0000 0.0000
v 5.9400 0.0000 0.0000
v 0.3400 0.0000 0.0000
v 6.0600 0.0100 0.0000
v 1.2000 0.0000 0.0000
v 6.0800 0.0100 0.0000
v 6.1200 0.0100 0.0000
v 6.1200 0.4200 0.0000
v 6.1800 0.0000 0.0000
v 6.2400 0.0100 0.0000
v 6.2800 0.0000 0.0000
v 6.2600 0.0100 0.0000
v 6.3600 0.0100 0.0000
v 6.3400 0.0000 0.0000
v 6.4000 0.0100 0.0000
v 6.3800 0.0100 0.0000
v 4.2000 0.0100 0.0000
v 6.4200 0.0000 0.0000
v 6.6200 0.5600 0.0000
v 6.4600 0.0000 0.0000
v 7.0800 0.0000 0.0000
v 1.6400 0.0100 0.0000
v 1.7000 0.0100 0.0000
v 6.5800 0.0100 0.0000
v 6.6400 0.0000 0.0000
v 1.7200 0.0100 0.0000
v 6.7000 0.0000 0.0000
v 6.7400 0.0000 0.0000
v 6.7800 0.0000 0.0000
v 6.8200 0.0000 0.0000
v 6.8600 0.0000 0.0000
v 6.9000 0.0000 0.0000
v 6.9400 0.0000 0.0000
v 7.0800 0.0000 0.0000
v 6.9800 0.0000 0.0000
v 7.0200 0.0000 0.0000
v 7.0600 0.0000 0.0000
v 7.1200 0.0000 0.0000
v 0.4200 0.0200 0.0000
v 7.1800 0.0000 0.0000
v 7.2200 0.0000 0.0000
v 7.2600 0.0100 0.0000
v 7.3000 0.0000 0.0000
v 7.3400 0.0000 0.0000
v 7.3800 0.0000 0.0000
v 7.4200 0.0000 0.0000
v 7.4600 0.0000 0.0000
v 7.5000 0.0000 0.0000
v 7.5400 0.0000 0.0000
v 7.5800 0.3300 0.0000
v 7.6200 0.0000 0.0000
v 7.6600 0.0000 0.0000
v 7.7000 0.0000 0.0000
v 0.0200 0.0000 0.0000
v 7.7600 0.0000 0.0000
v 7.8000 0.0000 0.0000
v 7.8400 0.0000 0.0000
v 7.8800 0.0100 0.0000
v 7.9200 0.0100 0.0000
v 7.9600 0.0000 0.0000
v 8.0000 0.0000 0.0000
v 8.0400 0.0000 0.0000
v 8.0800 0.0000 0.0000
v 8.1200 0.0000 0.0000
v 8.1600 0.0000 0.0000
v 8.2000 0.0000 0.0000
v 8.2400 0.0100 0.0000
v 10.6800 0.0000 0.0000
v 10.7200 0.0100 0.0000
v 8.2800 0.0000 0.0000
v 8.3200 0.0000 0.0000
v 9.0600 0.4200 0.0000
v 9.1000 0.0100 0.0000
v 8.6400 0.0000 0.0000
v 8.3600 0.0100 0.0000
v 8.4000 0.0100 0.0000
v 8.4400 0.0000 0.0000
v 8.4800 0.0000 0.0000
v 8.5200 0.0000 0.0000
v 8.5600 0.0000 0.0000
v 8.6000 0.0000 0.0000
v 8.7000 0.0000 0.0000
v 8.7400 0.0000 0.0000
v 8.7800 0.0100 0.0000
v 8.8000 0.0000 0.0000
v 8.8400 0.0000 0.0000
v 9.4200 0.0100 0.0000
v 9.4600 0.0000 0.0000
v 9.3800 0.0100 0.0000
v 9.1600 0.0100 0.0000
v 9.2000 0.5600 0.0000
v 8.8800 0.0000 0.0000
v 8.9200 0.0000 0.0000
v 8.9600 0.0000 0.0000
v 9.0000 0.0000 0.0000
v 9.0400 0.0000 0.0000
v 9.1400 0.0000 0.0000
v 9.2600 0.0000 0.0000
v 9.3000 0.0000 0.0000
v 9.3400 0.0100 0.0000
v 9.5000 0.0000 0.0000
v 9.5400 0.0000 0.0000
v 9.5800 0.0000 0.0000
v 9.6200 0.0000 0.0000
v 9.6600 0.0000 0.0000
v 9.7000 0.0000 0.0000
v 9.7400 0.0000 0.0000
v 9.9800 0.0100 0.0000
v 9.8200 0.0000 0.0000
v 9.4200 0.0100 0.0000
v 9.4600 0.0000 0.0000
v 9.3800 0.0100 0.0000
v 10.0200 0.0000 0.0000
v 10.0600 0.0100 0.0000
v 10.0000 0.0000 0.0000
v 10.1000 0.0000 0.0000
v 9.8600 0.0000 0.0000
v 9.9200 0.0000 0.0000
v 9.9600 0.0000 0.0000
v 9.9000 0.0100 0.0000
v 10.1400 0.0000 0.0000
v 10.1800 0.0000 0.0000
v 10.2200 0.0000 0.0000
v 10.2600 0.0000 0.0000
v 10.3000 0.0100 0.0000
v 5.4000 0.0000 0.0000
v 10.3600 0.0000 0.0000
v 10.4000 0.0000 0.0000
v 10.4400 0.0000 0.0000
v 10.4800 0.0000 0.0000
v 10.5200 0.0000 0.0000
v 10.5600 0.0000 0.0000
v 10.6000 0.0000 0.0000
v 10.6400 0.0000 0.0000
v 10.7800 0.0000 0.0000
v 10.8000 0.0000 0.0000
v 10.8400 0.0000 0.0000
v 10.8800 0.0000 0.0000
v 10.9200 0.0000 0.0000
v 10.9600 0.0000 0.0000
v 11.0200 0.0000 0.0000
v 1.1600 0.2000 0.0000
v 11.0600 0.0000 0.0000
v 11.1000 0.0000 0.0000
v 11.1400 0.0000 0.0000
v 11.1800 0.0000 0.0000
v 11.2200 0.0000 0.0000
v 12.8400 0.0100 0.0000
v 11.2800 0.4200 0.0000
v 11.3200 0.4200 0.0000
v 0.1400 0.4200 0.0000
v 11.3800 0.0000 0.0000
v 11.4200 0.0000 0.0000
v 11.4600 0.0100 0.0000
v 11.5000 0.0100 0.0000
v 11.5800 0.0000 0.0000
v 11.5600 0.0000 0.0000
v 11.7000 0.0000 0.0000
v 11.6600 0.0000 0.0000
v 11.7200 0.0000 0.0000
v 11.7600 0.0000 0.0000
v 11.8000 0.0000 0.0000
v 11.6200 0.0000 0.0000
v 0.0200 0.0000 0.0000
v 11.8200 0.0000 0.0000
v 11.8600 0.0000 0.0000
v 11.9000 0.0000 0.0000
v 10.7400 0.0000 0.0000
v 11.9400 0.0000 0.0000
v 12.0000 0.0000 0.0000
v 12.0400 0.0000 0.0000
v 12.1000 0.0000 0.0000
v 12.1400 0.0000 0.0000
v 12.1800 0.0000 0.0000
v 12.2200 0.0000 0.0000
v 12.2600 0.0000 0.0000
v 12.3000 0.0000 0.0000
v 12.3400 0.0000 0.0000
v 12.3800 0.0000 0.0000
v 12.4200 0.0000 0.0000
v 12.4600 0.0000 0.0000
v 12.5000 0.0000 0.0000
v 12.5400 0.0000 0.0000
v 12.5800 0.0000 0.0000
v 12.6000 0.0000 0.0000
v 12.6600 0.0000 0.0000
v 12.7000 0.0000 0.0000
v 12.7400 0.0000 0.0000
v 12.7800 0.0000 0.0000
v 4.8200 0.0100 0.0000
v 12.8200 0.0000 0.0000
v 12.8800 0.0000 0.0000
v 3.9400 0.0100 0.0000
v 2.1600 0.0100 0.0000
v 4.4000 0.0000 0.0000
v 4.4000 0.0100 0.0000
v 1.5200 0.3600 0.0000
v 0.6600 0.0000 0.0000
v 12.9600 0.1600 0.0000
v 13.0200 0.1600 0.0000
v 13.0400 0.0000 0.0000
v 13.0600 0.0000 0.0000
v 13.1200 0.0000 0.0000
v 10.9800 0.0000 0.0000
v 13.1800 0.0000 0.0000
v 13.2200 0.0000 0.0000
v 0.3400 0.0000 0.0000
v 13.2600 0.0000 0.0000
v 13.2800 0.0000 0.0000
v 13.2800 0.0000 0.0000
v 13.3000 0.0000 0.0000
v 13.3400 0.0000 0.0000
v 13.3800 0.0000 0.0000
v 13.4200 0.0000 0.0000
v 13.4600 0.0000 0.0000
v 13.5000 0.0000 0.0000
v 13.5400 0.0000 0.0000
v 13.5800 0.0000 0.0000
v 13.6200 0.0000 0.0000
v 13.6600 0.0000 0.0000
v 13.7000 0.0000 0.0000
v 13.7400 0.0000 0.0000
v 13.7800 0.0000 0.0000
v 13.8200 0.0000 0.0000
v 13.8600 0.0000 0.0000
v 13.9000 0.0000 0.0000
v 13.9400 0.0000 0.0000
v 13.9800 0.0000 0.0000
v 14.0200 0.0000 0.0000
v 14.0600 0.0000 0.0000
v 14.1000 0.0000 0.0000
v 14.1400 0.0000 0.0000
v 14.1800 0.0000 0.0000
v 14.2200 0.5900 0.0000
v 14.2600 0.0000 0.0000
v 14.3000 0.0000 0.0000
v 14.3400 0.0000 0.0000
v 14.3800 0.0000 0.0000
v 14.4200 0.0000 0.0000
v 14.4600 0.0000 0.0000
v 14.5000 0.0000 0.0000
v 14.5400 0.0000 0.0000
v 14.5800 0.0000 0.0000
v 14.6200 0.0000 0.0000
v 14.6600 0.0000 0.0000
v 14.7000 0.0000 0.0000
v 14.7400 0.0000 0.0000
v 14.7800 0.0000 0.0000
v 14.8200 0.0000 0.0000
v 14.8600 0.0000 0.0000
v 14.9000 0.0000 0.0000
v 14.9400 0.0000 0.0000
v 14.9800 0.0000 0.0000
v 15.0000 0.0000 0.0000
v 15.0400 0.0000 0.0000
v 1.4200 0.0000 0.0000
v 15.1000 0.0000 0.0000
v 15.1400 0.0000 0.0000
v 15.1800 0.0000 0.0000
v 15.2200 0.0000 0.0000
v 15.2600 0.0000 0.0000
v 0.5800 0.0000 0.0000
v 8.3600 0.0100 0.0000
v 15.2800 0.0000 0.0000
v 1.9800 0.0100 0.0000
v 0.0000 1.0600 0.0000
v 0.0000 0.9700 0.0000
v 0.0000 0.0900 0.0000
v 0.0000 0.1000 0.4400
v 0.0000 0.0900 0.0100
v 0.0000 0.9700 0.0000
v -2.5300 13.1400 0.0000
v 0.0000 0.0700 0.0000
v 0.0000 0.0900 0.0000
v 0.0000 1.0500 0.0000
v 0.0000 1.0600 0.0000
v 0.0000 0.0900 0.0000
v 0.0000 1.0600 0.0000
v 0.0000 1.0500 0.0000
v 0.0000 1.0600 0.0000
v 0.0000 1.6000 0.0000
v 0.0000 1.4900 0.0000
v 0.0000 1.5000 0.0000
v 0.0000 1.5700 0.0000
v 0.0000 1.0600 0.0000
v 0.0000 0.0900 0.0000
v 0.0000 0.0900 0.0000
v 0.0000 0.9700 0.0000
v 0.0000 0.9700 0.0000
v 0.0000 0.0900 0.0000
v 0.0000 1.0600 0.0000
v 0.0000 0.9700 0.0000
v 0.0000 0.0900 0.0000
v 0.0000 0.0900 0.0000
v 0.0000 0.9700 0.0000
v 0.0000 0.0900 0.0000
v 0.0000 1.0600 0.0000
v 0.0000 1.0500 0.0000
v 0.0000 1.0600 0.0000
v 0.0000 1.0500 0.0000
v 0.0000 1.0600 0.0000
v 0.0000 0.9000 0.0000
v 0.0000 0.5300 0.0000
v 0.0000 0.0300 0.0000
v 0.0000 1.0500 0.0000
v 0.0000 0.1100 0.0000
v 0.0000 1.0500 0.0000
v 0.0000 0.1100 0.0000
v 0.0000 0.5300 0.0000
v 0.0000 0.0900 0.0000
v 0.0000 0.0700 0.0000
v 0.0000 0.0700 0.0000
v 0.0000 1.4200 0.0000
v 0.0000 0.0700 0.0000
v 0.0000 0.0700 0.0000
v 0.0000 0.9100 0.0400
v 0.0000 0.0900 0.0000
v 0.0000 0.0900 0.0000
v 0.0000 0.9100 0.0200
v 0.0000 0.5300 -2.5200
v 0.0000 0.0900 0.0000
v 0.0000 0.5300 -2.5200
v 0.0000 0.0900 0.0000
v 0.0000 0.1200 23.0500
v 0.0000 0.1200 15.3700
v 0.0000 1.0600 0.0000
v 0.0000 0.0900 0.0100
v 0.0000 1.5700 0.0000
v 0.0000 1.0600 0.0000
v 0.0000 1.0500 0.0000
v 0.0000 1.6000 0.0000
v 0.0000 1.0600 0.0000
v 0.0000 1.5700 0.0000
v 0.0000 1.0600 0.0000
v 0.0000 0.9700 0.0000
v 0.0000 0.0900 0.0000
v 0.0000 0.9000 0.0000
v 0.0000 0.9000 0.0000
v 0.0000 1.0500 0.0000
v 0.0000 0.9000 0.0000
v 0.0000 0.0900 0.0000
v 0.0000 0.9700 0.0000
v 0.0000 0.0900 0.0000
v 0.0000 0.9000 0.0000
v 0.0000 0.9000 0.0000
v 0.0000 0.0900 0.0000
v 0.0000 0.9000 0.0000
v 0.0000 0.9000 0.0000
v 0.0000 0.9000 0.0000
v 0.0000 0.0900 0.0000
v 0.0000 0.0900 0.0000
v 0.0000 0.0900 0.0000
v 0.0000 0.9700 0.0000
v 0.0000 0.0900 0.0000
v 0.0000 0.9000 0.0000
v 0.0000 0.0900 0.0000
v 0.0000 0.0900 0.0000
v 0.0000 0.0900 0.0000
v 0.0000 0.9700 0.0000
v 0.0000 0.9000 0.0000
v 0.0000 0.8400 0.0000
v 0.0000 0.8200 0.0000
v 0.0000 1.0500 0.0000
v 0.0000 0.5300 -2.5500
v 0.0000 0.0900 0.0000
v 0.0000 0.9700 0.0000
v 0.0000 0.9000 0.0000
v 0.0000 0.9300 0.0000
v 0.0000 0.8200 0.0000
v 0.0000 1.4400 -2.5400
v 0.0000 0.8200 0.0000
v 0.0000 1.0500 0.0000
v 0.0000 0.5300 -2.5500
v 0.0000 1.0500 0.0000
v 0.0000 0.0900 0.0000
v 0.0000 0.0900 0.0000
v 0.0000 0.5300 -2.5100
v 0.0000 1.3000 0.0000
v 0.0000 1.0500 0.0000
v 0.0000 0.1200 7.6900
v 0.0000 0.0900 0.0000
v 0.0000 0.0900 0.0000
v 0.0000 0.1200 15.3700
v 0.0000 0.9000 0.0000
v 0.0000 0.9700 0.0000
v 0.0000 0.0900 0.0000
v 0.0000 0.9000 0.0000
v 0.0000 0.0700 0.0000
v 0.0000 1.0500 0.0000
v 0.0000 0.0700 0.0000
v 0.0000 1.0500 0.0000
v 0.0000 1.0600 0.0000
v 0.0000 0.9200 0.0000
v 0.0000 0.9200 0.0000
v 0.0000 0.9200 0.0000
v 0.0000 0.0900 0.0000
v 0.0000 0.0900 0.0000
v 0.0000 0.9200 0.0000
v 0.0000 1.0200 0.0000
v 0.0000 0.1200 17.9300
v 0.0000 0.0900 0.0000
v 0.0000 0.0700 0.0000
v 0.0000 0.0900 0.0000
v 0.0000 0.9700 0.0000
v 0.0000 0.0700 0.0000
v 0.0000 0.0900 0.0000
v 0.0000 0.9100 33.3100
v 0.0000 0.9700 0.0000
v 0.0000 0.9100 33.3100
v 0.0000 0.9700 0.0000
v 0.0000 0.0700 0.0000
v 0.0000 0.0900 0.0000
v 0.0000 0.0700 0.0000
v 0.0000 0.0900 0.0000
v 0.0000 0.9700 0.0000
v 0.0000 0.0900 0.0000
v 0.0000 0.0700 0.0000
v 0.0000 0.6600 0.0000
v 0.0000 0.0700 0.0000
v 0.0000 0.0700 0.0000
v 0.0000 0.0700 0.0000
v 0.0000 0.1200 15.3700
v 0.0000 0.8200 -2.5300
v 0.0000 0.4000 0.0000
v 0.0000 0.9000 0.0000
v 0.0000 0.9000 0.0000
v 0.0000 0.0100 0.0000
v 0.0000 0.0900 0.0000
v 0.0000 0.1100 0.0000
v 0.0000 0.1200 7.6900
v 0.0000 0.9700 0.0000
v 0.0000 0.2200 0.0000
v 0.0000 0.0900 0.0000
v 0.0000 1.0500 0.0000
v 0.0000 0.0700 0.0000
v 0.0000 0.0700 0.0000
v 0.0000 0.2800 0.0000
v 0.0000 0.0100 0.0000
v 0.0000 0.0300 0.0000
v 0.0000 0.0900 0.0000
v 0.0000 0.0900 0.0000
v 0.0000 0.8200 -2.5600
v 0.0000 0.9800 0.0000
v 0.0000 0.0100 0.0000
v 0.0000 0.0100 0.0000
v 0.0000 0.0100 0.0000
v 0.0000 0.9700 0.0000
v 0.0000 0.9700 0.0000
v 0.0000 0.0900 0.0000
v 0.0000 1.3000 0.0000
v 0.0000 1.3000 0.0000
v 0.0000 0.4900 0.0000
v 0.0000 0.3500 0.0000
v 0.0000 1.5200 2.5600
v 0.0000 0.6600 0.0000
v 0.0000 0.8500 0.0000
v 0.0000 2.5500 0.0000
v 0.0000 0.0900 0.0000
v 0.0000 0.0900 0.0000
v 0.0000 0.0900 0.0000
v 0.0000 0.9700 0.0000
v 0.0000 0.9700 0.0000
v 0.0000 0.0900 0.0000
v 0.0000 0.0600 0.0000
v 0.0000 2.5500 0.0000
v 0.0000 0.5300 0.0000
v 0.0000 0.9700 0.0000
v 0.0000 0.0900 0.0000
v 0.0000 0.9700 0.0000
v 0.0000 0.9000 0.0000
v 0.0000 0.9000 0.0000
v 0.0000 0.0700 0.0000
v 0.0000 0.9700 0.0000
v 0.0000 0.9700 0.0000
v 0.0000 0.9700 0.0000
v 0.0000 0.0900 0.0000
v 0.0000 1.6000 0.0000
v 0.0000 0.0900 0.0000
v 0.0000 1.0700 0.0000
v 0.0000 1.0500 0.0000
v 0.0000 1.0700 0.0000
v 0.0000 0.0900 0.0000
v 0.0000 0.0900 0.0000
v 0.0000 0.0900 0.0000
v 0.0000 0.0900 0.0000
v 0.0000 0.9700 0.0000
v 0.0000 0.9000 0.0000
v 16.0000 0.4000 0.0000
v 0.0000 0.0900 0.0000
v 0.0000 0.5300 0.0000
v 0.0000 1.5700 0.0000
v 0.0000 0.5300 0.0000
v 0.0000 1.0600 0.0000
v 0.0000 0.5300 0.0000
v 0.0000 1.6000 0.0000
v 0.0000 0.8000 -2.5300
v 0.0000 0.8000 0.0000
v 0.0000 1.1000 0.0000
v 0.0000 0.9000 0.0000
v 0.0000 0.0900 0.0000
v 0.0000 1.0600 0.0000
v 0.0000 0.3600 0.0000
v 0.0000 0.7900 0.0000
v 0.0000 0.9000 0.0000
v 0.0000 0.9000 0.0000
v 0.0000 0.9000 0.0000
v 0.0000 0.0100 0.0000
v 0.0000 0.0600 0.0000
v 0.0000 0.2300 0.0000
v 0.0000 0.3600 0.0000
v 0.0000 0.0600 0.0000
v 0.0000 2.5400 0.0000
v 0.0000 0.0600 0.0000
v 0.0000 0.8200 -2.5300
v 0.0000 0.8200 -2.2300
v 0.0000 0.5300 0.0000
v 0.0000 0.0700 0.0000
v 0.0000 0.5300 0.0000
v 0.0000 0.0700 0.0000
v 0.0000 0.5300 -2.5300
v 0.0000 0.5300 0.0000
v 0.0000 0.7700 0.0000
v 0.0000 0.7700 0.0000
v 0.0000 0.2400 0.0000
v 0.0000 0.2500 0.0000
v 0.0000 0.5300 0.0000
v 0.0000 0.1100 0.0000
v 0.0000 0.9700 0.0000
v 0.0000 0.3500 0.0000
v 0.0000 0.9000 0.0000
v 5.1200 0.0000 0.0000
v 10.2400 0.0000 0.0000
v 15.3600 0.0000 0.0000
v 20.4800 0.0000 0.0000
v 35.8400 0.0000 0.0000
v 28.1600 0.0000 -2.5400
v 33.2800 0.0000 0.0000
v 0.0000 0.0000 0.0100
v 2.5600 0.0000 -2.5300
v 2.5600 10.2400 0.0000
v 0.0000 0.0000 0.0400
v 0.0000 0.0000 0.0400
v 2.5600 0.0000 0.0000
v 0.0000 2.5600 0.1500
v 0.0000 0.0000 0.0400
v 2.5600 0.0000 -2.5500
v 2.5600 0.0000 0.0000
v 2.5600 0.0000 -2.5400
v 2.5600 10.2400 0.0000
v 0.0000 30.7200 0.1600
v 0.0000 0.0800 0.0100
v 0.0700 25.6000 25.6100
v -22.9600 0.0500 0.0500
v 0.0700 25.6000 0.0100
v -22.9600 0.0500 0.0500
v 0.0800 0.0800 -22.9600
v 20.4800 25.6000 25.6000
v 20.4800 30.7200 30.7200
v 0.4900 2.5700 0.0200
v 15.4200 0.0200 3.4600
v 0.0000 38.5100 -23.0400
v 30.6400 0.6000 0.0100
v 28.1000 0.5800 -2.2000
v 5.1300 25.6000 2.5500
v 0.0000 -1.5600 0.0000
v 0.1700 0.1700 -22.9200
v 5.2000 0.1700 0.1700
v 1.3400 2.5600 0.0000
v 5.1900 -12.8000 3.8300
v 0.2900 3.2000 0.0000
v 0.0000 0.6800 -23.0300
v 0.0800 0.2100 0.2100
v 1.7200 -12.7900 0.0000
v 2.5600 1.7400 -12.7900
v 1.7200 -12.7900 0.0000
v 0.2100 0.2100 -20.4000
v -12.7200 0.2300 0.2300
v 0.6300 -2.4700 7.2600
v -22.4100 -2.4700 14.7700
v 2.5900 4.4100 -12.8000
v 30.6500 0.5000 0.0700
v 0.0000 0.6800 -17.9100
v -18.6300 -17.9100 30.7200
v -17.2800 -2.4800 14.8800
v 5.9400 0.0200 0.0000
v 2.6500 8.6600 0.0700
v 0.2800 0.0000 0.0000
v 15.7200 10.2400 1.0300
v 0.0000 0.4900 0.0000
v 7.5900 3.0600 0.0000
v 23.0600 3.1600 0.0000
v 15.3500 -7.5700 -20.4800
v 0.4900 15.4200 0.0200
v 19.7200 0.1800 -2.4800
v 26.6000 0.1200 0.0000
v -2.0800 0.4000 0.0000
v 0.0000 -2.4800 0.2700
v 0.4900 0.0000 0.0200
v 0.0000 -1.7100 0.0000
v 23.0600 2.7600 0.0000
v 1.0000 0.0000 0.0400
v 35.8500 18.3200 0.0100
v 23.0600 18.5200 0.0100
v 0.0000 2.5000 20.4800
v -18.6300 -15.3500 7.6800
v 0.6500 0.0000 0.0400
v 30.7200 0.0000 1.7400
v 0.3500 0.0000 0.0000
v 1.0000 0.0000 0.0400
v 2.6500 6.9700 -23.0400
v 7.0400 2.5700 7.6800
v 0.0800 0.3700 0.3700
v 26.1000 0.4000 0.0000
v 4.5600 0.0000 -2.4800
v 2.5600 0.0000 0.0000
v 7.6800 0.0000 0.0000
v 12.8000 0.0000 0.0000
v 17.9200 0.0000 0.0000
v 23.0400 0.0000 0.0000
v 28.1600 0.0000 0.0000
v 33.2800 0.0000 0.0000
v 38.4000 0.0000 0.0000
vt 0.0039 0.0000
vt 0.0156 0.0010
vt 0.7188 0.0000
vt 0.0762 0.0000
vt 0.1348 0.0010
vt 0.0117 0.0000
vt 0.1758 0.0010
vt 0.0137 0.0010
vt 0.0742 0.0000
vt 0.0957 0.0000
vt 0.0859 0.0000
vt 0.0879 0.0000
vt 0.0195 0.0000
vt 0.1074 0.0000
vt 0.1016 0.0000
vt 0.0430 0.0000
vt 0.0820 0.0000
vt 0.1094 0.0010
vt 0.0664 0.0322
vt 0.1934 0.0010
vt 0.1582 0.0000
vt 0.1270 0.0361
vt 0.1289 0.0400
vt 0.1699 0.0000
vt 0.1367 0.0361
vt 0.2402 0.0410
vt 0.0215 0.0020
vt 0.0078 0.0000
vt 0.0234 0.0098
vt 0.0938 0.0127
vt 0.2441 0.0410
vt 0.0898 0.0127
vt 0.1328 0.0361
vt 0.1445 0.0010
vt 0.2227 0.0010
vt 0.2109 0.0010
vt 0.1562 0.0117
vt 0.6328 0.0010
vt 0.6367 0.0010
vt 0.6387 0.0000
vt 0.0000 0.0107
vt 0.2109 0.0010
vt 0.2129 0.0010
vt 0.0723 0.0557
vt 0.1836 0.0000
vt 0.2461 0.0010
vt 0.2500 0.0010
vt 0.2578 0.0420
vt 0.2637 0.0010
vt 0.2188 0.0010
vt 0.2793 0.0010
vt 0.1387 0.0000
vt 0.2754 0.0000
vt 0.2656 0.0000
vt 0.2695 0.0010
vt 0.2773 0.0000
vt 0.2812 0.0010
vt 0.2852 0.0000
vt 0.3672 0.0479
vt 0.2871 0.0000
vt 0.1973 0.0010
vt 0.2012 0.0010
vt 0.2031 0.0010
vt 0.2090 0.0010
vt 0.2930 0.0010
vt 0.2969 0.0000
vt 0.3008 0.0010
vt 0.3047 0.0010
vt 0.3145 0.0010
vt 0.3340 0.0000
vt 0.3320 0.0000
vt 0.3203 0.0010
vt 0.3184 0.0000
vt 0.3242 0.0000
vt 0.0781 0.0010
vt 0.3418 0.0000
vt 0.3457 0.0010
vt 0.3496 0.0000
vt 0.3535 0.0000
vt 0.3379 0.0000
vt 0.3125 0.0000
vt 0.3555 0.0000
vt 0.1211 0.0352
vt 0.1172 0.0371
vt 0.1191 0.0361
vt 0.1504 0.0352
vt 0.2285 0.0010
vt 0.3594 0.0000
vt 0.3633 0.0010
vt 0.2324 0.0000
vt 0.3711 0.0000
vt 0.3828 0.0000
vt 0.3027 0.0010
vt 0.3691 0.0010
vt 0.4121 0.0000
vt 0.4141 0.0410
vt 0.4297 0.0000
vt 0.3867 0.0010
vt 0.3926 0.0010
vt 0.3789 0.0000
vt 0.3301 0.0000
vt 0.2266 0.0000
vt 0.0645 0.0000
vt 0.0273 0.0059
vt 0.2656 0.0000
vt 0.0293 0.0010
vt 0.0332 0.0000
vt 0.0938 0.0127
vt 0.4062 0.0000
vt 0.2344 0.0508
vt 0.0371 0.0000
vt 0.4102 0.0010
vt 0.4141 0.0000
vt 0.4375 0.0000
vt 0.4199 0.0000
vt 0.0391 0.0000
vt 0.0410 0.0020
vt 0.4258 0.0000
vt 0.0625 0.0000
vt 0.0586 0.0000
vt 0.0645 0.0000
vt 0.0684 0.0000
vt 0.4297 0.0000
vt 0.4336 0.0000
vt 0.3848 0.0010
vt 0.4414 0.0410
vt 0.4473 0.0000
vt 0.4512 0.0000
vt 0.2148 0.0010
vt 0.4570 0.0000
vt 0.4609 0.0000
vt 0.4648 0.0000
vt 0.4668 0.0000
vt 0.4688 0.0000
vt 0.4727 0.0010
vt 0.4766 0.0000
vt 0.4805 0.0010
vt 0.4863 0.0010
vt 0.4902 0.0000
vt 0.4824 0.0010
vt 0.4941 0.0000
vt 0.4980 0.0000
vt 0.5234 0.0000
vt 0.5020 0.0010
vt 0.5059 0.0000
vt 0.5098 0.0000
vt 0.5137 0.0000
vt 0.5176 0.0010
vt 0.4297 0.0010
vt 0.5645 0.0000
vt 0.5254 0.0000
vt 0.5293 0.0000
vt 0.5332 0.0000
vt 0.5371 0.0000
vt 0.5449 0.0000
vt 0.5430 0.0010
vt 0.5488 0.0000
vt 0.5547 0.0000
vt 0.5586 0.0000
vt 0.5723 0.0000
vt 0.5469 0.0000
vt 0.5684 0.0000
vt 0.5742 0.0000
vt 0.5781 0.0000
vt 0.5820 0.0000
vt 0.5898 0.0000
vt 0.5859 0.0000
vt 0.5898 0.0010
vt 0.5957 0.0010
vt 0.5996 0.0010
vt 0.6016 0.0000
vt 0.6055 0.0000
vt 0.4590 0.0000
vt 0.6074 0.0010
vt 0.6152 0.0010
vt 0.6191 0.0000
vt 0.6172 0.0010
vt 0.6211 0.0010
vt 0.6230 0.0410
vt 0.5879 0.0000
vt 0.6465 0.0547
vt 0.6289 0.0000
vt 0.0703 0.0332
vt 0.1621 0.0010
vt 0.1641 0.0010
vt 0.6426 0.0010
vt 0.6445 0.0010
vt 0.6504 0.0000
vt 0.6523 0.0000
vt 0.6562 0.0000
vt 0.6602 0.0000
vt 0.6641 0.0000
vt 0.6680 0.0000
vt 0.6719 0.0000
vt 0.6758 0.0000
vt 0.6797 0.0000
vt 0.5840 0.0000
vt 0.6836 0.0000
vt 0.6875 0.0000
vt 0.6934 0.0000
vt 0.6973 0.0000
vt 0.6992 0.0000
vt 0.7031 0.0000
vt 0.7070 0.0000
vt 0.7109 0.0000
vt 0.7148 0.0010
vt 0.1777 0.0010
vt 0.7227 0.0000
vt 0.7266 0.0000
vt 0.7305 0.0000
vt 0.7344 0.0000
vt 0.7383 0.0000
vt 0.7422 0.0010
vt 0.7461 0.0000
vt 0.7500 0.0010
vt 0.7539 0.0000
vt 0.7559 0.0000
vt 0.7598 0.0000
vt 0.7637 0.0000
vt 0.7676 0.0010
vt 0.7715 0.0010
vt 0.7754 0.0000
vt 0.7793 0.0000
vt 0.7832 0.0000
vt 0.7871 0.0000
vt 0.7910 0.0000
vt 0.7949 0.0000
vt 0.7988 0.0000
vt 0.8027 0.0010
vt 1.0410 0.0410
vt 1.0449 0.0410
vt 0.8066 0.0000
vt 0.8105 0.0000
vt 0.8145 0.0000
vt 0.8867 0.0410
vt 0.8418 0.0000
vt 0.8457 0.0000
vt 0.8184 0.0010
vt 0.8223 0.0010
vt 0.8262 0.0000
vt 0.8301 0.0000
vt 0.8340 0.0000
vt 0.8379 0.0000
vt 0.8477 0.0000
vt 0.8516 0.0010
vt 0.8555 0.0000
vt 0.9570 0.0010
vt 0.8613 0.0000
vt 0.9180 0.0000
vt 0.9219 0.0000
vt 0.9141 0.0010
vt 0.9004 0.0010
vt 0.8965 0.0000
vt 0.8652 0.0000
vt 0.8691 0.0000
vt 0.8730 0.0000
vt 0.8770 0.0000
vt 0.8809 0.0000
vt 0.8906 0.0479
vt 0.9023 0.0000
vt 0.9062 0.0000
vt 0.9102 0.0000
vt 0.9258 0.0010
vt 0.9297 0.0000
vt 0.9336 0.0000
vt 0.9375 0.0000
vt 0.9414 0.0000
vt 0.9453 0.0000
vt 0.9492 0.0000
vt 0.9531 0.0000
vt 0.9551 0.0000
vt 0.9180 0.0000
vt 0.9219 0.0000
vt 0.9141 0.0010
vt 0.9199 0.0010
vt 0.9805 0.0010
vt 0.9844 0.0000
vt 0.9609 0.0010
vt 0.9883 0.0000
vt 0.9648 0.0000
vt 0.9707 0.0000
vt 0.9668 0.0010
vt 0.9668 0.0010
vt 0.9922 0.0000
vt 0.9961 0.0000
vt 1.0000 0.0000
vt 1.0039 0.0000
vt 1.0078 0.0000
vt 1.0098 0.0000
vt 1.0137 0.0000
vt 1.0176 0.0010
vt 1.0215 0.0000
vt 1.0254 0.0000
vt 1.0293 0.0000
vt 1.0332 0.0000
vt 1.0371 0.0000
vt 1.0508 0.0000
vt 1.0488 0.0000
vt 1.0566 0.0000
vt 1.0605 0.0000
vt 1.0645 0.0000
vt 1.0684 0.0000
vt 1.0742 0.0000
vt 1.0781 0.0000
vt 0.0703 0.0332
vt 1.0820 0.0000
vt 1.0859 0.0000
vt 1.0898 0.0000
vt 1.0938 0.0000
vt 1.0977 0.0000
vt 1.0996 0.0410
vt 1.1035 0.0410
vt 1.1074 0.0410
vt 1.1094 0.0000
vt 1.1133 0.0000
vt 1.1172 0.0010
vt 1.1211 0.0010
vt 1.1367 0.0010
vt 1.1270 0.0000
vt 1.1406 0.0000
vt 1.1250 0.0000
vt 1.1406 0.0000
vt 1.1465 0.0000
vt 1.1504 0.0000
vt 1.1328 0.0000
vt 0.9609 0.0010
vt 0.0020 0.0000
vt 1.1562 0.0000
vt 1.1602 0.0000
vt 1.1641 0.0000
vt 1.1680 0.0000
vt 1.1699 0.0000
vt 1.1738 0.0000
vt 1.1777 0.0000
vt 1.1836 0.0000
vt 1.1875 0.0000
vt 1.1914 0.0000
vt 1.1953 0.0000
vt 1.1992 0.0000
vt 1.2031 0.0000
vt 1.2070 0.0000
vt 1.2109 0.0000
vt 1.2148 0.0000
vt 1.2188 0.0000
vt 1.2227 0.0000
vt 1.2266 0.0000
vt 1.2324 0.0000
vt 1.2344 0.0000
vt 1.2383 0.0000
vt 1.2422 0.0000
vt 1.2461 0.0000
vt 1.2500 0.0000
vt 0.4746 0.0010
vt 1.2559 0.0010
vt 1.2598 0.0010
vt 0.3926 0.0010
vt 0.2148 0.0010
vt 0.4297 0.0000
vt 1.2617 0.0000
vt 1.1797 0.0000
vt 1.2637 0.0000
vt 1.2676 0.0000
vt 1.2695 0.0000
vt 1.2832 0.0000
vt 1.2773 0.0000
vt 1.2793 0.0000
vt 1.2852 0.0000
vt 1.2891 0.0000
vt 1.2930 0.0000
vt 0.0410 0.0020
vt 1.2949 0.0000
vt 1.2969 0.0000
vt 1.2969 0.0000
vt 1.3008 0.0000
vt 1.3047 0.0000
vt 1.3086 0.0000
vt 1.3125 0.0000
vt 1.3164 0.0000
vt 1.3203 0.0000
vt 1.3242 0.0000
vt 1.3281 0.0000
vt 1.3320 0.0000
vt 1.3359 0.0000
vt 1.3398 0.0000
vt 1.3438 0.0000
vt 1.3477 0.0000
vt 1.3516 0.0000
vt 1.3555 0.0000
vt 1.3594 0.0000
vt 1.3633 0.0000
vt 1.3672 0.0000
vt 1.3711 0.0000
vt 1.3750 0.0000
vt 1.3789 0.0000
vt 1.3828 0.0000
vt 1.3867 0.0000
vt 1.3906 0.0000
vt 1.3945 0.0000
vt 1.3984 0.0000
vt 1.4023 0.0000
vt 1.4062 0.0000
vt 1.4102 0.0000
vt 1.4141 0.0000
vt 1.4180 0.0000
vt 1.4219 0.0000
vt 1.4258 0.0000
vt 1.4297 0.0000
vt 1.4336 0.0000
vt 1.4375 0.0000
vt 1.4414 0.0000
vt 1.4453 0.0000
vt 1.4492 0.0000
vt 1.4531 0.0000
vt 1.4570 0.0000
vt 1.4609 0.0000
vt 0.1465 0.0010
vt 1.4668 0.0000
vt 1.4707 0.0000
vt 1.4727 0.0000
vt 1.4766 0.0000
vt 1.4805 0.0000
vt 1.4844 0.0000
vt 1.4883 0.0000
vt 0.0684 0.0000
vt 0.0742 0.0000
vt 0.8164 0.0010
vt 1.4941 0.0000
vt 0.9756 0.0000
vt 16.6016 0.0000
vt 17.1182 -16.0000
vt 17.1182 -16.0000
vt 16.3594 0.0000
vt 16.0625 0.0000
vt 16.3438 0.0000
vt 0.0000 0.0117
vt 16.2812 0.0000
vt 16.3984 0.0000
vt 17.1182 -16.0000
vt 17.1182 -16.0000
vt 16.2500 0.0000
vt 17.1182 -16.0000
vt 17.1182 -16.0000
vt 16.2500 0.0000
vt 16.2500 0.0000
vt 16.2500 0.0000
vt 0.0000 0.0000
vt 17.1182 -16.0000
vt 16.2500 0.0000
vt 16.2188 0.0000
vt 17.1182 -16.0000
vt 16.3750 0.0000
vt 16.4062 0.0000
vt 16.3594 0.0000
vt 17.1182 -16.0000
vt 16.4766 0.0000
vt 16.2812 0.0000
vt 16.3438 0.0000
vt 16.4844 0.0000
vt 16.2188 0.0000
vt 17.1182 -16.0000
vt 16.5117 0.0000
vt 17.1182 -16.0000
vt 17.1182 -16.0000
vt 17.1182 -16.0000
vt 0.0000 0.0000
vt 0.0000 0.0000
vt 0.0000 0.1562
vt 16.4141 0.0000
vt 16.2969 0.0000
vt 16.4141 0.0000
vt 16.2969 0.0000
vt 16.3984 0.0000
vt 17.1182 -16.0000
vt 16.4766 0.0000
vt 17.1182 -16.0000
vt 16.1562 0.0000
vt 16.4453 0.0000
vt 16.3906 0.0000
vt 16.6094 0.0000
vt 16.8037 0.0000
vt 17.1182 -16.0000
vt 16.4062 0.0000
vt 16.5244 -23.0400
vt 16.2188 0.0000
vt 17.1182 -16.0000
vt 16.5938 0.0000
vt 16.1914 30.7197
vt 16.5635 2.5596
vt 17.1182 -16.0000
vt 16.1250 0.0000
vt 16.4375 0.0000
vt 17.1182 -16.0000
vt 17.1182 -16.0000
vt 0.0000 0.0000
vt 16.4844 0.0000
vt 17.1182 -16.0000
vt 17.1182 -16.0000
vt 16.3906 0.0000
vt 17.1182 -16.0000
vt 16.0000 0.0000
vt 16.3906 0.0000
vt 16.3594 0.0000
vt 0.0000 0.0000
vt 17.1182 -16.0000
vt 16.3906 0.0000
vt 17.1182 -16.0000
vt 16.0000 0.0000
vt 16.3125 0.0000
vt 16.4062 0.0000
vt 16.0000 0.0000
vt 16.3125 0.0000
vt 16.4062 0.0000
vt 17.1182 -16.0000
vt 16.3125 0.0000
vt 16.6348 0.0000
vt 16.3906 0.0000
vt 16.0625 0.0000
vt 16.0625 0.0000
vt 17.1182 -16.0000
vt 16.3125 0.0000
vt 16.0625 0.0000
vt 16.3438 0.0000
vt 16.4453 0.0000
vt 0.0000 0.1406
vt 16.5703 0.0000
vt 17.1182 -16.0000
vt 16.3125 0.0000
vt 16.0625 0.0000
vt 16.3438 0.0000
vt 16.4453 0.0000
vt 0.0000 0.1406
vt 16.5703 0.0000
vt 16.4062 0.0000
vt 16.5703 0.0000
vt 17.1182 -16.0000
vt 16.3125 0.0000
vt 17.1182 -16.0000
vt 17.1182 -16.0000
vt 16.5098 -25.5996
vt 17.1182 -16.0000
vt 17.1182 -16.0000
vt 17.1182 -16.0000
vt 16.3594 0.0000
vt 17.1182 -16.0000
vt 16.4297 0.0000
vt 16.3125 0.0000
vt 17.1182 -16.0000
vt 16.3594 0.0000
vt 16.0625 0.0000
vt 17.1182 -16.0000
vt 16.4844 0.0000
vt 16.2969 0.0000
vt 16.4844 0.0000
vt 16.2969 0.0000
vt 17.1182 -16.0000
vt 17.1182 -16.0000
vt 16.0312 0.0000
vt 16.3105 -17.9199
vt 16.5244 0.0000
vt 17.1182 -16.0000
vt 16.1562 0.0000
vt 16.3594 0.0000
vt 17.1182 -16.0000
vt 16.4609 0.0000
vt 16.0000 0.0000
vt 17.1182 -16.0000
vt 15.8750 0.0000
vt 15.8750 0.0000
vt 16.4531 0.0000
vt 16.1562 0.0000
vt 16.4453 0.0000
vt 16.0000 0.0000
vt 16.3750 0.0000
vt 15.8750 0.0000
vt 16.4531 0.0000
vt 16.0000 0.0000
vt 17.1182 -16.0000
vt 16.3906 0.0000
vt 16.5000 0.0000
vt 17.1182 -16.0000
vt 16.2188 0.0000
vt 15.4697 17.9199
vt 16.5312 0.0000
vt 15.4697 17.9199
vt 17.1182 -16.0000
vt 17.1182 -16.0000
vt 16.4531 0.0000
vt 16.3594 0.0000
vt 17.1182 -16.0000
vt 15.8750 0.0000
vt 17.1182 -16.0000
vt 16.5010 -25.5996
vt 16.6250 0.0000
vt 16.7285 -12.7998
vt 17.1182 -16.0000
vt 16.7383 0.0000
vt 0.0000 0.0000
vt 16.2656 0.0000
vt 15.8750 0.0000
vt 17.1182 -16.0000
vt 15.8750 0.0000
vt 16.3281 0.0000
vt 16.0596 28.1602
vt 15.8857 -30.7197
vt 17.1182 -16.0000
vt 15.8750 0.0000
vt 16.2812 0.0000
vt 16.3438 0.0000
vt 16.3848 10.2402
vt 16.0527 25.5996
vt 16.3965 -12.7998
vt 16.3965 -12.7998
vt 0.0000 0.0469
vt 0.0000 0.0469
vt 16.2500 0.0000
vt 17.1182 -16.0000
vt 16.5117 0.0000
vt 0.0000 0.0000
vt 0.0000 0.0000
vt 0.0000 0.0645
vt 16.4062 0.0000
vt 16.5391 0.0000
vt 16.6172 0.0000
vt 16.7217 3.8398
vt 16.7510 -17.2803
vt 16.8105 0.0000
vt 0.0000 0.0000
vt 0.0000 0.0967
vt 16.6758 0.0000
vt 16.3750 0.0000
vt 17.1182 -16.0000
vt 16.3828 0.0000
vt 17.1182 -16.0000
vt 16.4062 0.0000
vt 17.1182 -16.0000
vt 16.0000 0.0000
vt 17.1182 -16.0000
vt 16.3906 0.0000
vt 17.1182 -16.0000
vt 17.1182 -16.0000
vt 16.4141 0.0000
vt 16.6699 0.0000
vt 16.3125 0.0000
vt 17.1182 -16.0000
vt 17.1182 -16.0000
vt 16.5303 12.7998
vt 16.6602 0.0000
vt 16.0000 0.0000
vt 17.1182 -16.0000
vt 16.3984 0.0000
vt 0.0000 0.0088
vt 16.3906 0.0000
vt 16.4531 0.0000
vt 16.6055 0.0000
vt 16.6055 0.0000
vt 16.6055 0.0000
vt 16.6016 0.0000
vt 16.1250 0.0000
vt 17.1182 -16.0000
vt 17.1182 -16.0000
vt 15.8750 0.0000
vt 15.8750 0.0000
vt 0.0000 0.0000
vt 17.1182 -16.0000
vt 16.2812 0.0000
vt 16.5625 0.0000
vt 17.1182 -16.0000
vt 17.1182 -16.0000
vt 0.0000 0.0000
vt 0.0000 0.0029
vt 0.0000 0.0000
vt 16.3281 0.0000
vt 16.4922 0.0000
vt 16.5078 0.0000
vt 0.0000 0.0518
vt 17.1182 -16.0000
vt 16.1875 0.0000
vt 16.4062 0.0000
vt 0.0000 0.0000
vt 16.3281 0.0000
vt 0.0000 0.0000
vt 16.3281 0.0000
vt 16.1875 0.0000
vt 0.0000 0.0000
vt 16.5273 0.0000
vt 17.1182 -16.0000
vt 16.4062 0.0000
vt 17.1182 -16.0000
vt 17.1182 -16.0000
vt 17.1182 -16.0000
vt 0.0000 0.0000
vt 17.1182 -16.0000
vt 16.5195 0.0000
vt 8.7500 0.0479
vt 8.7500 0.1758
vt 8.7500 0.0479
vt 8.7500 0.1328
vt -26.5000 0.2354
vt -16.5000 0.2373
vt 0.2500 0.0195
vt 13.7500 0.0000
vt 0.0000 5.0000
vt 15.5000 0.0000
vt 16.0000 0.0000
vt 17.0000 0.0000
vt 0.2500 0.0000
vt 0.0000 0.0000
vt 0.2500 0.0000
vt 1.7500 0.0000
vt 6.5000 0.0000
vt 7.2188 12.5000
vt 14.5000 0.0000
vt 0.0000 0.0000
vt -2.2422 0.0020
vt 0.2188 8.0078
vt 0.0000 0.0000
vt 0.2188 8.0078
vt 0.0000 0.0000
vt 0.0068 0.0000
vt 0.0000 0.0000
vt 12.2500 0.0000
vt 0.2490 21.0479
vt 3.8389 4.0020
vt 22.8750 0.5039
vt 0.4990 -1.9922
vt -15.9736 0.2588
vt 0.0000 28.5010
vt 16.6299 0.0000
vt 0.0000 25.8848
vt 3.0000 0.0000
vt -1.4951 3.5010
vt 5.0000 0.2646
vt 20.1172 0.1582
vt 0.4453 0.0488
vt 0.0000 0.0000
vt 0.2578 0.1045
vt 26.7500 0.0000
vt 0.0000 0.0107
vt 0.0215 -0.9385
vt 24.7490 0.0010
vt 0.0059 -30.3369
vt 0.0078 0.0000
vt 25.5156 -0.4766
vt 0.3740 -1.5693
vt 7.0029 0.0000
vt 2.5049 18.1631
vt -1.2500 12.5000
vt 2.0000 0.1006
vt 12.8477 0.0000
vt 0.0000 0.1240
vt 15.0000 -15.7627
vt -17.5068 0.2529
vt -2.0000 12.5000
vt 0.0264 0.0264
vt -17.5039 0.2520
vt 2.5977 0.0117
vt 0.0312 -1.3994
vt 23.9912 0.0000
vt 8.0000 8.2441
vt 0.0000 0.0000
vt 0.2520 0.0566
vt 6.7500 0.0078
vt 0.0000 2.0000
vt 6.7500 6.7500
vt 2.0000 6.7500
vt 0.0000 0.0000
vt 0.2432 -15.9209
vt 0.2588 0.5068
vt 1.5000 0.6006
vt 2.0000 -17.5059
vt 28.0059 0.0000
vt 0.0000 0.0117
vt -15.9219 0.2588
vt -1.2500 0.2490
vt -26.9902 12.5000
vt 1.5000 0.7500
vt 0.0410 0.0000
vt 0.5000 0.0000
vt 1.0000 0.0000
vt 1.5000 0.0000
vt 2.0000 0.0000
vt 2.5000 0.0000
vt 3.0000 0.0000
vt 3.5000 0.0000
vt 4.0000 0.0000
f 3/3 1/1 1/1
f 1/1 1/1 1/1
f 2/2 1/1 1/1
f 4/4 1/1 1/1
f 5/5 1/1 1/1
f 6/6 1/1 1/1
f 7/7 1/1 1/1
f 8/8 1/1 1/1
f 9/9 1/1 9/9
f 10/10 1/1 1/1
f 12/12 1/1 9/9
f 11/11 1/1 1/1
f 13/13 1/1 1/1
f 18/18 1/1 1/1
f 14/14 1/1 1/1
f 15/15 1/1 1/1
f 17/17 1/1 1/1
f 16/16 1/1 1/1
f 19/19 1/1 1/1
f 20/20 1/1 1/1
f 21/21 1/1 1/1
f 22/22 1/1 1/1
f 23/23 1/1 1/1
f 24/24 1/1 1/1
f 24/24 1/1 1/1
f 25/25 1/1 1/1
f 25/25 1/1 1/1
f 25/25 1/1 1/1
f 25/25 1/1 1/1
f 26/26 1/1 1/1
f 27/27 1/1 1/1
f 28/28 1/1 1/1
f 29/29 1/1 1/1
f 30/30 1/1 1/1
f 31/31 1/1 1/1
f 32/32 1/1 1/1
f 33/33 1/1 1/1
f 34/34 1/1 1/1
f 35/35 1/1 1/1
f 36/36 1/1 1/1
f 37/37 1/1 1/1
f 38/38 1/1 1/1
f 39/39 1/1 1/1
f 40/40 1/1 1/1
f 41/41 1/1 1/1
f 42/42 1/1 1/1
f 43/43 1/1 1/1
f 44/44 1/1 1/1
f 45/45 1/1 1/1
f 46/46 1/1 1/1
f 47/47 1/1 1/1
f 48/48 1/1 1/1
f 49/49 1/1 1/1
f 50/50 1/1 1/1
f 51/51 1/1 1/1
f 52/52 1/1 1/1
f 53/53 1/1 1/1
f 54/54 1/1 1/1
f 55/55 1/1 1/1
f 56/56 1/1 1/1
f 57/57 1/1 1/1
f 58/58 1/1 1/1
f 59/59 1/1 1/1
f 60/60 1/1 1/1
f 61/61 1/1 1/1
f 62/62 1/1 1/1
f 63/63 1/1 1/1
f 64/64 1/1 1/1
f 65/65 1/1 1/1
f 66/66 1/1 1/1
f 67/67 1/1 1/1
f 68/68 1/1 1/1
f 69/69 1/1 1/1
f 70/70 1/1 1/1
f 71/71 1/1 1/1
f 72/72 1/1 30/30
f 73/73 1/1 1/1
f 74/74 1/1 1/1
f 75/75 1/1 1/1
f 76/76 1/1 1/1
f 77/77 1/1 1/1
f 78/78 1/1 1/1
f 79/79 1/1 1/1
f 80/80 1/1 1/1
f 81/81 1/1 1/1
f 82/82 1/1 1/1
f 83/83 1/1 1/1
f 84/84 1/1 1/1
f 85/85 1/1 1/1
f 86/86 1/1 1/1
f 87/87 1/1 1/1
f 88/88 1/1 1/1
f 89/89 1/1 1/1
f 90/90 1/1 1/1
f 91/91 1/1 1/1
f 92/92 1/1 1/1
f 93/93 1/1 1/1
f 94/94 1/1 1/1
f 95/95 1/1 1/1
f 96/96 1/1 1/1
f 97/97 1/1 1/1
f 98/98 1/1 1/1
f 99/99 1/1 1/1
f 100/100 1/1 1/1
f 101/101 1/1 1/1
f 102/102 1/1 1/1
f 103/103 1/1 1/1
f 104/104 1/1 1/1
f 105/105 1/1 1/1
f 106/106 1/1 1/1
f 107/107 1/1 1/1
f 108/108 1/1 1/1
f 109/109 1/1 1/1
f 110/110 1/1 1/1
f 111/111 1/1 1/1
f 112/112 1/1 1/1
f 113/113 1/1 1/1
f 114/114 1/1 1/1
f 115/115 1/1 1/1
f 116/116 1/1 1/1
f 117/117 1/1 1/1
f 118/118 1/1 1/1
f 119/119 1/1 1/1
f 120/120 1/1 1/1
f 121/121 1/1 1/1
f 122/122 1/1 1/1
f 123/123 1/1 1/1
f 124/124 1/1 1/1
f 125/125 1/1 1/1
f 126/126 1/1 1/1
f 1/1 1/1 36/36
f 25/25 1/1 1/1
f 1/1 1/1 31/31
f 25/25 1/1 1/1
f 1/1 1/1 41/41
f 101/101 1/1 1/1
f 1/1 1/1 13/13
f 61/61 97/97 1/1
f 1/1 1/1 40/40
f 85/85 31/31 57/57
f 1/1 1/1 40/40
f 85/85 31/31 57/57
f 17/17 2/2 128/128
f 111/111 72/72 47/47
f 33/33 1/1 21/21
f 1/1 1/1 1/1
f 96/96 1/1 21/21
f 65/65 1/1 1/1
f 1/1 1/1 1/1
f 1/1 1/1 1/1
f 1/1 1/1 85/85
f 4/4 1/1 2/2
f 46/46 1/1 1/1
f 2/2 98/98 93/93
f 2/2 3/3 25/25
f 19/19 3/3 1/1
f 52/52 67/67 126/126
f 1/1 26/26 64/64
f 67/67 2/2 31/31
f 128/128 127/127 6/6
f 119/119 84/84 126/126
f 119/119 84/84 126/126
f 122/122 84/84 125/125
f 128/128 1/1 93/93
f 1/1 2/2 1/1
f 1/1 2/2 52/52
f 6/6 51/51 1/1
f 1/1 2/2 1/1
f 33/33 1/1 1/1
f 1/1 1/1 1/1
f 1/1 1/1 1/1
f 1/1 54/54 65/65
