# Conker's Bad Fur Day — Real 3D Model (Multiplayer Level Models)
o assets09_model_065

v 0.0000 28.4000 0.0000
v 0.3500 3.8600 -2.5800
v 4.9000 3.8400 -2.5800
v 2.6600 5.1000 -2.5800
v 0.2700 1.3600 -2.5800
v 4.8200 1.3500 -2.5800
v 2.5100 0.1100 -2.5800
v 3.0200 -0.5800 -2.5800
v -0.0600 8.7600 -2.5800
v 2.8700 10.8500 -2.5800
v 0.0400 1.4900 -2.5800
v 10.1300 8.4500 -2.5800
v 10.1300 7.1200 -2.5800
v 2.8500 7.1400 -2.5800
v 10.1400 2.4800 -2.5800
v 2.8500 2.5000 -2.5800
v 10.1400 1.1500 -2.5800
v 2.8600 1.1600 -2.5800
v 0.3600 6.5500 -2.5800
v 0.3800 3.0700 -2.5800
v 2.8500 8.4700 -2.5800
v 2.8700 10.8500 -2.5800
v -0.0600 8.7600 -2.5800
v 3.0200 -0.5800 -2.5800
v 0.0400 1.4900 -2.5800
v 2.8500 7.1400 -2.5800
v 10.1300 8.4500 -2.5800
v 2.8500 8.4700 -2.5800
v 10.1300 7.1200 -2.5800
v 10.1400 2.4800 -2.5800
v 2.8500 2.5000 -2.5800
v 10.1400 1.1500 -2.5800
v 2.8600 1.1600 -2.5800
v 0.3600 6.5500 -2.5800
v 0.3800 3.0700 -2.5800
v 0.1000 9.4300 -2.5800
v 10.2100 9.7500 -2.5800
v 1.8400 0.3900 -2.5800
v 8.9800 0.3000 -2.5800
v 10.2400 10.2400 -2.5800
v 10.2400 0.0000 -2.5800
v 0.0000 0.0000 -2.5800
v 0.0000 0.0000 -2.5800
v 10.2400 0.0000 -2.5800
v 10.2400 10.2400 -2.5800
v 0.0000 10.2400 -2.5800
v 0.0000 10.2400 -2.5800
v 6.2800 6.5000 -2.5800
v 4.6000 8.3200 -2.5800
v 9.8500 10.5900 -2.5800
v 1.6700 4.8000 -2.5800
v 4.1900 3.6100 -2.5800
v 0.0300 0.0900 -2.5800
v 3.5200 0.0400 -2.5800
v 10.1200 6.6500 -2.5800
v 7.7600 4.8100 -2.5800
v 6.9800 2.7100 -2.5800
v 6.9600 0.0300 -2.5800
v 9.8500 10.5900 -2.5800
v 6.2800 6.5000 -2.5800
v 4.1900 3.6100 -2.5800
v 3.5200 0.0400 -2.5800
v 10.1200 6.6500 -2.5800
v 0.5500 -30.5300 -2.5800
v 7.9500 -30.1000 -2.5800
v 4.2600 -30.2300 -2.5800
v 4.2500 -30.3200 -2.5800
v 0.0000 0.0000 -2.5800
v 0.0000 0.0000 -2.5800
v 0.0000 0.0000 -2.5800
v 0.0000 0.0000 -2.5800
v 0.0000 0.0000 -2.5800
v 0.0000 0.0000 -2.5800
v 0.0000 0.0000 -2.5800
v 0.0000 0.0000 -2.5800
v 0.0000 0.0000 -2.5800
v 0.0000 0.0000 -2.5800
v 0.0000 0.0000 -2.5800
v 0.0000 0.0000 -2.5800
v 0.0000 0.0000 -2.5800
v 0.0000 0.0000 -2.5800
v 0.0000 0.0000 -2.5800
v 0.0000 0.0000 -2.5800
v 0.0000 0.0000 -2.5800
v 0.0000 0.0000 -2.5800
v 0.0000 0.0000 -2.5800
v 0.0000 0.0000 -2.5800
v 0.0000 0.0000 -2.5800
v 0.0000 0.0000 -2.5800
v 0.0000 0.0000 -2.5800
v 0.0000 0.0000 -2.5800
v 0.0000 0.0000 -2.5800
v 0.0000 0.0000 -2.5800
v 0.0000 0.0000 -2.5800
v 0.0000 0.0000 -2.5800
v 0.0000 0.0000 -2.5800
v 0.0000 0.0000 -2.5800
v 0.0000 0.0000 -2.5800
v 0.0000 0.0000 -2.5800
v 0.0000 0.0000 -2.5800
v 0.0000 0.0000 -2.5800
v 0.0000 0.0000 -2.5800
v 0.0000 0.0000 -2.5800
v 0.0000 0.0000 -2.5800
v 0.0000 0.0000 -2.5800
v 0.0000 0.0000 -2.5800
v 0.0000 0.0000 -2.5800
v 0.0000 0.0000 -2.5800
v 0.0000 0.0000 -2.5800
v 0.0000 0.0000 -2.5800
v 0.0000 0.0000 -2.5800
v 0.0000 0.0000 -2.5800
v 0.0000 0.0000 -2.5800
v 0.0000 0.0000 -2.5800
v 0.0000 0.0000 -2.5800
v 0.0000 0.0000 -2.5800
v 0.0000 0.0000 -2.5800
v 0.0000 0.0000 -2.5800
v 0.0000 0.0000 -2.5800
v 0.0000 0.0000 -2.5800
v 0.0000 0.0000 -2.5800
v 0.0000 0.0000 -2.5800
v 0.0000 0.0000 -2.5800
v 0.0000 0.0000 -2.5800
v 0.0000 0.0000 -2.5800
v 0.0000 0.0000 -2.5800
v 0.0000 0.0000 -2.5800
v 0.0000 0.0000 -2.5800
v 0.0000 0.0000 -2.5800
v 0.0000 0.0000 -2.5800
v 0.0000 0.0000 -2.5800
v 0.0000 0.0000 -2.5800
v 0.0000 0.0000 -2.5800
v 0.0000 0.0000 -2.5800
v 0.0000 0.0000 -2.5800
v 0.0000 0.0000 -2.5800
v 0.0000 0.0000 -2.5800
v 0.0000 0.0000 -2.5800
v 0.0000 0.0000 -2.5800
v 0.0000 0.0000 -2.5800
v 0.0000 0.0000 -2.5800
v 0.0000 0.0000 -2.5800
v 0.0000 0.0000 -2.5800
v 0.0000 0.0000 -2.5800
v 0.0000 0.0000 -2.5800
v 0.0000 0.0000 -0.0100
v 0.0000 0.0000 -0.0100
v 0.0000 0.0000 -0.0100
v 0.0000 0.0000 -0.0100
v 0.0000 0.0000 -2.5800
v 0.0000 0.0000 -2.5800
v 0.0000 0.0000 -2.5800
v 0.0000 0.0000 -2.5800
v 0.0000 0.0000 -2.5800
v 0.0000 0.0000 -2.5800
v 0.0000 0.0000 -2.5800
v 0.0000 0.0000 -2.5800
v 0.0000 0.0000 -2.5800
v 0.0000 0.0000 -2.5800
v 0.0000 0.0000 -2.5800
v 0.0000 0.0000 -2.5800
v 0.0000 0.0000 -2.5800
v 0.0000 0.0000 -2.5800
v 0.0000 0.0000 -2.5800
v 0.0000 0.0000 -2.5800
v 0.0000 0.0000 -2.5800
v 0.0000 0.0000 -2.5800
v 0.0000 0.0000 -2.5800
v 0.0000 0.0000 -2.5800
v 0.0000 0.0000 -2.5800
v 0.0000 0.0000 -2.5800
v 0.0000 0.0000 -2.5800
v 0.0000 0.0000 -2.5800
v 0.0000 0.0000 -0.0100
v 0.0000 0.0000 -0.0100
v 0.0000 0.0000 -0.0100
v 0.0000 0.0000 -0.0100
v -28.0000 0.0000 17.9200
v -33.2800 0.0000 17.9900
v -28.1600 2.5600 15.3600
v -7.5200 0.0000 0.6400
v -7.5200 0.0000 0.6400
v -7.5200 0.0000 0.6400
v -7.5200 0.0000 0.0000
v -33.2800 0.0000 18.0700
v -28.0800 10.2400 0.0900
v -7.5200 0.0000 0.6400
v 15.6000 20.6000 0.2200
v -7.4400 0.0000 0.0000
v -28.0000 0.0000 17.9200
v -33.2800 0.0000 18.2300
v -28.0800 20.4800 0.0900
v -7.5200 0.0000 0.0000
v -33.2800 0.0000 18.2300
v -7.5200 0.0000 0.0000
v -33.2800 0.0000 18.3400
v -28.0800 20.4800 0.0100
v 12.8000 30.7400 0.0000
v 15.3600 5.1600 0.0600
v 15.5400 5.2800 0.0000
v 15.4600 35.9600 0.1400
v 2.5800 0.6400 2.5600
v 1.2900 1.2900 1.2900
v 1.8100 1.3400 1.3900
v 0.6800 0.0000 0.0000
v 1.2900 0.0600 0.0600
v 1.3200 0.0000 0.0000
v 0.0700 1.9600 0.0000
v 4.4800 -3.2000 -5.1200
vt 0.0000 0.0000
vt 0.0078 -0.1445
vt 0.0010 -0.1445
vt -0.0068 -0.1445
vt 0.0078 -0.1445
vt 0.0010 -0.1445
vt 0.0068 -0.0576
vt 0.0107 -0.0576
vt 0.0068 -0.0576
vt 0.0107 -0.0576
vt 0.0068 -0.0576
vt 0.0107 -0.0576
vt 0.0107 -0.0400
vt 0.0107 -0.0576
vt 0.0107 -0.0400
vt 0.0068 -0.0576
vt 0.0068 -0.0400
vt 0.0068 -0.0342
vt 0.0068 -0.0342
vt 0.0068 -0.0400
vt -0.0049 -0.0576
vt -0.0098 -0.0576
vt -0.0049 -0.0576
vt -0.0098 -0.0576
vt -0.0098 -0.0400
vt -0.0049 -0.0576
vt -0.0049 -0.0400
vt -0.0098 -0.0576
vt -0.0098 -0.0576
vt -0.0098 -0.0400
vt -0.0049 -0.0576
vt -0.0049 -0.0400
vt -0.0049 -0.0342
vt -0.0049 -0.0342
vt 0.0010 -0.0312
vt 0.0010 -0.0547
vt 0.0010 -0.0361
vt 0.0010 -0.0518
vt 0.0088 -0.0283
vt 0.0010 -0.0283
vt -0.0068 -0.0283
vt -0.0088 -0.0693
vt 0.0010 -0.0693
vt 0.0098 -0.0693
vt 0.0000 -0.0693
vt 0.0010 -0.0283
vt 0.0068 -0.0186
vt 0.0010 -0.0127
vt 0.0068 -0.0303
vt 0.0010 -0.0020
vt 0.0078 -0.0107
vt 0.0010 0.0029
vt 0.0098 -0.0088
vt 0.0068 -0.0312
vt 0.0010 -0.0234
vt 0.0010 -0.0205
vt 0.0010 -0.0205
vt -0.0049 -0.0303
vt -0.0049 -0.0186
vt -0.0059 -0.0107
vt -0.0078 -0.0088
vt -0.0049 -0.0312
vt 0.0098 -0.0088
vt -0.0078 -0.0088
vt 0.0010 0.0029
vt 0.0010 -0.0205
vt 0.0068 -0.0605
vt 0.0068 -0.0361
vt 0.0068 -0.0605
vt 0.0068 -0.0312
vt 0.0068 -0.0303
vt 0.0068 -0.0312
vt -0.0049 -0.0605
vt -0.0049 -0.0361
vt -0.0049 -0.0605
vt -0.0049 -0.0312
vt -0.0049 -0.0303
vt -0.0049 -0.0312
vt 0.0010 -0.0225
vt -0.0020 -0.0273
vt 0.0010 -0.0215
vt 0.0010 -0.0215
vt 0.0029 -0.0273
vt 0.0010 -0.0225
vt -0.0020 -0.0381
vt 0.0039 -0.0381
vt 0.0010 -0.0332
vt 0.0010 -0.0410
vt 0.0029 -0.0879
vt 0.0010 -0.0879
vt 0.0010 -0.0879
vt -0.0010 -0.0879
vt 0.0010 -0.0410
vt -0.0010 -0.0879
vt 0.0010 -0.0879
vt 0.0029 -0.0879
vt 0.0010 -0.0410
vt -0.0010 -0.0879
vt 0.0029 -0.0879
vt 0.0039 -0.0850
vt -0.0029 -0.0850
vt 0.0010 -0.0850
vt 0.0010 -0.0830
vt -0.0029 -0.0830
vt 0.0039 -0.0830
vt 0.0039 -0.0830
vt 0.0039 -0.0850
vt 0.0010 -0.0830
vt 0.0010 -0.0850
vt -0.0029 -0.0830
vt -0.0029 -0.0850
vt 0.0039 -0.0850
vt 0.0039 -0.0830
vt -0.0029 -0.0850
vt -0.0029 -0.0830
vt 0.0010 -0.0830
vt 0.0010 -0.0850
vt 0.0010 -0.1279
vt -0.0020 -0.1416
vt 0.0010 -0.1396
vt 0.0010 -0.1396
vt 0.0039 -0.1416
vt 0.0010 -0.1279
vt 0.0039 -0.1416
vt 0.0010 -0.1396
vt -0.0020 -0.1416
vt -0.0039 -0.0605
vt -0.0068 -0.1445
vt -0.0068 -0.1445
vt 0.0010 -0.0605
vt 0.0010 -0.1445
vt 0.0078 -0.1445
vt 0.0059 -0.0605
vt 0.0078 -0.1445
vt 0.0010 -0.0605
vt 0.0010 -0.1445
vt -0.0020 -0.0400
vt 0.0010 -0.0449
vt 0.0010 -0.0420
vt 0.0039 -0.0400
vt 0.0010 -0.0557
vt 0.0039 -0.0508
vt 0.0010 -0.0527
vt -0.0020 -0.0508
vt 0.0088 -0.0576
vt -0.0068 -0.0576
vt 0.0010 -0.0576
vt 0.0010 -0.0576
vt 0.0088 -0.0576
vt 0.0010 -0.0576
vt 0.0098 -0.0693
vt 0.0010 -0.0576
vt 0.0010 -0.0693
vt 0.0000 -0.0693
vt 0.0010 -0.0576
vt 0.0068 -0.0576
vt 0.0010 -0.0371
vt 0.0068 -0.0371
vt -0.0049 -0.0361
vt 0.0010 -0.0371
vt -0.0049 -0.0576
vt 0.0010 -0.0576
vt -0.0088 -0.0693
vt -0.0068 -0.0576
vt 0.0010 -0.0371
vt 0.0088 -0.0283
vt 0.0010 -0.0283
vt 0.0078 -0.0371
vt 0.0010 -0.0371
vt 0.0010 -0.0283
vt -0.0068 -0.0283
vt -0.0059 -0.0361
vt 0.0010 -0.0371
vt 0.0078 -0.0371
vt -0.0059 -0.0361
vt 0.0010 -0.0371
vt 0.0000 2.7812
vt -6.5000 0.0000
vt -6.2500 0.0000
vt -6.5000 0.0000
vt -4.0000 0.0000
vt -4.0000 0.0000
vt -4.0000 0.0000
vt -6.5000 0.0000
vt -6.2500 0.0000
vt -3.5000 8.0020
vt -4.0000 0.0000
vt -6.2500 0.0000
vt -2.7266 0.0000
vt -6.5000 0.0000
vt -6.2500 0.0000
vt -8.5000 0.0000
vt -6.5000 0.0000
vt -6.2500 0.0000
vt -6.5000 0.0000
vt -6.2500 0.0000
vt -2.7422 1.1250
vt -9.5049 -0.0010
vt 1.2617 3.5156
vt -9.5049 -0.0010
vt -9.5049 -0.0010
vt 4.5234 -27.8379
vt 0.1260 0.1260
vt -31.4961 -30.7715
vt 0.0000 0.0000
vt 0.1260 0.1260
vt 0.0000 0.0000
vt 0.0000 0.0000
vt -0.5000 31.7490
f 1/1 2/2 3/3
f 1/1 4/4 2/2
f 13/13 9/9 11/11
f 14/14 5/5 7/7
f 1/1 2/2 3/3
f 2/2 4/4 3/3
f 13/13 5/5 7/7
f 12/12 10/10 14/14
f 1/1 2/2 3/3
f 2/2 4/4 3/3
f 17/17 18/18 19/19
f 17/17 20/20 18/18
f 4/4 10/10 2/2
f 10/10 8/8 2/2
f 1/1 7/7 2/2
f 1/1 2/2 3/3
f 4/4 5/5 6/6
f 7/7 8/8 9/9
f 10/10 2/2 9/9
f 1/1 9/9 2/2
f 6/6 8/8 7/7
f 8/8 5/5 7/7
