mtllib assets0A_model_007.mtl
# Conker's Bad Fur Day — Real 3D Model (Bat's Tower Level Models)
o assets0A_model_007
usemtl assets0A_model_007_mat

v 0.0000 0.4800 0.0000
v 0.0000 12.2400 0.0000
v 0.0000 22.4800 0.0000
v 0.1000 1.8100 0.2400
v 0.1000 -29.6000 0.1000
v -13.0600 -5.3700 0.1100
v 7.6800 0.0000 0.0000
v -6.9600 38.8100 -12.3900
v 0.9200 0.3400 0.1800
v 0.9200 0.3400 0.1800
v 0.9200 0.3400 0.1800
v 0.9200 0.3400 0.1800
v 0.9200 0.3400 0.1800
v 0.9200 0.3400 0.1800
v 0.9200 0.3400 0.1800
v 0.9200 0.3400 0.1800
v 0.9200 0.3400 0.1800
v 0.9200 0.3400 0.1800
v 0.9200 0.3400 0.1800
v 0.9200 0.3400 0.1800
v 0.9200 0.3400 0.1800
v 0.9200 0.3400 0.1800
v 0.9200 0.3400 0.1800
v 0.9200 0.3400 0.1800
v 0.9200 0.3400 0.1800
v 0.9200 0.3400 0.1800
v 0.9200 0.3400 0.1800
v 0.9200 0.3400 0.1800
v 0.9200 0.3400 0.1800
v 0.9200 0.3400 0.1800
v 0.9200 0.3400 0.1800
v 0.9200 0.3400 0.1800
v 0.9200 0.3400 0.1800
v 0.9200 0.3400 0.1800
v 0.9200 0.3400 0.1800
v 0.9200 0.3400 0.1800
v 0.9200 0.3400 0.1800
v 0.9200 0.3400 0.1800
v 0.9200 0.3400 0.1800
vt 0.0000 0.1172
vt 0.0000 1.2578
vt 0.0000 2.2656
vt 0.7500 0.0156
vt 0.0000 0.0000
vt 0.0625 4.0049
vt 0.0000 0.0000
vt -8.5850 -8.7119
vt 1.3633 -15.3418
vt 1.4258 -31.3418
vt -30.5742 -31.3105
vt 1.4258 -31.3105
vt 1.3633 -31.2803
vt -30.6992 -15.2490
vt 1.2383 -15.2178
vt 1.1758 -15.2188
vt -30.8867 -15.1875
vt 1.0518 0.8438
vt 0.9893 0.8438
vt -31.0107 0.8750
vt 1.0508 -15.1250
vt 1.1133 -15.0938
vt -30.7617 -31.0938
vt 1.4258 16.9062
vt -30.3252 -15.0928
vt 1.9873 -31.0928
vt 2.4238 -15.1230
vt 8.6680 0.1084
vt -31.9521 19.4453
vt -18.2109 6.9736
vt -8.9209 24.3604
vt -6.3086 -23.0068
vt 26.2510 25.2451
vt -5.5625 9.3389
vt 26.3125 -22.6924
vt 26.0635 -6.7861
vt 25.7529 25.1191
vt 25.5039 -23.0068
vt 25.3799 24.9619
f 1/1 2/2 3/3
f 4/4 5/5 6/6
f 7/7 8/8 9/9
f 10/10 11/11 12/12
f 13/13 14/14 15/15
f 16/16 17/17 18/18
f 19/19 20/20 21/21
f 22/22 23/23 24/24
f 25/25 26/26 27/27
f 28/28 29/29 30/30
f 31/31 32/32 33/33
f 34/34 35/35 36/36
f 37/37 38/38 39/39
