# Conker's Bad Fur Day — Real 3D Model (Multiplayer Level Models)
o assets09_model_181

v 0.0000 0.3200 0.0000
v 0.0000 7.0400 0.0000
v 0.0000 -0.1500 -0.3200
v 0.0000 0.1100 -0.3300
v 0.0000 0.2700 -0.5400
v 0.0000 -0.2300 -0.5100
v 0.0000 0.3700 -0.0900
v 0.0000 0.3200 0.3000
v 0.1200 0.0100 0.0500
v 0.0000 -0.1500 0.5500
v -0.1200 0.0100 0.0500
v 0.0000 -0.3700 0.1300
v 0.0000 -0.1500 -0.3200
v 0.0000 0.1100 -0.3300
v 0.0000 0.1100 -0.3300
v 0.0000 0.3700 -0.0900
v 0.0000 0.8100 -0.4000
v 0.0000 0.3700 -0.0900
v 0.0000 0.3200 0.3000
v 0.0000 0.8100 -0.4000
v 0.0000 -0.5700 -0.5000
v 0.0000 -0.3700 0.1300
v 0.0000 -0.1500 -0.3200
v 0.0000 -0.1500 -0.3200
v 0.0000 0.1100 -0.3300
v 0.0000 0.2700 -0.5400
v 0.0000 -0.2300 -0.5100
v 0.0000 0.3700 -0.0900
v 0.0000 0.3200 0.3000
v 0.1200 0.0100 0.0500
v 0.0000 -0.1500 0.5500
v -0.1200 0.0100 0.0500
v 0.0000 -0.3700 0.1300
v 0.0000 -0.1500 -0.3200
v 0.0000 0.1100 -0.3300
v 0.0000 0.1100 -0.3300
v 0.0000 0.3700 -0.0900
v 0.0000 0.8100 -0.4000
v 0.0000 0.3700 -0.0900
v 0.0000 0.3200 0.3000
v 0.0000 0.8100 -0.4000
v 0.0000 -0.5700 -0.5000
v 0.0000 -0.3700 0.1300
v 0.0000 -0.1500 -0.3200
v -28.0000 0.0000 17.9200
v -33.2800 0.0000 19.1900
v 12.8000 5.1600 0.0000
v 12.9200 25.7400 0.0000
v 12.9400 25.7600 0.0000
v 12.9600 20.7000 0.0000
v 13.0200 20.6000 0.0000
v 12.8000 5.1600 0.0000
vt 0.0000 0.3594
vt 0.0000 0.7891
vt 1.4961 0.2480
vt 1.4600 0.7803
vt 1.0176 1.0645
vt 1.1074 0.0449
vt 0.4355 0.9932
vt 0.8496 0.7168
vt 0.4688 0.5322
vt 0.9541 0.0869
vt 0.4688 0.5322
vt 0.4170 0.0957
vt 0.0000 0.5742
vt 0.0801 0.8486
vt 1.5303 0.0166
vt 1.7432 0.6152
vt 2.3320 0.6357
vt 1.7432 0.6152
vt 1.5547 1.1074
vt 2.3320 0.6357
vt 2.3838 0.7705
vt 1.5137 0.0430
vt 1.6172 1.0254
vt 1.4961 0.2480
vt 1.4600 0.7803
vt 1.0176 1.0645
vt 1.1074 0.0449
vt 0.4355 0.9932
vt 0.8496 0.7168
vt 0.4688 0.5322
vt 0.9541 0.0869
vt 0.4688 0.5322
vt 0.4170 0.0957
vt 0.0000 0.5742
vt 0.0801 0.8486
vt 1.5303 0.0166
vt 1.7432 0.6152
vt 2.3320 0.6357
vt 1.7432 0.6152
vt 1.5547 1.1074
vt 2.3320 0.6357
vt 2.3838 0.7705
vt 1.5137 0.0430
vt 1.6172 1.0254
vt -0.7344 0.0000
vt -2.7344 8.0000
vt 1.2559 0.0039
vt 1.2656 2.5078
vt 1.2637 4.0176
vt 1.2676 3.0137
vt -9.5010 -1.0010
vt 1.2559 2.0098
f 16/16 1/1 9/9
f 8/8 1/1 23/23
f 16/16 1/1 9/9
f 8/8 1/1 23/23
f 1/1 2/2 3/3
f 4/4 1/1 3/3
f 5/5 6/6 7/7
f 7/7 6/6 8/8
f 9/9 6/6 5/5
f 8/8 6/6 9/9
f 8/8 9/9 10/10
f 11/11 10/10 9/9
f 12/12 11/11 9/9
f 9/9 5/5 12/12
f 10/10 7/7 8/8
f 7/7 10/10 11/11
f 7/7 11/11 12/12
f 12/12 5/5 7/7
f 13/13 14/14 15/15
f 1/1 2/2 3/3
f 4/4 5/5 6/6
