# Conker's Bad Fur Day — Real 3D Model (Spooky Models)
o assets10_model_061

v 0.0000 0.6400 0.0000
v 0.0000 0.9600 0.0000
v 0.0000 1.2800 0.0000
v 0.0000 1.6000 0.0000
v -7.2300 -1.7500 24.6700
v -4.9700 1.3200 14.0000
v 6.4400 4.7600 13.6300
v 11.8400 9.2800 -4.3500
v 0.1700 11.6200 -2.8200
v -8.5400 14.9800 -12.9200
v -5.6300 15.5700 -12.9600
vt 0.0000 0.0781
vt 0.0000 0.1094
vt 0.0000 0.1406
vt 0.0000 0.1719
vt -0.7061 -0.1709
vt -0.4854 0.1289
vt 0.6289 0.4648
vt 1.1562 0.9062
vt 0.0166 1.1348
vt -0.8340 1.4629
vt -0.5498 1.5205
f 1/1 2/2 3/3
f 4/4 5/5 6/6
f 7/7 8/8 9/9
