mtllib assets10_model_055.mtl
# Conker's Bad Fur Day — Real 3D Model (Spooky Models)
o assets10_model_055
usemtl assets10_model_055_mat

v 0.0000 1.1200 0.0000
v 0.0000 1.4400 0.0000
v 0.0000 1.7600 0.0000
v 0.0000 2.0800 0.0000
v 0.0000 2.4000 0.0000
v 0.0000 2.7200 0.0000
v 0.0000 3.0400 0.0000
v 4.1100 8.5000 4.2200
v -24.2900 4.5500 0.4700
v -24.2700 4.7400 0.4300
v -24.6500 4.7400 14.1600
v -30.7200 4.7400 8.8600
v -18.0000 4.7400 5.2000
v -17.9200 4.7400 9.1500
v -20.8200 4.7400 12.5000
v -28.6100 4.7400 12.2000
v -30.7500 4.7400 5.0500
v -30.7800 4.7400 5.1300
v 7.0100 10.7200 -8.1200
v 0.6900 20.2700 -19.2900
vt 0.0000 0.1250
vt 0.0000 0.1562
vt 0.0000 0.1875
vt 0.0000 0.2188
vt 0.0000 0.2500
vt 0.0000 0.2812
vt 0.0000 0.3125
vt 0.8682 1.0469
vt -2.3730 0.4443
vt -2.4033 0.4531
vt -2.9922 0.4385
vt -1.7520 0.4482
vt -1.7578 0.4629
vt -1.7773 0.4531
vt -2.0215 0.4629
vt -2.7949 0.4629
vt -3.0039 0.4629
vt -3.0059 0.4629
vt 0.6846 1.0469
vt 0.0674 1.9795
f 1/1 2/2 3/3
f 4/4 5/5 6/6
f 7/7 8/8 9/9
f 10/10 11/11 12/12
f 13/13 14/14 15/15
f 16/16 17/17 18/18
