# Conker's Bad Fur Day — Real 3D Model (Multiplayer Level Models)
o assets09_model_045

v 0.0000 9.3600 0.0000
v 4.6500 10.2300 -0.0100
v -1.5700 6.4300 -0.0100
v 11.8900 8.0800 -0.0100
v 9.0000 0.4700 -0.0100
v 1.2000 -0.0600 -0.0100
v 0.1300 0.1400 -0.0100
v 4.8900 0.2300 -0.0100
v 2.5600 11.5200 -0.0100
v 0.6100 0.4400 -0.0100
v 2.7700 11.5700 -0.0100
v 4.8900 0.7500 -0.0100
v 0.3600 0.5000 -0.0100
v 3.1500 0.2600 -0.0100
v 1.5500 10.9700 -0.0100
v 2.7900 10.5500 -1.7100
v 5.1900 9.8500 -1.7100
v 2.2100 6.3600 -2.5800
v 1.6700 10.4200 -1.7100
v 5.0400 9.8600 -1.7100
v 2.8100 10.6800 -1.7100
v 1.9600 1.6200 -2.5800
v 4.6500 2.7800 -2.5800
v 8.2700 3.7000 -2.5800
v 9.0200 3.4600 -2.5800
v 3.1700 9.5000 -2.5800
v 5.8800 9.7600 -2.5800
v 7.9100 9.6400 -2.5800
v 9.0200 3.4600 -2.5800
v 10.4800 6.4900 -2.5800
v 8.2700 3.7000 -2.5800
v 8.9500 6.5400 -2.5800
v 10.4800 6.4900 -2.5800
v 2.7400 6.5000 -2.5800
v 6.3100 6.5300 -2.5800
v 5.7800 3.5400 -2.5800
v 3.1400 3.7800 -2.5800
v 1.1900 6.4900 -2.5800
v 4.6500 2.7800 -2.5800
v 1.6600 3.4800 -2.5800
v 3.2900 0.4100 -2.5800
v 3.4900 0.0700 -2.5800
v 2.2300 0.5600 -2.5800
v 4.1500 0.7100 -2.5800
v -28.0000 0.0000 17.9200
v -33.2800 0.0000 18.2300
v -28.1600 2.5600 15.3600
v -7.5200 0.0000 0.6400
v 12.8200 20.5400 0.0000
v -7.5200 0.0000 0.0000
v -33.2800 0.0000 18.2300
v -28.0800 10.2400 0.0900
v 15.4600 30.8600 0.1600
v -7.5200 0.0000 0.6400
v -7.5200 0.0000 0.0000
v -33.2800 0.0000 18.3400
v -28.0800 20.4800 0.0900
v -28.0800 11.5200 2.6500
v -28.0800 6.7200 5.2000
v -28.0800 6.8000 7.7600
vt 0.0000 0.0000
vt 0.0352 -0.0088
vt 0.0234 -0.0088
vt 0.0254 -0.0195
vt 0.0322 -0.0186
vt 0.0273 -0.0088
vt 0.0322 -0.0146
vt 0.0342 -0.0127
vt 0.0254 -0.0166
vt 0.0342 -0.0127
vt 0.0322 -0.0146
vt 0.0254 -0.0166
vt 0.0273 -0.0088
vt 0.0342 -0.0127
vt 0.0234 -0.0088
vt 0.0254 -0.0195
vt 0.0166 -0.0137
vt 0.0293 -0.0029
vt 0.0322 -0.0186
vt 0.0254 -0.0117
vt 0.0127 -0.0146
vt 0.0293 -0.0137
vt 0.0352 -0.0059
vt 0.0352 -0.0146
vt 0.0088 -0.0039
vt 0.0127 -0.0146
vt 0.0078 -0.0049
vt 0.0107 -0.0146
vt 0.0225 -0.0156
vt 0.0352 -0.0059
vt 0.0225 -0.0039
vt 0.0225 -0.0156
vt 0.0225 0.0000
vt 0.0225 0.0000
vt 0.0352 -0.0020
vt 0.0342 -0.0039
vt 0.0225 -0.0039
vt 0.0391 -0.0156
vt 0.0352 -0.0146
vt 0.0293 -0.0137
vt 0.0508 -0.0186
vt 0.0488 -0.0146
vt 0.0479 -0.0137
vt 0.0127 -0.0146
vt -6.5000 0.0000
vt -6.2500 0.0000
vt -6.5000 0.0000
vt -4.0000 0.0000
vt -6.2500 0.0000
vt -6.5000 0.0000
vt -6.2500 0.0000
vt -3.5000 8.0020
vt 1.2715 6.0254
vt -4.0000 0.0000
vt -6.5000 0.0000
vt -6.2500 0.0000
vt -3.5000 8.0020
vt -3.5000 8.0020
vt -3.5000 8.0020
vt -3.5000 8.0020
f 1/1 2/2 3/3
f 3/3 2/2 4/4
f 2/2 5/5 4/4
f 6/6 7/7 8/8
f 9/9 10/10 11/11
f 12/12 13/13 14/14
f 26/26 27/27 17/17
f 28/28 25/25 17/17
f 29/29 30/30 31/31
