# Conker's Bad Fur Day — Real 3D Model (Multiplayer Level Models)
o assets09_model_274

v 0.0000 4.2400 0.0000
v -27.3600 0.0000 17.9200
v -27.4400 20.4800 0.0100
v -7.5200 0.0000 0.6400
v 15.3600 5.1600 0.0200
v -6.2400 0.0000 0.0000
v -33.2800 0.0000 18.2300
v 13.0200 20.7400 0.0000
v -6.2400 0.0000 0.0000
v -26.8000 20.4800 0.0900
vt 0.0000 0.0000
vt -3.2500 0.0000
vt -3.4375 9.0020
vt -2.6562 0.2500
vt -6.2500 0.0000
vt -2.6094 0.0000
vt -2.6172 2.0000
vt -6.2500 0.0000
vt -3.2500 0.0000
vt -3.4375 9.0020
f 1/1 2/2 3/3
f 2/2 4/4 3/3
