# Conker's Bad Fur Day — Real 3D Model (HUD & UI Props)
o assets01_model_009

v 8.1200 9.1700 -0.0100
v 5.4700 9.1700 -0.0100
v 2.8200 9.1700 -0.0100
v 2.8200 9.1700 -0.0100
v 5.4700 9.1700 -0.0100
v 5.4700 9.1700 -0.0100
v 8.1200 9.1700 -0.0100
v 8.1200 9.1700 -0.0100
v 8.1200 9.1700 -0.0100
v 8.1200 9.1700 -0.0100
v 8.1200 9.1700 -0.0100
v 5.4700 9.1700 -0.0100
v 8.1200 9.1700 -0.0100
v 2.8200 9.1700 -0.0100
v 5.4700 9.1700 -0.0100
v 5.4700 9.1700 -0.0100
v 2.8200 9.1700 -0.0100
v 8.1200 9.1700 -0.0100
v 5.4700 9.1700 -0.0100
v 2.8200 9.1700 -0.0100
v 5.4700 9.1700 -0.0100
v 5.4700 9.1700 -0.0100
v 2.8200 9.1700 -0.0100
v 2.8200 9.1700 -0.0100
v 7.6800 10.2400 -0.0100
v 7.6800 0.0000 -0.0100
v 2.5600 10.2400 -0.0100
v 7.6800 10.2400 -0.0100
v 7.6800 10.2400 -0.0100
v 2.5600 10.2400 -0.0100
v 7.6800 10.2400 -0.0100
v 7.6800 0.0000 -0.0100
v 7.6900 19.5600 -2.5800
v 2.8400 16.0000 -2.5800
v 7.2200 13.5200 -0.0100
v 13.9100 13.5200 -0.0100
v 20.0600 10.2500 -0.0100
v 17.8400 16.3700 -2.5800
v 2.8400 16.0000 -2.5800
v 1.2300 13.2900 -0.0100
v 7.2200 13.5200 -0.0100
v 13.9100 13.5200 -0.0100
v 13.6100 19.5600 -2.5800
v 7.6900 19.5600 -2.5800
v 17.8400 16.3700 -2.5800
v 7.0900 6.6800 -0.0100
v 13.7900 6.6800 -0.0100
v 1.5700 8.6100 -0.0100
v 1.6200 11.8000 -0.0100
v 1.1100 7.0800 -0.0100
v 0.0000 20.4800 -2.5800
v 0.0000 0.0000 -2.5800
v 20.4800 20.4800 -2.5800
v 20.0600 10.2500 -0.0100
v 13.7900 6.6800 -0.0100
v 7.0900 6.6800 -0.0100
v 13.9100 13.5200 -0.0100
v 11.8100 20.8700 -0.0100
v 18.5900 17.0300 -0.0100
v 4.8600 20.0700 -0.0100
v -1.6800 14.7200 -0.0100
v 0.0000 0.0000 -0.0100
v -20.0000 -22.1600 -0.0100
v 21.2600 -20.8500 -0.0100
v 21.2600 -20.8500 -0.0100
v 22.0700 18.4400 -2.5800
v 22.0700 18.4400 -2.5800
v -3.5500 21.8400 -2.5800
v -3.5500 21.8400 -2.5800
v -16.4400 17.9200 -0.0100
v -16.4400 17.9200 -0.0100
v -19.7000 11.7500 -0.0100
v -29.0300 1.4100 -0.0100
v 0.0000 0.0000 -0.0100
v -8.4500 22.8700 -0.0100
v 1.4800 -21.1300 -0.0100
v -8.4500 22.8700 -0.0100
v -20.1900 1.4500 -0.0100
v 1.4800 -21.1300 -0.0100
v 0.0000 8.4800 0.3200
v 0.6400 0.6400 0.0000
v 0.0000 5.2600 0.0000
v 0.0000 7.2500 0.3200
v 0.6400 0.6400 0.0000
v -7.4400 0.0000 0.0000
v -7.5200 0.0000 0.0000
v -28.1600 20.4800 0.0100
v -7.5200 0.0000 0.6400
v -7.5200 0.0000 1.2800
v -7.5200 0.0000 0.6400
v -7.5200 0.0000 1.2800
v -7.5200 0.0000 1.2800
v 1.2900 1.2900 0.0200
v -3.8600 -3.8600 0.0000
v -6.3800 -6.3800 -6.3800
v -7.6800 -7.6800 -7.6800
v 2.5300 2.5300 0.0000
v 2.5600 2.5600 2.5600
v 8.9400 8.9400 8.9400
v 6.4200 6.4200 6.4200
v 1.2900 1.2900 1.2900
v 1.2700 1.2700 1.2700
vt 0.0107 0.0498
vt -0.0107 -0.1689
vt -0.0078 -0.0527
vt -0.0107 -0.1689
vt 0.0146 -0.1689
vt 0.0498 0.0098
vt 0.0498 -0.0107
vt 0.0498 0.0098
vt 0.1670 0.0127
vt 0.1660 -0.0127
vt 0.0137 0.1660
vt 0.0107 0.0498
vt -0.0117 0.1660
vt 0.0137 0.1660
vt 0.0107 0.0498
vt 0.0107 0.0498
vt 0.0137 0.1660
vt -0.1689 -0.0127
vt -0.0518 0.0098
vt -0.1689 0.0127
vt -0.0518 0.0098
vt -0.0518 0.0098
vt -0.1689 0.0127
vt -0.1689 -0.0127
vt 0.0400 -0.0557
vt 0.0479 -0.0254
vt -0.0010 -0.0557
vt -0.0488 -0.0254
vt -0.0010 0.0371
vt 0.0400 0.0664
vt -0.0400 0.0664
vt 0.0400 0.0664
vt -0.0723 0.1201
vt -0.1611 0.0713
vt -0.2959 0.0713
vt -0.4209 0.0068
vt -0.3740 0.1270
vt -0.3730 0.1270
vt -0.0400 0.0664
vt -0.1611 0.0713
vt -0.0713 0.1201
vt -0.2871 0.1904
vt -0.1680 0.1904
vt -0.3740 0.1270
vt -0.0889 -0.1191
vt -0.2959 -0.0635
vt -0.0488 -0.0254
vt -0.0488 0.0371
vt -0.0400 -0.0557
vt -0.1680 -0.1768
vt -0.0527 -0.0527
vt 0.0527 0.0527
vt -0.1680 -0.1768
vt -0.4199 0.0068
vt -0.1611 -0.0635
vt -0.2959 0.0713
vt 0.0400 -0.0557
vt -0.0713 0.1201
vt -0.3730 0.1270
vt -0.4199 0.0068
vt -0.0400 0.0664
vt -0.1611 -0.0635
vt -0.2959 0.0713
vt -0.2959 0.0713
vt -0.2871 0.1904
vt -0.1680 0.1904
vt -0.0723 0.1201
vt -0.0723 0.1201
vt -0.0400 0.0664
vt -0.0400 0.0664
vt -0.0488 0.0371
vt -0.0488 -0.0254
vt -0.2959 -0.0635
vt -0.2871 -0.1768
vt -0.1611 -0.0635
vt -0.4209 0.0068
vt -0.2959 0.0713
vt -0.1611 -0.0635
vt 0.0000 4.1328
vt 0.0000 0.1592
vt 0.0000 0.6973
vt 0.0625 0.0625
vt 0.0000 0.2002
vt -6.2500 0.0000
vt -2.7266 0.0000
vt -2.7344 0.0000
vt -3.5000 8.0020
vt -4.0000 0.0000
vt -4.0000 0.0000
vt -4.0000 0.0000
vt -4.0000 0.0000
vt -4.0000 0.0000
vt -0.7500 -0.7500
vt -0.5000 -0.5000
vt 31.5000 31.5000
vt 0.2480 0.2480
vt -31.2520 -31.2520
vt -31.5000 -31.5000
vt 0.7500 0.7500
vt 0.0000 0.0000
vt 31.5000 31.5000
vt 0.0000 0.0000
f 56/56 3/3 37/37
f 56/56 3/3 37/37
f 41/41 4/4 83/83
f 61/61 5/5 1/1
f 50/50 2/2 79/79
f 24/24 1/1 48/48
f 43/43 1/1 1/1
f 50/50 2/2 79/79
f 56/56 3/3 37/37
f 27/27 28/28 29/29
f 30/30 27/27 29/29
f 27/27 28/28 29/29
f 29/29 28/28 30/30
f 25/25 26/26 27/27
f 28/28 26/26 25/25
f 29/29 30/30 31/31
f 28/28 29/29 30/30
f 29/29 31/31 30/30
f 20/20 22/22 23/23
f 17/17 24/24 18/18
f 31/31 26/26 32/32
f 26/26 30/30 32/32
f 21/21 29/29 30/30
f 23/23 29/29 21/21
f 27/27 31/31 29/29
f 17/17 18/18 19/19
f 19/19 20/20 17/17
f 10/10 9/9 12/12
f 22/22 23/23 14/14
f 23/23 24/24 14/14
