# Conker's Bad Fur Day — Real 3D Model (Spooky Models)
o assets10_model_017

v 0.0000 0.4000 0.0000
v 0.0000 1.0400 0.0000
v 0.0000 1.5200 0.0000
v -12.0600 0.0000 12.6400
v -5.8800 0.0000 -13.0000
v -9.1900 0.0000 -7.9000
v -11.9800 0.0000 -7.9000
v 9.0100 0.0000 -1.7200
v 14.6700 0.0000 9.0200
v 11.9600 0.0000 9.0200
vt 0.0000 0.0781
vt 0.0000 0.1250
vt -0.2109 0.0000
vt -1.2344 0.0000
vt -0.5391 0.0000
vt -0.8975 0.0000
vt 0.8799 0.0000
vt 1.1543 0.0000
vt 1.4326 0.0000
vt -0.8750 0.0000
f 1/1 2/2 3/3
f 4/4 5/5 6/6
f 7/7 8/8 9/9
