# Conker's Bad Fur Day — Real 3D Model (Multiplayer Level Models)
o assets09_model_017

v 0.0000 30.4800 0.0000
v 4.8500 8.2100 -2.5800
v 9.3300 8.3100 -2.5800
v 4.8300 1.8700 -2.5800
v 9.3000 1.9700 -2.5800
v 7.6200 8.2700 -2.5800
v 7.5900 1.9300 -2.5800
v 2.0800 8.1400 -2.5800
v 2.0600 1.8100 -2.5800
v 0.3700 8.1000 -2.5800
v 0.3500 1.7700 -2.5800
v 4.8100 0.3900 -2.5800
v 8.2500 0.4700 -2.5800
v 7.0200 0.4400 -2.5800
v 2.6000 0.3400 -2.5800
v 1.2300 0.3000 -2.5800
v 2.4800 9.8800 -2.5800
v 1.0900 9.8500 -2.5800
v 4.7400 9.9300 -2.5800
v 8.3800 10.0200 -2.5800
v 6.9900 9.9900 -2.5800
v 8.2800 1.9100 -2.5800
v 7.8600 0.0500 -2.5800
v 3.1100 -0.0400 -2.5800
v 2.4400 1.8000 -2.5800
v 1.6400 -0.0600 -2.5800
v 0.6400 1.7700 -2.5800
v 5.4900 0.0100 -2.5800
v 5.3600 1.8500 -2.5800
v 10.0800 1.9400 -2.5800
v 9.3300 0.0700 -2.5800
v 5.3600 10.2200 -2.5800
v 5.3600 8.6400 -2.5800
v 9.1400 10.2900 -2.5800
v 10.0700 8.7200 -2.5800
v 8.2700 8.6900 -2.5800
v 7.7000 10.2600 -2.5800
v 2.4400 8.5800 -2.5800
v 3.0300 10.1800 -2.5800
v 0.6400 8.5500 -2.5800
v 1.7400 10.1600 -2.5800
v 5.3600 1.8500 -2.5800
v 10.0800 1.9400 -2.5800
v 8.2800 1.9100 -2.5800
v 2.4400 1.8000 -2.5800
v 0.6400 1.7700 -2.5800
v 10.8900 6.3500 -2.5800
v 5.9600 11.0300 -2.5800
v -0.1000 7.5300 -2.5800
v 7.8900 -0.0300 -2.5800
v 1.0900 0.6900 -2.5800
v 2.6800 10.7900 -2.5800
v -0.9700 4.6900 -2.5800
v 3.7200 -0.6100 -2.5800
v 9.6300 9.2600 -2.5800
v 10.2800 2.2200 -2.5800
v 10.4500 2.9700 -2.5800
v -0.4400 3.6100 -2.5800
v 4.6800 -0.9000 -2.5800
v 8.8900 9.8700 -2.5800
v 2.1600 10.2600 -2.5800
v 3.9400 29.1900 -2.5800
v 5.5700 29.8100 -2.5800
v 4.6200 28.1700 -2.5800
v 3.8900 28.3500 -2.5800
v 10.2400 22.9300 -2.5800
v 8.1800 20.5100 -2.5800
v 7.1300 0.0000 -2.5800
v 10.2400 0.0000 -2.5800
v 8.3200 0.0000 -2.5800
v 8.9600 20.7700 -2.5800
v 10.2400 27.1900 -2.5800
v 8.3500 26.3000 -2.5800
v 8.3500 26.3000 -2.5800
v 10.2400 27.1900 -2.5800
v 8.0900 27.1900 -2.5800
v 8.9100 27.1900 -2.5800
v 9.0500 24.9800 -2.5800
v 2.2400 30.4600 -2.5800
v 1.9000 36.3000 -2.5800
v 0.1800 36.1700 -2.5800
v 0.4800 30.2900 -2.5800
v 0.8300 36.2200 -2.5800
v 1.1500 30.3600 -2.5800
v 2.9600 36.3700 -2.5800
v 3.3400 30.5600 -2.5800
v 3.6100 36.4200 -2.5800
v 4.0100 30.6200 -2.5800
v 3.3100 39.8300 -2.5800
v 2.6700 39.7800 -2.5800
v 0.5900 39.6300 -2.5800
v 0.0100 39.5900 -2.5800
v 1.6300 39.7100 -2.5800
v 5.9700 27.3300 -2.5800
v 10.2400 22.9300 -2.5800
v 4.6700 25.6700 -2.5800
v 8.3500 26.3000 -2.5800
v 5.4700 26.6900 -2.5800
v 8.9600 20.7700 -2.5800
v 3.8700 24.6500 -2.5800
v 3.8700 24.6500 -2.5800
v 8.9600 20.7700 -2.5800
v 3.3700 24.0200 -2.5800
v 8.1800 20.5100 -2.5800
v 4.6700 25.6700 -2.5800
v 10.2400 22.9300 -2.5800
v 2.2400 30.4600 -2.5800
v 0.4800 30.2900 -2.5800
v 1.1500 30.3600 -2.5800
v 5.4700 26.6900 -2.5800
v 3.3400 30.5600 -2.5800
v 4.0100 30.6200 -2.5800
v 5.9700 27.3300 -2.5800
v 3.0400 24.3500 -2.5800
v 4.3900 21.0100 -2.5800
v 3.6000 24.2400 -2.5800
v 2.0200 22.7700 -2.5800
v 2.0200 22.7700 -2.5800
v 6.9700 32.5100 -2.5800
v 5.1600 34.6500 -2.5800
v 7.7400 35.0100 -2.5800
v 7.3500 33.7600 -2.5800
v 7.7400 35.0100 -2.5800
v 5.1600 34.6500 -2.5800
v 6.9700 32.5100 -2.5800
v 1.9200 0.0000 -2.5800
v -1.9200 0.0000 -2.5800
v -1.2800 20.7700 -2.5800
v 1.2800 20.7700 -2.5800
v 1.1800 24.9800 -2.5800
v -1.1900 24.9800 -2.5800
v -1.3300 27.1900 -2.5800
v 1.3300 27.1900 -2.5800
v 1.1800 24.9800 -2.5800
v -1.3300 27.1900 -2.5800
v 1.8900 26.3000 -2.5800
v 2.1500 27.1900 -2.5800
v 0.0000 27.1900 -2.5800
v 0.0000 22.9300 -2.5800
v 1.2800 20.7700 -2.5800
v 2.0600 20.5100 -2.5800
v 1.9200 0.0000 -2.5800
v 3.1100 0.0000 -2.5800
v 0.0000 0.0000 -2.5800
v 10.0900 36.1600 -2.5800
v 8.3700 36.3000 -2.5800
v 8.0000 30.4600 -2.5800
v 9.7600 30.2900 -2.5800
v 9.4300 36.2100 -2.5800
v 9.0900 30.3600 -2.5800
v 7.3100 36.3800 -2.5800
v 6.9000 30.5600 -2.5800
v 6.6600 36.4300 -2.5800
v 6.2300 30.6200 -2.5800
v 6.9700 39.8400 -2.5800
v 7.6100 39.7900 -2.5800
v 9.6900 39.6200 -2.5800
v 10.2700 39.5800 -2.5800
v 8.6500 39.7000 -2.5800
v 1.8900 26.3000 -2.5800
v 0.0000 22.9300 -2.5800
v 4.2700 27.3300 -2.5800
v 5.5700 25.6700 -2.5800
v 1.1800 24.9800 -2.5800
v 1.8900 26.3000 -2.5800
v 4.7700 26.6900 -2.5800
v 6.3700 24.6500 -2.5800
v 1.2800 20.7700 -2.5800
v 6.8700 24.0200 -2.5800
v 2.0600 20.5100 -2.5800
v 8.0000 30.4600 -2.5800
v 9.7600 30.2900 -2.5800
v 9.0900 30.3600 -2.5800
v 6.9000 30.5600 -2.5800
v 6.2300 30.6200 -2.5800
v -28.0000 0.0000 17.9200
v -33.2800 0.0000 18.2300
v -28.1600 2.5600 15.3600
v -7.5200 0.0000 0.6400
v -7.5200 0.0000 0.6400
v -28.0800 11.5200 2.6500
v -28.0800 6.7200 5.2000
v -28.0800 6.8000 7.7600
v 2.5800 0.6400 2.5600
v -7.5200 0.0000 1.2800
v -7.5200 0.0000 1.2800
v 2.5800 0.6400 2.5600
v 2.5700 0.3200 2.5600
vt 0.0000 0.0000
vt 0.0254 -0.0078
vt 0.0215 -0.0127
vt 0.0254 -0.0078
vt 0.0215 -0.0029
vt 0.0215 -0.0029
vt 0.0156 -0.0049
vt 0.0166 -0.0049
vt 0.0156 -0.0107
vt 0.0166 -0.0107
vt 0.0215 -0.0117
vt 0.0244 -0.0078
vt 0.0215 -0.0039
vt 0.0176 -0.0049
vt 0.0176 -0.0098
vt 0.0166 -0.0049
vt 0.0166 -0.0098
vt 0.0215 -0.0117
vt 0.0234 -0.0078
vt 0.0215 -0.0039
vt -0.0146 -0.0146
vt -0.0146 -0.0156
vt -0.0195 -0.0166
vt -0.0205 -0.0166
vt -0.0195 -0.0215
vt -0.0205 -0.0225
vt -0.0146 -0.0234
vt -0.0146 -0.0244
vt -0.0117 -0.0195
vt -0.0117 -0.0195
vt -0.0156 -0.0234
vt -0.0156 -0.0244
vt -0.0127 -0.0195
vt -0.0117 -0.0195
vt -0.0156 -0.0146
vt -0.0156 -0.0156
vt -0.0205 -0.0166
vt -0.0205 -0.0176
vt -0.0205 -0.0225
vt -0.0195 -0.0215
vt -0.0146 -0.0244
vt -0.0117 -0.0195
vt -0.0146 -0.0146
vt -0.0205 -0.0166
vt -0.0205 -0.0225
vt -0.0020 -0.0166
vt 0.0039 -0.0186
vt 0.0068 -0.0137
vt -0.0029 -0.0107
vt 0.0029 -0.0088
vt 0.0176 -0.0098
vt 0.0215 -0.0117
vt 0.0244 -0.0078
vt 0.0176 -0.0049
vt 0.0215 -0.0029
vt -0.0127 -0.0195
vt -0.0205 -0.0225
vt -0.0156 -0.0234
vt -0.0156 -0.0156
vt -0.0205 -0.0166
vt 0.0039 -0.0205
vt -0.0068 -0.0215
vt -0.0098 -0.0186
vt -0.0107 -0.0215
vt 0.0029 -0.0186
vt -0.0020 -0.0166
vt -0.0039 -0.0176
vt 0.0039 -0.0205
vt -0.0039 -0.0088
vt -0.0020 -0.0107
vt 0.0039 -0.0186
vt -0.0020 -0.0166
vt -0.0020 -0.0166
vt 0.0039 -0.0186
vt -0.0020 -0.0166
vt -0.0029 -0.0107
vt -0.0020 -0.0107
vt -0.0137 -0.0234
vt -0.0146 -0.0234
vt -0.0195 -0.0215
vt -0.0186 -0.0215
vt -0.0195 -0.0166
vt -0.0186 -0.0166
vt -0.0146 -0.0156
vt -0.0146 -0.0146
vt -0.0117 -0.0195
vt -0.0117 -0.0195
vt -0.0127 -0.0195
vt -0.0156 -0.0156
vt -0.0205 -0.0166
vt -0.0205 -0.0225
vt -0.0156 -0.0234
vt -0.0156 -0.0234
vt 0.0029 -0.0186
vt -0.0088 -0.0225
vt -0.0020 -0.0166
vt -0.0098 -0.0127
vt -0.0020 -0.0107
vt -0.0127 -0.0146
vt -0.0127 -0.0146
vt -0.0020 -0.0107
vt -0.0127 -0.0195
vt -0.0020 -0.0166
vt -0.0088 -0.0225
vt 0.0029 -0.0186
vt -0.0137 -0.0234
vt -0.0186 -0.0215
vt -0.0186 -0.0166
vt -0.0098 -0.0127
vt -0.0146 -0.0146
vt -0.0117 -0.0195
vt -0.0068 -0.0176
vt 0.0088 -0.0137
vt 0.0127 -0.0146
vt 0.0098 -0.0117
vt 0.0059 -0.0117
vt 0.0059 -0.0117
vt 0.0166 -0.0098
vt 0.0137 -0.0117
vt 0.0186 -0.0088
vt 0.0186 -0.0107
vt 0.0186 -0.0088
vt 0.0137 -0.0117
vt 0.0166 -0.0098
vt 0.0039 -0.0068
vt -0.0039 -0.0088
vt -0.0020 -0.0107
vt 0.0029 -0.0088
vt 0.0029 -0.0088
vt -0.0020 -0.0107
vt -0.0029 -0.0107
vt 0.0029 -0.0088
vt 0.0029 -0.0088
vt -0.0029 -0.0107
vt 0.0059 -0.0137
vt 0.0068 -0.0137
vt 0.0039 -0.0186
vt 0.0029 -0.0186
vt 0.0029 -0.0088
vt 0.0068 -0.0137
vt 0.0039 -0.0068
vt 0.0088 -0.0137
vt 0.0039 -0.0205
vt 0.0234 -0.0078
vt 0.0215 -0.0117
vt 0.0205 -0.0117
vt 0.0234 -0.0078
vt 0.0215 -0.0039
vt 0.0205 -0.0039
vt 0.0166 -0.0049
vt 0.0156 -0.0059
vt 0.0166 -0.0098
vt 0.0156 -0.0107
vt 0.0176 -0.0049
vt 0.0176 -0.0098
vt 0.0215 -0.0029
vt 0.0244 -0.0078
vt 0.0215 -0.0117
vt 0.0215 -0.0117
vt 0.0029 -0.0186
vt 0.0117 -0.0117
vt 0.0156 -0.0146
vt 0.0029 -0.0088
vt 0.0059 -0.0137
vt 0.0107 -0.0068
vt 0.0146 -0.0059
vt 0.0029 -0.0088
vt 0.0166 -0.0098
vt 0.0068 -0.0137
vt 0.0205 -0.0117
vt 0.0234 -0.0078
vt 0.0205 -0.0039
vt 0.0156 -0.0059
vt 0.0156 -0.0107
vt 0.0000 2.9844
vt -6.5000 0.0000
vt -6.2500 0.0000
vt -6.5000 0.0000
vt -4.0000 0.0000
vt -4.0000 0.0000
vt -3.5000 8.0020
vt -3.5000 8.0020
vt -3.5000 8.0020
vt 4.6484 -28.9336
vt -4.0000 0.0000
vt -4.0000 0.0000
vt 4.3945 -28.9961
vt 4.7656 2.1299
f 30/30 5/5 32/32
f 13/13 12/12 7/7
f 5/5 13/13 7/7
f 29/29 28/28 30/30
f 30/30 28/28 31/31
f 32/32 30/30 31/31
f 24/24 32/32 25/25
f 69/69 15/15 73/73
