# Conker's Bad Fur Day — Real 3D Model (Bat's Tower Level Models)
o assets0A_model_021

v 0.0000 0.1600 0.0000
v 0.1000 0.6100 0.2000
v -8.8900 -11.1300 0.0000
v -0.9500 -22.3300 -5.7000
v -4.7300 0.3700 -4.1300
v -12.4100 0.0000 0.0000
v 0.0000 -1.2100 0.0000
v 0.0000 -0.5500 0.0000
v 0.0000 -0.8300 0.0000
v 0.0000 -1.6100 0.0000
vt 0.0000 0.0859
vt 0.7500 -32.0000
vt -3.7734 0.3486
vt -0.8076 -1.0557
vt 0.0000 -0.8701
vt 0.0000 -0.1523
vt 20.4385 -11.8711
vt 5.1602 -21.1104
vt -11.1455 23.9775
vt 30.0000 0.0205
f 1/1 2/2 3/3
f 4/4 5/5 6/6
f 7/7 8/8 9/9
