mtllib assets09_model_265.mtl
# Conker's Bad Fur Day — Real 3D Model (Multiplayer Level Models)
o assets09_model_265
usemtl assets09_model_265_mat

v 0.0000 7.9200 0.0000
v -27.3600 0.0000 17.9200
v -7.5200 0.0000 0.6400
v 12.8000 10.3200 0.0000
v -6.8800 0.0000 0.0000
v -27.4400 20.4800 0.0100
v -7.5200 0.0000 0.6400
v 15.5600 36.0200 0.2200
v 1.6400 -3.6700 1.4500
vt 0.0000 0.0000
vt -3.2500 0.0000
vt -2.6562 0.2500
vt -6.2500 0.0000
vt -3.2500 0.0000
vt -3.4375 9.0020
vt -6.5000 0.0000
vt 1.2754 7.0234
vt 0.8916 0.1416
f 1/1 3/3 5/5
