# Conker's Bad Fur Day — Real 3D Model (Sloprano Models)
o assets0E_model_065

v 20.4800 0.0000 0.0000
v 20.5000 0.0000 0.0000
v 20.5000 0.0000 0.0000
v 20.5000 0.0000 0.0000
v 20.5000 0.0000 0.0000
v 20.5000 0.0000 0.0000
v 20.5000 0.0000 0.0000
v 20.5000 0.0000 0.0000
v 20.5000 0.0000 0.0000
v 20.5000 0.0000 0.0000
v 20.5000 0.0000 0.0000
v 20.5000 0.0000 0.0000
v 20.5000 0.0000 0.0000
v 20.5000 0.0000 0.0000
v 20.5000 0.0000 0.0000
v 20.5000 0.0000 0.0000
v 20.5000 0.0000 0.0000
v 0.3200 0.1200 25.6000
v 20.4900 0.0000 0.0000
v 0.3200 0.1200 25.6000
v 20.4900 0.0000 0.0000
v 0.3200 0.1200 25.6000
v 20.4900 0.0000 0.0000
v 0.3200 2.6100 -2.5600
v 20.4800 0.0000 0.0000
v 0.3200 2.6100 -2.5600
v 20.4800 0.0000 0.0000
v 20.4800 0.0000 0.0000
vt 0.0000 0.0654
vt 0.0156 0.0654
vt 0.0156 0.0654
vt 0.0156 0.0654
vt 0.0156 0.0654
vt 0.0156 0.0654
vt 0.0156 0.0654
vt 0.0156 0.0654
vt 0.0156 0.0654
vt 0.0156 0.0654
vt 0.0156 0.0654
vt 0.0156 0.0654
vt 0.0156 0.0654
vt 0.0156 0.0654
vt 0.0156 0.0654
vt 0.0156 0.0654
vt 0.0156 0.0654
vt -1.2520 -1.2168
vt 0.0000 0.0654
vt -1.2520 -1.5898
vt 0.0000 0.0654
vt -1.2227 -2.0039
vt 0.0000 0.0654
vt -1.0381 -1.7920
vt 0.0000 0.0654
vt -1.2139 -0.3408
vt 0.0000 0.0654
vt 0.0000 0.0654
f 1/1 1/1 1/1
