# Conker's Bad Fur Day — Real 3D Model (HUD & UI Props)
o assets01_model_013

v 0.0000 24.9600 0.0000
v 0.0000 36.0800 0.0000
v 5.8600 7.1400 -0.0100
v 9.6500 7.9500 -0.0100
v 13.9500 7.2400 -0.0100
v 4.1600 5.8100 -0.0100
v 5.4800 6.5900 -0.0100
v 10.8300 5.8800 -0.4400
v 5.2700 6.3300 -0.0100
v 4.0300 5.8500 -0.0100
v 12.2900 2.0100 -0.0100
v 17.0200 2.0600 -13.1100
v 12.2900 2.6200 -0.0100
v 4.1000 1.8200 -0.0100
v 4.7200 2.2000 -0.0100
v 4.7800 1.8900 -0.0100
v 7.5800 2.5600 -0.0100
v 4.1000 1.8900 -0.0100
v 10.0400 2.5900 -0.0100
v 13.9500 7.2400 -0.0100
v 9.6500 7.9500 -0.0100
v 5.8600 7.1400 -0.0100
v 9.5500 9.2500 -0.0100
v 6.2900 9.2100 -0.0100
v 12.8300 9.2900 -0.0100
v 6.8000 9.3000 -0.0100
v 9.8400 9.2000 -28.5300
v 7.3000 9.1200 -0.0100
v 6.2700 9.1800 -0.0100
v 10.3200 9.2200 -0.0100
v 13.5900 9.1800 -0.0100
v 8.3700 10.0000 -0.2700
v 10.3600 9.9100 -0.0100
v 10.3400 9.9100 -0.0100
v 8.4100 9.9700 -0.2700
v 15.5900 5.9900 -0.2700
v 4.0300 5.8500 -0.0100
v 10.8300 5.8800 -0.4400
v 5.4800 6.5900 -0.0100
v 5.2700 6.3300 -0.0100
v 4.1600 5.8100 -0.0100
v 17.0200 2.0600 -13.1100
v 10.0400 2.5900 -0.0100
v 7.5800 2.5600 -0.0100
v 9.5000 10.0100 -0.0100
v 6.2900 9.2100 -0.0100
v 9.5500 9.2500 -0.0100
v 12.8300 9.2900 -0.0100
v 12.2900 2.0100 -0.0100
v 12.2900 2.6200 -0.0100
v 10.0400 2.5900 -0.0100
v 10.0800 1.9800 -0.0100
v 7.5800 1.9500 -0.0100
v 7.5800 2.5600 -0.0100
v 4.1000 1.8900 -0.0100
v 17.0200 2.0600 -13.1100
v 4.1000 1.8200 -0.0100
v 4.7800 1.8900 -0.0100
v 4.7200 2.2000 -0.0100
v 6.9600 0.5500 -0.0100
v 4.1000 0.5000 -0.0100
v 10.1800 0.6100 -0.0100
v 13.5200 0.6700 -0.0100
v 17.4100 0.7100 -0.0100
v 4.1000 0.4300 -0.0100
v 3.8900 0.5200 -0.0100
v 11.4700 0.6000 -0.0100
v 4.1000 0.8700 -0.0100
v 4.3600 9.0400 -2.5800
v 7.7700 9.8000 -2.5800
v 3.9700 10.5200 -2.5800
v 18.2200 9.2000 -2.5800
v 16.9100 9.0100 -2.5800
v 14.4900 10.1200 -2.5800
v 12.6900 8.4100 -2.5800
v 11.3800 8.2300 -2.5800
v 0.9500 8.2900 -2.5800
v 5.3200 5.4700 -2.5800
v 9.8700 6.4700 -2.5800
v 20.1200 5.9500 -2.5800
v 12.7400 4.9100 -2.5800
v 11.0000 4.6600 -2.5800
v 0.7800 4.4600 -2.5800
v 6.2800 1.9000 -2.5800
v 9.3000 2.5600 -2.5800
v 19.3400 2.3300 -2.5800
v 13.3000 1.4800 -2.5800
v 3.2700 1.2300 -2.5800
v 6.6800 0.4100 -2.5800
v 16.6300 0.4900 -2.5800
v 3.9700 10.5200 -2.5800
v 7.7700 9.8000 -2.5800
v 4.3600 9.0400 -2.5800
v 14.4900 10.1200 -2.5800
v 16.9100 9.0100 -2.5800
v 18.2200 9.2000 -2.5800
v 12.6900 8.4100 -2.5800
v 14.4900 10.1200 -2.5800
v 11.3800 8.2300 -2.5800
v 12.6900 8.4100 -2.5800
v 3.9700 10.5200 -2.5800
v 4.3600 9.0400 -2.5800
v 0.9500 8.2900 -2.5800
v 9.8700 6.4700 -2.5800
v 5.3200 5.4700 -2.5800
v 20.1200 5.9500 -2.5800
v 18.2200 9.2000 -2.5800
v 12.7400 4.9100 -2.5800
v 16.9100 9.0100 -2.5800
v 11.0000 4.6600 -2.5800
v 0.7800 4.4600 -2.5800
v 9.3000 2.5600 -2.5800
v 6.2800 1.9000 -2.5800
v 19.3400 2.3300 -2.5800
v 13.3000 1.4800 -2.5800
v 3.2700 1.2300 -2.5800
v 6.6800 0.4100 -2.5800
v 16.6300 0.4900 -2.5800
v 7.7700 9.8000 -2.5800
v -2.5600 0.0000 0.0000
v 2.5800 5.1200 0.0000
v 5.1500 7.6800 0.0000
v 0.0000 27.9100 0.0000
v 0.0000 27.8800 0.6400
v 0.6400 0.3200 0.0000
v -7.5200 0.0000 0.0000
v 15.7800 25.6800 0.1000
v -7.5200 0.0000 17.9200
v -7.5200 0.0000 15.3600
v -33.2800 0.0000 18.5500
vt 0.0000 2.5469
vt 0.0000 0.0000
vt 0.0000 0.0850
vt 0.0820 0.0723
vt 0.0566 0.0146
vt -0.1104 0.0068
vt 0.1123 -0.0059
vt -0.1104 0.0068
vt -0.1104 -0.0059
vt 0.0566 -0.0117
vt 0.1338 -0.0117
vt 0.0566 0.0029
vt -0.1318 -0.0117
vt 0.1338 -0.0117
vt 0.0010 -0.0117
vt -0.0498 0.0029
vt -0.1318 -0.0117
vt 0.0010 0.0029
vt 0.0820 0.0723
vt 0.0000 0.0850
vt -0.0742 0.0723
vt 0.0010 0.0010
vt -0.0615 0.0010
vt 0.0635 0.0010
vt 0.0635 0.0010
vt 0.0635 0.0010
vt 0.0010 0.0010
vt -0.0615 0.0010
vt -0.0615 0.0010
vt -0.0615 0.0010
vt 0.0010 0.0186
vt 0.0010 0.0186
vt 0.0010 0.0186
vt 0.0010 0.0186
vt 0.1123 -0.0059
vt -0.0547 0.0146
vt 0.0566 0.0146
vt 0.1113 0.0068
vt 0.1113 0.0068
vt 0.0010 0.0068
vt -0.1104 0.0068
vt 0.0010 0.0029
vt -0.0498 0.0029
vt 0.0010 0.0186
vt -0.0615 0.0010
vt 0.0010 0.0010
vt 0.0635 0.0010
vt 0.0566 -0.0117
vt 0.0566 0.0029
vt 0.0010 0.0029
vt 0.0010 -0.0117
vt -0.0498 -0.0117
vt -0.0498 0.0029
vt -0.1318 -0.0117
vt 0.1338 -0.0117
vt -0.1318 -0.0117
vt -0.1318 -0.0117
vt -0.1318 -0.0117
vt 0.1338 -0.0117
vt -0.1611 0.0000
vt 0.0000 0.0000
vt 0.0967 0.0000
vt 0.1611 0.0000
vt -0.1602 0.0000
vt 0.1602 0.0000
vt 0.0000 0.0000
vt 0.1602 0.0000
vt -0.0049 0.0293
vt 0.0107 0.0312
vt -0.0059 0.0361
vt 0.0107 0.0312
vt 0.0049 0.0303
vt -0.0059 0.0361
vt -0.0146 0.0273
vt -0.0215 0.0264
vt -0.0215 0.0264
vt -0.0029 0.0127
vt 0.0186 0.0156
vt 0.0186 0.0156
vt 0.0107 0.0146
vt -0.0244 0.0088
vt -0.0244 0.0088
vt 0.0000 -0.0049
vt 0.0146 -0.0029
vt 0.0146 -0.0029
vt 0.0088 -0.0029
vt -0.0146 -0.0068
vt 0.0010 -0.0117
vt 0.0010 -0.0117
vt 0.0059 0.0361
vt -0.0117 0.0312
vt 0.0049 0.0293
vt 0.0059 0.0361
vt -0.0049 0.0312
vt -0.0117 0.0312
vt 0.0146 0.0273
vt 0.0059 0.0361
vt 0.0205 0.0264
vt 0.0146 0.0273
vt 0.0059 0.0361
vt 0.0049 0.0293
vt 0.0205 0.0264
vt -0.0195 0.0156
vt 0.0020 0.0127
vt -0.0107 0.0146
vt -0.0117 0.0312
vt 0.0156 0.0107
vt -0.0049 0.0312
vt 0.0234 0.0088
vt 0.0234 0.0088
vt -0.0146 -0.0029
vt 0.0000 -0.0049
vt -0.0088 -0.0029
vt 0.0088 -0.0059
vt 0.0137 -0.0068
vt -0.0010 -0.0117
vt -0.0010 -0.0117
vt -0.0117 0.0312
vt 0.0000 2.5938
vt 0.0000 0.0000
vt 16.6719 21.6113
vt 16.6426 0.8848
vt 0.0625 0.0312
vt 0.0000 2.7217
vt 0.0000 2.7207
vt -2.7344 0.0000
vt -9.4453 0.0029
vt -2.7344 0.0000
vt -6.5000 0.0000
vt -6.2500 0.0000
f 58/58 2/2 107/107
f 53/53 2/2 66/66
f 86/86 32/32 128/128
f 84/84 1/1 104/104
f 113/113 50/50 128/128
f 58/58 2/2 107/107
f 2/2 2/2 81/81
f 40/40 2/2 76/76
f 12/12 2/2 44/44
f 115/115 51/51 128/128
f 53/53 2/2 66/66
f 86/86 32/32 128/128
f 84/84 1/1 104/104
f 113/113 50/50 128/128
f 2/2 2/2 81/81
f 84/84 1/1 104/104
f 113/113 50/50 128/128
f 37/37 1/1 34/34
f 103/103 1/1 36/36
f 128/128 128/128 67/67
f 78/78 2/2 67/67
f 128/128 128/128 128/128
f 85/85 2/2 123/123
f 83/83 1/1 83/83
f 26/26 1/1 75/75
f 64/64 1/1 25/25
f 128/128 128/128 128/128
f 85/85 2/2 123/123
f 78/78 2/2 67/67
f 128/128 128/128 128/128
f 85/85 2/2 123/123
f 78/78 2/2 67/67
f 128/128 128/128 128/128
f 83/83 1/1 83/83
f 26/26 1/1 75/75
f 64/64 1/1 25/25
f 128/128 128/128 128/128
f 11/11 10/10 2/2
f 1/1 2/2 3/3
f 22/22 6/6 5/5
f 6/6 22/22 21/21
f 17/17 12/12 11/11
f 1/1 2/2 3/3
f 4/4 1/1 3/3
f 11/11 9/9 10/10
f 22/22 15/15 14/14
f 17/17 10/10 16/16
f 26/26 27/27 28/28
f 29/29 30/30 31/31
f 29/29 32/32 30/30
f 9/9 12/12 20/20
f 12/12 14/14 21/21
f 15/15 8/8 17/17
f 128/128 1/1 1/1
f 1/1 1/1 1/1
