# Conker's Bad Fur Day — Real 3D Model (Multiplayer Level Models)
o assets09_model_141

v 0.0000 22.3200 0.0000
v 20.2100 14.3400 -0.0100
v 14.3600 0.4400 -0.0100
v 20.1700 6.1900 -0.0100
v 14.4600 20.1200 -0.0100
v 6.1900 0.4700 -0.0100
v 6.2800 20.1400 -0.0100
v 0.4400 6.2500 -0.0100
v 0.4800 14.4000 -0.0100
v 0.0000 0.0000 -0.0100
v 0.0000 0.0000 -0.0100
v 0.0000 0.0000 -0.0100
v 0.0000 0.0000 -0.0100
v 0.0000 0.0000 -0.0100
v 0.0000 0.0000 -0.0100
v 0.0000 0.0000 -0.0100
v 0.0000 0.0000 -0.0100
v 0.0000 0.0000 -0.0100
v 0.0000 0.0000 -0.0100
v 0.0000 0.0000 -0.0100
v 0.0000 0.0000 -0.0100
v 0.0000 0.0000 -0.0100
v 0.0000 0.0000 -0.0100
v 0.0000 0.0000 -0.0100
v 0.0000 0.0000 -0.0100
v 0.0000 0.0000 -0.0100
v 0.0000 0.0000 -0.0100
v 0.0000 0.0000 -0.0100
v 0.0000 0.0000 -0.0100
v 0.0000 0.0000 -0.0100
v 0.0000 0.0000 -0.0100
v 0.0000 0.0000 -0.0100
v 0.0000 0.0000 -0.0100
v 0.0000 0.0000 -0.0100
v 0.0000 0.0000 -0.0100
v 0.0000 0.0000 -0.0100
v 0.0000 0.0000 -0.0100
v 0.0000 0.0000 -0.0100
v 0.0000 0.0000 -0.0100
v 0.0000 0.0000 -0.0100
v 0.0000 0.0000 -0.0100
v 0.0000 0.0000 -0.0100
v 0.0000 0.0000 -0.0100
v 0.0000 0.0000 -0.0100
v 0.0000 0.0000 -0.0100
v 0.0000 0.0000 -0.0100
v 0.0000 0.0000 -0.0100
v 0.0000 0.0000 -0.0100
v 0.0000 0.0000 -0.0100
v 0.0000 0.0000 -0.0100
v 0.0000 0.0000 -0.0100
v 0.0000 0.0000 -0.0100
v 0.0000 0.0000 -0.0100
v 0.0000 0.0000 -0.0100
v 0.0000 0.0000 -0.0100
v 0.0000 0.0000 -0.0100
v 0.0000 0.0000 -0.0100
v 0.0000 0.0000 -0.0100
v 0.0000 0.0000 -0.0100
v 0.0000 0.0000 -0.0100
v 0.0000 0.0000 -0.0100
v 0.0000 0.0000 -0.0100
v 0.0000 0.0000 -0.0100
v 0.0000 0.0000 -0.0100
v 0.0000 0.0000 -0.0100
v 10.3700 31.3200 -0.0100
v 0.0600 31.4100 -0.0100
v 10.3800 38.2700 -0.0100
v 0.0700 38.3600 -0.0100
v 10.2200 26.2000 -0.0100
v 0.0700 26.1900 -0.0100
v 10.2700 33.2200 -0.0100
v 0.1300 33.2100 -0.0100
v 10.3600 20.7400 -0.0100
v 0.0500 20.8300 -0.0100
v 10.1300 15.5200 -0.0100
v -0.0100 15.5100 -0.0100
v 0.0400 10.2500 -0.0100
v 10.3500 10.1600 -0.0100
v -0.1000 4.8400 -0.0100
v 10.0500 4.8500 -0.0100
v -0.0100 15.5100 -0.0100
v 10.1300 15.5200 -0.0100
v 0.0500 20.8300 -0.0100
v 10.3600 20.7400 -0.0100
v 10.3600 20.7400 -0.0100
v 0.0500 20.8300 -0.0100
v 10.3500 10.1600 -0.0100
v 0.0400 10.2500 -0.0100
v 10.0500 4.8500 -0.0100
v -0.1000 4.8400 -0.0100
v 10.3500 10.1600 -0.0100
v 0.0400 10.2500 -0.0100
v 0.0300 2.8300 -0.0100
v 10.3400 2.7500 -0.0100
v -0.1600 -2.6500 -0.0100
v 9.9900 -2.6400 -0.0100
v 10.2700 33.2200 -0.0100
v 0.0700 26.1900 -0.0100
v 0.1300 33.2100 -0.0100
v 10.2200 26.2000 -0.0100
v 10.3800 38.2700 -0.0100
v 0.0600 31.4100 -0.0100
v 0.0700 38.3600 -0.0100
v 10.3700 31.3200 -0.0100
v -0.0100 15.5100 -0.0100
v 10.1300 15.5200 -0.0100
v 0.0500 20.8300 -0.0100
v 10.3600 20.7400 -0.0100
v 10.1300 15.5200 -0.0100
v -0.0100 15.5100 -0.0100
v -0.1000 4.8400 -0.0100
v 10.0500 4.8500 -0.0100
v 0.0400 10.2500 -0.0100
v 10.3500 10.1600 -0.0100
v 10.0500 4.8500 -0.0100
v -0.1000 4.8400 -0.0100
v 10.3500 10.1600 -0.0100
v 0.0400 10.2500 -0.0100
v -0.1600 -2.6500 -0.0100
v 9.9900 -2.6400 -0.0100
v 0.0300 2.8300 -0.0100
v 10.3400 2.7500 -0.0100
v 0.0000 0.0000 -0.0100
v 0.0000 0.0000 -0.0100
v 0.0000 0.0000 -0.0100
v 0.0000 0.0000 -0.0100
v 0.0000 0.0000 -0.0100
v 0.0000 0.0000 -0.0100
v 0.0000 0.0000 -0.0100
v 0.0000 0.0000 -0.0100
v 0.0000 0.0000 -0.0100
v 0.0000 0.0000 -0.0100
v 0.0000 0.0000 -0.0100
v 0.0000 0.0000 -0.0100
v 0.0000 0.0000 -0.0100
v 0.0000 0.0000 -0.0100
v 0.0000 0.0000 -0.0100
v 0.0000 0.0000 -0.0100
v -28.0000 0.0000 17.9200
v -33.2800 0.0000 18.5500
v -28.1600 2.5600 15.3600
v -7.5200 0.0000 15.3600
v 15.4400 25.7200 0.1000
v -7.5200 0.0000 0.6400
v 2.5800 0.6400 2.5600
v -27.9200 0.0000 17.9200
v -33.2800 0.0000 18.5500
v -28.0000 0.0000 17.9200
v -33.2800 0.0000 18.2300
v -28.0800 20.4800 0.0100
v -27.9200 0.0000 17.9200
v -33.2800 0.0000 18.5500
vt 0.0000 2.1836
vt 0.0068 0.0068
vt 0.0068 0.0166
vt 0.0068 0.0068
vt 0.0068 -0.0068
vt 0.0068 -0.0068
vt 0.0068 -0.0166
vt 0.0068 -0.0166
vt 0.0186 -0.0342
vt 0.0117 -0.0264
vt 0.0186 -0.0342
vt 0.0117 -0.0264
vt 0.0029 -0.0156
vt 0.0029 -0.0156
vt -0.0029 -0.0078
vt -0.0029 -0.0078
vt 0.0000 0.0000
vt 0.0000 0.0000
vt 0.0078 -0.0098
vt 0.0195 -0.0225
vt 0.0273 -0.0322
vt 0.0273 -0.0322
vt 0.0195 -0.0225
vt 0.0078 -0.0098
vt -0.0029 -0.0078
vt 0.0029 -0.0156
vt 0.0000 0.0000
vt 0.0078 -0.0098
vt 0.0117 -0.0264
vt 0.0195 -0.0225
vt 0.0186 -0.0342
vt 0.0273 -0.0322
vt 0.0186 -0.0342
vt 0.0273 -0.0322
vt 0.0117 -0.0264
vt 0.0195 -0.0225
vt 0.0029 -0.0156
vt 0.0078 -0.0098
vt -0.0029 -0.0078
vt 0.0000 0.0000
vt 0.0000 0.0000
vt 0.0000 0.0000
vt -0.0068 -0.0068
vt 0.0000 -0.0088
vt 0.0000 0.0088
vt -0.0068 0.0068
vt 0.0000 0.0205
vt -0.0068 0.0166
vt 0.0000 0.0205
vt -0.0068 0.0166
vt 0.0000 0.0088
vt -0.0068 0.0068
vt 0.0000 -0.0088
vt -0.0068 -0.0068
vt -0.0068 -0.0166
vt -0.0068 -0.0166
vt 0.0068 -0.0068
vt 0.0068 0.0068
vt 0.0068 0.0166
vt 0.0068 0.0166
vt 0.0068 0.0068
vt 0.0068 -0.0068
vt 0.0068 -0.0166
vt 0.0068 -0.0166
vt 0.0049 0.0039
vt -0.0049 -0.0039
vt 0.0049 0.0039
vt -0.0049 -0.0039
vt -0.0039 0.0049
vt 0.0039 -0.0049
vt -0.0039 0.0049
vt 0.0039 -0.0049
vt 0.0049 0.0039
vt -0.0049 -0.0039
vt -0.0039 0.0049
vt 0.0039 -0.0049
vt -0.0049 -0.0039
vt 0.0049 0.0039
vt 0.0039 -0.0049
vt -0.0039 0.0049
vt 0.0039 -0.0049
vt -0.0039 0.0049
vt -0.0049 -0.0039
vt 0.0049 0.0039
vt 0.0049 0.0039
vt -0.0049 -0.0039
vt 0.0049 0.0039
vt -0.0049 -0.0039
vt -0.0039 0.0049
vt 0.0039 -0.0049
vt 0.0049 0.0039
vt -0.0049 -0.0039
vt -0.0049 -0.0039
vt 0.0049 0.0039
vt 0.0039 -0.0049
vt -0.0039 0.0049
vt -0.0039 0.0049
vt 0.0039 -0.0049
vt 0.0039 -0.0049
vt -0.0039 0.0049
vt 0.0049 0.0039
vt -0.0049 -0.0039
vt -0.0049 -0.0039
vt 0.0049 0.0039
vt 0.0039 -0.0049
vt -0.0039 0.0049
vt -0.0049 -0.0039
vt 0.0049 0.0039
vt -0.0039 0.0049
vt 0.0039 -0.0049
vt 0.0039 -0.0049
vt -0.0039 0.0049
vt -0.0049 -0.0039
vt 0.0049 0.0039
vt -0.0039 0.0049
vt 0.0039 -0.0049
vt 0.0049 0.0039
vt -0.0049 -0.0039
vt 0.0039 -0.0049
vt -0.0039 0.0049
vt -0.0049 -0.0039
vt 0.0049 0.0039
vt 0.0000 0.0225
vt 0.0029 0.0225
vt 0.0000 0.0225
vt -0.0029 0.0225
vt 0.0000 -0.0225
vt 0.0029 -0.0225
vt 0.0000 -0.0225
vt -0.0029 -0.0225
vt 0.0068 0.0166
vt 0.0068 0.0068
vt 0.0068 0.0166
vt 0.0068 0.0068
vt 0.0068 -0.0068
vt 0.0068 -0.0068
vt 0.0068 -0.0166
vt 0.0068 -0.0166
vt 0.0000 2.3281
vt -6.5000 0.0000
vt -6.2500 0.0000
vt -6.5000 0.0000
vt -4.0000 0.0000
vt -10.2500 0.0020
vt -4.0000 0.0000
vt 4.3945 -28.8740
vt -6.5000 0.0000
vt -6.2500 0.0000
vt -6.5000 0.0000
vt -6.2500 0.0000
vt -9.5010 -0.0010
vt -6.5000 0.0000
vt -6.2500 0.0000
f 79/79 1/1 23/23
f 84/84 4/4 111/111
f 5/5 6/6 7/7
f 6/6 8/8 7/7
f 4/4 2/2 24/24
f 4/4 24/24 17/17
f 21/21 27/27 28/28
f 21/21 28/28 22/22
f 21/21 25/25 22/22
f 21/21 26/26 25/25
f 5/5 6/6 7/7
f 6/6 8/8 7/7
