# Conker's Bad Fur Day — Real 3D Model (Vegetation & Foliage)
o assets00_model_006

v 0.0100 0.0100 0.0000
v 0.0000 0.0000 0.0100
v 0.0100 0.0000 0.0000
v 0.0000 0.0000 0.0100
v 0.0100 0.0100 0.0000
v 0.0000 0.0000 0.0100
v 0.0100 0.0100 0.0000
v 0.0000 0.0000 0.0100
v 0.0100 0.0100 0.0100
v 0.0000 0.0100 0.0000
v 0.0000 0.0000 0.0100
v 24.9600 0.0000 0.0000
v -0.0100 -0.6700 0.0000
v 0.0000 0.0000 -0.0100
v -0.6700 -1.3400 0.0000
v -1.3300 -23.1400 0.0000
v -0.0100 -0.0100 -3.9700
v -0.0100 -0.0100 0.0000
v -0.0100 -0.0100 -3.3100
v -3.7900 -3.8300 -26.2300
v -0.0100 -0.6700 0.0000
v -0.0100 -0.0100 -26.4300
v -24.9500 -7.0300 -5.7500
v -0.0200 -22.4700 0.0000
v -0.0100 -0.6700 -4.6300
v -0.6700 0.0000 0.0000
v -0.0200 -2.0000 -25.7700
v -0.0200 -2.6500 -22.4700
v 0.0000 -0.0100 -0.0100
v 0.0000 0.0000 -0.0100
v -21.8100 -0.0100 0.0000
v 0.0000 0.0000 0.5100
v 0.0000 0.0000 3.2400
v 0.0000 0.0700 -0.0400
v -0.0400 30.7100 0.0000
v 0.0000 2.0700 -0.0100
v -0.0100 -0.0100 0.0000
v 0.0000 20.4700 -0.0100
v 30.7100 -0.0100 0.0000
v 0.0100 -0.4800 28.1500
v 30.6200 -0.0100 0.0500
v 0.0800 -1.6000 35.5500
v 0.0500 -17.9200 33.1200
v -0.0100 -0.0100 0.0800
v 1.4300 -0.0100 -0.0100
v -0.0100 -0.0100 6.8700
v -0.0100 -0.0100 -0.0100
v 0.0100 0.0100 0.0100
v 0.0000 0.0100 0.0100
v 0.0100 0.0000 0.0000
v 0.0100 0.0100 0.0000
v 0.0100 0.0100 0.0100
v 0.0100 0.0000 0.0000
v 0.0100 0.0000 0.0000
v 27.5200 0.0000 0.0000
v 25.6100 24.3200 0.0000
v 25.6000 0.0000 0.0000
v -0.6700 -0.0100 -0.0200
v -0.6700 -0.0100 -0.0100
v -1.9900 -1.9900 -0.0100
v -7.9300 -3.9700 -0.0100
v -1.9100 -1.2500 -25.5700
v -26.4300 -25.7700 -1.3300
v -3.1500 -2.5500 -5.1100
v -0.6700 -1.9900 -1.9900
v 0.0000 0.0000 -0.0200
v -25.5500 -26.2300 -4.4300
v -5.2900 -0.6700 -0.0100
v 0.0000 0.0000 -0.0200
v 0.0000 0.0000 -0.0100
v -21.8100 -0.6700 -21.8200
v 0.0000 0.0000 -0.0100
v -0.6700 -0.0100 -0.0100
v -0.0100 -0.0200 0.0000
v -0.0100 0.0000 0.0000
v -0.0200 -0.6700 -0.0100
v 0.0000 5.3000 0.0000
v 0.0000 0.0000 0.1900
v 0.0000 0.0000 0.5200
v 0.0000 0.1000 -0.0400
v -0.0400 28.1500 0.0000
v 0.0000 2.0700 -23.0500
v 30.7100 -0.0100 0.1000
v 17.9100 -0.0100 0.3100
v 2.0700 -25.6000 25.5900
v 20.4700 -0.0100 2.3900
v 20.3700 0.0000 20.3900
v 20.3800 0.0000 1.1500
v 0.0000 0.0000 20.3700
v 23.0300 -0.0100 0.0000
v 0.0000 0.9400 -0.0100
v -0.0100 -0.0100 0.0000
v -0.0100 -0.0100 0.0700
v 0.1300 -0.0100 -0.0100
v -0.0100 -0.0100 0.4700
v -0.0100 -0.0100 0.9500
v 0.7900 -0.0100 -0.0100
v -0.0100 -0.0100 0.3000
v 0.1100 -0.0100 -0.0100
v 0.0700 -0.0100 -0.0100
v -0.0100 -11.1300 0.0000
v 0.0000 21.8100 -0.0100
v 0.0100 0.0000 0.0000
v 0.0000 0.0000 0.0100
v 0.0100 0.0000 0.0000
v 0.0000 0.0000 0.0100
v 0.0100 0.0100 0.0000
v 0.0100 0.0100 0.0000
v 0.0100 0.0000 0.0000
v 24.9700 0.0000 0.0000
v 3.8400 0.0000 0.0000
v -31.0500 -5.2900 -1.9900
v -0.6800 -0.0100 0.0000
v 0.0000 0.1800 0.0000
v 0.0000 0.0000 0.1800
v 0.0000 0.0000 0.7000
v 0.0000 0.0800 -0.0400
v -0.0600 30.7100 0.0000
v -7.7100 20.4700 0.0000
v 30.7100 -0.0100 0.1100
v 0.7900 -4.8000 30.7100
v 25.5900 -0.0100 7.5100
v 12.7900 -0.0100 28.1500
v 0.0000 0.0000 5.1100
v 0.0000 0.0000 1.7500
v 1.7500 -0.0100 0.0000
v 4.9500 -0.0100 0.0000
v 0.0000 0.0000 -0.0100
v 0.0000 0.0200 -0.0100
v -0.0100 -0.0100 0.0000
v 0.0000 0.0700 -0.0100
v -0.0100 -0.0100 0.0000
v -0.0100 -0.0100 0.0000
v 0.0000 0.0800 -0.0100
v -0.0100 -0.0100 0.0000
v 0.0000 0.0000 30.7100
v 1.7500 -0.0100 0.0000
v 0.0100 0.0000 0.0000
v 0.0000 0.0000 0.0100
v 0.0000 0.0100 0.0100
v 0.0100 0.0000 0.0000
v 0.0000 0.0000 0.0100
v 0.0100 0.0100 0.0000
v 0.0000 0.0000 0.0100
v 0.0100 0.0100 0.0100
v 0.0000 0.0000 0.0100
v 0.0100 0.0000 0.0000
v 0.0100 0.0000 0.0000
v 24.3200 0.0000 0.0000
v 0.0000 0.0000 0.3500
v 0.0000 0.0000 3.2400
v -0.0600 33.2700 0.0000
v 0.0000 0.1100 -0.0200
v -10.2500 -0.0100 0.0000
v 0.0000 28.1500 -0.0100
v -0.0100 -0.0100 0.0000
v 0.2700 -1.2800 -0.0100
v 30.7100 -0.0100 -9.1000
v 2.5500 -0.0100 0.0000
v 0.0000 0.0000 1.7500
v 0.0000 0.0000 1.2700
v 0.6300 -0.0100 0.0000
v 0.0000 0.0000 1.2700
v 2.3900 -0.0100 0.0000
v 2.3900 -0.0100 0.0000
v 0.0000 0.0000 1.7500
v 1.2700 -0.0100 0.0000
v 0.0000 0.0000 0.2900
v 0.0000 0.0000 0.0100
v 0.0000 19.8300 0.0000
v 0.0100 0.0100 0.0100
v 0.0000 0.0000 0.0100
v 0.0100 0.0100 0.0100
v 0.0100 0.0100 0.0100
v 0.0100 0.0000 0.0000
v 0.0100 0.0100 0.0100
v 0.0100 0.0100 0.0000
v 0.0100 0.0100 0.0100
v 0.0000 0.0000 0.0100
v 0.0000 0.0100 0.0100
v 0.0000 0.0100 0.0100
v 0.0000 0.0100 0.0100
v 0.0100 0.0100 0.0100
v 0.0100 0.0100 0.0000
v -0.6300 -0.6300 -0.6300
v -21.1100 -0.6300 -0.6300
v -0.6300 -0.6300 -0.6300
v -0.0100 -0.0100 -0.0100
v -0.0100 -0.0100 -0.0100
v -0.0100 -0.0100 -0.0100
v -4.6300 -0.6700 -0.0100
v -6.6100 -3.3100 -5.2900
v 0.0000 22.8700 -0.0100
v -0.0100 -0.0100 0.0000
v 0.0300 -0.0100 -0.0100
v -0.0100 -0.0100 0.0600
v -0.0100 -0.0100 0.0300
v -0.0100 -0.0100 0.0100
v 0.6000 -0.0100 -0.0100
v 8.1800 0.0000 5.1000
v 2.5500 -0.0100 0.0000
v 0.0000 0.0000 1.7500
v 1.2700 -0.0100 0.0000
v 0.0000 0.0000 0.6300
v 0.0000 0.0000 0.1000
v 0.0000 -0.0100 0.0000
v 0.0000 1.4100 0.0000
vt 0.0000 0.0000
vt 0.0010 0.0010
vt 0.0000 0.0000
vt 0.0010 24.2568
vt 0.0000 0.0000
vt 22.3193 -29.2334
vt 0.0000 0.0000
vt -29.0400 -16.6533
vt 0.0000 0.0000
vt 0.0000 0.0000
vt 0.0000 0.0010
vt 0.0000 0.0000
vt 0.0000 0.0000
vt -0.0010 -0.1943
vt 0.0000 0.0000
vt 0.0000 0.0000
vt -19.2900 -19.3584
vt 0.0000 0.0000
vt -10.9678 -13.1768
vt -31.3721 -6.9678
vt 0.0000 0.0000
vt -15.2256 -9.0518
vt -7.1045 -2.9033
vt 0.0000 0.0000
vt -21.3545 -11.1650
vt 0.0000 0.0000
vt -10.6455 -23.2900
vt -16.8389 -15.0322
vt -0.1943 -4.3877
vt -0.0010 -0.0664
vt 0.0000 0.0000
vt 25.6152 17.0488
vt -0.0010 -0.0049
vt -0.0010 -0.0938
vt 28.2500 0.0000
vt -0.0010 -0.0010
vt -0.0010 0.0000
vt -0.0010 -0.0010
vt -1.2031 0.0000
vt -0.0010 -0.0010
vt 8.0000 0.0000
vt -0.0010 -14.2344
vt 12.2979 0.0000
vt 0.0000 0.0000
vt -1.5000 0.0000
vt 0.0000 0.0000
vt 4.0000 0.0000
vt 0.0000 0.0000
vt 0.0010 24.2568
vt 0.0000 0.0000
vt 0.0000 0.0000
vt -26.9131 -16.6533
vt 0.0000 0.0000
vt 0.0000 0.0000
vt 0.0000 0.0000
vt 0.0000 0.0000
vt 0.0000 0.0000
vt 0.0000 0.0000
vt 18.5166 0.0000
vt -0.0020 0.0000
vt -6.2588 0.0000
vt -4.6865 -14.8115
vt -0.0020 0.0000
vt -2.6240 -20.9365
vt -4.1299 0.0000
vt -16.9033 -29.3545
vt -0.3740 -19.0557
vt -2.0654 0.0000
vt -20.9678 28.5166
vt -18.9678 30.5811
vt 0.0000 0.0000
vt -21.0967 28.6455
vt 0.0000 0.0000
vt 0.0000 0.0000
vt 0.0000 0.0000
vt -0.0010 0.0000
vt 0.0000 0.0000
vt 25.8652 17.0156
vt -0.0010 -0.0049
vt -0.0010 -0.0156
vt 8.0000 0.0000
vt -0.0010 -0.0010
vt -0.2188 0.0000
vt -1.7500 0.0000
vt -0.0010 -0.0010
vt 8.0000 0.0000
vt -0.0020 -31.2500
vt 0.0000 0.0000
vt 0.0000 0.0000
vt 0.0000 0.0000
vt -0.0020 4.0000
vt 0.0000 0.0000
vt 0.0000 0.0000
vt -0.0010 -20.0000
vt 0.0000 0.0000
vt 0.0000 0.0000
vt -0.0928 0.0000
vt 0.0000 0.0000
vt -0.4844 0.0000
vt -3.5000 0.0000
vt 0.0000 0.0000
vt 0.0000 0.0000
vt 0.0000 0.0000
vt 0.0010 24.2568
vt 0.0000 0.0000
vt 20.3184 -29.2979
vt 0.0000 0.0000
vt 0.0000 0.0000
vt 0.0000 0.0000
vt 0.0000 0.0000
vt 0.0000 0.0000
vt -0.0010 -0.0010
vt 0.0000 0.0000
vt 0.0000 0.0000
vt 25.8652 16.5312
vt -0.0010 -0.0068
vt -0.0010 -0.0469
vt 0.0000 0.0000
vt -6.0000 0.0000
vt -0.1406 0.0000
vt -0.0010 -0.0010
vt -1.2500 0.0000
vt -2.7500 0.0000
vt -0.0010 -1.9531
vt -0.0020 8.0000
vt 0.0000 0.0000
vt 0.0000 0.0000
vt -0.0010 -0.0312
vt -0.0010 -0.0137
vt 0.0000 0.0000
vt -0.0010 -0.0146
vt 0.0000 0.0000
vt 0.0000 0.0000
vt -0.0010 -0.4844
vt 0.0000 0.0000
vt -0.0078 4.0000
vt 0.0000 0.0000
vt 0.0000 0.0000
vt 0.0010 0.0010
vt 0.0010 6.0010
vt 0.0000 0.0000
vt 0.0010 24.2568
vt 0.0000 0.0000
vt 20.3193 -29.2334
vt 0.0000 0.0000
vt -26.9756 -16.6533
vt 0.0000 0.0000
vt 0.0000 0.0000
vt 0.0000 0.0000
vt 29.8662 25.0312
vt -0.0010 -0.0049
vt 0.0000 0.0000
vt -0.0010 -0.0312
vt -0.0459 0.0000
vt -0.0010 -0.0010
vt -0.0010 -28.0000
vt -0.0010 -0.0010
vt -0.7188 0.0000
vt 16.0000 0.0000
vt -0.0010 -0.2188
vt -0.0010 -0.0312
vt 0.0000 0.0000
vt -0.0010 -0.0029
vt 0.0000 0.0000
vt 0.0000 0.0000
vt -0.0010 -0.0010
vt 0.0000 0.0000
vt -0.0010 -0.0137
vt -0.0010 -0.1719
vt 0.0000 0.0000
vt 0.0000 0.0000
vt 0.0010 0.0010
vt 0.0010 0.0010
vt 0.0010 0.0010
vt 0.0000 0.0000
vt 0.0010 6.0010
vt 0.0000 0.0000
vt 0.0010 6.0625
vt 0.0000 0.0000
vt 2.0010 4.0674
vt 0.0000 0.0000
vt 6.2568 6.3213
vt 0.0000 0.0000
vt 0.0000 0.0000
vt 8.9385 4.6250
vt 29.3135 6.8760
vt 21.3760 9.3135
vt -2.1299 -31.0889
vt -2.1943 -12.4521
vt -0.0010 -10.3242
vt -0.2588 -14.7744
vt -27.3545 0.0000
vt -0.0010 -0.0010
vt -0.0020 28.0000
vt -0.0010 -0.0010
vt -0.0010 -0.0127
vt -0.0010 -0.0029
vt -0.0010 -0.0010
vt -0.0010 -0.0010
vt -0.0010 -0.0010
vt 0.0000 0.0000
vt -0.0010 -0.0117
vt 0.0000 0.0000
vt -0.0010 -0.6875
vt -0.0010 -3.0000
vt 0.0000 0.0000
vt 0.0000 0.0000
f 128/128 128/128 128/128
f 16/16 128/128 25/25
