mtllib assets10_model_006.mtl
# Conker's Bad Fur Day — Real 3D Model (Spooky Models)
o assets10_model_006
usemtl assets10_model_006_mat

v 0.0000 3.7600 0.0000
v 0.0000 4.3200 0.0000
v 0.0000 4.6400 0.0000
v 0.0000 6.6400 0.0000
v 0.0000 7.4400 0.0000
v 0.0000 8.0800 0.0000
v 0.0000 8.7200 0.0000
v 0.0000 9.0400 0.0000
v 0.0000 9.4400 0.0000
v 0.0000 10.6400 0.0000
v 0.0000 11.6800 0.0000
v 0.0000 13.6000 0.0000
v 0.0000 15.5200 0.0000
v 0.0000 17.0400 0.0000
v 0.0000 18.0000 0.0000
v 0.0000 18.3200 0.0000
v 0.0000 19.0400 0.0000
v 0.0000 19.3600 0.0000
v 0.0000 19.6800 0.0000
v 0.0000 20.0000 0.0000
v 0.0000 20.3200 0.0000
v 0.0000 20.6400 0.0000
v 0.0000 20.9600 0.0000
v 5.8000 -31.0000 -27.2000
v 5.2700 -31.0000 -28.4400
v 11.1100 -20.5000 16.0000
v 11.1100 -20.5000 16.0000
v 11.1100 -20.5000 16.0000
v 32.5000 -34.0000 -22.8000
v 30.6000 -33.5000 -36.6000
v -19.0900 -19.7000 15.0400
v -0.6600 -28.5900 6.9000
v 9.2300 -32.0900 6.4600
v 27.3600 -33.2500 14.7700
v 38.9300 -36.5200 -14.0300
v 26.7200 -37.7200 -19.4800
v 4.7300 -37.9500 -19.0600
v -1.2800 -37.7200 -24.6200
v -2.0500 -37.7300 -35.2200
v 14.2800 -34.2000 -28.2400
v 32.5000 -34.0000 -22.8000
v 9.5700 -33.8300 -28.4100
v 7.3700 -33.6500 -24.6000
v 10.6400 -34.1600 -25.7600
v 1.5000 -26.4200 0.1500
v 4.7200 -26.3200 -0.8500
v -3.0200 -23.9900 -10.8800
v 3.3800 -25.3400 -1.7600
v -12.1400 -19.0200 4.1400
v 1.3000 -26.2700 4.1600
v -17.2600 -16.7500 -10.4000
v 0.4800 -26.7000 -4.7800
v 27.7300 -17.8200 -8.4100
v 26.9000 -17.8200 -7.8000
v 26.9000 -17.8200 -7.8000
v -10.8000 -14.7400 19.1000
v 5.8000 -31.0000 -27.2000
v -32.5800 4.6100 12.4500
v -35.2600 10.8400 5.1200
v -34.5200 12.0400 9.6600
v -34.6100 11.9700 9.6200
v -31.3300 13.7200 4.2100
v -31.3800 13.7700 4.2400
v -35.2000 10.8700 5.0200
v -29.7500 -5.5700 8.1200
v -24.9000 -1.9100 3.7700
v -24.9200 -1.9600 3.7100
v -28.8400 -4.3000 13.4300
v -28.8600 -4.3500 13.5300
v -29.8700 -5.5000 7.8600
v -29.0400 -20.4500 29.3900
v -37.2200 -20.4500 29.7600
v -29.0800 -20.4500 29.2400
v 26.2300 -17.8200 -7.3200
v 26.2300 -17.8200 -7.3200
v 26.2300 -17.8200 -7.3200
v 6.9300 -19.6100 25.3800
v -39.0000 20.0400 0.1100
v 5.8000 -31.0000 -27.2000
v 27.7300 -17.8200 -8.4100
v 9.1200 -32.8800 -7.9900
v 9.0100 -33.6500 -28.9900
v 9.0100 -33.6500 -28.9900
v 9.0100 -33.6500 -28.9900
v -0.0800 -35.6300 -38.0300
v 7.0400 -35.4800 -17.6700
v 33.0100 -31.6800 13.2400
v 8.0200 -30.2800 6.0300
vt 0.0000 0.4062
vt 0.0000 0.4375
vt 0.0000 0.4766
vt 0.0000 0.6641
vt 0.0000 0.7578
vt 0.0000 0.8203
vt 0.0000 0.8672
vt 0.0000 0.8984
vt 0.0000 0.9375
vt 0.0000 1.0547
vt 0.0000 1.2266
vt 0.0000 1.4141
vt 0.0000 1.5859
vt 0.0000 1.7422
vt 0.0000 1.7734
vt 0.0000 1.8047
vt 0.0000 1.8750
vt 0.0000 1.9062
vt 0.0000 1.9375
vt 0.0000 1.9688
vt 0.0000 2.0000
vt 0.0000 2.0312
vt 0.5664 -2.9785
vt 0.6191 -3.0273
vt 0.4150 -3.0273
vt 1.0850 -2.0020
vt 1.0850 -2.0020
vt 1.0850 -2.0020
vt 3.1738 -3.3203
vt -2.2969 -1.9209
vt -1.4229 -2.0547
vt 0.2627 -2.9121
vt 1.6631 -3.1680
vt 3.5596 -3.3584
vt 3.2686 -3.6143
vt 1.4316 -3.7051
vt 0.1172 -3.6758
vt -0.2119 -3.6846
vt 0.0791 -3.6846
vt 3.1738 -3.3203
vt 2.9883 -3.2715
vt 0.8525 -3.3008
vt 0.9736 -3.3291
vt -0.2549 -2.5801
vt 0.3008 -2.5020
vt -0.4619 -2.3428
vt -0.1143 -2.2646
vt -0.1377 -1.9258
vt -0.5928 -2.0820
vt -0.3438 -1.8750
vt -1.1318 -1.9629
vt 2.7080 -1.7402
vt 2.6270 -1.7402
vt 2.6270 -1.7402
vt -0.9746 -1.4092
vt -0.9043 -1.4326
vt 0.5664 -3.0273
vt -3.5166 0.3066
vt -3.1709 1.2090
vt -3.7686 1.1016
vt -3.1641 1.2285
vt -3.0098 1.4033
vt -3.1777 1.2236
vt -4.5400 0.5449
vt -2.5381 -0.3779
vt -2.4717 -0.0361
vt -2.5371 -0.3652
vt -3.2988 -0.5684
vt -2.5586 -0.3818
vt -5.2705 -1.3848
vt -3.6270 -1.9971
vt -4.2119 -1.9971
vt 2.5615 -1.7402
vt 2.5615 -1.7402
vt 2.5615 -1.7402
vt 0.6768 -1.9150
vt -4.0420 1.9531
vt -3.7715 1.9551
vt 0.5664 -3.0273
vt 2.7080 -1.7402
vt 0.8906 -3.2109
vt 0.8799 -3.2861
vt 0.8799 -3.2861
vt 0.8799 -3.2861
vt -0.1416 -3.4600
vt 3.2715 -3.3965
vt 2.1816 -2.9912
vt -1.7109 -2.0391
f 1/1 2/2 3/3
f 4/4 5/5 6/6
f 7/7 8/8 9/9
f 10/10 11/11 12/12
f 13/13 14/14 15/15
f 16/16 17/17 18/18
f 19/19 20/20 21/21
f 22/22 23/23 24/24
f 25/25 26/26 27/27
f 28/28 29/29 30/30
f 31/31 32/32 33/33
f 34/34 35/35 36/36
f 37/37 38/38 39/39
f 40/40 41/41 42/42
f 43/43 44/44 45/45
f 46/46 47/47 48/48
f 49/49 50/50 51/51
f 52/52 53/53 54/54
f 55/55 56/56 57/57
f 58/58 59/59 60/60
f 61/61 62/62 63/63
f 64/64 65/65 66/66
f 67/67 68/68 69/69
f 70/70 71/71 72/72
f 73/73 74/74 75/75
f 76/76 77/77 78/78
f 79/79 80/80 81/81
f 82/82 83/83 84/84
f 85/85 86/86 87/87
