mtllib assets09_model_277.mtl
# Conker's Bad Fur Day — Real 3D Model (Multiplayer Level Models)
o assets09_model_277
usemtl assets09_model_277_mat

v 0.0000 22.6400 0.0000
v 0.0000 0.0000 -2.5800
v 0.0000 0.0000 -2.5800
v 0.0000 0.0000 -2.5800
v 0.0000 0.0000 -2.5800
v 0.0000 0.0000 -2.5800
v 0.0000 0.0000 -2.5800
v 0.0000 0.0000 -2.5800
v 0.0000 0.0000 -2.5800
v 0.0000 0.0000 -2.5800
v 0.0000 0.0000 -2.5800
v 2.5800 0.6400 0.0000
v 15.5200 30.8200 0.1600
v -27.3600 0.0000 17.9200
v -27.4400 30.7200 0.0900
v -7.5200 0.0000 0.6400
v 15.5200 20.5200 0.1800
v -6.8800 0.0000 0.0000
v -7.5200 0.0000 0.6400
v -33.2800 0.0000 18.2300
v -6.8800 0.0000 0.0000
v -27.4400 20.4800 0.0900
v -7.5200 0.0000 0.6400
v -6.8800 0.0000 0.0000
v -7.5200 0.0000 0.6400
v -6.8800 0.0000 0.0000
v -27.4400 30.7200 0.0900
v -7.5200 0.0000 0.6400
v -6.8800 0.0000 0.0000
v -27.5200 20.4800 0.0900
v -7.5200 0.0000 1.2800
v 0.0000 37.1000 0.0000
v 0.0000 0.0000 1.2700
v 1.3000 1.3000 1.3000
vt 0.0000 0.0000
vt 0.0127 -0.0615
vt 0.0127 -0.0518
vt 0.0283 -0.0576
vt 0.0215 -0.0654
vt -0.0283 -0.0576
vt -0.0127 -0.0615
vt -0.0225 -0.0654
vt -0.0225 -0.0488
vt -0.0127 -0.0518
vt 0.0557 -0.0273
vt 4.6484 -28.8740
vt -10.2500 0.0020
vt -3.2500 0.0000
vt -3.4375 9.0020
vt -2.6562 0.2500
vt -6.2500 0.0000
vt -3.2500 0.0000
vt -6.5000 0.0000
vt -2.6797 2.0000
vt -3.2500 0.0000
vt -3.4375 9.0020
vt -6.5000 0.0000
vt -3.2500 0.0000
vt -6.5000 0.0000
vt -3.2500 0.0000
vt -3.4375 9.0020
vt -6.5000 0.0000
vt -3.2500 0.0000
vt -3.4375 9.0020
vt -6.5000 0.0000
vt 3.6230 4.8730
vt 0.0000 0.0000
vt 0.0000 0.0000
f 9/9 7/7 6/6
f 9/9 10/10 7/7
f 31/31 32/32 28/28
f 32/32 17/17 29/29
f 9/9 5/5 3/3
f 10/10 7/7 5/5
f 14/14 13/13 15/15
f 16/16 14/14 15/15
f 31/31 32/32 30/30
f 31/31 30/30 29/29
f 17/17 16/16 20/20
f 17/17 20/20 21/21
f 11/11 12/12 13/13
f 11/11 13/13 14/14
