mtllib assets01_model_019.mtl
# Conker's Bad Fur Day — Real 3D Model (HUD & UI Props)
o assets01_model_019
usemtl assets01_model_019_mat

v 0.0000 11.9600 0.0000
v 0.0000 21.1200 0.0000
v 15.5000 1.2000 -2.5800
v 5.0100 1.2000 -2.5800
v 5.8600 35.4300 -2.5800
v 28.7400 35.4300 -2.5800
v 37.4900 0.0000 -2.5800
v 14.6300 3.1500 -2.5800
v 18.5600 9.9200 -2.5800
v 10.4900 10.0400 -2.5800
v 2.2600 10.0800 -2.5800
v 5.8500 3.8600 -2.5800
v 10.3200 10.0600 -2.5800
v 13.9200 3.8400 -2.5800
v 18.3800 10.0400 -18.0000
v 2.4100 10.1600 -18.0000
v 25.9400 0.0000 -2.5800
v 25.4800 20.4800 -2.5800
v 0.0000 28.2500 0.3200
v 0.6400 0.3200 0.0000
v -28.0000 0.0000 17.9200
v -33.2800 0.0000 18.3400
v -28.1600 2.5600 15.3600
v -7.5200 0.0000 1.2800
v -28.1600 11.5200 2.6100
v -28.1600 6.7200 5.1600
v -28.1600 6.8000 7.7200
v -7.5200 0.0000 1.2800
v -28.1600 11.5200 2.5700
v -28.1600 6.8000 7.6800
v -7.5200 0.0000 0.0000
v -33.2800 0.0000 18.3400
v -28.1600 20.4800 0.0500
v -28.1600 6.7200 5.1600
v -7.5200 0.0000 1.2800
v -28.1600 11.5200 2.5700
v -28.1600 6.8000 7.6800
v -7.5200 0.0000 1.2800
vt 0.0000 1.1836
vt 0.0000 0.0000
vt -0.0459 0.0000
vt -0.0420 0.0312
vt 0.0000 0.0615
vt -0.0322 0.0615
vt -0.0459 0.0000
vt -0.0186 0.0840
vt 0.0000 0.0938
vt -0.0186 0.0840
vt 0.0000 0.0840
vt 0.0000 0.0938
vt 0.0186 0.0840
vt 0.0186 0.0840
vt 0.0186 0.0840
vt 0.0000 0.0840
vt -0.0420 0.0312
vt 0.0000 1.2188
vt 0.0000 0.0576
vt 0.0000 0.0566
vt -6.5000 0.0000
vt -6.2500 0.0000
vt -6.5000 0.0000
vt -4.0000 0.0000
vt -3.5000 8.0020
vt -3.5000 8.0020
vt -3.5000 8.0020
vt -4.0000 0.0000
vt -2.7500 0.6562
vt 5.6572 -19.7402
vt -6.5000 0.0000
vt -6.2500 0.0000
vt -2.7500 1.1250
vt -2.7500 0.6641
vt -4.0000 0.0000
vt -2.7500 0.6562
vt 5.8018 -17.6748
vt -4.0000 0.0000
f 9/9 10/10 3/3
f 10/10 1/1 3/3
