mtllib assets09_model_104.mtl
# Conker's Bad Fur Day — Real 3D Model (Multiplayer Level Models)
o assets09_model_104
usemtl assets09_model_104_mat

v 0.0000 5.2000 0.0000
v 0.0000 2.5600 -0.0100
v 0.0000 7.6800 -0.0100
v 10.2400 2.5600 -0.0100
v 10.2400 7.6800 -0.0100
v 0.0000 10.2400 -0.0100
v 10.2400 10.2400 -0.0100
v 0.0000 7.6800 -0.0100
v 10.2400 7.6800 -0.0100
v 0.0000 2.5600 -0.0100
v 10.2400 2.5600 -0.0100
v 0.0000 0.0000 -0.0100
v 10.2400 0.0000 -0.0100
v 18.9300 2.6400 -0.0100
v 18.8500 3.6600 -0.0100
v 10.5600 2.3600 -0.0100
v 10.5600 2.3600 -0.0100
v 18.9300 2.6400 -0.0100
v 10.5200 3.7500 -0.0100
v 34.5500 3.9700 -0.0100
v 34.6000 3.1400 -0.0100
v 34.6000 3.1400 -0.0100
v -28.0000 0.0000 17.9200
v -33.2800 0.0000 18.3400
v -28.1600 2.5600 15.3600
v -7.5200 0.0000 0.6400
v -28.0800 11.5200 2.5700
v -28.0800 6.7200 5.1200
v -28.0800 6.8000 7.6800
v -7.5200 0.0000 0.6400
vt 0.0000 0.0000
vt 0.0029 -0.0098
vt 0.0146 -0.0098
vt 0.0029 -0.0098
vt -0.0039 -0.0205
vt -0.0039 -0.0205
vt 0.0029 -0.0312
vt 0.0029 -0.0312
vt 0.0146 -0.0312
vt 0.0146 -0.0312
vt 0.0215 -0.0205
vt 0.0215 -0.0205
vt 0.0127 -0.0186
vt 0.0088 -0.0215
vt 0.0146 -0.0176
vt 0.0186 -0.0234
vt 0.0117 -0.0254
vt 0.0088 -0.0215
vt 0.0068 -0.0205
vt 0.0098 -0.0186
vt 0.0127 -0.0215
vt 0.0059 -0.0205
vt -6.5000 0.0000
vt -6.2500 0.0000
vt -6.5000 0.0000
vt -4.0000 0.0000
vt -3.5000 8.0020
vt -3.5000 8.0020
vt -3.5000 8.0020
vt -4.0000 0.0000
f 16/16 15/15 12/12
f 16/16 12/12 9/9
f 13/13 16/16 9/9
f 17/17 18/18 19/19
f 8/8 17/17 19/19
f 2/2 8/8 3/3
