mtllib assets09_model_144.mtl
# Conker's Bad Fur Day — Real 3D Model (Multiplayer Level Models)
o assets09_model_144
usemtl assets09_model_144_mat

v 0.0000 17.3600 0.0000
v 10.9400 5.8800 -2.5800
v 5.2700 5.0200 -2.5800
v 2.9400 4.9900 -2.5800
v 7.6800 5.0500 -2.5800
v 2.9400 4.9900 -2.5800
v 3.0300 3.0200 -2.5800
v 7.6800 5.0500 -2.5800
v 5.2500 2.7500 -2.5800
v 5.2700 5.0200 -2.5800
v 7.6800 5.0500 -2.5800
v -28.0000 0.0000 17.9200
v -33.2800 0.0000 18.2300
v -28.1600 2.5600 15.3600
v -7.5200 0.0000 0.6400
v 12.9000 0.0400 0.0000
vt 0.0000 1.6992
vt -0.0059 -0.0010
vt 0.0059 0.0000
vt 0.0010 0.0000
vt 0.0117 -0.0146
vt 0.0059 -0.0078
vt 0.0010 -0.0078
vt 0.0117 -0.0146
vt 0.0010 -0.0098
vt 0.0010 -0.0098
vt 0.0010 -0.0078
vt -6.5000 0.0000
vt -6.2500 0.0000
vt -6.5000 0.0000
vt -4.0000 0.0000
vt -9.4453 0.0029
f 1/1 7/7 5/5
f 6/6 1/1 3/3
f 2/2 6/6 8/8
f 2/2 5/5 6/6
