# Conker's Bad Fur Day — Real 3D Model (Spooky Models)
o assets10_model_025

v 0.0000 0.4000 0.0000
v 0.0000 1.2000 0.0000
v 0.0000 2.0000 0.0000
v -17.5000 25.8300 16.4400
v -6.7000 25.8300 -14.3600
v 2.2900 25.8300 3.7300
v -7.3100 25.8300 -12.4800
v -16.9200 25.8300 14.5600
v -21.1600 32.1800 -0.6000
v -3.1700 32.1800 3.1500
v -18.9800 32.1800 2.2900
v -9.3000 32.1800 -5.9500
v -14.9600 32.1800 8.7000
vt 0.0000 0.0781
vt 0.0000 0.1562
vt -1.6748 2.5225
vt -2.7539 2.5225
vt 0.3818 2.5225
vt 0.1562 2.5225
vt -2.5615 2.5225
vt -1.1338 3.1426
vt -1.4941 3.1426
vt -0.8730 3.1426
vt -1.9258 3.1426
vt -0.4512 3.1426
vt -0.7891 3.6230
f 1/1 2/2 3/3
f 4/4 5/5 6/6
f 7/7 8/8 9/9
f 10/10 11/11 12/12
