# Conker's Bad Fur Day — Real 3D Model (Multiplayer Level Models)
o assets09_model_347

v 0.0000 7.7600 0.0000
v -27.3600 0.0000 17.9200
v -27.4400 20.4800 0.0100
v -27.4400 11.5200 2.5700
v -27.4400 6.7200 5.1200
v -27.4400 6.8000 7.6800
v -27.4400 6.8400 10.2400
v -7.5200 0.0000 0.6400
v 12.8000 10.3600 0.0000
v -7.4400 0.0000 0.0000
v -33.2800 0.0000 18.5500
v 1.2700 1.2700 1.2700
vt 0.0000 0.0000
vt -3.2500 0.0000
vt -3.4375 9.0020
vt -3.4688 8.5020
vt -3.4844 8.2520
vt -3.4922 8.1270
vt -3.4961 8.0645
vt -2.6562 0.2500
vt -6.2500 0.0000
vt -2.7266 0.0000
vt -2.7266 4.0000
vt 0.1240 0.1240
f 7/7 8/8 5/5
f 1/1 7/7 5/5
f 1/1 3/3 7/7
