# Conker's Bad Fur Day — Real 3D Model (Spooky Models)
o assets10_model_000

v 0.0000 0.6400 0.0000
v 0.0000 1.8400 0.0000
v 0.0000 3.7600 0.0000
v 0.0000 4.8800 0.0000
v 17.9900 0.6800 17.8100
v 11.8600 0.0000 6.9000
v 13.9000 0.0000 -11.1400
v 12.7000 0.0000 -10.2800
v 14.1600 0.0000 8.0900
v 9.8900 0.0000 -1.2900
v -17.7800 0.6700 18.0000
v -11.6500 0.0000 6.0000
v 13.9000 0.0100 -11.4300
v 12.7200 0.0000 -10.3200
v 11.4500 0.0000 -10.4200
v -0.8200 0.0000 -9.0900
v -15.5500 -1.0800 -14.8800
v -12.0500 0.0000 -12.3200
v -0.0100 0.0000 0.0300
v 1.9000 0.0000 -11.0000
v 16.9000 1.3300 -14.1900
v 7.0700 0.0000 -13.6100
v 29.1000 16.0400 -21.0500
v 29.2400 10.0000 -16.2400
v 14.9700 2.5400 -33.3600
v 29.3000 16.0900 -20.9300
v 31.5200 12.7000 -18.2900
v 19.0500 8.0000 -28.1700
v 24.3300 -1.4500 -16.2100
v 29.1000 16.0400 -21.0500
v 29.3100 10.0200 -16.2100
v 14.9700 2.5400 -33.3600
vt 0.0000 0.0859
vt 0.0000 0.2812
vt 0.0000 0.4219
vt 0.0000 0.5312
vt 1.1973 0.0000
vt 0.0303 0.0000
vt 1.2051 0.0000
vt 1.6475 0.1299
vt 1.2520 0.0000
vt -1.4746 -0.1055
vt -1.2168 0.0000
vt 0.0000 0.0000
vt -0.4023 0.0000
vt 1.6465 0.1299
vt 0.9062 0.0000
vt -0.8682 0.0000
vt -1.7266 0.0449
vt -0.6016 0.0000
vt 1.3125 0.0000
vt 1.2363 0.0000
vt 0.0723 0.0000
vt 2.8613 1.5713
vt 3.0762 1.2402
vt 1.8604 0.7812
vt 2.3760 -0.1416
vt 2.8418 1.5664
vt 2.8633 0.9785
vt 1.4619 0.2480
vt 2.8613 1.5713
vt 3.0801 1.2402
vt 1.8604 0.7812
vt 2.3760 -0.1416
f 2/2 1/1 1/1
