# Conker's Bad Fur Day — Real 3D Model (Multiplayer Level Models)
o assets09_model_053

v 0.0000 3.9200 0.0000
v 7.3500 5.1500 -0.0100
v 7.3500 5.1500 -0.0100
v 7.3300 9.0200 -0.0100
v 0.2200 4.9500 -0.0100
v 16.7300 3.5800 -0.0100
v 0.2200 3.6200 -0.0100
v 16.7300 4.2400 -0.0100
v 0.2200 4.2800 -0.0100
v 1.4100 3.3000 -0.0100
v 2.1500 1.3000 -0.0100
v 5.7900 2.6700 -0.0100
v -28.0000 0.0000 17.9200
v -33.2800 0.0000 18.2300
v -28.1600 2.5600 15.3600
v -7.5200 0.0000 0.6400
v -7.5200 0.0000 0.6400
v 1.6700 1.2900 1.2900
vt 0.0000 0.0000
vt -0.0098 -0.0059
vt 0.0000 0.0098
vt 0.0000 0.0000
vt 0.0098 -0.0059
vt 0.0000 0.0049
vt -0.0059 -0.0029
vt 0.0059 -0.0029
vt 0.0000 0.0049
vt 0.0059 -0.0029
vt -0.0059 -0.0029
vt 0.0000 0.3906
vt -6.5000 0.0000
vt -6.2500 0.0000
vt -6.5000 0.0000
vt -4.0000 0.0000
vt -4.0000 0.0000
vt 26.3184 -0.3770
f 1/1 2/2 3/3
f 4/4 5/5 6/6
f 7/7 8/8 9/9
f 10/10 11/11 12/12
f 13/13 14/14 15/15
f 16/16 17/17 18/18
