# Conker's Bad Fur Day — Real 3D Model (Multiplayer Level Models)
o assets09_model_047

v 0.0000 8.2400 0.0000
v 5.2800 -0.4300 -2.5800
v 10.3100 2.5800 -2.5800
v 10.2900 8.3300 -2.5800
v 5.2400 11.0700 -2.5800
v 0.1100 2.4600 -2.5800
v 0.1800 8.0600 -2.5800
v 5.3700 -0.9500 -2.5800
v 10.2600 2.2300 -2.5800
v 10.2400 8.1400 -2.5800
v 5.1500 11.2000 -2.5800
v 0.1600 1.9500 -2.5800
v 0.0500 8.0200 -2.5800
v 3.0000 2.3200 -2.5800
v 1.2200 2.3300 -2.5800
v 0.7800 15.9000 -2.5800
v 3.1200 16.0800 -2.5800
v 2.9100 2.3200 -2.5800
v 2.9700 15.5300 -2.5800
v 6.3600 2.3000 -2.5800
v 7.5000 15.5100 -2.5800
v 8.1300 2.3000 -2.5800
v 9.8500 15.8700 -2.5800
v 6.3600 2.3000 -2.5800
v 7.6500 16.0600 -2.5800
v 1.8300 16.0100 -2.5800
v 0.4900 16.0600 -2.5800
v 0.3000 3.5100 -2.5800
v 2.0300 3.7900 -2.5800
v 1.8300 16.0100 -2.5800
v 2.0500 3.2800 -2.5800
v 4.3500 15.9200 -2.5800
v 5.6800 15.8700 -2.5800
v 7.1000 3.2700 -2.5800
v 5.4500 3.1600 -2.5800
v 4.4200 15.9200 -2.5800
v 5.4300 3.6700 -2.5800
v 1.8300 16.0100 -2.5800
v 2.0300 3.7900 -2.5800
v 0.5400 2.6700 -2.5800
v 5.3300 0.0100 -2.5800
v 5.0300 10.3700 -2.5800
v 0.3900 7.8400 -2.5800
v 10.0400 2.5300 -2.5800
v 9.8000 7.7100 -2.5800
v 0.4800 2.4100 -2.5800
v 5.1200 -0.1500 -2.5800
v 4.7900 10.6400 -2.5800
v 0.2300 7.8100 -2.5800
v 9.7700 2.5400 -2.5800
v 9.6100 7.9400 -2.5800
v -28.0000 0.0000 17.9200
v -33.2800 0.0000 18.2300
v -28.1600 2.5600 15.3600
v -7.5200 0.0000 0.6400
v -7.5200 0.0000 0.0000
v -33.2800 0.0000 18.5500
v -28.0800 20.4800 0.0900
v -7.5200 0.0000 17.9200
v -7.5200 0.0000 15.3600
vt 0.0000 0.0000
vt 0.0137 -0.0586
vt 0.0283 -0.0576
vt 0.0361 -0.0449
vt 0.0137 -0.0322
vt 0.0283 -0.0322
vt 0.0059 -0.0195
vt 0.0137 -0.0322
vt 0.0283 -0.0322
vt 0.0361 -0.0195
vt 0.0137 -0.0068
vt 0.0283 -0.0068
vt 0.0283 -0.0322
vt 0.0361 -0.0449
vt 0.0410 -0.0488
vt 0.0303 -0.0322
vt 0.0283 -0.0576
vt 0.0312 -0.0664
vt 0.0137 -0.0586
vt 0.0117 -0.0664
vt 0.0059 -0.0459
vt 0.0020 -0.0498
vt 0.0137 -0.0322
vt 0.0107 -0.0322
vt 0.0283 -0.0068
vt 0.0361 -0.0195
vt 0.0410 -0.0156
vt 0.0303 0.0010
vt 0.0283 -0.0322
vt 0.0303 -0.0322
vt 0.0137 -0.0322
vt 0.0059 -0.0195
vt 0.0020 -0.0156
vt 0.0107 -0.0322
vt 0.0137 -0.0068
vt 0.0107 0.0010
vt 0.0283 -0.0068
vt 0.0303 0.0010
vt 0.0117 -0.0664
vt 0.0020 -0.0498
vt 0.0410 -0.0488
vt 0.0312 -0.0664
vt 0.0107 -0.0322
vt 0.0303 -0.0322
vt 0.0107 -0.0322
vt 0.0020 -0.0156
vt 0.0410 -0.0156
vt 0.0303 -0.0322
vt 0.0107 0.0010
vt 0.0303 0.0010
vt 0.0000 0.8125
vt -6.5000 0.0000
vt -6.2500 0.0000
vt -6.5000 0.0000
vt -4.0000 0.0000
vt -6.5000 0.0000
vt -6.2500 0.0000
vt -3.5000 8.0020
vt -4.0000 0.0000
vt -4.0000 0.0000
f 26/26 29/29 30/30
f 26/26 30/30 27/27
f 5/5 7/7 8/8
f 5/5 8/8 6/6
