mtllib assets09_model_149.mtl
# Conker's Bad Fur Day — Real 3D Model (Multiplayer Level Models)
o assets09_model_149
usemtl assets09_model_149_mat

v 0.0000 13.0400 0.0000
v 2.9700 8.7800 -2.5800
v 18.1800 8.7400 -2.5800
v 1.5000 1.1000 -2.5800
v 19.9300 1.0500 -2.5800
v 19.9300 1.0500 -2.5800
v 21.4800 0.8700 -2.5800
v 19.4300 10.1400 -2.5800
v 18.1800 8.7400 -2.5800
v 18.1800 8.7400 -2.5800
v 19.4300 10.1400 -2.5800
v 19.9300 1.0500 -2.5800
v 21.4800 0.8700 -2.5800
v 8.6600 2.2200 -2.5800
v 8.2600 15.8600 -2.5800
v 1.5000 1.1000 -2.5800
v 2.9700 8.7800 -2.5800
v 2.9700 8.7800 -2.5800
v 1.5000 1.1000 -2.5800
v 8.2600 15.8600 -2.5800
v 8.6600 2.2200 -2.5800
v 0.0000 0.0000 -12.8600
v 0.0000 0.0000 -12.8600
v 0.0000 0.0000 -2.5800
v 0.0000 0.0000 -2.5800
v 0.0000 0.0000 -2.5800
v 0.0000 0.0000 -2.5800
v 0.0000 0.0000 -2.5800
v 0.0000 0.0000 -2.5800
v -28.0000 0.0000 17.9200
v -33.2800 0.0000 18.5500
v -28.1600 2.5600 15.3600
v -7.5200 0.0000 0.6400
v -7.5200 0.0000 0.6400
v -6.5600 0.0000 0.0000
v -33.2800 0.0000 18.2300
v -27.1200 20.4800 0.0900
v -7.5200 0.0000 0.0000
v -33.2800 0.0000 18.1200
v -28.0800 20.4800 0.0100
v -28.0800 10.8800 2.5600
v -28.0800 5.9200 5.1200
v -3.8100 -3.8100 3.5400
v 26.9600 26.9600 -3.7600
vt 0.0000 1.2773
vt -0.0244 0.0273
vt 0.0293 -0.0156
vt -0.0293 -0.0156
vt 0.0400 -0.0098
vt 0.0234 -0.0127
vt 0.0225 0.0215
vt 0.0342 0.0186
vt -0.0342 0.0186
vt -0.0225 0.0215
vt -0.0400 -0.0098
vt -0.0234 -0.0127
vt 0.0293 -0.0156
vt 0.0244 0.0273
vt -0.0342 -0.0244
vt 0.0371 0.0176
vt 0.0254 0.0186
vt -0.0254 0.0186
vt -0.0273 -0.0176
vt -0.0293 -0.0156
vt -0.0283 0.0293
vt 0.0205 0.0273
vt 0.0156 -0.0186
vt -0.0088 0.0273
vt 0.0078 0.0303
vt 0.0195 0.0273
vt 0.0117 0.0078
vt -0.0078 0.0303
vt 0.0000 1.3281
vt -6.5000 0.0000
vt -6.2500 0.0000
vt -6.5000 0.0000
vt -4.0000 0.0000
vt -4.0000 0.0000
vt -6.5000 0.0000
vt -6.2500 0.0000
vt -3.5000 8.0020
vt -6.5000 0.0000
vt -6.2500 0.0000
vt -3.5000 8.0020
vt -3.5000 8.0020
vt -3.5000 8.0020
vt 3.5645 3.5645
vt -2.7959 -2.7959
f 31/31 13/13 14/14
f 31/31 14/14 32/32
f 3/3 1/1 2/2
f 3/3 2/2 4/4
