mtllib assets09_model_246.mtl
# Conker's Bad Fur Day — Real 3D Model (Multiplayer Level Models)
o assets09_model_246
usemtl assets09_model_246_mat

v 0.0000 9.6800 0.0000
v -27.3600 0.0000 17.9200
v -27.4400 10.2400 0.0100
v -27.4400 5.7600 2.5700
v -27.4400 5.9200 5.1200
v -27.4400 6.0000 7.6800
v -7.5200 0.0000 0.6400
v -6.5600 0.0000 0.0000
v -33.2800 0.0000 18.0600
v -27.2000 5.4400 2.5700
v -27.2000 5.6800 7.6800
v -27.3600 0.0000 17.9200
v -27.4400 20.4800 0.0900
v -7.5200 0.0000 0.6400
v -33.2800 0.0000 18.1400
v -27.4400 5.9200 5.2000
v -7.5200 0.0000 0.6400
v 23.2900 23.2900 23.2900
vt 0.0000 0.0000
vt -3.2500 0.0000
vt -3.4375 9.0020
vt -3.4688 8.5020
vt -3.4844 8.2520
vt -3.4922 8.1270
vt -2.6562 0.2500
vt -2.6406 0.0000
vt -2.6562 0.5000
vt -2.6562 0.5469
vt -0.9629 -23.9961
vt -3.2500 0.0000
vt -3.4375 9.0020
vt -6.5000 0.0000
vt -2.6797 1.0000
vt -2.6797 0.5859
vt -6.5000 0.0000
vt -28.6992 -28.6992
f 11/11 5/5 3/3
f 11/11 3/3 2/2
