mtllib assets09_model_100.mtl
# Conker's Bad Fur Day — Real 3D Model (Multiplayer Level Models)
o assets09_model_100
usemtl assets09_model_100_mat

v 0.0000 2.6400 0.0000
v 0.1400 5.3400 -0.0100
v 1.0400 1.4600 -0.0100
v 10.5100 5.5500 -0.0100
v 10.5400 1.6600 -0.0100
v 20.0200 1.3500 -0.0100
v 19.9900 5.7500 -0.0100
v 0.1000 9.9400 -0.0100
v 10.4700 10.1600 -0.0100
v 19.9500 10.3600 -0.0100
v 0.0700 14.4700 -0.0100
v 10.4400 14.6800 -0.0100
v 19.9100 14.8800 -0.0100
v 0.0300 18.7900 -0.0100
v 10.4000 18.7900 -0.0100
v 18.7100 19.1200 -0.0100
v -28.0000 0.0000 17.9200
v -33.2800 0.0000 18.5500
v -28.1600 2.5600 15.3600
v -7.5200 0.0000 1.2800
v -34.4800 -6.3800 1.3000
v 1.3200 1.3300 1.3300
vt 0.0000 0.0000
vt 0.0195 -0.0098
vt 0.0635 -0.0098
vt 0.0635 -0.0098
vt 0.1084 -0.0156
vt 0.1084 -0.0098
vt 0.0156 -0.0078
vt 0.0635 -0.0078
vt 0.1084 -0.0078
vt 0.0156 -0.0107
vt 0.0635 -0.0107
vt 0.1084 -0.0107
vt 0.0156 -0.0068
vt 0.0635 -0.0068
vt 0.1025 -0.0068
vt 0.0000 0.2656
vt -6.5000 0.0000
vt -6.2500 0.0000
vt -6.5000 0.0000
vt -4.0000 0.0000
vt 0.1270 0.1270
vt 0.0000 0.0000
f 1/1 2/2 3/3
f 4/4 5/5 6/6
f 7/7 8/8 9/9
f 10/10 11/11 12/12
f 13/13 14/14 15/15
f 16/16 17/17 18/18
f 19/19 20/20 21/21
