mtllib assets09_model_019.mtl
# Conker's Bad Fur Day — Real 3D Model (Multiplayer Level Models)
o assets09_model_019
usemtl assets09_model_019_mat

v 0.0000 8.2400 0.0000
v 0.0000 0.0000 -1.2900
v 0.0000 0.0000 -1.2900
v 24.4300 4.0600 -2.5800
v 24.4000 7.4500 -2.5800
v 11.0800 3.1400 -2.5800
v 11.0500 7.1200 -2.5800
v 24.4600 9.1500 -2.5800
v 10.7700 9.1000 -2.5800
v 24.5500 7.4600 -2.5800
v 10.5300 7.1000 -2.5800
v 24.5800 4.0700 -2.5800
v 10.5600 3.1100 -2.5800
v 24.5200 2.3700 -2.5800
v 10.8400 1.1300 -2.5800
v 8.4100 3.3200 -2.5800
v 8.3800 7.1300 -2.5800
v 10.7700 9.1000 -2.5800
v 8.1700 9.0200 -2.5800
v 8.3800 7.1300 -2.5800
v 10.5300 7.1000 -2.5800
v 8.0000 7.1100 -2.5800
v 10.5600 3.1100 -2.5800
v 8.0300 3.3100 -2.5800
v 10.8400 1.1300 -2.5800
v 8.2400 1.4100 -2.5800
v 11.0800 3.1400 -2.5800
v 8.4100 3.3200 -2.5800
v 6.4700 3.8100 -2.5800
v 6.4400 7.0700 -2.5800
v 6.1600 8.6800 -2.5800
v 5.9100 7.0400 -2.5800
v 5.9400 3.7900 -2.5800
v 6.2200 2.1700 -2.5800
v 5.3300 5.5400 -2.5800
v 2.5800 0.6400 2.5600
v -28.0000 0.0000 17.9200
v -33.2800 0.0000 18.5500
v -28.1600 2.5600 15.3600
v -7.5200 0.0000 15.3600
vt 0.0000 0.0000
vt -0.0254 -0.0078
vt -0.0137 -0.0342
vt -0.0254 -0.0049
vt -0.0146 0.0469
vt -0.0264 0.0469
vt -0.0312 -0.0059
vt -0.0322 0.0459
vt -0.0254 -0.0078
vt -0.0264 0.0449
vt -0.0156 -0.0078
vt -0.0146 0.0449
vt -0.0098 -0.0059
vt -0.0078 0.0459
vt -0.0156 0.0566
vt -0.0273 0.0566
vt -0.0322 0.0459
vt -0.0332 0.0557
vt -0.0273 0.0566
vt -0.0264 0.0449
vt -0.0273 0.0557
vt -0.0146 0.0449
vt -0.0156 0.0557
vt -0.0078 0.0459
vt -0.0088 0.0557
vt -0.0146 0.0469
vt -0.0156 0.0566
vt -0.0166 0.0645
vt -0.0273 0.0645
vt -0.0322 0.0645
vt -0.0273 0.0635
vt -0.0166 0.0635
vt -0.0117 0.0645
vt -0.0225 0.0674
vt 0.0000 0.8125
vt 4.5195 1.1279
vt -6.5000 0.0000
vt -6.2500 0.0000
vt -6.5000 0.0000
vt -4.0000 0.0000
f 21/21 22/22 31/31
f 22/22 32/32 31/31
f 22/22 24/24 32/32
f 13/13 14/14 18/18
f 14/14 15/15 18/18
f 15/15 16/16 18/18
