# Conker's Bad Fur Day — Real 3D Model (HUD & UI Props)
o assets01_model_012

v 0.0000 23.5200 0.0000
v 3.0900 3.1600 -0.0100
v 0.9200 3.1100 -0.0100
v 0.7400 3.0900 -0.0100
v 0.7400 3.0900 -0.0100
v 2.6300 32.2700 -0.4400
v 0.9300 3.7300 -0.0100
v 2.6300 32.2700 -0.4400
v 0.9300 3.7300 -0.0100
v 2.5500 4.0300 -0.0100
v 4.5200 3.6900 -0.0100
v -2.5600 0.0000 0.0000
v 0.0100 2.5600 0.0000
v 2.5800 5.1200 0.0000
v 5.1500 7.6800 0.0000
v 7.7200 10.2400 0.0000
v 10.3000 15.3600 0.0000
v 0.0000 23.7900 0.0000
v 0.0000 23.7800 0.1600
v 0.3200 0.3200 0.0000
v 0.0000 23.8200 0.0000
v 0.0000 23.8000 0.3200
v -28.0800 20.4800 0.0900
v -7.5200 0.0000 0.0000
v -7.5200 0.0000 17.9200
v -7.5200 0.0000 15.3600
v -7.5200 0.0000 0.0000
v -33.2800 0.0000 18.5500
v -28.0800 10.2400 0.0900
v -7.5200 0.0000 0.6400
v -7.5200 0.0000 0.6400
v 12.8400 5.2400 0.0000
v -35.8400 0.0000 0.0700
v 12.9200 25.8000 0.0000
v 13.0000 25.7200 0.0000
v 13.0200 31.0000 0.0000
v 13.1000 31.0400 0.0000
v 13.8200 25.4700 -21.4600
v 13.8200 25.4700 -21.4600
v 18.7000 31.1100 18.7000
v 13.8200 25.4700 -21.4600
v 13.8200 25.4700 -21.4600
v 18.7000 31.1100 18.7000
vt 0.0000 2.5000
vt -0.0020 0.0000
vt -0.0059 0.0029
vt 0.0039 -0.0049
vt 0.0039 -0.0010
vt 0.0000 0.0195
vt 0.0000 0.0117
vt 0.0049 0.0098
vt 0.0000 0.0029
vt 0.0039 0.0020
vt -0.0049 0.0098
vt -16.1875 -19.5498
vt 15.8105 -26.4395
vt 16.3965 10.0664
vt 16.4160 -18.8721
vt 16.4102 24.4941
vt 16.2842 -30.0029
vt 0.0312 0.0312
vt 0.0000 2.3271
vt 0.0000 2.3252
vt 0.0156 0.0156
vt -6.2500 0.0000
vt -3.5000 8.0020
vt -2.7344 0.0000
vt -4.0000 0.0000
vt -4.0000 0.0000
vt -6.5000 0.0000
vt -6.2500 0.0000
vt -3.5000 8.0020
vt -4.0000 0.0000
vt -4.0000 0.0000
vt -8.2500 0.0000
vt -9.5010 -0.0010
vt -9.4453 0.0029
vt -9.4453 0.0029
vt -9.4453 0.0029
vt -9.4453 0.0029
vt -6.1670 1.3496
vt 30.7412 19.2432
vt -30.4678 -1.0088
vt -6.1670 1.3496
vt 30.7412 19.2432
vt -30.4678 -1.0088
f 7/7 6/6 11/11
f 11/11 6/6 7/7
f 19/19 15/15 14/14
f 1/1 15/15 19/19
f 12/12 7/7 15/15
f 15/15 14/14 17/17
f 19/19 15/15 17/17
f 16/16 7/7 17/17
f 3/3 2/2 7/7
f 7/7 6/6 11/11
f 11/11 6/6 7/7
f 31/31 32/32 30/30
f 27/27 28/28 30/30
f 12/12 7/7 15/15
f 15/15 14/14 17/17
f 19/19 15/15 17/17
f 16/16 7/7 17/17
f 3/3 2/2 7/7
f 1/1 1/1 1/1
