mtllib assets09_model_097.mtl
# Conker's Bad Fur Day — Real 3D Model (Multiplayer Level Models)
o assets09_model_097
usemtl assets09_model_097_mat

v 0.0000 5.2000 0.0000
v 0.4700 0.5700 -2.5800
v 0.3100 4.0300 -2.5800
v 4.7500 4.0300 -2.5800
v 4.9200 0.5700 -2.5800
v 0.4700 0.5700 -2.5800
v 0.3100 4.0300 -2.5800
v 4.9200 0.5700 -2.5800
v 4.7500 4.0300 -2.5800
v 9.3600 0.5700 -2.5800
v 9.1900 4.0300 -2.5800
v 9.3600 0.5700 -2.5800
v 9.1900 4.0300 -2.5800
v 0.0400 9.6300 -2.5800
v 4.4800 9.6300 -2.5800
v 0.0400 9.6300 -2.5800
v 4.4800 9.6300 -2.5800
v 8.9200 9.6300 -2.5800
v 8.9200 9.6300 -2.5800
v 5.9000 -5.1400 -2.5800
v 8.4600 -9.5800 -2.5800
v 3.3400 -9.5800 -2.5800
v 0.7800 -5.1400 -2.5800
v 3.3400 -0.7100 -2.5800
v 8.4600 -0.7100 -2.5800
v 11.0200 -5.1400 -2.5800
v 2.4500 0.0700 -2.5800
v 2.5200 10.1900 -2.5800
v -0.1700 5.1500 -2.5800
v 7.8300 10.1400 -2.5800
v 7.7600 0.0200 -2.5800
v 10.4500 5.0600 -2.5800
v -28.0000 0.0000 17.9200
v -33.2800 0.0000 18.2300
v -28.1600 2.5600 15.3600
v -7.5200 0.0000 0.6400
v -7.5200 0.0000 0.0000
v -33.2800 0.0000 18.2300
v -7.5200 0.0000 0.6400
vt 0.0000 0.0000
vt 0.0127 -0.0078
vt 0.0176 -0.0166
vt 0.0195 -0.0166
vt 0.0020 -0.0059
vt 0.0029 -0.0078
vt -0.0039 -0.0166
vt -0.0020 -0.0166
vt 0.0020 -0.0264
vt 0.0029 -0.0244
vt 0.0137 -0.0264
vt 0.0127 -0.0244
vt 0.0156 -0.0020
vt 0.0234 -0.0166
vt -0.0010 -0.0020
vt -0.0088 -0.0166
vt -0.0010 -0.0303
vt 0.0156 -0.0303
vt 0.0078 -0.0166
vt 0.0020 -0.0059
vt 0.0137 -0.0059
vt 0.0195 -0.0166
vt 0.0137 -0.0264
vt 0.0020 -0.0264
vt -0.0039 -0.0166
vt 0.0156 -0.0303
vt -0.0088 -0.0166
vt -0.0010 -0.0303
vt -0.0010 -0.0020
vt 0.0234 -0.0166
vt 0.0156 -0.0020
vt 0.0000 0.5156
vt -6.5000 0.0000
vt -6.2500 0.0000
vt -6.5000 0.0000
vt -4.0000 0.0000
vt -6.5000 0.0000
vt -6.2500 0.0000
vt -4.0000 0.0000
f 23/23 24/24 19/19
f 19/19 25/25 20/20
