mtllib assets0E_model_014.mtl
# Conker's Bad Fur Day — Real 3D Model (Sloprano Models)
o assets0E_model_014
usemtl assets0E_model_014_mat

v 20.4800 0.0000 0.0000
v 20.4800 0.0000 0.0000
v 20.4800 0.0000 0.0000
v 20.4800 0.0000 0.0000
v 20.4800 0.0000 0.0000
v 20.4800 0.0000 0.0000
v 20.4800 0.0000 0.0000
v 20.4800 0.0000 0.0000
v 20.4800 0.0000 0.0000
v 20.4800 0.0000 0.0000
v 20.4800 0.0000 0.0000
v 20.4800 0.0000 0.0000
v 20.4800 0.0000 0.0000
v 20.4800 0.0000 0.0000
v 20.4800 0.0000 0.0000
vt 0.0156 0.0654
vt 0.0000 0.0645
vt 0.0000 0.0645
vt 0.0000 0.0645
vt 0.0000 0.0645
vt 0.0000 0.0645
vt 0.0000 0.0645
vt 0.0000 0.0645
vt 0.0000 0.0645
vt 0.0156 0.0654
vt 0.0000 0.0645
vt 0.0000 0.0645
vt 0.0000 0.0645
vt 0.0000 0.0645
vt 0.0000 0.5645
f 1/1 1/1 1/1
f 1/1 1/1 1/1
