mtllib assets0A_model_034.mtl
# Conker's Bad Fur Day — Real 3D Model (Bat's Tower Level Models)
o assets0A_model_034
usemtl assets0A_model_034_mat

v 6.5200 2.3100 17.2800
v 9.5800 21.4800 6.4400
v -1.8500 4.3600 4.2700
v 21.9300 8.3300 -0.0300
v 6.1900 0.6800 23.2800
v 10.6800 8.7600 6.1100
v 1.4800 9.9500 4.7700
v 26.4600 8.4100 1.6400
v 5.9600 -0.9500 27.0500
v -28.1100 39.5300 2.8700
v 0.0000 0.1600 0.1000
v 0.1000 0.1600 0.1000
v 0.1000 0.1600 0.1000
v 27.2600 8.4500 1.9700
v 7.8400 2.8100 18.1500
v 3.7000 21.7900 4.4600
v 10.2400 6.3500 8.2100
v 4.4500 13.9300 7.1900
v 18.9100 7.7000 -7.3000
v 7.8700 -7.5200 4.1800
v -7.2700 2.9700 3.2600
v 2.2300 2.2900 8.1600
v 1.7700 8.1400 20.2500
v 8.1400 18.3400 3.2200
v -5.3800 29.1600 7.3800
v 25.3400 7.0700 -4.3800
v 7.4600 9.3300 2.6400
v 9.5000 1.7000 0.7100
v -5.6700 0.5500 5.2900
v 0.1900 5.4100 -5.4000
v 5.4600 -5.1000 9.1900
v -5.0700 -0.2200 6.9200
v 1.4700 6.9300 12.0100
v 6.1700 12.3700 5.1700
v 12.6600 5.9600 -4.2400
v -4.4400 -2.3100 2.9400
v -2.7300 2.5000 -4.3200
v 2.2900 -4.2900 0.0000
v -4.2600 -0.7600 3.1500
v -1.5700 2.8000 8.3900
v 1.9100 7.5400 15.9100
v 8.3900 14.7600 -5.9900
v -5.4100 -2.4300 -1.9800
v -1.6600 -2.2600 -5.5300
v -2.4400 -5.4900 2.2700
v -5.2700 3.0300 -0.7100
v 4.0000 -0.7100 7.9700
v -0.7200 7.7800 2.9000
v 7.9600 3.9400 -2.3900
v -4.3900 3.4700 -2.5100
v 2.1300 -2.5200 -3.3200
v -2.5200 -3.2200 6.6600
v -3.1500 6.6200 -0.7300
v 6.6000 -0.7300 8.5100
v -0.7300 8.5100 4.9700
v 8.5000 4.9500 -2.7100
v 20.5000 -1.7100 0.9200
v -1.7800 0.9800 -2.5200
vt -0.5537 0.2295
vt 1.8457 0.8115
vt 0.9971 1.4932
vt 0.4707 -15.5703
vt 0.0928 0.7168
vt 2.3926 0.8193
vt 1.0713 0.3525
vt 0.4414 -15.5703
vt 0.1748 1.2578
vt 0.0000 28.0000
vt 0.0098 0.0156
vt 0.0098 0.0156
vt 1.0830 0.1475
vt 0.5469 -15.5664
vt -15.5664 0.2500
vt 0.2500 16.0156
vt -0.5264 1.3467
vt 0.9492 0.5869
vt 0.5186 0.7451
vt 0.7783 2.4316
vt 2.3027 0.3066
vt 0.3076 -15.5664
vt -15.5664 4.2539
vt 4.7539 -15.7031
vt 2.1650 0.7842
vt 0.7803 0.8994
vt -15.5664 11.2607
vt 12.2617 16.7656
vt 4.3223 0.6953
vt 0.6846 1.0439
vt 1.0889 0.3096
vt 0.3682 -0.2383
vt -0.2949 -15.5664
vt -15.5664 17.2666
vt 17.2666 17.0791
vt 0.0654 0.4375
vt 0.3867 1.1426
vt 1.0361 1.1816
vt 1.3174 -0.5771
vt -0.5762 -15.5664
vt -15.5664 16.7656
vt 16.2656 17.0156
vt 0.0244 -0.0928
vt -0.0752 1.1602
vt 0.9463 -0.0088
vt -0.1025 -0.1904
vt -0.1934 -15.5664
vt -15.5664 6.2559
vt 3.7529 -15.7676
vt 0.7119 -0.0713
vt -0.0713 0.8281
vt 0.8301 0.4844
vt 0.4863 -0.2656
vt -0.2666 -15.5703
vt -15.5703 0.5000
vt 0.5000 -31.9688
vt -0.3086 0.6475
vt 0.6504 -0.0713
f 1/1 33/33 41/41
f 33/33 41/41 47/47
f 50/50 1/1 35/35
