# Conker's Bad Fur Day — Real 3D Model (Spooky Models)
o assets10_model_028

v 0.0000 3.6000 0.0000
v 0.0000 5.3600 0.0000
v 0.0000 6.3200 0.0000
v 0.0000 6.6400 0.0000
v 0.0000 7.2800 0.0000
v 0.0000 7.6000 0.0000
v 0.0000 7.9200 0.0000
v 0.0000 8.2400 0.0000
v 0.0000 8.5600 0.0000
v 0.0000 10.0000 0.0000
v 0.0000 10.6400 0.0000
v 0.0000 10.9600 0.0000
v 0.0000 11.2800 0.0000
v 0.0000 11.6000 0.0000
v -14.1600 13.3700 -26.3700
v -14.6000 13.4800 -27.2400
v -14.6600 5.2900 17.4000
v 15.0400 9.1800 -3.2000
v -9.4600 12.2600 -20.3700
vt 0.0000 0.4297
vt 0.0000 0.6016
vt 0.0000 0.6328
vt 0.0000 0.6953
vt 0.0000 0.7266
vt 0.0000 0.7578
vt 0.0000 0.7891
vt 0.0000 0.8203
vt 0.0000 0.9062
vt 0.0000 1.0234
vt 0.0000 1.0547
vt 0.0000 1.0859
vt 0.0000 1.1172
vt 0.0000 1.1484
vt -1.3867 1.3105
vt -1.3613 1.2949
vt 1.4688 0.8965
vt -0.9238 1.1973
vt 0.4297 0.0938
f 1/1 2/2 3/3
f 4/4 5/5 6/6
f 7/7 8/8 9/9
f 10/10 11/11 12/12
f 13/13 14/14 15/15
f 16/16 17/17 18/18
