mtllib assets01_model_036.mtl
# Conker's Bad Fur Day — Real 3D Model (HUD & UI Props)
o assets01_model_036
usemtl assets01_model_036_mat

v 8.6700 6.3700 -2.5800
v 8.6600 8.0000 -2.5800
v 8.6600 7.2100 -2.5800
v 8.6700 4.3700 -2.5800
v 8.6700 3.0000 -2.5800
v 8.6700 3.6300 -2.5800
v 10.4500 6.5600 -2.5800
v 10.4300 8.5700 -2.5800
v 10.4300 8.6100 -2.5800
v 10.4500 6.6600 -2.5800
v 10.4500 4.0800 -2.5800
v 10.4400 2.3900 -2.5800
v 10.4400 2.3600 -2.5800
v 10.4500 3.9900 -2.5800
v 12.2500 3.7100 -2.5800
v 12.2500 6.7400 -2.5800
v 12.2500 8.9600 -2.5800
v 12.2500 9.0000 -2.5800
v 12.2500 6.8400 -2.5800
v 12.2400 3.8100 -2.5800
v 12.2500 1.6900 -2.5800
v 12.2500 1.6500 -2.5800
v 13.8100 3.2500 -2.5800
v 13.8200 7.4800 -2.5800
v 13.8200 10.5100 -2.5800
v 13.8200 10.5700 -2.5800
v 13.8200 7.6200 -2.5800
v 13.8100 3.3900 -2.5800
v 13.8100 0.3600 -2.5800
v 13.8100 0.3000 -2.5800
v -2.2200 0.5600 -2.5800
v -0.4500 11.1900 -2.5800
v -0.0600 1.4200 -2.5800
v -0.0600 1.4200 -2.5800
v -0.0700 1.6000 -2.5800
v -0.0700 1.6000 -2.5800
v -0.4600 11.3900 -2.5800
v -0.4600 11.3900 -2.5800
v -0.4500 11.1900 -2.5800
v 1.3700 10.3600 -2.5800
v 1.3700 10.1800 -2.5800
v 1.6300 1.8800 -2.5800
v 1.3700 10.3600 -2.5800
v 1.6400 1.7200 -2.5800
v 1.6300 1.8800 -2.5800
v 1.3700 10.1800 -2.5800
v 1.6400 1.7200 -2.5800
v 3.6200 8.8800 -2.5800
v 3.7700 2.4900 -2.5800
v 3.6200 8.8800 -2.5800
v 3.6200 8.7500 -2.5800
v 3.6200 8.7500 -2.5800
v 3.7700 2.3700 -2.5800
v 3.7700 2.3700 -2.5800
v 3.7700 2.4900 -2.5800
v 6.1500 7.9400 -2.5800
v 6.1500 7.9900 -2.5800
v 6.2200 3.0700 -2.5800
v 6.1500 7.9900 -2.5800
v 6.2300 3.0300 -2.5800
v 6.2200 3.0700 -2.5800
v 6.2300 3.0300 -2.5800
v -2.2200 0.5600 -2.5800
v -2.9900 11.4500 -2.5800
v -2.9900 11.4500 -2.5800
v -2.2100 0.3500 -2.5800
v -2.2200 0.5600 -2.5800
v -2.9800 11.2300 -2.5800
v -2.9800 11.2300 -2.5800
v -2.2100 0.3500 -2.5800
v -4.8000 -1.0500 -2.5800
v -4.8200 -0.8000 -2.5800
v -5.9400 12.0100 -2.5800
v -5.9200 11.7500 -2.5800
v -5.9200 11.7500 -2.5800
v -4.8000 -1.0500 -2.5800
v -4.8200 -0.8000 -2.5800
v -5.9400 12.0100 -2.5800
v -0.4600 11.3900 -2.5800
v -0.4600 11.3900 -2.5800
v -0.4500 11.1900 -2.5800
v -0.0700 1.6000 -2.5800
v -0.0600 1.4200 -2.5800
v -0.0600 1.4200 -2.5800
v -0.4500 11.1900 -2.5800
v 6.1500 7.9900 -2.5800
v 6.1500 7.9400 -2.5800
v 6.2300 3.0300 -2.5800
v 6.2300 3.0300 -2.5800
v 6.2200 3.0700 -2.5800
v 8.6600 7.2100 -2.5800
v 8.6600 8.0000 -2.5800
v 8.6700 4.3700 -2.5800
v 8.6700 3.0000 -2.5800
v 6.2200 3.0700 -2.5800
v 6.2200 3.0700 -2.5800
v 6.1500 7.9900 -2.5800
v 6.1500 7.9900 -2.5800
v 8.6700 3.6300 -2.5800
v 8.6700 3.0000 -2.5800
v 8.6700 3.6300 -2.5800
v 8.6700 6.3700 -2.5800
v 8.6600 8.0000 -2.5800
v -2.9900 11.4500 -2.5800
v -4.8200 -0.8000 -2.5800
v -2.2200 0.5600 -2.5800
v -5.9400 12.0100 -2.5800
v -2.2100 0.3500 -2.5800
v -5.9200 11.7500 -2.5800
v -2.9800 11.2300 -2.5800
v -4.8000 -1.0500 -2.5800
v -2.9800 11.2300 -2.5800
v -5.9400 12.0100 -2.5800
v -2.9900 11.4500 -2.5800
v -5.9200 11.7500 -2.5800
v -2.2200 0.5600 -2.5800
v -4.8000 -1.0500 -2.5800
v -2.2100 0.3500 -2.5800
v -4.8200 -0.8000 -2.5800
v 6.1500 7.9900 -2.5800
v 6.2200 3.0700 -2.5800
v 6.2200 3.0700 -2.5800
v 6.2300 3.0300 -2.5800
v 6.2300 3.0300 -2.5800
v 6.1500 7.9400 -2.5800
v 6.1500 7.9400 -2.5800
v 6.1500 7.9900 -2.5800
v 8.6700 6.3700 -2.5800
v 8.6600 8.0000 -2.5800
v 8.6700 3.6300 -2.5800
v 8.6700 3.0000 -2.5800
v 8.6700 3.6300 -2.5800
v 8.6700 4.3700 -2.5800
v 8.6600 7.2100 -2.5800
v -2.9800 11.2300 -2.5800
v -2.2100 0.3500 -2.5800
v -2.9800 11.2300 -2.5800
v -2.9900 11.4500 -2.5800
v -2.2100 0.3500 -2.5800
v -2.2200 0.5600 -2.5800
v -2.9900 11.4500 -2.5800
v -2.2200 0.5600 -2.5800
v -0.0600 1.4200 -2.5800
v -0.4500 11.1900 -2.5800
v -0.4500 11.1900 -2.5800
v -0.0700 1.6000 -2.5800
v -0.0600 1.4200 -2.5800
v -0.4600 11.3900 -2.5800
v -0.4600 11.3900 -2.5800
v -0.0700 1.6000 -2.5800
v 1.3700 10.1800 -2.5800
v 1.3700 10.3600 -2.5800
v 1.3700 10.3600 -2.5800
v 1.6300 1.8800 -2.5800
v 1.6300 1.8800 -2.5800
v 1.6400 1.7200 -2.5800
v 1.6400 1.7200 -2.5800
v 1.3700 10.1800 -2.5800
v 3.7700 2.3700 -2.5800
v 3.6200 8.7500 -2.5800
v 3.7700 2.4900 -2.5800
v 3.7700 2.3700 -2.5800
v 3.6200 8.8800 -2.5800
v 3.7700 2.4900 -2.5800
v 3.6200 8.7500 -2.5800
v 3.6200 8.8800 -2.5800
v 3.7700 2.3700 -2.5800
v 3.7700 2.4900 -2.5800
v 3.6200 8.7500 -2.5800
v 3.7700 2.3700 -2.5800
v 3.6200 8.8800 -2.5800
v 3.6200 8.7500 -2.5800
v 3.6200 8.8800 -2.5800
v 3.7700 2.4900 -2.5800
v 6.2200 3.0700 -2.5800
v 6.2300 3.0300 -2.5800
v 6.2300 3.0300 -2.5800
v 6.1500 7.9400 -2.5800
v 6.1500 7.9400 -2.5800
v 6.1500 7.9900 -2.5800
v 6.2200 3.0700 -2.5800
v 6.1500 7.9900 -2.5800
v 8.6700 6.3700 -2.5800
v 8.6700 3.6300 -2.5800
v 8.6700 3.0000 -2.5800
v 8.6700 4.3700 -2.5800
v 8.6600 7.2100 -2.5800
v 8.6600 8.0000 -2.5800
v 10.4500 6.5600 -2.5800
v 10.4500 3.9900 -2.5800
v 10.4400 2.3600 -2.5800
v 10.4400 2.3900 -2.5800
v 10.4500 4.0800 -2.5800
v 10.4500 6.6600 -2.5800
v 10.4300 8.6100 -2.5800
v 10.4300 8.5700 -2.5800
v 12.2500 6.7400 -2.5800
v 12.2500 3.7100 -2.5800
v 10.4400 2.3600 -2.5800
v 10.4400 2.3900 -2.5800
v 10.4500 4.0800 -2.5800
v 10.4500 6.6600 -2.5800
v 10.4300 8.6100 -2.5800
v 10.4300 8.5700 -2.5800
v 10.4500 6.5600 -2.5800
v 12.2500 3.7100 -2.5800
v 12.2500 1.6500 -2.5800
v 12.2500 1.6900 -2.5800
v 12.2400 3.8100 -2.5800
v 12.2500 6.8400 -2.5800
v 12.2500 9.0000 -2.5800
v 12.2500 8.9600 -2.5800
v 12.2500 6.7400 -2.5800
v 13.8100 0.3000 -2.5800
v 13.8100 3.2500 -2.5800
v 13.8100 0.3600 -2.5800
v 13.8100 3.3900 -2.5800
v 13.8200 7.6200 -2.5800
v 13.8200 10.5700 -2.5800
v 13.8200 10.5100 -2.5800
v 13.8200 7.4800 -2.5800
v 7.9100 6.5200 -2.5800
v 7.9000 7.1200 -2.5800
v 7.5000 6.0900 -2.5800
v 6.9000 6.0800 -2.5800
v 6.4700 6.5000 -2.5800
v 6.4600 7.1000 -2.5800
v 6.8800 7.5300 -2.5800
v 7.4800 7.5300 -2.5800
v 8.1800 7.2400 -2.5800
v 7.5900 7.8200 -2.5800
v 6.7600 7.8100 -2.5800
v 6.1800 7.2100 -2.5800
v 6.1900 6.3800 -2.5800
v 6.7900 5.8000 -2.5800
v 7.6200 5.8100 -2.5800
v 8.2000 6.4100 -2.5800
v 8.5100 7.3800 -2.5800
v 6.6100 8.1400 -2.5800
v 7.7200 8.1500 -2.5800
v 5.8600 6.2400 -2.5800
v 7.7600 5.4800 -2.5800
v 6.6500 5.4700 -2.5800
v 5.8400 7.3400 -2.5800
v 8.5300 6.2700 -2.5800
v 21.3400 33.6100 -2.5800
v 17.3400 29.9200 -0.0100
v 16.9800 24.4600 -0.0100
v 20.4600 20.4300 -0.0100
v 25.7500 20.2000 -0.0100
v 29.7500 23.8900 -0.0100
v 30.1100 29.3500 -2.5800
v 26.6300 33.3800 -2.5800
v -8.3400 39.6400 -0.0100
v -10.6500 17.2300 -0.0100
v 0.1800 0.1900 -0.0100
v 19.6000 -7.4500 -0.0100
v 39.1600 -1.8700 -0.0100
v -20.5000 15.9600 -0.0100
v -6.5000 -7.4500 -0.0100
v 18.3900 -17.5500 -0.0100
v 19.6000 -7.4500 -0.0100
v 0.1800 0.1900 -0.0100
v -10.6500 17.2300 -0.0100
v -20.5000 15.9600 -0.0100
v 39.1600 -1.8700 -0.0100
v -8.3400 39.6400 -0.0100
v 7.9000 7.1200 -2.5800
v 7.4800 7.5300 -2.5800
v 6.8800 7.5300 -2.5800
v 6.4600 7.1000 -2.5800
v 6.4700 6.5000 -2.5800
v 6.9000 6.0800 -2.5800
v 7.5000 6.0900 -2.5800
v 7.9100 6.5200 -2.5800
v 8.1800 7.2400 -2.5800
v 7.5900 7.8200 -2.5800
v 6.7600 7.8100 -2.5800
v 6.1800 7.2100 -2.5800
v 6.1900 6.3800 -2.5800
v 6.7900 5.8000 -2.5800
v 7.6200 5.8100 -2.5800
v 8.2000 6.4100 -2.5800
v 8.5300 6.2700 -2.5800
v 8.5100 7.3800 -2.5800
v 5.8400 7.3400 -2.5800
v 5.8600 6.2400 -2.5800
v 6.6500 5.4700 -2.5800
v 7.7600 5.4800 -2.5800
v 7.7200 8.1500 -2.5800
v 6.6100 8.1400 -2.5800
v 4.9100 0.1100 -2.5800
v 9.4600 0.0000 -2.5800
v 4.7200 12.7000 -2.5800
v 2.0600 10.7200 -2.5800
v 9.1700 13.2000 -2.5800
v 12.7200 10.7000 -2.5800
v 14.0800 6.7200 -2.5800
v 12.7700 2.5400 -2.5800
v 5.8600 6.2400 -2.5800
v 6.6500 5.4700 -2.5800
v 5.8400 7.3400 -2.5800
v 1.3500 2.6700 -2.5800
v 4.9100 0.1100 -2.5800
v 2.0600 10.7200 -2.5800
v 0.0000 6.7100 -2.5800
v 0.0000 0.0000 0.0100
v 0.0000 0.0000 2.5800
v 0.0000 0.0000 5.1500
v 0.0000 0.0000 7.7200
v 0.0000 0.0000 10.2900
v 0.0000 0.0000 12.8600
v 0.0000 0.0000 15.4300
v 0.0000 0.0000 18.0000
v 0.0000 0.0000 20.5700
v 0.0000 0.0000 23.1400
v 0.3200 0.6400 0.0000
v -28.0800 20.4800 0.0100
v -7.5200 0.0000 0.0000
v 15.6200 25.7200 0.1000
v 12.9000 0.1200 0.0000
v 2.5700 0.3200 2.5600
v -7.5200 0.0000 0.0000
v -33.2800 0.0000 18.5700
v -28.0800 30.7200 0.0900
v -7.5200 0.0000 0.0000
v -33.2800 0.0000 18.5500
v -28.1600 20.4800 0.0500
v -7.5200 0.0000 0.0000
v -33.2800 0.0000 18.5700
v -28.0800 30.7200 0.0900
v 1.2000 1.0700 0.0000
v 5.1600 5.1600 -5.0800
v -2.6000 -2.6000 -2.6000
v 1.4900 1.3600 1.7200
v 1.7300 1.4400 1.9700
v 1.2700 1.2700 1.2700
v 1.2700 1.2700 1.2700
v 1.2600 1.2600 1.2700
v 1.2700 1.2700 1.2700
v 1.2700 1.2700 1.2700
v 1.2700 1.2700 1.2700
v 1.2700 1.2600 1.2700
v 0.8300 0.5300 0.5900
v 19.1500 -37.1700 -16.6900
v 1.2600 1.2600 1.2700
v 1.2600 1.2600 1.2700
vt 0.0781 -0.0010
vt 0.0566 -0.0010
vt -0.0322 -0.0010
vt -0.0791 -0.0010
vt -0.0576 -0.0010
vt 0.0410 -0.0010
vt 0.1035 -0.0010
vt 0.1045 -0.0010
vt 0.0439 -0.0010
vt -0.0420 -0.0010
vt -0.1035 -0.0010
vt -0.1055 -0.0010
vt -0.0449 -0.0010
vt -0.0605 -0.0010
vt 0.0557 -0.0010
vt 0.1387 -0.0010
vt 0.1406 -0.0010
vt 0.0596 -0.0010
vt -0.0566 -0.0010
vt -0.1396 -0.0010
vt -0.1406 -0.0010
vt -0.0830 -0.0020
vt 0.0781 -0.0020
vt 0.1934 -0.0020
vt 0.1953 -0.0020
vt 0.0830 -0.0020
vt -0.0781 -0.0020
vt -0.1934 -0.0020
vt -0.1953 -0.0020
vt -0.0127 -0.0020
vt 0.0176 -0.0010
vt -0.0176 -0.0010
vt -0.0176 -0.0010
vt -0.0176 -0.0010
vt -0.0176 -0.0010
vt 0.0176 -0.0010
vt 0.0176 -0.0010
vt 0.0176 -0.0010
vt 0.0312 -0.0020
vt 0.0303 -0.0020
vt -0.0303 -0.0020
vt 0.0312 -0.0020
vt -0.0322 -0.0020
vt -0.0303 -0.0020
vt 0.0303 -0.0020
vt -0.0322 -0.0020
vt 0.0391 -0.0010
vt -0.0371 -0.0010
vt 0.0391 -0.0010
vt 0.0371 -0.0010
vt 0.0371 -0.0010
vt -0.0391 -0.0010
vt -0.0391 -0.0010
vt -0.0371 -0.0010
vt 0.0518 -0.0020
vt 0.0518 -0.0020
vt -0.0527 -0.0020
vt 0.0518 -0.0020
vt -0.0527 -0.0020
vt -0.0527 -0.0020
vt -0.0527 -0.0020
vt -0.0127 -0.0020
vt 0.0137 -0.0020
vt 0.0137 -0.0020
vt -0.0137 -0.0020
vt -0.0127 -0.0020
vt 0.0127 -0.0020
vt 0.0127 -0.0020
vt -0.0137 -0.0020
vt -0.0088 -0.1357
vt -0.0078 -0.1357
vt 0.0088 -0.1357
vt 0.0088 -0.1357
vt 0.0088 -0.1357
vt -0.0088 -0.1357
vt -0.0078 -0.1357
vt 0.0088 -0.1357
vt 0.0176 -0.0010
vt 0.0176 -0.0010
vt 0.0176 -0.0010
vt -0.0176 -0.0010
vt -0.0176 -0.0010
vt -0.0176 -0.0010
vt 0.0176 -0.0010
vt 0.0518 -0.0020
vt 0.0518 -0.0020
vt -0.0527 -0.0020
vt -0.0527 -0.0020
vt -0.0527 -0.0020
vt 0.0566 -0.0010
vt 0.0781 -0.0010
vt -0.0322 -0.0010
vt -0.0791 -0.0010
vt -0.0527 -0.0020
vt -0.0527 -0.0020
vt 0.0518 -0.0020
vt 0.0518 -0.0020
vt -0.0576 -0.0010
vt -0.0791 -0.0010
vt -0.0576 -0.0010
vt 0.0312 -0.0010
vt 0.0781 -0.0010
vt 0.0137 -0.0020
vt -0.0078 -0.1357
vt -0.0127 -0.0020
vt 0.0088 -0.1357
vt -0.0137 -0.0020
vt 0.0088 -0.1357
vt 0.0127 -0.0020
vt -0.0088 -0.1357
vt 0.0127 -0.0020
vt 0.0088 -0.1357
vt 0.0137 -0.0020
vt 0.0088 -0.1357
vt -0.0127 -0.0020
vt -0.0088 -0.1357
vt -0.0137 -0.0020
vt -0.0078 -0.1357
vt 0.0518 -0.0020
vt -0.0527 -0.0020
vt -0.0527 -0.0020
vt -0.0527 -0.0020
vt -0.0527 -0.0020
vt 0.0518 -0.0020
vt 0.0518 -0.0020
vt 0.0518 -0.0020
vt 0.0312 -0.0010
vt 0.0781 -0.0010
vt -0.0576 -0.0010
vt -0.0791 -0.0010
vt -0.0576 -0.0010
vt -0.0322 -0.0010
vt 0.0566 -0.0010
vt 0.0127 -0.0020
vt -0.0137 -0.0020
vt 0.0127 -0.0020
vt 0.0137 -0.0020
vt -0.0137 -0.0020
vt -0.0127 -0.0020
vt 0.0137 -0.0020
vt -0.0127 -0.0020
vt -0.0176 -0.0010
vt 0.0176 -0.0010
vt 0.0176 -0.0010
vt -0.0176 -0.0010
vt -0.0176 -0.0010
vt 0.0176 -0.0010
vt 0.0176 -0.0010
vt -0.0176 -0.0010
vt 0.0303 -0.0020
vt 0.0312 -0.0020
vt 0.0312 -0.0020
vt -0.0303 -0.0020
vt -0.0303 -0.0020
vt -0.0322 -0.0020
vt -0.0322 -0.0020
vt 0.0303 -0.0020
vt -0.0391 -0.0010
vt 0.0371 -0.0010
vt -0.0371 -0.0010
vt -0.0391 -0.0010
vt 0.0391 -0.0010
vt -0.0371 -0.0010
vt 0.0371 -0.0010
vt 0.0391 -0.0010
vt -0.0391 -0.0010
vt -0.0371 -0.0010
vt 0.0371 -0.0010
vt -0.0391 -0.0010
vt 0.0391 -0.0010
vt 0.0371 -0.0010
vt 0.0391 -0.0010
vt -0.0371 -0.0010
vt -0.0527 -0.0020
vt -0.0527 -0.0020
vt -0.0527 -0.0020
vt 0.0518 -0.0020
vt 0.0518 -0.0020
vt 0.0518 -0.0020
vt -0.0527 -0.0020
vt 0.0518 -0.0020
vt 0.0312 -0.0010
vt -0.0576 -0.0010
vt -0.0791 -0.0010
vt -0.0322 -0.0010
vt 0.0566 -0.0010
vt 0.0781 -0.0010
vt 0.0410 -0.0010
vt -0.0449 -0.0010
vt -0.1055 -0.0010
vt -0.1035 -0.0010
vt -0.0420 -0.0010
vt 0.0439 -0.0010
vt 0.1045 -0.0010
vt 0.1035 -0.0010
vt 0.0557 -0.0010
vt -0.0605 -0.0010
vt -0.1055 -0.0010
vt -0.1035 -0.0010
vt -0.0420 -0.0010
vt 0.0439 -0.0010
vt 0.1045 -0.0010
vt 0.1035 -0.0010
vt 0.0410 -0.0010
vt -0.0605 -0.0010
vt -0.1406 -0.0010
vt -0.1396 -0.0010
vt -0.0566 -0.0010
vt 0.0596 -0.0010
vt 0.1406 -0.0010
vt 0.1387 -0.0010
vt 0.0557 -0.0010
vt -0.1953 -0.0020
vt -0.0830 -0.0020
vt -0.1934 -0.0020
vt -0.0781 -0.0020
vt 0.0830 -0.0020
vt 0.1953 -0.0020
vt 0.1934 -0.0020
vt 0.0781 -0.0020
vt 0.1406 -0.0010
vt 0.1387 -0.0010
vt 0.0596 -0.0010
vt -0.0566 -0.0010
vt -0.1396 -0.0010
vt -0.1406 -0.0010
vt -0.0605 -0.0010
vt 0.0557 -0.0010
vt 0.1934 -0.0020
vt 0.0781 -0.0020
vt -0.0830 -0.0020
vt -0.1953 -0.0020
vt -0.1934 -0.0020
vt -0.0781 -0.0020
vt 0.0830 -0.0020
vt 0.1953 -0.0020
vt 0.2568 0.0000
vt -0.1113 0.0000
vt 0.1035 0.0000
vt -0.2578 0.0000
vt 0.1104 0.0000
vt -0.1035 0.0000
vt -0.2607 0.0000
vt 0.2607 0.0000
vt -0.2578 0.0000
vt -0.1035 0.0000
vt 0.1104 0.0000
vt 0.2607 0.0000
vt 0.2568 0.0000
vt 0.1035 0.0000
vt -0.1113 0.0000
vt -0.2607 0.0000
vt -1.3770 -0.0010
vt 0.4580 -0.0010
vt 1.0996 -0.0010
vt 1.3535 -0.0010
vt 1.0898 -0.0010
vt 0.4023 -0.0010
vt 1.4141 -0.0010
vt 1.7520 -0.0010
vt 1.3535 -0.0010
vt 1.0996 -0.0010
vt 0.4580 -0.0010
vt 0.5303 -0.0010
vt 1.0898 -0.0010
vt 1.4141 -0.0010
vt -0.5625 -0.0010
vt 0.0557 -0.0010
vt -0.0605 -0.0010
vt -0.1406 -0.0010
vt -0.1396 -0.0010
vt -0.0566 -0.0010
vt 0.0596 -0.0010
vt 0.1406 -0.0010
vt 0.1934 -0.0020
vt 0.0781 -0.0020
vt -0.0830 -0.0020
vt -0.1953 -0.0020
vt -0.1934 -0.0020
vt -0.0781 -0.0020
vt 0.0830 -0.0020
vt 0.1953 -0.0020
vt 0.2607 0.0000
vt 0.2568 0.0000
vt -0.2607 0.0000
vt -0.2578 0.0000
vt -0.1035 0.0000
vt 0.1104 0.0000
vt 0.1035 0.0000
vt -0.1113 0.0000
vt -0.4248 -0.0010
vt 0.4580 -0.0010
vt -0.4609 -0.0010
vt -0.9766 -0.0010
vt 0.4023 -0.0010
vt 1.0898 -0.0010
vt 1.3535 -0.0010
vt 1.0996 -0.0010
vt -0.2578 0.0000
vt -0.1035 0.0000
vt -0.2607 0.0000
vt -1.1152 -0.0010
vt -0.4248 -0.0010
vt -0.9766 -0.0010
vt -1.3770 -0.0010
vt 0.0000 0.2393
vt 0.0000 0.0000
vt 0.0000 0.0000
vt 15.6416 -23.8301
vt 15.5400 28.9629
vt 15.1807 31.4531
vt -16.5693 -12.3613
vt -16.3096 31.6748
vt 15.5029 -24.7891
vt -16.5635 -21.1025
vt -16.6631 22.9336
vt -6.2500 0.0000
vt -3.5000 8.0020
vt -2.7344 0.0000
vt -9.4453 0.0029
vt -9.4453 0.0029
vt -9.4453 0.0029
vt -6.5000 0.0000
vt -6.2500 0.0000
vt -3.5000 8.0020
vt -6.5000 0.0000
vt -6.2500 0.0000
vt -3.5000 8.0020
vt -6.5000 0.0000
vt -6.2500 0.0000
vt -3.5000 8.0020
vt -0.4961 0.5088
vt -0.4941 -31.4912
vt 31.7461 31.7461
vt 0.0000 0.0000
vt 24.1748 12.4248
vt 0.1240 0.1240
vt 0.1240 0.1240
vt 0.1240 0.1240
vt 0.1240 0.1240
vt 0.1240 0.1240
vt 0.1240 0.1240
vt 0.0000 0.0000
vt -23.9248 -12.1748
vt 0.1230 0.1230
vt 4.8711 1.8701
vt 0.0000 0.0000
f 51/51 1/1 35/35
f 52/52 2/2 119/119
f 52/52 3/3 14/14
f 52/52 3/3 17/17
f 52/52 2/2 126/126
f 51/51 1/1 42/42
f 51/51 1/1 19/19
f 51/51 1/1 16/16
f 51/51 1/1 16/16
f 51/51 1/1 35/35
f 51/51 1/1 19/19
f 51/51 1/1 42/42
f 52/52 2/2 126/126
f 52/52 3/3 17/17
f 52/52 3/3 14/14
f 52/52 2/2 119/119
f 100/100 6/6 89/89
f 128/128 128/128 1/1
f 82/82 5/5 72/72
f 128/128 128/128 1/1
f 54/54 128/128 128/128
f 64/64 128/128 127/127
f 83/83 1/1 127/127
f 85/85 128/128 128/128
f 85/85 128/128 128/128
f 54/54 128/128 128/128
f 85/85 128/128 128/128
f 54/54 128/128 128/128
f 65/65 2/2 81/81
f 14/14 6/6 7/7
f 6/6 1/1 7/7
f 6/6 1/1 7/7
f 32/32 27/27 28/28
f 13/13 14/14 15/15
f 13/13 16/16 14/14
f 32/32 24/24 25/25
f 17/17 15/15 8/8
f 29/29 31/31 12/12
f 23/23 24/24 5/5
f 17/17 31/31 18/18
f 1/1 7/7 4/4
