# Conker's Bad Fur Day — Real 3D Model (HUD & UI Props)
o assets01_model_000

v 0.0000 0.0000 -35.1500
v 7.2100 12.6600 -0.0100
v 10.2200 12.6600 -0.0100
v 6.2400 16.4700 -0.0100
v 5.1700 14.4900 -0.0100
v 6.6700 20.3800 -0.0100
v 4.0300 19.0800 -0.0100
v 8.2900 19.4200 -0.0100
v 5.0100 14.0300 -0.0100
v 10.2300 18.7100 -0.0100
v 10.1800 16.5500 -0.0100
v 2.9800 9.1400 -0.0100
v 5.1700 7.3000 -0.0100
v 10.2700 6.5300 -0.0100
v 6.0100 3.4600 -0.0100
v 10.2700 2.3800 -0.0100
v 10.2700 -0.7800 -0.0100
v 4.7100 0.6400 -0.0100
v 4.8400 14.4900 -0.0100
v 3.4200 15.5900 -0.0100
v 2.6700 17.0200 -0.0100
v 5.1700 14.4900 -0.0100
v 6.2400 16.4700 -0.0100
v 4.8000 14.0300 -0.0100
v 5.0100 14.0300 -0.0100
v 4.0300 19.0800 -0.0100
v 2.9900 12.6500 -0.0100
v -0.0200 12.6500 -0.0100
v 4.9900 14.4900 -0.0100
v 3.9100 16.4700 -0.0100
v 1.8500 19.4100 -0.0100
v 6.0900 19.0900 -0.0100
v 3.4600 20.5000 -0.0100
v 5.1400 14.0300 -0.0100
v -0.0600 16.5400 -0.0100
v -0.0100 18.7000 -0.0100
v 4.0100 5.1700 -0.0100
v 6.0100 3.4600 -0.0100
v 5.1700 7.3000 -0.0100
v 10.2700 2.3800 -0.0100
v 4.7100 0.6400 -0.0100
v 10.2700 -0.7800 -0.0100
v 2.9800 9.1400 -0.0100
v 1.6700 3.0600 -0.0100
v 2.7200 2.7500 -0.0100
v 0.0300 6.5200 -0.0100
v 4.9100 7.4200 -0.0100
v 7.2700 9.1500 -0.0100
v 6.7000 15.6000 -0.0100
v 7.4400 17.0200 -0.0100
v 5.3100 14.4900 -0.0100
v 4.9900 14.4900 -0.0100
v 5.1400 14.0300 -0.0100
v 5.3100 14.4900 -0.0100
v 5.3500 14.0300 -0.0100
v 3.9100 16.4700 -0.0100
v 6.0900 19.0900 -0.0100
v 5.0400 14.0300 -0.0100
v 6.2000 15.9200 -0.0100
v 10.2100 19.5200 -0.0100
v 8.1500 15.0000 -0.0100
v 6.5400 16.8500 -0.0100
v 7.5300 13.8900 -0.0100
v 5.5400 0.6400 -0.0100
v 0.0200 -0.7900 -0.0100
v 4.9100 7.4200 -0.0100
v 4.5400 3.4600 -0.0100
v 6.5100 5.1700 -0.0100
v 0.0300 6.5200 -0.0100
v 0.0200 2.3700 -0.0100
v 7.2700 9.1500 -0.0100
v 1.4200 -2.6700 -0.0100
v 3.0700 -9.9900 -0.0100
v 7.5300 -7.2900 -0.0100
v 7.5100 2.7600 -0.0100
v 8.5600 3.0600 -0.0100
v 4.8600 9.1500 -0.0100
v 3.1700 15.6500 -0.0100
v 2.6900 17.0200 -0.0100
v 7.3800 19.1800 -0.0100
v 5.7200 19.1300 -0.0100
v 6.6900 20.3800 -0.0100
v 4.0500 19.0800 -0.0100
v 6.5400 16.8500 -0.0100
v 10.2100 19.5200 -0.0100
v 7.5300 13.8900 -0.0100
v 10.2300 12.5200 -0.0100
v 8.1600 15.0200 -0.0100
v 10.2200 14.0000 -0.0100
v 6.5600 16.9200 -0.0100
v 6.2000 15.9200 -0.0100
v 5.0400 14.0300 -0.0100
v 5.0400 14.0300 -0.0100
v 4.8200 14.0300 -0.0100
v 7.5800 20.2200 -0.0100
v 7.5800 20.1900 -0.0100
v 10.2500 9.1500 -0.0100
v 4.8600 9.1500 -0.0100
v 3.0000 9.1400 -0.0100
v 9.2600 0.0400 -0.0100
v 4.9500 1.9900 -0.0100
v 10.2800 1.3600 -0.0100
v 10.2800 -2.0900 -0.0100
v 4.6200 5.5100 -0.0100
v 10.2600 5.3100 -0.0100
v 2.1700 1.1000 -0.0100
v 1.6900 3.0600 -0.0100
v 4.5000 -0.8600 -0.0100
v 7.1300 -1.8500 -0.0100
v 2.8000 13.6600 -0.0100
v 2.1200 14.8500 -0.0100
v 3.5900 16.9500 -0.0100
v 3.9700 15.9200 -0.0100
v -0.0500 19.5200 -0.0100
v 3.6100 19.1500 -0.0100
v 3.6000 16.9500 -0.0100
v 2.1300 14.8300 -0.0100
v -0.0400 13.9900 -0.0100
v 2.8100 13.6500 -0.0100
v -0.0300 12.5300 -0.0100
v 6.0900 19.0900 -0.0100
v 4.4400 19.1300 -0.0100
v 3.5600 17.0600 -0.0100
v 5.1400 14.0300 -0.0100
v 3.4600 20.5000 -0.0100
v 7.1300 -1.8500 -0.0100
v 10.2800 -2.0900 -0.0100
v 5.4100 9.1500 -0.0100
v -0.0200 9.1400 -0.0100
v 7.2700 9.1500 -0.0100
v 0.0100 -2.1000 -0.0100
v 1.0700 0.0300 -0.0100
v 5.3400 1.9900 -0.0100
v 0.0000 5.3000 -0.0100
v 5.6500 5.5100 -0.0100
v 0.0100 1.3500 -0.0100
v 0.0200 -1.2800 -0.0100
v 8.5600 3.0600 -0.0100
v 8.1000 1.1100 -0.0100
v 5.7800 -0.8600 -0.0100
v 7.4400 17.0200 -0.0100
v 6.9900 15.6500 -0.0100
v 5.3500 14.0300 -0.0100
v 5.1400 14.0300 -0.0100
v 3.9700 15.9200 -0.0100
v 6.0900 19.0900 -0.0100
v 3.1500 20.2200 -0.0100
v 3.6100 19.1500 -0.0100
v -0.0500 19.5200 -0.0100
v 3.4600 20.5000 -0.0100
v 3.1500 20.2000 -0.0100
v 5.3400 1.9900 -0.0100
v 5.7800 -0.8600 -0.0100
v 3.1500 -1.8600 -0.0100
v 0.0100 -2.1000 -0.0100
v 1.9400 4.1500 -0.0100
v 4.9100 4.3600 -0.0100
v 7.6400 4.1500 -0.0100
v 4.9900 1.4700 -0.0100
v 2.1700 1.1100 -0.0100
v 4.7800 -0.0200 -0.0100
v 7.9400 0.8300 -0.0100
v 0.0300 4.1900 -0.0100
v 10.0200 4.3200 -0.0100
v 20.2100 4.8700 -0.0100
v 19.5300 4.8400 -0.0100
v 16.9700 4.7700 -0.0100
v 18.9700 4.8800 -0.0100
v 2.5500 10.3100 -0.0100
v 4.9800 10.0600 -2.5800
v 7.5600 10.0000 -0.0100
v 3.1500 19.7200 -0.0100
v 2.3000 16.7800 -0.0100
v 6.7800 19.7500 -0.0100
v 0.4900 9.4700 -0.0100
v 7.6900 17.7700 -0.0100
v 8.9400 10.8000 -0.0100
v 5.0100 13.6500 -0.0100
v 7.0300 15.9000 -0.0100
v 3.2700 17.4400 -0.0100
v 4.8700 19.2500 -0.0100
v 3.6900 14.3700 -0.0100
v 18.9700 4.8800 -0.0100
v 15.4400 4.8400 -0.0100
v 16.9700 4.7700 -0.0100
v 8.1800 4.7100 -0.0100
v 10.6200 4.6600 -0.0100
v 3.5700 4.3700 -0.0100
v 0.7200 4.3400 -0.0100
v 0.1700 4.3700 -0.0100
v 1.8800 4.4300 -0.0100
v 7.4800 6.1700 -0.0100
v 5.5600 6.6400 -0.0100
v 3.1900 7.0000 -0.0100
v 2.2900 7.0300 -0.0100
v 7.2200 6.0500 -0.0100
v 4.8300 6.9300 -0.0100
v 9.2600 16.1100 -0.0100
v 6.6900 13.6300 -0.0100
v 3.7500 12.6400 -0.0100
v 0.0800 12.8500 -0.0100
v 8.5500 18.6400 -0.0100
v 9.7200 18.9000 -0.0100
v 6.3800 15.8900 -0.0100
v 0.0800 12.8500 -0.0100
v 10.2700 6.1800 -0.4400
v 8.4300 9.3000 -0.4400
v 9.1900 0.4700 -0.4400
v 5.0800 0.4400 -0.0100
v 3.9800 0.8500 -0.0100
v 6.1000 -0.5800 -0.0100
v 7.4800 6.1700 -0.0100
v 5.5600 6.6400 -0.0100
v 3.1900 7.0000 -0.0100
v 6.3200 0.1400 -0.0100
v 2.4500 0.7300 -0.0100
v 4.8300 6.9300 -0.0100
v 2.2900 7.0300 -0.0100
v 7.2200 6.0500 -0.0100
v 2.4200 4.5200 -0.0100
v 5.1300 4.7000 -0.0100
v 8.0900 4.4500 -0.0100
v 1.9900 1.2900 -0.0100
v 5.0700 0.4200 -0.0100
v 5.1000 2.0500 -0.0100
v 7.8400 1.4400 -0.0100
v 0.0000 4.7700 -0.0100
v 9.9500 4.5800 -0.0100
v 10.1600 13.8700 -0.4400
v 2.5000 10.2400 -0.0100
v 5.0500 9.9200 -2.5800
v 7.2500 10.2000 -0.0100
v 1.0000 10.9900 -0.0100
v 9.3800 9.6000 -0.0100
v 3.2000 19.7500 -0.0100
v 2.2800 17.8200 -0.0100
v 6.8300 19.6700 -0.0100
v 7.6300 16.7900 -0.0100
v 10.3700 9.1500 -0.4400
v 4.9300 13.7400 -0.0100
v 4.9300 13.7400 -0.0100
v 2.9600 15.9700 -0.0100
v 5.1000 19.2500 -0.0100
v 6.2400 14.4500 -0.0100
v 6.7000 17.4400 -0.0100
v 8.0800 16.5100 -0.4400
v 10.1600 13.8700 -0.4400
v 4.8400 17.2200 -0.4400
v 3.7900 4.7300 -0.0100
v 0.6500 4.8400 -0.0100
v 0.1600 5.0000 -0.0100
v 1.4600 5.1400 -0.0100
v 4.7400 5.2400 -0.0100
v 20.1300 4.6600 -0.0100
v 18.1500 4.6400 -0.0100
v 11.4000 4.7700 -0.0100
v 20.4600 4.8500 -0.0100
v 11.0000 5.2000 -0.0100
v 17.7600 4.8800 -0.0100
v 3.0100 6.6400 -0.0100
v 2.0300 6.5500 -0.0100
v 0.0300 11.7500 -0.0100
v 3.7100 12.0200 -0.0100
v 5.5700 6.6000 -0.0100
v 7.6300 6.4000 -0.0100
v 3.0100 6.6400 -0.0100
v 5.0600 0.7000 -0.0100
v 6.1700 -0.1300 -0.0100
v 3.8600 0.9500 -0.0100
v 6.3900 0.5700 -0.0100
v 2.2500 0.6500 -0.0100
v 7.3400 6.2500 -0.0100
v 4.7700 6.7800 -0.0100
v 2.0300 6.5500 -0.0100
v 6.9100 13.3100 -0.0100
v 9.7200 15.9700 -0.0100
v 10.2800 18.6500 -0.0100
v 9.0100 18.2600 -0.0100
v 6.6100 15.4000 -0.0100
v 3.7100 12.0200 -0.0100
v 0.0300 11.7500 -0.0100
v 0.0000 0.0000 -2.5800
v 0.0000 0.0000 -0.0100
v 0.0000 0.0000 -2.5800
v 0.0000 0.0000 -0.0100
v 0.0000 0.0000 -2.5800
v 0.0000 0.0000 -2.5800
v 0.0000 0.0000 -0.0100
v 0.0000 0.0000 -0.0100
v 0.0000 0.0000 -2.5800
v 5.1400 3.7000 -0.0100
v 0.0000 0.0000 -2.5800
v 0.0000 0.0000 -0.0100
v 5.1600 0.0000 -0.0100
v 1.5800 -0.0100 -2.5800
v 8.7400 0.0100 -0.0100
v 5.3900 8.2100 -2.5800
v 2.5000 13.9700 -2.5800
v 3.4600 7.8100 -2.5800
v 6.9700 8.8200 -2.5800
v 3.0000 15.2900 -2.5800
v 6.2000 2.0100 -2.5800
v 9.3300 2.2500 -2.5800
v 9.3900 2.7100 -2.5800
v 6.4500 2.0100 -2.5800
v 3.4600 7.8100 -2.5800
v 3.7000 7.9500 -2.5800
v 0.7100 12.8200 -2.5800
v 5.6300 8.5600 -2.5800
v 2.2100 13.9100 -2.5800
v 6.9700 8.8200 -2.5800
v 3.0000 15.2900 -2.5800
v 0.7100 12.8200 -2.5800
v 5.3900 8.2100 -2.5800
v 3.7000 7.3900 -2.5800
v 2.7800 13.6100 -2.5800
v 0.7600 12.3800 -2.5800
v 0.9400 11.9100 -2.5800
v 0.0000 0.0000 -2.5800
v 0.0000 0.0000 -2.5800
v 0.0000 0.0000 -2.5800
v 0.0000 0.0000 -0.0100
v 0.0000 0.0000 -0.0100
v 0.0000 0.0000 -0.0100
v 0.0000 0.0000 -2.5800
v 0.0000 0.0000 -0.0100
v 0.0000 0.0000 -2.5800
v 0.0000 0.0000 -0.0100
v 0.0000 0.0000 -0.0100
v 0.0000 0.0000 -2.5800
v 0.0000 0.0000 -0.0100
v 0.0000 0.0000 -0.0100
v 0.0000 0.0000 -2.5800
v 0.0000 0.0000 -2.5800
v 5.4400 3.6300 -0.0100
v 0.0000 0.0000 -2.5800
v 5.4600 0.0000 -0.0100
v 9.3700 0.0100 -0.0100
v 1.5500 -0.0100 -2.5800
v 0.0000 0.0000 -0.0100
v 0.0000 0.0000 -0.0100
v 9.7500 2.0400 -0.0100
v 6.4800 1.6400 -2.5800
v 9.8200 2.5200 -0.0100
v 3.7000 7.3900 -2.5800
v 2.7800 13.6100 -2.5800
v 5.7200 7.9000 -2.5800
v 7.3700 8.6000 -2.5800
v 3.3000 14.9800 -2.5800
v 3.9400 7.5500 -2.5800
v 2.4600 13.5300 -2.5800
v 5.9700 8.2700 -2.5800
v 0.9400 11.9100 -2.5800
v 0.9000 12.3500 -2.5800
v 0.9000 12.3500 -2.5800
v 0.0000 0.0000 -0.0100
v 0.0000 0.0000 -0.0100
v 0.0000 0.0000 -0.0100
v 0.0000 0.0000 -0.0100
v 0.0000 0.0000 -0.0100
v 0.0000 0.0000 -0.0100
v 0.0000 0.0000 -0.0100
v 0.0000 0.0000 -0.0100
v 0.0000 0.0000 -0.0100
v 0.0000 0.0000 -0.0100
v 0.0000 0.0000 -0.0100
v 0.0000 0.0000 -0.0100
v 0.0000 0.0000 -0.0100
v 6.9900 6.6900 -0.0100
v 5.0400 3.9300 -38.5600
v 5.0300 6.8700 -0.0100
v 3.0600 6.6600 -0.0100
v 10.4300 7.6200 -0.0100
v -3.6500 6.4800 -0.0100
v 3.3700 0.9700 -0.0100
v 3.3700 0.9700 -0.0100
v -3.6500 6.4800 -0.0100
v 3.3700 0.9700 -0.0100
v -3.6500 6.4800 -0.0100
v 15.0200 6.5900 -1.2900
v 14.8300 12.7900 -1.2900
v 18.1200 22.7500 -1.2900
v 18.3000 14.4800 -1.2900
v 3.7700 16.9700 -1.7900
v 6.3100 -12.0900 -2.1400
v 12.1900 -21.4100 -1.2900
v 8.6900 3.8400 -2.1400
v 8.8600 0.8100 -2.1400
v 8.6900 3.8400 -2.1400
v 15.0200 6.5900 -1.2900
v 12.1900 -21.4100 -1.2900
v 18.3000 14.4800 -1.2900
v 7.4200 13.3400 -2.1400
v 10.4700 -12.3500 -2.1400
v 6.3100 -12.0900 -2.1400
v 15.0900 -3.8300 -2.1400
v 15.6500 13.7100 -2.1400
v 15.6500 13.7100 -2.1400
v 10.4700 -12.3500 -2.1400
v 3.7700 16.9700 -1.7900
v 6.3100 -12.0900 -2.1400
v 12.1900 -21.4100 -1.2900
v 8.3100 16.7100 -2.1400
v 9.2900 9.6100 -2.1400
v 14.8300 12.7900 -1.2900
v 18.1200 22.7500 -1.2900
v 7.4200 13.3400 -2.1400
v 10.4700 -12.3500 -2.1400
v 12.1900 -21.4100 -1.2900
v 6.3100 -12.0900 -2.1400
v 14.8300 12.7900 -1.2900
v 8.3100 16.7100 -2.1400
v 15.0900 -3.8300 -2.1400
v 15.6500 13.7100 -2.1400
v 3.7700 16.9700 -1.7900
v 8.6900 -3.0700 -1.2900
v 3.0200 21.7000 -2.1400
v 6.9800 4.0600 -1.2900
v 6.9800 4.0600 -1.2900
v 3.0200 21.7000 -1.2900
v 11.7800 11.8300 -0.0100
v 11.7800 11.8300 -0.0100
v 1.2800 -1.8500 -2.1400
v 5.6000 8.2000 -1.2900
v 5.6000 8.2000 -1.2900
v 8.6900 -3.0700 -2.1400
v 8.6900 -3.0700 -1.2900
v 12.5600 7.7400 -0.0100
v 12.5600 7.7400 -0.0100
v -1.4600 7.0500 -2.1400
v 1.0600 3.0100 -0.0100
v 6.3800 2.2400 -0.0100
v 7.3900 5.8200 -0.0100
v 3.2700 11.2200 -0.0100
v 5.8100 11.0400 -0.0100
v 4.3600 10.8800 -0.0100
v 2.9600 6.1300 -0.0100
v 6.6900 10.8800 -0.0100
v 8.8100 3.1000 -0.0100
v 3.9200 2.7300 -0.0100
v 0.0000 0.0000 -0.0100
v 0.0000 0.0000 -0.0100
v 0.0000 0.0000 -0.0100
v 0.0000 0.0000 -0.0100
v 0.0000 0.0000 -0.0100
v 0.0000 0.0000 -0.0100
v 13.6900 10.9700 -1.7900
v 0.0000 0.0000 -1.7900
v 23.4200 10.5700 -1.7900
v 0.0000 0.0000 -1.7900
v 0.0000 0.0000 -1.7900
v 0.0000 0.0000 -1.7900
v 0.0000 0.0000 -1.7900
v 0.0000 0.0000 -1.7900
v -0.0200 9.2300 -0.0100
v -0.1000 19.9000 -0.0100
v -0.1800 30.9200 -0.0100
v -0.0800 38.9100 -0.0100
v 0.0000 0.0000 -0.0100
v 4.9600 0.0000 -0.2700
v 4.9000 11.0300 -0.2700
v 4.7500 22.2100 -0.2700
v 4.7000 32.9900 -0.2700
v 13.6900 10.9700 -1.7900
v 2.7700 16.6400 -0.0100
v 0.5300 7.6900 -0.0100
v 7.3000 15.7200 -0.0100
v 9.3600 0.4500 -0.0100
v 0.9100 1.2000 -0.0100
v 7.4200 16.0500 -0.0100
v 0.4800 7.9000 -0.0100
v 2.7600 17.0700 -0.0100
v 9.6000 0.2900 -0.0100
v 0.9100 1.2000 -0.0100
v 0.0000 9.0100 0.0000
v 0.3200 0.3200 0.0000
v 0.0000 34.2100 0.0000
v 0.3200 0.6400 0.0000
v 0.0000 28.3400 0.3200
v 0.3200 0.6400 0.0000
v 0.0000 15.6600 0.6400
v 0.6400 0.3200 0.0000
v 0.0000 36.4900 0.0000
v 0.0000 30.9200 0.3200
v 0.3200 0.3200 0.0000
v 0.0000 30.9700 0.0000
v 0.0000 30.9800 0.1600
v 0.6400 0.3200 0.0000
v 0.0000 31.0100 0.0000
v 0.0000 30.9900 0.1600
v 0.3200 0.6400 0.0000
v 0.0000 19.3900 0.0000
v 0.0000 19.4000 0.3200
v 0.3200 0.6400 0.0000
v 0.0000 19.4300 0.0000
v 0.0000 19.4400 0.3200
v 0.3200 0.6400 0.0000
v 0.0000 19.3400 0.0000
v 0.0000 19.3500 0.3200
v 0.3200 0.3200 0.0000
v 0.0000 36.5700 0.0000
v 0.0000 36.5200 0.3200
v 0.3200 0.3200 0.0000
v 0.0000 36.5500 0.0000
v 0.0000 36.5600 0.3200
v -7.6900 -3.6900 -27.9300
v -7.5200 0.0000 0.0000
v -28.0800 20.4800 0.0900
v 15.4400 35.8600 0.0400
v -7.5200 0.0000 0.6400
v -7.5200 0.0000 0.6400
v 12.8400 20.8400 0.0000
v -7.5200 0.0000 0.0000
v -33.2800 0.0000 18.5500
v -7.5200 0.0000 0.6400
v -7.5200 0.0000 0.6400
v -7.5200 0.0000 1.2800
v -7.5200 0.0000 0.0000
v -33.2800 0.0000 18.3400
v -28.0800 20.4800 0.0100
v -28.0800 11.5200 2.5700
v -28.0800 6.7200 5.1200
v -28.0800 6.8000 7.6800
v 12.8000 20.5200 0.0000
v -7.5200 0.0000 0.0000
v -33.2800 0.0000 18.5500
v -28.0800 20.4800 0.0900
v -7.5200 0.0000 0.6400
v 12.8000 15.3800 0.0000
v -7.5200 0.0000 0.6400
v -7.5200 0.0000 1.2800
v 2.5700 0.3200 2.5600
v -7.5200 0.0000 0.6400
v -7.5200 0.0000 0.0000
v -33.2800 0.0000 18.5500
v -28.0800 20.4800 0.0900
v -7.5200 0.0000 0.6400
v -7.5200 0.0000 0.6400
v 15.4400 15.5400 0.0200
v 2.5800 0.6400 2.5600
v -7.5200 0.0000 0.0000
v -33.2800 0.0000 18.3400
v -28.0800 20.4800 0.0100
v -28.0800 11.5200 2.5700
v -28.0800 6.8000 7.6800
v -7.5200 0.0000 1.2800
v -7.5200 0.0000 0.0000
v -33.2800 0.0000 18.3400
v -28.1600 20.4800 0.0500
v -28.1600 6.7200 5.1600
v 2.5800 0.6400 2.5600
v -7.5200 0.0000 0.0000
v -33.2800 0.0000 18.3400
v 2.5800 0.6400 2.5600
v 12.8600 30.8800 0.0000
v -28.0800 20.4800 10.2500
v -7.5200 0.0000 28.1600
v -28.0800 20.4800 12.8100
v -7.5200 0.0000 25.6000
v -33.2800 0.0000 18.2300
v -7.6900 -3.6900 -27.9300
v -7.5200 0.0000 1.2800
v -7.5200 0.0000 15.3600
v -33.2800 0.0000 18.5500
v -28.0800 20.4800 0.0900
v -7.5200 0.0000 17.9200
v -33.2800 0.0000 18.5500
vt -0.0068 0.0361
vt 0.0000 0.0176
vt -0.0137 0.0283
vt -0.0176 0.0225
vt -0.0117 0.0391
vt -0.0205 0.0352
vt -0.0068 0.0361
vt -0.0176 0.0215
vt 0.0000 0.0342
vt 0.0000 0.0283
vt -0.0244 0.0215
vt -0.0176 0.0166
vt 0.0000 0.0146
vt -0.0146 0.0059
vt 0.0000 0.0029
vt 0.0000 -0.0107
vt -0.0186 -0.0029
vt 0.0010 -0.0068
vt -0.0039 -0.0039
vt -0.0059 0.0010
vt -0.0176 0.0225
vt -0.0137 0.0283
vt -0.0186 0.0215
vt -0.0176 0.0215
vt -0.0205 0.0352
vt 0.0098 0.0176
vt 0.0000 0.0176
vt 0.0166 0.0225
vt 0.0127 0.0283
vt 0.0059 0.0361
vt 0.0205 0.0352
vt 0.0117 0.0400
vt 0.0166 0.0215
vt 0.0000 0.0283
vt 0.0000 0.0342
vt -0.0215 0.0107
vt -0.0146 0.0059
vt -0.0176 0.0166
vt 0.0000 0.0029
vt -0.0186 -0.0029
vt 0.0000 -0.0068
vt -0.0244 0.0215
vt -0.0293 0.0049
vt -0.0254 0.0039
vt 0.0000 -0.0107
vt 0.0166 0.0166
vt 0.0244 0.0215
vt 0.0039 -0.0039
vt 0.0059 0.0010
vt 0.0176 0.0225
vt 0.0166 0.0225
vt 0.0166 0.0215
vt 0.0176 0.0225
vt 0.0176 0.0215
vt 0.0127 0.0283
vt 0.0205 0.0352
vt -0.0176 0.0215
vt -0.0137 0.0264
vt 0.0000 0.0352
vt -0.0078 0.0244
vt -0.0127 0.0283
vt -0.0098 0.0205
vt 0.0186 -0.0029
vt 0.0000 -0.0068
vt 0.0000 -0.0107
vt 0.0146 0.0059
vt 0.0215 0.0107
vt 0.0000 0.0146
vt 0.0000 0.0029
vt 0.0244 0.0215
vt -0.0039 -0.0039
vt 0.0000 -0.0078
vt 0.0000 -0.0107
vt 0.0244 0.0039
vt 0.0283 0.0049
vt -0.0186 0.0215
vt -0.0049 -0.0029
vt -0.0059 0.0010
vt -0.0127 0.0352
vt -0.0156 0.0361
vt -0.0117 0.0391
vt -0.0205 0.0352
vt -0.0127 0.0283
vt 0.0000 0.0352
vt -0.0098 0.0205
vt 0.0000 0.0166
vt -0.0078 0.0244
vt 0.0000 0.0205
vt -0.0127 0.0283
vt -0.0137 0.0264
vt -0.0176 0.0215
vt -0.0176 0.0215
vt -0.0186 0.0215
vt -0.0107 0.0391
vt -0.0107 0.0391
vt 0.0000 0.0215
vt -0.0186 0.0215
vt -0.0244 0.0215
vt -0.0039 -0.0039
vt -0.0186 0.0010
vt 0.0000 -0.0010
vt 0.0000 -0.0107
vt -0.0195 0.0117
vt 0.0000 0.0107
vt -0.0273 -0.0010
vt -0.0293 0.0049
vt -0.0195 -0.0068
vt -0.0107 -0.0098
vt 0.0088 0.0195
vt 0.0078 0.0244
vt 0.0117 0.0293
vt 0.0127 0.0264
vt 0.0000 0.0352
vt 0.0117 0.0352
vt 0.0117 0.0293
vt 0.0078 0.0244
vt 0.0000 0.0205
vt 0.0088 0.0195
vt 0.0000 0.0166
vt 0.0205 0.0352
vt 0.0146 0.0361
vt 0.0117 0.0293
vt 0.0166 0.0215
vt 0.0117 0.0400
vt 0.0000 -0.0107
vt 0.0000 -0.0107
vt 0.0176 0.0215
vt 0.0000 0.0215
vt 0.0244 0.0215
vt 0.0000 -0.0107
vt 0.0029 -0.0039
vt 0.0176 0.0010
vt 0.0000 0.0107
vt 0.0186 0.0117
vt 0.0000 -0.0010
vt 0.0000 -0.0078
vt 0.0283 0.0049
vt 0.0264 -0.0010
vt 0.0186 -0.0068
vt 0.0059 0.0010
vt 0.0049 -0.0029
vt 0.0176 0.0215
vt 0.0166 0.0215
vt 0.0127 0.0264
vt 0.0205 0.0352
vt 0.0107 0.0391
vt 0.0117 0.0352
vt 0.0000 0.0352
vt 0.0117 0.0400
vt 0.0107 0.0391
vt 0.0176 0.0010
vt 0.0186 -0.0068
vt 0.0098 -0.0098
vt 0.0000 -0.0107
vt 0.0000 -0.0107
vt -0.0039 0.0127
vt 0.0039 0.0098
vt -0.0059 0.0068
vt -0.0146 -0.0020
vt -0.0078 -0.0020
vt 0.0029 -0.0020
vt -0.0195 -0.0020
vt 0.0117 -0.0020
vt -0.0078 -0.0020
vt -0.0146 -0.0020
vt -0.0146 -0.0088
vt -0.0176 -0.0088
vt 0.0020 -0.0088
vt -0.0049 0.0020
vt 0.0029 -0.0029
vt -0.0039 -0.0107
vt -0.0088 -0.0107
vt 0.0078 -0.0107
vt -0.0195 -0.0107
vt 0.0088 -0.0107
vt 0.0078 -0.0107
vt -0.0010 -0.0127
vt 0.0068 -0.0127
vt -0.0039 -0.0146
vt 0.0029 -0.0127
vt -0.0039 -0.0127
vt 0.0029 -0.0020
vt 0.0088 -0.0088
vt 0.0020 -0.0088
vt -0.0176 -0.0088
vt 0.0059 -0.0176
vt -0.0186 -0.0176
vt -0.0039 -0.0107
vt 0.0078 -0.0107
vt 0.0088 -0.0107
vt 0.0088 -0.0176
vt -0.0029 0.0000
vt 0.0049 0.0000
vt 0.0068 -0.0156
vt -0.0078 -0.0166
vt 0.0000 -0.0156
vt -0.0273 -0.0010
vt -0.0195 -0.0068
vt -0.0107 -0.0098
vt 0.0000 -0.0107
vt -0.0254 0.0039
vt -0.0293 0.0049
vt -0.0186 -0.0029
vt 0.0000 -0.0107
vt 0.0088 -0.0088
vt -0.0176 -0.0088
vt -0.0078 -0.0088
vt -0.0186 -0.0176
vt 0.0029 -0.0127
vt -0.0039 -0.0146
vt -0.0078 -0.0010
vt -0.0029 0.0000
vt 0.0049 0.0000
vt -0.0039 -0.0127
vt 0.0068 -0.0127
vt 0.0000 -0.0156
vt 0.0068 -0.0156
vt -0.0078 -0.0166
vt -0.0039 0.0107
vt 0.0049 0.0137
vt 0.0137 0.0107
vt -0.0029 0.0000
vt 0.0078 0.0000
vt 0.0068 0.0078
vt 0.0156 0.0000
vt -0.0117 0.0000
vt 0.0195 0.0000
vt -0.0098 -0.0078
vt -0.0029 -0.0020
vt 0.0059 0.0029
vt 0.0117 -0.0020
vt -0.0078 -0.0098
vt 0.0195 -0.0098
vt -0.0068 -0.0107
vt -0.0088 -0.0107
vt 0.0039 -0.0107
vt 0.0088 -0.0107
vt -0.0088 -0.0176
vt -0.0059 -0.0176
vt 0.0010 -0.0117
vt -0.0068 -0.0117
vt -0.0029 -0.0117
vt 0.0039 -0.0117
vt 0.0039 -0.0137
vt 0.0146 -0.0078
vt -0.0098 -0.0078
vt 0.0068 -0.0078
vt -0.0020 -0.0078
vt -0.0020 -0.0078
vt 0.0068 -0.0078
vt 0.0146 -0.0078
vt 0.0195 0.0000
vt 0.0176 -0.0078
vt -0.0068 -0.0176
vt -0.0059 -0.0176
vt 0.0039 -0.0176
vt 0.0186 -0.0176
vt 0.0088 -0.0176
vt -0.0049 0.0010
vt -0.0068 -0.0156
vt 0.0000 -0.0107
vt 0.0098 -0.0098
vt 0.0020 0.0010
vt 0.0078 0.0000
vt -0.0049 0.0010
vt 0.0010 -0.0117
vt 0.0039 -0.0137
vt -0.0029 -0.0117
vt 0.0039 -0.0117
vt -0.0068 -0.0117
vt 0.0078 -0.0166
vt 0.0010 -0.0156
vt -0.0068 -0.0156
vt 0.0186 -0.0068
vt 0.0264 -0.0010
vt 0.0283 0.0049
vt 0.0244 0.0039
vt 0.0186 -0.0029
vt 0.0098 -0.0098
vt 0.0000 -0.0107
vt 0.0088 -0.0049
vt 0.0049 -0.0117
vt 0.0088 -0.0107
vt 0.0049 -0.0078
vt 0.0098 -0.0098
vt 0.0127 -0.0088
vt -0.0029 -0.0156
vt -0.0117 -0.0039
vt -0.0137 -0.0156
vt -0.0127 -0.0186
vt 0.0029 -0.0117
vt -0.0078 -0.0156
vt -0.0078 -0.0146
vt -0.0137 -0.0156
vt -0.0146 -0.0146
vt -0.0127 -0.0186
vt -0.0049 -0.0029
vt -0.0078 -0.0254
vt -0.0186 -0.0195
vt -0.0059 0.0010
vt -0.0029 -0.0195
vt -0.0127 -0.0186
vt -0.0127 -0.0176
vt -0.0039 -0.0195
vt -0.0078 -0.0254
vt -0.0078 -0.0195
vt 0.0010 -0.0068
vt -0.0146 -0.0176
vt -0.0039 -0.0039
vt -0.0186 -0.0195
vt -0.0059 0.0010
vt 0.0010 -0.0068
vt -0.0137 -0.0244
vt -0.0078 -0.0254
vt -0.0049 -0.0029
vt -0.0186 0.0215
vt -0.0186 0.0215
vt -0.0098 -0.0049
vt -0.0098 -0.0107
vt -0.0107 -0.0098
vt -0.0059 -0.0117
vt -0.0059 -0.0078
vt -0.0059 -0.0059
vt 0.0068 -0.0146
vt 0.0068 -0.0156
vt 0.0088 -0.0049
vt -0.0029 -0.0088
vt 0.0127 -0.0166
vt -0.0107 -0.0098
vt -0.0059 -0.0117
vt -0.0059 -0.0078
vt -0.0098 -0.0049
vt -0.0098 -0.0107
vt -0.0137 -0.0088
vt -0.0117 -0.0156
vt 0.0068 -0.0146
vt 0.0137 -0.0146
vt 0.0127 -0.0156
vt 0.0029 -0.0186
vt 0.0127 -0.0176
vt 0.0127 -0.0176
vt 0.0020 -0.0186
vt 0.0127 -0.0166
vt 0.0029 -0.0186
vt 0.0049 -0.0029
vt 0.0137 -0.0244
vt 0.0186 -0.0195
vt 0.0059 0.0010
vt 0.0078 -0.0195
vt 0.0039 -0.0039
vt 0.0146 -0.0176
vt 0.0176 0.0215
vt 0.0176 0.0225
vt 0.0176 0.0225
vt 0.0117 -0.0068
vt 0.0000 -0.0088
vt 0.0195 0.0176
vt 0.0225 0.0273
vt -0.0098 0.0137
vt -0.0225 0.0273
vt 0.0000 -0.0107
vt -0.0195 0.0176
vt 0.0000 0.0049
vt -0.0205 0.0488
vt 0.0000 0.0049
vt 0.0000 0.0127
vt 0.0137 0.0195
vt 0.0078 0.0244
vt 0.0000 0.0176
vt 0.0078 0.0215
vt 0.0068 0.0254
vt 0.0068 0.0117
vt -0.0146 0.0137
vt 0.0254 0.0352
vt 0.0400 0.0146
vt 0.0254 0.0352
vt 0.0225 0.0273
vt -0.0342 0.0137
vt -0.0215 0.0166
vt 0.0049 0.0576
vt 0.0000 0.0654
vt -0.0049 0.0576
vt -0.0088 0.0469
vt 0.0000 -0.0020
vt -0.0205 0.0586
vt -0.0205 0.0488
vt -0.0205 0.0586
vt -0.0098 0.0664
vt -0.0049 0.0576
vt 0.0000 0.0654
vt -0.0225 0.0381
vt 0.0000 0.0508
vt -0.0146 0.0576
vt -0.0254 0.0352
vt -0.0176 0.0498
vt 0.0000 0.0205
vt -0.0176 0.0498
vt -0.0186 0.0283
vt -0.0225 0.0273
vt 0.0000 -0.0020
vt 0.0176 0.0498
vt 0.0205 0.0586
vt 0.0000 0.0615
vt 0.0205 0.0488
vt 0.0225 0.0381
vt 0.0156 0.0479
vt 0.0225 0.0381
vt 0.0264 0.0459
vt 0.0186 0.0283
vt 0.0254 0.0469
vt 0.0205 0.0488
vt 0.0186 0.0283
vt 0.0078 0.0059
vt 0.0000 0.0615
vt 0.0068 0.0254
vt 0.0039 0.0088
vt 0.0020 0.0137
vt 0.0059 0.0088
vt 0.0039 0.0088
vt 0.0088 0.0127
vt 0.0166 0.0088
vt 0.0000 0.0205
vt 0.0205 0.0586
vt -0.0039 0.0098
vt -0.0039 0.0098
vt -0.0088 0.0137
vt -0.0088 0.0137
vt -0.0107 0.0166
vt -0.0176 0.0498
vt -0.0205 0.0586
vt -0.0078 0.0244
vt -0.0049 0.0332
vt -0.0225 0.0381
vt -0.0088 0.0469
vt 0.0088 0.0469
vt 0.0049 0.0332
vt 0.0156 0.0479
vt 0.0225 0.0381
vt 0.0078 0.0244
vt 0.0029 -0.0098
vt 0.0000 0.0029
vt 0.0127 0.0020
vt -0.0117 0.0088
vt 0.0039 0.0137
vt -0.0117 -0.0059
vt 0.0391 -0.0010
vt -0.0400 -0.0195
vt 0.0264 -0.0010
vt -0.0273 -0.0107
vt 0.0000 -0.0078
vt -0.0039 -0.0039
vt 0.0000 -0.0010
vt 0.0000 -0.0010
vt -0.0117 0.0088
vt -0.0117 -0.0059
vt 0.0029 -0.0098
vt 0.0127 0.0020
vt 0.0039 0.0137
vt 0.0039 0.0137
vt -0.0381 0.0254
vt -0.0273 -0.0195
vt -0.0371 -0.0205
vt 0.0107 -0.0361
vt 0.0127 0.0381
vt 0.0049 0.0332
vt 0.0156 0.0479
vt 0.0225 0.0381
vt 0.0078 0.0244
vt -0.0156 0.0479
vt -0.0049 0.0332
vt -0.0088 0.0469
vt -0.0225 0.0381
vt -0.0078 0.0244
vt 0.0000 0.4844
vt -0.2500 0.0000
vt 0.0000 1.5303
vt 0.0312 0.0312
vt 0.0000 7.5557
vt 0.0000 2.7686
vt 0.0000 2.7705
vt 0.0000 2.5518
vt 0.0000 2.5508
vt 0.0312 0.0312
vt 0.0000 3.0234
vt 0.0000 3.0225
vt 0.0312 0.0312
vt 0.0000 3.0273
vt 0.0000 3.0215
vt 0.0156 0.0312
vt 0.0000 3.0205
vt 0.0000 1.8916
vt 0.0312 0.0625
vt 0.0000 1.8955
vt 0.0000 1.8965
vt 0.0312 0.0625
vt 0.0000 1.8994
vt 0.0000 1.9004
vt 0.0312 0.0625
vt 0.0000 3.5654
vt 0.0000 3.5645
vt 0.0312 0.0312
vt 0.0000 3.5674
vt 0.0000 3.5684
vt 0.0312 0.0312
vt -6.2500 0.0000
vt -10.2500 0.0020
vt -2.7344 0.0000
vt -3.5000 8.0020
vt 1.3027 11.5430
vt -4.0000 0.0000
vt -4.0000 0.0000
vt -9.4453 0.0029
vt -6.5000 0.0000
vt -6.2500 0.0000
vt -4.0000 0.0000
vt -4.0000 0.0000
vt -4.0000 0.0000
vt -6.5000 0.0000
vt -6.2500 0.0000
vt -3.5000 8.0020
vt -3.5000 8.0020
vt -3.5000 8.0020
vt -3.5000 8.0020
vt -6.2500 0.0000
vt -6.5000 0.0000
vt -6.2500 0.0000
vt -3.5000 8.0020
vt -4.0000 0.0000
vt -10.2500 4.0020
vt -4.0000 0.0000
vt -4.0000 0.0000
vt -9.4453 0.0029
vt -4.0000 0.0000
vt -6.5000 0.0000
vt -6.2500 0.0000
vt -3.5000 8.0020
vt -4.0000 0.0000
vt -4.0000 0.0000
vt 1.2617 0.5078
vt 5.0352 -25.7734
vt -6.5000 0.0000
vt -6.2500 0.0000
vt -3.5000 8.0020
vt -2.7422 0.6562
vt -8.5000 0.0000
vt -4.0000 0.0000
vt -6.5000 0.0000
vt -6.2500 0.0000
vt -2.7500 1.1250
vt -2.7500 0.6641
vt 4.4102 -25.7734
vt -6.5000 0.0000
vt -6.2500 0.0000
vt 5.1650 6.2266
vt -6.2500 0.0000
vt -0.7344 0.0000
vt -4.0000 0.0000
vt -6.2500 0.0000
vt -6.5000 0.0000
vt -6.2500 0.0000
vt -10.2500 0.0020
vt -4.0000 0.0000
vt -6.5000 0.0000
vt -6.2500 0.0000
vt -3.5000 8.0020
vt -6.5000 0.0000
vt -6.2500 0.0000
f 81/81 1/1 111/111
f 128/128 128/128 128/128
f 98/98 1/1 28/28
f 81/81 103/103 128/128
f 29/29 1/1 31/31
f 81/81 103/103 128/128
f 5/5 1/1 115/115
f 128/128 128/128 128/128
f 81/81 1/1 111/111
f 128/128 128/128 128/128
f 98/98 1/1 28/28
f 81/81 103/103 128/128
f 126/126 1/1 25/25
f 81/81 103/103 128/128
f 121/121 1/1 117/117
f 128/128 128/128 128/128
f 88/88 1/1 82/82
f 54/54 2/2 32/32
f 125/125 2/2 102/102
f 24/24 24/24 128/128
f 23/23 1/1 22/22
f 23/23 1/1 22/22
f 23/23 1/1 22/22
f 112/112 2/2 74/74
f 102/102 3/3 128/128
f 20/20 3/3 8/8
f 4/4 6/6 8/8
f 14/14 124/124 47/47
f 39/39 1/1 128/128
f 103/103 128/128 32/32
f 112/112 2/2 74/74
f 109/109 125/125 87/87
f 27/27 12/12 128/128
f 14/14 124/124 47/47
f 39/39 1/1 128/128
f 6/6 128/128 91/91
f 39/39 1/1 128/128
f 54/54 1/1 73/73
f 20/20 3/3 8/8
f 30/30 128/128 36/36
f 115/115 128/128 65/65
f 15/15 3/3 46/46
f 22/22 1/1 128/128
f 15/15 3/3 46/46
f 22/22 1/1 128/128
f 55/55 6/6 96/96
f 38/38 1/1 128/128
f 109/109 125/125 87/87
f 27/27 12/12 128/128
f 14/14 124/124 47/47
f 39/39 1/1 128/128
f 22/22 4/4 112/112
f 39/39 1/1 128/128
f 102/102 3/3 128/128
f 109/109 125/125 87/87
f 27/27 12/12 128/128
f 23/23 7/7 76/76
f 92/92 8/8 75/75
f 109/109 125/125 87/87
f 27/27 12/12 128/128
f 4/4 6/6 8/8
f 102/102 3/3 128/128
f 115/115 128/128 65/65
f 15/15 3/3 46/46
f 22/22 1/1 128/128
f 80/80 1/1 1/1
f 38/38 1/1 128/128
f 41/41 9/9 31/31
f 48/48 11/11 6/6
f 49/49 1/1 1/1
f 45/45 3/3 37/37
f 37/37 5/5 21/21
f 34/34 7/7 42/42
f 37/37 5/5 21/21
f 41/41 9/9 31/31
f 45/45 3/3 37/37
f 48/48 11/11 6/6
f 34/34 7/7 42/42
f 49/49 1/1 1/1
f 6/6 5/5 14/14
f 14/14 13/13 6/6
f 28/28 27/27 26/26
f 29/29 27/27 28/28
f 30/30 31/31 32/32
f 5/5 8/8 2/2
f 3/3 2/2 8/8
f 28/28 24/24 23/23
f 1/1 9/9 8/8
f 9/9 1/1 2/2
f 15/15 30/30 11/11
f 17/17 1/1 14/14
f 3/3 18/18 8/8
f 3/3 5/5 19/19
f 17/17 18/18 19/19
f 25/25 31/31 32/32
f 10/10 8/8 11/11
f 8/8 5/5 1/1
f 7/7 9/9 3/3
f 16/16 10/10 13/13
f 16/16 13/13 17/17
f 22/22 32/32 24/24
f 14/14 18/18 22/22
f 15/15 14/14 22/22
f 12/12 19/19 21/21
f 1/1 5/5 3/3
f 32/32 20/20 19/19
f 12/12 27/27 29/29
f 10/10 26/26 25/25
f 25/25 11/11 10/10
f 1/1 2/2 3/3
f 4/4 5/5 2/2
f 1/1 4/4 2/2
f 26/26 22/22 23/23
f 27/27 26/26 23/23
f 29/29 30/30 28/28
f 30/30 31/31 28/28
f 9/9 5/5 2/2
f 11/11 8/8 4/4
f 25/25 26/26 28/28
f 25/25 28/28 27/27
f 27/27 28/28 29/29
f 27/27 30/30 28/28
f 31/31 28/28 30/30
f 5/5 25/25 2/2
f 18/18 4/4 19/19
f 5/5 4/4 10/10
f 2/2 4/4 5/5
f 7/7 2/2 5/5
f 24/24 23/23 27/27
f 25/25 26/26 29/29
f 31/31 22/22 30/30
f 25/25 28/28 31/31
f 29/29 31/31 28/28
f 24/24 26/26 27/27
f 23/23 26/26 24/24
f 28/28 29/29 30/30
f 31/31 32/32 30/30
f 29/29 31/31 30/30
f 25/25 31/31 29/29
f 25/25 24/24 31/31
f 31/31 32/32 28/28
f 27/27 28/28 29/29
f 12/12 30/30 31/31
f 29/29 30/30 13/13
f 13/13 30/30 14/14
f 31/31 4/4 32/32
f 21/21 31/31 22/22
f 24/24 28/28 25/25
f 7/7 29/29 8/8
f 30/30 31/31 32/32
f 5/5 13/13 15/15
f 2/2 30/30 31/31
f 3/3 4/4 32/32
f 13/13 12/12 2/2
f 12/12 1/1 2/2
f 4/4 7/7 9/9
f 1/1 6/6 2/2
f 3/3 2/2 5/5
f 85/85 61/61 109/109
f 127/127 51/51 2/2
