# Conker's Bad Fur Day — Real 3D Model (Multiplayer Level Models)
o assets09_model_073

v 0.0000 7.9200 0.0000
v 0.1000 0.1300 -2.5800
v 4.9800 0.1800 -2.5800
v 0.1900 4.9200 -2.5800
v 5.0700 4.9700 -2.5800
v 2.8000 0.9400 -2.5800
v 5.0800 3.0100 -2.5800
v 0.0200 2.8100 -2.5800
v 2.5600 4.7200 -2.5800
v 2.5400 0.6200 -2.5800
v 5.0500 0.6400 -2.5800
v 5.0600 4.7300 -2.5800
v 2.5600 4.7200 -2.5800
v 2.5400 0.6200 -2.5800
v 0.0400 0.6000 -2.5800
v 0.0600 4.7000 -2.5800
v 2.3000 4.8700 -2.5800
v 2.5800 4.8300 -2.5800
v 2.5600 0.0100 -2.5800
v 0.0300 4.8200 -2.5800
v 0.0000 0.0000 -2.5800
v 2.5600 0.0100 -2.5800
v 2.5800 4.8300 -2.5800
v 5.1400 4.8300 -2.5800
v 5.1100 0.0100 -2.5800
v 5.1200 10.2400 -2.5800
v 5.1200 0.0000 -2.5800
v 0.0000 10.2400 -2.5800
v 0.0000 0.0000 -2.5800
v 5.1200 0.0000 -2.5800
v 5.1200 10.2400 -2.5800
v 10.2400 10.2400 -2.5800
v 10.2400 0.0000 -2.5800
v 0.0200 2.8100 -2.5800
v 2.3000 4.8700 -2.5800
v 5.0800 3.0100 -2.5800
v 2.8000 0.9400 -2.5800
v 5.0500 0.6400 -2.5800
v 2.5400 0.6200 -2.5800
v 2.5600 4.7200 -2.5800
v 5.0600 4.7300 -2.5800
v 2.5600 4.7200 -2.5800
v 2.5400 0.6200 -2.5800
v 0.0400 0.6000 -2.5800
v 0.0600 4.7000 -2.5800
v 5.8300 0.0200 -2.5800
v 5.9000 5.0400 -2.5800
v 0.0000 0.0000 -2.5800
v 0.0600 5.0200 -2.5800
v -28.0000 0.0000 17.9200
v -33.2800 0.0000 17.9900
v -28.1600 2.5600 15.3600
v -7.5200 0.0000 0.6400
v 15.3600 5.1600 0.0200
v -7.5200 0.0000 0.0000
v -33.2800 0.0000 17.9900
v -7.5200 0.0000 0.6400
v -7.5200 0.0000 0.6400
v -7.4400 0.0000 0.0000
vt 0.0000 0.0000
vt 0.1484 -0.0010
vt 0.1436 -0.0010
vt 0.1426 0.0205
vt 0.1279 -0.0439
vt 0.1270 -0.0049
vt 0.1172 -0.0049
vt 0.1279 -0.0439
vt 0.1123 -0.0469
vt 0.1104 -0.0068
vt 0.1270 -0.0049
vt 0.1152 0.0352
vt 0.0996 0.0322
vt 0.1006 -0.0068
vt 0.1172 -0.0049
vt 0.1152 0.0352
vt 0.1426 0.0205
vt 0.1182 0.0166
vt 0.1436 -0.0010
vt 0.1191 -0.0049
vt 0.1250 -0.0264
vt 0.1494 -0.0225
vt 0.1484 -0.0010
vt 0.1240 -0.0049
vt 0.0996 0.0322
vt 0.0137 0.0186
vt 0.1006 -0.0068
vt 0.0146 -0.0205
vt 0.0264 -0.0605
vt 0.1123 -0.0469
vt 0.1104 -0.0068
vt 0.0244 -0.0205
vt -0.0010 -0.0234
vt -0.0020 0.0166
vt 0.0088 -0.0234
vt 0.0107 -0.0625
vt 0.0244 -0.0205
vt 0.0264 -0.0605
vt 0.0107 -0.0625
vt 0.0088 -0.0234
vt -0.0020 0.0166
vt 0.0137 0.0186
vt 0.0146 -0.0205
vt -0.0010 -0.0234
vt 0.1445 -0.0010
vt 0.1484 -0.0010
vt 0.1807 0.0049
vt 0.1855 0.0049
vt 0.0000 0.7812
vt -6.5000 0.0000
vt -6.2500 0.0000
vt -6.5000 0.0000
vt -4.0000 0.0000
vt -6.2500 0.0000
vt -6.5000 0.0000
vt -6.2500 0.0000
vt -4.0000 0.0000
vt -4.0000 0.0000
vt -2.7266 0.0000
f 1/1 2/2 3/3
f 2/2 4/4 3/3
f 24/24 18/18 23/23
f 18/18 17/17 23/23
f 6/6 11/11 7/7
f 7/7 11/11 12/12
f 1/1 2/2 3/3
f 2/2 4/4 3/3
