mtllib assets09_model_132.mtl
# Conker's Bad Fur Day — Real 3D Model (Multiplayer Level Models)
o assets09_model_132
usemtl assets09_model_132_mat

v 0.0000 15.6000 0.0000
v 1.9600 5.6100 -2.5800
v 0.7000 5.5700 -2.5800
v 5.2600 9.7500 -2.5800
v 5.5000 11.6300 -2.5800
v 2.0900 9.8400 -2.5800
v 5.0000 1.4800 -2.5800
v 8.2900 5.6500 -2.5800
v 8.8100 9.8100 -2.5800
v 5.0100 5.6600 -2.5800
v 0.6800 9.0400 -2.5800
v 10.9300 4.7800 -2.5800
v 5.0100 10.9100 -2.5800
v 9.3100 9.1200 -2.5800
v 0.6900 4.8300 -0.0100
v 4.7700 8.9200 -2.5800
v 9.0400 4.8900 -2.5800
v 9.0400 4.8900 -2.5800
v 4.7700 8.9200 -2.5800
v 0.6900 4.8300 -0.0100
v 6.1500 4.4400 -2.5800
v 4.5800 5.7500 -2.5800
v 3.0000 4.4200 -2.5800
v 0.7000 5.5700 -2.5800
v 1.9600 5.6100 -2.5800
v 5.0000 1.4800 -2.5800
v 8.2900 5.6500 -2.5800
v 8.8100 9.8100 -2.5800
v 5.2600 9.7500 -2.5800
v 5.5000 11.6300 -2.5800
v 2.0900 9.8400 -2.5800
v 5.0100 5.6600 -2.5800
v 10.9300 4.7800 -2.5800
v 9.3100 9.1200 -2.5800
v 0.6800 9.0400 -2.5800
v 5.0100 10.9100 -2.5800
v 9.0400 4.8900 -2.5800
v 4.7700 8.9200 -2.5800
v 0.6900 4.8300 -0.0100
v 9.0400 4.8900 -2.5800
v 4.7700 8.9200 -2.5800
v 0.6900 4.8300 -0.0100
v 6.1500 4.4400 -2.5800
v 4.5800 5.7500 -2.5800
v 3.0000 4.4200 -2.5800
v -28.0000 0.0000 17.9200
v -33.2800 0.0000 18.2300
v -28.1600 2.5600 15.3600
v -7.5200 0.0000 0.6400
v -7.5200 0.0000 0.0000
v -33.2800 0.0000 18.2300
v -28.0800 20.4800 0.0100
v -7.5200 0.0000 0.0000
v -33.2800 0.0000 18.2300
v -28.0800 20.4800 0.0900
v -7.5200 0.0000 0.6400
v 15.5000 30.9400 0.1400
vt 0.0000 1.5273
vt -0.0166 0.0000
vt -0.0117 -0.0146
vt 0.0000 0.0205
vt -0.0117 0.0146
vt -0.0010 -0.0137
vt 0.0000 -0.0195
vt 0.0166 0.0000
vt -0.0010 0.0000
vt 0.0117 0.0146
vt 0.0166 0.0000
vt 0.0000 0.0205
vt -0.0117 0.0146
vt 0.0107 0.0010
vt 0.0000 0.0146
vt -0.0010 -0.0137
vt -0.0010 0.0029
vt 0.0000 0.0146
vt 0.0107 0.0010
vt -0.0010 -0.0029
vt -0.0020 -0.0039
vt 0.0029 0.0000
vt -0.0039 0.0000
vt 0.0117 0.0000
vt 0.0010 -0.0137
vt 0.0000 -0.0195
vt -0.0166 0.0000
vt 0.0010 0.0146
vt 0.0000 0.0205
vt 0.0117 0.0146
vt 0.0010 0.0000
vt 0.0166 0.0000
vt 0.0117 0.0146
vt -0.0117 0.0146
vt 0.0000 0.0205
vt -0.0166 0.0000
vt 0.0000 0.0146
vt -0.0107 0.0010
vt 0.0010 -0.0137
vt 0.0000 0.0146
vt -0.0107 0.0010
vt 0.0039 0.0000
vt 0.0020 0.0049
vt -0.0029 0.0000
vt 0.0098 -0.0078
vt -6.5000 0.0000
vt -6.2500 0.0000
vt -6.5000 0.0000
vt -4.0000 0.0000
vt -6.5000 0.0000
vt -6.2500 0.0000
vt 6.9580 -17.5107
vt -6.5000 0.0000
vt -6.2500 0.0000
vt -9.4453 0.0029
vt -4.0000 0.0000
vt -8.2500 0.0000
f 32/32 28/28 27/27
f 10/10 11/11 7/7
f 8/8 7/7 12/12
f 8/8 12/12 11/11
