mtllib assets09_model_293.mtl
# Conker's Bad Fur Day — Real 3D Model (Multiplayer Level Models)
o assets09_model_293
usemtl assets09_model_293_mat

v 0.0000 11.4400 0.0000
v -27.3600 0.0000 17.9200
v -27.4400 20.4800 0.0900
v -7.5200 0.0000 0.6400
v 15.3600 5.1600 0.0400
v -33.2800 0.0000 18.5500
v -33.2800 0.0000 18.2300
v -33.2800 0.0000 18.2300
v -7.5200 0.0000 0.6400
v 2.5800 0.6400 0.0000
v -33.2800 0.0000 18.2300
v -7.5200 0.0000 0.6400
v -33.2800 0.0000 18.2300
v -6.8800 0.0000 0.0000
v -27.4400 20.4800 0.0900
v -7.5200 0.0000 0.6400
v 12.8800 0.0600 0.0000
vt 0.0000 0.0000
vt -3.2500 0.0000
vt -3.4375 9.0020
vt -2.6562 0.2500
vt 1.2578 2.5117
vt -0.7344 0.0000
vt -2.6797 2.0000
vt -2.6797 2.0000
vt -6.5000 0.0000
vt 4.6289 5.0059
vt -2.6797 2.0000
vt -6.5000 0.0000
vt -2.6797 1.0000
vt -3.2500 0.0000
vt -3.4375 9.0020
vt -6.5000 0.0000
vt -8.2500 0.0000
f 1/1 2/2 3/3
f 3/3 2/2 4/4
f 5/5 6/6 7/7
f 8/8 9/9 10/10
f 11/11 12/12 13/13
f 1/1 2/2 3/3
f 1/1 3/3 4/4
f 5/5 1/1 4/4
