# Conker's Bad Fur Day — Real 3D Model (Spooky Models)
o assets10_model_047

v 0.0000 1.2800 0.0000
v 0.0000 4.0800 0.0000
v 0.0000 6.7200 0.0000
v 0.0000 9.5200 0.0000
v 0.0000 12.2400 0.0000
v 0.0000 15.2000 0.0000
v 0.0000 18.4000 0.0000
v 0.0000 20.3200 0.0000
v 32.9200 0.0200 -3.2500
v 35.3700 0.0200 -4.4600
v 37.5000 0.0200 4.2700
v 28.6200 1.6400 8.3100
v 24.1400 1.6400 9.2100
v 17.1900 0.0000 -3.2500
v 21.0700 0.0100 -6.0200
v 28.4000 0.0200 -2.5700
v 33.1300 0.0200 -1.5600
v 37.7200 0.0200 -2.6200
v 31.2800 0.0200 -2.0700
v 23.1600 0.0200 -2.6800
v 24.4300 1.6400 9.4000
v 27.1000 0.0200 3.3900
v 34.2800 0.0200 3.0400
v 38.3200 0.0200 4.9500
v 23.7200 0.0200 3.5300
v 24.0700 1.6400 -8.9000
v 35.1800 1.6400 -6.1800
v 37.0900 0.0200 -4.3400
v 21.8400 0.0100 -4.4000
v 17.0400 0.0000 -4.6000
v 30.6300 0.0200 4.7200
v 36.3000 0.0200 0.3000
v 23.2000 0.0200 1.0500
v 25.8400 0.0200 0.3400
v 24.3400 1.6400 -9.2200
v 32.8200 0.0200 -4.2100
v 36.7100 1.6400 -10.0800
v 28.5400 0.0200 -2.5200
v 18.0900 0.0000 -3.4600
v 20.4900 0.0100 0.2000
v 23.7800 0.0200 -5.1200
v 30.2700 1.6400 -7.0300
v 37.4900 0.0200 -4.4300
v 39.5900 0.0200 3.6400
v 37.0900 1.6400 9.2800
v 27.4300 1.6400 8.8000
v 23.6500 0.0200 3.4400
v 34.4700 1.6400 -10.2100
v 37.1900 1.4400 -7.7600
v 31.9900 0.0200 4.7200
v 24.1500 0.0200 4.7500
v 30.8900 1.6400 8.7200
v 38.0100 0.0200 1.5000
v 27.4200 0.0200 0.0000
v 24.0800 0.0200 -4.3800
v 30.3100 1.6400 -7.6600
v 31.5800 1.6400 -9.1300
v 27.6000 0.0200 -2.7700
v 34.4900 0.0200 2.3200
v 38.4100 0.0200 -3.9800
v 36.7100 1.6400 -8.6300
v 34.5100 1.6400 -9.9300
v 37.1900 1.4400 -7.7600
v 31.7900 0.0200 4.7500
v 24.1500 0.0200 4.7500
v 30.8900 1.6400 8.7200
v 38.0100 0.0200 1.5000
v 27.4200 0.0200 0.0000
v 24.0800 0.0200 -4.3800
v 30.3100 1.6400 -7.6600
v 31.5800 1.6400 -9.1300
v 27.6000 0.0200 -2.7700
v 34.4900 0.0200 2.3200
v 38.4100 0.0200 -3.9800
v 36.7100 1.6400 -8.6300
v 28.0200 1.6400 9.9800
v 33.3000 1.6400 8.1600
v 36.9900 0.0200 5.0500
v 31.2900 0.0200 0.2200
v 26.5600 0.0200 4.7700
v 16.7300 0.0000 -2.8700
v 22.5100 0.0100 -4.5600
v 32.8600 0.0200 -3.3800
v 37.4600 0.0200 4.1200
v 32.9900 1.6400 9.6800
v 28.2500 1.6400 9.8100
v 23.4100 0.0200 5.1100
v 23.4500 0.0200 3.1400
v 28.2000 0.0200 -2.6600
v 34.0800 0.0200 2.9500
v 36.2900 0.0200 -2.4900
v 28.7600 0.0200 1.6100
v 23.1400 0.0200 -2.8800
v 30.1900 1.6400 -5.8000
v 37.1300 0.0200 0.6900
v 36.5100 1.6400 9.0400
v 29.5300 1.6400 9.2600
v 36.9700 0.9400 7.0700
v 34.1600 0.0200 4.3300
v 28.1900 0.0200 1.5400
v 21.6800 0.0100 4.7600
v 19.1300 0.0100 -5.3700
v 31.1300 0.0200 -4.6900
v 36.4900 0.0200 -1.4900
v 36.6500 1.6400 9.2300
v 28.5300 1.6400 9.7700
v 23.4100 0.0200 5.1100
v 23.4500 0.0200 3.1400
v 28.2000 0.0200 -2.6600
v 34.0800 0.0200 2.9500
v 36.2900 0.0200 -2.4900
v 28.7600 0.0200 1.6100
v 23.1400 0.0200 -2.8800
v 30.1900 1.6400 -5.8000
v 37.1300 0.0200 0.6900
v 36.5100 1.6400 9.0400
v 28.2800 4.7400 9.7000
v 34.2500 0.9400 -3.2400
v 19.3200 0.0100 -3.2400
v 27.1600 0.0200 -4.3400
v 23.3100 0.0200 0.8200
v 32.3700 1.6400 7.6100
v 37.5200 0.0200 4.9100
v 35.6200 0.0200 -0.2500
vt 0.0000 0.2500
vt 0.0000 0.5703
vt 0.0000 0.7969
vt 0.0000 1.0625
vt 0.0000 1.3281
vt 0.0000 1.6484
vt 0.0000 1.9688
vt 0.0000 2.0000
vt 3.2256 0.0020
vt 3.6250 0.0020
vt 3.5645 0.1602
vt 2.7852 0.1602
vt 2.3213 0.0020
vt 1.7520 0.0010
vt 2.3105 0.0020
vt 2.8994 0.0020
vt 3.4023 0.0020
vt 3.4932 0.0020
vt 2.5908 0.0020
vt 2.3018 0.0020
vt 2.6318 0.1602
vt 2.8604 0.0020
vt 3.7393 0.0020
vt 2.3193 0.0020
vt 2.3359 0.0020
vt 3.0596 0.1602
vt 3.6045 0.1416
vt 2.8428 0.0020
vt 1.8516 0.0010
vt 2.2051 0.0010
vt 3.5801 0.0020
vt 3.0391 0.0020
vt 2.5830 0.0020
vt 2.2686 0.0020
vt 2.7920 0.1602
vt 3.6396 0.0020
vt 2.7705 0.1602
vt 2.6494 0.0020
vt 1.8232 0.0010
vt 2.2783 0.0020
vt 2.3877 0.1602
vt 3.5459 0.1602
vt 4.0293 0.0020
vt 3.6201 0.0166
vt 3.1406 0.1602
vt 2.3486 0.0938
vt 1.7861 0.0000
vt 3.3994 0.1602
vt 3.5820 0.0020
vt 2.7402 0.0020
vt 2.3643 0.1602
vt 3.6016 0.1338
vt 3.1836 0.0020
vt 2.6074 0.0020
vt 2.3604 0.1602
vt 3.2617 0.1602
vt 2.8740 0.1602
vt 2.9150 0.0020
vt 3.8750 0.0020
vt 3.6016 0.0020
vt 3.2793 0.1602
vt 3.3994 0.1602
vt 3.5820 0.0020
vt 2.7402 0.0020
vt 2.3643 0.1602
vt 3.6016 0.1338
vt 3.1836 0.0020
vt 2.5742 0.0020
vt 2.3604 0.1602
vt 3.3359 0.1602
vt 2.8740 0.1602
vt 2.9150 0.0020
vt 3.8750 0.0020
vt 3.6016 0.0020
vt 3.2793 0.1602
vt 2.8838 0.1602
vt 3.6104 0.0918
vt 3.3359 0.0020
vt 2.7529 0.0020
vt 2.1172 0.0010
vt 1.7812 0.0010
vt 3.0400 0.0020
vt 3.5635 0.0020
vt 3.5791 0.1602
vt 2.8174 0.1602
vt 2.5273 0.1602
vt 2.0742 0.0010
vt 2.6064 0.0020
vt 3.0977 0.0020
vt 3.8193 0.0020
vt 3.1494 0.0020
vt 2.5859 0.0020
vt 2.3721 0.1602
vt 3.2705 0.0020
vt 3.6689 0.0020
vt 2.7529 0.1602
vt 3.2520 0.1602
vt 3.6123 0.0020
vt 3.0557 0.0020
vt 2.5938 0.0020
vt 1.6553 0.0000
vt 2.1982 0.0010
vt 3.2090 0.0020
vt 3.6582 0.0020
vt 3.2217 0.1602
vt 2.5273 0.1602
vt 2.0742 0.0010
vt 2.6064 0.0020
vt 3.0977 0.0020
vt 3.8193 0.0020
vt 3.2285 0.0020
vt 2.5635 0.0020
vt 2.3721 0.1602
vt 3.2705 0.0020
vt 3.6689 0.0020
vt 3.0879 0.1602
vt 2.7617 0.4629
vt 3.3447 0.0918
vt 1.9844 0.0010
vt 2.6553 0.0020
vt 2.3594 0.1602
vt 3.5615 0.1602
vt 4.1338 0.0010
vt 2.8350 0.0020
f 92/92 1/1 1/1
f 94/94 1/1 1/1
f 85/85 1/1 1/1
f 27/27 1/1 1/1
f 69/69 1/1 1/1
f 113/113 1/1 1/1
f 80/80 1/1 1/1
f 10/10 1/1 1/1
