# Conker's Bad Fur Day — Real 3D Model (Multiplayer Level Models)
o assets09_model_138

v 0.0000 14.6400 0.0000
v 7.7300 4.5800 -0.0100
v 5.8400 5.2700 -0.0100
v 6.5600 2.6700 -0.0100
v 7.7400 6.8900 -0.0100
v 9.6300 5.3000 -0.0100
v 8.9000 2.6900 -0.0100
v 3.8200 2.6500 -0.0100
v 4.5500 5.2600 -0.0100
v 2.6600 4.5500 -0.0100
v 2.6600 6.8600 -0.0100
v 0.7600 5.2400 -0.0100
v 1.4800 2.6400 -0.0100
v 0.1400 10.0300 -0.0100
v 0.1100 0.1500 -0.0100
v 10.2600 0.2100 -0.0100
v 10.2800 10.1000 -0.0100
v 0.0000 5.1200 -0.0100
v 5.1200 0.0000 -0.0100
v 5.1200 5.1200 -0.0100
v 0.0000 0.0000 -0.0100
v 0.0000 0.0000 -0.0100
v 5.1200 0.0000 -0.0100
v 0.0000 5.1200 -0.0100
v 5.1200 5.1200 -0.0100
v 5.1200 5.1200 -0.0100
v 0.0000 0.0000 -0.0100
v 5.1200 0.0000 -0.0100
v 0.0000 5.1200 -0.0100
v 5.1200 0.0000 -0.0100
v 5.1200 5.1200 -0.0100
v 0.0000 5.1200 -0.0100
v 0.0000 5.1200 -0.0100
v 0.0000 0.0000 -0.0100
v 5.1200 5.1200 -0.0100
v 5.1200 0.0000 -0.0100
v 0.0000 0.0000 -0.0100
v 0.0000 0.0000 -0.0100
v 0.0000 0.0000 -0.0100
v 0.0000 0.0000 -0.0100
v 0.0000 0.0000 -0.0100
v 0.0000 0.0000 -0.0100
v 0.0000 0.0000 -0.0100
v 0.0000 0.0000 -0.0100
v 0.0000 0.0000 -0.0100
v 0.0000 0.0000 -0.0100
v 0.0000 0.0000 -0.0100
v 0.0000 0.0000 -0.0100
v 0.0000 0.0000 -0.0100
v 0.0000 0.0000 -0.0100
v 0.0000 0.0000 -0.0100
v 0.0000 0.0000 -0.0100
v 0.0000 0.0000 -0.0100
v 0.0000 0.0000 -0.0100
v 0.0000 0.0000 -0.0100
v 0.0000 0.0000 -0.0100
v 0.0000 0.0000 -0.0100
v 0.0000 0.0000 -0.0100
v 0.0000 0.0000 -0.0100
v 0.0000 0.0000 -0.0100
v 0.0000 0.0000 -0.0100
v 0.0000 0.0000 -0.0100
v 0.0000 0.0000 -0.0100
v 0.0000 0.0000 -0.0100
v 0.0000 0.0000 -0.0100
v 0.0000 0.0000 -0.0100
v 0.0000 0.0000 -0.0100
v 0.0000 0.0000 -0.0100
v 0.0000 0.0000 -0.0100
v 0.0000 0.0000 -0.0100
v 0.0000 0.0000 -0.0100
v 0.0000 0.0000 -0.0100
v 0.0000 0.0000 -0.0100
v 0.0000 0.0000 -0.0100
v 0.0000 0.0000 -0.0100
v 0.0000 0.0000 -0.0100
v 0.0000 0.0000 -0.0100
v 0.0000 0.0000 -0.0100
v 0.0000 0.0000 -0.0100
v 0.0000 0.0000 -0.0100
v 0.0000 0.0000 -0.0100
v 0.0000 0.0000 -0.0100
v 0.0000 0.0000 -0.0100
v 0.0000 0.0000 -0.0100
v 0.0000 0.0000 -0.0100
v 0.0000 0.0000 -0.0100
v 0.0000 0.0000 -0.0100
v 0.0000 0.0000 -0.0100
v 0.0000 0.0000 -0.0100
v 0.0000 0.0000 -0.0100
v 0.0000 0.0000 -0.0100
v -28.0000 0.0000 17.9200
v -33.2800 0.0000 18.2300
v -28.1600 2.5600 15.3600
v -7.5200 0.0000 0.6400
v -7.5200 0.0000 0.6400
v -7.5200 0.0000 0.0000
v -33.2800 0.0000 18.2300
v -28.0800 20.4800 0.0100
v -7.5200 0.0000 0.0000
v -33.2800 0.0000 18.3400
v -28.0800 11.5200 2.5700
v -28.0800 6.7200 5.1200
v -28.0800 6.8000 7.6800
v 15.4400 31.0200 0.1200
v -7.5200 0.0000 0.6400
v -7.5200 0.0000 0.6400
v -7.5200 0.0000 0.0000
v -33.2800 0.0000 18.2300
v 12.8000 35.9600 0.0000
v -7.5200 0.0000 0.0000
v -33.2800 0.0000 18.3400
v 15.5400 15.5800 0.0600
vt 0.0000 1.4336
vt -0.0039 0.0049
vt -0.0088 0.0049
vt -0.0156 0.0049
vt -0.0273 0.0049
vt -0.0234 0.0049
vt 0.0088 0.0049
vt 0.0039 0.0049
vt 0.0156 -0.0039
vt 0.0156 0.0049
vt 0.0273 0.0049
vt 0.0234 0.0049
vt 0.0312 0.0049
vt 0.0312 0.0049
vt -0.0312 0.0049
vt -0.0312 0.0049
vt 0.0312 -0.0156
vt -0.0312 0.0049
vt 0.0312 0.0049
vt -0.0312 -0.0156
vt -0.0312 0.0049
vt -0.0312 -0.0156
vt -0.0312 0.0049
vt -0.0312 -0.0156
vt 0.0312 0.0049
vt 0.0312 -0.0156
vt 0.0312 0.0049
vt 0.0312 -0.0156
vt 0.0312 -0.0156
vt 0.0312 -0.0156
vt -0.0312 -0.0156
vt 0.0312 0.0049
vt -0.0312 0.0049
vt 0.0312 -0.0156
vt -0.0312 -0.0156
vt 0.0068 -0.0059
vt 0.0000 0.0010
vt 0.0000 -0.0117
vt -0.0068 -0.0059
vt 0.0068 -0.0059
vt 0.0000 0.0010
vt -0.0068 -0.0059
vt 0.0000 -0.0117
vt -0.0029 0.0215
vt -0.0068 0.0273
vt -0.0049 0.0273
vt 0.0049 0.0273
vt 0.0029 0.0215
vt 0.0068 0.0273
vt 0.0000 0.0215
vt 0.0000 0.0273
vt 0.0000 0.0352
vt 0.0000 0.0215
vt -0.0029 0.0000
vt 0.0000 0.0000
vt -0.0029 0.0215
vt -0.0029 0.0000
vt 0.0029 0.0000
vt 0.0029 0.0000
vt 0.0000 0.0000
vt 0.0049 0.0273
vt 0.0068 0.0273
vt 0.0029 0.0215
vt -0.0049 0.0273
vt -0.0029 0.0215
vt -0.0068 0.0273
vt 0.0000 0.0215
vt 0.0000 0.0273
vt 0.0000 0.0352
vt 0.0000 0.0000
vt 0.0029 0.0000
vt 0.0029 0.0000
vt 0.0029 0.0215
vt -0.0029 0.0000
vt -0.0029 0.0000
vt 0.0000 0.0215
vt -0.0029 0.0215
vt 0.0000 0.0000
vt 0.0039 0.0000
vt 0.0000 0.0020
vt 0.0000 0.0049
vt 0.0020 -0.0010
vt -0.0039 0.0000
vt -0.0020 -0.0010
vt 0.0000 -0.0039
vt 0.0000 0.0000
vt -0.0039 -0.0059
vt 0.0039 -0.0059
vt 0.0000 -0.0020
vt 0.0000 -0.0088
vt 0.0000 1.5156
vt -6.5000 0.0000
vt -6.2500 0.0000
vt -6.5000 0.0000
vt -4.0000 0.0000
vt -4.0000 0.0000
vt -6.5000 0.0000
vt -6.2500 0.0000
vt -3.5000 8.0020
vt -6.5000 0.0000
vt -6.2500 0.0000
vt -3.5000 8.0020
vt -3.5000 8.0020
vt -3.5000 8.0020
vt -9.5049 -0.0010
vt -4.0000 0.0000
vt -4.0000 0.0000
vt -6.5000 0.0000
vt -6.2500 0.0000
vt -6.2500 0.0000
vt -6.5000 0.0000
vt -6.2500 0.0000
vt 1.2598 4.0215
f 2/2 8/8 7/7
f 3/3 2/2 7/7
f 1/1 2/2 3/3
f 4/4 3/3 2/2
f 8/8 5/5 3/3
f 1/1 3/3 5/5
f 2/2 9/9 3/3
f 5/5 7/7 16/16
f 7/7 17/17 16/16
f 1/1 9/9 2/2
f 15/15 16/16 17/17
f 15/15 18/18 16/16
f 8/8 3/3 5/5
f 7/7 8/8 5/5
f 1/1 8/8 7/7
f 10/10 4/4 12/12
f 4/4 6/6 12/12
f 6/6 9/9 12/12
