# Conker's Bad Fur Day — Real 3D Model (Spooky Models)
o assets10_model_065

v 0.0000 1.8400 0.0000
v 0.0000 3.3600 0.0000
v 0.0000 6.0000 0.0000
v 0.0000 8.9600 0.0000
v 0.0000 12.0800 0.0000
v 0.0000 14.3200 0.0000
v 0.0000 15.7600 0.0000
v 0.0000 16.0800 0.0000
v 0.0000 16.4000 0.0000
v 0.0000 16.8000 0.0000
v 0.0000 17.2000 0.0000
v 0.0000 18.5600 0.0000
v 3.2800 -10.6300 -18.3500
v 16.9100 -4.0600 22.4400
v 19.5700 -4.1500 31.5600
v 29.5800 -3.5300 39.8800
v 17.3700 -5.1600 17.2900
v 19.4400 -4.6600 28.9500
v 27.3000 -4.9300 37.5700
v 19.6600 -5.3600 20.3000
v 22.2100 -5.7300 29.7400
v 30.2000 -5.2700 37.7800
v 22.5500 -5.9100 28.0000
v 25.0000 -5.0800 34.9400
v 34.7300 -4.5900 39.0100
v 23.8800 -5.5600 16.5000
v 26.6600 -4.9400 24.4900
v 32.6200 -4.6200 32.6700
v 23.1400 -5.2400 14.2500
v 28.6100 -3.0100 19.6800
v 29.3500 -3.9300 27.0500
v 33.0100 -3.8600 31.0200
v 26.4400 -4.1000 17.1300
v 31.3500 -2.0900 20.6900
v 32.5800 -2.7200 27.7100
v 37.0600 -2.7900 29.8600
v 24.5800 -4.4000 14.5800
v 32.3900 -1.6900 22.6400
v 37.7700 -2.4300 29.1600
v 15.1400 -5.8400 14.9600
v 30.2300 -2.2100 18.8400
v 36.0600 -1.5800 25.4000
v 39.5400 -1.1700 20.5100
v 22.3200 -4.9200 11.8300
v 29.9100 -1.6800 15.7000
v 34.2100 -0.6500 16.5600
v 37.1000 -1.4200 24.4000
v 38.6400 -0.9100 18.8100
v 39.1800 -0.1500 14.5300
v 0.4200 -12.8200 -14.9000
v 3.7500 -12.8200 -12.4600
v -0.0800 -12.8200 -17.6300
v 0.0700 -12.8200 -18.8200
v -17.6500 -15.0000 -31.5500
v 0.6400 -15.3200 17.8400
v -6.0600 -12.5600 38.7200
v -21.2600 -12.4300 -6.4100
vt 0.0000 0.1953
vt 0.0000 0.4531
vt 0.0000 0.7344
vt 0.0000 1.0312
vt 0.0000 1.3125
vt 0.0000 1.5234
vt 0.0000 1.5547
vt 0.0000 1.5859
vt 0.0000 1.6172
vt 0.0000 1.6562
vt 0.0000 1.7422
vt 0.3203 -1.0381
vt 1.5732 -0.4443
vt 1.7295 -0.4082
vt 2.3271 -0.3496
vt 3.2607 -0.2148
vt 1.8311 -0.4854
vt 2.2314 -0.4277
vt 3.5039 -0.2979
vt 1.9951 -0.5352
vt 2.6309 -0.5508
vt 3.4990 -0.4990
vt 2.3877 -0.5654
vt 3.0684 -0.5283
vt 3.7549 -0.4727
vt 2.4385 -0.5586
vt 2.7568 -0.5264
vt 3.5820 -0.4111
vt 2.4463 -0.5273
vt 2.7168 -0.3936
vt 2.9980 -0.4023
vt 3.6973 -0.3262
vt 2.7959 -0.2725
vt 3.1289 -0.1934
vt 3.3262 -0.3330
vt 3.9863 -0.2578
vt 2.6846 -0.3320
vt 3.3174 -0.2070
vt 3.9346 -0.2012
vt 1.7578 -0.5752
vt 3.3682 -0.1406
vt 3.9189 -0.1436
vt 4.1436 -0.0078
vt 2.9277 -0.1963
vt 3.1436 -0.1162
vt 3.4404 -0.1143
vt 3.8213 -0.1143
vt 3.7959 -0.0527
vt 4.2744 -0.0098
vt 0.0820 -1.2520
vt -0.1270 -1.2520
vt 0.0684 -1.3057
vt -4.3398 -0.5400
vt -1.1084 -1.7920
vt 0.0078 -1.1973
vt -8.0400 -1.1104
vt 0.0439 -1.2139
f 13/13 1/1 1/1
