# Conker's Bad Fur Day — Real 3D Model (Multiplayer Level Models)
o assets09_model_061

v 0.0000 11.7600 0.0000
v 10.2100 20.3500 -2.5800
v 5.1700 20.3800 -2.5800
v 10.1500 0.1100 -2.5800
v 5.1000 0.1400 -2.5800
v 0.1200 20.4000 -2.5800
v 0.0600 0.1600 -2.5800
v 10.2100 20.3500 -2.5800
v 5.1700 20.3800 -2.5800
v 10.1500 0.1100 -2.5800
v 5.1000 0.1400 -2.5800
v 0.1200 20.4000 -2.5800
v 0.0600 0.1600 -2.5800
v 9.0000 8.8400 -2.5800
v 1.4200 8.9600 -2.5800
v 8.9600 1.3000 -2.5800
v 1.3800 1.4300 -2.5800
v 1.3300 8.9100 -2.5800
v 1.2500 1.6900 -2.5800
v 9.0000 8.7700 -2.5800
v 8.9200 1.5400 -2.5800
v 10.2400 10.2400 -2.5800
v 0.0000 10.2400 -2.5800
v 10.2400 0.0000 -2.5800
v 0.0000 0.0000 -2.5800
v 8.1500 2.5400 -0.0100
v 0.5300 5.3100 -0.0100
v 0.2800 0.7500 -0.0100
v 8.2800 5.3000 -0.0100
v 7.9800 5.3000 -0.0100
v 0.1200 5.3100 -0.0100
v 8.1300 8.0700 -0.0100
v 0.3700 9.8800 -0.0100
v 20.1100 5.2700 -0.0100
v 20.1100 5.2700 -0.0100
v 10.2400 10.2400 -2.5800
v 0.0000 10.2400 -2.5800
v 10.2400 0.0000 -2.5800
v 0.0000 0.0000 -2.5800
v 8.1500 2.5400 -0.0100
v 0.5300 5.3100 -0.0100
v 0.2800 0.7500 -0.0100
v 8.2800 5.3000 -0.0100
v 7.9800 5.3000 -0.0100
v 0.1200 5.3100 -0.0100
v 8.1300 8.0700 -0.0100
v 0.3700 9.8800 -0.0100
v 20.1100 5.2700 -0.0100
v 20.1100 5.2700 -0.0100
v 10.2100 20.3500 -2.5800
v 5.1700 20.3800 -2.5800
v 10.1500 0.1100 -2.5800
v 5.1000 0.1400 -2.5800
v 0.1200 20.4000 -2.5800
v 0.0600 0.1600 -2.5800
v 10.2100 20.3500 -2.5800
v 5.1700 20.3800 -2.5800
v 10.1500 0.1100 -2.5800
v 5.1000 0.1400 -2.5800
v 0.1200 20.4000 -2.5800
v 0.0600 0.1600 -2.5800
v 9.0000 8.8400 -2.5800
v 1.4200 8.9600 -2.5800
v 8.9600 1.3000 -2.5800
v 1.3800 1.4300 -2.5800
v 1.3300 8.9100 -2.5800
v 1.2500 1.6900 -2.5800
v 9.0000 8.7700 -2.5800
v 8.9200 1.5400 -2.5800
v 10.2400 0.0000 -2.5800
v 10.2400 10.2400 -2.5800
v 0.0000 0.0000 -2.5800
v 0.0000 10.2400 -2.5800
v -28.0000 0.0000 17.9200
v -33.2800 0.0000 18.5500
v -28.1600 2.5600 15.3600
v -7.5200 0.0000 0.6400
v -7.5200 0.0000 0.6400
v -7.5200 0.0000 0.6400
v 15.3600 5.1600 0.0600
v -7.5200 0.0000 0.0000
v -33.2800 0.0000 18.5500
v -7.5200 0.0000 0.0000
v -33.2800 0.0000 18.2300
v -28.0800 20.4800 0.0900
v 15.3600 5.1600 0.0600
v -7.5200 0.0000 0.0000
v -33.2800 0.0000 18.5500
v -7.5200 0.0000 0.0000
v -33.2800 0.0000 18.5500
v -28.0800 20.4800 0.0100
v -7.5200 0.0000 0.6400
v -7.5200 0.0000 0.6400
v 15.3600 5.1600 0.0400
vt 0.0000 0.0000
vt -0.0342 0.0732
vt 0.0000 -0.0244
vt -0.0342 -0.0244
vt -0.0684 0.0732
vt -0.0684 -0.0244
vt -0.0684 0.0732
vt -0.0342 0.0732
vt -0.0684 -0.0244
vt -0.0342 -0.0244
vt 0.0000 0.0732
vt 0.0000 -0.0244
vt -0.0342 0.0732
vt 0.0000 0.0732
vt -0.0684 0.0732
vt -0.0342 0.0732
vt -0.0684 -0.0244
vt -0.0342 -0.0244
vt -0.0342 -0.0244
vt 0.0000 -0.0244
vt -0.0342 -0.0254
vt -0.0039 -0.0547
vt -0.0645 -0.0547
vt -0.0342 -0.0840
vt -0.0195 -0.0459
vt -0.0342 -0.0840
vt -0.0039 -0.0547
vt -0.0342 -0.0576
vt -0.0342 -0.0303
vt -0.0342 -0.0254
vt -0.0498 -0.0459
vt -0.0645 -0.0547
vt -0.0342 0.0088
vt -0.0342 0.0088
vt 0.0342 -0.0254
vt 0.0645 -0.0547
vt 0.0039 -0.0547
vt 0.0342 -0.0840
vt 0.0488 -0.0459
vt 0.0342 -0.0840
vt 0.0645 -0.0547
vt 0.0342 -0.0576
vt 0.0342 -0.0303
vt 0.0342 -0.0254
vt 0.0195 -0.0459
vt 0.0039 -0.0547
vt 0.0342 0.0088
vt 0.0342 0.0088
vt 0.0684 0.0732
vt 0.0342 0.0732
vt 0.0684 -0.0244
vt 0.0342 -0.0244
vt 0.0000 0.0732
vt 0.0000 -0.0244
vt 0.0000 0.0732
vt 0.0342 0.0732
vt 0.0000 -0.0244
vt 0.0342 -0.0244
vt 0.0684 0.0732
vt 0.0684 -0.0244
vt 0.0342 0.0732
vt 0.0684 0.0732
vt 0.0000 0.0732
vt 0.0342 0.0732
vt 0.0000 -0.0244
vt 0.0342 -0.0244
vt 0.0342 -0.0244
vt 0.0684 -0.0244
vt -0.0469 0.0732
vt -0.0469 0.1143
vt 0.0469 0.0732
vt 0.0469 0.1143
vt 0.0000 1.1562
vt -6.5000 0.0000
vt -6.2500 0.0000
vt -6.5000 0.0000
vt -4.0000 0.0000
vt -4.0000 0.0000
vt -4.0000 0.0000
vt -6.2500 0.0000
vt -6.5000 0.0000
vt -6.2500 0.0000
vt -6.5000 0.0000
vt -6.2500 0.0000
vt -3.5000 8.0020
vt -6.2500 0.0000
vt -6.5000 0.0000
vt -6.2500 0.0000
vt -6.5000 0.0000
vt -6.2500 0.0000
vt -3.5000 8.0020
vt -4.0000 0.0000
vt -4.0000 0.0000
vt -8.2500 0.0000
f 1/1 2/2 3/3
f 4/4 3/3 2/2
f 1/1 2/2 3/3
f 4/4 3/3 2/2
f 1/1 2/2 3/3
f 3/3 2/2 4/4
