mtllib assets09_model_095.mtl
# Conker's Bad Fur Day — Real 3D Model (Multiplayer Level Models)
o assets09_model_095
usemtl assets09_model_095_mat

v 0.0000 15.6000 0.0000
v 0.8300 0.0000 -0.0100
v 4.5500 0.0000 -0.0100
v 0.8700 2.5600 -0.0100
v 4.5900 2.5600 -0.0100
v 0.9100 5.1200 -0.0100
v 4.6300 5.1200 -0.0100
v 0.8700 2.5600 -0.0100
v 4.5900 2.5600 -0.0100
v 5.1200 0.0000 -0.0100
v 5.1200 5.1200 -0.0100
v 0.0000 0.0000 -0.0100
v 0.0000 5.1200 -0.0100
v 1.0600 1.0100 -0.0100
v 1.0100 3.4500 -0.0100
v 5.1100 3.3000 -0.0100
v 1.0100 3.4500 -0.0100
v 1.0600 1.0100 -0.0100
v 5.1400 2.7000 -0.0100
v 5.1300 1.3100 -0.0100
v 5.1500 4.1000 -0.0100
v 5.1400 2.7000 -0.0100
v 5.4300 7.3800 -0.0100
v 0.4300 3.5500 -0.0100
v -0.1200 7.8200 -0.0100
v 8.8100 2.8700 -0.0100
v -0.1200 7.8200 -0.0100
v 0.4300 3.5500 -0.0100
v 5.4300 7.3800 -0.0100
v 8.8100 2.8700 -0.0100
v 0.0000 7.6800 -0.0100
v 5.1200 7.6800 -0.0100
v 0.0000 2.5600 -0.0100
v 5.1200 2.5600 -0.0100
v 0.0000 0.0000 -0.0100
v 5.1200 0.0000 -0.0100
v 5.1200 2.5600 -0.0100
v 0.0000 2.5600 -0.0100
v 5.1200 7.6800 -0.0100
v 0.0000 7.6800 -0.0100
v 5.1200 10.2400 -0.0100
v 0.0000 10.2400 -0.0100
v 10.0600 3.4200 -0.0100
v 7.8100 7.6400 -0.0100
v 1.6700 3.4800 -0.0100
v 0.7100 7.7100 -0.0100
v 10.0600 3.4200 -0.0100
v 1.6700 3.4800 -0.0100
v 7.8100 7.6400 -0.0100
v 0.7100 7.7100 -0.0100
v 0.0000 8.2500 -0.0100
v 0.0100 1.5500 -0.0100
v 10.8000 7.6700 -0.0100
v 8.6200 5.2900 -0.0100
v 0.4000 3.2400 -0.0100
v 13.6500 5.4900 -0.0100
v -0.0200 4.6700 -0.0100
v 13.2300 6.9200 -0.0100
v 8.6200 5.2900 -0.0100
v 0.0100 1.5500 -0.0100
v 10.8000 7.6700 -0.0100
v 0.0000 8.2500 -0.0100
v 4.8700 2.5600 -0.0100
v 1.0600 2.5600 -0.0100
v 1.0700 5.1200 -0.0100
v 4.8800 5.1200 -0.0100
v 1.0600 2.5600 -0.0100
v 4.8700 2.5600 -0.0100
v 4.8600 0.0000 -0.0100
v 10.7100 4.4100 -0.0100
v 20.1400 4.3700 -0.0100
v 10.6600 8.6800 -0.0100
v 20.0900 8.6400 -0.0100
v 10.6600 8.6800 -0.0100
v 20.0900 8.6400 -0.0100
v 10.7100 4.4100 -0.0100
v 20.1400 4.3700 -0.0100
v -28.0000 0.0000 17.9200
v -33.2800 0.0000 17.9900
v -28.1600 2.5600 15.3600
v -7.5200 0.0000 0.6400
v 15.4800 0.0800 0.0000
v -7.5200 0.0000 0.0000
v -33.2800 0.0000 17.9900
v -7.5200 0.0000 0.0000
v -33.2800 0.0000 17.9900
v 15.3600 5.1600 0.0600
v -7.5200 0.0000 0.0000
v -33.2800 0.0000 18.5500
v 12.8200 25.6800 0.0000
v -7.5200 0.0000 0.0000
v -33.2800 0.0000 18.0700
v -28.0800 10.2400 0.0900
v -7.5200 0.0000 0.0000
v -33.2800 0.0000 18.2300
v -28.0800 20.4800 0.0100
v -7.5200 0.0000 0.0000
v -33.2800 0.0000 18.5500
v 15.4600 20.5200 0.0800
v 12.8200 0.2200 0.0000
v -7.5200 0.0000 0.0000
v -33.2800 0.0000 17.9900
v -28.0800 10.2400 0.0100
v 15.5200 35.8400 0.1400
v -7.5200 0.0000 0.0000
v -33.2800 0.0000 18.5500
v -7.4400 0.0000 0.0000
vt 0.0000 0.0000
vt 0.0098 -0.1006
vt 0.0029 -0.0889
vt 0.0029 -0.0977
vt 0.0098 -0.0859
vt 0.0098 -0.0947
vt 0.0156 -0.0889
vt 0.0156 -0.0977
vt 0.0098 -0.1006
vt 0.0156 -0.0977
vt 0.0029 -0.0977
vt 0.0098 -0.0947
vt 0.0117 -0.0957
vt 0.0098 -0.0889
vt 0.0098 -0.0908
vt 0.0098 -0.0889
vt 0.0068 -0.0957
vt 0.0059 -0.0889
vt 0.0107 -0.0117
vt 0.0098 -0.0869
vt 0.0127 -0.0889
vt 0.0107 -0.0117
vt 0.0137 -0.0293
vt 0.0098 -0.0195
vt 0.0137 -0.0215
vt 0.0098 -0.0195
vt 0.0049 -0.0293
vt 0.0098 -0.0156
vt 0.0049 -0.0215
vt 0.0303 -0.0361
vt 0.0303 -0.0459
vt 0.0303 -0.0479
vt 0.0303 -0.0586
vt 0.0098 -0.0547
vt 0.0098 -0.0645
vt -0.0117 -0.0586
vt -0.0117 -0.0479
vt -0.0117 -0.0459
vt -0.0117 -0.0361
vt 0.0098 -0.0400
vt 0.0098 -0.0303
vt 0.0303 -0.0586
vt 0.0098 -0.0635
vt 0.0049 -0.0811
vt 0.0098 -0.0713
vt 0.0137 -0.0703
vt 0.0137 -0.0811
vt 0.0098 -0.0635
vt 0.0098 -0.0713
vt 0.0049 0.0342
vt 0.0098 0.0195
vt 0.0049 -0.0215
vt 0.0098 -0.0156
vt 0.0049 0.0342
vt 0.0049 -0.0215
vt 0.0137 0.0342
vt 0.0137 -0.0215
vt 0.0098 -0.0156
vt 0.0098 0.0195
vt 0.0137 -0.0215
vt 0.0137 0.0342
vt 0.0029 -0.0703
vt 0.0029 -0.0469
vt 0.0098 -0.0732
vt 0.0098 -0.0674
vt 0.0156 -0.0469
vt 0.0156 -0.0703
vt 0.0098 -0.0732
vt 0.0029 0.0010
vt 0.0029 -0.0508
vt 0.0029 0.0039
vt 0.0029 -0.0430
vt 0.0156 0.0039
vt 0.0156 -0.0430
vt 0.0156 0.0010
vt 0.0156 -0.0508
vt 0.0098 -0.0342
vt -6.5000 0.0000
vt -6.2500 0.0000
vt -6.5000 0.0000
vt -4.0000 0.0000
vt -6.2500 0.0000
vt -6.5000 0.0000
vt -6.2500 0.0000
vt -6.5000 0.0000
vt -6.2500 0.0000
vt 1.2578 0.0039
vt -6.5000 0.0000
vt -6.2500 0.0000
vt -6.2500 0.0000
vt -6.5000 0.0000
vt -6.2500 0.0000
vt -3.5000 8.0020
vt -6.5000 0.0000
vt -6.2500 0.0000
vt -3.5000 8.0020
vt -6.5000 0.0000
vt -6.2500 0.0000
vt 1.2598 1.0137
vt -6.2500 0.0000
vt -6.5000 0.0000
vt -6.2500 0.0000
vt -3.5000 8.0020
vt -6.2500 0.0000
vt -6.5000 0.0000
vt -6.2500 0.0000
vt -2.7266 0.0000
f 43/43 2/2 19/19
f 22/22 2/2 91/91
f 7/7 1/1 5/5
f 1/1 3/3 5/5
f 9/9 10/10 11/11
f 10/10 12/12 11/11
f 1/1 2/2 3/3
f 4/4 5/5 3/3
f 5/5 1/1 3/3
f 2/2 4/4 6/6
f 4/4 8/8 6/6
f 2/2 6/6 5/5
f 6/6 5/5 3/3
f 5/5 1/1 3/3
f 6/6 3/3 8/8
f 9/9 10/10 11/11
f 10/10 12/12 11/11
f 2/2 1/1 12/12
f 9/9 8/8 1/1
f 8/8 6/6 1/1
f 1/1 2/2 3/3
f 3/3 2/2 4/4
