mtllib assets09_model_069.mtl
# Conker's Bad Fur Day — Real 3D Model (Multiplayer Level Models)
o assets09_model_069
usemtl assets09_model_069_mat

v 0.0000 3.7600 0.0000
v 34.6100 9.5100 -2.5800
v 34.6100 4.8800 -2.5800
v 5.5900 5.2300 -2.5800
v 5.5900 9.8500 -2.5800
v 34.6100 0.2500 -2.5800
v 5.5900 0.6000 -2.5800
v 34.6100 4.8800 -2.5800
v 5.5900 5.2300 -2.5800
v -0.1900 5.0500 -2.5800
v 17.6300 5.1800 -2.5800
v 17.6500 8.6600 -2.5800
v 17.6100 1.6900 -2.5800
v -0.1900 5.0500 -2.5800
v 17.6300 5.1800 -2.5800
v 20.3700 5.2000 -2.5800
v 20.3900 9.7900 -2.5800
v 20.3500 0.6100 -2.5800
v 20.3700 5.2000 -2.5800
v 0.2700 3.0800 -2.5800
v 4.0300 1.0400 -2.5800
v 3.9500 4.6500 -2.5800
v 7.7100 2.6200 -2.5800
v -28.0000 0.0000 17.9200
v -33.2800 0.0000 18.5500
v -28.1600 2.5600 15.3600
v -7.5200 0.0000 0.6400
v 15.4000 25.6600 0.1000
v -7.5200 0.0000 0.0000
v -33.2800 0.0000 18.5500
vt 0.0000 0.0000
vt -0.0391 0.0068
vt -0.0596 0.0107
vt -0.0635 0.0068
vt -0.0400 0.0107
vt -0.0615 0.0156
vt -0.0430 0.0078
vt -0.0654 0.0117
vt 0.0137 -0.0029
vt -0.0303 0.0059
vt -0.0342 0.0010
vt -0.0332 0.0107
vt 0.0137 -0.0029
vt -0.0371 0.0068
vt -0.0371 0.0068
vt -0.0420 0.0010
vt -0.0400 0.0137
vt -0.0449 0.0078
vt -0.0371 0.0068
vt -0.0400 0.0137
vt -0.0420 0.0010
vt -0.0449 0.0078
vt 0.0000 0.3750
vt -6.5000 0.0000
vt -6.2500 0.0000
vt -6.5000 0.0000
vt -4.0000 0.0000
vt -6.2500 0.0000
vt -6.5000 0.0000
vt -6.2500 0.0000
f 3/3 6/6 4/4
f 6/6 8/8 4/4
f 11/11 12/12 13/13
f 12/12 14/14 13/13
