# Conker's Bad Fur Day — Real 3D Model (Multiplayer Level Models)
o assets09_model_067

v 0.0000 21.6800 0.0000
v 4.3100 3.1600 -2.5800
v 1.0900 3.1500 -2.5800
v 1.0700 5.0200 -2.5800
v 4.3000 5.0300 -2.5800
v 1.0900 3.1500 -2.5800
v 4.3100 3.1600 -2.5800
v 4.9100 1.3100 -2.5800
v 0.5300 1.3200 -2.5800
v 4.9100 1.3100 -2.5800
v 0.5300 1.3200 -2.5800
v 4.9000 3.8000 -2.5800
v 0.5200 3.8100 -2.5800
v 4.8900 5.0500 -2.5800
v 0.5100 5.0500 -2.5800
v 4.9000 3.8000 -2.5800
v 0.5200 3.8100 -2.5800
v 5.1900 -0.7700 -2.5800
v 10.1900 2.2200 -2.5800
v 0.0700 2.0800 -2.5800
v 10.0600 8.0600 -2.5800
v 4.9500 10.9100 -2.5800
v -0.0500 7.9200 -2.5800
v 0.2500 2.5800 -2.5800
v 0.2500 5.0600 -2.5800
v 0.2500 2.5800 -2.5800
v 3.7100 4.0700 -2.5800
v 3.7500 2.6400 -2.5800
v 3.7500 2.6400 -2.5800
v 3.7800 1.2000 -2.5800
v 9.8300 4.5400 -2.5800
v 8.8500 4.8300 -2.5800
v 8.7000 3.4100 -2.5800
v 6.9300 3.2400 -2.5800
v 7.1800 4.0900 -2.5800
v 5.1700 4.3800 -2.5800
v 5.5200 5.1200 -2.5800
v 9.1400 5.2200 -2.5800
v 8.8800 6.7100 -2.5800
v 8.8600 7.3100 -2.5800
v 7.2300 7.8000 -2.5800
v 7.2100 8.6000 -2.5800
v 5.2300 8.7100 -2.5800
v 5.5500 6.9500 -2.5800
v 5.2400 8.9100 -2.5800
v 9.7900 2.5700 -2.5800
v 4.0300 1.3100 -2.5800
v 5.1200 0.5900 -2.5800
v 6.2200 1.3400 -2.5800
v 4.8400 5.1100 -2.5800
v 4.8700 6.9500 -2.5800
v 2.5200 1.1700 -2.5800
v 0.5000 2.4500 -2.5800
v 1.6200 3.3200 -2.5800
v 3.3800 3.1900 -2.5800
v 0.5100 4.4200 -2.5800
v 1.5000 4.7300 -2.5800
v 3.1600 4.0400 -2.5800
v 1.2300 5.1200 -2.5800
v 1.5300 6.6100 -2.5800
v 1.5600 7.2200 -2.5800
v 3.2100 7.7500 -2.5800
v 3.2500 8.5500 -2.5800
v 1.5600 7.2200 -2.5800
v 3.2100 7.7500 -2.5800
v 4.8700 6.9500 -2.5800
v 5.2300 8.7100 -2.5800
v 5.2400 8.9100 -2.5800
v 6.2200 1.3400 -2.5800
v 5.1200 0.5900 -2.5800
v 7.7300 1.2300 -2.5800
v 9.7900 2.5700 -2.5800
v 6.9300 3.2400 -2.5800
v 8.7000 3.4100 -2.5800
v 7.1800 4.0900 -2.5800
v 8.8500 4.8300 -2.5800
v 0.2300 3.8100 -2.5800
v 4.5000 3.8400 -2.5800
v 4.9000 5.0400 -2.5800
v 0.1500 1.3400 -2.5800
v 3.0400 0.0800 -2.5800
v 4.7300 0.1000 -2.5800
v 4.4100 1.3700 -2.5800
v 2.2600 5.0200 -2.5800
v 3.0300 3.7500 -2.5800
v 5.2200 3.7700 -2.5800
v 5.1300 1.3000 -2.5800
v 3.8200 1.2800 -2.5800
v 0.2200 2.2600 -2.5800
v 0.2800 7.9900 -2.5800
v 9.9800 2.4100 -2.5800
v 5.1900 10.9400 -2.5800
v 10.0400 8.1500 -2.5800
v 5.0700 -0.5300 -2.5800
v 0.0000 0.0000 -2.5800
v 0.0000 0.0000 -2.5800
v 0.0000 0.0000 -2.5800
v 0.0000 0.0000 -2.5800
v 0.0000 0.0000 -2.5800
v 0.0000 0.0000 -2.5800
v 4.9000 5.0400 -2.5800
v 4.5000 3.8400 -2.5800
v 0.2300 3.8100 -2.5800
v 4.7300 0.1000 -2.5800
v 3.0400 0.0800 -2.5800
v 0.1500 1.3400 -2.5800
v 4.4100 1.3700 -2.5800
v 3.0300 3.7500 -2.5800
v 2.2600 5.0200 -2.5800
v 5.2200 3.7700 -2.5800
v 5.1300 1.3000 -2.5800
v 3.8200 1.2800 -2.5800
v 9.9800 2.4100 -2.5800
v 0.2800 7.9900 -2.5800
v 0.2200 2.2600 -2.5800
v 10.0400 8.1500 -2.5800
v 5.1900 10.9400 -2.5800
v 5.0700 -0.5300 -2.5800
v 0.0000 0.0000 -2.5800
v 0.0000 0.0000 -2.5800
v 0.0000 0.0000 -2.5800
v 0.0000 0.0000 -2.5800
v 0.0000 0.0000 -2.5800
v 0.0000 0.0000 -2.5800
v -28.0000 0.0000 17.9200
v -33.2800 0.0000 17.9900
v -28.1600 2.5600 15.3600
v -7.5200 0.0000 0.6400
v -7.5200 0.0000 0.0000
v -33.2800 0.0000 18.2300
v -28.0800 20.4800 0.0900
v -7.5200 0.0000 0.6400
v -7.5200 0.0000 0.0000
v -33.2800 0.0000 18.2300
v -28.0800 20.4800 0.0100
v 2.5800 0.6400 2.5600
v -7.5200 0.0000 0.6400
v -27.9200 0.0000 17.9200
v -33.2800 0.0000 18.5500
v -7.4400 0.0000 0.0000
v -33.2800 0.0000 18.0700
v -27.9200 20.4800 0.0100
v -28.0000 0.0000 17.9200
v -33.2800 0.0000 17.9900
v -28.0800 10.2400 0.0100
v -7.4400 0.0000 0.0000
vt 0.0000 0.0000
vt -0.0156 -0.0420
vt -0.0234 -0.0508
vt -0.0273 -0.0508
vt -0.0195 -0.0654
vt -0.0117 -0.0596
vt -0.0391 -0.0664
vt -0.0352 -0.0508
vt -0.0391 -0.0352
vt -0.0244 -0.0352
vt -0.0469 -0.0352
vt -0.0322 -0.0352
vt -0.0498 -0.0508
vt -0.0361 -0.0508
vt -0.0469 -0.0664
vt -0.0322 -0.0664
vt -0.0352 -0.0508
vt -0.0391 -0.0664
vt -0.0391 -0.0352
vt -0.0469 -0.0664
vt -0.0498 -0.0508
vt -0.0469 -0.0352
vt -0.0254 -0.0508
vt -0.0176 -0.0508
vt -0.0293 -0.0586
vt -0.0244 -0.0508
vt -0.0215 -0.0586
vt -0.0215 -0.0430
vt -0.0176 -0.0508
vt 0.0059 -0.0889
vt -0.0029 -0.0811
vt -0.0127 -0.0801
vt -0.0195 -0.0654
vt -0.0137 -0.0674
vt -0.0234 -0.0508
vt -0.0195 -0.0537
vt 0.0059 -0.0830
vt -0.0029 -0.0811
vt 0.0068 -0.0811
vt -0.0117 -0.0674
vt 0.0078 -0.0674
vt -0.0039 -0.0508
vt -0.0176 -0.0537
vt 0.0107 -0.0508
vt 0.0068 -0.0889
vt -0.0117 -0.0420
vt 0.0098 -0.0508
vt -0.0117 -0.0596
vt -0.0195 -0.0479
vt -0.0176 -0.0479
vt 0.0068 -0.0293
vt 0.0068 -0.0137
vt -0.0127 -0.0225
vt -0.0195 -0.0361
vt 0.0059 -0.0127
vt -0.0029 -0.0215
vt -0.0137 -0.0342
vt 0.0059 -0.0186
vt -0.0029 -0.0215
vt 0.0068 -0.0215
vt -0.0117 -0.0342
vt 0.0078 -0.0352
vt 0.0068 -0.0215
vt -0.0117 -0.0342
vt -0.0176 -0.0479
vt -0.0039 -0.0508
vt 0.0107 -0.0508
vt -0.0117 -0.0596
vt 0.0098 -0.0508
vt 0.0068 -0.0723
vt 0.0068 -0.0889
vt -0.0195 -0.0654
vt -0.0127 -0.0801
vt -0.0137 -0.0674
vt -0.0029 -0.0811
vt -0.0029 -0.0215
vt -0.0127 -0.0195
vt -0.0176 -0.0332
vt -0.0029 -0.0215
vt -0.0137 -0.0342
vt -0.0176 -0.0332
vt -0.0127 -0.0195
vt -0.0117 -0.0342
vt -0.0176 -0.0479
vt -0.0225 -0.0469
vt -0.0225 -0.0469
vt -0.0195 -0.0479
vt -0.0225 -0.0469
vt -0.0225 -0.0469
vt -0.0127 -0.0195
vt -0.0176 -0.0332
vt -0.0127 -0.0195
vt -0.0176 -0.0332
vt -0.0127 -0.0195
vt -0.0176 -0.0332
vt -0.0225 -0.0469
vt -0.0225 -0.0469
vt -0.0127 -0.0195
vt -0.0176 -0.0332
vt -0.0176 -0.0693
vt -0.0127 -0.0820
vt -0.0029 -0.0811
vt -0.0176 -0.0693
vt -0.0137 -0.0674
vt -0.0029 -0.0811
vt -0.0127 -0.0820
vt -0.0176 -0.0537
vt -0.0117 -0.0674
vt -0.0225 -0.0557
vt -0.0225 -0.0557
vt -0.0195 -0.0537
vt -0.0127 -0.0820
vt -0.0225 -0.0557
vt -0.0225 -0.0557
vt -0.0127 -0.0820
vt -0.0176 -0.0693
vt -0.0176 -0.0693
vt -0.0225 -0.0557
vt -0.0176 -0.0693
vt -0.0127 -0.0820
vt -0.0225 -0.0557
vt -0.0127 -0.0820
vt -0.0176 -0.0693
vt 0.0000 2.1250
vt -6.5000 0.0000
vt -6.2500 0.0000
vt -6.5000 0.0000
vt -4.0000 0.0000
vt -6.5000 0.0000
vt -6.2500 0.0000
vt -3.5000 8.0020
vt -4.0000 0.0000
vt -6.5000 0.0000
vt -6.2500 0.0000
vt -3.5000 8.0020
vt 4.6406 -28.8701
vt -4.0000 0.0000
vt -6.5000 0.0000
vt -6.2500 0.0000
vt -6.5000 0.0000
vt -6.2500 0.0000
vt -3.5000 8.0020
vt -6.5000 0.0000
vt -6.2500 0.0000
vt -8.5000 0.0000
vt -2.7266 0.0000
f 5/5 3/3 10/10
f 9/9 10/10 11/11
f 10/10 12/12 11/11
f 13/13 12/12 14/14
f 94/94 76/76 94/94
