mtllib assets09_model_119.mtl
# Conker's Bad Fur Day — Real 3D Model (Multiplayer Level Models)
o assets09_model_119
usemtl assets09_model_119_mat

v 0.0000 4.0800 0.0000
v 1.3700 5.0500 -0.0100
v 0.0000 0.0000 -0.0100
v 10.2400 4.5500 -0.0100
v 10.2400 0.0000 -0.0100
v 19.1100 5.0500 -0.0100
v 20.4800 0.0000 -0.0100
v 5.1200 8.8100 -0.0100
v 10.2400 8.5300 -0.0100
v 15.3600 8.8100 -0.0100
v 10.2400 10.2900 -0.0100
v 0.0000 0.0000 -0.0100
v 5.4600 10.2400 -0.0100
v -0.4900 10.2200 -0.0100
v 5.1200 0.0000 -0.0100
v 0.0000 0.0000 -0.0100
v 6.0800 10.2200 -0.0100
v -0.8400 10.3900 -0.0100
v 5.1200 0.0000 -0.0100
v -28.0000 0.0000 17.9200
v -33.2800 0.0000 18.5500
v -28.1600 2.5600 15.3600
v -7.5200 0.0000 0.6400
v -7.4400 0.0000 0.0000
v 15.3600 5.1600 0.0000
vt 0.0000 0.0000
vt -0.0479 0.0371
vt 0.0000 0.0664
vt 0.0000 0.0410
vt 0.0420 0.0625
vt 0.0479 0.0361
vt -0.0146 0.0771
vt 0.0000 0.0830
vt 0.0244 0.0811
vt 0.0000 0.0869
vt 0.0244 0.0771
vt 0.0752 0.0918
vt 0.0596 0.1104
vt 0.0410 0.0645
vt -0.0391 0.0645
vt -0.0557 0.1133
vt -0.0732 0.0938
vt -0.0244 0.0771
vt 0.0000 0.4062
vt -6.5000 0.0000
vt -6.2500 0.0000
vt -6.5000 0.0000
vt -4.0000 0.0000
vt -2.7266 0.0000
vt -8.9453 0.0137
f 15/15 12/12 16/16
f 1/1 2/2 3/3
f 1/1 4/4 2/2
f 1/1 2/2 3/3
f 1/1 4/4 2/2
