# Conker's Bad Fur Day — Real 3D Model (HUD & UI Props)
o assets01_model_033

v 4.4800 2.2600 -2.5800
v 2.4900 10.1600 -2.5800
v 2.9200 7.0000 -2.5800
v 6.3600 9.3700 -2.5800
v 9.1200 4.6400 -2.5800
v 0.8400 3.7200 -2.5800
v 9.8000 8.3500 -2.5800
v 3.8100 9.7100 -2.5800
v 6.4800 5.6700 -2.5800
v 1.6100 4.4800 -2.5800
v 9.5000 4.2300 -2.5800
v 4.8300 6.8700 -0.0100
v 5.1900 6.7800 -0.0100
v 5.7700 6.0100 -0.0100
v 5.3300 6.7100 -0.0100
v 4.8300 6.8700 -0.0100
v 8.7200 8.0500 -0.0100
v 9.0700 9.6500 -0.0100
v 12.6400 11.0300 0.0000
v 6.5100 6.7800 -0.0100
v 9.5000 4.5800 -0.0100
v 4.5900 5.8600 -0.0100
v 8.3200 7.0500 -0.0100
v 10.8100 6.0400 -0.0100
v 12.5400 8.7600 -0.0100
v 10.7600 2.9600 -0.0100
v 14.7700 2.6400 -0.0100
v 13.4700 3.2700 -0.0100
v 16.7900 3.0600 -0.0100
v 15.1200 5.9300 -0.0100
v 10.0300 2.7200 -0.0100
v 10.0300 2.7200 -0.0100
v 5.7700 6.0100 -0.0100
v 4.8300 6.8700 -0.0100
v 5.1900 6.7800 -0.0100
v 5.3300 6.7100 -0.0100
v 8.7200 8.0500 -0.0100
v 9.0700 9.6500 -0.0100
v 12.6400 11.0300 0.0000
v 6.5100 6.7800 -0.0100
v 9.5000 4.5800 -0.0100
v 8.3200 7.0500 -0.0100
v 10.8100 6.0400 -0.0100
v 12.5400 8.7600 -0.0100
v 15.1200 5.9300 -0.0100
v 10.7600 2.9600 -0.0100
v 13.4700 3.2700 -0.0100
v 14.7700 2.6400 -0.0100
v 16.7900 3.0600 -0.0100
v 10.0300 2.7200 -0.0100
v 5.7700 6.0100 -0.0100
v 5.7700 6.0100 -0.0100
v 8.7200 8.0500 -0.0100
v 12.5400 8.7600 -0.0100
v 10.8100 6.0400 -0.0100
v 15.1200 5.9300 -0.0100
v 12.5400 8.7600 -0.0100
v 10.8100 6.0400 -0.0100
v 16.7900 3.0600 -0.0100
v 15.1200 5.9300 -0.0100
v 16.7900 3.0600 -0.0100
v 13.4700 3.2700 -0.0100
v 4.5900 5.8600 -0.0100
v 4.8700 0.3400 -0.0100
v 2.2900 2.9700 -0.0100
v 0.9200 3.1200 -0.0100
v 3.0400 4.4300 -0.0100
v 1.6000 4.6000 -0.0100
v 5.9300 2.8000 -0.0100
v 2.2900 2.9700 -0.0100
v 3.0400 4.4300 -0.0100
v 5.9300 2.8000 -0.0100
v 8.4700 0.4900 -0.0100
v 7.3800 0.2100 -0.0100
v 7.3400 1.3700 -0.0100
v 8.0100 2.6400 -0.0100
v 7.3800 0.2100 -0.0100
v 7.3400 1.3700 -0.0100
v 8.0100 2.6400 -0.0100
v 10.0300 2.7200 -0.0100
v 10.0300 2.7200 -0.0100
v 9.5000 4.5800 -0.0100
v 9.5000 4.5800 -0.0100
v 16.9900 0.4700 -0.0100
v 0.4900 -1.4700 -0.0100
v 2.4300 5.4000 -0.0100
v -1.4300 -1.9900 -0.0100
v -1.2000 -1.9200 -0.0100
v 9.2900 0.8700 -0.0100
v 9.6200 0.9600 -0.0100
v -1.4300 -1.9900 0.0000
v 9.6200 0.9600 0.0000
v 0.4900 -1.4700 0.0000
v 9.2900 0.8700 0.0000
v -1.2000 -1.9200 0.0000
v 20.2400 1.9100 -0.0100
v 18.9800 0.1900 -0.0100
v 19.5200 1.8900 -0.0100
v 19.2400 0.2100 -0.0100
v 7.6200 4.4700 -0.0100
v 8.2900 4.8400 -0.0100
v 16.8100 2.4700 -0.0100
v 18.2800 1.7300 -0.0100
v 15.4400 3.7700 -0.0100
v 18.8800 2.5900 -0.0100
v 17.6800 3.9400 -0.0100
v 18.4800 2.5800 -0.0100
v 19.7700 4.4800 -0.0100
v 18.1900 3.0600 -0.0100
v 18.1600 6.2700 -0.0100
v 15.4500 6.0200 -0.0100
v 17.7900 5.6200 -0.0100
v -1.2600 3.4800 0.0000
v 2.5100 6.9600 0.0000
v 0.6800 5.6300 0.0000
v 2.8800 4.3300 0.0000
v 1.0400 3.1100 0.0000
v 3.2600 1.6900 0.0000
v 1.0400 3.1300 0.0000
v 2.8800 4.3300 0.0000
v 9.1100 5.4100 -2.5800
v 4.6500 4.5400 0.0000
v 7.2300 4.1500 -2.5800
v 5.7600 3.8200 -2.5800
v 4.1900 4.2300 -2.5800
v 6.5400 1.0200 -0.0100
v 5.2300 0.5000 -0.0100
v 8.3200 0.3400 -0.0100
v 8.3300 0.0900 -0.0100
v 10.3700 -0.0300 -0.0100
v 6.6300 4.0400 -0.0100
v -0.2400 -0.2700 -0.0100
v 6.3100 -0.2000 -0.0100
v 2.1700 4.9300 -0.0100
v 1.4000 -0.2500 -0.0100
v 6.3100 -0.2000 -0.0100
v 9.5200 1.9700 -0.0100
v 9.3400 -0.1700 -0.0100
v 6.5900 2.6100 -0.0100
v -0.2400 -0.2700 -0.0100
v 6.3100 -0.2000 0.0000
v 1.4000 -0.2500 0.0000
v -0.2400 -0.2700 0.0000
v 7.7100 1.4800 -0.0100
v 8.6700 1.2800 -0.0100
v 8.3500 0.6800 -0.0100
v 10.0300 1.0500 -0.0100
v 5.0700 2.4200 -0.0100
v 8.8800 1.8900 -0.0100
v 7.1400 3.6600 -0.0100
v 10.5500 1.7200 -0.0100
v 10.5100 3.2800 -0.0100
v 6.6100 5.3300 -0.0100
v 4.2400 4.3900 -0.0100
v 9.1500 0.9700 0.0000
v 9.4200 5.0200 -0.0100
v 1.4000 -0.2500 0.0000
v 6.3100 -0.2000 0.0000
v -0.2400 -0.2700 0.0000
v 6.3100 -0.2000 0.0000
v 9.3400 -0.1700 0.0000
v -0.2400 -0.2700 -0.0100
v 1.4000 -0.2500 -0.0100
v 2.1700 4.9300 -0.0100
v 1.6500 3.7200 -0.0100
v 2.2100 4.7600 -0.0100
v 0.5800 3.4700 -0.0100
v 8.4000 9.0000 -0.0100
v 9.8600 9.6400 -0.0100
v 9.4200 5.0200 -0.0100
v 3.8700 6.9800 -0.0100
v 6.6100 5.3300 -0.0100
v 4.2400 4.3900 -0.0100
v 5.9900 10.0600 -0.0100
v 3.3600 8.7700 -0.0100
v 9.1500 0.9700 0.0000
v 2.8000 3.0100 -0.0100
v 8.4000 9.0000 -0.0100
v 15.4400 3.7700 -0.0100
v 19.7700 4.4800 -0.0100
v 18.2200 2.4400 0.0000
v 14.3400 7.3000 -0.0100
v 17.1000 7.4800 -0.0100
v 18.1600 6.2700 -0.0100
v 15.4500 6.0200 -0.0100
v 19.1600 6.9000 -0.0100
v 20.3200 4.7000 -0.0100
v 12.7000 6.2100 -0.0100
v 13.7900 2.5000 -0.0100
v 13.1500 3.5900 -0.0100
v 5.5300 1.4100 0.0000
v 10.1100 1.1200 0.0000
v 13.1500 3.5900 -0.0100
v 2.2100 4.7600 -0.0100
v 1.6500 3.7200 -0.0100
v 0.5800 3.4700 -0.0100
v 8.4000 9.0000 -0.0100
v 9.4200 5.0200 -0.0100
v 3.8700 6.9800 -0.0100
v 4.2400 4.3900 -0.0100
v 6.6100 5.3300 -0.0100
v 5.9900 10.0600 -0.0100
v 3.3600 8.7700 -0.0100
v 9.8600 9.6400 -0.0100
v 9.1500 0.9700 0.0000
v 2.8000 3.0100 -0.0100
v 19.7700 4.4800 -0.0100
v 15.4400 3.7700 -0.0100
v 17.1000 7.4800 -0.0100
v 15.4500 6.0200 -0.0100
v 18.1600 6.2700 -0.0100
v 18.2200 2.4400 0.0000
v 19.1600 6.9000 -0.0100
v 20.3200 4.7000 -0.0100
v 14.3400 7.3000 -0.0100
v 15.4500 6.0200 -0.0100
v 12.7000 6.2100 -0.0100
v 12.7000 6.2100 -0.0100
v 13.1500 3.5900 -0.0100
v 5.5300 1.4100 0.0000
v 10.1100 1.1200 0.0000
v 13.7900 2.5000 -0.0100
v 16.9900 0.4700 -0.0100
v -1.4300 -1.9900 -0.0100
v 2.4300 5.4000 -0.0100
v 0.4900 -1.4700 -0.0100
v -1.2000 -1.9200 -0.0100
v 9.2900 0.8700 -0.0100
v 9.6200 0.9600 -0.0100
v 0.4900 -1.4700 0.0000
v 9.6200 0.9600 0.0000
v -1.4300 -1.9900 0.0000
v 9.2900 0.8700 0.0000
v -1.2000 -1.9200 0.0000
v 20.2400 1.9100 -0.0100
v 18.9800 0.1900 -0.0100
v 19.5200 1.8900 -0.0100
v 19.2400 0.2100 -0.0100
v 7.6200 4.4700 -0.0100
v 8.2900 4.8400 -0.0100
v 16.8100 2.4700 -0.0100
v 18.2800 1.7300 -0.0100
v 15.4400 3.7700 -0.0100
v 18.8800 2.5900 -0.0100
v 18.4800 2.5800 -0.0100
v 17.6800 3.9400 -0.0100
v 19.7700 4.4800 -0.0100
v 18.1900 3.0600 -0.0100
v 17.7900 5.6200 -0.0100
v 15.4500 6.0200 -0.0100
v 18.1600 6.2700 -0.0100
v 6.5400 1.0200 -0.0100
v 8.3200 0.3400 -0.0100
v 5.2300 0.5000 -0.0100
v 8.3300 0.0900 -0.0100
v 10.3700 -0.0300 -0.0100
v 6.3100 -0.2000 -0.0100
v -0.2400 -0.2700 -0.0100
v 6.6300 4.0400 -0.0100
v 2.1700 4.9300 -0.0100
v 1.4000 -0.2500 -0.0100
v 9.3400 -0.1700 -0.0100
v 9.5200 1.9700 -0.0100
v 6.3100 -0.2000 -0.0100
v 6.5900 2.6100 -0.0100
v -0.2400 -0.2700 -0.0100
v -0.2400 -0.2700 0.0000
v 1.4000 -0.2500 0.0000
v 6.3100 -0.2000 0.0000
v 7.7100 1.4800 -0.0100
v 8.6700 1.2800 -0.0100
v 8.3500 0.6800 -0.0100
v 10.0300 1.0500 -0.0100
v 7.1400 3.6600 -0.0100
v 8.8800 1.8900 -0.0100
v 5.0700 2.4200 -0.0100
v 10.5500 1.7200 -0.0100
v 10.5100 3.2800 -0.0100
v 4.2400 4.3900 -0.0100
v 6.6100 5.3300 -0.0100
v 9.1500 0.9700 0.0000
v 9.4200 5.0200 -0.0100
v -0.2400 -0.2700 0.0000
v 6.3100 -0.2000 0.0000
v 1.4000 -0.2500 0.0000
v 6.3100 -0.2000 0.0000
v 9.3400 -0.1700 0.0000
v 2.1700 4.9300 -0.0100
v 1.4000 -0.2500 -0.0100
v -0.2400 -0.2700 -0.0100
v -0.3800 4.8500 -2.5800
v 10.4500 4.4200 -2.5800
v 0.1100 2.4000 -0.0100
v 9.8800 2.0200 -0.0100
v -0.1900 2.1600 -0.0100
v 5.4400 2.9200 -0.0100
v 6.0000 4.0800 -2.5800
v 0.2700 3.8300 -2.5800
v 8.8700 5.0100 -0.0100
v 9.3500 5.7300 -2.5800
v 9.2700 9.9800 -0.0100
v 0.6200 2.3300 -0.0100
v 5.5500 2.8000 -0.0100
v 6.1800 4.0600 -2.5800
v 1.2100 4.1600 -2.5800
v 8.7600 4.9400 -0.0100
v 9.2700 5.7200 -2.5800
v 9.7400 10.4600 -0.0100
v 0.0000 12.2900 0.6400
v 0.3200 0.3200 0.0000
v 0.0000 12.2800 0.0000
v 0.0000 12.2500 0.3200
v 0.3200 0.1600 0.0000
v 0.0000 12.2300 0.0000
v -28.0000 0.0000 17.9200
v -33.2800 0.0000 18.2300
v -28.1600 2.5600 15.3600
v -7.5200 0.0000 17.9200
v -7.5200 0.0000 15.3600
v -7.5200 0.0000 0.6400
v 15.6600 15.3600 0.0600
v -7.5200 0.0000 0.0000
v -33.2800 0.0000 18.0700
v -28.0800 20.4800 0.0900
v -7.6900 -3.6900 -27.9300
v -7.5200 0.0000 0.6400
v -7.5200 0.0000 0.6400
v -7.5200 0.0000 0.6400
v 12.8800 10.2600 0.0000
v -7.5200 0.0000 0.0000
v -33.2800 0.0000 18.5500
v 15.4600 36.0600 0.1400
v -7.5200 0.0000 0.0000
v -33.2800 0.0000 18.0700
v -28.0800 20.4800 0.0900
v -7.5200 0.0000 0.6400
v -7.5200 0.0000 0.0000
v -33.2800 0.0000 18.0700
v -28.0800 20.4800 0.0900
v -7.5200 0.0000 0.0000
v -33.2800 0.0000 18.5500
v 13.1800 31.0200 0.0000
v -7.5200 0.0000 0.0000
v -33.2800 0.0000 18.0700
v -28.0800 20.4800 0.0900
v -7.5200 0.0000 0.6400
v -7.5200 0.0000 0.0000
v -33.2800 0.0000 18.0700
v -28.0800 20.4800 0.0900
v -7.5200 0.0000 0.0000
v -33.2800 0.0000 18.0700
v 2.5800 0.6400 2.5600
v -7.5200 0.0000 0.0000
v -33.2800 0.0000 18.3400
v -28.0800 20.4800 0.0900
v -28.0800 11.5200 2.6500
v -28.0800 6.7200 5.2000
v -28.0800 6.8000 7.7600
v 1.4200 1.4100 1.3400
v -0.8100 -16.9800 4.0700
vt -0.0166 0.0068
vt -0.0146 0.0137
vt -0.0107 0.0176
vt -0.0068 0.0107
vt -0.0176 0.0098
vt 0.0137 0.0059
vt 0.0146 0.0186
vt 0.0137 0.0117
vt 0.0068 0.0107
vt 0.0176 0.0098
vt 0.0098 0.0137
vt 0.0166 0.0127
vt 0.0186 0.0059
vt 0.0000 0.0127
vt -0.0098 0.0137
vt 0.0000 -0.0127
vt 0.0098 -0.0029
vt 0.0283 -0.0391
vt 0.0264 0.0332
vt 0.0283 -0.0254
vt 0.0000 -0.0156
vt 0.0000 -0.0010
vt 0.0215 -0.0098
vt 0.0283 0.0186
vt 0.0000 0.0088
vt 0.0000 -0.0410
vt 0.0400 -0.0361
vt 0.0293 -0.0361
vt 0.0352 -0.0127
vt 0.0332 0.0225
vt -0.0195 -0.0439
vt -0.0186 0.0059
vt -0.0098 0.0137
vt -0.0166 0.0127
vt 0.0000 0.0127
vt 0.0000 -0.0127
vt -0.0098 -0.0029
vt -0.0205 -0.0381
vt 0.0000 0.0371
vt -0.0283 -0.0254
vt 0.0000 -0.0010
vt -0.0215 -0.0098
vt -0.0283 0.0186
vt -0.0508 -0.0078
vt 0.0000 0.0088
vt -0.0400 -0.0361
vt 0.0000 -0.0410
vt -0.0293 -0.0361
vt -0.0332 0.0225
vt 0.0186 0.0059
vt -0.0186 0.0059
vt 0.0186 0.0059
vt 0.0205 -0.0381
vt 0.0215 -0.0098
vt 0.0508 -0.0078
vt -0.0283 0.0186
vt -0.0215 -0.0098
vt -0.0293 -0.0361
vt -0.0508 -0.0078
vt -0.0352 -0.0127
vt 0.0400 -0.0361
vt 0.0000 -0.0156
vt 0.0000 -0.0156
vt -0.0273 0.0156
vt 0.0000 0.0166
vt -0.0234 0.0303
vt 0.0000 0.0312
vt -0.0205 0.0127
vt 0.0273 0.0156
vt 0.0234 0.0303
vt 0.0205 0.0127
vt 0.0322 -0.0078
vt -0.0195 -0.0322
vt -0.0312 -0.0205
vt -0.0322 -0.0078
vt 0.0195 -0.0322
vt 0.0303 -0.0205
vt 0.0322 -0.0078
vt 0.0283 -0.0254
vt 0.0195 -0.0439
vt 0.0283 -0.0254
vt -0.0283 -0.0254
vt 0.0010 0.0039
vt 0.0029 -0.0137
vt 0.0010 0.0039
vt -0.0225 -0.0137
vt 0.0234 -0.0137
vt 0.0186 -0.0137
vt -0.0195 -0.0137
vt -0.0225 -0.0137
vt -0.0195 -0.0137
vt 0.0029 -0.0137
vt 0.0186 -0.0137
vt 0.0234 -0.0137
vt -0.0117 0.0020
vt -0.0215 -0.0361
vt 0.0137 0.0010
vt 0.0156 -0.0352
vt -0.0215 -0.0361
vt 0.0156 -0.0352
vt -0.0068 -0.0020
vt 0.0020 -0.0176
vt -0.0059 -0.0283
vt -0.0068 -0.0547
vt 0.0186 -0.0254
vt 0.0137 -0.0547
vt -0.0059 -0.0137
vt 0.0078 -0.0508
vt 0.0322 0.0195
vt 0.0508 0.0137
vt 0.0537 0.0049
vt 0.0000 -0.0078
vt 0.0000 0.0195
vt 0.0000 0.0088
vt -0.0225 -0.0020
vt -0.0117 -0.0117
vt 0.0000 -0.0244
vt 0.0107 -0.0117
vt 0.0225 -0.0020
vt 0.0000 0.0078
vt -0.0088 -0.0088
vt 0.0000 0.0078
vt -0.0068 -0.0039
vt 0.0078 -0.0088
vt 0.0078 -0.0078
vt -0.0010 0.0010
vt 0.0186 -0.0020
vt -0.0215 -0.0078
vt -0.0010 -0.0107
vt 0.0186 -0.0020
vt 0.0303 -0.0186
vt 0.0312 -0.0186
vt -0.0010 0.0010
vt 0.0029 -0.0186
vt -0.0264 -0.0186
vt -0.0010 -0.0107
vt 0.0029 -0.0186
vt -0.0215 -0.0078
vt -0.0254 -0.0186
vt -0.0264 -0.0186
vt 0.0029 -0.0186
vt -0.0254 -0.0186
vt 0.0000 -0.0029
vt 0.0234 -0.0078
vt -0.0166 -0.0205
vt 0.0039 -0.0127
vt 0.0000 -0.0312
vt 0.0225 -0.0430
vt 0.0244 -0.0049
vt 0.0068 -0.0469
vt 0.0127 -0.0127
vt 0.1006 -0.0029
vt 0.0742 -0.0234
vt 0.0693 -0.0986
vt 0.1035 -0.0098
vt 0.0029 -0.0186
vt 0.0312 -0.0186
vt 0.0303 -0.0186
vt -0.0264 -0.0186
vt 0.0029 -0.0186
vt -0.0254 -0.0186
vt 0.0029 -0.0186
vt -0.0010 0.0010
vt 0.0000 0.0371
vt -0.0352 -0.0127
vt 0.0000 -0.0410
vt -0.0439 0.0771
vt 0.0000 0.0908
vt -0.1035 -0.0098
vt -0.0469 0.0332
vt -0.1006 -0.0029
vt -0.0742 -0.0234
vt 0.0000 0.1006
vt 0.0000 0.0723
vt -0.0693 -0.0986
vt 0.0000 -0.0537
vt 0.0439 0.0771
vt 0.0059 -0.0283
vt 0.0059 -0.0137
vt 0.0000 -0.0645
vt 0.0000 0.0420
vt 0.0000 0.0459
vt -0.0322 0.0195
vt -0.0508 0.0137
vt 0.0000 0.0332
vt 0.0000 -0.0146
vt -0.0547 0.0176
vt 0.0000 0.0635
vt -0.0498 0.0869
vt 0.0000 0.0400
vt 0.0000 0.0332
vt 0.0498 0.0869
vt 0.0000 0.0371
vt 0.0293 -0.0361
vt 0.0000 -0.0410
vt 0.0439 0.0771
vt 0.1035 -0.0098
vt 0.0469 0.0332
vt 0.0742 -0.0234
vt 0.1006 -0.0029
vt 0.0000 0.1006
vt 0.0000 0.0723
vt 0.0000 0.0908
vt 0.0693 -0.0986
vt 0.0000 -0.0537
vt -0.0059 -0.0137
vt -0.0059 -0.0283
vt 0.0000 0.0459
vt 0.0508 0.0137
vt 0.0322 0.0195
vt 0.0000 -0.0645
vt 0.0000 0.0332
vt 0.0000 -0.0146
vt 0.0000 0.0420
vt -0.0508 0.0137
vt 0.0547 0.0176
vt -0.0547 0.0176
vt 0.0498 0.0869
vt 0.0000 0.0400
vt 0.0000 0.0332
vt 0.0000 0.0635
vt -0.0010 0.0039
vt 0.0225 -0.0137
vt -0.0010 0.0039
vt -0.0029 -0.0137
vt -0.0234 -0.0137
vt -0.0186 -0.0137
vt 0.0195 -0.0137
vt -0.0029 -0.0137
vt 0.0195 -0.0137
vt 0.0225 -0.0137
vt -0.0186 -0.0137
vt -0.0234 -0.0137
vt 0.0117 0.0020
vt 0.0215 -0.0361
vt -0.0137 0.0010
vt -0.0156 -0.0352
vt 0.0215 -0.0361
vt -0.0156 -0.0352
vt 0.0068 -0.0020
vt -0.0020 -0.0176
vt 0.0059 -0.0283
vt 0.0068 -0.0547
vt -0.0137 -0.0547
vt -0.0186 -0.0254
vt 0.0059 -0.0137
vt -0.0078 -0.0508
vt -0.0537 0.0049
vt -0.0508 0.0137
vt -0.0322 0.0195
vt 0.0039 0.0127
vt -0.0186 -0.0020
vt 0.0010 0.0010
vt 0.0215 -0.0078
vt 0.0010 -0.0107
vt -0.0312 -0.0186
vt -0.0303 -0.0186
vt -0.0186 -0.0020
vt 0.0010 0.0010
vt -0.0029 -0.0186
vt -0.0029 -0.0186
vt 0.0010 -0.0107
vt 0.0264 -0.0186
vt 0.0215 -0.0078
vt 0.0254 -0.0186
vt 0.0254 -0.0186
vt -0.0029 -0.0186
vt 0.0264 -0.0186
vt 0.0000 -0.0029
vt -0.0234 -0.0078
vt 0.0166 -0.0205
vt -0.0039 -0.0127
vt -0.0244 -0.0049
vt -0.0225 -0.0430
vt 0.0000 -0.0312
vt -0.0068 -0.0469
vt -0.0127 -0.0127
vt -0.0742 -0.0234
vt -0.1006 -0.0029
vt -0.0693 -0.0986
vt -0.1035 -0.0098
vt -0.0303 -0.0186
vt -0.0312 -0.0186
vt -0.0029 -0.0186
vt 0.0264 -0.0186
vt -0.0029 -0.0186
vt 0.0010 0.0010
vt -0.0029 -0.0186
vt 0.0254 -0.0186
vt -0.0244 0.0508
vt 0.0244 0.0518
vt -0.0225 0.0381
vt 0.0225 0.0400
vt -0.0244 0.0264
vt -0.0605 0.0449
vt -0.0244 0.0264
vt -0.0244 0.0508
vt -0.0840 0.0586
vt -0.0918 0.0566
vt -0.0840 0.0928
vt 0.0225 0.0400
vt 0.0244 0.0264
vt 0.0684 0.0361
vt 0.0244 0.0518
vt 0.0840 0.0586
vt 0.0918 0.0566
vt 0.0840 0.0928
vt 0.0000 6.9375
vt 0.0000 1.1934
vt 0.0000 1.1953
vt 0.0312 0.0156
vt 0.0000 1.1982
vt 0.0000 1.1973
vt 0.0312 0.0312
vt -6.5000 0.0000
vt -6.2500 0.0000
vt -6.5000 0.0000
vt -4.0000 0.0000
vt -4.0000 0.0000
vt -4.0000 0.0000
vt -9.4453 0.0029
vt -6.5000 0.0000
vt -6.2500 0.0000
vt -3.5000 8.0020
vt -9.4453 0.0029
vt -4.0000 0.0000
vt -4.0000 0.0000
vt -4.0000 0.0000
vt -6.2500 0.0000
vt -6.5000 0.0000
vt -6.2500 0.0000
vt -6.2500 0.0000
vt -6.5000 0.0000
vt -6.2500 0.0000
vt -3.5000 8.0020
vt -4.0000 0.0000
vt -6.5000 0.0000
vt -6.2500 0.0000
vt -3.5000 8.0020
vt -6.5000 0.0000
vt -6.2500 0.0000
vt -9.4453 0.0029
vt -6.5000 0.0000
vt -6.2500 0.0000
vt -3.5000 8.0020
vt -4.0000 0.0000
vt -6.5000 0.0000
vt -6.2500 0.0000
vt -3.5000 8.0020
vt -6.5000 0.0000
vt -6.2500 0.0000
vt 4.5195 0.1260
vt -6.5000 0.0000
vt -6.2500 0.0000
vt -3.5000 8.0020
vt -3.5000 8.0020
vt -3.5000 8.0020
vt -3.5000 8.0020
vt -4.1670 23.7686
vt 0.0000 0.0000
f 89/89 3/3 10/10
f 99/99 1/1 5/5
f 34/34 1/1 36/36
f 72/72 1/1 26/26
f 128/128 128/128 128/128
f 117/117 2/2 41/41
f 92/92 2/2 56/56
f 94/94 94/94 128/128
f 89/89 3/3 10/10
f 117/117 2/2 41/41
f 34/34 1/1 36/36
f 99/99 1/1 5/5
f 72/72 1/1 26/26
f 128/128 128/128 128/128
f 92/92 2/2 56/56
f 94/94 94/94 128/128
f 117/117 2/2 41/41
f 72/72 1/1 26/26
f 128/128 128/128 128/128
f 117/117 2/2 41/41
f 72/72 1/1 26/26
f 128/128 128/128 128/128
f 34/34 1/1 36/36
f 82/82 1/1 24/24
f 128/128 128/128 128/128
f 73/73 1/1 124/124
f 128/128 128/128 128/128
f 5/5 1/1 61/61
f 128/128 128/128 128/128
f 117/117 1/1 70/70
f 128/128 128/128 128/128
f 5/5 2/2 46/46
f 128/128 128/128 128/128
f 122/122 2/2 26/26
f 128/128 128/128 128/128
f 5/5 1/1 61/61
f 128/128 128/128 128/128
f 78/78 2/2 110/110
f 88/88 2/2 119/119
f 128/128 128/128 128/128
f 5/5 2/2 46/46
f 128/128 128/128 128/128
f 50/50 1/1 126/126
f 18/18 1/1 52/52
f 18/18 1/1 52/52
f 5/5 1/1 61/61
f 128/128 128/128 128/128
f 88/88 2/2 119/119
f 128/128 128/128 128/128
f 5/5 2/2 46/46
f 128/128 128/128 128/128
f 78/78 2/2 110/110
f 5/5 2/2 46/46
f 128/128 128/128 128/128
f 18/18 1/1 52/52
f 50/50 1/1 126/126
f 82/82 1/1 24/24
f 128/128 128/128 128/128
f 73/73 1/1 124/124
f 128/128 128/128 128/128
f 5/5 1/1 61/61
f 128/128 128/128 128/128
f 117/117 1/1 70/70
f 128/128 128/128 128/128
f 122/122 2/2 26/26
f 128/128 128/128 128/128
f 5/5 2/2 46/46
f 128/128 128/128 128/128
f 8/8 5/5 11/11
f 1/1 8/8 11/11
f 11/11 6/6 9/9
f 11/11 9/9 1/1
f 16/16 4/4 1/1
f 4/4 5/5 18/18
f 13/13 12/12 14/14
f 2/2 13/13 28/28
f 2/2 1/1 4/4
f 2/2 4/4 19/19
f 4/4 18/18 19/19
f 30/30 26/26 25/25
f 9/9 11/11 10/10
f 10/10 11/11 12/12
f 5/5 3/3 2/2
f 6/6 8/8 12/12
f 8/8 2/2 12/12
f 9/9 14/14 15/15
f 16/16 17/17 18/18
f 6/6 8/8 10/10
f 27/27 19/19 31/31
f 20/20 7/7 16/16
f 19/19 24/24 26/26
f 18/18 25/25 24/24
f 19/19 18/18 24/24
f 8/8 11/11 9/9
f 12/12 11/11 8/8
f 4/4 3/3 5/5
f 15/15 14/14 9/9
f 16/16 17/17 18/18
