# Conker's Bad Fur Day — Real 3D Model (Bat's Tower Level Models)
o assets0A_model_024

v 0.0000 2.8800 0.0000
v 0.0000 3.1200 0.0000
v 0.0000 4.5600 0.0000
v 0.0000 5.3600 0.0000
v 0.0000 13.2800 0.0000
v 0.0000 24.9600 0.0000
v 0.0000 32.4000 0.0000
v 0.0300 0.1100 0.0000
v 7.6800 0.1600 0.1000
v 0.1000 0.1600 0.1000
v 7.6800 0.0000 0.0000
v 0.1600 32.0900 0.0000
v 10.1600 1.5000 -4.0500
v 1.6300 -4.0600 2.2800
v -4.0800 2.3100 0.6200
v 2.3500 0.5100 -27.9900
v 0.3900 -28.1800 20.6400
v -28.3600 20.6400 0.0300
v 0.0000 9.2700 2.2700
v 9.2400 2.3000 -4.1600
v 2.3600 -4.2100 2.4200
v -4.2700 2.3300 0.5700
v 0.9500 4.4000 -22.8500
v 8.6800 2.7900 -4.5300
v 2.8000 -4.5400 0.3700
v -4.5400 0.5000 -2.3700
v 0.6500 -2.4600 -5.2200
v 8.6800 2.8100 -4.5400
v 2.8100 -4.5500 1.5400
v 0.0300 2.0000 0.2200
v -0.1000 0.1000 -0.1200
v 0.1600 0.1000 0.0000
v -3.0200 -2.8800 20.4900
v 2.8100 -4.5500 1.6100
v 1.7200 -3.1000 -2.6500
v 8.6900 2.8100 -4.5400
v -4.5400 1.9300 -3.2100
v 2.8100 -4.5400 2.1600
v 2.3200 -3.4500 -1.1500
v 8.7000 2.8100 -4.5400
v -4.5400 2.5700 -3.6100
v 2.8000 -4.5400 2.8000
v 2.9500 -3.8400 0.5200
v 8.7200 2.8000 -4.5400
v -4.5300 3.1400 -3.9400
v 2.8000 -4.5300 3.2900
v 3.3600 -4.0200 0.9700
v 8.7400 2.8000 -4.5300
v -4.5300 3.4100 -4.0000
v 2.7900 -4.5300 3.3700
v 3.3000 -3.7800 -1.2300
v 8.7500 2.7900 -4.5300
v -4.5300 2.1300 -2.6300
v 2.7900 -4.5300 -0.5700
v -0.8700 0.1900 -26.6000
v 8.7600 2.7900 -4.5300
v -4.5300 -0.8500 0.1900
v 2.7900 -4.5200 -0.8400
v 0.0300 2.0000 0.1400
v 1.6100 0.0000 0.0000
v 0.1900 -26.5700 -10.2400
v -26.4600 -30.7200 8.7600
v 8.7500 2.7900 -4.5200
v 2.7900 -4.5200 -0.7400
v -4.5200 -0.7200 0.1000
v -0.7000 0.0800 -25.7900
v 8.7400 2.7900 -4.5200
v 2.7900 -4.5200 -0.5800
v -4.5200 -0.5700 -0.0200
v -0.5500 -0.0400 -24.9000
v 8.7300 2.7800 -4.5200
v 2.7800 -4.5200 -0.4300
v -4.5200 -0.4100 -0.1500
v -0.3900 -0.1700 -24.0100
v 8.7300 2.7800 -4.5200
v 2.7800 -4.5200 -0.2800
v -4.5200 -0.2600 -0.2800
v -0.2400 -0.2900 -23.1100
v 8.7200 2.7800 -4.5200
v 2.7800 -4.5200 -0.1200
v -4.5200 -0.1000 -0.4100
v -0.0900 -0.4200 -22.2200
v 8.7100 2.7800 -4.5200
v 2.7800 -4.5200 0.0200
v -4.5200 0.0400 -0.5300
v 0.0600 -0.5500 -21.3300
v -0.5700 -21.2200 21.7600
v -21.1100 21.7600 8.7000
v 1.2800 0.0000 0.0000
v 0.1600 0.1000 0.1600
v 8.7000 2.7800 -4.5200
v 0.1500 -0.6200 -20.8100
v 2.7800 -4.5200 0.2300
v 20.5000 8.6900 2.7800
v -4.5200 0.3700 -0.8100
v -19.2700 10.2500 0.1200
v 7.6900 2.9800 -4.7200
v 0.5100 -0.9200 -18.7200
v 2.9800 -4.7200 0.6000
v 20.5000 7.7000 2.9800
v -4.7100 0.7200 -1.1000
v 7.7600 2.9600 -4.7000
v 0.8200 -1.1800 -16.9300
v 2.9400 -4.6800 0.8600
v 20.5000 7.9200 2.9300
v -4.6600 -1.2200 -1.8000
v 8.0200 2.9000 -4.6400
v 1.6200 -0.7900 -9.3200
v 2.8800 -4.6300 2.1100
v 10.2400 8.1500 2.8700
v 8.3700 2.8200 -4.5700
v 3.3000 -3.7300 -8.7300
v 2.8000 -4.5500 2.3200
v -4.5300 -0.7400 -0.2000
v 8.6000 2.7700 -4.5200
v -1.3800 -0.2000 -7.2400
v 2.7500 -4.5000 -1.4500
v -4.4900 0.7300 2.0900
v 8.7500 2.7300 -4.4900
v 1.4700 1.3000 -29.2500
v 2.7300 -4.4900 1.6400
v 0.6900 -29.9500 0.0300
v -4.4900 1.7500 0.6000
v 8.7400 2.7400 -4.4900
v 1.7300 0.6300 -29.9900
v 2.7400 -4.4900 1.7000
v 0.6800 -29.9600 0.0000
v 37.2100 0.0000 0.0000
v 10.8200 1.2700 -3.1700
v 10.8200 1.2700 -3.1700
v 10.8200 1.2700 -3.1700
v 10.8200 1.2700 -3.1700
v 10.8200 1.2700 -3.1700
v 10.8200 1.2700 -3.1700
v 10.8200 1.2700 -3.1700
v 10.8200 1.2700 -3.1700
v 10.8200 1.2700 -3.1700
v 10.8200 1.2700 -3.1700
v 10.8200 1.2700 -3.1700
v 10.8200 1.2700 -3.1700
v 10.8200 1.2700 -3.1700
v 10.8200 1.2700 -3.1700
v 10.8200 1.2700 -3.1700
v 10.8200 1.2700 -3.1700
v 10.8200 1.2700 -3.1700
v 10.8200 1.2700 -3.1700
v 10.8200 1.2700 -3.1700
v 10.8200 1.2700 -3.1700
v 10.8200 1.2700 -3.1700
v 10.8200 1.2700 -3.1700
v 10.8200 1.2700 -3.1700
v 10.8200 1.2700 -3.1700
v 10.8200 1.2700 -3.1700
v 10.8200 1.2700 -3.1700
v 10.8200 1.2700 -3.1700
v 10.8200 1.2700 -3.1700
v 10.8200 1.2700 -3.1700
v 10.8200 1.2700 -3.1700
v 10.8200 1.2700 -3.1700
v 10.8200 1.2700 -3.1700
v 7.6800 0.0000 0.0000
v 0.0300 2.5100 0.0800
v 0.0000 -0.3100 -0.6200
v 10.8200 1.2700 -3.1700
v 10.8200 1.2700 -3.1700
v 10.8200 1.2700 -3.1700
v 10.8200 1.2700 -3.1700
v 10.8200 1.2700 -3.1700
v 10.8200 1.2700 -3.1700
v 10.8200 1.2700 -3.1700
v 10.8200 1.2700 -3.1700
v 10.8200 1.2700 -3.1700
v 10.8200 1.2700 -3.1700
v 10.8200 1.2700 -3.1700
v 10.8200 1.2700 -3.1700
v 10.8200 1.2700 -3.1700
v 10.8200 1.2700 -3.1700
v 10.8200 1.2700 -3.1700
v 10.8200 1.2700 -3.1700
v 10.8200 1.2700 -3.1700
v 10.8200 1.2700 -3.1700
v 10.8200 1.2700 -3.1700
v 10.8200 1.2700 -3.1700
v 10.8200 1.2700 -3.1700
v 10.8200 1.2700 -3.1700
v 10.8200 1.2700 -3.1700
v 10.8200 1.2700 -3.1700
v 10.8200 1.2700 -3.1700
v 10.8200 1.2700 -3.1700
v 10.8200 1.2700 -3.1700
v 10.8200 1.2700 -3.1700
v 10.8200 1.2700 -3.1700
v 10.8200 1.2700 -3.1700
v 10.8200 1.2700 -3.1700
v 10.8200 1.2700 -3.1700
v 0.0300 2.1100 0.1000
v 0.0000 -13.3800 -27.4500
v 10.8200 1.2700 -3.1700
v 8.9600 10.8200 1.2700
v 10.8200 1.2700 -3.1700
v 10.8200 1.2700 -3.1700
v 1.2700 -3.1700 31.2000
v 10.8200 1.2700 -3.1700
v 1.2700 -3.1700 20.8000
v 10.8200 1.2700 -3.1700
v 1.2700 -3.1700 10.4800
v 10.8200 1.2700 -3.1700
v 1.2700 -3.1700 10.3200
v 10.8200 1.2700 -3.1700
v 1.2700 -3.1700 0.0000
v 0.0300 2.5100 0.0800
v 0.0000 -13.4200 -27.4900
v 10.8200 1.2700 -3.1700
v 10.8200 1.2700 -3.1700
v 10.8200 1.2700 -3.1700
v 10.8200 1.2700 -3.1700
v 10.8200 1.2700 -3.1700
v 10.8200 1.2700 -3.1700
v 10.8200 1.2700 -3.1700
v 10.8200 1.2700 -3.1700
v 10.8200 1.2700 -3.1700
v 10.8200 1.2700 -3.1700
v 10.8200 1.2700 -3.1700
v 10.8200 1.2700 -3.1700
v 10.8200 1.2700 -3.1700
v 10.8200 1.2700 -3.1700
v 10.8200 1.2700 -3.1700
v 10.8200 1.2700 -3.1700
v 10.8200 1.2700 -3.1700
v 10.8200 1.2700 -3.1700
v 10.8200 1.2700 -3.1700
v 10.8200 1.2700 -3.1700
v 10.8200 1.2700 -3.1700
v 10.8200 1.2700 -3.1700
v 10.8200 1.2700 -3.1700
v 10.8200 1.2700 -3.1700
v 10.8200 1.2700 -3.1700
v 10.8200 1.2700 -3.1700
v 10.8200 1.2700 -3.1700
v 10.8200 1.2700 -3.1700
v 10.8200 1.2700 -3.1700
v 10.8200 1.2700 -3.1700
v 10.8200 1.2700 -3.1700
v 10.8200 1.2700 -3.1700
v 0.0300 2.5100 0.0700
v 0.0000 -12.4800 -25.6000
v 10.8200 1.2700 -3.1700
v 10.8200 1.2700 -3.1700
v 10.8200 1.2700 -3.1700
v 10.8200 1.2700 -3.1700
v 0.0000 -12.4800 -25.6000
v 10.8200 1.2700 -3.1700
v 10.8200 1.2700 -3.1700
v 10.8200 1.2700 -3.1700
v 10.8200 1.2700 -3.1700
v 10.8200 1.2700 -3.1700
v 10.8200 1.2700 -3.1700
v 10.8200 1.2700 -3.1700
v 10.8200 1.2700 -3.1700
v 0.0300 2.5100 0.0800
v 0.0000 -12.4800 -25.6000
v 10.8200 1.2700 -3.1700
v 10.8200 1.2700 -3.1700
v 10.8200 1.2700 -3.1700
v 10.8200 1.2700 -3.1700
v 10.8200 1.2700 -3.1700
v 10.8200 1.2700 -3.1700
v 10.8200 1.2700 -3.1700
v 10.8200 1.2700 -3.1700
v 10.8200 1.2700 -3.1700
v 10.8200 1.2700 -3.1700
v 10.8200 1.2700 -3.1700
v 10.8200 1.2700 -3.1700
v 10.8200 1.2700 -3.1700
v 10.8200 1.2700 -3.1700
v 10.8200 1.2700 -3.1700
v 10.8200 1.2700 -3.1700
v 10.8200 1.2700 -3.1700
v 10.8200 1.2700 -3.1700
v 10.8200 1.2700 -3.1700
v 10.8200 1.2700 -3.1700
v 10.8200 1.2700 -3.1700
v 10.8200 1.2700 -3.1700
v 10.8200 1.2700 -3.1700
v 10.8200 1.2700 -3.1700
v 10.8200 1.2700 -3.1700
v 10.8200 1.2700 -3.1700
v 10.8200 1.2700 -3.1700
v 10.8200 1.2700 -3.1700
v 10.8200 1.2700 -3.1700
v 10.8200 1.2700 -3.1700
v 10.8200 1.2700 -3.1700
v 10.8200 1.2700 -3.1700
v 0.0300 1.4100 0.0600
v 0.0000 -12.4800 -25.6000
v 1.2700 -3.1700 10.8200
v 10.8200 1.2700 -3.1700
v -3.1700 10.8200 1.2700
v 1.2700 -3.1700 10.8200
v 10.8200 1.2700 -3.1700
v -3.1700 10.8200 1.2700
v 1.2700 -3.1700 10.8200
v 10.8200 1.2700 -3.1700
v -3.1700 10.8200 1.2700
v 1.2700 -3.1700 10.8200
v 10.8200 1.2700 -3.1700
v -3.1700 10.8200 1.2700
v 1.2700 -3.1700 10.8200
v 0.0300 1.5600 0.0600
v 1.2700 -3.1700 10.8200
v 10.8200 1.2700 -3.1700
v -3.1700 10.8200 1.2700
v 1.2700 -3.1700 10.8200
v 10.8200 1.2700 -3.1700
v -3.1700 10.8200 1.2700
v 1.2700 -3.1700 10.8200
v 10.8200 1.2700 -3.1700
v -3.1700 10.8200 1.2700
v 1.2700 -3.1700 10.8200
v 10.8200 1.2700 -3.1700
v -3.1700 10.8200 1.2700
v 1.2700 -3.1700 10.8200
v 10.8200 1.2700 -3.1700
vt 0.0000 0.3047
vt 0.0000 0.3438
vt 0.0000 0.4766
vt 0.0000 0.5469
vt 0.0000 1.3359
vt 0.0000 2.4609
vt 0.0000 3.2031
vt 0.7500 0.0000
vt 0.0098 0.0156
vt 0.0098 0.0000
vt 0.0156 3.1338
vt -12.3994 12.8750
vt 0.0723 -2.6982
vt -2.7031 4.0469
vt 4.0469 -31.9971
vt -31.9971 -16.2500
vt -19.7500 -10.7520
vt -8.5020 24.5000
vt 0.2422 0.0156
vt 0.0195 -2.7812
vt -2.7607 1.0000
vt 2.0156 -31.9971
vt -31.9971 30.7510
vt -0.2070 -0.6357
vt -0.5889 25.6797
vt 23.7266 -31.9971
vt -31.9971 24.7510
vt -0.2812 -0.3301
vt -0.2871 27.4902
vt 0.7500 -16.0000
vt 0.0156 0.0098
vt 0.8477 0.2744
vt -7.9922 0.5000
vt -0.2764 2.0010
vt -29.9980 -23.9922
vt -0.3057 -0.2461
vt 10.0010 14.0020
vt -0.1553 18.0000
vt -17.9990 -23.9922
vt -0.3428 -0.0898
vt 26.0000 26.0010
vt 0.0156 -30.0000
vt 6.0000 -23.9922
vt -0.3789 0.0654
vt -26.0000 2.0000
vt 0.1025 -22.0000
vt 30.0000 24.0078
vt -0.3926 0.0840
vt -17.9990 14.0000
vt -0.0342 -17.9980
vt -21.9990 24.0078
vt -0.3623 -0.1719
vt -25.9971 2.0010
vt -2.4258 30.0020
vt -1.9990 -23.9922
vt 0.0186 -2.5977
vt 18.0020 -1.9990
vt -2.5947 10.0020
vt 0.7500 -16.0000
vt 0.8555 0.2725
vt 0.2725 -0.4414
vt -0.4414 -0.0781
vt 0.0127 -2.5518
vt -2.5400 -7.2500
vt -9.2500 0.8545
vt 0.8545 0.2725
vt 0.0000 -2.4639
vt -2.4531 -17.2500
vt -19.2500 0.8535
vt 0.8535 0.2725
vt -0.0117 -2.3770
vt -2.3662 -27.5000
vt -29.5000 0.8525
vt 0.8525 0.2715
vt -0.0244 -2.2900
vt -2.2793 26.2500
vt 24.2500 0.8516
vt 0.8516 0.2715
vt -0.0361 -2.2031
vt -2.1914 16.2500
vt 14.2500 0.8506
vt 0.8506 0.2715
vt -0.0488 -2.1152
vt -2.1045 6.0000
vt 6.0000 0.8496
vt 0.8496 0.2715
vt 0.2715 -0.4414
vt -0.4414 0.0107
vt 0.0029 0.2256
vt 0.0156 0.0098
vt -0.0576 -2.0527
vt 8.0117 0.1250
vt -1.9854 5.0010
vt 0.0312 -0.0752
vt 4.0010 0.0117
vt 8.0078 0.5029
vt -0.0859 -1.8545
vt 0.0117 0.1250
vt -1.7764 8.0010
vt 0.0664 -0.1045
vt 14.0010 16.0098
vt -0.1133 -1.6689
vt 16.0098 0.1250
vt -1.6289 24.0010
vt 0.0859 -0.1201
vt 30.5000 -27.9971
vt -0.0605 -0.9131
vt -27.9971 0.0625
vt -0.8955 -23.5000
vt 0.2539 -0.2676
vt -0.3691 -0.8516
vt 18.2510 6.4980
vt -0.9072 12.0029
vt 12.0029 22.0010
vt -0.0137 -0.8057
vt 24.2510 5.2480
vt -0.5371 4.0029
vt 0.0029 26.5010
vt 0.1475 -2.8496
vt 27.0010 4.4980
vt -2.9082 0.0029
vt 4.4980 15.7500
vt 0.0029 26.7510
vt 0.0586 -2.9297
vt 26.5010 4.7480
vt -2.9268 0.0029
vt 0.0029 0.2451
vt 1.0566 0.1240
vt 1.0566 0.1240
vt 1.0566 0.1240
vt 1.0566 0.1240
vt 1.0566 0.1240
vt 1.0566 0.1240
vt 1.0566 0.1240
vt 1.0566 0.1240
vt 1.0566 0.1240
vt 1.0566 0.1240
vt 1.0566 0.1240
vt 1.0566 0.1240
vt 1.0566 0.1240
vt 1.0566 0.1240
vt 1.0566 0.1240
vt 1.0566 0.1240
vt 1.0566 0.1240
vt 1.0566 0.1240
vt 1.0566 0.1240
vt 1.0566 0.1240
vt 1.0566 0.1240
vt 1.0566 0.1240
vt 1.0566 0.1240
vt 1.0566 0.1240
vt 1.0566 0.1240
vt 1.0566 0.1240
vt 1.0566 0.1240
vt 1.0566 0.1240
vt 1.0566 0.1240
vt 1.0566 0.1240
vt 1.0566 0.1240
vt 1.0566 0.1240
vt 4.0020 0.4365
vt -5.0010 0.2295
vt 0.7500 -32.0000
vt 2.5088 0.0000
vt 1.0566 0.1240
vt 1.0566 0.1240
vt 1.0566 0.1240
vt 1.0566 0.1240
vt 1.0566 0.1240
vt 1.0566 0.1240
vt 1.0566 0.1240
vt 1.0566 0.1240
vt 1.0566 0.1240
vt 1.0566 0.1240
vt 1.0566 0.1240
vt 1.0566 0.1240
vt 1.0566 0.1240
vt 1.0566 0.1240
vt 1.0566 0.1240
vt 1.0566 0.1240
vt 1.0566 0.1240
vt 1.0566 0.1240
vt 1.0566 0.1240
vt 1.0566 0.1240
vt 1.0566 0.1240
vt 1.0566 0.1240
vt 1.0566 0.1240
vt 1.0566 0.1240
vt 1.0566 0.1240
vt 1.0566 0.1240
vt 1.0566 0.1240
vt 1.0566 0.1240
vt 1.0566 0.1240
vt 1.0566 0.1240
vt 1.0566 0.1240
vt 1.0566 0.1240
vt 0.7500 -32.0000
vt 1.8838 0.0000
vt 6.2500 1.0566
vt 22.3545 0.3750
vt 31.2500 1.0566
vt -7.5000 1.0566
vt 1.0566 0.1240
vt -7.5000 1.0566
vt 1.0566 0.1240
vt -7.5000 1.0566
vt 1.0566 0.1240
vt -7.5000 1.0566
vt 1.0566 0.1240
vt -7.5000 1.0566
vt 1.0566 0.1240
vt 0.7500 -32.0000
vt 3.2588 0.0000
vt 1.0566 0.1240
vt 1.0566 0.1240
vt 1.0566 0.1240
vt 1.0566 0.1240
vt 1.0566 0.1240
vt 1.0566 0.1240
vt 1.0566 0.1240
vt 1.0566 0.1240
vt 1.0566 0.1240
vt 1.0566 0.1240
vt 1.0566 0.1240
vt 1.0566 0.1240
vt 1.0566 0.1240
vt 1.0566 0.1240
vt 1.0566 0.1240
vt 1.0566 0.1240
vt 1.0566 0.1240
vt 1.0566 0.1240
vt 1.0566 0.1240
vt 1.0566 0.1240
vt 1.0566 0.1240
vt 1.0566 0.1240
vt 1.0566 0.1240
vt 1.0566 0.1240
vt 1.0566 0.1240
vt 1.0566 0.1240
vt 1.0566 0.1240
vt 1.0566 0.1240
vt 1.0566 0.1240
vt 1.0566 0.1240
vt 1.0566 0.1240
vt 1.0566 0.1240
vt 0.7500 -32.0000
vt 4.8760 0.0000
vt 14.5000 31.9980
vt 14.5000 31.9980
vt 14.5000 31.9980
vt 14.5000 31.9980
vt 3.8799 0.0000
vt 20.0000 1.0566
vt 20.1875 1.0566
vt 20.3750 1.0566
vt 20.5000 1.0566
vt 20.6875 1.0566
vt 20.8750 1.0566
vt 21.0000 1.0566
vt 21.1875 1.0566
vt 0.7500 -32.0000
vt 3.3838 0.0000
vt 1.0566 0.1240
vt 1.0566 0.1240
vt 1.0566 0.1240
vt 1.0566 0.1240
vt 1.0566 0.1240
vt 1.0566 0.1240
vt 1.0566 0.1240
vt 1.0566 0.1240
vt 1.0566 0.1240
vt 1.0566 0.1240
vt 1.0566 0.1240
vt 1.0566 0.1240
vt 1.0566 0.1240
vt 1.0566 0.1240
vt 1.0566 0.1240
vt 1.0566 0.1240
vt 1.0566 0.1240
vt 1.0566 0.1240
vt 1.0566 0.1240
vt 1.0566 0.1240
vt 1.0566 0.1240
vt 1.0566 0.1240
vt 1.0566 0.1240
vt 1.0566 0.1240
vt 1.0566 0.1240
vt 1.0566 0.1240
vt 1.0566 0.1240
vt 1.0566 0.1240
vt 1.0566 0.1240
vt 1.0566 0.1240
vt 1.0566 0.1240
vt 1.0566 0.1240
vt 0.7500 -32.0000
vt 1.0566 0.1240
vt -0.3096 1.0566
vt 0.1240 -0.3096
vt 1.0566 0.1240
vt -0.3096 1.0566
vt 0.1240 -0.3096
vt 1.0566 0.1240
vt -0.3096 1.0566
vt 0.1240 -0.3096
vt 1.0566 0.1240
vt -0.3096 1.0566
vt 0.1240 -0.3096
vt 1.0566 0.1240
vt -0.3096 1.0566
vt 0.7500 -32.0000
vt -0.3096 1.0566
vt 0.1240 -0.3096
vt 1.0566 0.1240
vt -0.3096 1.0566
vt 0.1240 -0.3096
vt 1.0566 0.1240
vt -0.3096 1.0566
vt 0.1240 -0.3096
vt 1.0566 0.1240
vt -0.3096 1.0566
vt 0.1240 -0.3096
vt 1.0566 0.1240
vt -0.3096 1.0566
vt 0.1240 -0.3096
f 3/3 9/9 1/1
f 26/26 1/1 6/6
