# Conker's Bad Fur Day — Real 3D Model (Vegetation & Foliage)
o assets00_model_001

v 0.0000 5.8600 -0.0200
v 0.0000 0.2700 -0.0100
v -0.0100 -0.0100 0.0000
v 0.0000 1.1100 -15.3700
v 0.0000 17.8500 33.2100
v 0.0000 1.5600 0.0000
v 0.0000 0.1500 0.0000
v 0.0000 0.0900 0.0000
v 0.0000 0.0000 0.0100
v 0.0000 5.8600 -0.0200
v 0.0000 0.1300 -0.0100
v -0.0100 -0.0100 0.0000
v 0.0000 1.1100 -15.3700
v 0.0000 17.8500 25.5300
v 0.0000 31.6800 33.1500
v 0.0000 1.0800 0.0000
v 0.0000 0.1200 0.0000
v 0.0000 0.0900 0.0000
v 0.0000 0.0000 0.0100
v 0.0000 0.0000 0.6400
v 0.0000 0.0000 0.6500
v 0.0000 5.8400 -0.0100
v 0.0000 0.1100 -0.0100
v -0.0100 -0.0100 0.0000
v 0.0000 0.1500 -0.0100
v -23.0500 -0.0100 0.0000
v 0.0000 17.8200 25.5000
v 0.0000 17.2800 25.4700
v 0.0000 15.8400 32.1600
v 0.0000 0.0000 23.0400
v 23.0400 25.4700 0.0000
v 0.0000 0.0000 7.6800
v 0.0000 2.4600 0.0000
v 0.0000 1.5000 0.0000
v 0.0000 1.0500 0.0000
v 0.0000 0.0000 0.0100
v 0.0000 5.8400 -0.0200
v 0.0000 0.2300 -0.0100
v -0.0100 -0.0100 0.0000
v 0.0000 0.1200 -0.0100
v -0.0100 -0.0100 0.0000
v -15.3700 -0.0100 0.0000
v 0.0000 2.0100 25.4700
v 0.0000 10.1100 33.1200
v 0.0000 9.1200 39.3600
v 0.0000 24.4800 0.0000
v 0.0000 16.8000 0.0000
v 0.0000 9.1200 0.0000
v 0.0000 0.0000 0.0100
v 0.0000 0.0000 22.4100
v 0.6500 0.0000 0.0000
v 0.0000 5.8400 -0.0100
v 0.0000 0.0800 -0.0100
v -0.0100 -0.0100 0.0000
v 0.0000 0.1200 -0.0100
v -7.6900 -0.0100 0.0000
v 0.0000 32.1600 0.0000
v 0.0000 16.8000 0.0000
v 0.0000 1.4400 0.0000
vt -0.0010 -0.0010
vt -0.0010 -0.7510
vt -16.0000 0.0000
vt -24.0010 -2.2510
vt 13.7490 -2.4854
vt 0.0000 0.0000
vt 0.0000 0.0000
vt 0.0000 0.0000
vt 20.6445 22.7090
vt -0.0010 -0.5010
vt -0.0010 -0.7510
vt -16.0000 0.0000
vt 27.9990 -1.5479
vt 25.7490 -2.4385
vt 24.2490 -1.7500
vt 0.0000 0.0000
vt 0.0000 0.0000
vt 0.0000 0.0000
vt 24.7744 22.7090
vt -30.8662 24.9434
vt 29.0713 24.9434
vt -0.0010 -0.0010
vt -0.0010 -0.0010
vt -16.0000 0.0000
vt 27.9990 -2.2979
vt -2.5000 0.0000
vt 0.2021 -1.0000
vt 0.1084 -1.0000
vt 0.0146 -1.0000
vt 0.0000 -24.1562
vt 0.0000 0.0000
vt 0.0000 3.9375
vt 0.0000 0.0000
vt 0.0000 0.0000
vt 0.0000 0.0000
vt 20.6445 22.7090
vt -0.0010 -0.0010
vt -8.0010 -0.0010
vt -4.0000 0.0000
vt 15.9990 -1.5010
vt -2.5000 0.0000
vt -1.7500 0.0000
vt 0.1553 -1.0000
vt 0.1084 -0.2500
vt 0.0088 -0.2031
vt 12.0000 0.0000
vt 0.0000 0.0000
vt 0.0000 0.0000
vt 24.7744 22.7090
vt -28.8018 24.9434
vt 8.5010 12.5029
vt -0.0010 -0.0010
vt -8.0010 -0.7510
vt -16.0000 0.0000
vt 15.9990 -1.5010
vt -2.5000 0.0000
vt 0.0000 0.0000
vt 0.0000 0.0000
vt 0.0000 0.0000
f 1/1 2/2 3/3
f 4/4 5/5 6/6
f 7/7 8/8 9/9
f 10/10 11/11 12/12
f 13/13 14/14 15/15
f 16/16 17/17 18/18
f 19/19 20/20 21/21
f 22/22 23/23 24/24
f 25/25 26/26 27/27
f 28/28 29/29 30/30
f 31/31 32/32 33/33
f 34/34 35/35 36/36
f 37/37 38/38 39/39
f 40/40 41/41 42/42
f 43/43 44/44 45/45
f 46/46 47/47 48/48
f 49/49 50/50 51/51
f 52/52 53/53 54/54
f 55/55 56/56 57/57
