# Conker's Bad Fur Day — Real 3D Model (Spooky Models)
o assets10_model_012

v 0.0000 2.8800 0.0000
v 0.0000 3.6800 0.0000
v 0.0000 4.4800 0.0000
v 0.0000 5.4400 0.0000
v 0.0000 6.3200 0.0000
v 0.0000 7.1200 0.0000
v 0.0000 8.4000 0.0000
v 0.0000 9.5200 0.0000
v 0.0000 10.0800 0.0000
v 0.0000 11.0400 0.0000
v 0.0000 12.0000 0.0000
v 0.0000 13.1200 0.0000
v 0.0000 13.7600 0.0000
v 0.0000 14.1600 0.0000
v 0.0000 15.0400 0.0000
v 0.0000 15.6800 0.0000
v 0.0000 16.0800 0.0000
v 31.5300 -1.8400 24.7400
v 32.4800 -1.8400 19.7500
v 35.5100 -1.8400 28.0800
v 36.2200 -1.8400 25.4700
v 35.2700 -1.8400 29.4100
v 31.3500 -1.8400 24.3600
v 28.9000 -1.8400 29.1900
v 30.1100 -1.8400 19.1900
v 32.0300 -1.6700 16.4600
v 39.5900 -1.7500 24.6200
v 31.1600 -1.8400 24.3900
v 27.4900 -1.8400 22.2700
v 33.8300 -1.8300 31.2900
v 34.7300 -1.8400 22.7200
v 23.6000 -1.6800 27.7100
v 30.9500 -1.8400 24.3000
v 32.3300 -1.8400 24.8200
v 38.5500 -1.8100 24.8600
v 24.0500 -1.6700 25.3200
v 29.8000 -1.8400 20.9000
v 29.7500 -1.7600 32.1500
v 39.7600 -1.7300 22.3200
v -4.0300 -1.4500 -14.9400
v -4.9000 -1.4500 -19.9500
v -3.8400 -1.4500 -17.6800
v 2.9600 -1.4500 -17.8600
v -0.3600 -1.4500 -17.8000
v 1.7300 0.2500 -18.0200
v -0.9700 -1.4500 -18.2800
v -12.2500 0.0100 -6.4600
v -14.2900 0.0000 -11.5700
v -20.9900 0.0000 -12.3500
v -23.8900 0.0000 -6.3700
v -18.6000 0.0000 -1.4100
v -12.5700 0.0000 -4.5300
v 21.6200 -2.3700 7.7900
v 24.3100 -2.7900 1.3500
v 24.2900 -2.7900 1.3500
v 23.7600 -4.1200 -18.9100
v 25.6800 -3.4000 -7.8500
v 24.6500 -3.9100 -15.8100
v 24.6500 -3.9100 -15.8200
v 31.4700 -1.8400 24.1500
v 28.4900 -1.8400 21.5600
v 32.6200 -1.7700 32.3700
v 31.3100 -1.8400 24.6200
v 28.8000 -1.7100 17.7600
v 28.8500 -1.8000 31.1800
v 31.4300 -1.8400 24.4900
v 29.1700 -1.8400 22.7000
v 38.6100 -1.7500 21.3100
v 31.6400 -1.8400 24.7300
v 33.8100 -1.8400 27.0000
v 35.4000 -1.7200 32.1600
v 31.6300 -1.8400 23.7100
v 36.2500 -1.8400 26.7700
v 24.9000 -1.7100 23.8600
v 31.1500 -1.8400 24.4400
v 34.6200 -1.8400 19.8700
v 31.5100 -1.8400 24.7500
v 25.5400 -1.8000 26.4000
v 32.8600 -1.8400 25.6300
v 27.4000 -1.8400 21.0000
v 37.1600 -1.8200 28.8000
v 31.3400 -1.8400 24.7500
v 31.1300 -1.7900 18.1300
v 25.7800 -1.7500 28.7000
v 30.0900 -1.8300 18.7100
v -11.8900 -1.8000 -0.8000
v -33.4700 7.3000 -36.8100
v -32.7400 7.2400 -36.3000
v 9.6800 30.2400 -10.5500
v 16.8400 30.2400 -10.6000
v 16.5300 30.2400 -17.0000
v 9.5700 30.2400 -15.8100
v 8.5300 35.8400 -31.6700
v -8.9400 11.1100 -7.1300
v -6.9600 11.1100 -7.1700
v 36.9700 -1.8200 21.0300
v -33.4700 7.3000 -36.8100
v -4.0500 -8.2200 4.3900
v -9.7800 -7.2900 2.5800
v -17.9600 -6.7500 3.5200
v -26.7200 -6.0400 -2.2400
v -28.4200 -5.7100 -7.2000
v -28.4000 -5.7100 -7.1600
v -26.5900 -6.0500 -2.1500
v -17.8700 -6.7600 3.4900
vt 0.0000 0.3203
vt 0.0000 0.3984
vt 0.0000 0.4766
vt 0.0000 0.5703
vt 0.0000 0.6719
vt 0.0000 0.7266
vt 0.0000 0.8750
vt 0.0000 0.0000
vt 0.0000 1.0312
vt 0.0000 1.1250
vt 0.0000 1.2266
vt 0.0000 1.3281
vt 0.0000 1.3594
vt 0.0000 1.4453
vt 0.0000 1.4922
vt 0.0000 1.5547
vt 0.0000 1.5859
vt 3.5957 -0.1738
vt 2.7568 -0.1797
vt 3.0713 -0.1797
vt 2.6787 -0.1729
vt 2.7480 -0.1748
vt 2.4463 -0.1670
vt 3.7793 -0.1768
vt 3.0898 -0.1797
vt 2.6064 -0.1602
vt 2.9873 -0.1797
vt 3.3750 -0.1797
vt 2.6738 -0.1797
vt 2.9990 -0.1797
vt 3.1523 -0.1797
vt 3.5459 -0.1660
vt 3.7686 -0.1758
vt 3.1914 -0.1797
vt 2.7471 -0.1797
vt 3.1865 -0.1797
vt 2.8652 -0.1797
vt 3.8398 -0.1709
vt -0.3828 -0.1416
vt -0.9277 -0.1709
vt -0.1338 -0.1416
vt -0.1387 -0.1416
vt 0.2910 -0.1416
vt 0.0703 -0.0342
vt 0.0439 -0.1416
vt -1.7910 0.0459
vt -1.2061 0.0000
vt -1.7812 0.0000
vt -2.2803 0.0000
vt -2.1562 0.0000
vt -1.4414 0.0000
vt 2.1133 -0.2305
vt 2.2695 -0.2549
vt 2.4482 -0.2910
vt 2.2686 -0.2549
vt 2.5029 -0.3643
vt 2.4756 -0.3643
vt 2.3135 -0.4023
vt 2.2471 -0.1738
vt 3.5273 -0.1797
vt 2.8447 -0.1797
vt 3.7930 -0.1758
vt 3.2178 -0.1797
vt 3.5801 -0.1699
vt 2.6816 -0.1797
vt 3.2188 -0.1797
vt 2.7939 -0.1748
vt 3.2686 -0.1797
vt 3.2656 -0.1797
vt 2.8564 -0.1797
vt 3.8721 -0.1709
vt 3.1328 -0.1797
vt 3.0645 -0.1787
vt 3.3037 -0.1709
vt 3.5420 -0.1797
vt 2.6201 -0.1777
vt 3.0557 -0.1797
vt 3.0576 -0.1797
vt 2.7949 -0.1797
vt 3.6504 -0.1719
vt 2.8428 -0.1729
vt 3.6348 -0.1797
vt 3.2324 -0.1797
vt 2.5391 -0.1709
vt 2.9385 -0.1787
vt -1.1611 -0.1758
vt -3.4824 0.7305
vt 0.8887 2.9531
vt 1.2686 2.9531
vt 1.7490 2.9531
vt 1.2637 2.9531
vt 0.5664 3.4756
vt 0.2275 3.5000
vt -0.8730 1.0850
vt 3.6104 -0.1777
vt -3.2686 0.7129
vt -0.3955 -0.8027
vt -0.6963 -0.7295
vt -1.4951 -0.6777
vt -2.4004 -0.6104
vt -2.7256 -0.5732
vt -2.7959 -0.6104
vt -2.7207 -0.5732
vt -2.3896 -0.6113
vt -1.4961 -0.6768
f 10/10 6/6 105/105
f 75/75 6/6 105/105
f 83/83 1/1 1/1
f 59/59 6/6 105/105
f 47/47 1/1 1/1
f 8/8 6/6 105/105
f 10/10 10/10 73/73
f 31/31 13/13 105/105
f 20/20 1/1 1/1
