# Conker's Bad Fur Day — Real 3D Model (Multiplayer Level Models)
o assets09_model_012

v 0.0000 2.0000 0.0000
v 0.8900 4.5900 -2.5800
v 0.3400 5.5800 -2.5800
v 1.6300 2.7100 -2.5800
v 1.4800 8.1600 -2.5800
v 2.2200 6.2900 -2.5800
v 5.7900 10.6600 -2.5800
v 6.4100 5.4300 -2.5800
v 5.3000 0.2800 -2.5800
v 3.9900 2.3300 -2.5800
v 4.2900 8.7500 -2.5800
v 22.5700 5.2300 -2.5800
v -28.0000 0.0000 17.9200
v -33.2800 0.0000 18.5500
v -28.1600 2.5600 15.3600
v -7.5200 0.0000 0.6400
vt 0.0000 0.0000
vt -0.0029 -0.0029
vt -0.0049 -0.0186
vt 0.0000 0.0117
vt -0.0176 -0.0010
vt -0.0156 0.0234
vt -0.0312 -0.0068
vt -0.0068 -0.0312
vt 0.0234 -0.0156
vt 0.0176 0.0176
vt 0.0000 -0.0010
vt 0.0000 0.2031
vt -6.5000 0.0000
vt -6.2500 0.0000
vt -6.5000 0.0000
vt -4.0000 0.0000
f 11/11 8/8 7/7
f 11/11 9/9 8/8
