mtllib assets09_model_230.mtl
# Conker's Bad Fur Day — Real 3D Model (Multiplayer Level Models)
o assets09_model_230
usemtl assets09_model_230_mat

v 0.0000 28.4000 0.0000
v -27.3600 0.0000 17.9200
v -27.4400 20.4800 0.0900
v -7.5200 0.0000 0.6400
v 2.5800 0.6400 0.0000
v 2.5800 0.6400 0.0000
v -6.8800 0.0000 0.0000
v -7.5200 0.0000 0.6400
v 2.5800 0.6400 0.0000
v -33.2800 0.0000 18.2300
v -33.2800 0.0000 18.1300
v 2.5700 0.3200 0.0000
v 15.5600 35.9400 0.0800
v -26.7200 0.0000 17.9200
v -26.8000 10.2400 0.0900
v -26.8000 5.4400 2.6400
v -26.8000 5.5200 5.2000
v -26.8000 5.5600 7.7600
vt 0.0000 0.0000
vt -3.2500 0.0000
vt -3.4375 9.0020
vt -2.6562 0.2500
vt 4.5039 1.1299
vt 4.5234 -25.7764
vt -3.2500 0.0000
vt -6.5000 0.0000
vt 4.6523 3.1914
vt -2.6797 2.0000
vt -2.6797 2.0000
vt 4.5195 -27.9980
vt 1.2695 2.5176
vt -3.2500 0.0000
vt -3.4375 9.0020
vt -3.4688 8.5020
vt -3.4844 8.2520
vt -3.4922 8.1270
f 11/11 10/10 9/9
f 11/11 8/8 6/6
f 5/5 10/10 6/6
f 11/11 6/6 10/10
f 12/12 13/13 14/14
f 13/13 15/15 14/14
f 13/13 12/12 16/16
