mtllib assets09_model_143.mtl
# Conker's Bad Fur Day — Real 3D Model (Multiplayer Level Models)
o assets09_model_143
usemtl assets09_model_143_mat

v 0.0000 13.0400 0.0000
v 11.5300 6.1700 -2.5800
v 12.1700 6.0900 -2.5800
v 10.7300 5.5500 -2.5800
v 2.6600 5.2200 -2.5800
v 5.2300 5.2700 -2.5800
v 7.9000 5.3200 -2.5800
v 2.7500 1.3000 -2.5800
v 2.7900 1.3800 -2.5800
v 2.6600 5.2200 -2.5800
v 2.7700 3.1000 -2.5800
v 5.2100 0.4300 -2.5800
v 5.2300 5.2700 -2.5800
v 5.2200 2.8300 -2.5800
v 7.7700 1.2900 -2.5800
v 7.8200 1.3100 -2.5800
v 8.6600 1.8900 -2.5800
v 7.9000 5.3200 -2.5800
v 7.8700 3.2000 -2.5800
v -28.0000 0.0000 17.9200
v -33.2800 0.0000 18.2300
v -28.1600 2.5600 15.3600
v -7.5200 0.0000 0.6400
vt 0.0000 1.2773
vt 0.0068 -0.0010
vt -0.0010 -0.0117
vt 0.0029 -0.0107
vt -0.0010 0.0000
vt -0.0059 0.0000
vt -0.0146 -0.0078
vt -0.0039 -0.0068
vt -0.0010 -0.0068
vt -0.0010 -0.0078
vt -0.0010 0.0000
vt -0.0029 -0.0088
vt 0.0000 -0.0098
vt 0.0000 -0.0098
vt -0.0039 -0.0078
vt 0.0000 -0.0088
vt 0.0039 -0.0078
vt 0.0000 -0.0078
vt 0.0000 -0.0078
vt -6.5000 0.0000
vt -6.2500 0.0000
vt -6.5000 0.0000
vt -4.0000 0.0000
f 12/12 6/6 3/3
