mtllib assets0E_model_038.mtl
# Conker's Bad Fur Day — Real 3D Model (Sloprano Models)
o assets0E_model_038
usemtl assets0E_model_038_mat

v 20.4800 0.0000 0.0000
v 20.4800 0.0000 0.0000
v 20.4800 0.0000 0.0000
v 20.4800 0.0000 0.0000
v 20.4800 0.0000 0.0000
v 20.4800 0.0000 0.0000
v 20.4800 0.0000 0.0000
v 20.4800 0.0000 0.0000
v 20.4800 0.0000 0.0000
v 20.4800 0.0000 0.0000
v 20.4800 0.0000 0.0000
v 20.4800 0.0000 0.0000
v 20.4800 0.0000 0.0000
v 20.4800 0.0000 0.0000
v 20.4800 0.0000 0.0000
v 20.4800 0.0000 0.0000
v 20.4800 0.0000 0.0000
v 20.4800 0.0000 0.0000
vt 0.0000 0.0654
vt 4.5000 0.0654
vt 4.5000 0.0654
vt 4.5000 0.0654
vt 4.5000 0.0654
vt 4.5000 0.0654
vt 4.5000 0.0654
vt 4.5000 0.0654
vt 4.5000 0.0654
vt 4.5000 0.0654
vt 4.5000 0.0693
vt 4.5000 0.0654
vt 4.5000 0.0654
vt 4.5000 0.0654
vt 4.5000 0.0654
vt 4.5000 0.0654
vt 4.5000 0.0654
vt 4.5000 0.0654
f 1/1 1/1 1/1
f 1/1 1/1 1/1
