# Conker's Bad Fur Day — Real 3D Model (Multiplayer Level Models)
o assets09_model_102

v 0.0000 10.8000 0.0000
v 3.8200 0.6400 -0.0100
v 3.8200 0.6400 -0.0100
v 0.0200 7.0700 -0.0100
v 0.8500 4.1800 -0.0100
v 0.0200 7.0700 -0.0100
v 0.8500 4.1800 -0.0100
v 0.9500 0.4400 -0.0100
v 0.0000 0.0000 -0.0100
v 5.1200 4.8100 -0.0100
v 0.0000 4.8100 -0.0100
v 5.1200 0.0000 -0.0100
v -28.0000 0.0000 17.9200
v -33.2800 0.0000 18.5500
v -28.1600 2.5600 15.3600
v -7.5200 0.0000 0.6400
v -7.5200 0.0000 0.0000
v -33.2800 0.0000 18.0700
v -28.0800 10.2400 0.0100
v -27.9200 0.0000 17.9200
v -33.2800 0.0000 18.0700
v -27.9200 20.4800 0.0100
v 15.3600 5.1600 0.0600
v -7.5200 0.0000 0.0000
v -7.5200 0.0000 0.6400
v 15.3600 5.1600 0.0200
v -7.5200 0.0000 0.0000
v -33.2800 0.0000 17.9900
v 15.5400 5.3200 0.2200
v -7.5200 0.0000 0.0000
v -33.2800 0.0000 18.0700
v -28.0800 10.2400 0.0100
vt 0.0000 0.0000
vt 0.0039 -0.0225
vt 0.0098 -0.0039
vt 0.0098 -0.0098
vt 0.0029 -0.0107
vt 0.0098 -0.0098
vt 0.0098 -0.0117
vt 0.0098 -0.0215
vt 0.0098 -0.0322
vt 0.0098 -0.0215
vt 0.0098 -0.0352
vt 0.0098 -0.1064
vt -6.5000 0.0000
vt -6.2500 0.0000
vt -6.5000 0.0000
vt -4.0000 0.0000
vt -6.5000 0.0000
vt -6.2500 0.0000
vt -3.5000 8.0020
vt -6.5000 0.0000
vt -6.2500 0.0000
vt -3.5000 8.0020
vt -6.2500 0.0000
vt -2.7344 0.0000
vt -4.0000 0.0000
vt -6.2500 0.0000
vt -6.5000 0.0000
vt -6.2500 0.0000
vt -6.2500 0.0000
vt -6.5000 0.0000
vt -6.2500 0.0000
vt -3.5000 8.0020
f 19/19 17/17 16/16
f 1/1 3/3 20/20
f 31/31 30/30 28/28
f 1/1 2/2 3/3
f 4/4 2/2 1/1
f 1/1 2/2 3/3
f 2/2 4/4 3/3
f 10/10 2/2 11/11
f 12/12 10/10 11/11
