mtllib assets01_model_018.mtl
# Conker's Bad Fur Day — Real 3D Model (HUD & UI Props)
o assets01_model_018
usemtl assets01_model_018_mat

v 0.0000 33.8800 0.0000
v 0.0000 10.2400 -0.0100
v 10.2400 0.0000 -0.0100
v 5.1300 5.1400 -0.0100
v 0.0000 0.0000 -0.0100
v -0.0700 5.1400 -0.0100
v 10.3200 5.1400 -0.0100
v 6.5800 4.6800 -0.0100
v -0.0700 4.6800 -0.0100
v -0.1400 10.2200 -0.0100
v 3.2400 6.6600 -0.0100
v 9.2000 0.0300 -0.0100
v 1.2900 0.0100 -0.0100
v 8.7700 -0.0400 -0.0100
v 4.8600 6.5700 -0.0100
v 1.1900 -0.0600 -0.0100
v 6.5300 8.7100 -0.0100
v 9.3300 7.5700 -0.0100
v 3.4300 4.9900 -0.0100
v 1.3900 4.5500 -0.0100
v 7.6600 6.8800 -0.0100
v 1.1900 -0.0600 -0.0100
v 8.7700 -0.0400 -0.0100
v 1.2900 0.0100 -0.0100
v 4.4200 6.8400 -0.0100
v 9.2000 0.0300 -0.0100
v 6.2000 8.5000 -0.0100
v 0.0100 9.9700 -0.0100
v 10.2400 4.6900 -0.0100
v 0.0000 10.2400 -0.0100
v -0.1300 0.0100 -0.0100
v 4.1000 0.0400 -0.0100
v 4.3700 0.0300 -0.0100
v 8.7200 0.0100 -0.0100
v 6.0400 4.9100 -0.0100
v 6.4400 9.9900 -0.0100
v 0.0000 8.5200 -0.0100
v 5.2000 -0.1100 -0.0100
v 10.2300 0.0300 -0.0100
v 0.2000 5.6800 -0.0100
v 0.2000 0.1000 -0.0100
v 6.0500 9.1400 -0.0100
v 0.0300 9.8400 -0.0100
v 4.1000 0.0400 -0.0100
v 4.4200 10.1300 -0.0100
v 0.0000 0.0000 -0.0100
v 4.3700 0.0300 -0.0100
v 0.7100 4.6200 -0.0100
v 8.3600 0.0000 -0.0100
v 3.1600 0.8300 -0.0100
v 9.7900 3.2900 -0.0100
v -1.4600 5.0500 -0.0100
v 2.3200 10.1100 -0.0100
v 9.2800 9.0200 -0.0100
v 0.0000 5.1200 -0.0100
v 0.0000 0.0000 -0.0100
v 5.1200 5.1200 -0.0100
v 5.1200 0.0000 -0.0100
v 5.1200 0.0000 -0.0100
v 0.0000 5.1200 -0.0100
v 0.0000 0.0000 -0.0100
v 5.1200 5.1200 -0.0100
v 0.0000 5.1200 -0.0100
v 0.0000 0.0000 -0.0100
v 5.1200 5.1200 -0.0100
v 5.1200 0.0000 -0.0100
v 5.1200 0.0000 -0.0100
v 0.0000 5.1200 -0.0100
v 0.0000 0.0000 -0.0100
v 5.1200 5.1200 -0.0100
v 0.0000 5.1200 -0.0100
v 0.0000 0.0000 -0.0100
v 5.1200 5.1200 -0.0100
v 5.1200 0.0000 -0.0100
v 0.0000 5.1700 -0.0100
v 0.0000 0.0000 -0.0100
v 15.4300 5.1700 -0.0100
v 15.4300 0.0000 -0.0100
v 12.6800 5.1300 -0.0100
v -2.6100 5.1300 -0.0100
v 0.0400 5.1200 -0.0100
v 15.4100 5.1200 -0.0100
v 12.8000 0.0000 -0.0100
v -2.6600 0.0000 -0.0100
v 12.7700 5.1200 -0.0100
v -2.6900 5.1200 -0.0100
v 5.4000 3.5000 -0.0100
v -0.2600 3.5000 -0.0100
v 2.5400 5.6700 -0.0100
v 4.3700 0.0000 -0.0100
v 0.8700 0.0000 -0.0100
v 5.1200 5.1200 -0.0100
v 5.1300 2.5600 -0.0100
v 5.1300 2.5600 -0.0100
v 15.4300 5.1700 -0.0100
v 0.0000 0.0000 -0.0100
v 0.0000 5.1700 -0.0100
v 15.4300 0.0000 -0.0100
v -2.6100 5.1300 -0.0100
v 12.6800 5.1300 -0.0100
v 0.0400 5.1200 -0.0100
v 15.4100 5.1200 -0.0100
v 12.7700 5.1200 -0.0100
v -2.6600 0.0000 -0.0100
v 12.8000 0.0000 -0.0100
v -2.6900 5.1200 -0.0100
v 2.5400 5.6700 -0.0100
v -0.2600 3.5000 -0.0100
v 5.4000 3.5000 -0.0100
v 0.8700 0.0000 -0.0100
v 4.3700 0.0000 -0.0100
v 5.1200 5.1200 -0.0100
v 5.1300 2.5600 -0.0100
v 5.1300 2.5600 -0.0100
v 0.6100 8.2900 -0.0100
v 0.9100 1.9600 -0.0100
v 6.7300 10.4100 -0.0100
v 10.8100 5.3900 -0.0100
v 7.2200 0.1700 -0.0100
v 0.2700 5.0300 -0.0100
v 20.4000 3.0800 -0.0100
v 20.3200 3.3800 -0.0100
v 20.3200 3.3800 -0.0100
v 0.1200 2.6700 -0.0100
v 0.2700 5.0300 -0.0100
v 20.2600 2.5900 -0.0100
v 0.2800 0.3200 -0.0100
v 20.2600 2.5900 -0.0100
v 20.3200 1.8100 -0.0100
v 20.3200 1.8100 -0.0100
v 0.5400 1.2200 -0.0100
v 0.2800 0.3200 -0.0100
v 20.4000 2.1100 -0.0100
v 0.5300 4.1300 -0.0100
v 0.5300 4.1300 -0.0100
v 0.1200 2.6700 -0.0100
v 0.5400 1.2200 -0.0100
v 20.4000 2.1100 -0.0100
v 20.4000 3.0800 -0.0100
v 0.1600 0.1600 0.0000
v 0.1600 0.1600 0.0000
v 0.0000 6.1300 0.3200
v 0.6400 0.1600 0.0000
v -28.0800 20.4800 0.0900
v -7.5200 0.0000 0.0000
v -7.5200 0.0000 0.6400
v 12.9600 25.6800 0.0000
v -7.5200 0.0000 0.0000
v -33.2800 0.0000 18.2300
v -28.0800 20.4800 0.0900
v -7.5200 0.0000 0.6400
v -7.5200 0.0000 0.0000
v -33.2800 0.0000 18.2300
v 15.3600 5.1600 0.0400
v -7.5200 0.0000 0.6400
v -7.5200 0.0000 0.6400
v -7.5200 0.0000 0.6400
v -7.5200 0.0000 0.6400
v -7.5200 0.0000 0.0000
v -33.2800 0.0000 17.9900
v -7.5200 0.0000 0.6400
v -7.5200 0.0000 0.6400
v -7.5200 0.0000 0.0000
v -33.2800 0.0000 18.3400
v -28.0800 20.4800 0.0100
v -28.0800 11.5200 2.5700
v -28.0800 6.7200 5.1200
v -28.0800 6.8000 7.6800
v 15.3600 5.1600 0.0400
v -27.9200 0.0000 17.9200
v -33.2800 0.0000 18.5500
vt 0.0000 3.4023
vt 0.0635 0.0000
vt 0.0000 0.1953
vt -0.0635 0.1338
vt -0.0645 0.1875
vt 0.0645 0.1875
vt 0.0986 0.0664
vt 0.0635 0.0664
vt 0.0635 0.0000
vt 0.0840 0.0928
vt -0.0986 0.1240
vt -0.0635 0.1338
vt 0.0645 0.1875
vt 0.0635 0.1338
vt 0.0986 0.1240
vt 0.0986 0.1240
vt 0.1299 0.0752
vt 0.1299 0.0947
vt 0.1299 0.0947
vt 0.0840 0.0928
vt 0.1299 0.0752
vt 0.0635 0.1338
vt -0.0645 0.1875
vt -0.0635 0.1338
vt -0.0986 0.1240
vt -0.0986 0.1240
vt -0.0635 0.0000
vt 0.0635 0.0664
vt -0.0635 0.0000
vt 0.0635 0.1338
vt 0.0000 0.2168
vt 0.0645 0.1875
vt 0.0000 0.1953
vt 0.0635 0.0000
vt 0.0986 0.0000
vt -0.0986 0.1240
vt -0.0635 0.0000
vt 0.0645 0.1875
vt -0.0635 0.1338
vt -0.0645 0.1875
vt 0.0986 0.1240
vt 0.0635 0.1338
vt 0.0000 0.2168
vt 0.0645 0.1875
vt 0.0000 0.1953
vt 0.0000 0.2168
vt -0.0645 0.1875
vt -0.0645 0.1875
vt 0.0645 -0.0557
vt 0.0000 -0.0352
vt 0.1045 -0.0010
vt 0.0645 0.0537
vt 0.0000 0.0322
vt 0.0000 0.0322
vt 0.0000 0.0322
vt 0.0645 0.0537
vt 0.0645 0.0537
vt 0.1045 -0.0010
vt 0.0645 0.0537
vt 0.0645 0.0537
vt 0.1045 -0.0010
vt 0.1045 -0.0010
vt 0.1045 -0.0010
vt 0.0645 -0.0557
vt 0.0645 -0.0557
vt 0.0000 -0.0352
vt 0.0645 -0.0557
vt 0.0645 -0.0557
vt 0.0000 -0.0352
vt 0.0000 -0.0352
vt 0.0000 -0.0352
vt 0.0000 0.0322
vt 0.0000 0.0322
vt 0.0361 -0.0381
vt 0.0703 0.0156
vt 0.0088 0.0449
vt 0.0527 0.0137
vt 0.0527 0.0137
vt 0.0703 0.0156
vt 0.0361 -0.0381
vt -0.0176 -0.0381
vt -0.0342 0.0137
vt -0.0342 0.0156
vt 0.0088 0.0449
vt 0.0176 0.0527
vt 0.0527 0.0137
vt 0.0703 0.0156
vt 0.0176 0.0527
vt -0.0146 -0.0459
vt 0.0498 -0.0459
vt 0.0361 -0.0381
vt -0.0205 -0.0010
vt 0.0088 -0.0303
vt 0.0176 -0.0381
vt -0.0703 0.0156
vt -0.0176 0.0527
vt -0.0527 0.0137
vt -0.0361 -0.0381
vt -0.0527 0.0137
vt -0.0498 -0.0459
vt 0.0342 0.0137
vt -0.0088 0.0449
vt 0.0342 0.0156
vt 0.0342 0.0137
vt -0.0176 0.0527
vt -0.0088 0.0449
vt -0.0703 0.0156
vt 0.0342 0.0156
vt -0.0498 -0.0459
vt 0.0146 -0.0459
vt -0.0361 -0.0381
vt 0.0127 0.0000
vt -0.0088 -0.0303
vt 0.0000 0.0322
vt 0.0000 -0.0352
vt 0.0645 0.0537
vt 0.1045 -0.0010
vt 0.0645 -0.0557
vt 0.0908 0.1367
vt 0.0137 0.0225
vt 0.0586 0.0371
vt 0.0586 0.0371
vt 0.1914 -0.0010
vt 0.0908 0.1367
vt 0.0869 -0.0010
vt 0.0908 -0.1387
vt 0.0869 -0.0010
vt 0.0586 -0.0391
vt 0.0586 -0.0391
vt -0.0703 -0.0859
vt 0.0908 -0.1387
vt 0.0137 -0.0244
vt -0.0703 0.0840
vt -0.0703 0.0840
vt 0.1914 -0.0010
vt -0.0703 -0.0859
vt 0.0137 -0.0244
vt 0.0137 0.0225
vt 0.0000 3.5234
vt 0.0000 4.5684
vt 0.0000 3.0322
vt 0.0000 0.0508
vt -6.2500 0.0000
vt -3.5000 8.0020
vt -2.7344 0.0000
vt -4.0000 0.0000
vt -6.2500 0.0000
vt -6.5000 0.0000
vt -6.2500 0.0000
vt -3.5000 8.0020
vt -4.0000 0.0000
vt -6.5000 0.0000
vt -6.2500 0.0000
vt 1.2559 0.5078
vt -4.0000 0.0000
vt -4.0000 0.0000
vt -4.0000 0.0000
vt -4.0000 0.0000
vt -6.5000 0.0000
vt -6.2500 0.0000
vt -4.0000 0.0000
vt -4.0000 0.0000
vt -6.5000 0.0000
vt -6.2500 0.0000
vt -3.5000 8.0020
vt -3.5000 8.0020
vt -3.5000 8.0020
vt -3.5000 8.0020
vt 1.2559 0.5078
vt -6.5000 0.0000
vt -6.2500 0.0000
f 4/4 1/1 1/1
f 60/60 60/60 128/128
f 4/4 2/2 3/3
f 60/60 60/60 128/128
f 4/4 2/2 3/3
f 128/128 128/128 128/128
f 4/4 1/1 1/1
f 128/128 128/128 128/128
f 1/1 1/1 1/1
f 60/60 60/60 128/128
f 3/3 2/2 1/1
f 128/128 128/128 128/128
f 1/1 1/1 1/1
f 4/4 2/2 3/3
f 60/60 60/60 128/128
f 4/4 1/1 1/1
f 60/60 60/60 128/128
f 4/4 2/2 3/3
f 128/128 128/128 128/128
f 4/4 1/1 1/1
f 128/128 128/128 128/128
f 1/1 1/1 1/1
f 60/60 60/60 128/128
f 3/3 2/2 1/1
f 128/128 128/128 128/128
f 1/1 1/1 1/1
f 1/1 2/2 3/3
f 3/3 2/2 4/4
f 5/5 6/6 7/7
f 8/8 7/7 6/6
f 9/9 6/6 5/5
f 23/23 25/25 26/26
f 27/27 28/28 29/29
f 30/30 27/27 29/29
f 11/11 12/12 13/13
f 12/12 11/11 14/14
f 15/15 16/16 17/17
f 16/16 15/15 18/18
f 18/18 15/15 19/19
f 32/32 31/31 30/30
f 18/18 17/17 16/16
f 19/19 17/17 18/18
f 12/12 11/11 20/20
f 1/1 2/2 3/3
f 3/3 2/2 4/4
f 4/4 2/2 5/5
f 22/22 23/23 24/24
f 24/24 23/23 25/25
f 17/17 18/18 19/19
f 19/19 18/18 20/20
f 25/25 29/29 26/26
f 30/30 24/24 21/21
f 17/17 18/18 19/19
f 20/20 18/18 17/17
f 26/26 28/28 27/27
f 23/23 24/24 30/30
f 1/1 2/2 3/3
f 3/3 2/2 4/4
f 4/4 2/2 5/5
