mtllib assets09_model_103.mtl
# Conker's Bad Fur Day — Real 3D Model (Multiplayer Level Models)
o assets09_model_103
usemtl assets09_model_103_mat

v 0.0000 14.6400 0.0000
v 3.8200 0.6400 -0.0100
v 3.8200 0.6400 -0.0100
v 0.0200 7.0700 -0.0100
v 0.8500 4.1800 -0.0100
v 0.0200 7.0700 -0.0100
v 0.8500 4.1800 -0.0100
v 0.9500 0.4400 -0.0100
v 0.0000 0.0000 -0.0100
v 5.1200 4.8100 -0.0100
v 0.0000 4.8100 -0.0100
v 5.1200 0.0000 -0.0100
v 4.6800 0.8200 -2.5800
v 0.3900 0.8600 -2.5800
v 3.8200 4.8700 -2.5800
v 4.6500 0.8400 -2.5800
v 3.8700 0.9900 -2.5800
v 3.9000 0.9700 -2.5800
v 2.1900 5.1500 -2.5800
v 0.5600 1.0200 -2.5800
v 2.7300 0.2700 -2.5800
v 3.8800 0.2600 -2.5800
v 3.8700 10.7500 -2.5800
v 2.7200 10.7500 -2.5800
v 1.4900 10.7500 -2.5800
v 2.6400 10.7500 -2.5800
v 2.6500 0.2600 -2.5800
v 1.5000 0.2600 -2.5800
v 0.0000 5.1200 -2.5800
v 5.1200 5.1200 -2.5800
v 0.0000 0.0000 -2.5800
v 0.0000 5.1200 -2.5800
v 0.0000 0.0000 -2.5800
v 5.1200 5.1200 -2.5800
v 5.1200 0.0000 -2.5800
v 5.1200 0.0000 -2.5800
v -28.0000 0.0000 17.9200
v -33.2800 0.0000 18.5500
v -28.1600 2.5600 15.3600
v -7.5200 0.0000 0.6400
v -7.5200 0.0000 0.0000
v -33.2800 0.0000 18.0700
v -28.0800 10.2400 0.0100
v -27.9200 0.0000 17.9200
v -33.2800 0.0000 18.0700
v -27.9200 20.4800 0.0100
v 15.3600 5.1600 0.0600
v -7.5200 0.0000 0.0000
v -7.5200 0.0000 0.6400
v 15.3600 5.1600 0.0200
v -7.5200 0.0000 0.0000
v -33.2800 0.0000 17.9900
v 15.5400 5.3200 0.2200
v -7.5200 0.0000 0.0000
v -33.2800 0.0000 18.0700
v -28.0800 10.2400 0.0100
v -7.5200 0.0000 0.0000
v -33.2800 0.0000 17.9900
v -28.0800 10.2400 0.0100
v -7.5200 0.0000 0.6400
v -7.5200 0.0000 0.0000
v -33.2800 0.0000 17.9900
v -28.0800 10.2400 0.0100
vt 0.0000 0.0000
vt 0.0039 -0.0225
vt 0.0098 -0.0039
vt 0.0098 -0.0098
vt 0.0029 -0.0107
vt 0.0098 -0.0098
vt 0.0098 -0.0117
vt 0.0098 -0.0215
vt 0.0098 -0.0322
vt 0.0098 -0.0215
vt 0.0098 -0.0352
vt 0.0098 -0.1064
vt 0.0088 -0.0469
vt 0.0088 -0.0371
vt 0.0117 -0.0430
vt 0.0117 -0.0273
vt 0.0059 -0.0273
vt 0.0088 -0.0205
vt 0.0088 -0.0312
vt 0.0029 -0.0479
vt 0.0088 -0.0449
vt 0.0088 -0.0088
vt 0.0029 -0.0117
vt 0.0088 -0.0146
vt 0.0146 -0.0117
vt 0.0146 -0.0479
vt 0.0088 -0.0508
vt 0.0088 -0.0088
vt 0.0146 -0.0117
vt 0.0029 -0.0117
vt 0.0088 -0.0449
vt 0.0029 -0.0479
vt 0.0146 -0.0479
vt 0.0088 -0.0508
vt 0.0088 -0.0146
vt 0.0000 1.4375
vt -6.5000 0.0000
vt -6.2500 0.0000
vt -6.5000 0.0000
vt -4.0000 0.0000
vt -6.5000 0.0000
vt -6.2500 0.0000
vt -3.5000 8.0020
vt -6.5000 0.0000
vt -6.2500 0.0000
vt -3.5000 8.0020
vt -6.2500 0.0000
vt -2.7344 0.0000
vt -4.0000 0.0000
vt -6.2500 0.0000
vt -6.5000 0.0000
vt -6.2500 0.0000
vt -6.2500 0.0000
vt -6.5000 0.0000
vt -6.2500 0.0000
vt -3.5000 8.0020
vt -6.5000 0.0000
vt -6.2500 0.0000
vt -3.5000 8.0020
vt -4.0000 0.0000
vt -6.5000 0.0000
vt -6.2500 0.0000
vt -3.5000 8.0020
f 19/19 17/17 16/16
f 1/1 3/3 20/20
f 31/31 30/30 28/28
f 1/1 2/2 3/3
f 4/4 2/2 1/1
f 1/1 2/2 3/3
f 2/2 4/4 3/3
f 10/10 2/2 11/11
f 12/12 10/10 11/11
f 8/8 5/5 7/7
f 6/6 8/8 7/7
