mtllib assets09_model_161.mtl
# Conker's Bad Fur Day — Real 3D Model (Multiplayer Level Models)
o assets09_model_161
usemtl assets09_model_161_mat

v 0.0000 1.6800 0.0000
v 5.1200 5.1200 -0.0100
v 5.1200 2.5600 -0.0100
v 5.1200 0.0000 -0.0100
v 2.5600 0.0000 -0.0100
v 0.0000 0.0000 -0.0100
v 0.0000 2.5600 -0.0100
v 0.0000 5.1200 -0.0100
v 2.5600 5.1200 -0.0100
v 2.5600 2.5600 -0.0100
v -27.9200 20.4800 0.0900
v -7.4400 0.0000 0.0000
v -3.8600 -3.8600 -3.8600
v -3.8600 0.0000 0.0000
vt 0.0000 0.1680
vt 0.0391 0.0000
vt 0.0430 0.0000
vt 0.0000 0.0000
vt -0.0439 0.0000
vt -0.0371 0.0000
vt -0.0430 0.0000
vt 0.0000 0.0000
vt 0.0000 0.0000
vt 0.0000 0.3125
vt -3.5000 8.0020
vt -2.7266 0.0000
vt -0.3770 -0.3770
vt 0.0000 0.0000
f 1/1 2/2 3/3
f 4/4 5/5 6/6
f 7/7 8/8 9/9
f 10/10 11/11 12/12
