mtllib assets09_model_115.mtl
# Conker's Bad Fur Day — Real 3D Model (Multiplayer Level Models)
o assets09_model_115
usemtl assets09_model_115_mat

v 0.0000 1.8400 0.0000
v 0.1700 15.6400 -0.0100
v 2.5800 15.6200 -0.0100
v 2.3400 0.4100 -0.0100
v 2.5800 15.6200 -0.0100
v 5.0000 15.6000 -0.0100
v 2.3400 0.4100 -0.0100
v 2.6500 20.3200 -0.0100
v 0.4400 20.3400 -0.0100
v 2.6500 20.3200 -0.0100
v 4.8700 20.3000 -0.0100
v -28.0000 0.0000 17.9200
v -33.2800 0.0000 18.2300
v -28.1600 2.5600 15.3600
v -7.5200 0.0000 0.6400
vt 0.0000 0.0000
vt 0.0059 -0.0029
vt 0.0059 -0.0166
vt 0.0059 -0.0303
vt 0.0205 -0.0166
vt 0.0059 -0.0166
vt 0.0059 -0.0039
vt -0.0068 -0.0166
vt 0.0059 -0.0293
vt 0.0195 -0.0166
vt 0.0000 0.1875
vt -6.5000 0.0000
vt -6.2500 0.0000
vt -6.5000 0.0000
vt -4.0000 0.0000
f 7/7 8/8 10/10
f 8/8 9/9 10/10
