mtllib assets09_model_054.mtl
# Conker's Bad Fur Day — Real 3D Model (Multiplayer Level Models)
o assets09_model_054
usemtl assets09_model_054_mat

v 0.0000 4.2400 0.0000
v 5.8800 8.9400 -0.0100
v 6.0300 12.7600 -0.0100
v 3.4100 9.1300 -0.0100
v 8.3800 9.7500 -0.0100
v -28.0000 0.0000 17.9200
v -33.2800 0.0000 18.5500
v -28.1600 2.5600 15.3600
v -7.5200 0.0000 0.6400
v -7.5200 0.0000 0.6400
vt 0.0000 0.0000
vt 0.0059 -0.0664
vt -0.0059 -0.0664
vt -0.0146 -0.0684
vt 0.0098 -0.0752
vt -6.5000 0.0000
vt -6.2500 0.0000
vt -6.5000 0.0000
vt -4.0000 0.0000
vt -4.0000 0.0000
f 1/1 2/2 3/3
f 4/4 5/5 6/6
f 7/7 8/8 9/9
