# Conker's Bad Fur Day — Real 3D Model (HUD & UI Props)
o assets01_model_027

v 0.0000 3.1600 0.0000
v 0.0000 6.0800 0.0000
v 2.0100 2.5800 -2.5800
v 5.2900 2.6000 -2.5800
v 5.3200 7.6200 -2.5800
v 2.0400 7.6000 -2.5800
v 8.5800 2.6200 -2.5800
v 8.6100 7.6400 -2.5800
v 5.2900 2.6000 -2.5800
v 5.3200 7.6200 -2.5800
v 5.2800 0.0900 -2.5800
v 5.3400 10.1300 -2.5800
v 5.2700 9.1900 -2.5800
v 3.7600 9.2300 -2.5800
v 5.2700 11.6800 -2.5800
v 6.7800 9.1500 -2.5800
v 5.2700 11.6800 -2.5800
v 5.2700 9.1900 -2.5800
v 0.0000 27.3200 0.3200
v -7.5200 0.0000 0.0000
v -28.0800 20.4800 0.0900
v 0.0000 0.0000 1.4600
vt 0.0000 0.3242
vt 0.0000 0.0000
vt 0.0000 0.0186
vt 0.0000 0.0186
vt 0.0186 0.0000
vt -0.0186 0.0000
vt -0.0186 0.0000
vt 0.0000 -0.0186
vt 0.0000 -0.0186
vt 0.0000 0.0000
vt 0.0000 0.0000
vt 0.0000 -0.0088
vt 0.0088 0.0000
vt 0.0000 0.0000
vt -0.0088 0.0000
vt 0.0000 0.0000
vt 0.0000 0.0088
vt 0.0000 0.3359
vt -6.2500 0.0000
vt -2.7344 0.0000
vt -2.7422 1.1250
vt 14.3057 -27.5000
f 1/1 2/2 3/3
f 4/4 5/5 6/6
f 7/7 8/8 9/9
f 10/10 11/11 12/12
f 13/13 14/14 15/15
f 16/16 17/17 18/18
f 19/19 20/20 21/21
