mtllib assets10_model_039.mtl
# Conker's Bad Fur Day — Real 3D Model (Spooky Models)
o assets10_model_039
usemtl assets10_model_039_mat

v 0.0000 2.0000 0.0000
v 0.0000 2.3200 0.0000
v 0.0000 2.6400 0.0000
v 0.0000 2.9600 0.0000
v 0.0000 3.5200 0.0000
v 0.0000 4.3200 0.0000
v 0.0000 5.1200 0.0000
v 0.0000 5.9200 0.0000
v 0.0000 6.7200 0.0000
v 0.0000 7.5200 0.0000
v 0.0000 8.3200 0.0000
v 0.0000 9.1200 0.0000
v 0.0000 9.9200 0.0000
v 1.5800 1.8700 0.6900
v 1.5800 1.8700 0.6900
v 1.5800 1.8700 0.6900
v 0.3700 1.8700 -1.0300
v -0.0400 1.8700 -0.7100
v 1.5800 1.8700 0.6900
v -7.6600 2.9100 -17.2800
v -12.3100 4.1200 -14.5900
v -0.3100 10.0200 -25.5500
v 4.8700 14.4700 -12.3800
v 6.4400 7.9700 -16.1900
v 7.4900 3.4200 -17.5500
v -3.0200 5.9700 -17.3600
v 27.9100 3.5700 -3.3100
v 16.3000 5.4700 3.0900
v 15.7000 4.9200 -7.6000
v 16.1600 7.6700 4.6200
v 14.0800 10.3200 3.5300
v 20.7100 2.7700 18.9600
v 8.3100 11.7700 8.1000
v 12.6000 5.9200 2.8600
v -13.6500 4.7200 12.4800
v -6.1000 8.9700 10.8200
v -23.6500 10.0700 7.5500
v -16.5300 8.5700 -1.3500
v -14.4300 11.7200 5.0100
v -17.7100 3.9700 -2.1200
v -17.4900 4.2200 -6.7400
v -11.7100 3.5700 -24.3200
v -13.0300 6.1700 -13.7900
v -8.6200 8.6200 -15.3200
v -0.3800 3.5700 -17.4800
v -4.9900 4.5200 -16.7500
v -1.4300 9.9700 -23.8600
v 1.5100 10.6700 -15.7200
v 10.4200 5.2200 -13.9900
v 18.6600 4.8700 -2.4300
v 13.4900 8.5200 -9.9700
v 23.3800 9.2700 6.6500
v 18.7200 3.3200 -2.0200
v 12.1700 10.2700 10.0900
v 10.7400 3.5200 14.9600
v 16.4700 6.3200 3.9000
v -18.6500 3.1700 18.1300
v 8.8300 4.5200 14.2300
v 8.1100 9.5700 14.6700
v -14.9700 9.2700 5.4300
v -12.5300 7.9200 -8.6800
v -27.8500 3.2200 -5.6000
v -15.1100 8.9700 -5.7300
vt 0.0000 0.2109
vt 0.0000 0.2422
vt 0.0000 0.2734
vt 0.0000 0.3047
vt 0.0000 0.3828
vt 0.0000 0.4609
vt 0.0000 0.5391
vt 0.0000 0.6172
vt 0.0000 0.6953
vt 0.0000 0.7734
vt 0.0000 0.8516
vt 0.0000 0.9297
vt 0.0000 0.0000
vt 0.1543 0.1826
vt 0.1543 0.1826
vt 0.0361 0.1826
vt -0.0039 0.1826
vt 0.1543 0.1826
vt -1.0752 0.3389
vt -0.0225 0.5342
vt -0.5664 0.9248
vt -0.0732 0.8223
vt -0.7334 1.2568
vt 1.1230 0.3535
vt 1.3105 0.7441
vt 0.4131 1.0420
vt 1.7090 0.3486
vt 1.5693 0.8711
vt 2.2842 0.9639
vt 1.3721 0.4072
vt 1.4551 0.8662
vt 0.4248 1.1494
vt 1.1455 0.8564
vt -2.0605 0.3096
vt -0.1914 0.4707
vt -1.1426 0.8760
vt -1.6846 0.7344
vt -1.4980 0.4414
vt -2.5654 0.3730
vt -1.4004 0.3389
vt -1.7256 0.4121
vt -0.7002 0.3486
vt -0.2236 0.6025
vt -0.1953 0.9785
vt 0.4160 0.4414
vt -0.0625 0.7344
vt 0.7705 0.9834
vt -0.4170 0.6074
vt 2.6475 0.3291
vt 1.1162 0.4756
vt 1.5430 0.9834
vt 1.8652 0.3242
vt 1.6768 0.8760
vt 1.8662 0.3926
vt 0.5000 0.6172
vt 1.1670 0.8564
vt -0.7051 0.3096
vt 0.1309 0.9346
vt -2.2734 0.9492
vt -0.9512 0.7734
vt -1.2930 1.2227
vt -1.1602 0.5732
vt -1.2842 1.1982
f 48/48 2/2 18/18
f 27/27 1/1 1/1
f 36/36 2/2 63/63
f 18/18 1/1 1/1
f 5/5 1/1 1/1
f 35/35 2/2 43/43
f 20/20 1/1 1/1
f 56/56 2/2 61/61
