# Conker's Bad Fur Day — Real 3D Model (Sloprano Models)
o assets0E_model_004

v 20.4800 0.0000 0.0000
v 20.4800 0.0000 0.0000
v 20.4800 0.0000 0.0000
v 20.4800 0.0000 0.0000
v 20.4800 0.0000 0.0000
v 20.4800 0.0000 0.0000
v 20.4800 0.0000 0.0000
v 20.4800 0.0000 0.0000
v 20.4800 0.0000 0.0000
v 20.4800 0.0000 0.0000
v 20.4800 0.0000 0.0000
v 20.4800 0.0000 0.0000
v 20.4800 0.0000 0.0000
v 20.4800 0.0000 0.0000
v 20.4800 0.0000 0.0000
v 20.4800 0.0000 0.0000
v 20.4800 0.0000 0.0000
v 20.4800 0.0000 0.0000
v 20.4800 0.0000 0.0000
v 20.4800 0.0000 0.0000
v 20.4800 0.0000 0.0000
v 20.4800 0.0000 0.0000
v 20.4800 0.0000 0.0000
v 20.4800 0.0000 0.0000
v 20.4800 0.0000 0.0000
v 20.4800 0.0000 0.0000
v 20.4800 0.0000 0.0000
v 20.4800 0.0000 0.0000
v 20.4800 0.0000 0.0000
v 20.4800 0.0000 0.0000
v 20.4800 0.0000 0.0000
v 20.4800 0.0000 0.0000
v 20.4800 0.0000 0.0000
v 20.4800 0.0000 0.0000
v 20.4800 0.0000 0.0000
v 20.4800 0.0000 0.0000
v 20.4800 0.0000 0.0000
v 20.4800 0.0000 0.0000
v 20.4800 0.0000 0.0000
vt 0.0000 0.0635
vt 0.0000 0.0635
vt 0.0000 0.0635
vt 0.0000 0.0635
vt 0.0000 0.0635
vt 0.0000 0.0635
vt 0.0000 0.0635
vt 0.0000 0.0635
vt 0.0000 0.0635
vt 0.0000 0.0635
vt 0.0000 0.0674
vt 0.0000 0.0635
vt 0.0000 0.0635
vt 0.0000 0.0635
vt 0.0000 0.0635
vt 0.0000 0.0635
vt 0.1250 0.0654
vt 0.0000 0.0635
vt 0.0000 0.0635
vt 0.0000 0.0635
vt 0.0000 0.0635
vt 0.0000 0.0635
vt 0.0000 0.0635
vt 0.0000 0.0635
vt 0.0000 0.0635
vt 0.0000 0.0654
vt 0.0000 0.0654
vt 0.0000 0.0654
vt 0.0000 0.0654
vt 0.0000 0.0654
vt 0.0000 0.0654
vt 0.0000 0.0654
vt 0.0000 0.0654
vt 0.0000 0.0635
vt 0.0000 0.0635
vt 0.0000 0.0635
vt 0.0000 0.0635
vt 0.0000 0.0635
vt 0.0000 0.0635
f 1/1 1/1 1/1
f 1/1 6/6 5/5
f 1/1 6/6 5/5
f 1/1 6/6 5/5
f 1/1 6/6 5/5
