# Conker's Bad Fur Day — Real 3D Model (Multiplayer Level Models)
o assets09_model_135

v 0.0000 9.5200 0.0000
v 0.0000 0.0000 -0.8600
v 0.0000 0.0000 -2.5600
v 0.0000 0.0000 -2.5600
v 0.0000 0.0000 -0.8600
v 0.0000 0.0000 -0.0100
v 0.0000 0.0000 -0.0100
v 0.0000 0.0000 -0.8600
v 0.0000 0.0000 -0.0100
v 0.0000 0.0000 -0.0100
v 0.0000 0.0000 -0.8600
v 0.0000 0.0000 -2.5600
v 0.0000 0.0000 -2.5600
v 0.0000 0.0000 -2.5800
v 0.0000 0.0000 -2.5800
v 0.0000 0.0000 -2.5800
v 0.0000 0.0000 -2.5800
v 2.8900 3.3500 -2.5800
v 1.6900 8.9600 -2.5800
v 7.0300 7.2000 -2.5800
v 8.2400 1.5900 -2.5800
v 12.3800 5.4400 -2.5800
v 11.1800 11.0500 -2.5800
v 0.0000 0.0000 -2.5800
v 0.0000 0.0000 -2.5800
v 5.8300 12.8100 -2.5800
v 11.1800 11.0500 -2.5800
v 7.0300 7.2000 -2.5800
v 1.6900 8.9600 -2.5800
v 1.6600 2.2000 -2.5800
v 0.0900 9.4800 -2.5800
v 2.8900 3.3500 -2.5800
v 8.6000 -0.0800 -2.5800
v 8.2400 1.5900 -2.5800
v 13.9800 4.9200 -2.5800
v 12.3800 5.4400 -2.5800
v 12.4100 12.2000 -2.5800
v 5.4700 14.4900 -2.5800
v 1.6900 8.9600 -2.5800
v 5.8300 12.8100 -2.5800
v 5.4700 14.4900 -2.5800
v 0.0900 9.4800 -2.5800
v 11.1800 11.0500 -2.5800
v 12.4100 12.2000 -2.5800
v 12.3800 5.4400 -2.5800
v 13.9800 4.9200 -2.5800
v 8.2400 1.5900 -2.5800
v 8.6000 -0.0800 -2.5800
v 2.8900 3.3500 -2.5800
v 1.6600 2.2000 -2.5800
v 7.0300 7.2000 -2.5800
v -28.0000 0.0000 17.9200
v -33.2800 0.0000 18.5700
v -28.1600 2.5600 15.3600
v -7.5200 0.0000 0.6400
v 0.0000 -29.2500 31.8100
vt 0.0000 0.9336
vt 0.0176 -0.0020
vt 0.0107 0.0146
vt -0.0078 0.0166
vt -0.0176 0.0020
vt -0.0107 -0.0146
vt 0.0078 -0.0166
vt -0.0107 -0.0146
vt -0.0176 0.0020
vt -0.0078 0.0166
vt 0.0107 0.0146
vt 0.0176 -0.0020
vt 0.0010 0.0059
vt 0.0068 -0.0010
vt 0.0068 -0.0010
vt 0.0010 0.0059
vt -0.0010 -0.0068
vt -0.0059 0.0127
vt 0.0000 0.0000
vt -0.0078 -0.0117
vt 0.0059 -0.0127
vt 0.0137 -0.0020
vt 0.0068 0.0020
vt 0.0068 -0.0010
vt -0.0010 0.0029
vt 0.0137 -0.0020
vt 0.0000 0.0000
vt -0.0059 0.0127
vt -0.0176 0.0020
vt -0.0078 0.0166
vt -0.0137 0.0010
vt -0.0107 -0.0146
vt -0.0078 -0.0117
vt 0.0078 -0.0166
vt 0.0059 -0.0127
vt 0.0176 -0.0020
vt 0.0107 0.0146
vt -0.0059 0.0127
vt 0.0078 0.0107
vt 0.0107 0.0146
vt -0.0078 0.0166
vt 0.0137 -0.0020
vt 0.0176 -0.0020
vt 0.0059 -0.0127
vt 0.0078 -0.0166
vt -0.0078 -0.0117
vt -0.0107 -0.0146
vt -0.0137 0.0010
vt -0.0176 0.0020
vt 0.0000 0.0000
vt 0.0000 1.0000
vt -6.5000 0.0000
vt -6.2500 0.0000
vt -6.5000 0.0000
vt -4.0000 0.0000
vt -19.7529 -10.6846
f 19/19 13/13 16/16
f 19/19 16/16 20/20
