mtllib assets0A_model_026.mtl
# Conker's Bad Fur Day — Real 3D Model (Bat's Tower Level Models)
o assets0A_model_026
usemtl assets0A_model_026_mat

v 0.0000 0.8000 0.0000
v 0.0000 0.9600 0.0000
v 0.0000 2.4000 0.0000
v 0.0000 3.3600 0.0000
v 0.0000 5.6000 0.0000
v 0.0200 0.1100 0.0000
v 0.0200 0.4800 0.0900
v -2.5200 0.0000 0.0000
v 19.2600 2.5500 -33.3000
v -1.1200 1.3000 2.5500
v 1.4700 1.8800 10.1200
v 0.0200 0.4100 0.0600
v -9.6700 6.5700 -9.1200
v -9.1200 -9.6700 6.5700
v 6.5700 -9.1200 -9.6700
v -9.6700 6.5700 -9.1200
v 0.0200 1.2900 0.0600
v 7.3500 3.3000 6.3200
v 6.3200 7.3500 3.3000
v 3.3000 6.3200 7.3500
v 7.3500 3.3000 6.3200
v 6.3200 7.3500 3.3000
v 3.3000 6.3200 7.3500
v 7.3500 3.3000 6.3200
v 6.3200 7.3500 3.3000
v 3.3000 6.3200 7.3500
v 7.3500 3.3000 6.3200
v 6.3200 7.3500 3.3000
v 3.3000 6.3200 7.3500
v 0.0200 1.2200 0.0600
v 10.0100 3.3500 4.4400
v 4.4400 10.0100 3.3500
v 3.3500 4.4400 10.0100
v 10.0100 3.3500 4.4400
v 4.4400 10.0100 3.3500
v 3.3500 4.4400 10.0100
v 10.0100 3.3500 4.4400
v 4.4400 10.0100 3.3500
v 3.3500 4.4400 10.0100
v 10.0100 3.3500 4.4400
v 4.4400 10.0100 3.3500
vt 0.0000 0.0938
vt 0.0000 0.1172
vt 0.0000 0.2578
vt 0.0000 0.3516
vt 0.0000 0.5703
vt 0.7500 0.0000
vt 0.7500 -32.0000
vt 0.0000 -0.2129
vt -26.2490 -30.5000
vt 4.2490 -14.9922
vt 0.0000 -27.5000
vt 0.7500 -32.0000
vt 0.6416 -0.8906
vt -0.9443 0.6416
vt -0.8906 -0.9443
vt 0.6416 0.0000
vt 0.7500 -32.0000
vt 0.3223 0.6172
vt 0.7178 0.3223
vt 0.6172 0.7178
vt 0.3223 0.6172
vt 0.7178 0.3223
vt 0.6172 0.7178
vt 0.3223 0.6172
vt 0.7178 0.3223
vt 0.6172 0.7178
vt 0.3223 0.6172
vt 0.7178 0.3223
vt 0.6172 0.7178
vt 0.7500 -32.0000
vt 0.3271 0.4336
vt 0.9775 0.3271
vt 0.4336 0.9775
vt 0.3271 0.4336
vt 0.9775 0.3271
vt 0.4336 0.9775
vt 0.3271 0.4336
vt 0.9775 0.3271
vt 0.4336 0.9775
vt 0.3271 0.4336
vt 0.9775 0.3271
f 1/1 2/2 3/3
f 4/4 5/5 6/6
f 7/7 8/8 9/9
f 10/10 11/11 12/12
f 13/13 14/14 15/15
f 16/16 17/17 18/18
f 19/19 20/20 21/21
f 22/22 23/23 24/24
f 25/25 26/26 27/27
f 28/28 29/29 30/30
f 31/31 32/32 33/33
f 34/34 35/35 36/36
f 37/37 38/38 39/39
