mtllib assets09_model_311.mtl
# Conker's Bad Fur Day — Real 3D Model (Multiplayer Level Models)
o assets09_model_311
usemtl assets09_model_311_mat

v 0.0000 8.5600 0.0000
v -27.3600 0.0000 17.9200
v -27.4400 20.4800 0.0100
v -7.5200 0.0000 0.6400
v -6.8800 0.0000 0.0000
v -27.4400 10.2400 0.0900
v -7.5200 0.0000 0.6400
v -6.8800 0.0000 0.0000
v -27.4400 20.4800 0.0900
v -7.5200 0.0000 0.6400
v 12.9000 15.4800 0.0000
v -6.8800 0.0000 0.0000
v -7.5200 0.0000 0.6400
vt 0.0000 0.0000
vt -3.2500 0.0000
vt -3.4375 9.0020
vt -2.6562 0.2500
vt -3.2500 0.0000
vt -3.4375 9.0020
vt -6.5000 0.0000
vt -3.2500 0.0000
vt -3.4375 9.0020
vt -6.5000 0.0000
vt -6.2500 0.0000
vt -3.2500 0.0000
vt -6.5000 0.0000
f 6/6 4/4 7/7
