# Conker's Bad Fur Day — Real 3D Model (Multiplayer Level Models)
o assets09_model_087

v 0.0000 10.3200 0.0000
v 0.3400 8.9300 -0.0100
v 2.2100 2.5500 -0.0100
v 8.7200 8.3800 -0.0100
v 10.5900 2.0100 -0.0100
v 0.3400 8.9300 -0.0100
v 8.7200 8.3800 -0.0100
v 2.2100 2.5500 -0.0100
v 10.5900 2.0100 -0.0100
v 1.4200 1.5900 -0.0100
v 6.0100 0.6700 -0.0100
v 1.9000 3.9900 -0.0100
v 6.4900 3.0800 -0.0100
v 20.3500 6.1500 -0.0100
v 20.3500 3.7000 -0.0100
v 20.3500 3.7000 -0.0100
v 11.0400 6.2900 -0.0100
v 10.5800 3.8400 -0.0100
v 11.0400 6.2900 -0.0100
v 10.5800 3.8400 -0.0100
v 9.7900 8.0500 -0.0100
v 9.7900 8.0500 -0.0100
v 20.3500 6.1500 -0.0100
v 16.2300 6.2100 -0.0100
v 19.6300 6.1600 -0.0100
v 20.3500 7.2500 -0.0100
v 19.6300 7.2600 -0.0100
v 16.2300 6.2100 -0.0100
v 19.6300 6.1600 -0.0100
v 15.0700 3.7700 -0.0100
v 15.0700 3.7700 -0.0100
v 12.3300 3.8200 -0.0100
v 12.3300 3.8200 -0.0100
v 2.1600 2.5600 -0.0100
v 5.1200 2.5600 -0.0100
v 2.1600 0.0000 -0.0100
v 5.1200 0.0000 -0.0100
v 2.1600 2.5600 -0.0100
v 5.1200 2.5600 -0.0100
v 5.1200 5.1200 -0.0100
v 2.1600 5.1200 -0.0100
v 5.1200 2.5600 -0.0100
v 5.1200 0.0000 -0.0100
v 0.0000 2.5600 -0.0100
v 0.0000 0.0000 -0.0100
v 0.0000 2.5600 -0.0100
v 5.1200 2.5600 -0.0100
v 5.1200 5.1200 -0.0100
v 0.0000 5.1200 -0.0100
v 0.0000 5.1200 -0.0100
v 0.0000 0.0000 -0.0100
v 5.1200 5.1200 -0.0100
v 0.8800 0.4800 -0.0100
v 4.9800 3.1700 -0.0100
v 0.4400 3.9200 -0.0100
v 0.8800 0.4800 -0.0100
v 0.4400 3.9200 -0.0100
v 4.9800 3.1700 -0.0100
v -28.0000 0.0000 17.9200
v -33.2800 0.0000 18.5500
v -28.1600 2.5600 15.3600
v -7.5200 0.0000 0.6400
v 15.4400 0.1000 0.0000
v -7.4400 0.0000 0.0000
v -7.5200 0.0000 0.0000
v -7.5200 0.0000 0.6400
v -7.5200 0.0000 0.6400
v -7.5200 0.0000 0.0000
v -33.2800 0.0000 17.9900
v 15.3600 5.1600 0.0600
vt 0.0000 0.0000
vt -0.0283 -0.0107
vt -0.0195 -0.0107
vt -0.0371 -0.0107
vt -0.0098 -0.0205
vt -0.0195 -0.0205
vt -0.0283 -0.0205
vt -0.0371 -0.0205
vt -0.0098 -0.0205
vt -0.0283 -0.0205
vt -0.0098 -0.0107
vt -0.0283 -0.0107
vt -0.0742 -0.0107
vt -0.0742 -0.0107
vt -0.0742 -0.0205
vt -0.0107 -0.0205
vt -0.0078 -0.0107
vt -0.0107 -0.0107
vt -0.0078 -0.0205
vt -0.0107 -0.0156
vt -0.0029 -0.0156
vt -0.0742 -0.0205
vt -0.0449 -0.0156
vt -0.0674 -0.0205
vt -0.0742 -0.0156
vt -0.0674 -0.0156
vt -0.0449 -0.0107
vt -0.0674 -0.0107
vt -0.0371 -0.0107
vt -0.0371 -0.0205
vt -0.0195 -0.0205
vt -0.0195 -0.0107
vt -0.0537 -0.0156
vt -0.0869 -0.0186
vt -0.0449 -0.0156
vt -0.0869 -0.0156
vt -0.0449 -0.0117
vt -0.0869 -0.0117
vt -0.0869 -0.0156
vt -0.0449 -0.0156
vt -0.0977 -0.0195
vt -0.0977 -0.0156
vt -0.0869 -0.0195
vt -0.0869 -0.0156
vt -0.0869 -0.0107
vt -0.0977 -0.0107
vt -0.0977 -0.0156
vt -0.0869 -0.0156
vt -0.0977 -0.0156
vt -0.0977 -0.0107
vt -0.0977 -0.0195
vt -0.0967 -0.0137
vt -0.0957 -0.0156
vt -0.0898 -0.0156
vt -0.0967 -0.0166
vt -0.0898 -0.0156
vt -0.0957 -0.0156
vt 0.0000 1.0156
vt -6.5000 0.0000
vt -6.2500 0.0000
vt -6.5000 0.0000
vt -4.0000 0.0000
vt -8.9453 0.0137
vt -2.7266 0.0000
vt -2.7344 0.0000
vt -4.0000 0.0000
vt -4.0000 0.0000
vt -6.5000 0.0000
vt -6.2500 0.0000
vt 1.2559 0.5000
f 44/44 2/2 55/55
f 44/44 2/2 55/55
f 5/5 1/1 6/6
f 1/1 3/3 6/6
f 1/1 2/2 3/3
f 1/1 3/3 4/4
f 5/5 8/8 4/4
f 8/8 3/3 4/4
f 9/9 10/10 2/2
f 11/11 9/9 2/2
f 1/1 2/2 3/3
f 4/4 5/5 6/6
f 4/4 2/2 1/1
