mtllib assets09_model_064.mtl
# Conker's Bad Fur Day — Real 3D Model (Multiplayer Level Models)
o assets09_model_064
usemtl assets09_model_064_mat

v 0.0000 3.1200 0.0000
v 5.2800 11.4400 -0.0100
v 0.2500 8.1800 -0.0100
v 10.4100 2.2200 -0.0100
v 0.3000 1.9300 -0.0100
v 5.3800 -1.0500 -0.0100
v 10.3600 8.4600 -0.0100
v 3.9000 7.9600 -2.5800
v 0.1700 0.2300 -2.5800
v 2.6600 0.2200 -2.5800
v 2.5100 7.9800 -2.5800
v 8.0400 8.0600 -2.5800
v 6.6800 7.9600 -2.5800
v 7.6300 0.2000 -2.5800
v 10.1200 0.1900 -2.5800
v 7.6300 0.2000 -2.5800
v 3.9000 7.9600 -2.5800
v 6.6800 7.9600 -2.5800
v 2.6600 0.2200 -2.5800
v -28.0000 0.0000 17.9200
v -33.2800 0.0000 18.2300
v -28.1600 2.5600 15.3600
v -7.5200 0.0000 0.6400
v -7.5200 0.0000 0.0000
v -33.2800 0.0000 18.2300
v -28.0800 20.4800 0.0100
v 0.1200 0.1200 0.0000
vt 0.0000 0.0000
vt -0.0752 0.0693
vt 0.0752 -0.0176
vt -0.0752 -0.0176
vt 0.0000 -0.0615
vt 0.0752 0.0693
vt 0.0420 0.0391
vt 0.0000 0.1123
vt 0.0752 0.0693
vt 0.0000 0.0625
vt 0.0000 -0.0332
vt 0.0420 -0.0098
vt 0.0752 -0.0176
vt 0.0000 -0.0615
vt -0.0752 -0.0176
vt -0.0420 0.0391
vt -0.0420 -0.0098
vt -0.0752 0.0693
vt 0.0000 0.3125
vt -6.5000 0.0000
vt -6.2500 0.0000
vt -6.5000 0.0000
vt -4.0000 0.0000
vt -6.5000 0.0000
vt -6.2500 0.0000
vt 5.4072 -21.6445
vt 0.0000 0.0000
f 1/1 2/2 3/3
f 4/4 5/5 6/6
f 7/7 8/8 9/9
f 10/10 11/11 12/12
f 13/13 14/14 15/15
f 16/16 17/17 18/18
f 19/19 20/20 21/21
f 22/22 23/23 24/24
f 25/25 26/26 27/27
