# Conker's Bad Fur Day — Real 3D Model (Sloprano Models)
o assets0E_model_041

v 0.3200 2.5800 -2.5600
v 20.4800 0.0000 0.0000
v 20.4800 0.0000 0.0000
v 0.3200 2.5800 -2.5600
v 20.4800 0.0000 0.0000
v 0.3200 2.5800 -2.5600
v 20.4800 0.0000 0.0000
v 20.4800 0.0000 0.0000
v 0.3200 2.5800 -2.5600
v 20.4800 0.0000 0.0000
v 20.4800 0.0000 0.0000
vt -0.3398 0.4180
vt 0.0000 0.0654
vt 0.0000 0.0654
vt 0.0000 0.0000
vt 0.0000 0.0654
vt 0.0000 0.0000
vt 0.0000 0.0654
vt 0.0000 0.0654
vt -2.9443 -2.2744
vt 0.0000 0.0654
vt 0.0000 -31.9346
f 1/1 1/1 1/1
f 1/1 3/3 5/5
