# Conker's Bad Fur Day — Real 3D Model (Multiplayer Level Models)
o assets09_model_109

v 0.0000 2.1600 0.0000
v 0.2600 3.1400 -0.0100
v 0.2400 1.7900 -0.0100
v 0.2400 1.1200 -0.0100
v 0.2600 3.8200 -0.0100
v 0.2600 3.1400 -0.0100
v 0.2400 1.7900 -0.0100
v 4.8500 3.8300 -0.0100
v 4.8300 1.1000 -0.0100
v 4.8700 5.2000 -0.0100
v 4.8500 3.8300 -0.0100
v 4.8300 1.1000 -0.0100
v 4.8200 -0.2600 -0.0100
v -28.0000 0.0000 17.9200
v -33.2800 0.0000 17.9900
v -28.1600 2.5600 15.3600
v -7.5200 0.0000 0.6400
vt 0.0000 0.0000
vt 0.0137 -0.0459
vt 0.0137 -0.0283
vt 0.0137 -0.0625
vt 0.0137 -0.0459
vt 0.0137 -0.0283
vt -0.0059 -0.0801
vt -0.0059 -0.0459
vt -0.0059 -0.0801
vt -0.0059 -0.0459
vt -0.0059 -0.0117
vt -0.0059 -0.0117
vt 0.0000 0.2188
vt -6.5000 0.0000
vt -6.2500 0.0000
vt -6.5000 0.0000
vt -4.0000 0.0000
f 1/1 2/2 3/3
f 4/4 5/5 6/6
f 7/7 8/8 9/9
f 10/10 11/11 12/12
f 13/13 14/14 15/15
