# Conker's Bad Fur Day — Real 3D Model (Multiplayer Level Models)
o assets09_model_327

v 0.0000 11.9200 0.0000
v 0.0000 0.0000 -2.5800
v 0.0000 0.0000 -2.5800
v 0.0000 0.0000 -2.5800
v 0.0000 0.0000 -2.5800
v -6.8800 0.0000 0.0000
v -33.2800 0.0000 18.3500
v -27.2000 2.5600 15.3600
v 15.6000 30.8200 0.1200
v -6.8800 0.0000 0.0000
v -7.5200 0.0000 0.6400
v 12.9800 20.5000 0.0000
v -6.8800 0.0000 0.0000
v -27.4400 20.4800 0.0900
v -7.5200 0.0000 0.6400
v -6.8800 0.0000 0.0000
v -27.4400 25.6000 0.0900
v -7.5200 0.0000 0.6400
v -6.8800 0.0000 0.0000
v -27.4400 10.2400 0.0800
v -7.5200 0.0000 0.6400
v 15.3600 5.1600 0.0200
v -7.4400 0.0000 0.0000
v -33.2800 0.0000 18.5500
vt 0.0000 0.0000
vt -0.0146 -0.0195
vt 0.0000 -0.0186
vt 0.0000 -0.0186
vt -0.0371 0.0205
vt -2.6719 0.0000
vt -2.6797 2.0000
vt -6.5000 0.0000
vt -6.2500 0.0000
vt -3.2500 0.0000
vt -6.5000 0.0000
vt -6.2500 0.0000
vt -3.2500 0.0000
vt -3.4375 9.0020
vt -6.5000 0.0000
vt -3.2500 0.0000
vt -3.4375 9.0020
vt -6.5000 0.0000
vt -3.2500 0.0000
vt -3.4375 9.0020
vt -6.5000 0.0000
vt -6.2500 0.0000
vt -2.7266 0.0000
vt -2.7266 4.0000
f 1/1 2/2 3/3
f 2/2 1/1 4/4
f 13/13 7/7 6/6
f 7/7 13/13 12/12
f 7/7 14/14 5/5
f 5/5 3/3 2/2
f 10/10 5/5 2/2
f 15/15 19/19 21/21
f 15/15 21/21 20/20
f 1/1 2/2 3/3
f 2/2 4/4 3/3
f 5/5 6/6 7/7
f 8/8 9/9 10/10
