# Conker's Bad Fur Day — Real 3D Model (World Structures)
o assets04_model_000

v 0.0000 1.2800 0.0000
v 0.0000 -13.0400 0.0000
v 0.0100 17.6800 0.0000
v -6.8800 0.0000 0.0000
v -33.2800 0.0000 18.3500
v -35.2000 10.2400 0.7900
v -35.5200 5.1200 2.9500
v -35.6800 2.5600 5.3100
v -35.7600 1.2800 7.7700
v -35.8000 0.6400 10.2800
v -27.2000 2.5600 15.3600
v -6.8800 0.0000 0.0000
v 2.5800 0.6400 2.5600
v 2.5800 0.6400 2.5600
v 2.5800 0.6400 2.5600
v -33.2800 0.0000 18.5500
v 2.5800 0.6400 2.5600
v 2.5800 0.6400 2.5600
v 2.5800 0.6400 2.5600
v -6.8800 0.0000 0.0000
v -7.5200 0.0000 0.6400
v 2.5800 0.6400 2.5600
v 2.5800 0.6400 2.5600
v 2.5800 0.6400 2.5600
v -6.8800 0.0000 0.0000
v -27.4400 20.4800 0.0100
v -27.4400 11.5200 2.5700
v -27.4400 6.7200 5.1200
v -27.4400 6.8000 7.6800
v -27.4400 6.8400 10.2400
v -7.5200 0.0000 0.6400
v -6.8800 0.0000 0.0000
v -7.5200 0.0000 0.6400
v 15.3600 5.1600 0.0000
v -6.8800 0.0000 0.0000
v -27.5200 20.4800 0.0100
v -27.5200 11.5200 2.5700
v -27.5200 6.7200 5.1200
v -27.5200 6.8000 7.6800
v -27.5200 6.8400 10.2400
v -7.5200 0.0000 1.2800
v 15.3600 5.1600 0.0000
v 2.5800 0.6400 2.5600
v -33.2800 0.0000 18.5500
v -7.5200 0.0000 0.6400
v 12.8000 5.1600 0.0000
v -6.8800 0.0000 0.0000
v 15.3600 5.1600 0.0000
v -6.8800 0.0000 0.0000
v -33.2800 0.0000 18.5500
v -35.2000 10.2400 0.7900
v 2.5800 0.6400 2.5600
v 2.5800 0.6400 2.5600
v -6.8800 0.0000 0.0000
v -7.5200 0.0000 1.2800
v 2.5800 0.6400 2.5600
v -6.8800 0.0000 0.0000
v -7.5200 0.0000 1.2800
v 2.5800 0.6400 2.5600
v -33.2800 0.0000 18.5500
v 2.5800 0.6400 2.5600
v -6.8800 0.0000 0.0000
v -27.5200 20.4800 0.0100
v -7.5200 0.0000 1.2800
v 2.5800 0.6400 2.5600
v -6.8800 0.0000 0.0000
v -27.5200 10.2400 0.0100
v -7.5200 0.0000 1.2800
v 2.5800 0.6400 2.5600
v -33.2800 0.0000 18.3500
v -27.4400 11.5200 2.5700
v -27.4400 6.7200 5.1200
v -27.4400 6.8000 7.6800
v -27.4400 6.8400 10.2400
v -7.5200 0.0000 0.6400
v -6.8800 0.0000 0.0000
v -27.5200 20.4800 0.0900
v -7.5200 0.0000 1.2800
v -33.2800 0.0000 18.5500
v -33.2800 0.0000 18.3500
v -35.2000 10.2400 0.7100
v 15.3600 5.1600 0.0600
v 2.5800 0.6400 2.5600
v -33.2800 0.0000 18.5500
v -35.2000 10.2400 0.7900
v -6.8800 0.0000 0.0000
v -27.5200 20.4800 0.0100
v -27.5200 11.5200 2.5700
v -27.5200 6.7200 5.1200
v -27.5200 6.8000 7.6800
v -27.5200 6.8400 10.2400
v -7.5200 0.0000 1.2800
v 15.3600 5.1600 0.0600
v -6.8800 0.0000 0.0000
v -7.5200 0.0000 0.6400
v -33.2800 0.0000 18.2300
v -35.2000 10.2400 0.7100
v -6.8800 0.0000 0.0000
v -7.5200 0.0000 0.6400
v -33.2800 0.0000 18.3500
v -7.5200 0.0000 1.2800
v 2.5800 0.6400 2.5600
v 0.0000 0.0600 0.0000
v 0.0000 0.0600 0.0000
v 0.0000 0.0600 0.0000
v 0.0000 0.0600 0.0000
v 0.0000 0.0600 0.0000
v 0.0000 0.0600 0.0000
v 0.0000 0.0400 0.0000
v 0.0000 0.0400 0.0000
v 0.0000 0.0400 0.0000
v 0.0000 0.0400 0.0000
v 0.0000 0.0400 0.0000
v 0.0000 0.0400 0.0000
v 0.0000 0.0400 0.0000
v 0.0000 0.0400 0.0000
v 0.0000 0.0400 0.0000
v 0.0000 0.0400 0.0000
v 0.0000 0.0400 0.0000
v 0.0000 0.0400 0.0000
v 0.0000 0.0400 0.0000
v 0.0000 0.0400 0.0000
v 0.0000 0.0400 0.0000
v 0.0000 0.0400 0.0000
v 0.0000 0.0400 0.0000
v 0.0000 0.0400 0.0000
v 0.0000 0.0400 0.0000
v 0.0000 0.0400 0.0000
v 0.0000 0.0400 0.0000
v 0.0000 0.0400 0.0000
v 0.0000 0.0400 0.0000
v 0.0000 0.0400 0.0000
v 0.0000 0.0400 0.0000
v 0.0000 0.0400 0.0000
v 0.0000 0.0400 0.0000
v 0.0000 0.0400 0.0000
v 0.0000 0.0400 0.0000
v 0.0000 0.0400 0.0000
v 0.0000 0.0400 0.0000
v 0.0000 0.0400 0.0000
v 0.0000 0.0400 0.0000
v 0.0000 0.0400 0.0000
v 0.0000 0.0400 0.0000
v 0.0000 0.0400 0.0000
v 0.0000 0.0400 0.0000
v 0.0000 0.0400 0.0000
v 0.0000 0.0400 0.0000
v 0.0000 0.0400 0.0000
v 0.0000 0.0400 0.0000
v 0.0000 0.0400 0.0000
v 0.0000 0.0400 0.0000
v 0.0000 0.0400 0.0000
v 0.0000 0.0400 0.0000
v 0.0000 0.0400 0.0000
v 0.0000 0.0400 0.0000
v 0.0000 0.0400 0.0000
v 0.0000 0.0400 0.0000
v 0.0000 0.0400 0.0000
v 0.0000 0.0400 0.0000
v 0.0000 0.0400 0.0000
v 0.0000 0.0400 0.0000
v 0.0000 0.0400 0.0000
v 0.0000 0.0400 0.0000
v 0.0000 0.0400 0.0000
v 0.0000 0.0400 0.0000
v 0.0000 0.0400 0.0000
v 0.0000 0.0400 0.0000
v 0.0000 0.0400 0.0000
v 0.0000 0.0400 0.0000
v 0.0000 0.0400 0.0000
v 0.0000 0.0400 0.0000
v 0.0000 0.0400 0.0000
v 0.0000 0.0400 0.0000
v 0.0000 0.0400 0.0000
v 0.0000 0.0400 0.0000
v 0.0000 0.0400 0.0000
v 0.0000 0.0400 0.0000
v 0.0000 0.0400 0.0000
v 0.0000 0.0400 0.0000
v 0.0000 0.0400 0.0000
v 0.0000 0.0400 0.0000
v 0.0000 0.0400 0.0000
v 0.0000 0.0400 0.0000
v 0.0000 0.0400 0.0000
v 0.0000 0.0400 0.0000
v 0.0000 0.0400 0.0000
v 0.0000 0.0400 0.0000
v 0.0000 0.0400 0.0000
v 0.0000 0.0400 0.0000
v 0.0000 0.0400 0.0000
v 0.0000 0.0400 0.0000
v 0.0000 0.0400 0.0000
v 0.0000 0.0400 0.0000
v 0.0000 0.0400 0.0000
v 0.0000 0.0600 0.0000
v 0.0000 0.0600 0.0000
v 0.0000 0.0600 0.0000
v 0.0000 0.0600 0.0000
v 0.0000 0.0400 0.0000
v 0.0000 0.0400 0.0000
v 0.0000 0.0400 0.0000
v 0.0000 0.0400 0.0000
v 0.0000 0.0400 0.0000
v 0.0000 0.0400 0.0000
v 0.0000 0.0400 0.0000
v 0.0000 0.0400 0.0000
v 0.0000 0.0400 0.0000
v 0.0000 0.0400 0.0000
v 0.0000 0.0400 0.0000
v 0.0000 0.0400 0.0000
v 0.0000 0.0400 0.0000
v 0.0000 0.0400 0.0000
v 0.0000 0.0400 0.0000
v 0.0000 0.0400 0.0000
v 0.0000 0.0400 0.0000
v 0.0000 0.0400 0.0000
v 0.0000 0.0400 0.0000
v 0.0000 0.0400 0.0000
v 0.0000 0.0400 0.0000
v 0.0000 0.0400 0.0000
v 0.0000 0.0400 0.0000
v 0.0000 0.0400 0.0000
v 0.0000 0.0400 0.0000
v 0.0000 0.1000 0.0000
v 0.0000 0.1000 0.0000
v 0.0000 0.1000 0.0000
v 0.0000 0.1000 0.0000
v 0.0000 0.1000 0.0000
v 0.0000 0.1000 0.0000
v 0.0000 0.1000 0.0000
v 0.0000 0.1000 0.0000
v 0.0000 0.1000 0.0000
v 0.0000 0.1000 0.0000
v 0.0000 0.1000 0.0000
v 0.0000 0.1000 0.0000
v 0.0000 0.1000 0.0000
v 0.0000 0.1000 0.0000
v 0.0000 0.1000 0.0000
v 0.0000 0.1000 0.0000
v 0.0000 0.0600 0.0000
v 0.0000 0.0600 0.0000
v 0.0000 0.0600 0.0000
v 0.0000 0.0600 0.0000
v 0.0000 0.0600 0.0000
v 0.0000 0.0600 0.0000
v 0.0000 0.0600 0.0000
v 0.0000 0.0600 0.0000
v 0.0000 0.0600 0.0000
v 0.0000 0.0600 0.0000
v 0.0000 0.0600 0.0000
v 0.0000 0.0600 0.0000
v 0.0000 0.0900 0.0000
v 0.0000 0.1000 0.0000
v 0.0000 0.1000 0.0000
v 0.0000 0.1000 0.0000
v 0.0000 0.1000 0.0000
v 0.0000 0.1000 0.0000
v 0.0000 0.1000 0.0000
v 0.0000 0.1000 0.0000
v 0.0000 0.1000 0.0000
v 0.0000 0.1000 0.0000
v 0.0000 0.1000 0.0000
v 0.0000 0.1000 0.0000
v 0.0000 0.1000 0.0000
v 0.0000 0.1000 0.0000
v 0.0000 0.1000 0.0000
v 0.0000 0.1000 0.0000
v 0.0000 0.1000 0.0000
v 0.0000 0.1000 0.0000
v 0.0000 0.1000 0.0000
v 0.0000 0.1000 0.0000
v 0.0000 0.1000 0.0000
v 0.0000 0.1000 0.0000
v 0.0000 0.1000 0.0000
v 0.0000 0.1000 0.0000
v 0.0000 0.1000 0.5100
v 0.5100 0.1000 0.0000
v 0.1900 0.1000 0.0000
v 0.0000 0.1000 0.0000
v 0.3300 0.1000 0.0000
v 0.0000 0.1000 0.0000
v 0.0000 0.1000 0.0000
v 0.0000 0.1000 0.3200
v 0.0000 0.1000 0.5100
v 0.0000 0.1000 0.3300
v 0.0000 0.1000 0.5100
v 0.0300 0.1000 0.1900
v 0.0000 0.1000 0.0000
v 0.0000 0.1000 0.0000
v 0.0000 0.1000 0.0000
v 0.0000 0.1000 0.0000
v 0.0000 0.1000 0.0000
v 0.1800 0.1000 0.0000
v 0.0000 0.1000 0.1800
v 0.0000 0.1000 0.0000
v 0.0000 0.1000 0.0000
v 0.0000 0.1000 0.0000
v 0.0200 0.1000 0.0000
v 0.0000 0.1000 0.0000
v 0.0000 0.1000 0.0000
v 0.0000 0.1000 0.0000
v 0.0000 0.1000 0.0000
v 0.0000 0.1000 0.0000
v 0.0000 0.1000 0.0000
v 0.0200 0.1000 0.0000
v 0.0000 0.0400 0.0000
v 0.0000 0.0400 0.0000
v 0.0000 0.0400 0.0000
v 0.0000 0.0400 0.0000
v 0.0000 0.0400 0.0000
v 0.0000 0.0400 0.0000
v 0.0000 0.0400 0.0000
v 0.0000 0.0400 0.0000
v 0.0000 0.0400 0.0000
v 0.0000 0.0400 0.0000
v 0.0000 0.0400 0.0000
v 0.0000 0.0400 0.0000
v 0.0000 0.0400 0.0000
v 0.0000 0.0400 0.0000
v 0.0000 0.0400 0.0000
v 0.0000 0.0400 0.0000
v 0.0000 0.0400 0.0000
v 0.0000 0.0400 0.0000
v 0.0000 0.0400 0.0000
v 0.0000 0.0400 0.0000
v 0.0000 0.0300 0.0000
v 0.0000 0.0300 0.0000
v 0.0000 0.0300 0.0000
v 0.0000 0.0300 0.0000
v 0.0000 0.0300 0.0000
v 0.0000 0.0900 0.0000
v 0.0000 0.0900 0.0000
v 0.0000 0.0900 0.0000
v 0.0000 0.0900 0.0000
v 0.0000 0.0900 0.0000
v 0.0000 0.0900 0.0000
v 0.0000 0.0900 0.0000
v 0.0000 0.0900 0.0000
v 0.0000 0.0900 0.0000
v 0.0000 0.0900 0.0000
v 0.0000 0.0900 0.0000
v 0.0000 0.0900 0.0000
v 0.0000 0.0900 0.0000
v 0.0000 0.0900 0.0000
v 0.0000 0.0900 0.0000
v 0.0000 0.0900 0.0000
v 0.0000 0.0900 0.0000
v 0.0000 0.0900 0.0000
v 0.0000 0.0900 0.0000
v 0.0000 0.0900 0.0000
v 0.0000 0.0900 0.0000
v 0.0000 0.0900 0.0000
v 0.0000 0.0900 0.0000
v 0.0000 0.0900 0.0000
v 0.0000 0.0900 0.0000
v 0.0000 0.0900 0.0000
v 0.0000 0.0900 0.0000
v 0.0000 0.0900 0.0000
v 0.0000 0.0900 0.0000
v 0.0000 0.0900 0.0000
v 0.0000 0.0900 0.0000
v 0.0000 0.0900 0.0000
v 0.0000 0.1000 0.0000
v 0.0000 0.1000 0.0000
v 0.0000 0.1000 0.0000
v 0.0000 0.1000 0.0000
v 0.0000 0.1000 0.0000
v 0.0000 0.1000 0.0000
v 0.0000 0.1000 0.0000
v 0.0000 0.1000 0.0000
v 0.0000 0.1000 0.0000
v 21.0900 22.2700 -31.3300
v 18.1700 12.2000 -34.2900
v 21.0900 15.3400 -31.3300
v 31.0700 21.3200 -19.7200
v 32.0800 22.7800 -18.7700
v 24.9700 29.1400 -24.8900
v 24.9700 27.1500 -24.8900
v 24.9700 27.1500 -24.8900
v 19.5800 22.8300 -31.6400
v 20.4600 21.3700 -30.7500
v 24.9700 29.1400 -24.8900
v -16.3400 15.9500 -23.0200
v -15.1000 14.8900 -25.3900
v -14.2200 14.8900 -23.1800
v -19.0200 19.9800 -31.7900
v -17.9900 17.4500 -33.5200
v -15.1000 14.8900 -25.3900
v -16.3400 15.9500 -23.0200
v 13.8600 16.6600 -38.5600
v 3.8100 16.7100 -28.2400
v 8.6100 13.8700 -22.9700
v 19.0100 13.8700 -33.3700
v -6.6700 26.4500 -27.4600
v -6.5600 22.5200 -27.1200
v 1.7300 15.7300 -27.5900
v 3.8100 16.7100 -28.2400
v -16.3400 15.9500 -23.0200
v -14.2200 14.8900 -23.1800
v -6.5600 22.5200 -27.1200
v -6.6700 26.4500 -27.4600
v 13.8600 16.6600 -38.5600
v 1.7300 15.7300 -27.5900
v 3.9000 14.9900 -28.2400
v 3.8100 16.7100 -28.2400
v 8.6100 13.8700 -22.9700
v 23.1800 14.8900 14.2200
v 25.3900 14.8900 15.1000
v 23.0200 15.9500 16.3400
v 25.3900 14.8900 15.1000
v 33.5200 17.4500 17.9900
v 31.7900 19.9800 19.0200
v 23.0200 15.9500 16.3400
v 28.2400 16.7100 -3.8100
v 38.5600 16.6600 -13.8600
v 33.8700 14.1400 -18.5200
v 23.4600 14.1400 -8.1200
v 27.5900 15.7300 -1.7300
v 27.1200 22.5200 6.5600
v 27.4600 26.4500 6.6700
v 28.2400 16.7100 -3.8100
v 27.1200 22.5200 6.5600
v 23.1800 14.8900 14.2200
v 23.0200 15.9500 16.3400
v 27.4600 26.4500 6.6700
v 33.5400 15.3100 -18.7800
v 34.2900 12.2000 -18.1700
v 32.0400 21.5500 -20.0000
v 28.2400 16.7100 -3.8100
v 28.2400 14.9900 -3.9000
v 27.5900 15.7300 -1.7300
v 23.4600 14.1400 -8.1200
v 21.8800 10.4100 13.2600
v 13.4600 8.3900 21.6300
v 16.3700 8.4200 24.2200
v 25.3400 10.4100 15.1600
v 32.7400 12.6800 -19.4000
v 34.2900 12.2000 -18.1700
v 33.5400 15.3100 -18.7800
v 32.5300 15.3100 -19.5800
v 32.0400 21.5500 -20.0000
v -21.9900 12.0400 -16.2700
v -30.6700 14.1400 -18.9400
v -29.6400 17.0300 -20.1800
v -21.4600 13.6900 -17.2500
v -27.2100 15.5600 1.3000
v -37.1400 19.1700 2.4000
v -36.8500 20.5700 0.7600
v -27.2200 16.5400 -0.2100
v -24.3900 19.4400 -9.6100
v -21.9900 12.0400 -16.2700
v -21.4600 13.6900 -17.2500
v -24.4500 22.7000 -9.5600
v -26.5800 15.9700 -1.5500
v -28.0600 14.4700 -3.7300
v -26.2200 14.4700 -3.1000
v -26.2200 14.4700 -3.1000
v -24.3900 19.4400 -9.6100
v -24.4500 22.7000 -9.5600
v -26.5800 15.9700 -1.5500
v -36.2000 16.8600 -6.0700
v -36.5800 19.3100 -4.5200
v -27.2200 16.5400 -0.2100
v -27.4600 26.4500 6.6700
v -27.1200 22.5200 6.5600
v -27.2100 15.5600 1.3000
v -25.3900 14.8900 15.1000
v -23.0200 15.9500 16.3400
v -31.3300 19.9800 19.9300
v -33.5200 17.4500 17.9900
v -23.1800 14.8900 14.2200
v -23.0200 15.9500 16.3400
v -23.1800 14.8900 14.2200
v -27.1200 22.5200 6.5600
v -27.4600 26.4500 6.6700
v -21.6300 8.3900 -13.4600
v -13.2600 10.4100 -21.8800
v -15.1600 10.4100 -25.3400
v -24.0700 8.3900 -16.3300
v -16.3300 8.3900 24.0700
v -13.4600 8.3900 21.6300
v -21.8800 10.4100 13.2600
v -25.3400 10.4100 15.1600
v -17.2500 13.6900 21.4600
v -16.2700 12.0400 21.9900
v -18.9400 14.1400 30.6700
v -20.1800 17.0300 29.6400
v 1.3000 15.5600 27.2100
v 2.4000 19.1700 37.1400
v 0.7600 20.5700 36.8500
v -0.2100 16.5400 27.2200
v -9.5600 22.7000 24.4500
v -9.6100 19.4400 24.3900
v -16.2700 12.0400 21.9900
v -9.5600 22.7000 24.4500
v -16.2700 12.0400 21.9900
v -17.2500 13.6900 21.4600
v -1.5500 15.9700 26.5800
v -3.7300 14.4700 28.0600
v -3.1000 14.4700 26.2200
v -3.1000 14.4700 26.2200
v -9.6100 19.4400 24.3900
v -9.5600 22.7000 24.4500
v -1.5500 15.9700 26.5800
v -4.5200 19.3100 36.5800
v -6.0700 16.8600 36.2000
v 1.3000 15.5600 27.2100
v -0.2100 16.5400 27.2200
v 7.9100 26.2000 26.9500
v 7.8000 22.2700 26.6100
v 17.5800 15.7000 22.5200
v 21.1700 19.7300 30.8300
v 19.2300 17.2000 33.0100
v 16.3400 14.6400 24.8900
v 15.4600 14.6400 22.6700
v 15.4600 14.6400 22.6700
v 7.8000 22.2700 26.6100
v 7.9100 26.2000 26.9500
v 17.5800 15.7000 22.5200
v -13.3100 0.1900 0.0000
v -11.5300 0.4600 6.6600
v -7.3000 0.0000 4.2100
v -16.0400 0.0000 9.2600
v -9.2600 0.0000 -16.0400
v -6.6600 0.4600 -11.5300
v 0.0000 0.1900 -13.3100
v 6.6600 0.1900 11.5300
v 11.5300 0.4600 6.6600
v 7.3000 0.0000 4.2100
v 13.3100 0.0000 0.0000
v 16.0400 0.0000 9.2600
v 0.0000 0.0000 -8.4300
v 0.0000 0.1900 -13.3100
v -6.6600 0.4600 -11.5300
v -4.2100 0.0000 -7.3000
v -7.3000 0.0000 4.2100
v -11.5300 0.4600 6.6600
v -6.6600 0.0000 11.5300
v -16.0400 0.0000 9.2600
v -11.5300 0.0000 -6.6600
v -9.2600 0.0000 -16.0400
v 15.2200 1.3300 -14.6000
v 12.9300 0.0000 -12.3700
v 15.0700 0.0000 -10.2300
v 17.3200 1.3300 -12.4500
v -3.8200 0.4700 2.2000
v -4.4100 0.4700 0.0000
v -6.1800 0.2300 0.0000
v -5.3500 0.2300 3.0900
v -3.8200 0.4700 -2.2000
v -5.3500 0.2300 -3.0900
v -3.0900 0.2300 -5.3500
v -2.2000 0.4700 -3.8200
v 0.0000 0.2300 -6.1800
v 0.0000 0.4700 -4.4100
v 6.1800 0.2300 0.0000
v 4.4100 0.4700 0.0000
v 3.8200 0.4700 2.2000
v 6.1800 0.2300 0.0000
v 3.8200 0.4700 2.2000
v 5.3500 0.2300 3.0900
v 2.2000 0.4700 -3.8200
v 3.0900 0.2300 -5.3500
v 0.0000 0.2300 -6.1800
v 0.0000 0.4700 -4.4100
v 3.8200 0.4700 -2.2000
v 5.3500 0.2300 -3.0900
v 4.4100 0.4700 0.0000
v 2.2000 0.4700 3.8200
v 3.0900 0.2300 5.3500
v 0.0000 0.4700 4.4100
v 0.0000 0.2300 6.1800
v -2.2000 0.4700 3.8200
v -3.0900 0.2300 5.3500
v -3.8200 0.4700 2.2000
v -5.3500 0.2300 3.0900
v 15.9300 4.0800 -30.2000
v 18.9700 4.0800 -33.2600
v 18.9700 1.7800 -33.2600
v 15.9300 1.5400 -30.2000
v 29.7900 0.1600 -16.1700
v 32.7600 1.9600 -19.3800
v 29.6800 3.0400 -16.0600
v 15.9300 4.0800 -30.2000
v 17.8600 4.6200 -28.0400
v 29.6800 3.0400 -16.0600
v -6.8800 0.0000 0.0000
v -33.2800 0.0000 18.3500
v -35.2000 10.2400 0.7900
v -35.5200 5.1200 2.9500
v -35.6800 2.5600 5.3100
v -35.7600 1.2800 7.7700
v -35.8000 0.6400 10.2800
v -27.2000 2.5600 15.3600
v 2.5800 0.6400 2.5600
v -6.8800 0.0000 0.0000
v -27.4400 20.4800 0.0100
v -7.5200 0.0000 0.6400
v 2.5800 0.6400 2.5600
v -33.2800 0.0000 18.3500
v -35.5200 5.1200 2.9100
v -35.6800 2.5600 5.2900
v -35.7600 1.2800 7.7600
v -35.8000 0.6400 10.2800
v 0.0000 11.7600 0.0000
v 0.0000 0.0000 -2.5800
v 0.0000 0.0000 -2.5800
v 0.0000 0.0000 -2.5800
v 0.0000 0.0000 -2.5800
v 0.0000 0.0000 -2.5800
v 0.0000 0.0000 -2.5800
v 0.0000 0.0000 -2.5800
v 0.0000 0.0000 -2.5800
v 0.0000 0.0000 -2.5800
v 0.0000 0.0000 -2.5800
v 0.0000 0.0000 -2.5800
v 0.0000 0.0000 -2.5800
v 0.0000 0.0000 -2.5800
v 0.0000 0.0000 -2.5800
v 0.0000 0.0000 -2.5800
v 0.0000 0.0000 -2.5800
v 0.0000 0.0000 -2.5800
v 0.0000 0.0000 -2.5800
v 0.0000 0.0000 -2.5800
v 0.0000 0.0000 -2.5800
v 0.0000 0.0000 -2.5800
v 0.0000 0.0000 -2.5800
v 0.0000 0.0000 -2.5800
v 0.0000 0.0000 -2.5800
v 0.0000 0.0000 -2.5800
v 0.0000 0.0000 -2.5800
v 0.0000 0.0000 -2.5800
v 0.0000 0.0000 -2.5800
v 0.0000 0.0000 -2.5800
v 0.0000 0.0000 -2.5800
v 0.0000 0.0000 -2.5800
v 0.0000 0.0000 -2.5800
v 0.0000 0.0000 -2.5800
v 0.0000 0.0000 -2.5800
v 0.0000 0.0000 -2.5800
v 0.0000 0.0000 -2.5800
v 0.0000 0.0000 -2.5800
v 0.0000 0.0000 -2.5800
v 0.0000 0.0000 -2.5800
v 0.0000 0.0000 -0.0100
v 0.0000 0.0000 -0.0100
v 0.0000 0.0000 -0.0100
v 0.0000 0.0000 -0.0100
v -6.8800 0.0000 0.0000
v -33.2800 0.0000 18.5500
v -35.2000 10.2400 0.7900
v -27.2000 2.5600 15.3600
v -1.6200 2.2100 -0.0400
v 1.4500 -2.0900 0.0300
v 1.8700 1.8400 0.0600
v -2.0300 -1.7200 -0.0600
v -1.6200 2.2100 -0.0400
v -2.0100 -1.7600 -1.2600
v -2.0300 -1.7200 -0.0600
v -1.5500 2.1500 -1.2400
v 1.9300 1.8100 -1.1600
v -1.5500 2.1500 -1.2400
v -1.6200 2.2100 -0.0400
v 1.8700 1.8400 0.0600
v 1.4700 -2.1000 -1.1800
v 1.9300 1.8100 -1.1600
v 1.8700 1.8400 0.0600
v 1.4500 -2.0900 0.0300
v -2.0100 -1.7600 -1.2600
v 1.4700 -2.1000 -1.1800
v 1.4500 -2.0900 0.0300
v -2.0300 -1.7200 -0.0600
v -6.8800 0.0000 0.0000
v -33.2800 0.0000 18.5500
v -27.2000 2.5600 15.3600
v 15.3600 5.1600 0.0000
v -6.8800 0.0000 0.0000
v -27.5200 10.2400 0.0100
v -27.5200 6.4000 2.5700
v -27.5200 6.7200 5.1300
v -27.5200 6.8800 7.6800
v -27.5200 6.9600 10.2400
v -7.5200 0.0000 1.2800
v 0.0000 4.2400 0.0000
v -27.3600 0.0000 17.9200
v -27.5200 20.4800 0.0100
v -7.5200 0.0000 1.2800
v -6.8800 0.0000 0.0000
v -7.5200 0.0000 0.6400
v 3.0800 8.0000 0.1200
v -3.8000 7.9500 0.1200
v -3.7500 -0.0600 0.0100
v 3.1300 -0.0200 0.0100
v -3.8000 7.9500 0.1200
v 3.0800 8.0000 0.1200
v 3.0800 8.0100 -0.7400
v -3.8000 7.9700 -0.7400
v -3.7500 -0.0500 -0.8500
v -3.8000 7.9700 -0.7400
v 3.0800 8.0100 -0.7400
v 3.1300 -0.0100 -0.8500
v 3.1300 -0.0100 -0.8500
v 3.1300 -0.0200 0.0100
v -3.7500 -0.0600 0.0100
v -3.7500 -0.0500 -0.8500
v 3.0800 8.0000 0.1200
v 3.1300 -0.0200 0.0100
v 3.1300 -0.0100 -0.8500
v 3.0800 8.0100 -0.7400
v -3.8000 7.9500 0.1200
v -3.8000 7.9700 -0.7400
v -3.7500 -0.0500 -0.8500
v -3.7500 -0.0600 0.0100
v -6.8800 0.0000 0.0000
v -33.2800 0.0000 18.5500
v -27.2000 2.5600 15.3600
v -33.2800 0.0000 18.2300
v 0.0000 4.2400 0.0000
v -27.3600 0.0000 17.9200
v -27.5200 20.4800 0.0100
v -7.5200 0.0000 1.2800
v -6.8800 0.0000 0.0000
v -7.5200 0.0000 0.6400
v 3.7300 4.3900 0.0900
v -3.1300 4.3900 -1.7300
v -3.3600 4.3900 -0.8900
v 3.5100 4.3900 0.9400
v 1.8300 0.9400 -0.4100
v -1.2300 3.4500 -1.2300
v 1.8300 3.4500 -0.4100
v -1.2300 0.9400 -1.2300
v 3.7300 4.3900 0.0900
v -3.1300 4.3900 -1.7300
v 3.7300 0.0000 0.0900
v -3.1300 0.0000 -1.7300
v 3.5100 4.3900 0.9400
v 3.5100 0.0000 0.9400
v 3.7300 0.0000 0.0900
v 3.7300 4.3900 0.0900
v -3.3600 0.0000 -0.8900
v -3.3600 4.3900 -0.8900
v -3.1300 4.3900 -1.7300
v -3.1300 0.0000 -1.7300
v -3.3600 4.3900 -0.8900
v -3.3600 0.0000 -0.8900
v 1.8300 3.4500 -0.4100
v -1.2300 0.9400 -1.2300
v -1.2300 3.4500 -1.2300
v 1.8300 0.9400 -0.4100
v -6.8800 0.0000 0.0000
v -33.2800 0.0000 18.2300
v -35.2000 10.2400 0.7900
v -27.2000 2.5600 15.3600
v 15.3600 5.1600 0.0000
v -6.8800 0.0000 0.0000
v -27.5200 20.4800 0.0100
v -7.5200 0.0000 1.2800
v -6.8800 0.0000 0.0000
v -27.4400 20.4800 0.0500
v -7.5200 0.0000 0.6400
v 0.0000 0.0900 0.0000
v 0.0000 0.0400 0.0000
v 0.0000 0.0400 0.0000
v 0.0000 0.0400 0.0000
v 0.0000 0.0400 0.0000
v 0.0000 8.8800 0.0000
v -27.3600 0.0000 17.9200
v -7.5200 0.0000 0.6400
v 2.5800 0.6400 2.5600
v -33.2800 0.0000 18.5500
v -6.8800 0.0000 0.0000
v -27.5200 20.4800 0.0100
v 15.5600 36.0200 0.2200
v -33.2800 0.0000 18.5500
v 0.4600 0.0100 0.5900
v -5.8100 0.0100 5.0200
v -5.8100 -0.7500 5.0200
v 0.4600 -0.7500 0.5900
v -6.2100 0.0100 4.3800
v -0.0100 0.0100 0.0000
v -0.0100 -0.7500 0.0000
v -6.2100 -0.7500 4.3800
v -6.2100 -0.7500 4.3800
v -0.0100 -0.7500 0.0000
v 0.4600 -0.7500 0.5900
v -5.8100 -0.7500 5.0200
v -5.8100 0.0100 5.0200
v 0.4600 0.0100 0.5900
v -0.0100 0.0100 0.0000
v -6.2100 0.0100 4.3800
v -0.7200 -0.3700 -0.8900
v 0.6200 0.8700 0.7900
v -0.2700 0.8700 -0.3300
v 1.0700 -0.3700 1.3500
v -0.2700 -1.6100 -0.3300
v 0.6200 -1.6100 0.7900
v -0.2700 0.8700 -0.3300
v 0.1300 0.8700 -0.6500
v -0.3200 -0.3700 -1.2100
v -0.7200 -0.3700 -0.8900
v -0.3200 -0.3700 -1.2100
v 0.1300 -1.6100 -0.6500
v -0.2700 -1.6100 -0.3300
v -0.2700 -1.6100 -0.3300
v 0.1300 -1.6100 -0.6500
v 1.0200 -1.6100 0.4700
v -0.2700 -1.6100 -0.3300
v 1.0200 -1.6100 0.4700
v 0.6200 -1.6100 0.7900
v 1.0200 -1.6100 0.4700
v 1.4700 -0.3700 1.0300
v 1.0700 -0.3700 1.3500
v 0.6200 -1.6100 0.7900
v 1.0700 -0.3700 1.3500
v 1.4700 -0.3700 1.0300
v 1.0200 0.8700 0.4700
v 0.6200 0.8700 0.7900
v 0.6200 0.8700 0.7900
v 1.0200 0.8700 0.4700
v 0.1300 0.8700 -0.6500
v -0.2700 0.8700 -0.3300
v 0.1300 -1.6100 -0.6500
v 1.4700 -0.3700 1.0300
v 1.0200 -1.6100 0.4700
v 1.0200 0.8700 0.4700
v -0.3200 -0.3700 -1.2100
v 0.1300 0.8700 -0.6500
v -6.8800 0.0000 0.0000
v -33.2800 0.0000 18.5500
v -27.2000 2.5600 15.3600
v -6.8800 0.0000 0.0000
v -7.5200 0.0000 0.6400
v -33.2800 0.0000 18.3500
v -27.5200 11.5200 2.5700
v -27.5200 6.7200 5.1200
v -27.5200 6.8000 7.6800
v -27.5200 6.8400 10.2400
v -7.5200 0.0000 1.2800
v -6.8800 0.0000 0.0000
v -27.5200 20.4800 0.0100
v -7.5200 0.0000 1.2800
v 0.0000 8.5600 0.0000
v -27.3600 0.0000 17.9200
v -27.5200 20.4800 0.0100
v -7.5200 0.0000 1.2800
v -33.2800 0.0000 18.3500
v 15.3600 5.1600 0.0000
v -6.8800 0.0000 0.0000
v -33.2800 0.0000 18.5500
v -2.5300 0.0100 2.4500
v -3.5600 0.0100 -0.0400
v -2.5300 0.0100 -2.5300
v 2.4600 0.0100 2.4500
v -0.0300 0.0100 3.4800
v 2.4600 0.0100 -2.5300
v 3.4900 0.0100 -0.0400
v -0.0300 0.0100 -3.5700
v -2.5300 0.5500 -2.5300
v -3.5600 0.5500 -0.0400
v -2.5300 0.5500 2.4500
v -0.0300 0.5500 3.4800
v 2.4600 0.5500 2.4500
v 3.4900 0.5500 -0.0400
v 2.4600 0.5500 -2.5300
v -0.0300 0.5500 -3.5700
v 2.4600 0.0100 -2.5300
v 3.4900 0.5500 -0.0400
v 3.4900 0.0100 -0.0400
v 2.4600 0.5500 -2.5300
v -0.0300 0.0100 -3.5700
v -0.0300 0.5500 -3.5700
v -2.5300 0.0100 -2.5300
v -0.0300 0.5500 -3.5700
v -0.0300 0.0100 -3.5700
v -2.5300 0.5500 -2.5300
v -3.5600 0.0100 -0.0400
v -3.5600 0.5500 -0.0400
v -2.5300 0.0100 2.4500
v -3.5600 0.5500 -0.0400
v -3.5600 0.0100 -0.0400
v -2.5300 0.5500 2.4500
v -0.0300 0.0100 3.4800
v -2.5300 0.5500 2.4500
v -2.5300 0.0100 2.4500
v -0.0300 0.5500 3.4800
v 2.4600 0.0100 2.4500
v -0.0300 0.5500 3.4800
v -0.0300 0.0100 3.4800
v 2.4600 0.5500 2.4500
v 3.4900 0.0100 -0.0400
v 3.4900 0.5500 -0.0400
v -0.4800 0.0100 0.0100
v -0.4800 -3.2700 0.0100
v 0.0400 0.0100 0.5200
v 0.0400 -3.2700 0.5200
v 0.5500 0.0100 -0.0100
v 0.5500 -3.2700 -0.0100
v 0.5500 0.0100 -0.0100
v 0.5500 -3.2700 -0.0100
v 0.0300 0.0100 -0.5200
v 0.0300 -3.2700 -0.5200
v -0.4800 0.0100 0.0100
v -0.4800 -3.2700 0.0100
v 2.4600 0.5500 2.4500
v 2.4600 0.5500 -2.5300
v -2.5300 0.5500 -2.5300
v -2.5300 0.5500 2.4500
v -6.8800 0.0000 0.0000
v -33.2800 0.0000 18.5500
v -27.2000 2.5600 15.3600
v 2.5800 0.6400 2.5600
v -33.2800 0.0000 18.2300
v 15.5200 35.9200 0.1800
v -6.8800 0.0000 0.0000
v -27.4400 20.4800 0.0100
v -7.5200 0.0000 0.6400
v -6.8800 0.0000 0.0000
v -27.5200 20.4800 0.0100
v -7.5200 0.0000 1.2800
v 0.0000 11.7600 0.0000
v 0.0000 14.8800 0.0000
v -27.3600 0.0000 17.9200
v -27.4400 20.4800 0.0100
v -27.4400 11.5200 2.5700
v -27.4400 6.7200 5.1200
v -27.4400 6.8000 7.6800
v -27.4400 6.8400 10.2400
v -7.5200 0.0000 0.6400
v 0.0000 0.1000 0.0000
v 0.0000 0.1000 0.0000
v 0.0000 0.1000 0.0000
v 0.0000 0.1000 0.0000
v 0.0000 0.1000 0.0000
v 0.0000 0.1000 0.0000
v 0.0000 0.1000 0.0000
v 0.0000 0.1000 0.0000
v 0.0000 0.1000 0.0000
v 0.0000 0.1000 0.0000
v 0.0000 0.1000 0.0000
v 8.0400 1.9600 4.0400
v 9.7700 1.9600 2.3200
v 4.2600 1.9600 -3.1900
v 2.5300 1.9600 -1.4700
v -6.8800 0.0000 0.0000
v -33.2800 0.0000 18.5500
v -27.2000 2.5600 15.3600
v 15.3600 5.1600 0.0000
v 0.0000 2.4800 0.0000
v -27.3600 0.0000 17.9200
v -27.4400 20.4800 0.0100
v -27.4400 11.5200 2.5700
v -27.4400 6.7200 5.1200
v -27.4400 6.8000 7.6800
v -27.4400 6.8400 10.2400
v -7.5200 0.0000 0.6400
vt 0.0000 -14.2734
vt 0.0010 0.1094
vt 0.0010 1.9844
vt -2.6719 0.0000
vt -2.6875 2.0000
vt -2.6875 1.1250
vt -2.6875 0.6562
vt -2.6875 0.6641
vt -2.6875 0.6680
vt -0.7344 0.0000
vt -6.5000 0.0000
vt -3.2500 0.0000
vt 4.9072 4.1621
vt 4.9072 3.1621
vt 4.5234 -27.8379
vt -0.7344 0.0000
vt 4.5234 -27.8379
vt 4.8906 -27.8379
vt 4.5234 -27.8379
vt -3.2500 0.0000
vt -6.5000 0.0000
vt 4.8906 -27.8379
vt 4.8906 -27.8379
vt 4.5234 -27.8379
vt -3.2500 0.0000
vt -3.4375 1.0000
vt -3.4688 0.5000
vt -3.4844 0.2500
vt -3.4922 0.1250
vt -3.4961 0.0625
vt -6.5000 0.0000
vt -3.2500 0.0000
vt -6.5000 0.0000
vt -6.2500 0.0000
vt -3.2500 0.0000
vt -3.4375 1.0000
vt -3.4688 0.5000
vt -3.4844 0.2500
vt -3.4922 0.1250
vt -3.4961 0.0625
vt -6.5000 0.0000
vt -6.2500 0.0000
vt 4.5234 -27.8379
vt -2.6797 4.0000
vt -6.5000 0.0000
vt -6.2500 0.0000
vt -3.2500 0.0000
vt -6.2500 0.0000
vt -3.2500 0.0000
vt -2.6875 2.0000
vt -0.7344 0.0000
vt 4.9072 4.1621
vt 4.9072 4.1621
vt -3.2500 0.0000
vt -6.5000 0.0000
vt 4.5234 -27.8379
vt -3.2500 0.0000
vt -6.5000 0.0000
vt 4.8906 -27.8379
vt -0.7344 0.0000
vt 4.6484 -29.9648
vt -3.2500 0.0000
vt -3.4375 1.0000
vt -6.5000 0.0000
vt 4.8906 -27.8379
vt -3.2500 0.0000
vt -3.4375 1.0000
vt -6.5000 0.0000
vt 4.5234 -27.8379
vt -2.6797 2.0000
vt -3.4688 0.5000
vt -3.4844 0.2500
vt -3.4922 0.1250
vt -3.4961 0.0625
vt -6.5000 0.0000
vt -3.2500 0.0000
vt -3.4375 1.0000
vt -6.5000 0.0000
vt -0.7344 0.0000
vt -2.6797 2.0000
vt -0.7344 0.0000
vt -6.2500 0.0000
vt 4.5234 -27.8379
vt -2.6875 2.0000
vt -0.7344 0.0000
vt -3.2500 0.0000
vt -3.4375 1.0000
vt -3.4688 0.5000
vt -3.4844 0.2500
vt -3.4922 0.1250
vt -3.4961 0.0625
vt -6.5000 0.0000
vt -6.2500 0.0000
vt -3.2500 0.0000
vt -6.5000 0.0000
vt -2.6797 2.0000
vt -0.7344 0.0000
vt -3.2500 0.0000
vt -6.5000 0.0000
vt -2.6875 2.0000
vt -6.5000 0.0000
vt 4.8906 -27.8379
vt 0.0000 0.0059
vt 0.0000 0.0059
vt 0.0000 0.0059
vt 0.0000 0.0059
vt 0.0000 0.0059
vt 0.0000 0.0059
vt 0.0000 0.0039
vt 0.0000 0.0039
vt 0.0000 0.0039
vt 0.0000 0.0039
vt 0.0000 0.0039
vt 0.0000 0.0039
vt 0.0000 0.0039
vt 0.0000 0.0039
vt 0.0000 0.0039
vt 0.0000 0.0039
vt 0.0000 0.0039
vt 0.0000 0.0039
vt 0.0000 0.0039
vt 0.0000 0.0039
vt 0.0000 0.0039
vt 0.0000 0.0039
vt 0.0000 0.0039
vt 0.0000 0.0039
vt 0.0000 0.0039
vt 0.0000 0.0039
vt 0.0000 0.0039
vt 0.0000 0.0039
vt 0.0000 0.0039
vt 0.0000 0.0039
vt 0.0000 0.0039
vt 0.0000 0.0039
vt 0.0000 0.0039
vt 0.0000 0.0039
vt 0.0000 0.0039
vt 0.0000 0.0039
vt 0.0000 0.0039
vt 0.0000 0.0039
vt 0.0000 0.0039
vt 0.0000 0.0039
vt 0.0000 0.0039
vt 0.0000 0.0039
vt 0.0000 0.0039
vt 0.0000 0.0039
vt 0.0000 0.0039
vt 0.0000 0.0039
vt 0.0000 0.0039
vt 0.0000 0.0039
vt 0.0000 0.0039
vt 0.0000 0.0039
vt 0.0000 0.0039
vt 0.0000 0.0039
vt 0.0000 0.0039
vt 0.0000 0.0039
vt 0.0000 0.0039
vt 0.0000 0.0039
vt 0.0000 0.0039
vt 0.0000 0.0039
vt 0.0000 0.0039
vt 0.0000 0.0039
vt 0.0000 0.0039
vt 0.0000 0.0039
vt 0.0000 0.0039
vt 0.0000 0.0039
vt 0.0000 0.0039
vt 0.0000 0.0039
vt 0.0000 0.0039
vt 0.0000 0.0039
vt 0.0000 0.0039
vt 0.0000 0.0039
vt 0.0000 0.0039
vt 0.0000 0.0039
vt 0.0000 0.0039
vt 0.0000 0.0039
vt 0.0000 0.0039
vt 0.0000 0.0039
vt 0.0000 0.0039
vt 0.0000 0.0039
vt 0.0000 0.0039
vt 0.0000 0.0039
vt 0.0000 0.0039
vt 0.0000 0.0039
vt 0.0000 0.0039
vt 0.0000 0.0039
vt 0.0000 0.0039
vt 0.0000 0.0039
vt 0.0000 0.0039
vt 0.0000 0.0039
vt 0.0000 0.0039
vt 0.0000 0.0039
vt 0.0000 0.0039
vt 0.0000 0.0059
vt 0.0000 0.0059
vt 0.0000 0.0059
vt 0.0000 0.0059
vt 0.0000 0.0039
vt 0.0000 0.0039
vt 0.0000 0.0039
vt 0.0000 0.0039
vt 0.0000 0.0039
vt 0.0000 0.0039
vt 0.0000 0.0039
vt 0.0000 0.0039
vt 0.0000 0.0039
vt 0.0000 0.0039
vt 0.0000 0.0039
vt 0.0000 0.0039
vt 0.0000 0.0039
vt 0.0000 0.0039
vt 0.0000 0.0039
vt 0.0000 0.0039
vt 0.0000 0.0039
vt 0.0000 0.0039
vt 0.0000 0.0039
vt 0.0000 0.0039
vt 0.0000 0.0039
vt 0.0000 0.0039
vt 0.0000 0.0039
vt 0.0000 0.0039
vt 0.0000 0.0039
vt 0.0000 0.0039
vt 0.0000 0.0098
vt 0.0000 0.0098
vt 0.0000 0.0098
vt 0.0000 0.0098
vt 0.0000 0.0098
vt 0.0000 0.0098
vt 0.0000 0.0098
vt 0.0000 0.0098
vt 20.0000 0.0098
vt 0.0000 0.0098
vt 0.0000 0.0098
vt 0.0000 0.0098
vt 0.0000 0.0098
vt 0.0000 0.0098
vt 0.0000 0.0098
vt 0.0000 0.0059
vt 0.0000 0.0059
vt 0.0000 0.0059
vt 0.0000 0.0059
vt 0.0000 0.0059
vt 0.0000 0.0059
vt 0.0000 0.0059
vt 0.0000 0.0059
vt 0.0000 0.0059
vt 0.0000 0.0059
vt 0.0000 0.0059
vt 0.0000 0.0059
vt 0.0000 0.0088
vt 0.0000 0.0000
vt 0.0000 0.0098
vt 0.0000 0.0098
vt 0.0000 0.0098
vt 0.0000 0.0098
vt 0.0000 0.0098
vt 0.0000 0.0098
vt 0.0000 0.0098
vt 0.0000 0.0098
vt 0.0000 0.0098
vt 0.0000 0.0098
vt 0.0000 0.0098
vt 0.0000 0.0098
vt 0.0000 0.0098
vt 0.0000 0.0098
vt 0.0000 0.0098
vt 0.0000 0.0098
vt 0.0000 0.0098
vt 0.0000 0.0098
vt 0.0000 0.0098
vt 0.0000 0.0098
vt 0.0000 0.0098
vt 0.0000 0.0098
vt 0.0000 0.0098
vt 0.0000 0.0098
vt 0.0000 0.0098
vt 0.0000 0.0098
vt 0.0000 0.0098
vt 0.0000 0.0098
vt 0.0000 0.0098
vt 0.0000 0.0098
vt 0.0000 0.0098
vt 0.0000 0.0098
vt 0.0205 0.0098
vt 0.0322 0.0098
vt 0.0000 0.0098
vt 0.0000 0.0098
vt 0.0000 0.0098
vt 0.0000 0.0098
vt 0.0000 0.0098
vt 0.0000 0.0098
vt 0.0000 0.0098
vt 0.0000 0.0098
vt 0.0000 0.0098
vt 0.0000 0.0098
vt 0.0000 0.0098
vt 0.0000 0.0098
vt 0.0000 0.0098
vt 0.0000 0.0098
vt 0.0000 0.0098
vt 0.0000 0.0098
vt 0.0020 0.0098
vt 0.0000 0.0098
vt 0.0000 0.0039
vt 0.0000 0.0039
vt 0.0000 0.0039
vt 0.0000 0.0039
vt 0.0000 0.0039
vt 0.0000 0.0039
vt 0.0000 0.0039
vt 0.0000 0.0039
vt 0.0000 0.0039
vt 0.0000 0.0039
vt 0.0000 0.0039
vt 0.0000 0.0039
vt 0.0000 0.0039
vt 0.0000 0.0039
vt 0.0000 0.0039
vt 0.0000 0.0039
vt 0.0000 0.0039
vt 0.0000 0.0039
vt 0.0000 0.0039
vt 0.0000 0.0039
vt 0.0000 0.0039
vt 0.0000 0.0029
vt 0.0000 0.0029
vt 0.0000 0.0029
vt 0.0000 0.0029
vt 0.0000 0.0088
vt 0.0000 0.0088
vt 0.0000 0.0088
vt 0.0000 0.0088
vt 0.0000 0.0088
vt 0.0000 0.0088
vt 0.0000 0.0088
vt 0.0000 0.0088
vt 0.0000 0.0088
vt 0.0000 0.0088
vt 0.0000 0.0088
vt 0.0000 0.0088
vt 0.0000 0.0088
vt 0.0000 0.0088
vt 0.0000 0.0088
vt 0.0000 0.0088
vt 0.0000 0.0088
vt 0.0000 0.0088
vt 0.0000 0.0088
vt 0.0000 0.0088
vt 0.0000 0.0088
vt 0.0000 0.0088
vt 0.0000 0.0088
vt 0.0000 0.0088
vt 0.0000 0.0088
vt 0.0000 0.0088
vt 0.0000 0.0088
vt 0.0000 0.0088
vt 0.0000 0.0088
vt 0.0000 0.0088
vt 0.0000 0.0088
vt 0.0000 0.0088
vt 0.0000 0.0000
vt 0.0000 0.0098
vt 0.0000 0.0098
vt 0.0000 0.0098
vt 0.0000 0.0098
vt 0.0000 0.0098
vt 0.0000 0.0098
vt 0.0000 0.0098
vt 0.0000 0.0098
vt 0.0000 3.3984
vt 9.0166 7.9844
vt 8.2646 7.3789
vt 8.5840 7.9844
vt 9.6533 7.5977
vt 9.6992 7.8467
vt 8.1016 7.8467
vt 8.2588 7.6396
vt 9.3945 7.9473
vt 7.9404 8.1455
vt 7.9629 7.9082
vt 9.5742 8.1455
vt 9.8721 7.9844
vt 9.6250 7.5117
vt 10.0352 7.5713
vt 7.9844 7.9844
vt 7.9512 7.5371
vt 9.2588 7.6084
vt 9.4521 7.9844
vt 9.4756 7.9844
vt 7.9844 7.9844
vt 8.1699 7.2959
vt 9.6973 7.2812
vt 8.0059 7.4375
vt 8.4043 7.0811
vt 9.9619 7.1621
vt 10.0918 7.4375
vt 8.3936 7.7207
vt 8.4766 7.3408
vt 9.8896 7.2461
vt 10.2324 7.7207
vt 7.9844 7.9844
vt 8.3496 7.5352
vt 8.5566 7.7178
vt 8.4355 7.9238
vt 9.7852 7.9238
vt 10.0352 7.5713
vt 9.6250 7.5117
vt 9.8721 7.9844
vt 9.2588 7.6084
vt 7.9512 7.5371
vt 7.9844 7.9844
vt 9.4521 7.9844
vt 9.5303 7.0820
vt 7.7607 7.0820
vt 7.7754 6.3135
vt 9.5811 6.3262
vt 9.9619 7.1621
vt 8.4043 7.0811
vt 8.0059 7.4375
vt 10.0918 7.4375
vt 9.8896 7.2461
vt 8.4766 7.3408
vt 8.3936 7.7207
vt 10.2324 7.7207
vt 8.0078 6.4033
vt 7.7754 6.3135
vt 8.4756 6.5850
vt 8.4355 7.9238
vt 8.5566 7.7178
vt 8.3496 7.5352
vt 9.7852 7.9238
vt 8.1562 6.6855
vt 9.3809 6.7510
vt 9.3242 7.0479
vt 8.0195 6.9717
vt 7.7754 6.3135
vt 7.7754 6.3135
vt 8.0078 6.4033
vt 8.0078 6.4033
vt 8.4756 6.5850
vt 7.9121 7.6680
vt 9.4238 7.4482
vt 9.5107 7.9844
vt 7.9844 7.9844
vt 7.9395 7.6582
vt 9.9053 7.5820
vt 9.9258 7.9844
vt 7.9844 7.9844
vt 8.4209 7.6006
vt 10.2510 7.6396
vt 10.1670 7.9844
vt 7.9844 7.9844
vt 9.7139 7.9844
vt 9.4795 7.5693
vt 9.7725 7.6436
vt 8.0391 7.5674
vt 9.6514 7.4902
vt 10.0361 7.9844
vt 7.9844 7.9844
vt 8.0908 7.5439
vt 7.9844 7.9844
vt 10.3008 7.9883
vt 8.1787 7.9883
vt 8.7578 7.6074
vt 10.2891 7.6748
vt 9.4717 7.5391
vt 9.6592 7.9844
vt 7.9844 7.9844
vt 7.9668 7.3301
vt 9.8408 7.6660
vt 7.6953 7.9844
vt 7.8018 7.6270
vt 9.6357 7.5381
vt 10.0811 7.9844
vt 7.6260 7.7090
vt 8.9209 7.7090
vt 9.0391 8.0029
vt 7.6602 8.0029
vt 7.8252 7.7012
vt 7.7900 7.3711
vt 9.1260 7.3721
vt 9.2480 7.7012
vt 7.9844 7.9844
vt 7.9121 7.6680
vt 9.4238 7.4482
vt 9.5107 7.9844
vt 7.9395 7.6582
vt 9.9053 7.5820
vt 9.9258 7.9844
vt 7.9844 7.9844
vt 7.9844 7.9844
vt 8.4209 7.6006
vt 10.2510 7.6396
vt 7.9844 7.9844
vt 10.2510 7.6396
vt 10.1670 7.9844
vt 9.7139 7.9844
vt 9.4795 7.5693
vt 9.7725 7.6436
vt 8.0391 7.5674
vt 9.6514 7.4902
vt 10.0361 7.9844
vt 7.9844 7.9844
vt 7.9844 7.9844
vt 8.0908 7.5439
vt 10.2891 7.6748
vt 10.3008 7.9883
vt 8.1787 7.9883
vt 8.7578 7.6074
vt 9.6592 7.9844
vt 7.9844 7.9844
vt 7.9668 7.3301
vt 9.4717 7.5391
vt 9.8408 7.6660
vt 7.8018 7.6270
vt 9.6357 7.5381
vt 10.0811 7.9844
vt 7.6953 7.9844
vt 6.9980 12.4238
vt 5.0117 12.9561
vt 5.0117 11.4980
vt 5.0117 14.4844
vt 10.5117 8.9844
vt 8.9844 8.9844
vt 8.4521 6.9980
vt 1.0391 8.9844
vt 1.5713 6.9980
vt 2.8340 7.7266
vt 3.0254 5.5439
vt 0.2480 6.2344
vt 7.1895 7.7266
vt 8.4521 6.9980
vt 8.9844 8.9844
vt 7.5264 8.9844
vt 5.0117 11.4980
vt 5.0117 12.9561
vt 3.0254 12.4238
vt 5.0117 14.4844
vt 8.4521 10.9697
vt 10.5117 8.9844
vt 13.0566 12.8506
vt 12.2930 12.1074
vt 13.0068 11.3926
vt 13.7588 12.1357
vt 6.8418 7.3242
vt 6.6650 7.9844
vt 5.9258 7.9844
vt 6.2012 6.9551
vt 6.8418 8.6436
vt 6.2012 9.0127
vt 6.9551 9.7666
vt 7.3242 9.1260
vt 7.9844 10.0420
vt 7.9844 9.3027
vt 10.0420 7.9844
vt 9.3027 7.9844
vt 9.1260 7.3242
vt 10.0420 7.9844
vt 9.1260 7.3242
vt 9.7666 6.9551
vt 8.6436 9.1260
vt 9.0127 9.7666
vt 7.9844 10.0420
vt 7.9844 9.3027
vt 9.1260 8.6436
vt 9.7666 9.0127
vt 9.3027 7.9844
vt 8.6436 6.8418
vt 9.0127 6.2012
vt 7.9844 6.6650
vt 7.9844 5.9258
vt 7.3242 6.8418
vt 6.9551 6.2012
vt 6.8418 7.3242
vt 6.2012 6.9551
vt 13.8271 17.8486
vt 14.7793 18.8496
vt 14.3076 19.0703
vt 13.2939 18.0518
vt 17.9131 13.3740
vt 18.9033 14.4443
vt 17.4482 14.0059
vt 13.8535 18.3867
vt 14.5557 17.8438
vt 18.1846 13.8945
vt -2.6719 0.0000
vt -2.6875 2.0000
vt -2.6875 1.1250
vt -2.6875 0.6562
vt -2.6875 0.6641
vt -2.6875 0.6680
vt -0.7344 0.0000
vt -6.5000 0.0000
vt 5.1494 6.2266
vt -3.2500 0.0000
vt -3.4375 1.0000
vt -6.5000 0.0000
vt 4.6484 -28.9648
vt -2.6797 1.1250
vt -2.6797 0.6562
vt -2.6797 0.6641
vt -2.6797 0.6680
vt -0.7344 0.0000
vt 0.0000 0.0000
vt 1.1201 -0.1055
vt 1.1201 0.0869
vt 1.4082 0.0869
vt 2.0303 -0.1055
vt 1.5283 -0.1055
vt 1.5283 0.0791
vt 2.0303 0.0869
vt 2.0176 -0.1055
vt 2.0176 0.0869
vt 1.7334 0.0869
vt 1.7314 -0.1055
vt 1.5664 0.0000
vt 1.6641 -0.1055
vt 1.6641 0.0840
vt 1.6514 -0.1055
vt 0.9043 0.0000
vt 1.0518 0.0869
vt 1.0518 -0.1055
vt 1.0059 -0.1055
vt 0.3721 1.6152
vt 1.3535 1.6104
vt 1.3535 2.3926
vt 0.3721 2.3926
vt 2.3613 1.6064
vt 2.5420 2.8887
vt 1.3535 2.3877
vt 0.3721 1.6104
vt -0.5176 2.3926
vt 2.7061 2.3926
vt 2.7754 2.3926
vt 2.7754 1.6104
vt 3.7783 2.3877
vt 2.5420 2.8887
vt 2.7920 1.6064
vt 3.7783 1.6104
vt 2.7754 2.3926
vt 3.7783 2.3926
vt 2.7754 1.6152
vt 1.4121 -0.1113
vt -0.7559 0.0000
vt -0.0615 0.0000
vt -0.0352 0.0000
vt 1.8184 -0.1113
vt -2.6719 0.0000
vt -2.6797 4.0000
vt -0.7344 0.0000
vt -6.5000 0.0000
vt 8.0693 8.0693
vt 9.9609 9.9609
vt 9.9609 8.0693
vt 8.0693 9.9609
vt 8.0459 10.0293
vt 8.5020 8.0234
vt 8.0586 8.0430
vt 8.4893 9.9980
vt 8.5059 10.0137
vt 8.4941 8.0723
vt 8.0430 8.0664
vt 8.0537 10.0137
vt 8.5156 8.0439
vt 8.5020 10.0176
vt 8.0557 10.0352
vt 8.0693 8.0488
vt 8.5039 8.0410
vt 8.5166 9.9834
vt 8.0645 10.0098
vt 8.0537 8.0625
vt -2.6719 0.0000
vt -2.6875 2.0000
vt -6.5000 0.0000
vt -6.2500 0.0000
vt -3.2500 0.0000
vt -3.4375 9.0020
vt -3.4688 8.5020
vt -3.4844 8.2520
vt -3.4922 8.1270
vt -3.4961 8.0645
vt -6.5000 0.0000
vt 0.0000 0.0000
vt -3.2500 0.0000
vt -3.4375 9.0020
vt -2.6562 0.2500
vt -3.2500 0.0000
vt -6.5000 0.0000
vt 10.0156 10.9844
vt 8.0156 10.9844
vt 8.0156 8.0156
vt 10.0156 8.0156
vt 8.0156 8.0156
vt 10.0117 8.0156
vt 10.0156 8.3799
vt 8.0186 8.3799
vt 8.0146 8.0156
vt 8.0156 10.9854
vt 10.0156 10.9854
vt 10.0156 8.0156
vt 10.0156 8.3799
vt 10.0117 8.0156
vt 8.0156 8.0156
vt 8.0186 8.3799
vt 8.0156 8.0156
vt 12.0068 8.0156
vt 12.0059 8.5078
vt 8.0137 8.5078
vt 8.0186 8.0156
vt 8.0176 8.5078
vt 12.0088 8.5078
vt 12.0098 8.0156
vt -2.6719 0.0000
vt -2.6875 2.0000
vt -6.5000 0.0000
vt -2.6797 4.0000
vt 0.0000 0.0000
vt -3.2500 0.0000
vt -3.4375 9.0020
vt -2.6562 0.2500
vt -3.2500 0.0000
vt -6.5000 0.0000
vt 7.9844 7.9844
vt 11.9824 7.9844
vt 11.9814 7.5166
vt 7.9834 7.5166
vt 8.4121 10.8770
vt 9.5557 9.0957
vt 9.5557 10.8770
vt 8.4121 9.0957
vt 9.9844 11.9883
vt 9.9844 7.9844
vt 7.9844 11.9883
vt 7.9844 7.9844
vt 9.9844 7.9844
vt 7.9844 7.9844
vt 7.9844 7.5869
vt 9.9844 7.5869
vt 7.9844 7.9844
vt 9.9844 7.9844
vt 9.9844 8.3809
vt 7.9844 8.3809
vt 9.9844 11.9873
vt 7.9844 11.9873
vt 7.9814 9.9844
vt 9.9824 7.9844
vt 9.9805 9.9844
vt 7.9844 7.9844
vt -2.6719 0.0000
vt -2.6797 4.0000
vt -0.7344 0.0000
vt -6.5000 0.0000
vt -6.2500 0.0000
vt -3.2500 0.0000
vt -3.4375 1.0000
vt -6.5000 0.0000
vt -3.2500 0.0000
vt -3.4375 1.0000
vt -6.5000 0.0000
vt 0.0000 0.0039
vt 0.0000 0.0039
vt 0.0000 0.0039
vt 0.0000 0.0039
vt 0.0000 0.0039
vt 0.0000 0.0000
vt -3.2500 0.0000
vt -2.6562 0.2500
vt 4.5234 -27.8379
vt -0.7344 0.0000
vt -3.2500 0.0000
vt -2.6875 1.1250
vt 1.2715 6.5273
vt -2.6875 2.0000
vt 12.0059 9.0039
vt 8.0156 9.0039
vt 8.0156 8.0156
vt 12.0059 8.0156
vt 8.0820 9.0039
vt 12.0283 9.0039
vt 12.0283 8.0156
vt 8.0820 8.0156
vt 8.0156 8.0156
vt 11.9863 8.0156
vt 11.9639 9.0098
vt 7.9473 8.9961
vt 7.9473 8.9961
vt 11.9639 9.0098
vt 11.9863 8.0156
vt 8.0156 8.0156
vt 9.7207 9.0000
vt 8.0156 8.0156
vt 9.1523 8.0156
vt 7.4463 9.0000
vt 9.1523 9.9844
vt 8.0156 9.9844
vt 8.0156 8.0156
vt 8.0156 8.4746
vt 9.2939 8.4746
vt 9.2939 8.0156
vt 9.2939 8.4736
vt 8.0156 8.4736
vt 8.0156 8.0156
vt 9.2715 8.0156
vt 9.2715 8.4658
vt 8.0156 8.4658
vt 9.2715 8.0156
vt 8.0156 8.4658
vt 8.0156 8.0156
vt 9.3115 8.4795
vt 8.0156 8.4795
vt 8.0156 8.0156
vt 9.3115 8.0156
vt 9.2979 8.0156
vt 9.2979 8.4746
vt 8.0156 8.4746
vt 8.0156 8.0156
vt 9.2812 8.0156
vt 9.2812 8.4688
vt 8.0156 8.4688
vt 8.0156 8.0156
vt 9.5615 8.0156
vt 7.9297 9.0166
vt 8.4766 8.0156
vt 8.4678 10.0186
vt 10.0986 9.0166
vt 9.5518 10.0186
vt -2.6719 0.0000
vt -2.6797 4.0000
vt -6.5000 0.0000
vt -3.2500 0.0000
vt -6.5000 0.0000
vt -2.6875 2.0000
vt -3.4688 8.5020
vt -3.4844 8.2520
vt -3.4922 8.1270
vt -3.4961 8.0645
vt -6.5000 0.0000
vt -3.2500 0.0000
vt -3.4375 9.0020
vt -6.5000 0.0000
vt 0.0000 0.0000
vt -3.2500 0.0000
vt -3.4375 9.0020
vt -2.6562 0.2500
vt -2.6875 2.0000
vt -6.2500 0.0000
vt -3.2500 0.0000
vt -0.7344 0.0000
vt 8.0586 8.6230
vt 8.0586 9.4141
vt 8.6172 9.9736
vt 9.4072 8.0625
vt 8.6172 8.0625
vt 9.9668 9.4141
vt 9.9668 8.6230
vt 9.4072 9.9736
vt 8.6172 9.9736
vt 8.0586 9.4141
vt 8.0586 8.6230
vt 8.6172 8.0625
vt 9.4072 8.0625
vt 9.9668 8.6230
vt 9.9668 9.4141
vt 9.4072 9.9736
vt 9.0156 8.1650
vt 8.0156 8.4404
vt 8.0156 8.1650
vt 9.0156 8.4404
vt 10.0156 8.1650
vt 10.0156 8.4404
vt 9.0156 8.1650
vt 8.0156 8.4404
vt 8.0156 8.1650
vt 9.0156 8.4404
vt 10.0156 8.1650
vt 10.0156 8.4404
vt 9.0156 8.1650
vt 8.0156 8.4404
vt 8.0156 8.1650
vt 9.0156 8.4404
vt 10.0156 8.1650
vt 9.0156 8.4404
vt 9.0156 8.1650
vt 10.0156 8.4404
vt 9.0156 8.1650
vt 8.0156 8.4404
vt 8.0156 8.1650
vt 9.0156 8.4404
vt 10.0156 8.1650
vt 10.0156 8.4404
vt 8.0156 9.0156
vt 8.0156 8.0156
vt 8.5156 9.0156
vt 8.5156 8.0156
vt 9.0156 9.0156
vt 9.0156 8.0156
vt 8.0156 9.0156
vt 8.0156 8.0156
vt 8.5156 9.0156
vt 8.5156 8.0156
vt 9.0156 9.0156
vt 9.0156 8.0156
vt 9.8818 9.4873
vt 9.8818 7.4873
vt 7.8818 7.4873
vt 7.8818 9.4873
vt -2.6719 0.0000
vt -2.6875 2.0000
vt -6.5000 0.0000
vt 4.2773 -26.8096
vt -2.6797 4.0000
vt -6.2500 0.0000
vt -3.2500 0.0000
vt -3.4375 9.0020
vt -6.5000 0.0000
vt -3.2500 0.0000
vt -3.4375 9.0020
vt -6.5000 0.0000
vt 0.0000 0.0000
vt 0.0000 0.0000
vt -3.2500 0.0000
vt -3.4375 9.0020
vt -3.4688 8.5020
vt -3.4844 8.2520
vt -3.4922 8.1270
vt -3.4961 8.0645
vt -2.6562 0.2500
vt 0.0000 0.0098
vt 0.0000 0.0098
vt 0.0000 0.0098
vt 0.0000 0.0098
vt 0.0000 0.0098
vt 0.0000 0.0098
vt 0.0000 0.0098
vt 0.0000 0.0098
vt 0.0000 0.0098
vt 0.0000 0.0098
vt 0.0000 0.1016
vt 8.0156 8.0156
vt 9.6035 8.0156
vt 9.6035 13.0781
vt 8.0146 13.0781
vt -2.6719 0.0000
vt -2.6797 2.0000
vt -6.5000 0.0000
vt -8.2500 0.0000
vt 0.0000 0.0000
vt -3.2500 0.0000
vt -3.4375 9.0020
vt -3.4688 8.5020
vt -3.4844 8.2520
vt -3.4922 8.1270
vt -3.4961 8.0645
vt -2.6562 0.2500
f 93/93 2/2 88/88
f 18/18 1/1 1/1
f 110/110 2/2 8/8
f 26/26 1/1 1/1
f 123/123 1/1 84/84
f 2/2 1/1 34/34
f 33/33 1/1 1/1
f 116/116 1/1 87/87
f 33/33 1/1 1/1
f 116/116 1/1 87/87
f 33/33 1/1 1/1
f 2/2 1/1 34/34
f 33/33 1/1 1/1
f 14/14 1/1 38/38
f 115/115 1/1 97/97
f 54/54 1/1 21/21
f 71/71 2/2 40/40
f 41/41 2/2 58/58
f 88/88 1/1 85/85
f 14/14 1/1 38/38
f 115/115 1/1 97/97
f 71/71 2/2 40/40
f 112/112 128/128 82/82
f 112/112 1/1 18/18
f 112/112 4/4 18/18
f 103/103 1/1 125/125
f 50/50 3/3 93/93
f 93/93 1/1 78/78
f 6/6 3/3 93/93
f 110/110 1/1 4/4
f 6/6 3/3 93/93
f 110/110 1/1 70/70
f 112/112 4/4 18/18
f 103/103 1/1 71/71
f 88/88 2/2 10/10
f 13/13 1/1 1/1
f 93/93 2/2 88/88
f 18/18 1/1 1/1
f 2/2 1/1 34/34
f 33/33 1/1 1/1
f 123/123 1/1 84/84
f 71/71 2/2 40/40
f 54/54 1/1 21/21
f 117/117 1/1 1/1
f 51/51 2/2 37/37
f 54/54 1/1 32/32
f 60/60 1/1 38/38
f 26/26 1/1 109/109
f 14/14 1/1 38/38
f 115/115 1/1 84/84
f 41/41 2/2 58/58
f 88/88 1/1 104/104
f 84/84 2/2 59/59
f 3/3 1/1 103/103
f 72/72 3/3 122/122
f 18/18 1/1 118/118
f 93/93 2/2 88/88
f 18/18 1/1 1/1
f 88/88 2/2 10/10
f 13/13 1/1 1/1
f 110/110 2/2 8/8
f 26/26 1/1 1/1
f 116/116 1/1 87/87
f 33/33 1/1 1/1
f 84/84 2/2 59/59
f 3/3 1/1 1/1
f 34/34 2/2 37/37
f 84/84 2/2 59/59
f 3/3 1/1 117/117
f 51/51 2/2 37/37
f 54/54 1/1 32/32
f 14/14 1/1 38/38
f 115/115 1/1 97/97
f 112/112 1/1 18/18
f 78/78 1/1 88/88
f 34/34 1/1 83/83
f 43/43 1/1 119/119
f 6/6 3/3 93/93
f 110/110 1/1 4/4
f 50/50 3/3 93/93
f 93/93 1/1 15/15
f 34/34 2/2 36/36
f 34/34 2/2 37/37
f 51/51 2/2 37/37
f 54/54 1/1 32/32
f 51/51 2/2 38/38
f 60/60 1/1 117/117
f 54/54 4/4 66/66
f 110/110 2/2 8/8
f 26/26 1/1 108/108
f 123/123 1/1 84/84
f 88/88 2/2 10/10
f 13/13 1/1 95/95
f 117/117 128/128 75/75
f 117/117 1/1 45/45
f 15/15 1/1 45/45
f 125/125 1/1 1/1
f 15/15 128/128 75/75
f 125/125 1/1 1/1
f 120/120 1/1 45/45
f 78/78 1/1 1/1
f 120/120 128/128 75/75
f 78/78 1/1 1/1
f 91/91 128/128 75/75
f 49/49 1/1 1/1
f 91/91 1/1 45/45
f 49/49 1/1 1/1
f 108/108 1/1 45/45
f 108/108 128/128 75/75
f 15/15 128/128 75/75
f 125/125 1/1 1/1
f 15/15 1/1 45/45
f 125/125 1/1 1/1
f 85/85 1/1 45/45
f 113/113 1/1 1/1
f 85/85 128/128 75/75
f 113/113 1/1 1/1
f 120/120 128/128 75/75
f 78/78 1/1 1/1
f 120/120 1/1 45/45
f 78/78 1/1 1/1
f 108/108 128/128 75/75
f 108/108 1/1 45/45
f 82/82 1/1 45/45
f 82/82 128/128 75/75
f 85/85 128/128 75/75
f 113/113 1/1 1/1
f 85/85 1/1 45/45
f 113/113 1/1 1/1
f 56/56 1/1 45/45
f 84/84 1/1 1/1
f 56/56 128/128 75/75
f 84/84 1/1 1/1
f 82/82 128/128 75/75
f 82/82 1/1 45/45
f 117/117 1/1 45/45
f 117/117 128/128 75/75
f 56/56 128/128 75/75
f 84/84 1/1 1/1
f 56/56 1/1 45/45
f 84/84 1/1 1/1
f 91/91 1/1 45/45
f 49/49 1/1 1/1
f 91/91 128/128 75/75
f 49/49 1/1 1/1
f 122/122 1/1 67/67
f 99/99 1/1 67/67
f 18/18 1/1 1/1
f 44/44 1/1 67/67
f 35/35 1/1 67/67
f 50/50 1/1 1/1
f 117/117 1/1 67/67
f 118/118 1/1 67/67
f 6/6 1/1 67/67
f 84/84 1/1 10/10
f 44/44 1/1 67/67
f 84/84 1/1 10/10
f 120/120 1/1 10/10
f 118/118 1/1 67/67
f 44/44 1/1 67/67
f 120/120 1/1 10/10
f 122/122 1/1 67/67
f 7/7 1/1 1/1
f 114/114 1/1 1/1
f 99/99 1/1 67/67
f 18/18 1/1 1/1
f 99/99 1/1 67/67
f 18/18 1/1 1/1
f 115/115 1/1 67/67
f 35/35 1/1 67/67
f 50/50 1/1 1/1
f 35/35 1/1 1/1
f 50/50 1/1 1/1
f 84/84 1/1 10/10
f 117/117 1/1 1/1
f 120/120 1/1 10/10
f 120/120 1/1 10/10
f 84/84 1/1 10/10
f 14/14 1/1 38/38
f 115/115 1/1 97/97
f 34/34 2/2 37/37
f 34/34 2/2 36/36
f 78/78 1/1 88/88
f 87/87 2/2 40/40
f 117/117 1/1 1/1
f 117/117 1/1 67/67
f 35/35 1/1 67/67
f 50/50 1/1 1/1
f 35/35 1/1 1/1
f 50/50 1/1 1/1
f 115/115 1/1 67/67
f 114/114 1/1 1/1
f 35/35 1/1 1/1
f 50/50 1/1 1/1
f 35/35 1/1 67/67
f 50/50 1/1 1/1
f 7/7 1/1 1/1
f 6/6 1/1 67/67
f 117/117 1/1 67/67
f 117/117 1/1 1/1
f 99/99 1/1 67/67
f 18/18 1/1 1/1
f 114/114 1/1 1/1
f 115/115 1/1 67/67
f 6/6 1/1 67/67
f 7/7 1/1 1/1
f 122/122 1/1 67/67
f 34/34 2/2 36/36
f 51/51 2/2 38/38
f 60/60 1/1 117/117
f 87/87 2/2 40/40
f 57/57 2/2 52/52
f 52/52 1/1 26/26
f 1/1 2/2 108/108
f 50/50 3/3 93/93
f 93/93 1/1 1/1
f 56/56 2/2 114/114
f 75/75 1/1 1/1
f 51/51 2/2 38/38
f 60/60 1/1 1/1
f 57/57 2/2 52/52
f 52/52 1/1 1/1
f 72/72 3/3 122/122
f 18/18 1/1 61/61
f 1/1 2/2 108/108
f 77/77 2/2 112/112
f 14/14 1/1 1/1
f 51/51 2/2 38/38
f 60/60 1/1 1/1
f 56/56 2/2 114/114
f 75/75 1/1 1/1
f 76/76 2/2 114/114
f 8/8 1/1 1/1
f 1/1 2/2 108/108
f 117/117 1/1 1/1
f 32/32 1/1 91/91
f 41/41 1/1 73/73
f 72/72 1/1 102/102
f 18/18 1/1 56/56
f 77/77 2/2 112/112
f 14/14 1/1 1/1
f 1/1 2/2 108/108
f 56/56 2/2 114/114
f 75/75 1/1 69/69
f 50/50 3/3 93/93
f 93/93 1/1 78/78
f 56/56 2/2 114/114
f 75/75 1/1 1/1
f 76/76 2/2 114/114
f 8/8 1/1 1/1
f 72/72 1/1 102/102
f 18/18 1/1 40/40
f 72/72 3/3 122/122
f 18/18 1/1 61/61
f 54/54 4/4 66/66
f 54/54 4/4 66/66
f 51/51 2/2 38/38
f 60/60 1/1 117/117
f 112/112 4/4 18/18
f 103/103 1/1 71/71
f 50/50 3/3 93/93
f 93/93 1/1 78/78
f 56/56 2/2 114/114
f 75/75 1/1 1/1
f 94/94 128/128 75/75
f 114/114 1/1 13/13
f 35/35 1/1 1/1
f 80/80 1/1 10/10
f 64/64 26/26 92/92
f 37/37 35/35 128/128
f 55/55 16/16 121/121
f 64/64 26/26 92/92
f 37/37 35/35 128/128
f 34/34 26/26 125/125
f 54/54 7/7 33/33
f 37/37 35/35 128/128
f 15/15 6/6 127/127
f 55/55 16/16 121/121
f 94/94 128/128 75/75
f 16/16 1/1 119/119
f 65/65 128/128 75/75
f 94/94 128/128 75/75
f 114/114 1/1 13/13
f 17/17 128/128 75/75
f 118/118 1/1 28/28
f 54/54 7/7 33/33
f 37/37 35/35 128/128
f 55/55 16/16 121/121
f 94/94 128/128 75/75
f 16/16 1/1 119/119
f 35/35 1/1 1/1
f 50/50 1/1 2/2
f 35/35 1/1 1/1
f 80/80 1/1 10/10
f 94/94 128/128 75/75
f 114/114 1/1 13/13
f 64/64 26/26 92/92
f 37/37 35/35 128/128
f 34/34 26/26 125/125
f 34/34 26/26 125/125
f 29/29 1/1 78/78
f 27/27 1/1 14/14
f 17/17 128/128 75/75
f 118/118 1/1 28/28
f 17/17 128/128 75/75
f 118/118 1/1 28/28
f 54/54 7/7 33/33
f 37/37 35/35 128/128
f 65/65 128/128 75/75
f 15/15 6/6 127/127
f 15/15 6/6 127/127
f 94/94 128/128 75/75
f 114/114 1/1 13/13
f 114/114 1/1 1/1
f 35/35 1/1 1/1
f 50/50 1/1 1/1
f 94/94 128/128 75/75
f 16/16 1/1 1/1
f 7/7 1/1 1/1
f 26/26 1/1 1/1
f 35/35 1/1 1/1
f 80/80 1/1 1/1
f 35/35 1/1 1/1
f 50/50 1/1 1/1
f 26/26 1/1 1/1
f 35/35 1/1 1/1
f 80/80 1/1 1/1
f 7/7 1/1 1/1
f 114/114 1/1 1/1
f 35/35 1/1 1/1
f 50/50 1/1 1/1
f 35/35 1/1 1/1
f 80/80 1/1 1/1
f 26/26 1/1 1/1
f 29/29 1/1 78/78
f 27/27 1/1 28/28
f 72/72 1/1 102/102
f 18/18 1/1 40/40
f 54/54 1/1 21/21
f 117/117 1/1 1/1
f 112/112 1/1 18/18
f 14/14 1/1 38/38
f 115/115 1/1 97/97
f 112/112 1/1 18/18
f 34/34 26/26 125/125
f 112/112 128/128 82/82
f 34/34 26/26 125/125
f 65/65 128/128 75/75
f 64/64 26/26 92/92
f 37/37 35/35 128/128
f 65/65 128/128 75/75
f 117/117 1/1 1/1
f 126/126 1/1 104/104
f 7/7 1/1 108/108
f 118/118 2/2 2/2
f 13/13 1/1 95/95
f 29/29 1/1 77/77
f 27/27 1/1 122/122
f 29/29 1/1 78/78
f 27/27 1/1 84/84
f 126/126 1/1 104/104
f 7/7 1/1 45/45
f 29/29 1/1 78/78
f 27/27 1/1 28/28
f 118/118 2/2 2/2
f 13/13 1/1 1/1
f 29/29 1/1 77/77
f 27/27 1/1 122/122
f 84/84 2/2 59/59
f 3/3 1/1 103/103
f 60/60 1/1 38/38
f 26/26 1/1 84/84
f 84/84 2/2 59/59
f 3/3 1/1 87/87
f 79/79 4/4 80/80
f 46/46 1/1 5/5
f 112/112 4/4 94/94
f 78/78 1/1 29/29
f 121/121 4/4 114/114
f 71/71 1/1 27/27
f 68/68 4/4 95/95
f 15/15 1/1 124/124
f 118/118 3/3 70/70
f 67/67 1/1 25/25
f 109/109 3/3 90/90
f 75/75 1/1 125/125
f 105/105 3/3 24/24
f 44/44 1/1 10/10
f 122/122 3/3 107/107
f 49/49 1/1 20/20
f 105/105 3/3 108/108
f 80/80 1/1 109/109
f 91/91 3/3 25/25
f 94/94 1/1 94/94
f 68/68 4/4 95/95
f 15/15 1/1 124/124
f 121/121 4/4 114/114
f 71/71 1/1 10/10
f 121/121 4/4 114/114
f 71/71 1/1 99/99
f 67/67 4/4 3/3
f 33/33 1/1 114/114
f 61/61 3/3 123/123
f 7/7 1/1 122/122
f 89/89 3/3 88/88
f 14/14 3/3 69/69
f 80/80 1/1 72/72
f 14/14 3/3 24/24
f 80/80 1/1 66/66
f 87/87 3/3 24/24
f 91/91 3/3 59/59
f 94/94 1/1 87/87
f 91/91 3/3 25/25
f 94/94 1/1 96/96
f 14/14 3/3 24/24
f 80/80 1/1 66/66
f 14/14 3/3 69/69
f 80/80 1/1 72/72
f 105/105 3/3 24/24
f 44/44 1/1 32/32
f 105/105 3/3 69/69
f 44/44 1/1 16/16
f 42/42 3/3 88/88
f 100/100 1/1 61/61
f 40/40 3/3 24/24
f 102/102 1/1 64/64
f 105/105 3/3 69/69
f 44/44 1/1 16/16
f 105/105 3/3 24/24
f 44/44 1/1 32/32
f 33/33 3/3 42/42
f 25/25 1/1 44/44
f 97/97 3/3 110/110
f 17/17 3/3 110/110
f 90/90 1/1 45/45
f 122/122 3/3 110/110
f 83/83 3/3 111/111
f 102/102 1/1 25/25
f 39/39 3/3 110/110
f 91/91 1/1 86/86
f 95/95 3/3 110/110
f 41/41 1/1 108/108
f 105/105 3/3 108/108
f 80/80 1/1 109/109
f 9/9 3/3 107/107
f 61/61 1/1 90/90
f 9/9 3/3 107/107
f 61/61 1/1 90/90
f 67/67 3/3 106/106
f 95/95 3/3 110/110
f 41/41 1/1 108/108
f 122/122 3/3 107/107
f 49/49 1/1 20/20
f 41/41 3/3 106/106
f 122/122 1/1 37/37
f 39/39 3/3 110/110
f 91/91 1/1 86/86
f 95/95 3/3 110/110
f 41/41 1/1 108/108
f 41/41 3/3 106/106
f 122/122 1/1 37/37
f 95/95 3/3 110/110
f 41/41 1/1 108/108
f 83/83 3/3 111/111
f 102/102 1/1 25/25
f 105/105 3/3 108/108
f 80/80 1/1 109/109
f 122/122 3/3 107/107
f 49/49 1/1 20/20
f 97/97 3/3 110/110
f 122/122 3/3 110/110
f 103/103 3/3 106/106
f 67/67 3/3 106/106
f 122/122 3/3 110/110
f 39/39 3/3 110/110
f 91/91 1/1 86/86
f 41/41 3/3 106/106
f 122/122 1/1 37/37
f 103/103 3/3 106/106
f 17/17 3/3 110/110
f 90/90 1/1 45/45
f 9/9 3/3 107/107
f 61/61 1/1 90/90
f 105/105 3/3 108/108
f 80/80 1/1 109/109
f 83/83 3/3 111/111
f 102/102 1/1 25/25
f 41/41 3/3 106/106
f 122/122 1/1 37/37
f 40/40 3/3 24/24
f 102/102 1/1 43/43
f 116/116 3/3 24/24
f 103/103 3/3 106/106
f 105/105 3/3 24/24
f 44/44 1/1 10/10
f 122/122 3/3 107/107
f 49/49 1/1 20/20
f 117/117 3/3 93/93
f 42/42 3/3 88/88
f 100/100 1/1 61/61
f 89/89 3/3 88/88
f 87/87 3/3 24/24
f 116/116 3/3 24/24
f 117/117 3/3 93/93
f 87/87 3/3 24/24
f 67/67 3/3 106/106
f 103/103 3/3 106/106
f 116/116 3/3 24/24
f 121/121 4/4 114/114
f 71/71 1/1 27/27
f 112/112 4/4 94/94
f 78/78 1/1 29/29
f 42/42 3/3 88/88
f 100/100 1/1 61/61
f 77/77 4/4 54/54
f 53/53 1/1 47/47
f 34/34 4/4 64/64
f 26/26 1/1 27/27
f 117/117 3/3 93/93
f 77/77 4/4 54/54
f 53/53 1/1 47/47
f 34/34 4/4 64/64
f 26/26 1/1 27/27
f 117/117 3/3 93/93
f 9/9 4/4 54/54
f 110/110 1/1 113/113
f 89/89 3/3 88/88
f 112/112 4/4 94/94
f 78/78 1/1 29/29
f 79/79 4/4 80/80
f 46/46 1/1 5/5
f 9/9 4/4 54/54
f 110/110 1/1 113/113
f 61/61 3/3 123/123
f 7/7 1/1 122/122
f 118/118 3/3 70/70
f 67/67 1/1 25/25
f 97/97 3/3 110/110
f 67/67 3/3 106/106
f 9/9 3/3 107/107
f 61/61 1/1 90/90
f 17/17 3/3 110/110
f 90/90 1/1 45/45
f 68/68 4/4 95/95
f 15/15 1/1 124/124
f 61/61 3/3 123/123
f 7/7 1/1 122/122
f 79/79 4/4 80/80
f 46/46 1/1 5/5
f 67/67 4/4 3/3
f 33/33 1/1 114/114
f 67/67 4/4 3/3
f 33/33 1/1 114/114
f 9/9 4/4 54/54
f 110/110 1/1 113/113
f 79/79 4/4 80/80
f 46/46 1/1 5/5
f 40/40 3/3 119/119
f 56/56 1/1 77/77
f 40/40 3/3 119/119
f 56/56 1/1 77/77
f 89/89 3/3 88/88
f 9/9 4/4 54/54
f 110/110 1/1 113/113
f 14/14 3/3 69/69
f 80/80 1/1 72/72
f 109/109 3/3 90/90
f 75/75 1/1 125/125
f 40/40 3/3 119/119
f 56/56 1/1 77/77
f 67/67 4/4 3/3
f 33/33 1/1 114/114
f 109/109 3/3 90/90
f 75/75 1/1 125/125
f 14/14 3/3 69/69
f 80/80 1/1 72/72
f 40/40 3/3 119/119
f 56/56 1/1 77/77
f 91/91 3/3 59/59
f 94/94 1/1 87/87
f 105/105 3/3 69/69
f 44/44 1/1 16/16
f 77/77 4/4 54/54
f 53/53 1/1 47/47
f 42/42 3/3 88/88
f 100/100 1/1 61/61
f 105/105 3/3 69/69
f 44/44 1/1 16/16
f 77/77 4/4 54/54
f 53/53 1/1 47/47
f 20/20 15/15 15/15
f 128/128 128/128 1/1
f 54/54 4/4 66/66
f 9/9 10/10 11/11
f 9/9 11/11 12/12
f 28/28 30/30 31/31
f 28/28 25/25 27/27
f 29/29 30/30 31/31
f 29/29 31/31 32/32
f 26/26 27/27 28/28
f 29/29 26/26 28/28
f 30/30 31/31 32/32
f 29/29 23/23 25/25
f 30/30 31/31 32/32
f 27/27 28/28 29/29
f 30/30 27/27 29/29
f 24/24 26/26 27/27
f 28/28 29/29 30/30
f 31/31 28/28 30/30
f 27/27 28/28 29/29
f 27/27 29/29 30/30
f 27/27 24/24 26/26
f 28/28 29/29 30/30
f 31/31 28/28 30/30
f 24/24 23/23 31/31
f 9/9 10/10 11/11
f 12/12 9/9 11/11
f 29/29 30/30 31/31
f 29/29 31/31 32/32
f 17/17 18/18 19/19
f 20/20 17/17 19/19
f 29/29 30/30 31/31
f 29/29 31/31 32/32
f 23/23 26/26 24/24
f 27/27 28/28 29/29
f 30/30 27/27 29/29
f 1/1 2/2 3/3
f 1/1 3/3 4/4
f 29/29 30/30 31/31
f 29/29 31/31 32/32
f 1/1 2/2 3/3
f 1/1 3/3 4/4
f 15/15 5/5 8/8
f 15/15 8/8 13/13
f 1/1 2/2 3/3
f 1/1 3/3 4/4
f 9/9 16/16 15/15
f 10/10 9/9 15/15
f 26/26 27/27 28/28
f 26/26 28/28 29/29
f 30/30 31/31 32/32
f 1/1 2/2 3/3
f 26/26 23/23 22/22
f 27/27 26/26 22/22
f 28/28 29/29 30/30
f 31/31 28/28 30/30
f 1/1 2/2 3/3
f 1/1 3/3 4/4
f 13/13 14/14 15/15
f 16/16 13/13 15/15
f 17/17 18/18 19/19
f 20/20 21/21 22/22
f 23/23 20/20 19/19
f 24/24 23/23 19/19
f 25/25 26/26 27/27
f 28/28 29/29 30/30
f 31/31 28/28 30/30
f 29/29 30/30 31/31
f 30/30 32/32 31/31
f 29/29 30/30 31/31
f 8/8 10/10 11/11
f 8/8 11/11 12/12
f 29/29 26/26 28/28
f 30/30 31/31 32/32
f 29/29 30/30 31/31
f 29/29 31/31 32/32
f 27/27 28/28 29/29
f 27/27 29/29 30/30
f 27/27 28/28 29/29
f 27/27 29/29 30/30
f 17/17 18/18 19/19
f 17/17 19/19 20/20
f 32/32 31/31 30/30
f 29/29 32/32 30/30
f 27/27 28/28 29/29
f 27/27 29/29 30/30
f 16/16 18/18 19/19
f 20/20 21/21 22/22
f 27/27 28/28 24/24
f 29/29 30/30 31/31
f 29/29 31/31 32/32
f 10/10 26/26 11/11
f 28/28 29/29 30/30
f 29/29 30/30 31/31
f 29/29 31/31 32/32
f 29/29 30/30 31/31
f 29/29 31/31 32/32
f 17/17 18/18 19/19
f 17/17 19/19 20/20
f 27/27 28/28 29/29
f 30/30 27/27 29/29
f 27/27 28/28 29/29
f 30/30 31/31 32/32
f 11/11 12/12 13/13
f 11/11 13/13 14/14
f 1/1 2/2 3/3
f 4/4 1/1 3/3
f 31/31 29/29 30/30
f 31/31 30/30 32/32
f 3/3 31/31 32/32
f 15/15 16/16 17/17
f 18/18 19/19 6/6
f 25/25 4/4 26/26
f 27/27 28/28 30/30
f 27/27 30/30 25/25
f 32/32 2/2 31/31
f 31/31 19/19 24/24
f 27/27 28/28 29/29
f 27/27 29/29 30/30
f 21/21 12/12 11/11
f 21/21 11/11 22/22
f 30/30 31/31 15/15
f 19/19 30/30 15/15
f 32/32 3/3 9/9
f 1/1 2/2 3/3
f 2/2 1/1 4/4
f 5/5 2/2 4/4
f 6/6 7/7 8/8
f 6/6 8/8 9/9
f 7/7 6/6 10/10
f 11/11 7/7 10/10
f 28/28 29/29 30/30
f 31/31 28/28 30/30
f 24/24 26/26 27/27
f 28/28 29/29 30/30
f 28/28 30/30 31/31
f 29/29 26/26 28/28
f 30/30 31/31 32/32
f 27/27 24/24 26/26
f 28/28 29/29 30/30
f 28/28 30/30 31/31
f 1/1 2/2 3/3
f 4/4 1/1 3/3
f 29/29 30/30 31/31
f 32/32 29/29 31/31
f 30/30 31/31 32/32
f 28/28 30/30 31/31
f 28/28 29/29 30/30
f 31/31 28/28 30/30
f 24/24 25/25 26/26
f 25/25 24/24 27/27
f 28/28 29/29 30/30
f 31/31 28/28 30/30
f 21/21 19/19 18/18
f 54/54 4/4 66/66
f 54/54 4/4 66/66
f 34/34 2/2 36/36
f 51/51 2/2 38/38
f 60/60 1/1 1/1
f 112/112 4/4 18/18
f 103/103 1/1 1/1
f 50/50 3/3 93/93
f 93/93 1/1 1/1
f 6/6 3/3 93/93
f 110/110 1/1 1/1
f 6/6 3/3 93/93
f 110/110 1/1 1/1
f 112/112 4/4 18/18
f 103/103 1/1 1/1
f 37/37 14/14 128/128
f 121/121 93/93 99/99
f 26/26 1/1 1/1
f 35/35 1/1 1/1
f 80/80 1/1 1/1
f 122/122 1/1 67/67
f 7/7 1/1 1/1
f 114/114 1/1 1/1
f 99/99 1/1 67/67
f 18/18 1/1 1/1
f 29/29 1/1 77/77
f 27/27 1/1 1/1
f 29/29 1/1 78/78
f 27/27 1/1 1/1
f 29/29 1/1 77/77
f 27/27 1/1 1/1
f 126/126 1/1 104/104
f 7/7 1/1 1/1
f 27/27 28/28 29/29
f 29/29 30/30 27/27
f 31/31 2/2 1/1
f 26/26 24/24 13/13
f 27/27 28/28 29/29
f 30/30 28/28 27/27
f 25/25 22/22 24/24
f 26/26 27/27 28/28
f 29/29 27/27 26/26
f 30/30 31/31 32/32
f 9/9 8/8 14/14
f 14/14 8/8 15/15
f 28/28 26/26 27/27
f 28/28 27/27 29/29
f 30/30 31/31 32/32
f 23/23 27/27 22/22
f 82/82 128/128 75/75
f 82/82 1/1 45/45
f 15/15 128/128 75/75
f 125/125 1/1 1/1
f 15/15 1/1 41/41
f 125/125 1/1 1/1
f 120/120 1/1 45/45
f 78/78 1/1 1/1
f 119/119 128/128 75/75
f 78/78 1/1 1/1
f 35/35 1/1 1/1
f 50/50 1/1 1/1
f 85/85 128/128 75/75
f 113/113 1/1 1/1
f 85/85 1/1 44/44
f 113/113 1/1 1/1
f 78/78 128/128 75/75
f 1/1 1/1 1/1
f 54/54 4/4 57/57
f 54/54 5/5 74/74
f 54/54 5/5 71/71
f 84/84 128/128 72/72
f 120/120 128/128 72/72
f 120/120 1/1 10/10
f 84/84 1/1 10/10
f 84/84 128/128 72/72
f 84/84 1/1 10/10
f 120/120 1/1 10/10
f 120/120 128/128 72/72
f 117/117 128/128 62/62
f 117/117 1/1 1/1
f 35/35 1/1 1/1
f 50/50 1/1 1/1
f 35/35 128/128 62/62
f 50/50 1/1 1/1
f 117/117 1/1 1/1
f 117/117 128/128 62/62
f 16/16 17/17 18/18
f 19/19 16/16 18/18
f 28/28 29/29 30/30
f 29/29 31/31 30/30
f 1/1 2/2 3/3
f 1/1 4/4 2/2
f 1/1 2/2 3/3
f 1/1 3/3 4/4
f 23/23 24/24 25/25
f 23/23 26/26 24/24
f 30/30 31/31 32/32
f 11/11 8/8 10/10
f 12/12 13/13 14/14
f 12/12 14/14 15/15
f 30/30 31/31 32/32
f 8/8 10/10 11/11
f 12/12 13/13 14/14
f 12/12 14/14 15/15
f 28/28 29/29 30/30
f 31/31 28/28 30/30
f 1/1 2/2 3/3
f 1/1 3/3 4/4
f 29/29 30/30 31/31
f 32/32 30/30 29/29
f 9/9 8/8 5/5
f 10/10 8/8 9/9
f 23/23 24/24 25/25
f 25/25 26/26 23/23
f 90/90 128/128 107/107
f 61/61 128/128 107/107
f 89/89 1/1 1/1
f 115/115 128/128 111/111
f 58/58 128/128 107/107
f 36/36 1/1 119/119
f 20/20 128/128 107/107
f 95/95 1/1 28/28
f 61/61 128/128 107/107
f 89/89 1/1 13/13
f 58/58 128/128 107/107
f 36/36 1/1 1/1
f 28/28 30/30 31/31
f 1/1 2/2 3/3
f 1/1 3/3 4/4
