mtllib assets10_model_035.mtl
# Conker's Bad Fur Day — Real 3D Model (Spooky Models)
o assets10_model_035
usemtl assets10_model_035_mat

v 0.0000 1.4400 0.0000
v 0.0000 1.8400 0.0000
v 0.0000 2.1600 0.0000
v 0.0000 2.4800 0.0000
v 0.0000 2.8000 0.0000
v 0.0000 3.1200 0.0000
v 0.0000 3.4400 0.0000
v 0.0000 3.7600 0.0000
v 0.0000 4.0800 0.0000
v 0.3400 2.4800 -0.2800
v 0.0000 10.4000 0.0000
v 1.1400 4.6000 -1.5700
v 9.3400 10.3900 3.3400
v 9.3400 10.3900 3.3400
v 0.4900 2.4800 0.2200
v 11.4000 10.4000 -11.9700
v 11.4000 10.4000 -11.9700
v 0.4300 0.0000 0.0600
v 0.0500 9.2500 0.0300
v 0.0500 9.2500 0.0300
v 16.2000 10.4000 -14.5300
v 16.2000 10.4000 -14.5300
vt 0.0000 0.1562
vt 0.0000 0.1953
vt 0.0000 0.2266
vt 0.0000 0.2578
vt 0.0000 0.2891
vt 0.0000 0.3203
vt 0.0000 0.3516
vt 0.0000 0.3828
vt 0.0000 0.4141
vt 1.2734 1.0156
vt 0.1113 0.4492
vt 0.9121 1.0146
vt 0.9121 1.0146
vt 0.0479 0.2422
vt 6.6143 1.0146
vt 1.1133 1.0156
vt -0.0117 0.8955
vt 0.0049 0.9033
vt 0.0049 0.9033
vt 1.5820 1.0156
vt 1.5820 1.0156
vt 1.7393 1.0156
f 13/13 3/3 9/9
