# Conker's Bad Fur Day — Real 3D Model (Multiplayer Level Models)
o assets09_model_110

v 0.0000 4.7200 0.0000
v 2.9700 0.2700 -2.5800
v 6.4600 0.3000 -2.5800
v 3.4000 20.2700 -2.5800
v 6.9000 20.3000 -2.5800
v 13.4600 0.3600 -2.5800
v 13.9000 20.3600 -2.5800
v 16.9600 0.3900 -2.5800
v 17.3900 20.3900 -2.5800
v 16.9600 0.3900 -2.5800
v 17.3900 20.3900 -2.5800
v 13.9000 20.3600 -2.5800
v 13.4600 0.3600 -2.5800
v 6.9000 20.3000 -2.5800
v 6.4600 0.3000 -2.5800
v 2.9700 0.2700 -2.5800
v 3.4000 20.2700 -2.5800
v 10.3800 5.1000 -2.5800
v 2.6200 9.4900 -2.5800
v 7.7900 9.5400 -2.5800
v 7.8000 0.6200 -2.5800
v 0.0400 5.0100 -2.5800
v 2.6300 0.5700 -2.5800
v -28.0000 0.0000 17.9200
v -33.2800 0.0000 18.5500
v -28.1600 2.5600 15.3600
v -7.5200 0.0000 1.2800
v -7.5200 0.0000 0.0000
v -33.2800 0.0000 18.2300
v -28.0800 20.4800 0.0100
vt 0.0000 0.0000
vt 0.0078 -0.0332
vt -0.0020 -0.0166
vt 0.0078 -0.0332
vt 0.0273 -0.0332
vt 0.0273 -0.0332
vt 0.0371 -0.0166
vt 0.0371 -0.0166
vt -0.0020 -0.0166
vt -0.0020 -0.0166
vt 0.0078 0.0000
vt 0.0078 0.0000
vt 0.0273 0.0000
vt 0.0273 0.0000
vt 0.0371 -0.0166
vt 0.0371 -0.0166
vt -0.0020 -0.0166
vt 0.0078 -0.0332
vt 0.0273 -0.0332
vt 0.0273 0.0000
vt -0.0020 -0.0166
vt 0.0078 0.0000
vt 0.0000 0.4688
vt -6.5000 0.0000
vt -6.2500 0.0000
vt -6.5000 0.0000
vt -4.0000 0.0000
vt -6.5000 0.0000
vt -6.2500 0.0000
vt -3.5000 8.0020
f 1/1 2/2 3/3
f 4/4 5/5 6/6
f 7/7 8/8 9/9
f 10/10 11/11 12/12
f 13/13 14/14 15/15
f 16/16 17/17 18/18
f 19/19 20/20 21/21
f 22/22 23/23 24/24
f 25/25 26/26 27/27
f 28/28 29/29 30/30
