# Conker's Bad Fur Day — Real 3D Model (Multiplayer Level Models)
o assets09_model_081

v 0.0000 5.3600 0.0000
v 0.0000 0.0000 -0.0100
v 6.1900 6.7700 -0.0100
v 3.9600 6.7800 -0.0100
v 10.2400 9.4000 -0.0100
v 2.7400 6.8700 -0.0100
v 0.0000 9.4000 -0.0100
v 10.2400 0.0000 -0.0100
v 7.2400 6.2600 -0.0100
v -28.0000 0.0000 17.9200
v -33.2800 0.0000 18.5500
v -28.1600 2.5600 15.3600
v -7.5200 0.0000 0.6400
v 1.2700 1.2700 1.2700
vt 0.0000 0.0000
vt 0.0029 0.0127
vt -0.0264 0.0127
vt 0.0293 0.0127
vt -0.0371 0.0127
vt -0.0615 0.0127
vt 0.0293 0.0127
vt 0.0029 0.0127
vt 0.0000 0.5312
vt -6.5000 0.0000
vt -6.2500 0.0000
vt -6.5000 0.0000
vt -4.0000 0.0000
vt 0.1240 -12.6494
f 1/1 2/2 3/3
f 4/4 5/5 6/6
f 7/7 8/8 9/9
f 10/10 11/11 12/12
