# Conker's Bad Fur Day — Real 3D Model (Spooky Models)
o assets10_model_067

v 0.0000 0.8800 0.0000
v 0.0000 1.3600 0.0000
v 0.0000 1.8400 0.0000
v 0.0000 2.3200 0.0000
v 0.0000 2.8000 0.0000
v 0.0000 3.1200 0.0000
v -21.7900 11.6200 -2.0000
v -23.5900 10.7900 3.5800
v -7.2000 10.9700 -18.6100
v 5.0000 9.0000 -16.7200
v 0.8700 10.1200 -19.2700
v 15.2500 6.9100 6.1800
v 3.5000 4.5000 17.0000
v 10.9400 5.9500 14.9200
v -23.3000 3.6200 -1.4800
v -34.9200 23.1600 0.8700
v -34.9200 23.1600 0.8700
v -18.2500 25.6700 0.5100
v -34.7300 23.3200 0.7500
vt 0.0000 0.1094
vt 0.0000 0.1562
vt 0.0000 0.2031
vt 0.0000 0.2500
vt 0.0000 0.2891
vt -0.5254 1.1006
vt -2.0303 1.1348
vt -1.1328 1.0713
vt -1.5752 1.1240
vt 1.0625 0.8789
vt 1.4893 0.6748
vt 1.5703 0.7803
vt -0.3027 0.4395
vt -2.0801 0.3535
vt -1.7812 0.3271
vt -3.4102 2.2617
vt -1.7822 2.5068
vt -3.3916 2.2773
vt -1.7822 2.5068
f 9/9 1/1 1/1
