# Conker's Bad Fur Day — Real 3D Model (Multiplayer Level Models)
o assets09_model_245

v 0.0000 6.0000 0.0000
v -27.3600 0.0000 17.9200
v -27.4400 10.2400 0.0100
v -27.4400 5.7600 2.5700
v -27.4400 5.9200 5.1200
v -27.4400 6.0000 7.6800
v -7.5200 0.0000 0.6400
v -33.2800 0.0000 18.3500
v -33.2800 0.0000 18.1400
v -27.4400 5.9200 5.2000
v -7.5200 0.0000 0.6400
v 12.8000 5.1600 0.0000
vt 0.0000 0.0000
vt -3.2500 0.0000
vt -3.4375 9.0020
vt -3.4688 8.5020
vt -3.4844 8.2520
vt -3.4922 8.1270
vt -2.6562 0.2500
vt -2.6797 2.0000
vt -2.6797 1.0000
vt -2.6797 0.5859
vt -6.5000 0.0000
vt -8.2500 0.0000
f 7/7 8/8 9/9
f 9/9 10/10 7/7
f 1/1 2/2 3/3
