# Conker's Bad Fur Day — Real 3D Model (HUD & UI Props)
o assets01_model_020

v 5.3200 4.8800 -2.5800
v 8.1300 1.6000 -2.5800
v 4.8900 1.5700 -2.5800
v 6.3600 7.5700 -2.5800
v 8.1000 8.2000 -2.5800
v 5.1700 8.5700 -2.5800
v 7.3900 1.3100 -2.5800
v 6.6900 0.4100 -2.5800
v 7.2300 0.0600 -2.5800
v 5.8100 0.3600 -2.5800
v 8.1100 1.0200 -2.5800
v 6.9100 2.4900 -2.5800
v 9.0700 2.8800 -2.5800
v 5.1700 4.7900 -2.5800
v 8.4900 1.7900 -2.5800
v 4.8400 1.5900 -2.5800
v 6.2300 7.4300 -2.5800
v 8.1700 8.1300 -2.5800
v 4.8500 8.3300 -2.5800
v 6.1200 1.0200 -2.5800
v 6.8200 0.3300 -2.5800
v 6.2000 0.0700 -2.5800
v 7.7800 0.2800 -2.5800
v 5.3000 0.8100 -2.5800
v 6.7200 1.9000 -2.5800
v 6.7300 1.8200 -0.0100
v 4.3800 2.2200 -2.5800
v 7.0100 5.7100 -2.5800
v 9.3200 1.2000 -2.5800
v 4.9300 9.2500 -0.0100
v 4.6800 8.1800 -0.0100
v 5.2900 17.6200 -2.5800
v 7.1100 18.0500 -7.7200
v 5.3100 20.4500 -2.5800
v 6.4000 21.9800 -2.5800
v 7.5200 20.5600 -2.5800
v 5.2800 14.9800 -2.5800
v 3.4800 18.3800 -2.5800
v 4.2300 22.1800 -2.5800
v 3.1000 20.9600 -2.5800
v 2.1000 13.6800 -2.5800
v 6.7700 7.4500 -2.5800
v 6.1500 6.4500 -2.5800
v 8.8400 8.9900 -2.5800
v 10.0400 8.6000 -2.5800
v 10.3200 4.1600 -2.5800
v 7.4800 2.6100 -2.5800
v 5.2300 2.4800 -2.5800
v 5.2700 11.6900 -2.5800
v 5.2500 6.4200 -2.5800
v 1.6800 9.6400 -2.5800
v 0.4700 9.4700 -2.5800
v 0.1700 5.0800 -2.5800
v 2.9900 3.0200 -2.5800
v 4.6800 8.1800 -0.0100
v 4.9300 9.2500 -0.0100
v 4.6800 8.1800 -0.0100
v 6.1500 6.4500 -2.5800
v 5.4500 5.4500 -2.5800
v 6.7700 7.4500 -2.5800
v 6.1500 6.4500 -2.5800
v 5.3200 23.6800 -2.5800
v 6.4000 21.9800 -2.5800
v 7.5200 20.5600 -2.5800
v 2.1000 13.6800 -2.5800
v 4.2300 22.1800 -2.5800
v 3.1000 20.9600 -2.5800
v 10.0400 8.6000 -2.5800
v 10.3200 4.1600 -2.5800
v 2.9900 2.7600 -0.0100
v 0.4700 9.4700 -2.5800
v 0.1700 5.0800 -2.5800
v 2.1000 13.6800 -2.5800
v 2.9900 2.7600 -0.0100
v 4.9600 3.4400 -0.0100
v 3.0600 4.5500 -0.0100
v 9.8000 4.6000 -0.0100
v 10.2600 0.5600 -0.0100
v 15.1400 3.7200 -0.0100
v 15.1400 3.7200 -0.0100
v 3.2400 5.6300 -0.0100
v 0.0100 2.6500 -0.0100
v 3.9200 -0.3700 -0.0100
v 13.3300 1.8600 -0.0100
v 11.9800 3.0000 -0.0100
v 10.6100 1.8300 -0.0100
v 11.9800 3.0000 -0.0100
v 16.6900 3.6700 -0.0100
v -0.1100 10.1800 -0.0100
v 0.2200 10.2100 -0.0100
v 0.0900 2.8900 -0.0100
v 2.4900 2.8800 -0.0100
v 0.8000 0.0700 -0.0100
v 2.4000 0.0600 -0.0100
v 4.8900 2.8700 -0.0100
v 4.0100 0.0600 -0.0100
v 1.0700 5.0000 -0.0100
v 9.9800 4.0200 -0.0100
v 0.0400 0.3900 -0.0100
v 6.6900 -0.8300 -0.0100
v 7.9000 9.5800 -0.0100
v 9.9800 3.9200 -0.0100
v 1.1500 4.8100 -0.0100
v -0.1000 0.0300 -0.0100
v 6.5000 -1.2200 -0.0100
v 7.6700 9.6600 -0.0100
v 11.1800 10.4600 -0.0100
v -1.2100 5.5800 -0.0100
v 1.7400 1.7500 -0.0100
v 3.4900 3.4600 -0.0100
v 3.4900 3.4600 -0.0100
v 14.8900 4.1300 -0.0100
v 14.8900 4.1300 -0.0100
v 18.1500 5.5200 -0.0100
v 18.1500 5.5200 -0.0100
v 7.0600 3.1400 -0.0100
v 11.6000 3.2200 -0.0100
v 13.1900 6.1200 -0.0100
v 7.9700 0.0500 -0.0100
v 5.9900 5.3000 -0.0100
v 11.0400 6.7700 -0.0100
v 10.3300 1.5000 -0.0100
v 7.0600 3.1400 -0.0100
v 13.1900 6.1200 -0.0100
v 11.6000 3.2200 -0.0100
v 16.6800 3.9100 -0.0100
v 19.6000 4.1900 -0.0100
v 20.8100 4.8800 -0.0100
v 19.2800 7.7900 -0.0100
v 15.9300 10.2500 -0.0100
v 13.5700 10.0300 -0.0100
v 20.4000 6.4100 -0.0100
v 18.3400 9.3300 -0.0100
v 15.4400 7.6600 -0.0100
v 11.1800 10.4600 -0.0100
v 14.8900 4.1300 -0.0100
v 18.1500 5.5200 -0.0100
v 18.1500 5.5200 -0.0100
v 19.2800 7.7900 -0.0100
v 20.8100 4.8800 -0.0100
v 13.5700 10.0300 -0.0100
v 15.9300 10.2500 -0.0100
v 20.4000 6.4100 -0.0100
v 18.3400 9.3300 -0.0100
v 15.4200 7.7000 -0.0100
v 13.1900 6.1200 -0.0100
v 16.6800 3.9100 -0.0100
v 13.5700 10.0300 -0.0100
v 19.6000 4.1900 -0.0100
v 5.6600 6.0000 -2.5800
v 7.1100 6.1600 -2.5800
v 5.5900 7.7000 -2.5800
v 8.0700 3.7100 -2.5800
v 11.4100 4.0000 -2.5800
v 8.6800 4.9000 -2.5800
v 9.3200 2.7900 -2.5800
v 5.1800 4.3300 -2.5800
v 5.5900 7.7000 -2.5800
v 7.1100 6.1600 -2.5800
v 5.6600 6.0000 -2.5800
v 8.0700 3.7100 -2.5800
v 6.3500 4.5800 -2.5800
v 8.6800 4.9000 -2.5800
v 11.4100 4.0000 -2.5800
v 9.3200 2.7900 -2.5800
v 7.2200 2.6300 -2.5800
v 5.1800 4.3300 -2.5800
v 14.0200 5.5300 -2.5800
v 13.8100 6.3400 -2.5800
v 13.5500 4.8700 -2.5800
v 9.2900 1.7900 -2.5800
v 5.3300 1.2600 -2.5800
v 5.4700 6.0700 -2.5800
v 5.3500 3.3400 -2.5800
v 9.3000 5.7100 -2.5800
v 9.5900 3.6900 -2.5800
v 5.6100 7.8800 -2.5800
v 5.0600 11.7300 -2.5800
v 3.1900 8.7400 -2.5800
v 3.1000 14.2800 -2.5800
v 3.1900 8.7400 -2.5800
v 6.3400 15.2200 -2.5800
v 3.1000 14.2800 -2.5800
v 13.5200 6.8700 -2.5800
v 13.7300 6.0100 -2.5800
v 13.3200 5.3000 -2.5800
v 9.5100 1.8600 -2.5800
v 5.9200 1.1900 -2.5800
v 5.8900 3.4200 -2.5800
v 5.9300 6.3500 -2.5800
v 9.4200 6.0700 -2.5800
v 9.7400 3.9100 -2.5800
v 6.0000 8.2900 -2.5800
v 5.4100 12.3900 -2.5800
v 2.3100 8.9500 -2.5800
v 2.1500 13.3700 -2.5800
v 2.3100 8.9500 -2.5800
v 2.1500 13.3700 -2.5800
v 4.6500 14.1200 -2.5800
v 6.5500 14.0200 -2.5800
v 0.5200 10.3000 -2.5800
v 6.6100 9.4500 -0.8600
v 4.4300 7.1300 -0.8600
v 12.7600 3.7200 -2.5800
v 6.6600 4.7700 -0.8600
v 6.7300 -0.9000 -2.5800
v 0.6000 3.4700 -2.5800
v 8.8400 7.2200 -0.8600
v 12.6700 10.5500 -2.5800
v 20.4500 8.7100 -2.5800
v 19.8800 -0.0900 -2.5800
v 8.8400 10.3000 -0.0100
v 0.7400 17.6700 -2.5800
v 2.7400 4.7900 -2.5800
v 2.1900 10.2900 -2.5800
v 0.6600 0.6100 -2.5800
v -0.5700 5.5800 -2.5800
v 6.9700 0.1000 -2.5800
v 7.1400 9.9600 -2.5800
v -1.0000 10.2700 -2.5800
v 0.8300 1.7600 -2.5800
v -2.5600 0.0000 0.0000
v 0.0100 2.5600 0.0000
v 2.5800 5.1200 0.0000
v 5.1500 7.6800 0.0000
v 7.7200 10.2400 0.0000
v 23.1400 25.6000 0.0000
v 28.2800 30.7200 0.0000
v 0.0000 32.8000 0.3200
v 0.3200 0.6400 0.0000
v 0.0000 32.7100 0.0000
v 0.0000 32.7400 0.3200
v 0.3200 0.3200 0.0000
v 0.0000 32.7800 0.0000
v 0.0000 32.9600 0.3200
v 0.3200 0.1600 0.0000
v 0.0000 32.7200 0.0000
v 0.0000 32.8400 0.6400
v 0.1600 0.1600 0.0000
v 0.0000 32.7000 0.0000
v -28.0000 0.0000 17.9200
v -33.2800 0.0000 18.3400
v -28.1600 2.5600 15.3600
v -7.5200 0.0000 0.6400
v -28.0800 11.5200 2.6500
v -28.0800 6.7200 5.2000
v -28.0800 6.8000 7.7600
v -7.5200 0.0000 0.6400
v -7.5200 0.0000 0.6400
v -7.5200 0.0000 0.6400
v -7.5200 0.0000 0.6400
v 13.0000 30.8000 0.0000
v -7.5200 0.0000 0.0000
v -33.2800 0.0000 18.5500
v -28.0800 20.4800 0.0900
v -7.5200 0.0000 0.0000
v -33.2800 0.0000 18.2300
v -28.0800 20.4800 0.0900
v 2.5700 0.4600 2.5600
v 12.9600 20.6000 0.0000
v -7.5200 0.0000 0.0000
v -33.2800 0.0000 18.5500
v -28.0800 20.4800 0.0900
v -7.5200 0.0000 0.0000
v -33.2800 0.0000 17.9900
v -28.0800 10.2400 0.0900
v -7.5200 0.0000 0.6400
v 15.4400 25.7200 0.0800
v -7.5200 0.0000 0.6400
v -7.5200 0.0000 0.0000
v -33.2800 0.0000 17.9500
v -28.0800 10.2400 0.0800
v -7.5200 0.0000 15.3600
v -33.2800 0.0000 18.2300
v -28.0800 20.4800 0.0900
v -7.5200 0.0000 17.9200
v -7.5200 0.0000 0.6400
v -7.5200 0.0000 0.0000
v -33.2800 0.0000 18.5500
v 12.8400 5.1800 0.0000
v -7.5200 0.0000 0.6400
v 15.3600 5.1600 0.0200
v -7.5200 0.0000 0.6400
v -7.5200 0.0000 0.6400
v 15.3600 5.1600 0.0600
v -7.5200 0.0000 0.6400
v -7.5200 0.0000 0.6400
v 15.3600 10.5800 0.4200
v -7.5200 0.0000 0.6400
v 15.3600 10.3000 0.0200
v -7.5200 0.0000 0.6400
v 15.7000 0.0400 0.2400
v -7.5200 0.0000 0.6400
v 15.4000 15.3600 0.0000
v -7.5200 0.0000 0.6400
v 15.4200 35.9400 0.1600
v -28.0000 0.0000 17.9200
v -33.2800 0.0000 18.5500
v -28.1600 2.5600 15.3600
v -7.5200 0.0000 0.6400
v -7.5200 0.0000 0.0000
v -33.2800 0.0000 18.2300
v -28.0800 10.2400 0.0900
v -7.5200 0.0000 0.0000
v -33.2800 0.0000 18.2300
v -28.0800 20.4800 0.0900
v -7.5200 0.0000 0.6400
v 1.4900 1.3000 0.6800
v 1.3000 1.2600 1.0500
v 27.2000 27.2000 -6.4200
v -24.0000 -24.0000 8.9400
vt -0.0127 -0.0059
vt 0.0000 0.0010
vt 0.0000 -0.0059
vt -0.0088 -0.0098
vt 0.0020 -0.0098
vt 0.0029 0.0010
vt -0.0020 -0.0078
vt 0.0020 -0.0098
vt -0.0088 -0.0098
vt -0.0068 -0.0107
vt 0.0127 -0.0127
vt 0.0000 -0.0186
vt 0.0000 0.0088
vt 0.0107 -0.0059
vt -0.0020 0.0010
vt -0.0020 -0.0059
vt 0.0098 -0.0098
vt -0.0020 -0.0098
vt -0.0020 0.0010
vt 0.0029 -0.0078
vt -0.0020 -0.0098
vt 0.0098 -0.0098
vt 0.0049 -0.0107
vt 0.0000 -0.0186
vt -0.0127 -0.0137
vt -0.0293 -0.0059
vt 0.0000 -0.0039
vt 0.0029 -0.0146
vt -0.0020 -0.0146
vt 0.0059 0.0078
vt 0.0000 0.0195
vt 0.0107 0.0215
vt 0.0000 0.0303
vt 0.0059 0.0361
vt 0.0127 0.0312
vt 0.0000 0.0088
vt 0.0186 0.0029
vt -0.0059 0.0361
vt -0.0127 0.0312
vt -0.0186 0.0029
vt -0.0156 0.0176
vt 0.0059 0.0361
vt 0.0205 0.0117
vt 0.0283 0.0107
vt 0.0293 -0.0059
vt 0.0127 -0.0127
vt 0.0000 -0.0137
vt 0.0000 -0.0186
vt 0.0000 0.0010
vt -0.0205 0.0117
vt -0.0283 0.0107
vt -0.0293 -0.0059
vt -0.0127 -0.0127
vt 0.0000 -0.0068
vt 0.0000 0.0010
vt -0.0059 0.0078
vt 0.0059 0.0361
vt 0.0000 0.0303
vt 0.0000 0.0420
vt -0.0059 0.0361
vt 0.0000 0.0088
vt 0.0117 0.0254
vt 0.0127 0.0312
vt 0.0156 0.0176
vt -0.0117 0.0254
vt -0.0127 0.0312
vt 0.0000 0.0059
vt 0.0127 -0.0137
vt 0.0000 -0.0186
vt -0.0283 0.0107
vt -0.0293 -0.0059
vt -0.0117 0.0254
vt -0.0127 -0.0137
vt 0.0000 -0.0127
vt 0.0000 0.0127
vt -0.0098 0.0029
vt 0.0088 -0.0010
vt 0.0088 -0.0010
vt -0.0039 -0.0010
vt -0.0098 -0.0039
vt 0.0000 -0.0107
vt 0.0098 -0.0039
vt 0.0000 -0.0127
vt 0.0098 -0.0039
vt 0.0000 -0.0107
vt -0.0098 -0.0039
vt 0.0000 -0.0176
vt -0.0039 0.0068
vt 0.0000 0.0098
vt -0.0020 0.0078
vt 0.0000 -0.0381
vt -0.0049 -0.0264
vt 0.0000 -0.0264
vt 0.0068 -0.0381
vt 0.0049 -0.0264
vt 0.0000 0.0059
vt 0.0127 0.0010
vt 0.0000 -0.0020
vt 0.0107 -0.0059
vt 0.0127 0.0127
vt -0.0127 0.0010
vt 0.0000 0.0059
vt 0.0000 -0.0020
vt -0.0107 -0.0059
vt -0.0117 0.0127
vt -0.0098 -0.0195
vt 0.0000 0.0156
vt 0.0000 -0.0039
vt 0.0166 0.0039
vt -0.0166 0.0039
vt 0.0088 -0.0010
vt -0.0039 -0.0010
vt 0.0195 -0.0049
vt -0.0234 -0.0049
vt 0.0166 -0.0186
vt 0.0098 -0.0195
vt 0.0107 -0.0059
vt 0.0000 -0.0332
vt 0.0000 -0.0078
vt 0.0000 -0.0020
vt 0.0000 -0.0273
vt -0.0166 -0.0186
vt -0.0107 -0.0059
vt -0.0098 -0.0195
vt 0.0000 -0.0176
vt 0.0000 -0.0166
vt 0.0000 -0.0137
vt 0.0088 0.0000
vt 0.0000 0.0137
vt 0.0127 0.0127
vt 0.0000 -0.0068
vt 0.0000 0.0078
vt 0.0127 0.0010
vt 0.0000 0.0098
vt -0.0039 -0.0010
vt -0.0234 -0.0049
vt 0.0195 -0.0049
vt -0.0088 0.0000
vt 0.0000 -0.0137
vt -0.0117 0.0127
vt 0.0000 0.0137
vt 0.0000 -0.0068
vt 0.0000 0.0078
vt -0.0127 0.0010
vt -0.0107 -0.0059
vt 0.0000 -0.0176
vt 0.0127 0.0127
vt 0.0000 -0.0166
vt -0.0107 0.0039
vt -0.0098 0.0117
vt -0.0098 0.0078
vt -0.0068 0.0039
vt -0.0098 0.0078
vt -0.0098 0.0117
vt -0.0029 0.0088
vt -0.0068 0.0107
vt 0.0098 0.0078
vt 0.0098 0.0117
vt 0.0098 0.0039
vt 0.0068 0.0107
vt 0.0068 0.0039
vt 0.0029 0.0088
vt 0.0098 0.0078
vt 0.0098 0.0039
vt 0.0068 0.0039
vt 0.0068 0.0107
vt -0.0010 0.0000
vt -0.0020 -0.0068
vt -0.0049 -0.0020
vt -0.0127 0.0010
vt -0.0156 -0.0088
vt -0.0205 -0.0078
vt -0.0273 0.0107
vt -0.0137 0.0068
vt -0.0254 0.0078
vt -0.0068 -0.0059
vt -0.0195 -0.0039
vt -0.0020 -0.0039
vt -0.0195 0.0000
vt -0.0010 0.0059
vt -0.0195 0.0000
vt -0.0127 0.0312
vt -0.0156 0.0176
vt 0.0020 -0.0059
vt 0.0049 -0.0010
vt 0.0156 -0.0078
vt 0.0107 0.0029
vt 0.0205 -0.0068
vt 0.0127 0.0107
vt 0.0146 0.0078
vt 0.0264 0.0088
vt 0.0020 0.0068
vt 0.0078 -0.0049
vt 0.0020 -0.0039
vt 0.0195 0.0000
vt 0.0010 0.0059
vt 0.0195 0.0000
vt 0.0107 0.0215
vt 0.0156 0.0176
vt -0.0176 0.0400
vt 0.0000 0.0420
vt -0.0059 0.0361
vt 0.0176 0.0244
vt 0.0000 0.0303
vt 0.0000 0.0127
vt -0.0176 0.0244
vt 0.0059 0.0361
vt 0.0176 0.0400
vt 0.0000 0.0352
vt 0.0000 0.0264
vt 0.0000 0.0303
vt 0.0000 0.0244
vt -0.0010 0.0010
vt -0.0020 0.0000
vt -0.0010 0.0078
vt 0.0059 0.0000
vt -0.0029 -0.0107
vt -0.0029 0.0244
vt -0.0020 0.0059
vt 0.0000 0.0059
vt 0.0000 6.5938
vt 0.0000 0.0000
vt 16.5391 -11.5234
vt 16.4443 22.8721
vt 16.5166 23.1826
vt 16.2373 11.9561
vt 16.3174 22.2480
vt 16.2725 2.8623
vt 0.0000 1.0547
vt 0.0000 3.1992
vt 0.0312 0.0312
vt 0.0000 3.2051
vt 0.0000 3.2178
vt 0.0625 0.0312
vt 0.0000 3.2041
vt 0.0000 3.1963
vt 0.0312 0.0312
vt 0.0000 3.6484
vt 0.0000 3.1982
vt 0.0410 0.0410
vt -6.5000 0.0000
vt -6.2500 0.0000
vt -6.5000 0.0000
vt -4.0000 0.0000
vt -3.5000 8.0020
vt -3.5000 8.0020
vt -3.5000 8.0020
vt -4.0000 0.0000
vt -4.0000 0.0000
vt -4.0000 0.0000
vt -4.0000 0.0000
vt -6.2500 0.0000
vt -6.5000 0.0000
vt -6.2500 0.0000
vt -3.5000 8.0020
vt -6.5000 0.0000
vt -6.2500 0.0000
vt -3.5000 8.0020
vt -9.4453 0.0029
vt -6.2500 0.0000
vt -6.5000 0.0000
vt -6.2500 0.0000
vt -3.5000 8.0020
vt -6.5000 0.0000
vt -6.2500 0.0000
vt -3.5000 8.0020
vt -4.0000 0.0000
vt 1.2500 3.0020
vt -4.0000 0.0000
vt -6.5000 0.0000
vt -6.2500 0.0000
vt -3.5000 8.0020
vt -6.5000 0.0000
vt -6.2500 0.0000
vt -3.5000 8.0020
vt -4.0000 0.0000
vt -4.0000 0.0000
vt -6.5000 0.0000
vt -6.2500 0.0000
vt -9.4453 0.0029
vt -4.0000 0.0000
vt 1.2520 0.0059
vt -4.0000 0.0000
vt -4.0000 0.0000
vt 1.2578 1.0020
vt -4.0000 0.0000
vt -4.0000 0.0000
vt 1.2871 11.0332
vt -4.0000 0.0000
vt 1.2578 1.0020
vt -4.0000 0.0000
vt 1.2832 11.0391
vt -4.0000 0.0000
vt 1.2520 1.5078
vt -4.0000 0.0000
vt -8.2500 0.0000
vt -6.5000 0.0000
vt -6.2500 0.0000
vt -6.5000 0.0000
vt -4.0000 0.0000
vt -6.5000 0.0000
vt -6.2500 0.0000
vt -3.5000 8.0020
vt -6.5000 0.0000
vt -6.2500 0.0000
vt -3.5000 8.0020
vt -4.0000 0.0000
vt -23.9668 -26.4834
vt -29.0459 -28.9619
vt -1.8057 -7.9307
vt 2.1943 26.9355
f 118/118 1/1 59/59
f 118/118 1/1 59/59
f 27/27 1/1 94/94
f 67/67 1/1 56/56
f 128/128 128/128 128/128
f 33/33 2/2 124/124
f 21/21 3/3 125/125
f 56/56 3/3 4/4
f 12/12 3/3 2/2
f 37/37 2/2 124/124
f 105/105 1/1 79/79
f 105/105 1/1 79/79
f 20/20 2/2 51/51
f 20/20 2/2 51/51
f 67/67 1/1 68/68
f 128/128 128/128 128/128
f 29/29 3/3 1/1
f 128/128 128/128 128/128
f 39/39 2/2 118/118
f 5/5 2/2 128/128
f 128/128 128/128 128/128
f 105/105 1/1 79/79
f 39/39 2/2 118/118
f 29/29 3/3 1/1
f 128/128 128/128 128/128
f 4/4 2/2 2/2
f 128/128 128/128 128/128
f 20/20 2/2 51/51
f 67/67 1/1 68/68
f 128/128 128/128 128/128
f 39/39 2/2 118/118
f 62/62 2/2 21/21
f 83/83 2/2 13/13
f 51/51 2/2 62/62
f 38/38 1/1 116/116
f 37/37 2/2 88/88
f 67/67 2/2 37/37
f 47/47 2/2 45/45
f 27/27 2/2 10/10
f 4/4 4/4 1/1
f 4/4 4/4 1/1
f 5/5 5/5 1/1
f 5/5 5/5 1/1
f 6/6 6/6 1/1
f 19/19 18/18 16/16
f 21/21 19/19 15/15
f 19/19 16/16 18/18
f 22/22 15/15 19/19
f 12/12 6/6 7/7
f 13/13 7/7 11/11
f 11/11 7/7 5/5
f 29/29 32/32 28/28
f 32/32 25/25 28/28
f 2/2 3/3 5/5
f 7/7 5/5 1/1
f 11/11 9/9 7/7
f 9/9 5/5 7/7
f 5/5 6/6 7/7
f 5/5 7/7 1/1
f 1/1 7/7 2/2
f 8/8 11/11 4/4
f 8/8 10/10 11/11
f 28/28 29/29 30/30
f 29/29 28/28 10/10
f 28/28 11/11 10/10
f 3/3 2/2 4/4
f 3/3 6/6 15/15
f 1/1 2/2 3/3
f 2/2 4/4 5/5
f 2/2 1/1 4/4
f 1/1 2/2 3/3
f 4/4 5/5 2/2
f 5/5 3/3 2/2
f 1/1 3/3 18/18
f 22/22 21/21 12/12
f 20/20 23/23 18/18
f 1/1 3/3 4/4
f 2/2 3/3 1/1
f 5/5 3/3 2/2
f 18/18 1/1 3/3
f 13/13 22/22 20/20
f 18/18 23/23 21/21
f 3/3 4/4 1/1
f 1/1 4/4 2/2
f 2/2 4/4 5/5
f 4/4 8/8 6/6
f 9/9 5/5 10/10
f 23/23 24/24 25/25
f 24/24 26/26 25/25
f 47/47 66/66 120/120
