mtllib assets10_model_054.mtl
# Conker's Bad Fur Day — Real 3D Model (Spooky Models)
o assets10_model_054
usemtl assets10_model_054_mat

v 0.0000 1.0400 0.0000
v 0.0000 2.1600 0.0000
v 0.0000 3.3600 0.0000
v 0.0000 4.3200 0.0000
v 0.0000 5.2000 0.0000
v 0.0000 5.8400 0.0000
v 0.0000 6.6400 0.0000
v -5.7000 0.0000 -0.9700
v -2.6600 0.0000 -39.1900
v -3.4000 0.0000 -26.5900
v -2.2300 0.0000 -11.6900
v 1.8000 0.0000 -10.9700
v 0.2500 0.0000 -5.7100
v -0.1600 0.0000 -8.3500
v 1.1200 0.0000 -33.6600
v 6.8100 0.0000 -10.6400
v 2.3300 0.0000 -6.2200
v 1.0100 0.0000 -8.6700
v 3.0000 0.0000 -39.3500
v -5.3900 0.0000 -17.8500
v -3.1700 0.0000 -15.0000
v -2.9400 0.0000 -39.3100
v 1.3300 0.0000 -27.0600
v 3.2400 0.0000 -17.1900
v -4.0400 0.0000 -17.6900
v 0.4300 0.0000 -35.9500
v 2.2400 0.0000 -17.7800
v -2.9400 0.0000 -39.3100
v -1.0900 0.0000 -27.6400
v -0.5700 0.0000 -24.3800
v -0.4000 0.0000 -36.1700
v -4.9100 0.0000 -26.2700
v 1.3800 0.0000 -28.5400
v 0.5000 0.0000 -35.5100
v 0.3400 0.0000 -24.6600
v -2.4200 0.0000 -35.9500
v 4.3900 0.0000 -32.8500
v 0.9800 0.0000 -37.1800
v 3.2000 0.0000 -33.1100
v -3.0600 0.0000 -35.2000
v 0.0100 0.0000 -38.5600
v -4.6400 0.0000 -35.8700
v 4.3500 0.0000 -33.5500
vt 0.0000 0.1250
vt 0.0000 0.2812
vt 0.0000 0.3828
vt 0.0000 0.4609
vt 0.0000 0.5391
vt 0.0000 0.6172
vt 0.0000 0.0000
vt 0.5566 0.0000
vt -0.1699 0.0000
vt -0.5908 0.0000
vt -0.4580 0.0000
vt 0.3740 0.0000
vt -0.2500 0.0000
vt 0.2705 0.0000
vt 0.3320 0.0000
vt 0.3496 0.0000
vt -0.3428 0.0000
vt -0.2344 0.0000
vt -0.6133 0.0000
vt 0.3340 0.0000
vt -0.0039 0.0000
vt 0.4570 0.0000
vt 0.7363 0.0000
vt -0.0957 0.0000
vt -0.2871 0.0000
vt -0.2754 0.0000
vt -0.1689 0.0000
vt 0.3838 0.0000
vt -0.4160 0.0000
vt -0.2871 0.0000
vt -0.6533 0.0000
vt -0.2168 0.0000
vt 0.2607 0.0000
vt 0.3516 0.0000
vt 0.2744 0.0000
vt -0.4512 0.0000
vt 0.2744 0.0000
vt 0.0215 0.0000
vt -0.0605 0.0000
vt -0.2852 0.0000
vt 0.4131 0.0000
vt -0.2754 0.0000
vt 0.3516 0.0000
f 1/1 2/2 3/3
f 4/4 5/5 6/6
f 7/7 8/8 9/9
f 10/10 11/11 12/12
f 13/13 14/14 15/15
f 16/16 17/17 18/18
f 19/19 20/20 21/21
f 22/22 23/23 24/24
f 25/25 26/26 27/27
f 28/28 29/29 30/30
f 31/31 32/32 33/33
f 34/34 35/35 36/36
f 37/37 38/38 39/39
f 40/40 41/41 42/42
