# Conker's Bad Fur Day — Real 3D Model (Spooky Models)
o assets10_model_038

v 0.0000 1.5200 0.0000
v 0.0000 1.8400 0.0000
v 0.0000 3.1200 0.0000
v 0.0000 4.0000 0.0000
v 0.0000 5.2000 0.0000
v 0.0000 6.4800 0.0000
v 0.0000 7.5200 0.0000
v 0.0000 8.4800 0.0000
v 0.0000 9.3600 0.0000
v 0.0000 10.3200 0.0000
v -18.0800 1.0100 -0.0100
v -17.5000 0.0700 35.7200
v -20.4500 0.0700 19.7200
v -18.8600 0.0700 9.5300
v -18.7100 0.0700 37.6800
v -13.5100 0.0700 33.3000
v -13.3900 1.2900 21.7300
v -13.0400 0.0700 13.2800
v -16.9300 0.0700 7.8600
v -19.8500 0.0700 37.7200
v -23.5900 1.7000 25.2100
v -18.7200 0.0700 37.9200
v -13.9700 0.0700 26.2100
v -13.0700 0.0700 5.1100
v -18.5300 0.0700 37.1800
v -23.8000 0.0700 15.7300
v -23.4300 0.0700 8.8700
v -22.9500 0.0700 5.1000
v -18.9600 0.0700 29.2500
v -20.2700 0.0700 24.7200
v -21.4700 0.0700 19.9900
v -19.7300 0.0700 13.5100
v -19.0900 0.0700 33.4600
v -13.4900 0.0700 23.7800
v -20.0400 0.0700 11.0900
v -20.8000 0.0700 6.1600
v -17.3500 0.0700 30.8400
v -13.1700 1.2900 21.2100
v -13.4600 1.7000 11.0800
v -13.7200 2.0700 8.5700
v 7.5000 0.0000 -3.1000
v 2.7700 0.0000 -4.2000
v -5.7700 0.0400 -0.9300
v -11.1100 0.0700 -0.0700
v 7.4500 0.0000 0.0400
v -0.5800 3.2700 4.0200
v 2.9900 0.0000 4.5600
v -0.5900 0.0000 -3.4900
v -12.0100 0.0700 4.1400
v 9.9100 0.0000 -2.8300
v 4.6000 0.0000 3.5000
v -10.7300 0.0700 1.0700
v 9.6900 0.0000 2.4100
v -4.8600 0.0300 -0.0400
v -11.9200 0.0700 2.2500
v 11.6600 0.0000 -0.1900
v 4.9700 0.0000 0.2000
v 0.0000 0.0000 -1.3100
v 11.1600 0.0000 1.9100
v -0.3600 0.0000 1.6400
v -4.3100 0.0200 0.7100
v 1.1800 0.0000 3.6000
v -5.6600 0.0400 2.6600
v -10.9600 0.0700 -1.4200
v -23.7300 0.0700 27.2800
v -15.0400 0.0700 21.0400
v -18.7000 0.0700 22.3100
v -23.7300 1.7000 13.4400
v -23.4500 1.7000 12.2500
v -13.4600 1.7000 11.3300
v -25.6700 0.0700 5.3100
v -18.3200 0.0700 -7.4800
v -6.7200 0.0600 0.5700
v -3.4800 0.0100 -4.4800
v -12.7400 0.0700 6.9200
vt 0.0000 0.1641
vt 0.0000 0.2344
vt 0.0000 0.3438
vt 0.0000 0.4453
vt 0.0000 0.5703
vt 0.0000 0.6953
vt 0.0000 0.7812
vt 0.0000 0.8672
vt 0.0000 0.9609
vt -1.7744 0.0068
vt -1.7725 0.0068
vt -1.8232 0.0068
vt -1.8838 0.0068
vt -1.8340 0.0068
vt -1.4971 0.0068
vt -1.2793 0.0068
vt -1.2949 0.0068
vt -1.6504 0.0068
vt -1.8281 0.0068
vt -2.3213 0.0068
vt -2.3076 0.1660
vt -1.9111 0.0068
vt -1.7207 0.0068
vt -1.3555 0.0068
vt -2.2734 0.0068
vt -2.2930 0.1660
vt -2.2891 0.0068
vt -1.8418 0.0068
vt -1.6104 0.0068
vt -1.8379 0.0068
vt -1.9658 0.0068
vt -1.8613 0.0068
vt -2.2236 0.0068
vt -1.6045 0.0068
vt -2.0732 0.0068
vt -1.8311 0.0068
vt -1.2852 0.0068
vt -1.3115 0.0068
vt -1.3076 0.1660
vt 1.0039 0.0000
vt 0.5254 0.1592
vt -0.2891 0.0010
vt -1.0059 0.0068
vt 0.8340 0.0000
vt 0.2588 0.0000
vt -0.3760 0.0020
vt 0.2881 0.0000
vt -0.5225 0.0029
vt -1.2666 0.0068
vt 0.9658 0.0000
vt -0.2441 0.0000
vt -1.1113 0.0068
vt 0.9463 0.0000
vt -0.9453 0.0068
vt 1.1914 0.0000
vt 0.8486 0.0000
vt 0.1367 0.0000
vt 1.0938 0.0000
vt 0.1543 0.0000
vt -0.2666 0.0010
vt 0.1152 0.0000
vt 0.0557 0.0000
vt -0.9873 0.0068
vt -1.2637 0.0068
vt -1.7910 0.0068
vt -1.4668 0.0068
vt -2.2959 0.0068
vt -2.3096 0.1660
vt -1.3613 0.0068
vt -1.3369 0.1660
vt -2.4912 0.0068
vt -1.0371 0.0068
vt -0.5566 0.0039
vt -0.7139 0.0059
vt -1.7881 0.0068
f 1/1 2/2 3/3
f 4/4 5/5 6/6
f 7/7 8/8 9/9
f 10/10 11/11 12/12
f 13/13 14/14 15/15
f 16/16 17/17 18/18
f 19/19 20/20 21/21
f 22/22 23/23 24/24
f 25/25 26/26 27/27
f 28/28 29/29 30/30
f 31/31 32/32 33/33
f 34/34 35/35 36/36
f 37/37 38/38 39/39
f 40/40 41/41 42/42
f 43/43 44/44 45/45
f 46/46 47/47 48/48
f 49/49 50/50 51/51
f 52/52 53/53 54/54
f 55/55 56/56 57/57
f 58/58 59/59 60/60
f 61/61 62/62 63/63
f 64/64 65/65 66/66
f 67/67 68/68 69/69
f 70/70 71/71 72/72
f 73/73 74/74 75/75
