# Conker's Bad Fur Day — Real 3D Model (Multiplayer Level Models)
o assets09_model_018

v 0.0000 7.2800 0.0000
v 9.2800 9.5100 -2.5800
v 8.6700 8.3000 -2.5800
v 12.2300 9.4800 -2.5800
v 12.6400 8.2600 -2.5800
v 9.2800 9.5300 -2.5800
v 12.2300 9.4900 -2.5800
v 13.9000 8.2500 -2.5800
v 13.7000 9.4700 -2.5800
v 13.7000 9.4700 -2.5800
v 13.9000 8.2500 -2.5800
v 8.1800 7.1300 -2.5800
v 12.9400 7.0700 -2.5800
v 14.4400 7.0600 -2.5800
v 7.7200 5.8300 -2.5800
v 13.1900 5.7600 -2.5800
v 14.9200 5.7500 -2.5800
v 12.9400 5.6400 -2.5800
v 8.3800 4.2100 -2.5800
v 12.6500 4.2200 -2.5800
v 8.1200 5.6400 -0.0100
v 7.0300 4.2000 -2.5800
v 8.3800 4.2100 -2.5800
v 14.4600 5.5900 -2.5800
v 14.0000 4.2000 -2.5800
v 12.9400 5.6400 -2.5800
v 12.6500 4.2200 -2.5800
v 10.5100 3.8400 -2.5800
v -28.0000 0.0000 17.9200
v -33.2800 0.0000 18.3400
v -28.1600 2.5600 15.3600
v -7.5200 0.0000 1.2800
v -28.1600 11.5200 2.5700
v -28.1600 6.7200 5.1200
v -28.1600 6.8000 7.6800
vt 0.0000 0.0000
vt -0.0049 0.0059
vt 0.0039 0.0117
vt 0.0049 0.0059
vt -0.0078 0.0107
vt -0.0059 0.0029
vt 0.0049 0.0029
vt 0.0068 0.0107
vt 0.0068 0.0107
vt 0.0078 0.0039
vt -0.0049 0.0000
vt 0.0049 0.0000
vt -0.0088 -0.0010
vt -0.0059 -0.0088
vt 0.0059 -0.0088
vt -0.0098 -0.0088
vt 0.0059 -0.0088
vt -0.0049 -0.0176
vt 0.0049 -0.0176
vt -0.0059 -0.0088
vt -0.0098 -0.0088
vt -0.0049 -0.0176
vt -0.0098 -0.0088
vt 0.0078 -0.0176
vt 0.0059 -0.0088
vt 0.0049 -0.0176
vt 0.0000 -0.0195
vt 0.0000 0.7188
vt -6.5000 0.0000
vt -6.2500 0.0000
vt -6.5000 0.0000
vt -4.0000 0.0000
vt -3.5000 8.0020
vt -3.5000 8.0020
vt -3.5000 8.0020
f 20/20 2/2 33/33
f 20/20 2/2 33/33
f 8/8 2/2 27/27
f 8/8 2/2 22/22
f 8/8 2/2 27/27
f 28/28 29/29 30/30
f 29/29 28/28 31/31
f 29/29 31/31 32/32
f 6/6 12/12 5/5
f 9/9 12/12 6/6
f 11/11 12/12 9/9
