mtllib assets09_model_056.mtl
# Conker's Bad Fur Day — Real 3D Model (Multiplayer Level Models)
o assets09_model_056
usemtl assets09_model_056_mat

v 0.0000 1.6800 0.0000
v 19.1200 4.2500 -0.0100
v 0.5600 2.6400 -0.0100
v 19.1200 3.4300 -0.0100
v 19.1200 3.4300 -0.0100
v 19.1100 1.7900 -0.0100
v 19.1000 0.9700 -0.0100
v 19.1100 1.7900 -0.0100
v 0.5600 2.6400 -0.0100
v 20.4500 2.6100 -0.0100
v -28.0000 0.0000 17.9200
v -33.2800 0.0000 18.2300
v -28.1600 2.5600 15.3600
v -7.5200 0.0000 0.6400
vt 0.0000 0.0000
vt -0.0029 -0.0176
vt -0.0156 -0.0098
vt 0.0098 -0.0098
vt 0.0098 -0.0244
vt -0.0029 -0.0322
vt -0.0156 -0.0244
vt -0.0029 -0.0176
vt -0.0029 -0.0176
vt 0.0000 0.1719
vt -6.5000 0.0000
vt -6.2500 0.0000
vt -6.5000 0.0000
vt -4.0000 0.0000
f 1/1 2/2 3/3
f 4/4 5/5 6/6
f 7/7 8/8 9/9
f 10/10 11/11 12/12
