mtllib assets09_model_068.mtl
# Conker's Bad Fur Day — Real 3D Model (Multiplayer Level Models)
o assets09_model_068
usemtl assets09_model_068_mat

v 0.0000 3.4400 0.0000
v 7.7300 5.5400 -0.0100
v 7.7800 8.9600 -0.0100
v 4.9100 7.7100 -0.0100
v 4.9500 10.3600 -0.0100
v 3.9100 0.1300 -2.5800
v 1.7400 2.7800 -2.5800
v 5.2500 0.1400 -2.5800
v 5.2000 2.8100 -2.5800
v 5.2500 0.1400 -2.5800
v 8.6600 2.8400 -2.5800
v 6.8000 0.1500 -2.5800
v 1.6600 7.8500 -2.5800
v 5.1200 7.8900 -2.5800
v 8.5800 7.9200 -2.5800
v 3.8400 10.1000 -2.5800
v 5.1000 10.1200 -2.5800
v 5.1000 10.1200 -2.5800
v 6.5600 10.1300 -2.5800
v -27.9200 0.0000 17.9200
v -33.2800 0.0000 18.5500
vt 0.0000 0.0000
vt 0.0059 0.0059
vt 0.0078 0.0000
vt 0.0039 0.0020
vt -0.0029 0.0000
vt -0.0059 0.0059
vt 0.0000 0.0000
vt 0.0000 0.0059
vt 0.0000 0.0000
vt 0.0059 0.0059
vt 0.0029 0.0000
vt 0.0000 0.0166
vt 0.0000 0.0166
vt 0.0059 0.0166
vt -0.0020 0.0205
vt 0.0000 0.0205
vt 0.0000 0.0205
vt 0.0029 0.0205
vt 0.0000 0.3438
vt -6.5000 0.0000
vt -6.2500 0.0000
f 1/1 2/2 3/3
f 2/2 4/4 3/3
