mtllib assets10_model_001.mtl
# Conker's Bad Fur Day — Real 3D Model (Spooky Models)
o assets10_model_001
usemtl assets10_model_001_mat

v 0.0000 1.6800 0.0000
v 0.0000 2.4000 0.0000
v 0.0000 3.2800 0.0000
v 0.0000 5.3600 0.0000
v 0.0000 6.8800 0.0000
v 0.0000 8.5600 0.0000
v 0.0000 9.0400 0.0000
v 0.0000 9.6800 0.0000
v 0.0000 10.0000 0.0000
v -11.1400 0.0000 -14.2500
v -7.2900 0.0000 -9.4800
v -8.9100 0.0000 -7.8800
v -5.4400 0.0000 -4.7800
v 10.2800 0.0000 -6.5000
v 12.9700 0.0000 -7.4300
v 5.7500 0.0000 -6.2500
v 11.2700 0.0000 -9.4900
v 10.0100 0.0000 -9.8200
v 14.8300 0.0000 -6.6100
v -0.6900 0.0000 -13.8600
v -11.4500 0.0000 -5.3600
v -4.4200 0.0000 -10.2200
v -0.6800 0.0000 -5.6700
v 4.5400 0.0000 -11.5600
v 5.5300 0.0000 -4.3400
v 13.4500 0.0000 -8.7300
v 2.1000 0.0000 -4.4300
v 14.6300 0.4400 -20.4700
v 14.0000 0.4500 -23.4000
v -3.8500 0.0000 -13.7200
v 2.9800 0.0000 -7.5400
v -3.2400 0.0000 -5.9000
v 3.0700 0.0000 -14.6400
v 7.4300 0.0000 -6.2600
v -2.0900 0.0000 -8.4400
v 5.4800 0.0000 -5.5400
v 4.0500 0.0000 -6.9600
v 0.5500 0.0000 -5.2100
v -5.2900 0.0000 -13.2500
v 3.2300 0.0000 -8.2500
v -8.3300 0.0000 -13.1100
v -1.5400 0.0000 -6.6400
v -1.9000 0.0000 -12.5000
v 10.0000 0.0000 -2.2000
v -1.5000 0.0000 -6.0000
v -9.0000 0.0000 -7.8000
v -7.7000 0.0000 -11.0000
v -6.9700 0.0000 -8.0300
v 1.3900 0.0000 -12.7400
v -8.8300 0.0000 -7.4300
v -2.9600 13.9000 -9.7800
v -5.8900 12.3200 -14.6600
v -0.4800 12.3200 -4.6500
v 0.9400 13.9000 -10.2700
v 6.5500 12.3200 -2.4600
v 6.5500 11.0500 -37.1600
v 16.8700 11.0500 -38.0300
v 8.3700 11.2700 -38.9000
v -5.8100 12.3000 -14.5600
v -5.8100 12.3000 -14.5600
vt 0.0000 0.2031
vt 0.0000 0.2812
vt 0.0000 0.4766
vt 0.0000 0.5938
vt 0.0000 0.7422
vt 0.0000 0.8594
vt 0.0000 0.0000
vt 0.0000 0.9609
vt -0.8164 0.0000
vt -1.0967 0.0000
vt -0.6914 0.0000
vt -1.1289 0.0000
vt -0.8477 0.0000
vt 1.3350 0.0000
vt 0.7979 0.0000
vt 0.8779 0.0000
vt 1.4307 0.0000
vt 0.9453 0.0000
vt -0.0264 0.0000
vt -1.0498 0.0000
vt -0.8896 0.0000
vt -0.5371 0.0000
vt -0.0254 0.0000
vt 0.2510 0.0000
vt 0.7588 0.0000
vt 1.1436 0.0000
vt -0.8779 0.0000
vt 1.7246 0.0449
vt -0.3877 0.0000
vt 0.2666 0.0000
vt -0.6973 0.0000
vt 0.2881 0.0000
vt 0.8301 0.0000
vt 0.3359 0.0000
vt 0.1162 0.0000
vt -0.1865 0.0000
vt 0.7451 0.0000
vt -0.1523 0.0000
vt 0.2266 0.0000
vt -1.1221 0.0000
vt -0.3809 0.0000
vt -0.7520 0.0000
vt 0.7324 0.0000
vt 0.6055 0.0000
vt -0.1660 0.0000
vt -0.1504 0.0000
vt -0.1855 0.0000
vt 0.2725 0.0000
vt -0.2236 0.0000
vt -0.3564 0.0000
vt -0.5859 1.2031
vt -0.5166 1.3574
vt -0.0049 1.2031
vt 0.6309 1.2031
vt 1.1611 1.0791
vt 1.6504 1.0791
vt 0.6396 1.0840
vt -0.5674 1.2012
vt -0.5674 1.2012
vt 0.3076 0.0000
f 44/44 1/1 1/1
f 9/9 1/1 1/1
f 33/33 1/1 1/1
f 58/58 1/1 1/1
f 19/19 1/1 1/1
