# Conker's Bad Fur Day — Real 3D Model (Multiplayer Level Models)
o assets09_model_113

v 0.0000 7.7600 0.0000
v 19.5500 0.1800 -2.5800
v 18.8300 5.9200 -2.5800
v 21.0300 3.6700 -2.5800
v 15.0300 8.6100 -2.5800
v 13.9500 4.3600 -2.5800
v 10.4500 10.5600 -2.5800
v 10.0100 6.0000 -2.5800
v 5.6400 9.5900 -2.5800
v 5.9500 6.2800 -2.5800
v -0.7400 4.0100 -2.5800
v 7.9800 15.9300 -33.4200
v 4.8200 14.1700 -2.5800
v 2.3400 16.3000 -2.5800
v 0.9400 2.7600 -2.5800
v 3.6400 7.8800 -2.5800
v 2.5700 14.9800 -2.5800
v 10.8800 19.5100 -33.4200
v 8.3300 19.9100 -2.5800
v 6.3300 20.5800 -2.5800
v -28.0000 0.0000 17.9200
v -33.2800 0.0000 18.5500
v -28.1600 2.5600 15.3600
v -7.5200 0.0000 0.6400
v -7.5200 0.0000 0.6400
v -7.5200 0.0000 0.6400
vt 0.0000 0.0000
vt -0.0195 -0.0010
vt -0.0410 0.0156
vt -0.0537 -0.0088
vt 0.0234 -0.0361
vt 0.0137 -0.0342
vt 0.0625 -0.0615
vt 0.0596 -0.0605
vt 0.1025 -0.0859
vt 0.1074 -0.0889
vt 0.1670 -0.1270
vt -0.0410 -0.0127
vt -0.0254 -0.0098
vt -0.0107 -0.0381
vt -0.0146 -0.0234
vt -0.0098 -0.0156
vt -0.0010 -0.0234
vt -0.0303 0.0049
vt -0.0410 -0.0127
vt 0.0000 0.7656
vt -6.5000 0.0000
vt -6.2500 0.0000
vt -6.5000 0.0000
vt -4.0000 0.0000
vt -4.0000 0.0000
vt -4.0000 0.0000
f 21/21 25/25 24/24
f 23/23 25/25 20/20
