# Conker's Bad Fur Day — Real 3D Model (HUD & UI Props)
o assets01_model_040

v 3.0200 2.4500 -2.5800
v 8.3800 2.3300 -2.5800
v 8.5900 6.9900 -2.5800
v 3.2200 7.1200 -2.5800
v 2.8200 1.6800 -2.5800
v 7.8500 1.9300 -2.5800
v 7.7500 4.1300 -2.5800
v 3.2100 3.7800 -2.5800
v 3.5500 1.8300 -0.0100
v 8.7300 8.4300 -2.5800
v 0.7200 8.2300 -2.5800
v 1.5800 0.1400 -2.5800
v 7.2600 0.2900 -2.5800
v 7.4400 -0.1900 -38.5600
v 3.2800 -0.0900 -2.5800
v 3.5400 9.6500 -2.5800
v 8.5900 8.1400 -2.5800
v 8.5600 0.8900 -2.5800
v 3.4800 -0.5800 -2.5800
v 7.9000 1.8900 -0.0100
v 8.2600 3.0700 -0.0100
v 9.5600 2.8900 -0.0100
v 9.5600 2.8900 -0.0100
v 8.2600 3.0700 -0.0100
v 0.8700 4.0400 -2.5800
v 3.3100 3.6100 -2.5800
v 2.1000 4.1300 -2.5800
v 3.5500 1.8300 -2.5800
v 1.7500 6.6400 -2.5800
v 2.8900 0.0500 -2.5800
v 8.0500 6.3000 -2.5800
v 7.8200 -0.4700 -2.5800
v 7.9000 1.8900 -0.0100
v 9.5600 2.8900 -0.0100
v 8.2600 3.0700 -0.0100
v 10.0600 10.8200 -2.5800
v 9.5900 11.1700 -2.5800
v -0.1700 8.1900 -2.5800
v 9.7500 12.4000 -2.5800
v -0.4000 0.5600 -2.5800
v -0.7400 7.2100 -2.5800
v 9.1900 11.9900 -2.5800
v -0.2800 0.6200 -2.5800
v 9.8300 -0.2200 -2.5800
v -0.7000 6.8200 -2.5800
v 0.7900 -0.3400 -0.0100
v -0.1700 8.1900 -0.0100
v 9.5900 11.1700 -0.0100
v 11.0900 -0.0700 -0.0100
v 10.0600 10.8200 -0.0100
v -0.6700 8.1000 -0.0100
v 0.0100 -0.1500 -0.0100
v 11.2200 -0.0600 -0.0100
v -0.4800 4.1500 -2.5800
v -0.7200 4.1600 -2.5800
v 0.2800 2.9600 -0.0100
v 1.2600 9.1100 -2.5800
v 1.8700 8.8600 -2.5800
v 5.7500 17.0300 0.0000
v 3.5400 16.8900 -2.5800
v -0.4800 4.1500 -2.5800
v -0.7200 4.1600 -2.5800
v -0.6600 1.6900 -2.5800
v 9.5900 0.2000 -2.5800
v 4.7500 -0.9100 -2.5800
v 9.5900 0.2000 -2.5800
v 2.1000 9.0000 -2.5800
v 2.1000 9.0000 -2.5800
v 7.2300 9.7200 -2.5800
v 7.2300 9.7200 -2.5800
v 4.6300 9.4000 -2.5800
v 7.2300 9.7200 -2.5800
v 2.1000 9.0000 -2.5800
v 7.2300 9.7200 -2.5800
v 4.6300 9.4000 -2.5800
v 2.1000 9.0000 -2.5800
v 5.9700 0.6800 -2.5800
v 9.6100 0.7300 -2.5800
v 9.5800 7.0000 -2.5800
v 7.2300 9.7200 -2.5800
v 9.5700 7.0000 -2.5800
v 7.7200 9.7100 -0.0100
v 4.6000 9.6800 -0.0100
v 2.1000 9.0000 -2.5800
v 2.1000 9.0000 -2.5800
v 9.5800 7.0000 -2.5800
v 7.2300 9.7200 -2.5800
v 7.2300 9.7200 -2.5800
v 7.2300 9.7200 -2.5800
v 3.1100 10.4700 -2.5800
v 7.4300 10.4800 -2.5800
v 10.2400 0.0000 -0.0100
v 10.3700 10.2900 -0.0100
v 6.9600 10.2700 -2.5800
v 6.8200 -0.0300 -0.0100
v 3.5500 10.3100 -2.5800
v 3.4200 0.0100 -0.0100
v 0.1400 10.3000 -2.5800
v 0.0000 0.0000 -2.5800
v 11.6600 5.2600 -2.5800
v -1.2200 5.1600 -2.5800
v 8.4000 10.6800 -2.5800
v 1.9600 10.6300 -2.5800
v 2.0400 -0.2400 -2.5800
v 8.4800 -0.1900 -2.5800
v 2.7800 2.3900 -0.0100
v 5.6800 1.8600 -0.0100
v 15.1000 1.7300 -0.0100
v 17.1500 2.3700 -0.0100
v 17.1500 2.3700 -0.0100
v 15.1000 1.7300 -0.0100
v 5.6800 1.8600 -0.0100
v 2.7800 2.3900 -0.0100
v 2.0000 0.1000 -2.5800
v 1.7000 10.0100 -2.5800
v -10.7500 9.7000 -2.5800
v -22.9100 -0.5200 -2.5800
v -23.2000 9.3800 -2.5800
v 2.0000 0.1000 -2.5800
v 10.4500 0.3200 -2.5800
v 10.1600 10.2200 -2.5800
v 1.7000 10.0100 -2.5800
v -23.2000 9.3800 -2.5800
v -22.9100 -0.5200 -2.5800
v -0.0100 9.1700 -2.5800
v 0.0900 0.4400 -2.5800
v 3.1900 6.4100 -0.0100
v 2.4200 8.6200 -0.0100
v -1.1200 9.1800 -0.0100
v -0.8600 7.0400 -0.0100
v 12.0400 8.9400 -0.0100
v 10.9200 11.4200 -0.0100
v -5.4900 11.4600 -0.0100
v -6.7400 8.9900 -0.0100
v 6.3700 7.3300 -0.0100
v 6.4800 9.6200 -0.0100
v 2.4000 9.4800 -0.0100
v 1.6900 7.1700 -0.0100
v 4.7700 8.1600 -0.0100
v 4.5500 11.1600 -0.0100
v -0.1800 10.2300 -0.0100
v -0.2100 7.5100 -0.0100
v -10.7500 9.7000 -2.5800
v 1.7000 10.0100 -2.5800
v 2.0000 0.1000 -2.5800
v -22.9100 -0.5200 -2.5800
v -23.2000 9.3800 -2.5800
v 1.7000 10.0100 -2.5800
v 10.1600 10.2200 -2.5800
v 10.4500 0.3200 -2.5800
v 2.0000 0.1000 -2.5800
v -22.9100 -0.5200 -2.5800
v -23.2000 9.3800 -2.5800
v 0.0900 0.4400 -2.5800
v -0.0100 9.1700 -2.5800
v -0.8600 7.0400 -0.0100
v -1.1200 9.1800 -0.0100
v 2.4200 8.6200 -0.0100
v 3.1900 6.4100 -0.0100
v -6.7400 8.9900 -0.0100
v -5.4900 11.4600 -0.0100
v 10.9200 11.4200 -0.0100
v 12.0400 8.9400 -0.0100
v 1.6900 7.1700 -0.0100
v 2.4000 9.4800 -0.0100
v 6.4800 9.6200 -0.0100
v 6.3700 7.3300 -0.0100
v 4.5500 11.1600 -0.0100
v 4.7700 8.1600 -0.0100
v -0.2100 7.5100 -0.0100
v -0.1800 10.2300 -0.0100
v 0.0000 0.0000 0.0100
v 0.0000 0.0000 0.1300
v 0.0000 35.2100 0.3200
v 0.3200 0.3200 0.0000
v 0.0000 9.9000 0.0000
v 0.3200 0.3200 0.0000
v 0.3200 0.3200 0.0000
v 0.3200 0.3200 0.0000
v 0.0000 38.4200 0.0000
v 0.3200 0.3200 0.0000
v -7.5200 0.0000 0.0000
v -28.0800 20.4800 0.0900
v 15.4400 36.4400 0.0800
v 2.5800 0.6400 2.5600
v -7.5200 0.0000 0.0000
v -33.2800 0.0000 18.2300
v -7.5200 0.0000 0.6400
v -7.5200 0.0000 0.6400
v -7.5200 0.0000 0.6400
v -7.4400 0.0000 17.9200
v -28.0800 20.4800 0.0900
v -7.5200 0.0000 0.0000
v -7.5200 0.0000 0.6400
v 12.8000 5.1600 0.0000
v -7.5200 0.0000 0.6400
v -7.5200 0.0000 0.6400
v -7.5200 0.0000 0.0000
v -33.2800 0.0000 18.3400
v -28.0800 11.5200 2.6500
v -28.0800 6.7200 5.2000
v -28.0800 6.8000 7.7600
v -7.5200 0.0000 0.0000
v -33.2800 0.0000 18.3400
v -7.5200 0.0000 0.6400
v -7.5200 0.0000 0.0000
v -33.2800 0.0000 18.2300
v -7.5200 0.0000 0.0000
v -33.2800 0.0000 18.3400
v -7.5200 0.0000 0.6400
v 15.3600 5.1600 0.0000
v -28.0000 0.0000 17.9200
v -33.2800 0.0000 18.5500
v -28.1600 2.5600 15.3600
v -7.5200 0.0000 0.6400
v -28.0000 0.0000 17.9200
v -33.2800 0.0000 18.1300
v -28.1600 2.5600 15.3600
v -7.5200 0.0000 0.6400
v -28.0000 20.4800 0.0100
v -7.5200 0.0000 0.0000
v -28.0800 10.2400 0.0100
v -28.0800 5.7600 2.5700
v -28.0800 5.9200 5.1200
v 2.5800 0.6400 2.5600
v 2.5800 0.6400 2.5600
v 2.5800 0.6400 2.5600
v -2.6500 -2.6500 -2.6500
v 1.6300 2.5500 2.5500
v 1.2300 0.7800 0.0000
v 1.1900 0.7600 0.7600
v 1.3200 1.6900 1.6900
v 0.0000 1.6900 1.6900
v 1.6300 2.5500 2.5500
v 1.2300 0.7800 0.0000
v 1.1900 0.7600 0.7600
v 1.3200 1.6900 1.6900
v 0.0000 1.6900 1.6900
vt 0.0615 0.0801
vt -0.0615 0.0801
vt -0.0615 0.0801
vt 0.0400 -0.0752
vt 0.1250 0.0557
vt 0.1289 0.0732
vt 0.1289 0.0635
vt 0.0400 -0.0352
vt 0.0439 0.0332
vt -0.0615 0.0801
vt -0.0439 0.0332
vt 0.0439 0.0332
vt 0.1289 0.0732
vt 0.1289 0.0635
vt 0.0615 0.0801
vt 0.0439 0.0605
vt -0.0439 0.0605
vt -0.0615 0.0801
vt 0.0615 0.0801
vt 0.0547 0.0566
vt 0.0439 0.0605
vt -0.0400 -0.0283
vt 0.0547 0.0566
vt 0.0400 -0.0752
vt -0.1250 0.0557
vt -0.0439 0.0332
vt -0.0615 0.0801
vt -0.0615 0.0801
vt -0.1289 0.0732
vt -0.0615 0.0801
vt -0.1289 0.0635
vt -0.0615 0.0801
vt -0.0439 0.0605
vt -0.0547 0.0566
vt -0.0400 -0.0752
vt 0.1250 0.0557
vt -0.1289 0.0732
vt 0.0615 0.0801
vt 0.1250 0.0449
vt 0.1289 0.0635
vt 0.0547 0.0439
vt -0.1250 0.0449
vt -0.0547 0.0439
vt -0.1289 0.0635
vt 0.0439 0.0605
vt -0.1289 0.0732
vt -0.0615 0.0801
vt -0.0547 0.0566
vt 0.0615 0.0801
vt 0.1289 0.0732
vt 0.1250 0.0557
vt 0.0547 0.0566
vt 0.0068 0.0957
vt 0.0068 0.1016
vt 0.0049 0.0957
vt 0.0000 0.0566
vt 0.0557 0.0459
vt 0.0371 0.0342
vt 0.0186 0.0254
vt 0.0068 0.0957
vt 0.0068 0.1016
vt -0.0049 0.0986
vt 0.0049 0.0957
vt -0.0215 0.0732
vt -0.0459 0.0713
vt 0.0244 0.0840
vt -0.0693 0.0020
vt 0.0381 0.0527
vt -0.0693 0.0020
vt 0.0459 0.0713
vt 0.0586 0.0732
vt 0.0244 0.0684
vt -0.0244 0.0732
vt -0.0459 0.0713
vt -0.0244 0.0684
vt 0.0693 0.0020
vt -0.0449 0.0020
vt 0.0391 0.0518
vt 0.0020 0.0889
vt -0.0381 0.0518
vt -0.0449 0.0020
vt 0.0244 0.0732
vt 0.0391 0.0518
vt 0.0244 0.0684
vt 0.0381 0.0527
vt 0.0244 0.0732
vt 0.0586 0.0732
vt -0.0244 0.0732
vt -0.0244 0.0684
vt -0.0381 0.0527
vt -0.0449 0.0020
vt 0.0049 0.0049
vt -0.0088 0.0098
vt -0.0127 -0.0908
vt 0.0039 0.0137
vt 0.0000 -0.0869
vt -0.0156 0.0947
vt 0.0020 0.0889
vt 0.0488 0.0420
vt -0.0488 0.0420
vt 0.0244 0.0840
vt -0.0244 0.0840
vt -0.0244 0.0732
vt 0.0244 0.0732
vt -0.0039 -0.0654
vt 0.0908 -0.0537
vt 0.0908 -0.0537
vt 0.0908 -0.0449
vt 0.0020 0.0459
vt -0.0918 -0.0527
vt -0.0918 -0.0527
vt -0.0918 -0.0459
vt -0.0918 -0.0205
vt 0.1064 0.0469
vt 0.1064 0.0576
vt 0.0020 0.0684
vt 0.1064 0.0684
vt 0.1064 0.0459
vt 0.0020 0.0166
vt 0.1064 0.0166
vt 0.1064 0.0469
vt 0.1064 0.0684
vt 0.1064 0.0459
vt 0.0020 -0.0820
vt 0.0020 0.0166
vt 0.0020 -0.0273
vt 0.0908 -0.0449
vt 0.0908 -0.0537
vt 0.1064 -0.0605
vt 0.1064 -0.0605
vt 0.0908 -0.0537
vt 0.0908 -0.0537
vt 0.1064 -0.0605
vt 0.1064 -0.0605
vt 0.0908 -0.0537
vt 0.0908 -0.0479
vt 0.1064 -0.0537
vt 0.1064 -0.0537
vt 0.0908 -0.0479
vt 0.0908 -0.0215
vt 0.1064 -0.0508
vt 0.1064 -0.0088
vt -0.1084 0.0479
vt -0.0039 0.0479
vt -0.0039 0.0693
vt -0.1084 0.0693
vt -0.0039 0.0469
vt -0.1084 0.0176
vt -0.0039 0.0176
vt -0.0039 0.0479
vt -0.0039 0.0693
vt -0.0039 0.0469
vt -0.1084 -0.0801
vt -0.1084 0.0176
vt -0.1084 -0.0254
vt -0.0918 -0.0527
vt -0.0918 -0.0439
vt -0.1084 -0.0488
vt -0.1084 -0.0586
vt -0.0918 -0.0527
vt -0.0918 -0.0527
vt -0.1084 -0.0586
vt -0.1084 -0.0518
vt -0.0918 -0.0459
vt -0.0918 -0.0527
vt -0.1084 -0.0586
vt -0.1084 -0.0215
vt -0.1084 -0.0518
vt -0.1084 0.0068
vt -0.0918 -0.0439
vt -0.0918 -0.0098
vt 0.0000 0.0000
vt -15.4512 17.2021
vt 0.0000 4.2676
vt 0.0000 4.4990
vt 0.0312 0.0312
vt 0.0000 4.2646
vt 0.0000 4.2705
vt 0.0000 4.2617
vt 0.0312 0.0312
vt -6.2500 0.0000
vt -2.7344 0.0000
vt -2.7422 1.1250
vt -8.9453 0.0137
vt 4.5234 -27.8379
vt -6.5000 0.0000
vt -6.2500 0.0000
vt -4.0000 0.0000
vt -4.0000 0.0000
vt -4.0000 0.0000
vt -2.7266 0.0000
vt -3.5000 8.0020
vt -2.7344 0.0000
vt -4.0000 0.0000
vt -9.4453 0.0029
vt -4.0000 0.0000
vt -4.0000 0.0000
vt -6.5000 0.0000
vt -6.2500 0.0000
vt -3.5000 8.0020
vt -3.5000 8.0020
vt -3.5000 8.0020
vt -6.5000 0.0000
vt -6.2500 0.0000
vt -4.0000 0.0000
vt -6.5000 0.0000
vt -6.2500 0.0000
vt -6.5000 0.0000
vt -6.2500 0.0000
vt -4.0000 0.0000
vt -8.2500 0.0000
vt -6.5000 0.0000
vt -6.2500 0.0000
vt -6.5000 0.0000
vt -4.0000 0.0000
vt -6.5000 0.0000
vt -6.2500 0.0000
vt -6.5000 0.0000
vt -4.0000 0.0000
vt -3.5000 8.0020
vt -2.7344 0.0000
vt -3.5000 8.0020
vt -3.5000 8.0020
vt -3.5000 8.0020
vt 4.5234 -27.8379
vt 4.8867 -28.8379
vt 4.5234 -27.8379
vt -0.2588 27.1875
vt 0.1162 0.1162
vt 0.0762 0.1289
vt 0.1201 0.0762
vt 0.2490 0.0742
vt 28.0410 25.0547
vt 0.0000 0.1162
vt 0.0762 0.1289
vt 0.1201 0.0762
vt 0.2490 0.0742
vt -13.1396 -26.9414
f 84/84 3/3 2/2
f 60/60 60/60 128/128
f 61/61 1/1 27/27
f 60/60 60/60 128/128
f 109/109 2/2 127/127
f 94/94 94/94 128/128
f 13/13 2/2 53/53
f 94/94 94/94 128/128
f 116/116 1/1 87/87
f 90/90 1/1 119/119
f 128/128 128/128 128/128
f 84/84 3/3 2/2
f 60/60 60/60 128/128
f 61/61 1/1 27/27
f 60/60 60/60 128/128
f 90/90 1/1 119/119
f 128/128 128/128 128/128
f 116/116 1/1 87/87
f 13/13 2/2 53/53
f 94/94 94/94 128/128
f 109/109 2/2 127/127
f 94/94 94/94 128/128
f 103/103 1/1 32/32
f 103/103 1/1 32/32
f 5/5 8/8 31/31
f 5/5 31/31 32/32
f 27/27 31/31 32/32
f 27/27 32/32 28/28
f 25/25 26/26 27/27
f 25/25 27/27 28/28
f 29/29 30/30 31/31
f 29/29 31/31 32/32
f 26/26 29/29 32/32
f 27/27 22/22 29/29
f 1/1 2/2 3/3
f 7/7 9/9 23/23
f 9/9 8/8 23/23
f 24/24 30/30 29/29
f 24/24 26/26 30/30
f 22/22 21/21 18/18
f 17/17 22/22 18/18
f 12/12 14/14 15/15
f 12/12 15/15 13/13
f 5/5 8/8 7/7
f 5/5 7/7 6/6
f 17/17 18/18 10/10
f 17/17 10/10 9/9
f 17/17 9/9 24/24
f 24/24 9/9 25/25
f 9/9 12/12 25/25
f 21/21 26/26 31/31
f 21/21 31/31 32/32
f 12/12 13/13 14/14
f 12/12 14/14 15/15
f 26/26 13/13 12/12
f 10/10 11/11 7/7
f 11/11 5/5 7/7
f 27/27 28/28 29/29
f 27/27 29/29 30/30
f 31/31 32/32 29/29
f 31/31 29/29 28/28
f 1/1 2/2 3/3
f 1/1 3/3 4/4
f 9/9 12/12 16/16
f 12/12 14/14 16/16
f 1/1 2/2 3/3
f 1/1 3/3 4/4
f 25/25 26/26 27/27
f 25/25 27/27 28/28
f 25/25 26/26 27/27
f 25/25 27/27 28/28
