# Conker's Bad Fur Day — Real 3D Model (Multiplayer Level Models)
o assets09_model_036

v 0.0000 12.4000 0.0000
v 2.3200 6.6900 -0.0100
v 1.4800 6.6900 -0.0100
v 3.1600 6.7100 -0.0100
v 1.6700 6.7000 -0.0100
v 3.0000 6.7100 -0.0100
v 3.1300 6.9300 -0.0100
v 3.1700 10.3600 -0.0100
v 1.4800 6.9300 -0.0100
v 1.5200 10.3600 -0.0100
v 2.3300 6.8600 -0.0100
v 3.1100 6.8700 -0.0100
v 3.0700 10.2600 -0.0100
v 2.2800 10.2900 -0.0100
v 1.5000 10.2800 -0.0100
v 1.5400 6.8900 -0.0100
v 1.4900 5.8700 -0.0100
v 1.5500 1.0300 -0.0100
v 2.9400 6.1900 -0.0100
v 2.2300 6.1200 -0.0100
v 2.9800 0.7300 -0.0100
v 2.2700 0.7400 -0.0100
v 1.5600 0.7200 -0.0100
v 2.2700 0.7400 -0.0100
v 2.2300 6.1200 -0.0100
v 1.5300 6.1800 -0.0100
v 3.0700 1.0500 -0.0100
v 3.0200 5.8900 -0.0100
v -1.6600 4.7400 -0.0100
v 0.6500 4.7300 -0.0100
v 0.2500 2.4100 -0.0100
v -1.1600 2.4200 -0.0100
v -2.8100 4.7500 -0.0100
v -1.8600 2.4200 -0.0100
v 0.9600 2.4100 -0.0100
v -1.1600 2.4200 -0.0100
v 0.2500 2.4100 -0.0100
v -1.6600 4.7400 -0.0100
v 1.8000 4.7300 -0.0100
v 0.6500 4.7300 -0.0100
v 0.0000 0.0000 -0.0100
v 0.0000 0.0000 -0.0100
v 0.0000 0.0000 -0.0100
v 0.0000 0.0000 -0.0100
v 0.0000 0.0000 -0.0100
v 0.0000 0.0000 -0.0100
v 0.0000 0.0000 -0.0100
v 0.0000 0.0000 -0.0100
v 0.0000 0.0000 -0.0100
v 0.0000 0.0000 -0.0100
v 0.0000 0.0000 -0.0100
v 0.0000 0.0000 -0.0100
v 0.0000 0.0000 -0.0100
v 0.0000 0.0000 -0.0100
v 0.0000 0.0000 -0.0100
v 0.0000 0.0000 -0.0100
v 0.0000 0.0000 -0.0100
v 0.0000 0.0000 -0.0100
v 0.0000 0.0000 -0.0100
v 0.0000 0.0000 -0.0100
v 0.0000 0.0000 -0.0100
v 0.0000 0.0000 -0.0100
v 0.0000 0.0000 -0.0100
v 0.0000 0.0000 -0.0100
v -28.0000 0.0000 17.9200
v -33.2800 0.0000 18.1300
v -28.1600 2.5600 15.3600
v -7.5200 0.0000 0.6400
v -28.0800 5.7600 2.5700
v -28.0800 5.9200 5.1200
v -27.9200 0.0000 17.9200
v -33.2800 0.0000 18.0700
v -27.9200 20.4800 0.0900
vt 0.0000 0.0000
vt -0.0010 0.0088
vt -0.0020 -0.0068
vt 0.0059 0.0078
vt 0.0020 -0.0049
vt 0.0049 0.0186
vt 0.0010 0.0166
vt 0.0059 0.0078
vt 0.0078 0.0156
vt 0.0010 0.0059
vt 0.0059 0.0078
vt 0.0078 0.0156
vt 0.0039 0.0146
vt 0.0010 0.0166
vt -0.0010 0.0088
vt 0.0098 0.0352
vt 0.0049 0.0186
vt 0.0127 0.0332
vt 0.0088 0.0322
vt 0.0078 0.0156
vt 0.0039 0.0146
vt 0.0010 0.0166
vt 0.0039 0.0146
vt 0.0088 0.0322
vt 0.0059 0.0352
vt 0.0049 0.0186
vt 0.0059 0.0352
vt 0.0098 0.0352
vt 0.0117 0.0117
vt 0.0068 0.0059
vt -0.0029 0.0088
vt -0.0166 0.0039
vt -0.0098 0.0020
vt 0.0088 -0.0029
vt -0.0068 -0.0078
vt 0.0020 -0.0098
vt -0.0127 -0.0127
vt 0.0166 -0.0049
vt 0.0039 -0.0176
vt -0.0127 -0.0127
vt -0.0127 0.0029
vt -0.0166 0.0039
vt -0.0098 -0.0098
vt 0.0088 0.0088
vt 0.0117 0.0117
vt -0.0049 0.0156
vt -0.0039 0.0117
vt 0.0127 -0.0039
vt 0.0029 -0.0137
vt 0.0166 -0.0049
vt 0.0039 -0.0176
vt -0.0166 0.0039
vt -0.0127 0.0029
vt -0.0127 -0.0127
vt -0.0098 -0.0098
vt -0.0049 0.0156
vt 0.0117 0.0117
vt 0.0088 0.0088
vt -0.0039 0.0117
vt 0.0127 -0.0039
vt 0.0029 -0.0137
vt 0.0166 -0.0049
vt 0.0039 -0.0176
vt 0.0000 1.2188
vt -6.5000 0.0000
vt -6.2500 0.0000
vt -6.5000 0.0000
vt -4.0000 0.0000
vt -3.5000 8.0020
vt -3.5000 8.0020
vt -6.5000 0.0000
vt -6.2500 0.0000
vt -3.5000 8.0020
f 1/1 2/2 3/3
f 4/4 5/5 6/6
f 7/7 8/8 9/9
f 10/10 11/11 12/12
f 13/13 14/14 15/15
f 16/16 17/17 18/18
f 19/19 20/20 21/21
f 22/22 23/23 24/24
f 25/25 26/26 27/27
f 28/28 29/29 30/30
f 31/31 32/32 33/33
f 34/34 35/35 36/36
f 37/37 38/38 39/39
f 40/40 41/41 42/42
f 43/43 44/44 45/45
f 46/46 47/47 48/48
f 49/49 50/50 51/51
f 52/52 53/53 54/54
f 55/55 56/56 57/57
f 58/58 59/59 60/60
f 61/61 62/62 63/63
f 64/64 65/65 66/66
f 67/67 68/68 69/69
f 70/70 71/71 72/72
