# Conker's Bad Fur Day — Real 3D Model (Multiplayer Level Models)
o assets09_model_145

v 0.0000 5.0400 0.0000
v 20.4000 2.6800 -0.0100
v 20.4700 0.4700 -0.0100
v 20.3400 4.8900 -0.0100
v 20.4000 2.6800 -0.0100
v 6.3900 3.1400 -0.0100
v 9.9400 1.5200 -0.0100
v 17.2700 3.2600 -0.0100
v 13.7300 4.8800 -0.0100
v 13.2100 1.0000 -0.0100
v 13.1600 2.6600 -0.0100
v 13.1600 2.6600 -0.0100
v 13.1100 4.3300 -0.0100
v 6.1400 2.6400 -0.0100
v 6.1800 1.2900 -0.0100
v 6.1400 2.6400 -0.0100
v 6.1000 4.0000 -0.0100
v 9.8700 5.2300 -0.0100
v 9.8900 7.1400 -0.0100
v 9.8700 5.2300 -0.0100
v -0.0300 2.6300 -0.0100
v -0.0300 2.6300 -0.0100
v -0.0700 3.8200 -0.0100
v 6.3200 5.1900 -0.0100
v 0.0000 5.1100 -0.0100
v 6.3500 10.0300 -0.0100
v 6.3200 5.1900 -0.0100
v 0.0000 5.1100 -0.0100
v -28.0000 0.0000 17.9200
v -33.2800 0.0000 18.2300
v -28.1600 2.5600 15.3600
v -7.5200 0.0000 0.6400
v -7.5200 0.0000 0.6400
vt 0.0000 0.4961
vt 0.0000 -0.0107
vt 0.0000 0.0107
vt -0.0107 0.0000
vt 0.0107 0.0000
vt 0.0000 -0.0107
vt -0.0107 0.0000
vt 0.0000 0.0107
vt 0.0000 -0.0088
vt 0.0088 0.0000
vt -0.0088 0.0000
vt 0.0000 0.0088
vt 0.0068 0.0000
vt 0.0000 -0.0068
vt -0.0068 0.0000
vt 0.0000 0.0068
vt 0.0000 -0.0059
vt 0.0000 0.0059
vt -0.0059 0.0000
vt 0.0059 0.0000
vt 0.0000 -0.0059
vt 0.0000 0.0059
vt 0.0000 -0.0156
vt 0.0000 0.0000
vt 0.0000 0.0156
vt -0.0088 0.0000
vt 0.0000 0.0000
vt 0.0000 0.5938
vt -6.5000 0.0000
vt -6.2500 0.0000
vt -6.5000 0.0000
vt -4.0000 0.0000
vt -4.0000 0.0000
f 19/19 1/1 6/6
f 19/19 1/1 6/6
f 5/5 6/6 7/7
f 8/8 5/5 7/7
