mtllib assets09_model_106.mtl
# Conker's Bad Fur Day — Real 3D Model (Multiplayer Level Models)
o assets09_model_106
usemtl assets09_model_106_mat

v 0.0000 4.4000 0.0000
v 0.0000 0.0000 -0.0100
v 0.0000 0.0000 -0.0100
v 0.0000 0.0000 -0.0100
v 0.0000 0.0000 -0.0100
v 0.0000 0.0000 -0.0100
v 0.0000 0.0000 -0.0100
v 0.0000 0.0000 -0.0100
v 0.0000 0.0000 -0.0100
v 0.0000 0.0000 -0.0100
v 0.0000 0.0000 -0.0100
v 0.0000 0.0000 -0.0100
v 0.0000 0.0000 -0.0100
v 0.0000 0.0000 -0.0100
v 0.0000 0.0000 -0.0100
v 7.5000 0.0000 -0.0100
v 2.7900 0.0000 -0.0100
v 7.4900 20.4800 -0.0100
v 2.7800 20.4800 -0.0100
v 2.7900 0.0000 -0.0100
v 2.7800 20.4800 -0.0100
v 7.5000 0.0000 -0.0100
v 7.4900 20.4800 -0.0100
v -28.0000 0.0000 17.9200
v -33.2800 0.0000 18.3400
v -28.1600 2.5600 15.3600
v -7.5200 0.0000 0.6400
v -28.0800 11.5200 2.5700
v -28.0800 6.7200 5.1200
v -28.0800 6.8000 7.6800
v -7.5200 0.0000 0.6400
vt 0.0000 0.0000
vt 0.0000 -0.0156
vt 0.0273 -0.0156
vt 0.0205 -0.0283
vt 0.0068 -0.0039
vt 0.0205 -0.0039
vt 0.0137 -0.0088
vt 0.0137 -0.0088
vt 0.0068 -0.0156
vt 0.0068 -0.0156
vt 0.0137 -0.0225
vt 0.0137 -0.0225
vt 0.0205 -0.0156
vt 0.0205 -0.0156
vt 0.0205 -0.0039
vt 0.0068 -0.0039
vt 0.0205 -0.0039
vt 0.0068 -0.0039
vt 0.0000 -0.0156
vt 0.0068 -0.0283
vt 0.0205 -0.0283
vt 0.0205 -0.0283
vt 0.0273 -0.0156
vt -6.5000 0.0000
vt -6.2500 0.0000
vt -6.5000 0.0000
vt -4.0000 0.0000
vt -3.5000 8.0020
vt -3.5000 8.0020
vt -3.5000 8.0020
vt -4.0000 0.0000
f 7/7 9/9 13/13
f 9/9 11/11 13/13
