mtllib assets09_model_048.mtl
# Conker's Bad Fur Day — Real 3D Model (Multiplayer Level Models)
o assets09_model_048
usemtl assets09_model_048_mat

v 0.0000 18.0000 0.0000
v 0.0000 0.0000 -2.5800
v 0.0000 0.0000 -2.5800
v 0.0000 0.0000 -2.5800
v 0.0000 0.0000 -2.5800
v 0.0000 0.0000 -2.5800
v 0.0000 0.0000 -2.5800
v 0.0000 0.0000 -2.5800
v 0.0000 0.0000 -2.5800
v 0.0000 0.0000 -2.5800
v 0.0000 0.0000 -2.5800
v 0.0000 0.0000 -2.5800
v 0.0000 0.0000 -2.5800
v 0.0000 0.0000 -2.5800
v 0.0000 0.0000 -2.5800
v 0.0000 0.0000 -2.5800
v 0.0000 0.0000 -2.5800
v 0.0000 0.0000 -2.5800
v 0.0000 0.0000 -2.5800
v 5.3200 5.8900 -2.5800
v 7.3900 7.3000 -2.5800
v 0.4300 7.2300 -2.5800
v 0.4400 5.8500 -2.5800
v 7.4600 6.9600 -2.5800
v 7.7100 4.3800 -2.5800
v 0.4000 4.4900 -2.5800
v 0.1500 7.0800 -2.5800
v 6.4800 6.8300 -2.5800
v 7.0300 5.2100 -2.5800
v 2.2600 5.2300 -2.5800
v -0.0900 7.2400 -2.5800
v 0.4300 7.2300 -2.5800
v 7.3900 7.3000 -2.5800
v 0.1500 7.0800 -2.5800
v 7.4600 6.9600 -2.5800
v 7.4600 6.9600 -2.5800
v 6.4800 6.8300 -2.5800
v 6.4800 6.8300 -2.5800
v -0.0900 7.2400 -2.5800
v 0.4300 7.2300 -2.5800
v 0.4300 7.2300 -2.5800
v 7.3900 7.3000 -2.5800
v 7.3900 7.3000 -2.5800
v 2.2600 5.2300 -2.5800
v 6.4800 6.8300 -2.5800
v 7.4600 6.9600 -2.5800
v 2.4800 1.3400 -2.5800
v 0.3000 1.2900 -2.5800
v 0.3000 1.2900 -2.5800
v 0.0000 0.0000 -2.5800
v 0.0000 0.0000 -2.5800
v 0.0000 0.0000 -2.5800
v 0.0000 0.0000 -2.5800
v 0.0000 0.0000 -2.5800
v 4.9000 9.8500 -2.5800
v 9.9100 9.9700 -2.5800
v 5.2400 11.9500 -2.5800
v -1.7000 4.5200 -2.5800
v 5.3000 0.8400 -0.0100
v 5.3000 0.8400 -0.0100
v 5.0900 8.4100 0.0000
v 5.0900 8.4100 0.0000
v 0.0100 6.7500 0.0000
v 0.0100 6.7500 0.0000
v 0.1700 0.7800 -0.0100
v 0.1700 0.7800 -0.0100
v 10.0800 4.8600 -2.5800
v 10.0800 4.8600 -2.5800
v 10.0800 4.8600 -2.5800
v 10.0800 4.8600 -2.5800
v 10.0800 4.8600 -2.5800
v -28.0000 0.0000 17.9200
v -33.2800 0.0000 18.3400
v -28.1600 2.5600 15.3600
v -7.5200 0.0000 0.6400
v -28.0800 11.5200 2.5700
v -28.0800 6.7200 5.1200
v -28.0800 6.8000 7.6800
v -7.5200 0.0000 0.0000
v -33.2800 0.0000 18.5500
v -7.5200 0.0000 0.0000
v -33.2800 0.0000 18.3400
v -28.0800 20.4800 0.0100
v -7.5200 0.0000 0.0000
v -33.2800 0.0000 18.2300
v -28.0800 20.4800 0.0900
v -7.5200 0.0000 0.6400
v -7.5200 0.0000 0.6400
v -7.5200 0.0000 0.6400
v -7.5200 0.0000 0.6400
v -7.5200 0.0000 0.6400
vt 0.0000 0.0000
vt -0.0049 -0.0771
vt 0.0049 -0.0859
vt -0.0107 -0.0938
vt 0.0049 -0.1035
vt 0.0205 -0.0938
vt 0.0088 -0.0801
vt 0.0049 -0.1084
vt 0.0020 -0.0801
vt 0.0049 -0.0889
vt 0.0049 -0.0889
vt 0.0049 -0.1084
vt -0.0049 -0.0928
vt -0.0107 -0.1084
vt 0.0049 -0.1191
vt 0.0205 -0.1084
vt 0.0146 -0.0928
vt 0.0049 -0.1084
vt 0.0059 0.0352
vt 0.0010 0.0430
vt 0.0010 0.0420
vt 0.0059 0.0342
vt 0.0098 -0.0107
vt 0.0059 -0.0127
vt 0.0059 0.0166
vt 0.0098 0.0186
vt 0.0098 0.0186
vt 0.0059 0.0166
vt 0.0059 0.0352
vt 0.0098 0.0430
vt 0.0098 0.0420
vt 0.0098 0.0430
vt 0.0010 0.0186
vt 0.0010 -0.0107
vt 0.0098 -0.0107
vt 0.0010 0.0186
vt 0.0098 0.0186
vt 0.0010 0.0430
vt 0.0098 0.0420
vt 0.0010 0.0420
vt 0.0010 0.0430
vt 0.0098 0.0430
vt 0.0059 0.0352
vt 0.0010 0.0186
vt 0.0010 -0.0107
vt 0.0059 0.0342
vt 0.0010 0.0420
vt 0.0098 0.0420
vt 0.0059 -0.0137
vt 0.0059 -0.0117
vt 0.0059 -0.1016
vt 0.0117 -0.1035
vt 0.0117 -0.1035
vt 0.0127 -0.1064
vt 0.0059 -0.1387
vt 0.0059 -0.1055
vt -0.0254 -0.1455
vt 0.0361 -0.1455
vt 0.0117 -0.0908
vt 0.0156 -0.0850
vt 0.0156 -0.0850
vt 0.0127 -0.0508
vt -0.0020 -0.0508
vt -0.0020 -0.0508
vt 0.0059 -0.0547
vt 0.0059 -0.0459
vt -0.0029 -0.0430
vt -0.0049 -0.0098
vt 0.0137 -0.0430
vt 0.0156 -0.0098
vt -0.0049 -0.0098
vt -6.5000 0.0000
vt -6.2500 0.0000
vt -6.5000 0.0000
vt -4.0000 0.0000
vt -3.5000 8.0020
vt -3.5000 8.0020
vt -3.5000 8.0020
vt -6.5000 0.0000
vt -6.2500 0.0000
vt -6.5000 0.0000
vt -6.2500 0.0000
vt -3.5000 8.0020
vt -6.5000 0.0000
vt -6.2500 0.0000
vt -8.5000 0.0000
vt -4.0000 0.0000
vt -4.0000 0.0000
vt -4.0000 0.0000
vt -4.0000 0.0000
vt -4.0000 0.0000
f 14/14 18/18 15/15
f 15/15 18/18 16/16
f 16/16 18/18 17/17
f 15/15 7/7 6/6
f 15/15 6/6 27/27
f 28/28 29/29 30/30
f 11/11 12/12 13/13
f 1/1 14/14 2/2
f 9/9 10/10 11/11
f 12/12 11/11 10/10
f 13/13 14/14 15/15
f 14/14 16/16 15/15
f 28/28 17/17 20/20
f 28/28 20/20 25/25
f 29/29 30/30 31/31
f 5/5 9/9 10/10
f 8/8 6/6 7/7
f 17/17 11/11 14/14
