# Conker's Bad Fur Day — Real 3D Model (Multiplayer Level Models)
o assets09_model_062

v 0.0000 5.3600 0.0000
v 20.0600 7.7000 -2.5800
v 8.9400 6.9100 -2.5800
v 8.9700 3.2400 -2.5800
v 20.0900 2.7000 -2.5800
v 20.0400 10.2100 -2.5800
v 8.9300 8.7500 -2.5800
v 20.0600 7.7000 -2.5800
v 8.9400 6.9100 -2.5800
v 20.0900 2.7000 -2.5800
v 8.9700 3.2400 -2.5800
v 20.1100 0.1900 -2.5800
v 8.9800 1.4100 -2.5800
v 0.2600 4.9800 -2.5800
v 0.2600 4.9800 -2.5800
v 0.4800 7.5600 -2.5800
v 0.4200 2.3500 -2.5800
v 9.9400 2.3400 -2.5800
v 10.0000 7.5500 -2.5800
v 5.2700 10.1700 -2.5800
v 5.1500 -0.2700 -2.5800
v 2.2500 1.0200 -2.5800
v 1.2500 1.0400 -2.5800
v 1.4500 12.6700 -2.5800
v 0.2600 0.7200 -2.5800
v 2.5100 0.5400 -2.5800
v 1.4400 0.6900 -2.5800
v 1.1500 8.1000 -2.5800
v 0.3900 0.5700 -2.5800
v -28.0000 0.0000 17.9200
v -33.2800 0.0000 18.5500
v -28.1600 2.5600 15.3600
v -7.5200 0.0000 0.6400
v -7.5200 0.0000 0.0000
v -33.2800 0.0000 18.2300
v -28.0800 20.4800 0.0100
v -7.5200 0.0000 0.0000
v -33.2800 0.0000 17.9900
v -28.1600 10.2400 0.0900
v -7.5200 0.0000 0.6400
v 15.3600 5.1600 0.0200
v 15.3600 5.1600 0.0200
vt 0.0000 0.0000
vt 0.0371 0.1650
vt 0.0371 0.1221
vt 0.0508 0.1143
vt 0.0000 0.2021
vt 0.0000 0.1865
vt -0.0508 0.1729
vt -0.0371 0.1650
vt -0.0508 0.1143
vt -0.0371 0.1221
vt 0.0000 0.0850
vt 0.0000 0.1006
vt 0.0000 0.1436
vt 0.0000 0.1436
vt 0.0508 0.1729
vt 0.0508 0.1143
vt -0.0508 0.1143
vt -0.0508 0.1729
vt 0.0000 0.2021
vt 0.0000 0.0850
vt -0.0508 0.1143
vt 0.0000 0.0430
vt 0.0000 0.1572
vt 0.0146 0.0430
vt -0.0146 0.0430
vt 0.0000 0.0430
vt 0.0000 0.1445
vt 0.0146 0.0430
vt 0.0000 0.5312
vt -6.5000 0.0000
vt -6.2500 0.0000
vt -6.5000 0.0000
vt -4.0000 0.0000
vt -6.5000 0.0000
vt -6.2500 0.0000
vt -3.5000 8.0020
vt -6.5000 0.0000
vt -6.2500 0.0000
vt -3.5000 8.0020
vt -4.0000 0.0000
vt 1.2559 0.0039
vt 1.2559 0.0039
f 10/10 12/12 13/13
f 12/12 3/3 13/13
f 1/1 2/2 3/3
f 3/3 4/4 1/1
f 1/1 2/2 3/3
f 2/2 4/4 3/3
f 4/4 1/1 3/3
f 1/1 2/2 3/3
f 2/2 4/4 3/3
f 4/4 1/1 3/3
