mtllib assets0E_model_020.mtl
# Conker's Bad Fur Day — Real 3D Model (Sloprano Models)
o assets0E_model_020
usemtl assets0E_model_020_mat

v 20.4900 0.0000 0.0000
v 20.4900 0.0000 0.0000
v 20.4900 0.0000 0.0000
v 20.4900 0.0000 0.0000
v 20.4900 0.0000 0.0000
v 20.4900 0.0000 0.0000
v 20.4900 0.0000 0.0000
v 20.4900 0.0000 0.0000
v 20.4900 0.0000 0.0000
v 20.4900 0.0000 0.0000
v 20.4900 0.0000 0.0000
v 20.4900 0.0000 0.0000
v 20.4900 0.0000 0.0000
v 20.4900 0.0000 0.0000
v 20.4900 0.0000 0.0000
v 20.4900 0.0000 0.0000
v 20.4900 0.0000 0.0000
v 20.4800 0.0000 0.0000
v 20.4800 0.0000 0.0000
v 20.4900 0.0000 0.0000
v 20.4900 0.0000 0.0000
v 20.4900 0.0000 0.0000
v 20.4800 0.0000 0.0000
v 20.4900 0.0000 0.0000
vt 0.0000 0.5967
vt 0.0000 0.0645
vt 0.0000 0.0645
vt 0.0000 0.0645
vt 0.0000 0.0645
vt 0.0000 0.0645
vt 0.0000 0.0645
vt 0.0000 0.0645
vt 0.0000 0.0645
vt 0.0000 0.0645
vt 0.0000 0.0645
vt 0.0000 0.5967
vt 0.0000 0.5967
vt 0.0000 0.0645
vt 0.0000 0.0645
vt 0.0000 0.0645
vt 0.0000 0.0645
vt 0.0000 -31.4346
vt 0.0000 16.0645
vt 0.0000 0.0645
vt 0.0000 0.0645
vt 0.0000 0.0645
vt 0.0000 -15.4346
vt 0.0000 0.0645
f 1/1 1/1 1/1
