# Conker's Bad Fur Day — Real 3D Model (Spooky Models)
o assets10_model_029

v 0.0000 2.0800 0.0000
v 0.0000 2.4000 0.0000
v 0.0000 2.7200 0.0000
v 0.0000 3.0400 0.0000
v 0.0000 3.3600 0.0000
v 0.0000 3.6800 0.0000
v 0.0000 4.0000 0.0000
v 0.0000 4.3200 0.0000
v 0.0000 4.6400 0.0000
v 0.0000 4.9600 0.0000
v 0.0000 5.2800 0.0000
v 6.4600 3.1500 -7.9500
v -0.8700 0.1000 -8.8400
v -3.3200 -0.0100 7.1300
v 0.0200 0.0000 -0.8300
v 0.0200 0.0000 -0.8300
v 0.0200 0.0000 -0.8300
v -3.0600 -0.0100 7.0500
v -1.2600 0.4300 -2.5600
v -4.5600 0.0400 -2.3300
v -2.2300 0.0000 5.8600
v -3.6300 -0.0300 6.5500
v -7.3100 -0.0400 0.5300
v -5.7700 -0.0800 1.3100
v -1.7000 0.0300 -5.5900
v -0.0100 0.0200 -4.9800
v 7.0200 0.0400 2.9500
v 0.6200 0.1000 -8.4500
v 5.5500 0.1000 -9.9000
v -3.0700 -0.0100 7.1400
v -1.1600 0.0300 7.1500
v -3.5100 -0.0100 4.0700
vt 0.0000 0.2188
vt 0.0000 0.2500
vt 0.0000 0.2812
vt 0.0000 0.3125
vt 0.0000 0.3438
vt 0.0000 0.3750
vt 0.0000 0.4062
vt 0.0000 0.4375
vt 0.0000 0.4688
vt 0.0000 0.5000
vt 0.0000 0.5312
vt 0.6309 0.3076
vt -0.0850 0.0098
vt -0.3242 -0.0010
vt 0.0020 0.0000
vt 0.0020 0.0000
vt 0.0020 0.0000
vt -0.2988 -0.0010
vt -0.1230 0.0420
vt -0.4453 0.0039
vt -0.2178 0.0000
vt -0.3545 -0.0029
vt -0.7139 -0.0039
vt -0.5635 -0.0078
vt -0.1660 0.0029
vt -0.0010 0.0020
vt 0.6855 0.0039
vt 0.0605 0.0098
vt 0.5420 0.0098
vt -0.2998 -0.0010
vt -0.1133 0.0029
vt -0.3428 -0.0010
f 1/1 2/2 3/3
f 4/4 5/5 6/6
f 7/7 8/8 9/9
f 10/10 11/11 12/12
f 13/13 14/14 15/15
f 16/16 17/17 18/18
f 19/19 20/20 21/21
f 22/22 23/23 24/24
f 25/25 26/26 27/27
f 28/28 29/29 30/30
