# Conker's Bad Fur Day — Real 3D Model (Spooky Models)
o assets10_model_011

v 0.0000 1.1200 0.0000
v 0.0000 4.8800 0.0000
v 0.0000 7.9200 0.0000
v 0.0000 8.8000 0.0000
v 0.0000 9.2800 0.0000
v 0.0000 9.7600 0.0000
v 0.0000 10.1600 0.0000
v -38.2200 -15.6700 -11.7700
v -37.1600 -15.2800 -12.8000
v -34.8900 -15.2800 -12.0800
v -34.0300 -15.2500 -9.5800
v -35.9100 -15.2700 -7.8200
v -38.4000 -15.2600 -8.3700
v -39.0500 -15.3000 -10.6600
v -35.0400 -22.1600 -8.8700
v -36.6900 -16.2100 -10.4200
v -35.0400 -22.2300 -8.8800
v -36.6100 -16.1300 -10.2500
v -32.5100 -22.2900 -6.2600
v -36.6800 -21.1900 -10.2600
v -39.0100 -14.3500 -12.5700
v -27.2300 -21.9800 -0.5400
v -32.4000 -21.7800 -5.8500
v -27.2800 -21.9300 -0.5100
v -32.4300 -22.0800 -5.8700
v -21.7100 -23.3300 1.4200
v -24.9300 -23.3300 4.3900
v -21.7300 -20.9300 1.3400
v -24.9400 -21.0800 4.3300
v -34.8100 -12.4000 13.5400
v -30.9900 -13.2100 10.6500
v -34.0900 -13.2100 7.5100
v -29.6300 -0.9800 21.5600
v -29.8400 8.7500 13.8700
v -29.8400 7.9700 13.8700
v -25.7000 15.8700 24.0300
v -18.7800 27.3100 26.5600
v -29.6200 24.7100 7.9500
v -31.5300 24.7100 8.9600
v -15.2200 24.7100 11.6800
v -14.9100 24.7100 22.4600
vt 0.0000 0.2500
vt 0.0000 0.7031
vt 0.0000 0.8438
vt 0.0000 0.8828
vt 0.0000 0.9297
vt 0.0000 0.9688
vt 0.0000 1.0156
vt -3.7490 -1.5244
vt -3.5186 -1.4893
vt -3.3545 -1.4883
vt -3.4082 -1.4873
vt -3.6357 -1.4883
vt -3.8125 -1.4873
vt -3.1592 -2.1641
vt -3.5830 -2.0811
vt -3.8174 -1.5166
vt -3.5342 -2.0830
vt -3.8037 -1.4092
vt -3.4238 -2.1768
vt -3.5820 -1.5811
vt -4.3213 -1.3926
vt -2.7090 -2.0244
vt -3.0176 -2.2686
vt -2.7178 -2.2734
vt -2.0430 9.7656
vt -2.5352 -2.1416
vt -2.0264 -2.1416
vt -2.5381 -2.1465
vt -2.0264 -2.1367
vt -3.3994 -1.2109
vt -3.1270 -1.2900
vt -1.9629 0.0586
vt -1.9629 -0.0957
vt -1.7617 0.7783
vt -2.5098 1.6260
vt -2.5098 1.5498
vt -1.8340 2.6670
vt -2.6357 2.4131
vt -1.6455 2.4131
vt -1.8135 2.4131
vt -1.5791 2.4131
f 1/1 2/2 3/3
f 4/4 5/5 6/6
f 7/7 8/8 9/9
f 10/10 11/11 12/12
f 13/13 14/14 15/15
f 16/16 17/17 18/18
f 19/19 20/20 21/21
f 22/22 23/23 24/24
f 25/25 26/26 27/27
f 28/28 29/29 30/30
f 31/31 32/32 33/33
f 34/34 35/35 36/36
f 37/37 38/38 39/39
