mtllib assets09_model_020.mtl
# Conker's Bad Fur Day — Real 3D Model (Multiplayer Level Models)
o assets09_model_020
usemtl assets09_model_020_mat

v 0.0000 11.7600 0.0000
v 0.0000 0.0000 -2.5800
v 0.0000 0.0000 -2.5800
v 0.0000 0.0000 -2.5800
v 0.0000 0.0000 -2.5800
v 0.0000 0.0000 -2.5800
v 0.0000 0.0000 -2.5800
v 0.0000 0.0000 -2.5800
v 0.0000 0.0000 -2.5800
v 0.0000 0.0000 -0.0100
v 0.0000 0.0000 -0.0100
v 0.0000 0.0000 -0.0100
v 0.0000 0.0000 -0.0100
v 0.0000 0.0000 -0.0100
v 0.0000 0.0000 -0.0100
v 0.0000 0.0000 -0.0100
v 0.0000 0.0000 -0.0100
v 0.0000 0.0000 -0.0100
v 0.0000 0.0000 -0.0100
v 0.0000 0.0000 -0.0100
v 0.0000 0.0000 -0.0100
v 0.0000 0.0000 -0.0100
v 0.0000 0.0000 -0.0100
v 0.0000 0.0000 -0.0100
v 0.0000 0.0000 -0.0100
v 0.0000 0.0000 -0.0100
v 0.0000 0.0000 -0.0100
v 0.0000 0.0000 -0.0100
v 0.0000 0.0000 -0.0100
v 0.0000 0.0000 -0.0100
v 0.0000 0.0000 -0.0100
v 0.0000 0.0000 -0.0100
v 0.0000 0.0000 -0.0100
v 0.0000 0.0000 -0.0100
v 0.0000 0.0000 -0.0100
v 0.0000 0.0000 -0.0100
v 0.0000 0.0000 -0.0100
v 0.0000 0.0000 -0.0100
v 0.0000 0.0000 -0.0100
v 0.0000 0.0000 -0.0100
v 0.0000 0.0000 -0.0100
v 0.0000 0.0000 -2.5800
v 10.2400 0.0000 -2.5800
v 10.2400 10.2400 -2.5800
v 0.0000 10.2400 -2.5800
v 0.0000 10.2400 -2.5800
v 0.0000 0.0000 -2.5800
v 10.2400 0.0000 -2.5800
v 10.2400 10.2400 -2.5800
v 10.2400 0.0000 -2.5800
v 10.2400 10.2400 -2.5800
v 0.0000 10.2400 -2.5800
v 0.0000 0.0000 -2.5800
v 10.2400 10.2400 -2.5800
v 0.0000 10.2400 -2.5800
v 0.0000 0.0000 -2.5800
v 10.2400 0.0000 -2.5800
v 10.2400 0.0000 -2.5800
v 10.2400 10.2400 -2.5800
v 0.0000 10.2400 -2.5800
v 0.0000 0.0000 -2.5800
v 10.2400 0.0000 -2.5800
v 10.2400 10.2400 -2.5800
v 0.0000 10.2400 -2.5800
v 0.0000 0.0000 -2.5800
v 0.0000 0.0000 -2.5800
v 10.2400 0.0000 -2.5800
v 10.2400 10.2400 -2.5800
v 0.0000 10.2400 -2.5800
v 0.0000 0.0000 -2.5800
v 10.2400 0.0000 -2.5800
v 10.2400 10.2400 -2.5800
v 0.0000 10.2400 -2.5800
v -28.0000 0.0000 17.9200
v -33.2800 0.0000 18.2300
v -28.1600 2.5600 15.3600
v -7.5200 0.0000 0.6400
v 15.4800 20.5800 0.1200
v -7.5200 0.0000 0.6400
v -28.0800 11.5200 2.6500
v -28.0800 6.7200 5.2000
v -28.0800 6.8000 7.7600
v 2.5800 0.6400 2.5600
v -7.5200 0.0000 0.6400
v -7.5200 0.0000 0.6400
v -7.5200 0.0000 0.0000
v -33.2800 0.0000 18.3400
vt 0.0000 0.0000
vt -0.0146 -0.0137
vt -0.0342 0.0000
vt -0.0566 -0.0312
vt -0.0566 -0.0312
vt -0.0342 0.0000
vt -0.0146 -0.0137
vt -0.0381 -0.0449
vt -0.0342 -0.0205
vt -0.0371 -0.0195
vt -0.0361 -0.0225
vt -0.0332 -0.0225
vt -0.0352 -0.0244
vt -0.0371 -0.0244
vt -0.0381 -0.0215
vt -0.0332 -0.0186
vt -0.0381 -0.0176
vt -0.0312 -0.0225
vt -0.0342 -0.0264
vt -0.0391 -0.0264
vt -0.0410 -0.0215
vt -0.0303 -0.0146
vt -0.0400 -0.0137
vt -0.0361 -0.0225
vt -0.0264 -0.0234
vt -0.0322 -0.0312
vt -0.0420 -0.0303
vt -0.0459 -0.0215
vt -0.0293 -0.0137
vt -0.0400 -0.0117
vt -0.0244 -0.0234
vt -0.0312 -0.0322
vt -0.0420 -0.0312
vt -0.0312 -0.0322
vt -0.0322 -0.0312
vt -0.0420 -0.0303
vt -0.0469 -0.0215
vt -0.0459 -0.0215
vt -0.0400 -0.0117
vt -0.0400 -0.0137
vt -0.0381 -0.0449
vt -0.0146 -0.0137
vt -0.0146 -0.0137
vt -0.0381 -0.0449
vt -0.0342 0.0000
vt -0.0342 0.0000
vt -0.0566 -0.0312
vt -0.0566 -0.0312
vt -0.0146 -0.0137
vt -0.0146 -0.0137
vt -0.0381 -0.0449
vt -0.0381 -0.0449
vt -0.0566 -0.0312
vt -0.0342 0.0000
vt -0.0342 0.0000
vt -0.0566 -0.0312
vt -0.0342 0.0000
vt -0.0342 0.0000
vt -0.0146 -0.0137
vt -0.0146 -0.0137
vt -0.0381 -0.0449
vt -0.0381 -0.0449
vt -0.0566 -0.0312
vt -0.0566 -0.0312
vt -0.0146 -0.0137
vt -0.0342 0.0000
vt -0.0342 0.0000
vt -0.0146 -0.0137
vt -0.0566 -0.0312
vt -0.0381 -0.0449
vt -0.0381 -0.0449
vt -0.0566 -0.0312
vt 0.0000 1.1562
vt -6.5000 0.0000
vt -6.2500 0.0000
vt -6.5000 0.0000
vt -4.0000 0.0000
vt -9.5049 -0.0010
vt -4.0000 0.0000
vt -3.5000 8.0020
vt -3.5000 8.0020
vt -3.5000 8.0020
vt 4.5234 -27.8379
vt -4.0000 0.0000
vt -4.0000 0.0000
vt -6.5000 0.0000
vt -6.2500 0.0000
f 32/32 31/31 25/25
f 32/32 25/25 26/26
f 7/7 5/5 6/6
f 7/7 6/6 8/8
