mtllib assets09_model_131.mtl
# Conker's Bad Fur Day — Real 3D Model (Multiplayer Level Models)
o assets09_model_131
usemtl assets09_model_131_mat

v 0.0000 21.3600 0.0000
v 0.2300 3.4100 -0.0100
v 0.2300 1.7300 -0.0100
v 4.8800 3.4300 -0.0100
v 4.8900 1.7400 -0.0100
v 4.8600 3.4300 -0.0100
v 0.2000 3.3600 -0.0100
v 0.1800 1.6900 -0.0100
v 4.8400 1.7600 -0.0100
v 4.8700 3.4000 -0.0100
v 0.2700 3.3500 -0.0100
v 0.3200 1.6800 -0.0100
v 4.9200 1.7300 -0.0100
v 2.5500 5.1100 -0.0100
v 2.5500 5.0700 -0.0100
v 2.5100 5.0500 -0.0100
v 2.5700 0.0500 -0.0100
v 2.4800 0.0500 -0.0100
v 2.6800 0.0300 -0.0100
v 4.8700 3.4400 -0.0100
v 0.2400 3.3900 -0.0100
v 0.2300 1.7400 -0.0100
v 4.8500 1.7900 -0.0100
v 4.7900 3.4000 -0.0100
v 0.3000 3.3900 -0.0100
v 0.2900 1.7200 -0.0100
v 4.7700 1.7400 -0.0100
v 4.8000 3.4000 -0.0100
v 0.3300 3.4000 -0.0100
v 0.3100 1.7500 -0.0100
v 4.7800 1.7500 -0.0100
v 2.5700 5.0700 -0.0100
v 2.5600 5.0700 -0.0100
v 4.8000 3.4000 -0.0100
v 2.5900 5.0500 -0.0100
v 0.3300 3.4000 -0.0100
v 4.8500 1.7900 -0.0100
v 0.2300 1.7400 -0.0100
v 2.5200 0.1100 -0.0100
v 0.2900 1.7200 -0.0100
v 2.5100 0.0600 -0.0100
v 4.7700 1.7400 -0.0100
v 0.3100 1.7500 -0.0100
v 2.5200 0.1000 -0.0100
v 4.7800 1.7500 -0.0100
v 0.2300 3.4100 -0.0100
v 0.2300 1.7300 -0.0100
v 4.8800 3.4300 -0.0100
v 4.8900 1.7400 -0.0100
v 4.8600 3.4300 -0.0100
v 0.2000 3.3600 -0.0100
v 0.1800 1.6900 -0.0100
v 4.8400 1.7600 -0.0100
v 4.8700 3.4000 -0.0100
v 0.2700 3.3500 -0.0100
v 0.3200 1.6800 -0.0100
v 4.9200 1.7300 -0.0100
v 2.5500 5.1100 -0.0100
v 2.5500 5.0700 -0.0100
v 2.5100 5.0500 -0.0100
v 2.5700 0.0500 -0.0100
v 2.4800 0.0500 -0.0100
v 2.6800 0.0300 -0.0100
v 4.8700 3.4400 -0.0100
v 0.2400 3.3900 -0.0100
v 0.2300 1.7400 -0.0100
v 4.8500 1.7900 -0.0100
v 4.7900 3.4000 -0.0100
v 0.3000 3.3900 -0.0100
v 0.2900 1.7200 -0.0100
v 4.7700 1.7400 -0.0100
v 4.8000 3.4000 -0.0100
v 0.3300 3.4000 -0.0100
v 0.3100 1.7500 -0.0100
v 4.7800 1.7500 -0.0100
v 2.5700 5.0700 -0.0100
v 2.5600 5.0700 -0.0100
v 4.8000 3.4000 -0.0100
v 2.5900 5.0500 -0.0100
v 0.3300 3.4000 -0.0100
v 4.8500 1.7900 -0.0100
v 0.2300 1.7400 -0.0100
v 2.5200 0.1100 -0.0100
v 0.2900 1.7200 -0.0100
v 2.5100 0.0600 -0.0100
v 4.7700 1.7400 -0.0100
v 0.3100 1.7500 -0.0100
v 2.5200 0.1000 -0.0100
v 4.7800 1.7500 -0.0100
v 0.2300 3.4100 -0.0100
v 0.2300 1.7300 -0.0100
v 4.8800 3.4300 -0.0100
v 4.8900 1.7400 -0.0100
v 4.8600 3.4300 -0.0100
v 0.2000 3.3600 -0.0100
v 0.1800 1.6900 -0.0100
v 4.8400 1.7600 -0.0100
v 4.8700 3.4000 -0.0100
v 0.2700 3.3500 -0.0100
v 0.3200 1.6800 -0.0100
v 4.9200 1.7300 -0.0100
v 2.5500 5.1100 -0.0100
v 2.5500 5.0700 -0.0100
v 2.5100 5.0500 -0.0100
v 2.5700 0.0500 -0.0100
v 2.4800 0.0500 -0.0100
v 2.6800 0.0300 -0.0100
v 4.8700 3.4400 -0.0100
v 0.2400 3.3900 -0.0100
v 0.2300 1.7400 -0.0100
v 4.8500 1.7900 -0.0100
v 4.7900 3.4000 -0.0100
v 0.3000 3.3900 -0.0100
v 0.2900 1.7200 -0.0100
v 4.7700 1.7400 -0.0100
v 4.8000 3.4000 -0.0100
v 0.3300 3.4000 -0.0100
v 0.3100 1.7500 -0.0100
v 4.7800 1.7500 -0.0100
v 2.5700 5.0700 -0.0100
v 2.5600 5.0700 -0.0100
v 4.8000 3.4000 -0.0100
v 2.5900 5.0500 -0.0100
v 0.3300 3.4000 -0.0100
v 4.8500 1.7900 -0.0100
v 0.2300 1.7400 -0.0100
v 2.5200 0.1100 -0.0100
v 0.2900 1.7200 -0.0100
v 2.5100 0.0600 -0.0100
v 4.7700 1.7400 -0.0100
v 0.3100 1.7500 -0.0100
v 2.5200 0.1000 -0.0100
v 4.7800 1.7500 -0.0100
v -28.0000 0.0000 17.9200
v -33.2800 0.0000 17.9900
v -28.1600 2.5600 15.3600
v -7.5200 0.0000 0.6400
v 2.5800 0.6400 2.5600
v -7.5200 0.0000 0.6400
v -7.5200 0.0000 0.6400
v -7.5200 0.0000 0.0000
v -33.2800 0.0000 17.9900
v -7.5200 0.0000 0.0000
v -33.2800 0.0000 17.9900
v 2.5800 0.6400 2.5600
v -7.5200 0.0000 0.6400
vt 0.0000 2.0898
vt -0.0098 -0.0117
vt 0.0049 -0.0078
vt -0.0078 -0.0049
vt 0.0098 0.0117
vt 0.0078 0.0049
vt -0.0049 0.0078
vt -0.0029 0.0146
vt 0.0049 -0.0078
vt 0.0078 0.0049
vt -0.0049 0.0078
vt -0.0078 -0.0049
vt 0.0127 -0.0039
vt 0.0127 -0.0039
vt 0.0127 -0.0039
vt -0.0127 0.0039
vt -0.0127 0.0039
vt -0.0127 0.0039
vt 0.0078 0.0049
vt 0.0049 -0.0078
vt -0.0078 -0.0049
vt -0.0049 0.0078
vt 0.0078 0.0049
vt 0.0098 0.0117
vt -0.0029 0.0146
vt -0.0049 0.0078
vt 0.0029 -0.0146
vt 0.0049 -0.0078
vt -0.0078 -0.0049
vt -0.0098 -0.0117
vt 0.0127 -0.0039
vt 0.0127 -0.0039
vt 0.0029 -0.0146
vt 0.0127 -0.0039
vt 0.0049 -0.0078
vt -0.0049 0.0078
vt -0.0078 -0.0049
vt -0.0127 0.0039
vt -0.0029 0.0146
vt -0.0127 0.0039
vt -0.0049 0.0078
vt -0.0078 -0.0049
vt -0.0127 0.0039
vt -0.0098 -0.0117
vt 0.0098 -0.0117
vt 0.0020 -0.0117
vt 0.0146 0.0000
vt 0.0078 0.0000
vt -0.0020 0.0117
vt 0.0098 0.0117
vt 0.0020 0.0117
vt -0.0098 0.0117
vt -0.0020 -0.0117
vt -0.0078 0.0000
vt -0.0146 0.0000
vt -0.0098 -0.0117
vt 0.0078 0.0000
vt 0.0078 0.0000
vt 0.0078 0.0000
vt -0.0078 0.0000
vt -0.0078 0.0000
vt -0.0078 0.0000
vt 0.0098 0.0117
vt 0.0146 0.0000
vt 0.0078 0.0000
vt 0.0020 0.0117
vt -0.0078 0.0000
vt -0.0020 0.0117
vt -0.0098 0.0117
vt -0.0146 0.0000
vt 0.0098 -0.0117
vt -0.0020 -0.0117
vt -0.0098 -0.0117
vt 0.0020 -0.0117
vt 0.0078 0.0000
vt 0.0078 0.0000
vt 0.0098 -0.0117
vt 0.0078 0.0000
vt -0.0020 -0.0117
vt 0.0020 0.0117
vt 0.0078 0.0000
vt -0.0078 0.0000
vt -0.0098 0.0117
vt -0.0078 0.0000
vt -0.0146 0.0000
vt -0.0098 -0.0117
vt -0.0078 0.0000
vt 0.0020 -0.0117
vt 0.0020 -0.0107
vt -0.0098 -0.0107
vt -0.0010 0.0020
vt -0.0127 0.0020
vt 0.0098 0.0107
vt 0.0039 0.0127
vt -0.0078 0.0127
vt -0.0020 0.0107
vt 0.0078 -0.0127
vt 0.0127 -0.0020
vt 0.0010 -0.0020
vt -0.0039 -0.0127
vt 0.0117 0.0000
vt 0.0117 0.0000
vt 0.0117 0.0000
vt -0.0117 0.0000
vt -0.0117 0.0000
vt -0.0117 0.0000
vt 0.0039 0.0127
vt -0.0010 0.0020
vt -0.0127 0.0020
vt -0.0078 0.0127
vt 0.0127 -0.0020
vt 0.0098 0.0107
vt -0.0020 0.0107
vt 0.0010 -0.0020
vt 0.0020 -0.0107
vt 0.0078 -0.0127
vt -0.0039 -0.0127
vt -0.0098 -0.0107
vt 0.0117 0.0000
vt 0.0117 0.0000
vt 0.0020 -0.0107
vt 0.0117 0.0000
vt 0.0078 -0.0127
vt -0.0078 0.0127
vt -0.0127 0.0020
vt -0.0117 0.0000
vt -0.0020 0.0107
vt -0.0117 0.0000
vt 0.0010 -0.0020
vt -0.0039 -0.0127
vt -0.0117 0.0000
vt -0.0098 -0.0107
vt 0.0000 2.1562
vt -6.5000 0.0000
vt -6.2500 0.0000
vt -6.5000 0.0000
vt -4.0000 0.0000
vt 4.5234 -27.8379
vt -4.0000 0.0000
vt -4.0000 0.0000
vt -6.5000 0.0000
vt -6.2500 0.0000
vt -6.5000 0.0000
vt -6.2500 0.0000
vt 4.5234 -27.8379
vt -4.0000 0.0000
f 1/1 2/2 3/3
f 4/4 5/5 6/6
f 7/7 8/8 9/9
f 10/10 11/11 12/12
f 13/13 14/14 15/15
f 16/16 17/17 18/18
f 19/19 20/20 21/21
f 22/22 23/23 24/24
f 25/25 26/26 27/27
f 28/28 29/29 30/30
f 31/31 32/32 33/33
f 34/34 35/35 36/36
f 37/37 38/38 39/39
f 40/40 41/41 42/42
f 43/43 44/44 45/45
f 46/46 47/47 48/48
f 49/49 50/50 51/51
f 52/52 53/53 54/54
f 55/55 56/56 57/57
f 58/58 59/59 60/60
f 61/61 62/62 63/63
f 64/64 65/65 66/66
f 67/67 68/68 69/69
f 70/70 71/71 72/72
f 73/73 74/74 75/75
f 76/76 77/77 78/78
f 79/79 80/80 81/81
f 82/82 83/83 84/84
f 85/85 86/86 87/87
f 88/88 89/89 90/90
f 91/91 92/92 93/93
f 94/94 95/95 96/96
f 97/97 98/98 99/99
f 100/100 101/101 102/102
f 103/103 104/104 105/105
f 106/106 107/107 108/108
f 109/109 110/110 111/111
f 112/112 113/113 114/114
f 115/115 116/116 117/117
f 118/118 119/119 120/120
f 121/121 122/122 123/123
f 124/124 125/125 126/126
f 127/127 128/128 129/129
f 130/130 131/131 132/132
f 133/133 134/134 135/135
f 136/136 137/137 138/138
f 139/139 140/140 141/141
f 142/142 143/143 144/144
