# Conker's Bad Fur Day — Real 3D Model (Spooky Models)
o assets10_model_060

v 0.0000 5.3600 0.0000
v 0.0000 6.4000 0.0000
v 0.0000 7.7600 0.0000
v 0.0000 8.6400 0.0000
v 0.0000 8.9600 0.0000
v 0.0000 9.2800 0.0000
v 0.0000 9.6000 0.0000
v 0.0000 10.3200 0.0000
v 0.0000 12.5600 0.0000
v 0.0000 15.0400 0.0000
v 0.0000 16.4800 0.0000
v 0.0000 17.6000 0.0000
v 0.0000 18.4000 0.0000
v 0.0000 19.3600 0.0000
v 0.0000 20.1600 0.0000
v 0.0000 20.9600 0.0000
v 0.0000 21.7600 0.0000
v 0.0000 22.6400 0.0000
v 0.0000 23.2000 0.0000
v 0.0000 23.7600 0.0000
v 0.0000 26.0800 0.0000
v 0.0000 27.2800 0.0000
v 0.0000 27.6000 0.0000
v 0.0000 28.4000 0.0000
v 0.0000 29.2800 0.0000
v 0.0000 30.1600 0.0000
v 0.0000 30.4800 0.0000
v 0.0000 31.5200 0.0000
v 0.0000 32.4800 0.0000
v 0.0000 33.6800 0.0000
v 0.0000 36.3200 0.0000
v 0.0000 37.8400 0.0000
v 0.0000 38.1600 0.0000
v 0.0000 38.4800 0.0000
v 22.5500 1.0100 6.0900
v 23.5700 1.1100 -10.4300
v 23.1500 1.0500 -5.1200
v 22.8200 1.0100 6.2300
v 22.6600 0.9900 1.9100
v 0.6600 15.2500 -3.3900
v -6.0200 10.6100 -15.2000
v -26.1700 -9.5300 4.6800
v -35.3000 -9.5300 11.0900
v -26.5100 -9.5300 -5.2100
v -27.5800 -9.5300 -3.6000
v -34.0700 -9.5300 12.6200
v -0.0600 -0.6500 29.4800
v 3.6600 -0.6500 27.8200
v -19.8200 4.5500 -9.6000
v -32.3000 1.4500 -3.2600
v -36.3700 0.4000 -4.1500
v -20.2700 4.8000 17.5900
v -29.3000 3.9000 15.1500
v -33.9700 1.0500 9.2500
v -27.6600 -9.5300 12.7800
v -26.3700 -9.5300 -3.4200
v -33.2100 -9.5300 10.5800
v -24.5800 -9.5300 -5.0300
v -34.7400 -9.5300 11.7300
v -26.7500 -9.5300 20.8500
v -25.1200 -9.5300 13.1600
v -21.4700 -9.4200 39.2800
v -25.2800 -9.5000 38.9100
v -6.8400 -9.5300 35.2700
v 13.4600 -9.5300 34.8200
v 26.7200 -9.4600 32.1500
v 25.2300 -9.5300 37.6300
v 35.3700 -8.8500 31.3500
v 24.2300 -9.5300 37.9600
v 32.0000 -9.2500 33.5400
v -3.2400 -6.8400 -37.3500
v -0.7200 -6.9000 -37.5500
v 17.1300 1.1900 33.8100
v 22.1800 1.0100 6.0900
vt 0.0000 0.5391
vt 0.0000 0.7422
vt 0.0000 0.8281
vt 0.0000 0.8594
vt 0.0000 0.8906
vt 0.0000 0.9219
vt 0.0000 0.9531
vt 0.0000 1.1172
vt 0.0000 1.3438
vt 0.0000 1.5625
vt 0.0000 1.6641
vt 0.0000 1.7578
vt 0.0000 1.8594
vt 0.0000 1.9297
vt 0.0000 2.0078
vt 0.0000 2.0859
vt 0.0000 2.1641
vt 0.0000 2.2500
vt 0.0000 2.2812
vt 0.0000 2.4141
vt 0.0000 2.6484
vt 0.0000 2.6797
vt 0.0000 2.7578
vt 0.0000 2.8438
vt 0.0000 2.9297
vt 0.0000 2.9609
vt 0.0000 3.0391
vt 0.0000 3.1562
vt 0.0000 3.1875
vt 0.0000 3.4453
vt 0.0000 3.6797
vt 0.0000 3.7109
vt 0.0000 3.7422
vt 0.0000 0.0000
vt 2.4062 0.1035
vt 2.3906 0.1055
vt 2.3633 0.1016
vt 2.4521 0.1035
vt 2.5820 0.1025
vt 0.0645 1.4893
vt -0.5879 1.0361
vt -2.7773 -0.9307
vt -3.2578 -0.9307
vt -2.7100 -0.9307
vt -4.0518 -0.9307
vt -2.7363 -0.9307
vt -0.3740 -0.0635
vt -0.0088 -0.0635
vt -1.9580 0.4834
vt -3.0381 0.0342
vt -5.0947 0.4932
vt -1.9795 0.4736
vt -2.6143 0.1611
vt -2.7012 -0.9307
vt -2.3818 -0.9307
vt -3.2725 -0.9307
vt -2.4004 -0.9307
vt -2.7900 -0.9307
vt -3.4355 -0.9307
vt -2.6123 -0.9307
vt -2.4531 -0.9307
vt -2.0967 -0.9199
vt -2.8369 -0.9307
vt -1.0762 -0.9307
vt 0.5967 -0.9307
vt 3.1084 -0.8926
vt 2.7861 -0.9307
vt 2.8906 -0.9307
vt 2.3613 -0.9307
vt 2.7920 -0.9307
vt -0.1816 -0.6973
vt 0.2471 -0.6953
vt -1.5371 -0.9307
vt 1.5605 -0.9307
f 65/65 1/1 1/1
f 27/27 1/1 1/1
f 27/27 1/1 1/1
f 19/19 1/1 1/1
f 19/19 1/1 1/1
f 19/19 1/1 1/1
f 19/19 1/1 1/1
