mtllib assets0A_model_012.mtl
# Conker's Bad Fur Day — Real 3D Model (Bat's Tower Level Models)
o assets0A_model_012
usemtl assets0A_model_012_mat

v 0.0000 0.6400 0.0000
v 0.0000 4.4800 0.0000
v 0.0000 6.6400 0.0000
v 0.0000 7.5200 0.0000
v 0.1400 0.1300 0.6600
v 26.9700 0.0000 0.0000
v 0.0000 1.9300 0.0000
v 0.0000 0.0000 3.5800
v -4.2200 0.0000 0.0000
v 0.0000 0.0000 -20.0300
v -15.4000 0.0000 0.0000
v 0.0000 24.8900 0.0000
v -0.5300 0.0000 0.0000
v 0.0000 -15.4000 0.0000
v 0.0000 0.0000 22.3900
v 0.1400 0.0400 0.4600
v 26.8900 0.0000 0.0000
v -1.2600 0.0000 0.0000
v -1.2600 0.0000 0.0000
v -1.2600 0.0000 -2.8800
v -1.2600 0.0000 -2.8800
v -1.2600 0.0000 -2.8800
v -1.2600 0.0000 0.0000
v -20.2500 0.0000 0.0000
v 0.0000 8.7300 0.0000
v 0.0000 0.0000 -20.2500
v 8.7300 0.0000 0.0000
v 7.6800 0.0000 0.0000
v -7.5400 -19.7700 -1.8000
v 26.9700 0.0000 0.0000
v -20.2500 0.0000 0.0000
v 0.0000 8.7300 0.0000
v 0.0000 0.0000 8.7300
v 0.0000 -20.2500 0.0000
v -0.0200 0.0000 22.3900
v 8.7900 -0.0200 0.0000
v 0.0000 -0.5300 0.0000
v 0.0000 0.0000 -15.4000
v 22.3900 0.0000 0.0000
v 0.0000 0.0000 -0.0100
v 0.0000 0.0000 -20.2500
v -15.4000 0.0000 0.0000
v 0.0000 0.0100 0.0800
v -20.2500 0.0000 0.0000
v 0.0000 8.7300 -0.0300
v 0.0200 0.0000 8.8000
v -1.5100 -6.9200 0.5300
v 0.1600 0.0000 13.9400
v 7.6600 0.1000 0.0000
v -0.0600 -1.4000 0.0400
v 2.3300 0.0000 -4.8400
v 5.1800 0.0000 0.0000
v 0.0000 0.0000 0.1000
v 0.0800 7.4100 19.5500
v 1.3400 -2.1400 2.3700
v 0.0000 -0.1100 -0.6700
v 8.4600 4.6800 -2.2300
v 2.5700 8.4900 1.0900
v 0.1000 0.0000 10.3700
v 0.6400 2.4700 1.5000
v 1.0800 0.0000 2.9800
v 4.3300 3.5100 0.0000
v 0.1000 0.0900 -0.0800
v -0.1600 0.0000 -0.1900
v -0.4600 0.0000 0.0000
v 0.0000 0.0000 -0.0100
v -0.3400 0.0000 0.0000
v 0.0000 0.0000 1.0600
v 1.0600 0.0000 0.0000
v 0.0000 2.1300 0.0000
v 1.6300 0.0000 -1.1900
v -1.1800 0.0000 0.0000
v 0.0000 0.0000 1.0600
v 1.0600 0.0000 0.0000
v 0.0000 2.1300 0.0000
v 0.0800 0.0000 0.3800
vt 0.0000 0.1797
vt 0.0000 0.5547
vt 0.0000 0.7344
vt 0.0000 0.8516
vt 0.7500 -10.1719
vt 10.8828 0.0000
vt 0.1885 0.0000
vt 0.0000 -0.4121
vt 0.0000 23.0020
vt 0.0000 -1.9561
vt 0.0000 0.0000
vt 0.9463 0.0000
vt 0.0000 0.0000
vt 0.0000 0.0000
vt 0.0000 0.8525
vt 0.7500 -10.6719
vt 13.8770 0.0000
vt 13.8770 0.0000
vt 16.0020 0.0000
vt 20.7520 0.0000
vt 20.7520 0.0000
vt 20.7520 0.0000
vt 0.0000 -0.0518
vt 0.0000 0.0000
vt 2.1865 0.0000
vt 0.0000 -1.5039
vt 0.0000 0.0000
vt 0.0000 0.0000
vt 0.7500 -10.6328
vt 13.8818 0.0000
vt 0.0000 0.0000
vt 2.1865 0.0000
vt 0.0000 0.0000
vt -1.5039 0.0000
vt 0.0000 0.0000
vt 0.0000 -15.9375
vt -1.9775 0.0000
vt 0.0000 0.8525
vt 0.0059 0.0000
vt 1.0000 -25.9961
vt 0.0000 -1.9775
vt -0.0078 0.0000
vt 0.8730 -0.0088
vt 0.0000 0.0000
vt 2.1865 0.0000
vt 0.0000 0.0000
vt -1.1982 -0.0273
vt 0.0000 -0.0039
vt 0.0029 -15.9375
vt 2.2002 0.4102
vt 0.1309 0.8164
vt -0.0781 0.0000
vt -19.1016 30.6523
vt -0.3779 1.8525
vt 0.0840 0.0000
vt 1.1299 0.0645
vt 0.4795 0.0000
vt 0.9023 0.0000
vt 0.0000 0.0000
vt 0.1328 -0.0684
vt 0.0000 0.0068
vt 0.0186 -15.8105
vt -0.0264 -0.0225
vt -0.0117 -0.0264
vt -0.0029 0.0000
vt -30.2656 1.6738
vt 0.0000 0.0000
vt 0.0000 0.0000
vt 0.0000 0.0000
vt 0.0000 6.6670
vt 0.0000 0.0000
vt 0.0000 0.0000
vt 0.0000 0.0000
vt 0.0000 0.0000
vt 0.0000 -13.1826
vt 0.0000 0.0000
f 1/1 2/2 3/3
f 4/4 5/5 6/6
f 7/7 8/8 9/9
f 10/10 11/11 12/12
f 13/13 14/14 15/15
f 16/16 17/17 18/18
f 19/19 20/20 21/21
f 22/22 23/23 24/24
f 25/25 26/26 27/27
f 28/28 29/29 30/30
f 31/31 32/32 33/33
f 34/34 35/35 36/36
f 37/37 38/38 39/39
f 40/40 41/41 42/42
f 43/43 44/44 45/45
f 46/46 47/47 48/48
f 49/49 50/50 51/51
f 52/52 53/53 54/54
f 55/55 56/56 57/57
f 58/58 59/59 60/60
f 61/61 62/62 63/63
f 64/64 65/65 66/66
f 67/67 68/68 69/69
f 70/70 71/71 72/72
f 73/73 74/74 75/75
