# Conker's Bad Fur Day — Real 3D Model (Multiplayer Level Models)
o assets09_model_175

v 0.0000 0.3200 0.0000
v 0.0000 1.6000 0.0000
v 0.0000 0.0000 0.1600
v -0.4900 0.0000 0.0000
v 0.0000 0.0000 -0.1600
v 0.4900 0.0000 0.0000
v 0.0000 0.0000 0.1600
v -0.4900 0.0000 0.0000
v 0.0000 0.0000 -0.1600
v 0.4900 0.0000 0.0000
v -7.4400 0.0000 0.0000
v -33.2800 0.0000 18.5500
v 12.8000 5.1600 0.0000
vt 0.0000 0.0938
vt 0.0000 0.2578
vt 1.0049 1.2197
vt -1.5498 0.5410
vt 0.9961 -0.1367
vt -1.5498 0.5410
vt 1.0049 1.2197
vt -1.5498 0.5410
vt 0.9961 -0.1367
vt -1.5498 0.5410
vt -2.7266 0.0000
vt -2.7266 4.0000
vt 1.2539 1.5000
f 1/1 2/2 3/3
f 3/3 4/4 1/1
