mtllib assets09_model_166.mtl
# Conker's Bad Fur Day — Real 3D Model (Multiplayer Level Models)
o assets09_model_166
usemtl assets09_model_166_mat

v 0.0000 14.6400 0.0000
v 0.0000 0.0000 -0.0100
v 0.0000 0.0000 -0.0100
v 0.0000 0.0000 -0.0100
v 0.0000 0.0000 -0.0100
v 0.0000 0.0000 -0.0100
v 0.0000 0.0000 -0.0100
v 0.0000 0.0000 -0.0100
v 0.0000 0.0000 -0.0100
v 0.0000 0.0000 -0.0100
v 0.0000 0.0000 -0.0100
v 0.0000 0.0000 -0.0100
v 0.0000 0.0000 -0.0100
v 0.0000 0.0000 -0.0100
v 0.0000 0.0000 -0.0100
v 0.0000 0.0000 -0.0100
v 0.0000 0.0000 -0.0100
v 0.0000 0.0000 -0.0100
v 0.0000 0.0000 -0.0100
v 0.0000 0.0000 -0.0100
v 0.0000 0.0000 -0.0100
v 0.0000 0.0000 -0.0100
v 0.0000 0.0000 -0.0100
v 0.0000 0.0000 -0.0100
v 0.0000 0.0000 -0.0100
v 0.0000 0.0000 -0.0100
v 0.0000 0.0000 -0.0100
v 0.0000 0.0000 -0.0100
v 0.0000 0.0000 -0.0100
v 0.0000 0.0000 -0.0100
v 0.0000 0.0000 -0.0100
v 0.0000 0.0000 -0.0100
v 0.0000 0.0000 -0.0100
v 0.0000 0.0000 -0.0100
v 0.0000 0.0000 -0.0100
v -28.0000 0.0000 17.9200
v -7.4400 0.0000 0.0000
v -33.2800 0.0000 18.0700
v -7.4400 0.0000 0.0000
vt 0.0000 0.0000
vt 0.0000 -0.0020
vt 0.0000 0.0059
vt -0.0088 0.0059
vt 0.0000 -0.0020
vt -0.0049 -0.0020
vt 0.0000 0.0059
vt -0.0088 0.0059
vt 0.0000 0.0146
vt 0.0000 0.0225
vt -0.0117 0.0059
vt 0.0000 0.0059
vt 0.0088 0.0059
vt 0.0117 0.0059
vt 0.0088 0.0059
vt 0.0000 0.0059
vt -0.0088 0.0059
vt -0.0049 -0.0020
vt -0.0059 -0.0020
vt 0.0049 -0.0020
vt 0.0000 -0.0020
vt 0.0059 -0.0020
vt 0.0049 -0.0020
vt 0.0000 -0.0020
vt -0.0117 0.0059
vt -0.0049 -0.0020
vt -0.0088 0.0059
vt -0.0059 -0.0020
vt -0.0049 -0.0020
vt -0.0039 -0.0088
vt 0.0000 -0.0088
vt 0.0059 -0.0020
vt 0.0039 -0.0088
vt 0.0000 -0.0020
vt 0.0000 -0.0088
vt -3.2500 0.0000
vt -2.7266 0.0000
vt -2.7266 2.0000
vt -3.2500 0.0000
f 24/24 31/31 23/23
f 32/32 31/31 24/24
f 6/6 2/2 4/4
f 6/6 18/18 2/2
f 19/19 20/20 21/21
f 21/21 20/20 22/22
f 23/23 24/24 25/25
f 23/23 25/25 26/26
