# Conker's Bad Fur Day — Real 3D Model (Multiplayer Level Models)
o assets09_model_210

v 0.0000 3.9200 0.0000
v 0.0000 0.0000 -0.0100
v 0.0000 0.0000 -0.0100
v 0.0000 0.0000 -0.0100
v 0.0000 0.0000 -0.0100
v 0.0000 0.0000 -0.0100
v 0.0000 0.0000 -0.0100
v 0.0000 0.0000 -0.0100
v 0.0000 0.0000 -0.0100
v 0.0000 0.0000 -0.0100
v 0.0000 0.0000 -0.0100
v 0.0000 0.0000 -0.0100
v 0.0000 0.0000 -0.0100
v 0.0000 0.0000 -0.0100
v 0.0000 0.0000 -0.0100
v -27.3600 0.0000 17.9200
v -27.5200 10.2400 0.0100
v -27.5200 6.4000 2.5700
v -27.5200 6.7200 5.1300
v -27.5200 6.8800 7.6800
v -27.5200 6.9600 10.2400
v -7.5200 0.0000 1.2800
vt 0.0000 0.0000
vt 0.0029 -0.0527
vt 0.0029 -0.0527
vt -0.0029 -0.0527
vt 0.0000 -0.0693
vt -0.0107 -0.0693
vt -0.0107 -0.0547
vt 0.0000 -0.0547
vt 0.0000 -0.0693
vt 0.0000 -0.0547
vt 0.0098 -0.0693
vt 0.0098 -0.0547
vt 0.0000 -0.0752
vt 0.0000 -0.0488
vt -0.0029 -0.0527
vt -3.2500 0.0000
vt -3.4375 9.0020
vt -3.4688 8.5020
vt -3.4844 8.2520
vt -3.4922 8.1270
vt -3.4961 8.0645
vt -2.6562 0.2500
f 10/10 12/12 14/14
f 12/12 8/8 14/14
