# Conker's Bad Fur Day — Real 3D Model (Windy Level Models)
o assets0B_model_000

v -9.7100 1.9100 -15.6300
v 0.0000 0.0900 0.0000
v 0.0000 5.1100 0.0000
v 0.0000 0.0000 -15.6300
v 0.0000 0.0200 0.0000
v 10.2400 0.0000 0.0000
v 0.0000 0.0400 10.2400
v -3.4600 0.0000 2.7000
v 2.5600 0.0000 0.0000
v 27.9900 1.0000 0.0000
v 0.0000 0.0400 0.0000
v 0.0000 5.0700 2.5600
v 0.0000 0.0000 -4.2400
v 0.0000 0.0200 0.0000
v 10.2400 0.0000 0.0000
v 0.4500 0.0000 0.0000
v 0.0000 0.0300 10.2400
v 18.7700 0.0000 2.2500
v 0.0000 0.2300 0.0000
v -18.8500 0.6500 18.5900
v 0.0000 0.0500 0.0000
v 0.0000 5.0300 0.0000
v 0.0000 0.0000 18.3200
v 0.0000 0.0200 0.0000
v 10.2400 0.0000 0.0000
v -10.2400 0.0000 0.0000
v -16.8300 0.0000 0.0000
v 2.5600 0.0000 0.0000
v 0.0000 0.1500 0.0000
v 0.0000 4.9900 0.0000
vt 0.0000 0.0000
vt 0.0000 0.0000
vt 0.0000 12.0039
vt 0.9482 0.0000
vt 0.0000 0.0547
vt 1.4805 0.1865
vt 0.0000 0.0000
vt 0.0000 0.0020
vt 1.0000 0.0000
vt 0.2637 0.0000
vt 0.0000 0.0000
vt 0.0000 0.0039
vt 1.5303 0.0000
vt 0.0000 0.0723
vt -1.8066 0.0635
vt 0.0000 0.0049
vt 0.0000 0.0000
vt 0.0000 0.0020
vt 0.0000 0.0000
vt 0.1318 0.0000
vt 0.0000 0.0000
vt 0.0000 0.0029
vt -1.9385 0.0000
vt 0.0000 0.0488
vt 0.0000 0.0000
vt 15.8750 0.0000
vt 0.0000 0.0010
vt 0.0000 0.0000
vt 0.0000 0.0000
vt 0.0000 0.0088
f 16/16 1/1 1/1
f 1/1 1/1 1/1
