mtllib assets09_model_157.mtl
# Conker's Bad Fur Day — Real 3D Model (Multiplayer Level Models)
o assets09_model_157
usemtl assets09_model_157_mat

v 0.0000 10.3200 0.0000
v 1.7800 17.0700 -0.0100
v 3.5400 17.0700 -0.0100
v 2.8500 19.6200 -0.0100
v 4.1000 19.6200 -0.0100
v 7.0800 17.0700 -0.0100
v 6.6000 19.6200 -0.0100
v 8.8400 17.0700 -0.0100
v 7.8500 19.6200 -0.0100
v 1.5300 0.0000 -0.0100
v 3.3000 0.0000 -0.0100
v 6.8300 0.0000 -0.0100
v 8.6000 0.0000 -0.0100
v 3.3000 0.0000 -0.0100
v 6.8300 0.0000 -0.0100
v 2.8500 19.6200 -0.0100
v 4.1000 19.6200 -0.0100
v 1.7800 17.0700 -0.0100
v 3.5400 17.0700 -0.0100
v 7.0800 17.0700 -0.0100
v 6.6000 19.6200 -0.0100
v 7.8500 19.6200 -0.0100
v 8.8400 17.0700 -0.0100
v 8.6000 0.0000 -0.0100
v 6.8300 0.0000 -0.0100
v 3.3000 0.0000 -0.0100
v 1.5300 0.0000 -0.0100
v 5.1200 2.5600 -0.0100
v 0.0000 2.5600 -0.0100
v 5.1200 5.1200 -0.0100
v 0.0000 5.1200 -0.0100
v 5.1200 2.5600 -0.0100
v 0.0000 2.5600 -0.0100
v 5.1200 0.0000 -0.0100
v 0.0000 0.0000 -0.0100
v 0.0000 5.1200 -0.0100
v 0.0000 0.0000 -0.0100
v 5.1200 5.1200 -0.0100
v 5.1200 0.0000 -0.0100
v 5.1200 2.5600 -0.0100
v 0.0000 2.5600 -0.0100
v 5.1200 5.1200 -0.0100
v 0.0000 5.1200 -0.0100
v 5.1200 2.5600 -0.0100
v 0.0000 2.5600 -0.0100
v 5.1200 0.0000 -0.0100
v 0.0000 0.0000 -0.0100
v 0.0000 5.1200 -0.0100
v 0.0000 0.0000 -0.0100
v 5.1200 5.1200 -0.0100
v 5.1200 0.0000 -0.0100
v 5.1200 2.5600 -0.0100
v 0.0000 2.5600 -0.0100
v 5.1200 5.1200 -0.0100
v 0.0000 5.1200 -0.0100
v 5.1200 2.5600 -0.0100
v 0.0000 2.5600 -0.0100
v 5.1200 0.0000 -0.0100
v 0.0000 0.0000 -0.0100
v -28.0000 0.0000 17.9200
v -33.2800 0.0000 18.5500
v -28.1600 2.5600 15.3600
v -7.5200 0.0000 0.6400
v -7.5200 0.0000 0.6400
v -7.5200 0.0000 0.0000
v -33.2800 0.0000 17.9900
v -7.5200 0.0000 0.0000
v -33.2800 0.0000 17.9900
v -7.5200 0.0000 0.6400
v -7.5200 0.0000 0.6400
v -7.4400 0.0000 0.0000
v 15.3600 5.1600 0.0200
v 0.0000 0.0000 1.2700
vt 0.0000 1.0117
vt -0.0088 -0.0332
vt -0.0127 -0.0205
vt -0.0059 -0.0205
vt 0.0088 -0.0332
vt 0.0059 -0.0205
vt 0.0176 -0.0332
vt 0.0127 -0.0205
vt 0.0000 -0.0146
vt -0.0088 -0.1172
vt 0.0088 -0.1172
vt 0.0176 -0.1172
vt -0.0088 -0.1172
vt 0.0088 -0.1172
vt 0.0127 -0.0205
vt 0.0059 -0.0205
vt 0.0176 -0.0332
vt 0.0088 -0.0332
vt -0.0088 -0.0332
vt -0.0059 -0.0205
vt -0.0127 -0.0205
vt -0.0176 -0.0332
vt -0.0176 -0.1172
vt -0.0088 -0.1172
vt 0.0088 -0.1172
vt 0.0176 -0.1172
vt 0.0000 -0.0049
vt 0.0000 -0.0215
vt -0.0068 -0.0049
vt -0.0068 -0.0215
vt 0.0000 -0.0049
vt 0.0000 -0.0215
vt 0.0068 -0.0049
vt 0.0068 -0.0215
vt 0.0000 -0.0049
vt -0.0068 -0.0049
vt 0.0068 -0.0049
vt 0.0000 -0.0049
vt 0.0000 0.0068
vt 0.0000 -0.0049
vt -0.0039 0.0068
vt -0.0039 -0.0049
vt 0.0000 0.0068
vt 0.0000 -0.0049
vt 0.0039 0.0068
vt 0.0039 -0.0049
vt 0.0000 0.0068
vt -0.0039 0.0068
vt 0.0039 0.0068
vt 0.0000 0.0068
vt 0.0176 -0.0117
vt 0.0039 -0.0117
vt 0.0176 -0.0088
vt 0.0039 -0.0088
vt 0.0176 -0.0117
vt 0.0039 -0.0117
vt 0.0176 -0.0137
vt 0.0039 -0.0137
vt 0.0176 0.0000
vt -6.5000 0.0000
vt -6.2500 0.0000
vt -6.5000 0.0000
vt -4.0000 0.0000
vt -4.0000 0.0000
vt -6.5000 0.0000
vt -6.2500 0.0000
vt -6.5000 0.0000
vt -6.2500 0.0000
vt -4.0000 0.0000
vt -4.0000 0.0000
vt -2.7266 0.0000
vt -8.2500 0.0000
vt 0.0000 0.0000
f 26/26 25/25 19/19
f 25/25 20/20 19/19
f 9/9 10/10 11/11
f 10/10 12/12 11/11
f 9/9 10/10 11/11
f 10/10 12/12 11/11
f 1/1 2/2 3/3
f 2/2 4/4 3/3
