# Conker's Bad Fur Day — Real 3D Model (Spooky Models)
o assets10_model_019

v 0.0000 2.4800 0.0000
v 0.0000 5.6000 0.0000
v 0.0000 6.1600 0.0000
v 0.0000 6.7200 0.0000
v 0.0000 7.0400 0.0000
v 0.0000 7.8400 0.0000
v 0.0000 8.1600 0.0000
v 0.0000 8.4800 0.0000
v 0.0000 9.6800 0.0000
v 0.0000 10.0000 0.0000
v 0.0000 11.0400 0.0000
v 0.0000 12.0000 0.0000
v 0.0000 12.3200 0.0000
v 0.0000 12.6400 0.0000
v 0.0000 12.9600 0.0000
v 0.0000 13.2800 0.0000
v 24.0900 11.8200 23.2200
v 39.9500 11.8200 -0.1200
v 25.1600 11.8200 -23.7200
v 1.4900 11.8600 -37.3100
v -24.6900 11.8200 23.3500
v -39.8500 11.8200 -0.1300
v -24.9300 11.8200 -23.3600
v 1.5800 11.8600 -37.4600
v 24.0900 11.7900 23.2800
v 25.0600 11.7900 -23.7200
v -2.9000 11.7900 -37.5700
v -24.7900 11.7900 23.4400
v -24.9300 11.7900 -23.4200
v -2.8400 11.7900 -37.6200
v 9.7400 5.9000 -20.4400
v 19.3100 11.8400 -26.7900
v 25.2000 11.8200 -21.7200
v 19.2200 11.8400 -26.8000
v 26.5200 11.8200 -24.1000
v 18.0800 11.8300 -23.8100
v 0.0000 11.8500 -17.4800
v -1.0100 11.8700 -19.5000
v -0.3900 11.8500 -20.9900
v 38.8100 11.8200 10.5000
v 33.3600 11.8200 14.9200
v 38.8900 11.8200 10.4500
v 35.6000 11.8200 16.2400
v 36.4700 11.8200 9.2600
v -0.3800 -3.8900 35.5000
v 38.8600 26.9800 -10.6000
v 38.8100 11.8200 10.5000
v -20.7000 2.7500 7.5100
v -8.9800 0.1900 4.2400
v 11.2400 -1.7600 6.2000
v 28.1300 1.7900 4.0800
v -12.5600 0.9900 6.6200
v -11.8600 -2.2600 13.0700
v 21.4900 -1.4100 0.8500
v -18.4800 3.1900 9.6900
v 6.4000 5.8600 -15.0000
v 10.6400 5.1000 -15.7300
v 9.2800 5.1000 -15.7800
v 13.9700 18.5300 -2.8500
v 22.3600 18.8800 -4.3200
v 22.9700 19.2300 -5.7600
v 20.2500 19.6300 -5.5300
v 15.9700 19.9800 -4.7600
v -12.3500 18.5300 -31.0100
v -23.8200 18.9300 -4.7100
v -16.6500 18.3700 -1.5900
v -19.0600 21.1300 -1.6800
v -26.2300 20.5300 -2.1700
v -12.9100 17.9300 -29.3900
v 9.7400 5.7100 -20.5400
v -0.3900 11.8500 -20.9900
v -0.3900 11.8500 -20.9900
v -0.3900 11.8500 -20.9900
v -0.3900 11.8500 -20.9900
vt 0.0000 0.3984
vt 0.0000 0.5625
vt 0.0000 0.6406
vt 0.0000 0.6719
vt 0.0000 0.7266
vt 0.0000 0.7812
vt 0.0000 0.8125
vt 0.0000 0.9297
vt 0.0000 0.9609
vt 0.0000 0.9922
vt 0.0000 1.1562
vt 0.0000 1.1875
vt 0.0000 1.2188
vt 0.0000 1.2500
vt 0.0000 1.2812
vt -0.3975 1.6484
vt 3.4756 1.1543
vt 3.5449 1.1543
vt 0.4355 1.1533
vt 0.1182 1.1553
vt -3.5000 1.1543
vt -3.5381 1.1543
vt -0.3555 1.1514
vt 0.1113 1.1553
vt 3.4951 1.1514
vt 0.4209 1.1514
vt -0.2061 1.1553
vt -3.5059 1.1514
vt -0.3457 1.1514
vt -0.2119 1.1514
vt 0.9531 0.5762
vt 2.5879 1.1543
vt 1.7666 1.1553
vt 2.4805 1.1543
vt 2.4814 1.1543
vt 1.8711 1.1562
vt 0.0000 1.1572
vt -0.0986 1.1592
vt -0.0381 1.1572
vt 3.4766 1.1543
vt 3.5586 1.1543
vt 3.2256 1.1543
vt 3.2500 1.1543
vt 3.7900 1.1543
vt -0.0371 -0.3799
vt 3.7949 2.6348
vt 3.7900 1.1543
vt -1.9453 0.1982
vt -0.2695 0.2676
vt 1.7773 0.2676
vt 1.3770 0.1846
vt -2.4990 0.2627
vt 0.8633 -0.1377
vt -1.8047 0.3115
vt 0.6250 0.5723
vt 1.0547 0.4941
vt 0.9043 0.4932
vt 1.1953 1.8096
vt 1.7119 1.8682
vt 2.5195 1.7900
vt 2.4229 2.0000
vt 1.8086 1.9707
vt 1.3789 2.0537
vt -2.7842 1.8096
vt -1.8936 1.7656
vt -1.6260 1.9951
vt -2.1318 2.0049
vt -2.7578 2.0293
vt -1.2607 1.7510
vt 0.9512 0.5576
vt -0.0381 1.1572
vt -0.0381 1.1572
vt -0.0381 1.1572
vt -0.0381 1.1572
f 59/59 4/4 31/31
f 19/19 1/1 1/1
f 67/67 5/5 28/28
