# Conker's Bad Fur Day — Real 3D Model (Multiplayer Level Models)
o assets09_model_055

v 0.0000 23.1200 0.0000
v 5.6000 4.2500 -0.0100
v 2.3500 5.8900 -0.0100
v 8.8300 5.9300 -0.0100
v 2.3200 2.4200 -0.0100
v 8.8100 2.4600 -0.0100
v 8.8300 5.9300 -0.0100
v 2.3500 5.8900 -0.0100
v 5.6000 4.2500 -0.0100
v 2.3200 2.4200 -0.0100
v 8.8100 2.4600 -0.0100
v 0.5700 8.6100 -0.0100
v 7.9200 10.1000 -0.0100
v 2.3100 10.0600 -0.0100
v 9.6400 8.6700 -0.0100
v 7.9200 10.1000 -0.0100
v 0.5700 8.6100 -0.0100
v 2.3100 10.0600 -0.0100
v 9.6400 8.6700 -0.0100
v 0.5300 1.6800 -0.0100
v 9.5900 1.7500 -0.0100
v 0.5300 1.6800 -0.0100
v 9.5900 1.7500 -0.0100
v 9.0000 1.8700 -0.0100
v 1.2800 0.3200 -0.0100
v 2.2500 0.2600 -0.0100
v 7.8600 0.3000 -0.0100
v 8.5000 0.3100 -0.0100
v 2.2500 0.2600 -0.0100
v 7.8600 0.3000 -0.4400
v 5.4100 5.2400 -0.0100
v 1.2900 1.3600 -0.0100
v 1.3600 5.3400 -0.0100
v 5.3400 1.2500 -0.0100
v 2.4600 0.2000 -0.0100
v 7.4900 0.3200 -0.4400
v 0.7400 8.3100 -0.0100
v 6.9800 8.4200 -0.0100
v 5.7300 9.8100 -0.0100
v 2.0200 9.7400 -0.0100
v 6.9000 1.6000 -0.0100
v 0.6600 1.4900 -0.0100
v 5.6200 0.1600 -0.0100
v 1.9100 0.1000 -0.0100
v 4.9000 0.5200 -0.0100
v 4.1900 2.0100 -0.0100
v 1.6600 -0.1800 -0.0100
v 1.5700 2.1000 -0.0100
v 1.6600 -0.1800 -0.0100
v 4.1900 2.0100 -0.0100
v 3.5400 0.4400 -0.0100
v 3.5400 0.4400 -0.0100
v 4.9000 0.5200 -0.0100
v 4.1900 2.0100 -0.0100
v 4.9000 0.5200 -0.0100
v 1.4500 2.1100 -0.0100
v 1.4400 -0.1000 -0.0100
v 1.4500 2.1100 -0.0100
v 1.4400 -0.1000 -0.0100
v 1.5700 2.1000 -0.0100
v 1.6600 -0.1800 -0.0100
v 1.5700 2.1000 -0.0100
v 3.5400 0.4400 -0.0100
v 4.1900 2.0100 -0.0100
v 4.9000 0.5200 -0.0100
v 3.5400 0.4400 -0.0100
v 4.9000 0.5200 -0.0100
v 4.9000 0.5200 -0.0100
v 4.1900 2.0100 -0.0100
v 2.7000 14.8600 -0.0100
v 0.3800 14.8200 -0.0100
v 1.5400 14.8400 -0.0100
v 1.5400 14.8400 -0.0100
v 0.4100 0.4600 -0.0100
v 1.5700 0.4800 -0.0100
v 2.7300 0.5000 -0.0100
v 1.5700 0.4800 -0.0100
v 2.5100 4.8500 -0.0100
v 2.2800 0.3700 -0.0100
v 20.4200 1.2300 -0.0100
v 0.9700 4.2900 -0.0100
v 0.8000 0.9400 -0.0100
v 20.5500 3.7800 -0.0100
v 0.1900 2.6100 -0.0100
v 0.8000 0.9400 -0.0100
v 0.9700 4.2900 -0.0100
v 2.5100 4.8500 -0.0100
v 2.2800 0.3700 -0.0100
v 20.5500 3.7800 -0.0100
v 20.4200 1.2300 -0.0100
v 0.1900 2.6100 -0.0100
v -28.0000 0.0000 17.9200
v -33.2800 0.0000 18.2300
v -28.1600 2.5600 15.3600
v -7.5200 0.0000 0.6400
v -7.5200 0.0000 0.0000
v -33.2800 0.0000 18.2300
v -7.5200 0.0000 0.6400
v -7.5200 0.0000 0.0000
v -33.2800 0.0000 17.9900
v -28.0800 10.2400 0.0100
v 2.5800 0.6400 2.5600
v 15.3600 5.1600 0.0600
v -7.5200 0.0000 0.6400
v -7.5200 0.0000 0.6400
v -7.5200 0.0000 0.6400
vt 0.0000 0.0000
vt -0.0088 -0.0137
vt -0.0088 -0.0137
vt -0.0088 -0.0293
vt -0.0088 -0.0293
vt 0.0273 -0.0137
vt 0.0273 -0.0137
vt 0.0342 -0.0205
vt 0.0273 -0.0293
vt 0.0273 -0.0293
vt 0.0273 -0.0020
vt 0.0195 0.0049
vt 0.0195 0.0049
vt 0.0273 -0.0020
vt -0.0020 0.0049
vt -0.0088 -0.0020
vt -0.0020 0.0049
vt -0.0088 -0.0020
vt 0.0273 -0.0322
vt 0.0273 -0.0322
vt -0.0088 -0.0322
vt -0.0088 -0.0322
vt -0.0020 -0.0381
vt 0.0195 -0.0381
vt 0.0195 -0.0381
vt 0.0195 -0.0381
vt 0.0195 -0.0381
vt -0.0020 -0.0381
vt -0.0020 -0.0381
vt 0.0195 0.0049
vt -0.0020 0.0049
vt -0.0020 0.0049
vt 0.0195 0.0049
vt 0.0195 0.0049
vt -0.0020 -0.0381
vt -0.0088 -0.0020
vt 0.0273 -0.0020
vt 0.0195 0.0049
vt -0.0020 0.0049
vt 0.0273 -0.0322
vt -0.0088 -0.0322
vt 0.0195 -0.0381
vt -0.0020 -0.0381
vt 0.0273 -0.0020
vt 0.0439 0.0088
vt 0.0352 0.0098
vt 0.0352 0.0098
vt 0.0234 0.0244
vt 0.0352 0.0098
vt 0.0273 -0.0020
vt 0.0352 0.0098
vt 0.0273 -0.0020
vt 0.0352 0.0098
vt 0.0273 -0.0020
vt -0.0098 0.0332
vt 0.0234 0.0244
vt -0.0049 0.0244
vt 0.0273 0.0332
vt 0.0234 0.0244
vt -0.0176 0.0098
vt -0.0049 0.0244
vt -0.0049 0.0244
vt -0.0264 0.0088
vt -0.0088 -0.0107
vt -0.0088 -0.0020
vt -0.0088 -0.0020
vt -0.0176 0.0098
vt -0.0264 0.0088
vt 0.0000 -0.0107
vt 0.0000 -0.0234
vt -0.0059 -0.0166
vt 0.0068 -0.0166
vt 0.0000 -0.0234
vt -0.0059 -0.0166
vt 0.0000 -0.0107
vt 0.0068 -0.0166
vt 0.0127 0.0000
vt 0.0127 -0.0342
vt 0.0127 -0.0264
vt 0.0127 -0.0039
vt 0.0127 -0.0293
vt 0.0127 -0.0078
vt 0.0127 -0.0166
vt 0.0059 -0.0293
vt 0.0059 -0.0039
vt 0.0059 0.0000
vt 0.0059 -0.0342
vt 0.0059 -0.0078
vt 0.0059 -0.0264
vt 0.0059 -0.0166
vt 0.0088 -0.0166
vt -6.5000 0.0000
vt -6.2500 0.0000
vt -6.5000 0.0000
vt -4.0000 0.0000
vt -6.5000 0.0000
vt -6.2500 0.0000
vt -4.0000 0.0000
vt -6.5000 0.0000
vt -6.2500 0.0000
vt -3.5000 8.0020
vt 4.8906 -27.8379
vt 1.2539 2.5078
vt -4.0000 0.0000
vt -4.0000 0.0000
vt -4.0000 0.0000
f 29/29 21/21 30/30
f 22/22 30/30 21/21
f 19/19 17/17 18/18
f 20/20 19/19 18/18
f 31/31 29/29 30/30
f 27/27 31/31 30/30
f 27/27 30/30 28/28
f 1/1 2/2 3/3
f 4/4 5/5 6/6
f 3/3 6/6 5/5
f 8/8 10/10 14/14
f 8/8 14/14 11/11
f 14/14 9/9 8/8
f 13/13 11/11 10/10
