mtllib assets0E_model_006.mtl
# Conker's Bad Fur Day — Real 3D Model (Sloprano Models)
o assets0E_model_006
usemtl assets0E_model_006_mat

v 0.3200 2.6300 17.9200
v 20.5100 0.0000 0.0000
v 20.5100 0.0000 0.0000
v 20.5100 0.0000 0.0000
v 20.4800 0.0000 0.0000
v 0.3200 2.5800 -2.5600
v 10.2400 0.0000 0.0000
v 20.4800 0.0000 0.0000
v 5.1200 0.0000 0.0000
v 0.3200 2.6700 12.8000
v 20.4800 0.0000 0.0000
v 20.4800 0.0000 0.0000
v 20.5200 0.0000 0.0000
v 20.4800 0.0000 0.0000
v 20.4800 0.0000 0.0000
v 20.4800 0.0000 0.0000
v 20.4800 0.0000 0.0000
v 20.4800 0.0000 0.0000
v 20.4800 0.0000 0.0000
v 20.4800 0.0000 0.0000
v 20.4900 0.0000 0.0000
v 20.5000 0.0000 0.0000
v 20.5000 0.0000 0.0000
v 20.4800 0.0000 0.0000
v 20.4800 0.0000 0.0000
v 20.4800 0.0000 0.0000
v 20.4800 0.0000 0.0000
v 20.4800 0.0000 0.0000
v 20.4800 0.0000 0.0000
v 20.4800 0.0000 0.0000
v 20.4800 0.0000 0.0000
v 20.4800 0.0000 0.0000
v 20.4800 0.0000 0.0000
v 20.4800 0.0000 0.0000
v 20.4800 0.0000 0.0000
v 0.3200 0.0000 -2.5600
v 20.4800 0.0000 0.0000
vt -3.0273 -2.6562
vt 0.0000 0.0957
vt 0.0000 0.0957
vt 0.0000 0.0957
vt 0.0000 0.5732
vt -1.9209 1.4629
vt 0.0000 0.0029
vt 0.0000 0.5732
vt 0.0000 0.0020
vt -3.1250 -2.3438
vt 0.0000 0.0967
vt 0.0000 0.0732
vt 0.1328 0.0205
vt 0.1250 0.5967
vt 0.1250 0.0967
vt 0.1250 0.5967
vt 0.1250 0.5967
vt 0.1250 0.5967
vt 0.1250 0.5967
vt 0.1250 0.5967
vt 0.1250 0.0967
vt 0.0000 0.0967
vt 0.0000 0.0967
vt 0.0000 -31.9033
vt 0.0000 0.0654
vt 0.1250 -31.9961
vt 0.1250 0.0654
vt 0.0000 0.0967
vt 0.1250 0.0654
vt 0.1250 0.0654
vt 0.1250 0.0654
vt 0.1250 0.0654
vt 0.0000 0.0732
vt 0.0000 0.0732
vt 0.0000 0.0732
vt -3.2861 -2.8311
vt 0.0000 0.0732
f 1/1 1/1 1/1
