# Conker's Bad Fur Day — Real 3D Model (Multiplayer Level Models)
o assets09_model_140

v 0.0000 17.5200 0.0000
v 11.1500 9.6000 -2.5800
v 6.1000 10.2800 -2.5800
v 10.4000 9.5200 -2.5800
v 1.4200 11.3100 -2.5800
v 17.8400 8.3600 -2.5800
v 0.6700 9.9500 -18.0000
v 1.7200 -1.9700 -38.5600
v 11.1500 9.6000 -2.5800
v 11.1300 9.7700 -2.5800
v 16.7000 9.2500 -2.5800
v 16.2600 9.7300 -2.5800
v 6.1000 10.2800 -2.5800
v 6.5400 10.1600 -2.5800
v 10.4000 9.4500 -2.5800
v 10.4000 9.5200 -2.5800
v 17.8400 8.3600 -2.5800
v 17.8600 8.4200 -2.5800
v 2.1100 11.4300 -2.5800
v 1.4200 11.3100 -2.5800
v 20.0300 10.0000 -2.5800
v 14.7000 10.3600 -2.5800
v 10.4000 9.5200 -2.5800
v 14.2600 10.2700 -2.5800
v 19.3400 10.4300 -2.5800
v 18.4300 10.4100 -2.5800
v 11.1500 9.6000 -2.5800
v 11.1300 9.7700 -2.5800
v 16.1100 9.6500 -2.5800
v 16.7000 9.2500 -2.5800
v 16.2900 9.5400 -2.5800
v 16.2600 9.7300 -2.5800
v 14.2600 10.2700 -2.5800
v 14.7000 10.3600 -2.5800
v 10.4000 9.5200 -2.5800
v 10.4000 9.4500 -2.5800
v 20.0300 10.0000 -2.5800
v 19.6900 10.1100 -2.5800
v -28.0000 0.0000 17.9200
v -33.2800 0.0000 18.5500
v -28.1600 2.5600 15.3600
v -7.5200 0.0000 0.6400
v 13.9000 -4.1200 20.1900
v 11.3100 6.3700 12.4200
vt 0.0000 1.7148
vt -0.0020 0.0352
vt -0.0010 0.0479
vt -0.0010 0.0254
vt -0.0176 0.0410
vt -0.0098 0.0576
vt -0.0107 0.0234
vt -0.0039 0.0371
vt -0.0010 0.0293
vt -0.0010 0.0107
vt 0.0068 0.0146
vt 0.0068 0.0146
vt -0.0361 0.0537
vt -0.0010 0.0469
vt -0.0010 0.0479
vt -0.0020 0.0000
vt -0.0068 0.0479
vt -0.0068 0.0479
vt -0.0156 0.0479
vt -0.0020 0.0566
vt 0.0176 0.0303
vt 0.0449 0.0371
vt 0.0381 0.0098
vt 0.0361 0.0000
vt 0.0176 0.0420
vt 0.0088 0.0010
vt -0.0010 0.0293
vt 0.0029 0.0352
vt 0.0088 0.0342
vt 0.0029 0.0352
vt 0.0088 0.0342
vt 0.0342 0.0576
vt 0.0381 0.0586
vt -0.0010 0.0479
vt -0.0010 0.0469
vt 0.0098 0.0557
vt 0.0068 0.0410
vt 0.0000 1.9219
vt -6.5000 0.0000
vt -6.2500 0.0000
vt -6.5000 0.0000
vt -4.0000 0.0000
vt 1.4502 -9.7920
vt 22.2090 12.3262
f 43/43 2/2 26/26
f 24/24 2/2 21/21
f 7/7 2/2 38/38
f 37/37 2/2 38/38
f 37/37 2/2 38/38
f 8/8 2/2 16/16
f 29/29 11/11 30/30
f 10/10 30/30 23/23
