# Conker's Bad Fur Day — Real 3D Model (Multiplayer Level Models)
o assets09_model_058

v 0.0000 6.9600 0.0000
v 2.9100 -0.1600 -2.5800
v 5.3800 2.6200 -2.5800
v 5.5700 -0.1500 -2.5800
v 2.7200 2.6100 -2.5800
v 5.8900 5.3300 -2.5800
v 3.2400 5.3200 -2.5800
v 5.3800 2.6200 -2.5800
v 7.2300 7.8600 -2.5800
v 4.5700 7.8600 -2.5800
v 9.1900 10.0600 -2.5800
v 6.5600 9.6800 -2.5800
v 4.5700 7.8600 -2.5800
v 7.2300 7.8600 -2.5800
v 9.1900 10.0600 -2.5800
v 6.5600 9.6800 -2.5800
v 3.2400 5.3200 -2.5800
v 5.8900 5.3300 -2.5800
v 2.7200 2.6100 -2.5800
v 5.3800 2.6200 -2.5800
v 2.9100 -0.1600 -2.5800
v 5.3800 2.6200 -2.5800
v 5.5700 -0.1500 -2.5800
v 2.5600 27.6200 -2.5800
v 2.5600 0.0000 -2.5800
v 5.1200 27.6200 -2.5800
v 5.1200 0.0000 -2.5800
v 0.0000 27.6200 -2.5800
v 0.0000 0.0000 -2.5800
v 2.5600 27.6200 -2.5800
v 2.5600 0.0000 -2.5800
v 5.5800 4.9400 -2.5800
v 3.9800 8.8700 -2.5800
v 1.3000 6.2100 -2.5800
v 2.9000 2.2900 -2.5800
v 0.0000 0.0000 -2.5800
v 10.2400 0.0000 -2.5800
v 10.2400 10.2400 -2.5800
v 0.0000 10.2400 -2.5800
v 0.0000 10.2400 -2.5800
v 10.2400 10.2400 -2.5800
v 0.0000 0.0000 -2.5800
v 10.2400 0.0000 -2.5800
v -28.0000 0.0000 17.9200
v -33.2800 0.0000 18.3400
v -28.1600 2.5600 15.3600
v -7.5200 0.0000 0.6400
v -28.0800 11.5200 2.5700
v -28.0800 6.7200 5.1200
v -28.0800 6.8000 7.6800
v -7.5200 0.0000 0.6400
v -27.9200 0.0000 17.9200
v -33.2800 0.0000 18.5500
vt 0.0000 0.0000
vt 0.0000 -0.0127
vt 0.0000 -0.0127
vt 0.0000 -0.0244
vt 0.0000 -0.0107
vt 0.0000 -0.0215
vt 0.0000 -0.0127
vt 0.0000 -0.0039
vt 0.0000 -0.0156
vt 0.0000 0.0049
vt 0.0000 -0.0068
vt 0.0000 -0.0156
vt 0.0000 -0.0039
vt 0.0000 0.0049
vt 0.0000 -0.0068
vt 0.0000 -0.0215
vt 0.0000 -0.0107
vt 0.0000 -0.0244
vt 0.0000 -0.0127
vt 0.0000 -0.0244
vt 0.0000 -0.0127
vt 0.0000 -0.0127
vt 0.0059 -0.0186
vt 0.0059 -0.0186
vt 0.0000 -0.0127
vt 0.0000 -0.0127
vt 0.0000 -0.0244
vt 0.0000 -0.0244
vt -0.0059 -0.0186
vt -0.0059 -0.0186
vt -0.0059 -0.0186
vt 0.0000 -0.0127
vt 0.0059 -0.0186
vt 0.0000 -0.0244
vt -0.0156 -0.0332
vt 0.0146 -0.0332
vt 0.0146 -0.0029
vt -0.0156 -0.0029
vt -0.0156 -0.0029
vt 0.0146 -0.0029
vt -0.0156 -0.0332
vt 0.0146 -0.0332
vt 0.0000 0.6875
vt -6.5000 0.0000
vt -6.2500 0.0000
vt -6.5000 0.0000
vt -4.0000 0.0000
vt -3.5000 8.0020
vt -3.5000 8.0020
vt -3.5000 8.0020
vt -4.0000 0.0000
vt -6.5000 0.0000
vt -6.2500 0.0000
f 17/17 18/18 19/19
f 18/18 20/20 19/19
