mtllib assets0A_model_006.mtl
# Conker's Bad Fur Day — Real 3D Model (Bat's Tower Level Models)
o assets0A_model_006
usemtl assets0A_model_006_mat

v 0.0000 0.6400 0.0000
v 0.0000 6.8800 0.0000
v 0.0000 9.6000 0.0000
v 0.0000 11.5200 0.0000
v 0.0900 0.9600 0.2200
v -2.8200 -1.8300 -20.7200
v -17.2000 -2.1700 -30.3200
v -1.3500 1.4300 -0.5800
v -1.3500 1.4300 -0.5800
v -1.3500 1.4300 -0.5800
v 0.0900 0.3700 0.2000
v -5.3600 -16.2400 -20.7200
v 0.0000 -31.3600 3.3400
v -0.1600 2.0800 0.0000
v -0.1600 2.0800 0.0000
v 0.0900 0.3600 0.1200
v 0.0000 0.0000 -10.1800
v -11.1300 -0.9400 0.0600
v 0.0600 2.2300 -0.2600
v 0.0600 2.2300 -0.2600
v 0.0900 0.3600 0.1000
vt 0.0000 0.1328
vt 0.0000 0.7422
vt 0.0000 1.0078
vt 0.0000 1.1875
vt 0.7500 -32.0000
vt -2.6475 -3.4609
vt -0.6504 -2.8359
vt 0.4404 19.0439
vt -4.9922 16.2568
vt 17.7920 28.1318
vt 0.7500 -32.0000
vt -6.5537 -1.0566
vt 2.8047 26.5596
vt 21.9053 -21.1787
vt 24.7598 -13.9590
vt 0.7500 -32.0000
vt -0.0303 -2.0859
vt 0.0000 0.0000
vt 3.5410 11.1562
vt -7.0938 -27.5547
vt 0.7500 -0.7656
f 1/1 2/2 3/3
f 4/4 5/5 6/6
f 7/7 8/8 9/9
f 10/10 11/11 12/12
f 13/13 14/14 15/15
f 16/16 17/17 18/18
f 19/19 20/20 21/21
