# Conker's Bad Fur Day — Real 3D Model (Sloprano Models)
o assets0E_model_045

v 20.4800 0.0000 0.0000
v 20.4800 0.0000 0.0000
v 20.4800 0.0000 0.0000
v 20.4800 0.0000 0.0000
v 20.4800 0.0000 0.0000
v 20.4800 0.0000 0.0000
v 20.4800 0.0000 0.0000
v 20.4800 0.0000 0.0000
v 20.4800 0.0000 0.0000
v 20.4800 0.0000 0.0000
v 20.4800 0.0000 0.0000
v 20.4800 0.0000 0.0000
vt 1.0625 0.0684
vt 1.0625 0.0684
vt 0.0000 0.0693
vt 0.0000 0.0693
vt 0.0000 0.0693
vt 0.0000 0.0693
vt 0.0000 0.0693
vt 0.0000 0.0693
vt 0.0000 0.0693
vt 0.0000 0.0693
vt 0.0000 0.0693
vt 0.0000 0.0693
f 1/1 2/2 3/3
f 4/4 5/5 6/6
f 7/7 8/8 9/9
f 10/10 11/11 12/12
