mtllib assets0A_model_004.mtl
# Conker's Bad Fur Day — Real 3D Model (Bat's Tower Level Models)
o assets0A_model_004
usemtl assets0A_model_004_mat

v 0.0000 0.6400 0.0000
v 0.0000 1.5200 0.0000
v 0.0000 1.9200 0.0000
v 0.0000 4.8000 0.0000
v 0.0500 0.1900 0.0800
v 0.0000 0.1100 0.0000
v 7.2200 -2.0400 0.3700
v 7.6800 0.0000 0.0000
v 0.0500 0.3100 0.0800
v 0.0000 0.1100 0.0000
v 12.2100 -12.8200 1.2200
v 17.7100 -18.5900 1.9700
v 17.8000 -18.6700 2.0300
v 17.8200 -18.6900 2.0400
v 17.8000 -18.6700 2.0300
v 17.7100 -18.5800 1.9700
v 14.1700 -14.8800 1.4300
v 0.0500 0.3100 0.1200
v 17.5100 -18.5600 0.5400
v -33.1400 8.8900 -2.5600
v 15.9900 -1.4600 -0.5900
v 5.8100 -4.5300 0.5200
vt 0.0000 0.1016
vt 0.0000 0.1875
vt 0.0000 0.2266
vt 0.0000 0.5156
vt 0.7500 8.0000
vt 0.0000 0.0000
vt 0.0000 0.0000
vt 0.0000 0.0000
vt 0.0000 8.0000
vt 0.0000 0.0000
vt 1.7158 -1.8008
vt 1.7354 -1.8203
vt 1.7402 -1.8252
vt 1.7393 -1.8252
vt 1.7344 -1.8203
vt 1.7158 -1.8008
vt 0.6914 -0.7266
vt 0.0000 8.0000
vt 25.6074 30.3750
vt 29.1680 31.2500
vt 27.7285 22.8750
vt -25.2109 17.6875
f 1/1 2/2 3/3
f 4/4 5/5 6/6
f 7/7 8/8 9/9
f 10/10 11/11 12/12
f 13/13 14/14 15/15
f 16/16 17/17 18/18
f 19/19 20/20 21/21
