# Conker's Bad Fur Day — Real 3D Model (Multiplayer Level Models)
o assets09_model_150

v 0.0000 7.7600 0.0000
v 1.7000 1.7200 -2.5800
v 7.3600 3.3900 -2.5800
v 5.8600 8.4600 -2.5800
v 0.2000 6.7900 -2.5800
v 2.0300 9.8100 -2.5800
v 7.3600 9.8000 -2.5800
v 7.4700 6.1800 -2.5800
v 2.1400 6.1800 -2.5800
v 2.6400 7.2100 -2.5800
v 6.8800 6.8100 -2.5800
v 6.6800 11.0000 -2.5800
v 2.4400 11.4000 -2.5800
v 1.6300 14.2300 -2.5800
v 7.4900 14.2300 -2.5800
v 7.6100 14.4500 -2.5800
v 3.1500 16.4200 -2.5800
v 7.9500 1.8800 -2.5800
v 1.9100 1.8800 -2.5800
v 3.6600 2.1700 -2.5800
v 8.3400 2.6200 -2.5800
v 0.7500 3.6400 -2.5800
v 9.4900 3.6200 -2.5800
v 9.5300 7.1600 -2.5800
v 0.7800 7.1800 -2.5800
v 10.0000 10.1500 -2.5800
v 0.3800 10.1800 -2.5800
v 0.1300 0.2200 -2.5800
v 10.0400 0.2000 -2.5800
v 0.0000 0.0000 -2.5800
v 0.0000 0.0000 -2.5800
v 0.0000 0.0000 -2.5800
v 0.0000 0.0000 -2.5800
v 0.0000 0.0000 -2.5800
v 0.0000 0.0000 -2.5800
v 0.0000 0.0000 -2.5800
v -28.0000 0.0000 17.9200
v -33.2800 0.0000 18.5500
v -28.1600 2.5600 15.3600
v -7.5200 0.0000 0.6400
v 2.5800 0.6400 2.5600
v -7.5200 0.0000 0.0000
v -33.2800 0.0000 18.3400
v -28.0800 20.4800 0.0900
v -28.0800 11.5200 2.6500
v -28.0800 6.7200 5.2000
v -28.0800 6.8000 7.7600
v 15.3800 0.1200 0.0200
v -7.6900 -3.6900 -27.9300
v -7.5200 0.0000 0.6400
v 15.3800 10.2400 0.0400
v 2.1300 2.1300 2.1300
v 2.3300 2.3300 2.3300
v 1.3100 1.3100 1.3100
v 2.9500 2.9500 2.9500
vt 0.0000 0.7617
vt 0.0156 -0.0166
vt 0.0156 0.0088
vt -0.0156 0.0088
vt -0.0137 0.0146
vt 0.0146 0.0146
vt 0.0146 0.0156
vt -0.0137 0.0156
vt -0.0156 0.0107
vt -0.0137 -0.0098
vt -0.0137 -0.0107
vt -0.0137 0.0146
vt 0.0156 0.0088
vt 0.0156 0.0088
vt -0.0156 -0.0166
vt -0.0156 0.0088
vt 0.0166 0.0107
vt -0.0156 0.0107
vt 0.0166 -0.0176
vt -0.0156 -0.0176
vt -0.0137 -0.0098
vt 0.0146 -0.0098
vt 0.0146 -0.0107
vt -0.0137 -0.0107
vt 0.0156 -0.0166
vt -0.0156 -0.0166
vt -0.0156 -0.0176
vt 0.0166 -0.0176
vt -0.0088 0.0059
vt 0.0000 0.0000
vt -0.0088 -0.0049
vt -0.0010 -0.0361
vt -0.0088 0.0059
vt -0.0088 -0.0049
vt 0.0000 0.0000
vt 0.0000 0.8125
vt -6.5000 0.0000
vt -6.2500 0.0000
vt -6.5000 0.0000
vt -4.0000 0.0000
vt 4.5234 -27.8379
vt -6.5000 0.0000
vt -6.2500 0.0000
vt -3.5000 8.0020
vt -3.5000 8.0020
vt -3.5000 8.0020
vt -3.5000 8.0020
vt -6.2500 0.0000
vt -10.2500 0.0020
vt -4.0000 0.0000
vt 1.2559 0.5000
vt 0.1230 0.1230
vt 31.5000 31.5000
vt 0.1318 0.1318
vt 0.0000 0.0000
f 18/18 17/17 31/31
f 18/18 31/31 32/32
f 2/2 1/1 7/7
f 2/2 7/7 8/8
f 1/1 2/2 3/3
f 2/2 3/3 1/1
f 3/3 4/4 1/1
f 4/4 2/2 1/1
