mtllib assets09_model_152.mtl
# Conker's Bad Fur Day — Real 3D Model (Multiplayer Level Models)
o assets09_model_152
usemtl assets09_model_152_mat

v 0.0000 16.8800 0.0000
v 10.2400 10.2400 -0.0100
v 5.1200 0.0000 -0.0100
v 10.2400 0.0000 -0.0100
v 5.1200 10.2400 -0.0100
v 10.2400 0.0000 -0.0100
v 10.2400 10.2400 -0.0100
v 5.1200 0.0000 -0.0100
v 5.1200 10.2400 -0.0100
v 0.0000 0.0000 -0.0100
v 5.3300 0.0000 -0.0100
v 0.0000 10.2400 -0.0100
v 5.3300 10.2400 -0.0100
v 10.2400 10.2400 -0.0100
v 10.2400 0.0000 -0.0100
v 0.0000 0.0000 -0.0100
v 0.0000 10.2400 -0.0100
v 10.2400 0.0000 -0.0100
v 10.2400 10.2400 -0.0100
v 0.0000 0.0000 -0.0100
v 0.0000 10.2400 -0.0100
v 10.2400 0.0000 -0.0100
v 10.2400 10.2400 -0.0100
v 0.0000 10.2400 -0.0100
v 0.0000 0.0000 -0.0100
v 5.1200 0.0000 -0.0100
v 5.1200 10.2400 -0.0100
v 5.1200 0.0000 -0.0100
v 5.1200 10.2400 -0.0100
v 5.3300 0.0000 -0.0100
v 0.0000 10.2400 -0.0100
v 0.0000 0.0000 -0.0100
v 5.3300 10.2400 -0.0100
v 10.2400 0.0000 -0.0100
v 6.8300 0.0000 -0.0100
v 6.2800 4.0200 -0.0100
v 6.1500 3.7400 -0.0100
v 6.8300 0.0000 -0.0100
v 10.2400 0.0000 -0.0100
v 10.2400 10.2400 -0.0100
v 10.2400 0.0000 -0.0100
v 0.0000 10.2400 -0.0100
v 0.0000 0.0000 -0.0100
v 2.8100 4.4100 -0.0100
v 3.4100 0.0000 -0.0100
v 3.4100 0.0000 -0.0100
v 2.6600 4.1000 -0.0100
v 0.0000 0.0000 -0.0100
v 0.0000 0.0000 -0.0100
v 5.1200 0.0000 -0.0100
v 5.1200 10.2400 -0.0100
v 5.1200 10.2400 -0.0100
v 5.1200 0.0000 -0.0100
v 0.0000 10.2400 -0.0100
v 0.0000 0.0000 -0.0100
v 0.0000 10.2400 -0.0100
v 0.0000 0.0000 -0.0100
v 10.2400 0.0000 -0.0100
v 10.2400 10.2400 -0.0100
v 10.2400 0.0000 -0.0100
v 10.2400 10.2400 -0.0100
v 0.0000 0.0000 -0.0100
v 0.0000 10.2400 -0.0100
v 10.2400 10.2400 -0.0100
v 10.2400 0.0000 -0.0100
v 5.1200 0.0000 -0.0100
v 5.1200 10.2400 -0.0100
v 4.9100 10.2400 -0.0100
v 4.9100 0.0000 -0.0100
v 5.1200 10.2400 -0.0100
v 5.1200 0.0000 -0.0100
v 0.0000 10.2400 -0.0100
v 0.0000 0.0000 -0.0100
v 10.2400 10.2400 -0.0100
v 10.2400 0.0000 -0.0100
v 0.0000 10.2400 -0.0100
v 0.0000 0.0000 -0.0100
v 0.0000 0.0000 -0.0100
v 0.0000 0.0000 -0.0100
v 10.2400 10.2400 -0.0100
v 10.2400 0.0000 -0.0100
v 0.0000 0.0000 -0.0100
v 0.0000 10.2400 -0.0100
v 3.4100 0.0000 -0.0100
v 2.6900 4.2400 -0.0100
v 3.4100 0.0000 -0.0100
v 2.8300 4.1700 -0.0100
v 4.9100 10.2400 -0.0100
v 4.9100 0.0000 -0.0100
v 6.1700 3.8700 -0.0100
v 6.8300 0.0000 -0.0100
v 6.8300 0.0000 -0.0100
v 6.3000 3.8100 -0.0100
v 10.2400 10.2400 -0.0100
v 10.2400 0.0000 -0.0100
v 10.2400 0.0000 -0.0100
v 10.2400 0.0000 -0.0100
v -28.0000 0.0000 17.9200
v -33.2800 0.0000 18.3400
v -28.1600 2.5600 15.3600
v -7.5200 0.0000 0.6400
v -28.0800 11.5200 2.6500
v -28.0800 6.7200 5.2000
v -28.0800 6.8000 7.7600
v -7.5200 0.0000 0.0000
v -33.2800 0.0000 18.3400
v -7.5200 0.0000 0.0000
v -33.2800 0.0000 18.3400
v -7.5200 0.0000 0.0000
v -33.2800 0.0000 18.3400
v -7.5200 0.0000 0.0000
v -33.2800 0.0000 18.3400
v -7.5200 0.0000 0.0000
v -33.2800 0.0000 18.3400
v -7.5200 0.0000 0.0000
v -33.2800 0.0000 18.3400
v -7.5200 0.0000 0.6400
v -7.5200 0.0000 0.0000
v -33.2800 0.0000 18.1200
v -28.0800 20.4800 0.0100
v -28.0800 10.8800 2.5600
v -28.0800 5.9200 5.1200
v -7.5200 0.0000 0.0000
v -33.2800 0.0000 18.3400
v -28.0800 20.4800 0.0900
v -28.0800 11.5200 2.6500
v -28.0800 6.7200 5.2000
v 15.3600 30.8600 0.0200
v -7.5200 0.0000 0.0000
v -33.2800 0.0000 18.3400
v -7.5200 0.0000 0.0000
v -33.2800 0.0000 18.3400
v -7.5200 0.0000 0.0000
v -33.2800 0.0000 18.3400
v -7.5200 0.0000 0.0000
v -33.2800 0.0000 18.3400
v -7.5200 0.0000 0.0000
v -33.2800 0.0000 18.3400
v -7.5200 0.0000 0.0000
v -33.2800 0.0000 18.3400
v -7.5200 0.0000 0.6400
v -7.5200 0.0000 0.0000
v -33.2800 0.0000 18.1200
v -28.0800 20.4800 0.0100
v -28.0800 10.8800 2.5600
v -28.0800 5.9200 5.1200
vt 0.0000 1.6523
vt -0.0020 -0.0010
vt -0.0020 -0.0205
vt -0.0020 -0.0010
vt -0.0049 -0.0205
vt -0.0020 -0.0205
vt -0.0020 -0.0010
vt -0.0020 -0.0010
vt -0.0020 -0.0205
vt 0.0020 0.0010
vt -0.0049 -0.0205
vt 0.0020 0.0010
vt -0.0020 -0.0010
vt -0.0020 -0.0010
vt -0.0020 -0.0010
vt -0.0020 -0.0010
vt -0.0020 -0.0010
vt -0.0020 -0.0010
vt -0.0020 -0.0010
vt -0.0020 -0.0010
vt 0.0020 0.0010
vt 0.0020 0.0010
vt 0.0020 0.0010
vt 0.0020 0.0010
vt 0.0000 0.0000
vt 0.0000 0.0000
vt 0.0000 0.0000
vt 0.0000 0.0000
vt 0.0000 0.0000
vt -0.0020 -0.0205
vt -0.0049 -0.0205
vt 0.0020 0.0010
vt -0.0049 -0.0205
vt -0.0020 -0.0010
vt 0.0020 0.0010
vt 0.0020 0.0010
vt -0.0020 -0.0010
vt -0.0049 -0.0205
vt 0.0020 0.0010
vt 0.0020 0.0010
vt 0.0020 0.0010
vt 0.0020 0.0010
vt 0.0020 0.0010
vt -0.0020 -0.0010
vt -0.0020 -0.0010
vt 0.0020 0.0010
vt 0.0000 0.0000
vt 0.0000 0.0000
vt 0.0000 0.0000
vt 0.0000 0.0000
vt 0.0000 0.0000
vt 0.0000 0.0000
vt 0.0000 0.0000
vt -0.0020 0.0010
vt -0.0020 0.0010
vt -0.0020 0.0010
vt -0.0020 0.0010
vt -0.0020 0.0010
vt 0.0020 -0.0010
vt 0.0020 -0.0010
vt 0.0020 -0.0010
vt 0.0020 -0.0010
vt -0.0020 0.0010
vt -0.0020 0.0010
vt -0.0020 0.0010
vt -0.0020 0.0010
vt 0.0020 -0.0010
vt 0.0020 -0.0010
vt -0.0020 0.0010
vt -0.0020 0.0010
vt -0.0020 0.0000
vt 0.0000 0.0000
vt -0.0020 0.0000
vt 0.0000 0.0000
vt 0.0000 0.0000
vt -0.0020 0.0000
vt 0.0000 0.0000
vt 0.0000 0.0000
vt 0.0020 -0.0010
vt 0.0020 -0.0010
vt 0.0020 -0.0010
vt 0.0020 -0.0010
vt -0.0020 0.0010
vt 0.0020 -0.0010
vt -0.0020 0.0010
vt 0.0020 -0.0010
vt 0.0020 -0.0010
vt 0.0020 -0.0010
vt 0.0020 -0.0010
vt -0.0020 0.0010
vt -0.0020 0.0010
vt 0.0020 -0.0010
vt 0.0000 0.0000
vt -0.0020 0.0000
vt -0.0020 0.0000
vt -0.0020 0.0000
vt 0.0000 1.7656
vt -6.5000 0.0000
vt -6.2500 0.0000
vt -6.5000 0.0000
vt -4.0000 0.0000
vt -3.5000 8.0020
vt -3.5000 8.0020
vt -3.5000 8.0020
vt -6.5000 0.0000
vt -6.2500 0.0000
vt -6.5000 0.0000
vt -6.2500 0.0000
vt -6.5000 0.0000
vt -6.2500 0.0000
vt -6.5000 0.0000
vt -6.2500 0.0000
vt -6.5000 0.0000
vt -6.2500 0.0000
vt -6.5000 0.0000
vt -6.2500 0.0000
vt -4.0000 0.0000
vt -6.5000 0.0000
vt -6.2500 0.0000
vt -3.5000 8.0020
vt -3.5000 8.0020
vt -3.5000 8.0020
vt -6.5000 0.0000
vt -6.2500 0.0000
vt -3.5000 8.0020
vt -3.5000 8.0020
vt -3.5000 8.0020
vt -6.2500 0.0000
vt -6.5000 0.0000
vt -6.2500 0.0000
vt -6.5000 0.0000
vt -6.2500 0.0000
vt -6.5000 0.0000
vt -6.2500 0.0000
vt -6.5000 0.0000
vt -6.2500 0.0000
vt -6.5000 0.0000
vt -6.2500 0.0000
vt -6.5000 0.0000
vt -6.2500 0.0000
vt -4.0000 0.0000
vt -6.5000 0.0000
vt -6.2500 0.0000
vt -3.5000 8.0020
vt -3.5000 8.0020
vt -3.5000 8.0020
f 25/25 13/13 26/26
f 14/14 13/13 25/25
f 27/27 17/17 18/18
f 27/27 18/18 28/28
f 29/29 23/23 30/30
f 30/30 23/23 24/24
f 13/13 14/14 19/19
f 20/20 13/13 19/19
f 1/1 7/7 8/8
f 2/2 7/7 1/1
f 3/3 9/9 4/4
f 9/9 10/10 4/4
f 13/13 14/14 5/5
f 5/5 14/14 6/6
f 1/1 5/5 2/2
f 1/1 6/6 5/5
