# Conker's Bad Fur Day — Real 3D Model (Multiplayer Level Models)
o assets09_model_039

v 0.0000 4.5600 0.0000
v 0.7800 3.9800 -0.0100
v 0.6900 2.0100 -0.0100
v 16.4600 4.1500 -0.0100
v 16.3800 2.1800 -0.0100
v 16.7300 3.5800 -0.0100
v 0.2200 3.6200 -0.0100
v 16.7300 4.2400 -0.0100
v 0.2200 4.2800 -0.0100
v 20.7400 2.5100 -0.0100
v 22.4700 3.2300 -0.0100
v 20.7400 2.5100 -0.0100
v 24.1100 2.1100 -0.0100
v 5.7900 2.6700 -0.0100
v 2.1500 1.3000 -0.0100
v 4.8500 0.9100 -0.0100
v 1.4100 3.3000 -0.0100
v 3.6600 4.1500 -0.0100
v -28.0000 0.0000 17.9200
v -33.2800 0.0000 18.2300
v -28.1600 2.5600 15.3600
v -7.5200 0.0000 0.6400
vt 0.0000 0.0000
vt -0.0049 0.0068
vt 0.0049 0.0068
vt -0.0049 0.0068
vt -0.0049 0.0068
vt -0.0049 0.0068
vt -0.0078 -0.0029
vt 0.0049 0.0068
vt 0.0000 0.0000
vt 0.0000 0.0000
vt 0.0000 0.0000
vt 0.0000 0.0000
vt -0.0078 -0.0029
vt 0.0078 -0.0029
vt 0.0000 -0.0088
vt 0.0049 0.0068
vt -0.0049 0.0068
vt 0.0000 0.4531
vt -6.5000 0.0000
vt -6.2500 0.0000
vt -6.5000 0.0000
vt -4.0000 0.0000
f 1/1 2/2 3/3
f 4/4 5/5 6/6
f 7/7 8/8 9/9
f 10/10 11/11 12/12
f 13/13 14/14 15/15
f 16/16 17/17 18/18
f 19/19 20/20 21/21
