# Conker's Bad Fur Day — Real 3D Model (Sloprano Models)
o assets0E_model_067

v 20.4900 0.0000 0.0000
v 20.4800 0.0000 0.0000
v 20.4800 0.0000 0.0000
v 20.4800 0.0000 0.0000
v 20.4800 0.0000 0.0000
v 20.4800 0.0000 0.0000
v 20.4800 0.0000 0.0000
v 20.4800 0.0000 0.0000
v 20.4800 0.0000 0.0000
v 20.4800 0.0000 0.0000
v 20.4800 0.0000 0.0000
vt 0.0000 0.1006
vt 0.0000 0.1006
vt 0.0000 0.1006
vt 0.0000 0.1006
vt 0.0000 0.1006
vt 0.0000 0.1006
vt 0.0000 0.1006
vt 0.0000 0.0967
vt 0.0000 0.0967
vt 0.0000 -31.9033
vt 0.0000 0.0967
f 1/1 1/1 1/1
