# Conker's Bad Fur Day — Real 3D Model (Multiplayer Level Models)
o assets09_model_330

v 0.0000 4.4000 0.0000
v -27.3600 0.0000 17.9200
v -27.4400 20.4800 0.0900
v -7.5200 0.0000 0.6400
v 15.3600 5.1600 0.0600
v -6.8800 0.0000 0.0000
v -7.5200 0.0000 0.6400
v -6.8800 0.0000 0.0000
v -27.4400 20.4800 0.0900
v -7.5200 0.0000 0.6400
v -6.8800 0.0000 0.0000
v -27.4400 25.6000 0.0900
v -7.5200 0.0000 0.6400
v 0.8800 0.0000 0.0000
vt 0.0000 0.0000
vt -3.2500 0.0000
vt -3.4375 9.0020
vt -2.6562 0.2500
vt -6.2500 0.0000
vt -3.2500 0.0000
vt -6.5000 0.0000
vt -3.2500 0.0000
vt -3.4375 9.0020
vt -6.5000 0.0000
vt -3.2500 0.0000
vt -3.4375 9.0020
vt -6.5000 0.0000
vt 0.0000 0.0000
f 1/1 2/2 3/3
f 4/4 2/2 1/1
f 11/11 12/12 13/13
