# Conker's Bad Fur Day — Real 3D Model (Multiplayer Level Models)
o assets09_model_015

v 0.0000 1.3600 0.0000
v 13.5100 7.9500 -2.5800
v 10.3300 1.2700 -2.5800
v 15.6700 2.0400 -2.5800
v 19.7200 8.1500 -2.5800
v 7.1400 7.9500 -2.5800
v 0.9500 8.1600 -2.5800
v 5.0200 2.0800 -2.5800
v -28.0000 0.0000 17.9200
v -33.2800 0.0000 18.5500
v -28.1600 2.5600 15.3600
v -7.5200 0.0000 0.6400
v 12.8000 20.5000 0.0000
vt 0.0000 0.0000
vt 0.0000 0.0000
vt 0.0146 0.0049
vt 0.0264 0.0205
vt -0.0088 0.0156
vt -0.0264 0.0205
vt -0.0146 0.0049
vt 0.0000 0.1406
vt -6.5000 0.0000
vt -6.2500 0.0000
vt -6.5000 0.0000
vt -4.0000 0.0000
vt -8.2500 0.0000
f 1/1 5/5 2/2
