mtllib assets0E_model_002.mtl
# Conker's Bad Fur Day — Real 3D Model (Sloprano Models)
o assets0E_model_002
usemtl assets0E_model_002_mat

v 20.4800 0.0000 0.0000
v 20.4900 0.0000 0.0000
v 20.4900 0.0000 0.0000
v 20.4900 0.0000 0.0000
v 20.4900 0.0000 0.0000
v 20.4800 0.0000 0.0000
v 20.4800 0.0000 0.0000
v 20.4800 0.0000 0.0000
v 20.5000 0.0000 0.0000
v 20.5000 0.0000 0.0000
v 20.5000 0.0000 0.0000
v 20.5000 0.0000 0.0000
v 20.4800 0.0000 0.0000
v 20.4800 0.0000 0.0000
v 20.4800 0.0000 0.0000
v 20.5200 0.0000 0.0000
v 20.5100 0.0000 0.0000
v 20.5100 0.0000 0.0000
v 20.5100 0.0000 0.0000
v 20.5100 0.0000 0.0000
v 0.3200 2.8100 -2.5600
v 0.3200 2.8100 -2.5600
v 20.4800 0.0000 0.0000
v 20.4800 0.0000 0.0000
v 20.4800 0.0000 0.0000
v 20.4800 0.0000 0.0000
v 20.4800 0.0000 0.0000
v 20.4800 0.0000 0.0000
v 20.4800 0.0000 0.0000
v 20.4800 0.0000 0.0000
v 20.4800 0.0000 0.0000
v 20.4800 0.0000 0.0000
vt 0.0312 0.5635
vt 0.0312 0.0947
vt 0.0312 0.0947
vt 0.0312 0.0947
vt 0.0312 0.0947
vt 0.0000 0.0635
vt 0.0000 0.0635
vt 0.0078 0.0195
vt 0.0000 0.0947
vt 0.0000 0.0947
vt 0.0000 0.0947
vt 0.0000 0.0947
vt 0.0000 0.0635
vt 0.0312 0.0635
vt 0.0312 0.0635
vt 0.0000 0.1006
vt 0.0000 0.0674
vt 0.0000 0.0674
vt 0.0000 0.0674
vt 0.0000 0.0674
vt 0.1426 -2.0088
vt 0.0742 2.0361
vt 0.0000 -31.4346
vt 0.0000 0.5654
vt 0.0000 0.5654
vt 0.0000 0.0635
vt 0.0000 0.0635
vt 0.0000 0.0635
vt 0.0000 0.0635
vt 0.0000 0.0635
vt 0.0000 0.0635
vt 0.0000 0.5654
f 1/1 1/1 1/1
