mtllib assets09_model_125.mtl
# Conker's Bad Fur Day — Real 3D Model (Multiplayer Level Models)
o assets09_model_125
usemtl assets09_model_125_mat

v 0.0000 8.2400 0.0000
v 3.6600 7.8800 -0.0100
v 6.7800 7.8300 -0.0100
v 6.6100 0.4300 -0.0100
v 2.1900 7.9300 -0.0100
v 3.8500 7.9400 -0.0100
v 6.9600 7.8900 -0.0100
v 6.7600 0.4800 -0.0100
v 8.4300 7.8400 -0.0100
v 7.9100 0.4400 -0.0100
v 3.1400 9.3200 -0.0100
v 7.1900 9.2500 -0.0100
v 1.2300 9.3800 -0.0100
v 3.3800 9.3900 -0.0100
v 7.4300 9.3300 -0.0100
v 9.3400 9.2600 -0.0100
v 7.3900 4.3100 -0.0100
v 3.5200 4.3000 -0.0100
v 5.4300 0.5700 -0.0100
v 1.5800 4.3000 -0.0100
v 3.5200 4.3000 -0.0100
v 7.3900 4.3100 -0.0100
v 9.3200 4.3100 -0.0100
v 4.2400 3.5600 -0.0100
v 4.2400 3.5600 -0.0100
v 2.3200 6.1900 -0.0100
v 2.3200 6.1900 -0.0100
v 3.9100 5.6100 -0.0100
v 3.9100 5.6100 -0.0100
v 5.7300 7.9400 -0.0100
v 5.7300 7.9400 -0.0100
v 5.7300 7.9400 -0.0100
v 8.9500 5.6000 -0.0100
v 8.9500 5.6000 -0.0100
v 8.9500 5.6000 -0.0100
v 8.9500 5.6000 -0.0100
v -28.0000 0.0000 17.9200
v -33.2800 0.0000 18.2300
v -28.1600 2.5600 15.3600
v -7.5200 0.0000 0.6400
v -28.0800 20.4800 0.0900
v -7.5200 0.0000 0.6400
v -7.5200 0.0000 0.6400
v 0.8100 0.0000 0.0000
v 0.2400 0.2400 0.2400
vt 0.0000 0.0000
vt -0.0117 -0.0674
vt -0.0166 -0.0479
vt -0.0312 -0.0352
vt -0.0312 -0.0400
vt -0.0459 -0.0479
vt -0.0459 -0.0654
vt -0.0312 -0.0791
vt -0.0312 -0.0742
vt -0.0068 -0.0430
vt -0.0068 -0.0713
vt -0.0312 -0.0283
vt -0.0557 -0.0430
vt -0.0557 -0.0713
vt -0.0312 -0.0850
vt -0.0068 -0.0713
vt -0.0068 -0.0430
vt -0.0312 -0.0566
vt -0.0312 -0.0283
vt -0.0557 -0.0430
vt -0.0557 -0.0713
vt -0.0312 -0.0850
vt -0.0273 -0.0439
vt -0.0312 -0.0449
vt -0.0273 -0.0439
vt -0.0352 -0.0029
vt -0.0312 -0.0137
vt -0.0312 -0.0137
vt -0.0352 -0.0195
vt -0.0273 -0.0195
vt -0.0312 -0.0215
vt -0.0273 -0.0420
vt -0.0352 -0.0420
vt -0.0352 -0.0420
vt -0.0312 -0.0391
vt 0.0000 0.8125
vt -6.5000 0.0000
vt -6.2500 0.0000
vt -6.5000 0.0000
vt -4.0000 0.0000
vt -3.5000 8.0020
vt -4.0000 0.0000
vt -4.0000 0.0000
vt 0.0000 0.0000
vt -27.0117 -27.0107
f 24/24 25/25 21/21
f 25/25 19/19 21/21
