mtllib assets0E_model_016.mtl
# Conker's Bad Fur Day — Real 3D Model (Sloprano Models)
o assets0E_model_016
usemtl assets0E_model_016_mat

v 0.3200 2.5800 30.7200
v 20.4800 0.0000 0.0000
v 20.4800 0.0000 0.0000
v 20.4800 0.0000 0.0000
v 20.4800 0.0000 0.0000
v 20.4800 0.0000 0.0000
v 20.4800 0.0000 0.0000
v 20.4800 0.0000 0.0000
v 20.4800 0.0000 0.0000
v 20.4800 0.0000 0.0000
vt 0.0283 0.1025
vt 0.0000 0.5967
vt 0.0000 -31.4033
vt 0.0000 -31.4033
vt 0.0000 -31.4033
vt 0.0000 -31.4033
vt 0.0000 -31.4033
vt 0.0000 -31.4033
vt 0.0000 0.5967
vt 0.0000 -31.4033
f 1/1 1/1 1/1
