mtllib assets09_model_059.mtl
# Conker's Bad Fur Day — Real 3D Model (Multiplayer Level Models)
o assets09_model_059
usemtl assets09_model_059_mat

v 0.0000 14.8000 0.0000
v 1.4400 6.8900 -2.5800
v 1.5500 4.4200 -2.5800
v 6.5200 6.0400 -2.5800
v 6.5900 4.3800 -2.5800
v 1.6600 1.9500 -2.5800
v 1.5500 4.4200 -2.5800
v 6.6700 2.7200 -2.5800
v 6.5900 4.3800 -2.5800
v 1.1300 8.5300 -2.5800
v 1.1400 9.9000 -2.5800
v 9.5100 6.4400 -2.5800
v 9.5200 6.9800 -2.5800
v 1.1300 8.5300 -2.5800
v 9.5100 6.4400 -2.5800
v 1.1100 5.2100 -2.5800
v 9.5000 5.1100 -2.5800
v 9.5000 3.7900 -2.5800
v 1.0800 1.9000 -2.5800
v 1.0800 0.5300 -2.5800
v 9.4900 3.2400 -2.5800
v 9.5000 3.7900 -2.5800
v 1.0800 1.9000 -2.5800
v 1.1100 5.2100 -2.5800
v 9.5000 5.1100 -2.5800
v 1.5500 4.4200 -2.5800
v 1.6600 1.9500 -2.5800
v 1.7000 8.8300 -2.5800
v 5.2200 7.4900 -2.5800
v 5.2600 10.2300 -2.5800
v 2.9500 5.3100 -2.5800
v 5.2200 7.4900 -2.5800
v 8.7700 8.7300 -2.5800
v 5.2200 7.4900 -2.5800
v 7.4300 5.2500 -2.5800
v 8.7700 8.7300 -2.5800
v 10.1900 5.2100 -2.5800
v 8.6800 1.7300 -2.5800
v 5.1600 3.0600 -0.0100
v 5.1200 0.3200 -2.5800
v 1.6100 1.8200 -2.5800
v 2.9500 5.3100 -0.0100
v 2.9500 5.3100 -2.5800
v 0.1900 5.3400 -2.5800
v 2.9500 5.3100 -2.5800
v 1.7000 8.8300 -2.5800
v 0.0000 5.1200 -2.5800
v 0.0000 0.0000 -2.5800
v 5.1200 5.1200 -2.5800
v 5.1200 0.0000 -2.5800
v 4.9900 3.5300 -2.5800
v 0.4400 4.4900 -2.5800
v 4.9800 2.4300 -2.5800
v 0.4200 2.4700 -2.5800
v 0.4100 0.4600 -2.5800
v 4.9700 1.3300 -2.5800
v 4.9800 2.4300 -2.5800
v 0.4200 2.4700 -2.5800
v 5.1200 0.0000 -2.5800
v 5.1200 5.1200 -2.5800
v 0.0000 5.1200 -2.5800
v 0.0000 0.0000 -2.5800
v 0.2800 1.8700 -2.5800
v 0.5900 3.5200 -2.5800
v 3.6500 1.4800 -2.5800
v 3.9600 3.1300 -2.5800
v 4.2600 4.7900 -2.5800
v 0.8900 5.1800 -2.5800
v 0.5900 3.5200 -2.5800
v 3.9600 3.1300 -2.5800
v 0.0000 10.2400 -2.5800
v 0.0000 0.0000 -2.5800
v 10.2400 10.2400 -2.5800
v 10.2400 0.0000 -2.5800
v 10.2400 0.0000 -2.5800
v 0.0000 0.0000 -2.5800
v 10.2400 10.2400 -2.5800
v 0.0000 10.2400 -2.5800
v 5.1200 0.0000 -2.5800
v 0.0000 5.1200 -2.5800
v 5.1200 5.1200 -2.5800
v 0.0000 0.0000 -2.5800
v 5.1200 5.1200 -2.5800
v 5.1200 0.0000 -2.5800
v 0.0000 0.0000 -2.5800
v 0.0000 5.1200 -2.5800
v 5.1200 0.0000 -2.5800
v 5.1200 5.1200 -2.5800
v 0.0000 5.1200 -2.5800
v 5.1200 5.1200 -2.5800
v -28.0000 0.0000 17.9200
v -33.2800 0.0000 18.2300
v -28.1600 2.5600 15.3600
v -7.5200 0.0000 0.6400
v 2.5800 0.6400 2.5600
v -7.5200 0.0000 0.0000
v -33.2800 0.0000 18.2300
v -7.5200 0.0000 0.0000
v -33.2800 0.0000 17.9900
v -28.0800 10.2400 0.0100
v -7.5200 0.0000 0.0000
v -33.2800 0.0000 17.9900
v -7.5200 0.0000 0.6400
v -7.5200 0.0000 0.6400
v -7.5200 0.0000 0.6400
v -7.5200 0.0000 0.6400
vt 0.0000 0.0000
vt 0.0557 -0.0166
vt 0.0879 -0.0039
vt 0.0879 -0.0127
vt 0.0557 -0.0039
vt 0.0557 0.0098
vt 0.0879 -0.0039
vt 0.0879 0.0049
vt 0.0957 -0.0293
vt 0.0957 -0.0039
vt 0.0352 -0.0117
vt 0.0352 -0.0039
vt 0.0957 0.0215
vt 0.0352 0.0049
vt 0.0957 0.0322
vt 0.0352 0.0078
vt 0.0352 0.0049
vt 0.0957 0.0215
vt 0.0957 -0.0039
vt 0.0352 -0.0039
vt 0.0352 -0.0117
vt 0.0957 -0.0293
vt 0.0957 -0.0400
vt 0.0352 -0.0156
vt 0.0557 0.0098
vt 0.0557 -0.0039
vt 0.0957 -0.0293
vt 0.0557 -0.0039
vt 0.0957 -0.0039
vt 0.0557 -0.0166
vt 0.0557 -0.0039
vt 0.0957 0.0215
vt 0.0557 -0.0039
vt 0.0557 0.0098
vt 0.0957 0.0215
vt 0.0957 0.0322
vt 0.0957 0.0215
vt 0.0557 0.0098
vt 0.0957 -0.0039
vt 0.0957 -0.0293
vt 0.0557 -0.0166
vt 0.0557 -0.0166
vt 0.0957 -0.0400
vt 0.0557 -0.0166
vt 0.0957 -0.0293
vt 0.0879 -0.0127
vt 0.0879 -0.0039
vt 0.0879 -0.0039
vt 0.0879 0.0049
vt 0.0049 -0.0039
vt -0.0117 -0.0039
vt 0.0049 -0.0088
vt -0.0117 -0.0127
vt -0.0117 -0.0039
vt 0.0049 -0.0039
vt 0.0049 0.0010
vt -0.0117 0.0049
vt -0.0117 -0.0039
vt -0.0117 -0.0127
vt -0.0117 -0.0039
vt -0.0117 0.0049
vt 0.0107 -0.0039
vt 0.0166 -0.0098
vt 0.0107 -0.0039
vt 0.0166 -0.0098
vt 0.0225 -0.0039
vt 0.0225 -0.0039
vt 0.0166 0.0020
vt 0.0166 0.0020
vt 0.0352 0.0088
vt 0.0352 0.0088
vt 0.0049 0.0088
vt 0.0049 0.0088
vt 0.0049 -0.0166
vt 0.0352 -0.0166
vt 0.0049 -0.0166
vt 0.0352 -0.0166
vt 0.0352 0.0088
vt 0.0352 -0.0166
vt 0.0352 0.0088
vt 0.0352 0.0088
vt 0.0049 -0.0166
vt 0.0049 0.0088
vt 0.0049 -0.0166
vt 0.0049 -0.0166
vt 0.0049 0.0088
vt 0.0049 0.0088
vt 0.0352 -0.0166
vt 0.0049 -0.0166
vt 0.0000 1.4531
vt -6.5000 0.0000
vt -6.2500 0.0000
vt -6.5000 0.0000
vt -4.0000 0.0000
vt 4.7695 -27.8379
vt -6.5000 0.0000
vt -6.2500 0.0000
vt -6.5000 0.0000
vt -6.2500 0.0000
vt -3.5000 8.0020
vt -6.5000 0.0000
vt -6.2500 0.0000
vt -4.0000 0.0000
vt -4.0000 0.0000
vt -4.0000 0.0000
vt -4.0000 0.0000
f 27/27 28/28 29/29
f 28/28 27/27 30/30
f 29/29 31/31 32/32
f 13/13 14/14 15/15
f 16/16 17/17 18/18
f 18/18 17/17 19/19
f 9/9 10/10 11/11
f 12/12 9/9 11/11
f 6/6 2/2 1/1
f 7/7 6/6 1/1
