mtllib assets10_model_015.mtl
# Conker's Bad Fur Day — Real 3D Model (Spooky Models)
o assets10_model_015
usemtl assets10_model_015_mat

v 0.0000 1.1200 0.0000
v 0.0000 1.4400 0.0000
v 0.0000 1.7600 0.0000
v 0.0000 2.0800 0.0000
v 0.0000 2.4000 0.0000
v 0.0000 2.7200 0.0000
v 0.2500 0.0000 5.0400
v 0.9400 0.0000 4.7100
v 0.7100 0.0000 5.7300
v -0.5900 0.0000 5.5900
v -0.7000 0.0000 4.3200
v -0.0900 0.0000 3.9000
v -0.1900 0.0000 6.4100
v -0.2600 0.0000 4.3700
v -0.9800 0.0000 4.9100
v 0.0000 0.5000 0.0000
vt 0.0000 0.1250
vt 0.0000 0.1562
vt 0.0000 0.1875
vt 0.0000 0.2188
vt 0.0000 0.2500
vt 0.0000 0.0000
vt 0.0244 0.0000
vt 0.0918 0.0000
vt 0.0693 0.0000
vt -0.0576 0.0000
vt -0.0684 0.0000
vt -0.0088 0.0000
vt -0.0186 0.0000
vt -0.0254 0.0000
vt -0.0957 0.0000
vt 0.0000 0.0488
f 1/1 2/2 3/3
f 4/4 5/5 6/6
f 7/7 8/8 9/9
f 10/10 11/11 12/12
f 13/13 14/14 15/15
