mtllib assets09_model_261.mtl
# Conker's Bad Fur Day — Real 3D Model (Multiplayer Level Models)
o assets09_model_261
usemtl assets09_model_261_mat

v 0.0000 23.2800 0.0000
v 2.5800 0.6400 0.0000
v -6.8800 0.0000 0.0000
v -33.2800 0.0000 18.5500
v -27.2000 2.5600 15.3600
v -6.8800 0.0000 0.0000
v -7.5200 0.0000 0.6400
v 2.5800 0.6400 0.0000
v -6.8800 0.0000 0.0000
v -27.4400 20.4800 0.0900
v -7.5200 0.0000 0.6400
v -6.8800 0.0000 0.0000
v -7.5200 0.0000 0.6400
v -6.8800 0.0000 0.0000
v -7.5200 0.0000 0.6400
v 2.5800 0.6400 0.0000
v -33.2800 0.0000 18.3500
v -6.8800 0.0000 0.0000
v -27.4400 20.4800 0.0100
vt 0.0000 0.0000
vt 4.1250 -28.8730
vt -2.6719 0.0000
vt -2.6797 4.0000
vt -6.5000 0.0000
vt -3.2500 0.0000
vt -6.5000 0.0000
vt 4.1484 -27.8076
vt -3.2500 0.0000
vt -3.4375 9.0020
vt -6.5000 0.0000
vt -3.2500 0.0000
vt -6.5000 0.0000
vt -3.2500 0.0000
vt -6.5000 0.0000
vt 4.9062 -27.8379
vt -2.6797 1.1250
vt -3.2500 0.0000
vt -0.7344 0.0000
f 11/11 6/6 12/12
f 12/12 6/6 7/7
f 13/13 15/15 17/17
f 14/14 13/13 10/10
f 17/17 18/18 19/19
f 6/6 9/9 7/7
f 9/9 11/11 10/10
f 10/10 11/11 7/7
