# Conker's Bad Fur Day — Real 3D Model (Multiplayer Level Models)
o assets09_model_159

v 0.0000 5.6800 0.0000
v 0.0000 0.0000 -0.0100
v 0.0000 0.0000 -0.0100
v 0.0000 0.0000 -0.0100
v 0.0000 0.0000 -0.0100
v 0.0000 0.0000 -0.0100
v 0.0000 0.0000 -0.0100
v 0.0000 0.0000 -0.0100
v 0.0000 0.0000 -0.0100
v 0.0000 0.0000 -0.0100
v 0.0000 0.0000 -0.0100
v 0.0000 0.0000 -0.0100
v 0.0000 0.0000 -0.0100
v 0.0000 0.0000 -0.0100
v 0.0000 0.0000 -0.0100
v 0.0000 0.0000 -0.0100
v 0.0000 0.0000 -0.0100
v 0.0000 0.0000 -0.0100
v 0.0000 0.0000 -0.0100
v 0.0000 0.0000 -0.0100
v 0.0000 0.0000 -0.0100
v 0.0000 0.0000 -0.0100
v 0.0000 0.0000 -0.0100
v 0.0000 0.0000 -0.0100
v 0.0000 0.0000 -0.0100
v 0.0000 0.0000 -0.0100
v 0.0000 0.0000 -0.0100
v 1.9000 -4.3200 -0.0100
v 7.5700 -4.3600 -0.0100
v 1.9500 25.2500 -0.0100
v 7.6200 25.2100 -0.0100
v 13.2400 -4.4000 -0.0100
v 13.2900 25.1700 -0.0100
v 18.9100 -4.4300 -0.0100
v 18.9500 25.1400 -0.0100
v -28.0000 0.0000 17.9200
v -33.2800 0.0000 18.3400
v -28.1600 2.5600 15.3600
v -7.5200 0.0000 0.6400
v -28.0800 11.5200 2.5700
v -28.0800 6.7200 5.1200
v -28.0800 6.8000 7.6800
v -7.5200 0.0000 1.2800
vt 0.0000 0.5586
vt -0.0205 0.0088
vt -0.0107 0.0088
vt -0.0107 -0.0771
vt -0.0107 0.0088
vt 0.0107 -0.0771
vt 0.0107 0.0088
vt 0.0205 -0.0771
vt 0.0205 0.0088
vt 0.0107 -0.0771
vt 0.0107 0.0088
vt -0.0107 -0.0771
vt 0.0059 0.0205
vt -0.0059 0.0205
vt -0.0127 0.0205
vt -0.0059 0.0205
vt 0.0059 0.0205
vt 0.0127 0.0205
vt 0.0000 0.0371
vt -0.0078 0.0371
vt 0.0000 0.0371
vt 0.0078 0.0371
vt 0.0000 0.0508
vt -0.0078 0.0508
vt 0.0000 0.0508
vt 0.0078 0.0508
vt -0.0205 -0.0771
vt -0.0107 -0.0771
vt -0.0205 0.0088
vt -0.0107 0.0088
vt 0.0107 -0.0771
vt 0.0107 0.0088
vt 0.0205 -0.0771
vt 0.0205 0.0088
vt 0.0000 0.5781
vt -6.5000 0.0000
vt -6.2500 0.0000
vt -6.5000 0.0000
vt -4.0000 0.0000
vt -3.5000 8.0020
vt -3.5000 8.0020
vt -3.5000 8.0020
vt -4.0000 0.0000
f 5/5 7/7 6/6
f 7/7 8/8 6/6
