mtllib assets09_model_160.mtl
# Conker's Bad Fur Day — Real 3D Model (Multiplayer Level Models)
o assets09_model_160
usemtl assets09_model_160_mat

v 0.0000 3.1200 0.0000
v 10.2400 0.0000 -0.0100
v 10.2400 5.0900 -0.0100
v 10.2400 5.0900 -0.0100
v 10.2400 0.0000 -0.0100
v 3.4100 0.0500 -0.0100
v 3.4100 5.0900 -0.0100
v 6.8300 0.0000 -0.0100
v 6.8300 5.0900 -0.0100
v 6.8300 0.0500 -0.0100
v 6.8300 5.0900 -0.0100
v 6.8300 0.0500 -0.0100
v 3.4100 5.0900 -0.0100
v 6.8300 0.0000 -0.0100
v 3.4100 0.0500 -0.0100
v 0.0000 0.0000 -0.0100
v 0.0000 5.0900 -0.0100
v 0.0000 5.0900 -0.0100
v 0.0000 0.0000 -0.0100
v -28.0000 0.0000 17.9200
v -33.2800 0.0000 18.0700
v -28.1600 2.5600 15.3600
v -7.5200 0.0000 0.6400
v -7.5200 0.0000 0.6400
vt 0.0000 0.3086
vt -0.0195 0.0264
vt -0.0195 0.0264
vt 0.0195 0.0264
vt 0.0176 -0.0127
vt -0.0176 -0.0127
vt 0.0176 0.0127
vt -0.0176 0.0127
vt 0.0176 0.0127
vt -0.0176 0.0127
vt 0.0176 0.0127
vt -0.0176 -0.0127
vt 0.0176 0.0127
vt 0.0176 -0.0127
vt 0.0205 -0.0264
vt -0.0186 -0.0264
vt -0.0186 -0.0264
vt 0.0205 -0.0264
vt 0.0000 0.3750
vt -6.5000 0.0000
vt -6.2500 0.0000
vt -6.5000 0.0000
vt -4.0000 0.0000
vt -4.0000 0.0000
f 1/1 8/8 9/9
f 1/1 2/2 8/8
f 17/17 12/12 14/14
f 17/17 14/14 18/18
