mtllib assets09_model_031.mtl
# Conker's Bad Fur Day — Real 3D Model (Multiplayer Level Models)
o assets09_model_031
usemtl assets09_model_031_mat

v 0.0000 15.7600 0.0000
v -0.4500 7.0800 -0.0100
v 10.9900 7.0000 -0.0100
v 5.3500 11.1400 -0.0100
v 1.6000 0.4300 -0.0100
v 8.6800 0.3800 -0.0100
v 0.0000 10.3100 -0.0100
v 0.0000 0.0000 -0.0100
v 2.6100 0.0000 -0.0100
v 2.6100 10.3100 -0.0100
v 5.1200 0.0000 -0.0100
v 5.1200 10.3100 -0.0100
v 2.6100 0.0000 -0.0100
v 2.6100 10.3100 -0.0100
v 2.3600 9.6400 -0.0100
v -0.3200 5.0700 -0.0100
v 2.2700 0.5300 -0.0100
v 7.5300 0.5600 -0.0100
v 7.6200 9.6700 -0.0100
v 10.2000 5.1300 -0.0100
v 7.1000 7.8700 -0.0100
v 3.0500 7.8700 -0.0100
v 3.0900 0.2300 -0.0100
v 7.1400 0.2300 -0.0100
v 9.1200 7.8800 -0.0100
v 9.1700 0.2400 -0.0100
v 7.1000 7.8700 -0.0100
v 7.1400 0.2300 -0.0100
v 3.0500 7.8700 -0.0100
v 3.0900 0.2300 -0.0100
v 1.0200 7.8600 -0.0100
v 1.0700 0.2200 -0.0100
v 5.9000 9.3400 -0.0100
v 4.2300 9.3400 -0.0100
v 6.7400 9.3400 -0.0100
v 5.9000 9.3400 -0.0100
v 4.2300 9.3400 -0.0100
v 3.3900 9.3400 -0.0100
v 0.0000 0.0000 -0.0100
v 0.0000 0.0000 -0.0100
v 0.0000 0.0000 -0.0100
v 0.0000 0.0000 -0.0100
v 0.0000 0.0000 -0.0100
v 0.0000 0.0000 -0.0100
v 0.0000 0.0000 -0.0100
v 0.0000 0.0000 -0.0100
v 0.0000 0.0000 -0.0100
v 0.0000 0.0000 -0.0100
v 0.0000 0.0000 -0.0100
v 0.0000 0.0000 -0.0100
v 0.0000 0.0000 -0.0100
v 0.0000 0.0000 -0.0100
v 0.0000 0.0000 -0.0100
v 0.0000 0.0000 -0.0100
v 0.0000 0.0000 -0.0100
v 0.0000 0.0000 -0.0100
v 0.0000 0.0000 -0.0100
v 0.0000 0.0000 -0.0100
v 0.0000 0.0000 -0.0100
v 0.0000 0.0000 -0.0100
v 0.0000 0.0000 -0.0100
v 0.0000 0.0000 -0.0100
v 0.0000 0.0000 -0.0100
v 0.0000 0.0000 -0.0100
v 0.0000 0.0000 -0.0100
v 0.0000 0.0000 -0.0100
v 0.0000 0.0000 -0.0100
v 0.0000 0.0000 -0.0100
v 0.0000 0.0000 -0.0100
v 0.0000 0.0000 -0.0100
v 0.0000 0.0000 -0.0100
v 0.0000 0.0000 -0.0100
v 0.0000 0.0000 -0.0100
v 0.0000 0.0000 -0.0100
v 0.0000 0.0000 -0.0100
v 0.0000 0.0000 -0.0100
v 0.0000 0.0000 -0.0100
v 0.0000 0.0000 -0.0100
v 0.0000 0.0000 -0.0100
v 0.0000 0.0000 -0.0100
v 0.0000 0.0000 -0.0100
v 0.0000 0.0000 -0.0100
v 0.0000 0.0000 -0.0100
v 0.0000 0.0000 -0.0100
v 0.0000 0.0000 -0.0100
v 0.0000 0.0000 -0.0100
v 0.0000 0.0000 -0.0100
v 0.0000 0.0000 -0.0100
v 0.0000 0.0000 -0.0100
v 0.0000 0.0000 -0.0100
v 0.0000 0.0000 -0.0100
v 0.0000 0.0000 -0.0100
v 0.0000 0.0000 -0.0100
v 0.0000 0.0000 -0.0100
v 0.0000 0.0000 -0.0100
v 0.0000 0.0000 -0.0100
v 0.0000 0.0000 -0.0100
v 0.0000 0.0000 -0.0100
v -28.0000 0.0000 17.9200
v -33.2800 0.0000 18.2300
v -28.1600 2.5600 15.3600
v -7.5200 0.0000 0.6400
v 12.8000 15.3800 0.0000
v -7.5200 0.0000 0.0000
v -33.2800 0.0000 17.9900
v -28.0800 10.2400 0.0100
v 15.4400 10.3600 0.0400
v -7.5200 0.0000 0.0000
v -33.2800 0.0000 18.2300
v -28.0800 20.4800 0.0100
v -7.5200 0.0000 0.0000
v -33.2800 0.0000 18.2300
v -7.5200 0.0000 0.0000
v -33.2800 0.0000 18.2300
vt 0.0000 0.0000
vt 0.0088 -0.1104
vt -0.0049 -0.1094
vt -0.0127 -0.1084
vt 0.0039 -0.1104
vt 0.0039 -0.0107
vt 0.0039 -0.0107
vt -0.0039 -0.0186
vt -0.0039 -0.0186
vt 0.0029 -0.0264
vt 0.0029 -0.0264
vt 0.0098 -0.0195
vt 0.0098 -0.0195
vt -0.0166 -0.0430
vt 0.0020 -0.0352
vt 0.0186 -0.0469
vt 0.0166 -0.0664
vt -0.0186 -0.0635
vt -0.0020 -0.0752
vt -0.0186 -0.0635
vt -0.0166 -0.0430
vt -0.0166 -0.0430
vt -0.0186 -0.0635
vt -0.0020 -0.0752
vt -0.0020 -0.0752
vt 0.0166 -0.0664
vt 0.0166 -0.0664
vt 0.0186 -0.0469
vt 0.0186 -0.0469
vt 0.0020 -0.0352
vt 0.0020 -0.0352
vt -0.0078 -0.0586
vt -0.0068 -0.0498
vt -0.0010 -0.0635
vt 0.0068 -0.0596
vt 0.0078 -0.0518
vt 0.0010 -0.0469
vt 0.0010 -0.0469
vt 0.0049 -0.0459
vt 0.0078 -0.0518
vt -0.0029 -0.0459
vt -0.0068 -0.0498
vt -0.0059 -0.0547
vt -0.0078 -0.0586
vt -0.0049 -0.0635
vt -0.0010 -0.0615
vt -0.0010 -0.0635
vt 0.0068 -0.0596
vt 0.0029 -0.0645
vt 0.0059 -0.0557
vt 0.0000 -0.0547
vt 0.0010 -0.0488
vt 0.0088 -0.1104
vt -0.0020 -0.0732
vt -0.0049 -0.1094
vt 0.0020 -0.0732
vt 0.0039 -0.1104
vt -0.0020 -0.0732
vt -0.0127 -0.1084
vt 0.0020 -0.0273
vt 0.0059 -0.0244
vt 0.0059 -0.0352
vt 0.0020 -0.0352
vt -0.0020 -0.0352
vt -0.0010 -0.0234
vt 0.0020 -0.0352
vt 0.0029 -0.0215
vt -0.0010 -0.0635
vt 0.0039 -0.0107
vt -0.0039 -0.0186
vt 0.0029 -0.0215
vt -0.0010 -0.0234
vt 0.0029 -0.0264
vt 0.0020 -0.0273
vt 0.0059 -0.0244
vt 0.0098 -0.0195
vt -0.0049 -0.0732
vt -0.0020 -0.0732
vt -0.0127 -0.1084
vt -0.0186 -0.1084
vt -0.0020 -0.0732
vt -0.0049 -0.1094
vt -0.0020 -0.0352
vt 0.0020 -0.0352
vt 0.0010 -0.0469
vt -0.0029 -0.0459
vt 0.0010 -0.0488
vt 0.0020 -0.0352
vt 0.0059 -0.0352
vt 0.0049 -0.0459
vt 0.0010 -0.0469
vt -0.0010 -0.0635
vt -0.0049 -0.0635
vt -0.0010 -0.0615
vt 0.0020 -0.0732
vt 0.0029 -0.0645
vt -0.0010 -0.0635
vt 0.0000 1.5469
vt -6.5000 0.0000
vt -6.2500 0.0000
vt -6.5000 0.0000
vt -4.0000 0.0000
vt -6.2500 0.0000
vt -6.5000 0.0000
vt -6.2500 0.0000
vt -3.5000 8.0020
vt -6.2500 0.0000
vt -6.5000 0.0000
vt -6.2500 0.0000
vt -3.5000 8.0020
vt -6.5000 0.0000
vt -6.2500 0.0000
vt -6.5000 0.0000
vt -6.2500 0.0000
f 1/1 2/2 3/3
f 4/4 5/5 2/2
f 1/1 4/4 2/2
f 5/5 3/3 7/7
f 3/3 2/2 7/7
f 13/13 27/27 26/26
f 28/28 26/26 27/27
f 29/29 28/28 27/27
