mtllib assets10_model_004.mtl
# Conker's Bad Fur Day — Real 3D Model (Spooky Models)
o assets10_model_004
usemtl assets10_model_004_mat

v 0.0000 3.2800 0.0000
v 0.0000 4.0800 0.0000
v 0.0000 4.8800 0.0000
v 0.0000 5.4400 0.0000
v 0.0000 5.8400 0.0000
v 0.0000 6.4800 0.0000
v 0.0000 6.9600 0.0000
v 0.0000 8.4000 0.0000
v 0.0000 10.9600 0.0000
v 0.0000 11.2800 0.0000
v 0.0000 11.6000 0.0000
v 0.0000 13.2000 0.0000
v 0.0000 13.6800 0.0000
v 0.0000 14.0800 0.0000
v 0.0000 14.4000 0.0000
v 0.0000 14.7200 0.0000
v 0.0000 15.0400 0.0000
v 0.0000 15.3600 0.0000
v 0.0000 15.6800 0.0000
v 0.0000 16.0000 0.0000
v 2.0100 5.1900 -4.2300
v -4.4200 6.2000 -1.9300
v 2.0100 5.1900 -4.2300
v -4.4200 6.2000 -1.9300
v -2.5200 -0.2700 13.6400
v -8.2600 0.2600 6.0400
v -8.7300 -0.3200 -3.7300
v -2.7300 -0.7200 -14.4400
v 0.2600 -0.2000 -24.1000
v -0.6800 -0.1100 -35.1500
v -2.1600 -0.2900 22.1800
v 7.2600 7.0200 -6.6300
v 7.1400 7.0200 -6.4500
v -12.8000 7.7400 0.1600
v 7.1900 7.8600 -33.9300
v 6.9400 7.8800 -34.0000
v -13.0200 7.9700 -38.1700
v 14.5900 18.0900 36.3800
v 13.3200 18.0900 35.5800
v -21.4200 18.0900 27.5600
vt 0.0000 0.3594
vt 0.0000 0.4453
vt 0.0000 0.5078
vt 0.0000 0.5547
vt 0.0000 0.5859
vt 0.0000 0.6641
vt 0.0000 0.6953
vt 0.0000 0.9453
vt 0.0000 1.0859
vt 0.0000 1.1172
vt 0.0000 1.2656
vt 0.0000 1.3125
vt 0.0000 1.3594
vt 0.0000 1.3906
vt 0.0000 1.4219
vt 0.0000 1.4531
vt 0.0000 1.4844
vt 0.0000 1.5156
vt 0.0000 1.5469
vt -1.6094 -0.1201
vt -0.1953 0.5840
vt 0.6650 0.6768
vt -0.1953 0.5840
vt -1.2891 -0.9014
vt 0.2129 -0.0166
vt -0.1221 0.0000
vt -0.1865 -0.0244
vt -0.7422 -0.0127
vt -0.7842 0.0068
vt -0.6709 -0.0283
vt -0.2578 -0.0713
vt 0.3809 0.6035
vt -1.6406 0.8438
vt -1.6426 0.8457
vt 0.3643 0.7158
vt -1.5605 0.8301
vt -1.5625 0.8301
vt 1.4248 1.7666
vt 1.3008 1.7666
vt -2.0918 1.7666
f 27/27 4/4 9/9
f 27/27 4/4 9/9
