# Conker's Bad Fur Day — Real 3D Model (Multiplayer Level Models)
o assets09_model_022

v 0.0000 10.6400 0.0000
v 9.7000 -1.2300 -2.5800
v 9.6400 9.4200 -2.5800
v 7.1900 -1.2900 -2.5800
v 7.1300 9.3500 -2.5800
v 9.7500 -1.2200 -2.5800
v 9.6800 9.4200 -2.5800
v 7.2100 -1.2900 -2.5800
v 7.1500 9.3500 -2.5800
v 9.7000 -1.2300 -2.5800
v 9.6400 9.4200 -2.5800
v 7.1900 -1.2900 -2.5800
v 7.1300 9.3500 -2.5800
v 0.0000 0.0000 -2.5800
v 0.0000 20.4800 -2.5800
v 20.4800 20.4800 -2.5800
v 20.4800 0.0000 -2.5800
v -28.0000 0.0000 17.9200
v -33.2800 0.0000 18.3400
v -28.1600 2.5600 15.3600
v -7.5200 0.0000 0.6400
v -28.0800 11.5200 2.5700
v -28.0800 6.7200 5.1200
v -28.0800 6.8000 7.6800
v -7.5200 0.0000 0.0000
v -33.2800 0.0000 18.5500
v -28.1600 20.4800 0.0100
vt 0.0000 0.0000
vt 0.0352 -0.0732
vt -0.0127 -0.0537
vt 0.0352 -0.0693
vt -0.0078 -0.0381
vt 0.0234 -0.0918
vt -0.0244 -0.0723
vt 0.0234 -0.0879
vt -0.0195 -0.0557
vt 0.0293 -0.0830
vt 0.0342 -0.0713
vt 0.0293 -0.0781
vt -0.0137 -0.0479
vt -0.0156 -0.0361
vt 0.0039 -0.0059
vt -0.0137 -0.0664
vt 0.0000 1.0469
vt -6.5000 0.0000
vt -6.2500 0.0000
vt -6.5000 0.0000
vt -4.0000 0.0000
vt -3.5000 8.0020
vt -3.5000 8.0020
vt -3.5000 8.0020
vt -6.5000 0.0000
vt -6.2500 0.0000
vt -3.5000 8.0020
f 14/14 3/3 5/5
f 14/14 1/1 1/1
f 14/14 1/1 1/1
f 14/14 3/3 5/5
