# Conker's Bad Fur Day — Real 3D Model (Multiplayer Level Models)
o assets09_model_093

v 0.0000 10.4800 0.0000
v 10.0900 5.9200 -2.5800
v -0.0600 8.2700 -2.5800
v 10.0900 8.1900 -2.5800
v -0.0300 10.5200 -2.5800
v -0.0600 8.2700 -2.5800
v 10.0900 5.9200 -2.5800
v 0.0800 4.1900 -2.5800
v 10.0800 2.2500 -2.5800
v -0.0400 -0.4100 -2.5800
v -0.0900 10.3800 -2.5800
v 0.0000 0.0000 -2.5800
v 10.1500 8.6000 -2.5800
v 10.0800 2.2500 -2.5800
v 0.0800 4.1900 -2.5800
v -0.0400 -0.4100 -2.5800
v 10.2100 2.3900 -2.5800
v 5.6200 3.3200 -2.5800
v -0.3200 3.3300 -2.5800
v 4.3500 -0.0100 -2.5800
v 2.6400 5.3800 -2.5800
v 0.9800 0.0000 -2.5800
v 18.9400 3.2000 -2.5800
v 20.6300 2.7600 -2.5800
v 18.9100 3.7100 -2.5800
v 10.5900 0.2000 -2.5800
v 16.9100 0.4400 -2.5800
v 16.5700 3.6100 -2.5800
v 16.5500 5.7400 -2.5800
v 9.6100 6.0800 -2.5800
v 9.6300 2.9200 -2.5800
v 21.4900 2.0300 -2.5800
v 20.0500 3.1900 -2.5800
v 10.5400 8.8300 -2.5800
v 18.9000 6.6200 -2.5800
v 20.6200 7.5900 -2.5800
v 18.9300 7.1300 -2.5800
v 16.8600 8.9200 -2.5800
v 20.0300 6.3400 -2.5800
v 21.4600 7.5800 -2.5800
v 20.0200 3.7500 -2.5800
v 20.0100 5.7800 -2.5800
v 4.4500 7.2000 -2.5800
v 4.4800 1.5200 -2.5800
v 0.4700 4.2600 -2.5800
v 3.4300 4.3400 -2.5800
v 10.1600 0.8900 -2.5800
v 4.3000 8.2600 -2.5800
v 4.2900 1.7000 -2.5800
v 18.5500 6.5400 -2.5800
v 15.8500 8.8800 -2.5800
v 15.5000 5.2600 -2.5800
v 15.9300 5.2900 -2.5800
v 10.1700 9.3800 -2.5800
v 16.2400 1.3900 -2.5800
v 18.5300 4.0500 -2.5800
v 18.5500 5.2900 -2.5800
v 15.7900 1.6500 -2.5800
v 16.2500 9.2000 -2.5800
v 18.5500 6.5400 -2.5800
v 18.8700 8.2400 -2.5800
v 18.8300 2.3600 -2.5800
v 0.0600 5.1700 -2.5800
v 4.0900 2.2400 -2.5800
v 4.2900 8.1800 -2.5800
v -28.0800 20.4800 0.0100
v -7.5200 0.0000 0.0000
v -7.5200 0.0000 0.6400
v -7.5200 0.0000 0.6400
v -7.5200 0.0000 0.0000
v -33.2800 0.0000 18.5500
v 1.2600 -19.2200 -26.9000
vt 0.0000 0.0000
vt -0.1240 -0.0029
vt -0.1484 -0.0010
vt -0.1240 0.0078
vt -0.1240 -0.0029
vt -0.1484 -0.0176
vt -0.1240 -0.0283
vt -0.1484 -0.0391
vt -0.1240 -0.0547
vt -0.1240 -0.0547
vt -0.1240 -0.0547
vt -0.1484 -0.0391
vt -0.1484 -0.0391
vt -0.1240 -0.0283
vt -0.1240 -0.0547
vt -0.1484 -0.0391
vt -0.1484 -0.0176
vt -0.1484 -0.0176
vt -0.1484 -0.0391
vt -0.1484 -0.0010
vt -0.1484 -0.0391
vt -0.1240 -0.0283
vt -0.1514 0.0039
vt -0.1240 -0.0029
vt 0.0518 -0.0068
vt -0.0664 -0.0049
vt -0.0596 -0.0449
vt -0.0596 -0.0449
vt 0.0693 -0.0420
vt 0.0693 -0.0420
vt -0.1514 0.0039
vt -0.1240 -0.0283
vt 0.0518 -0.0068
vt -0.1240 -0.0029
vt -0.1514 0.0039
vt -0.1240 -0.0283
vt -0.0664 -0.0049
vt -0.1240 -0.0283
vt -0.1514 0.0039
vt -0.1240 -0.0547
vt -0.1240 -0.0547
vt 0.1650 -0.0049
vt 0.1650 -0.0049
vt 0.2393 0.0078
vt 0.1836 -0.0283
vt 0.0518 -0.0068
vt 0.1650 -0.0049
vt 0.1650 -0.0049
vt -0.1240 -0.0029
vt -0.0664 -0.0049
vt -0.0596 -0.0068
vt -0.0596 -0.0068
vt 0.0518 -0.0068
vt -0.0664 -0.0049
vt -0.1240 -0.0029
vt -0.1240 0.0078
vt -0.0664 -0.0049
vt -0.0664 -0.0049
vt -0.1240 -0.0029
vt -0.1514 0.0039
vt -0.1514 0.0039
vt 0.2393 0.0078
vt 0.1650 -0.0049
vt 0.1650 -0.0049
vt 0.0000 1.0312
vt -3.5000 8.0020
vt -2.7344 0.0000
vt -4.0000 0.0000
vt -4.0000 0.0000
vt -6.5000 0.0000
vt -6.2500 0.0000
vt 2.1230 2.6230
f 61/61 1/1 53/53
f 60/60 2/2 32/32
f 25/25 2/2 61/61
f 8/8 2/2 8/8
f 29/29 2/2 9/9
f 45/45 1/1 70/70
f 17/17 18/18 19/19
f 18/18 17/17 20/20
f 18/18 21/21 19/19
f 24/24 9/9 8/8
f 4/4 6/6 9/9
f 24/24 23/23 22/22
