# Conker's Bad Fur Day — Real 3D Model (HUD & UI Props)
o assets01_model_032

v 0.0000 12.7600 0.0000
v 0.0000 19.2000 0.0000
v -0.0900 21.5200 -0.0100
v 9.6800 21.4400 -0.0100
v -0.3200 9.9400 -0.0100
v 9.7800 9.8500 -0.0100
v 10.1700 1.6200 -0.0100
v -0.8000 1.7100 -0.0100
v 5.1300 5.4900 -2.5800
v -0.1600 5.7200 -2.5800
v 5.0700 1.9400 -2.5800
v 1.3200 2.1000 -2.5800
v 10.8000 5.2500 -2.5800
v 9.0700 1.7600 -0.0100
v 20.4500 5.1200 -2.5800
v 18.8500 1.8800 -0.0100
v 10.2700 5.5600 -2.5800
v 11.6500 2.1900 -2.5800
v 1.6100 9.2100 -2.5800
v 5.3500 9.0400 -2.5800
v 9.3600 8.8700 -2.5800
v 19.1100 8.4800 -2.5800
v 17.9300 8.5300 -2.5800
v 13.4800 8.7200 -2.5800
v 11.9100 8.7900 -2.5800
v 5.6000 10.5100 -2.5800
v 15.6200 10.0000 -2.5800
v 5.1000 5.0300 -2.5800
v 0.4800 4.0500 -2.5800
v 6.0400 1.6200 -2.5800
v 2.7700 0.9300 -0.0100
v 10.0400 6.0800 -2.5800
v 9.5300 2.3700 -2.5800
v 20.4000 6.7200 -2.5800
v 19.8900 3.0000 -2.5800
v 10.8300 4.6900 -2.5800
v 13.1200 1.5700 -0.0100
v 1.0300 7.7800 -2.5800
v 4.3000 8.4700 -2.5800
v 7.7900 9.2100 -2.5800
v 18.1400 9.8500 -2.5800
v 17.0300 9.6200 -2.5800
v 12.8500 8.7300 -2.5800
v 11.3800 8.4100 -2.5800
v 4.1000 9.9200 -2.5800
v 14.4500 10.5600 -2.5800
v 0.0000 27.8800 0.6400
v 0.3200 0.6400 0.0000
v -28.0800 20.4800 0.0900
v -7.5200 0.0000 0.0000
v 12.9400 31.1000 0.0000
v -7.5200 0.0000 0.0000
v -33.2800 0.0000 18.5500
vt 0.0000 1.3242
vt 0.0000 0.0000
vt 0.0352 0.0186
vt 0.0361 0.0000
vt 0.0361 0.0000
vt 0.0391 0.0000
vt -0.0391 0.0000
vt -0.0391 0.0000
vt -0.0215 0.0225
vt -0.0020 0.0020
vt -0.0176 0.0049
vt 0.0244 0.0146
vt 0.0146 -0.0010
vt 0.0176 0.0156
vt 0.0098 0.0000
vt -0.0107 0.0205
vt -0.0176 0.0049
vt -0.0117 0.0391
vt 0.0049 0.0361
vt 0.0215 0.0332
vt 0.0215 0.0332
vt 0.0156 0.0342
vt -0.0039 0.0371
vt -0.0117 0.0391
vt -0.0020 -0.0059
vt 0.0068 0.0430
vt -0.0010 0.0186
vt -0.0225 0.0117
vt 0.0039 0.0020
vt -0.0117 -0.0020
vt 0.0215 0.0244
vt 0.0195 0.0068
vt 0.0137 0.0225
vt 0.0146 0.0049
vt -0.0127 0.0146
vt -0.0117 -0.0020
vt -0.0205 0.0303
vt -0.0059 0.0342
vt 0.0098 0.0391
vt 0.0098 0.0391
vt 0.0049 0.0381
vt -0.0137 0.0322
vt -0.0205 0.0303
vt 0.0068 -0.0049
vt -0.0068 0.0420
vt 0.0000 1.3516
vt 0.0000 1.2979
vt -6.2500 0.0000
vt -3.5000 8.0020
vt -2.7344 0.0000
vt -6.2500 0.0000
vt -6.5000 0.0000
vt -6.2500 0.0000
f 35/35 2/2 53/53
f 6/6 2/2 1/1
f 3/3 2/2 53/53
f 8/8 7/7 20/20
f 10/10 9/9 24/24
f 25/25 11/11 26/26
f 11/11 12/12 26/26
f 19/19 20/20 25/25
f 20/20 21/21 25/25
f 19/19 20/20 25/25
f 20/20 21/21 25/25
