mtllib assets0A_model_032.mtl
# Conker's Bad Fur Day — Real 3D Model (Bat's Tower Level Models)
o assets0A_model_032
usemtl assets0A_model_032_mat

v 0.8500 7.3200 3.6800
v 10.2400 9.4100 8.2000
v 10.5200 3.6400 5.9900
v -28.1100 39.0000 2.7600
v 27.2600 8.4500 1.9700
v 6.0900 -1.9000 26.7800
v 9.1600 1.8900 6.4300
v 3.2400 19.9300 4.2800
v 21.0600 7.9600 3.7000
v 7.5200 -4.5700 18.2900
v 6.0100 3.8100 7.6000
v 5.6000 25.6100 3.8800
v 9.7900 6.9200 6.3600
v 7.7600 -6.3000 7.4600
v 5.1800 7.5600 7.7800
v 8.1300 24.3500 3.0600
v 6.8500 7.5100 8.6500
v 7.7100 -0.3000 8.2600
v 3.5600 15.9800 7.6700
v 10.2000 14.7100 2.3100
v 11.3600 8.9300 10.6200
v 7.5900 0.5600 12.3300
v -0.8800 24.3900 7.5700
v 11.3200 4.9600 1.7200
v 15.6400 8.8600 11.2800
v 7.4600 2.0800 17.1300
v -4.1400 22.0100 7.3900
v 8.1200 3.3100 1.8200
v 22.2900 8.8300 6.7500
v 7.1700 3.8600 23.8000
v -5.9000 11.2800 7.1000
v 5.4100 6.7500 3.1800
v 28.8800 8.8800 5.5000
v 7.0200 7.4000 29.7000
v -6.1200 1.5600 7.0500
v 4.6100 12.1200 4.7400
v 25.7300 8.1400 3.7600
v 8.1200 9.5300 23.3000
v 0.2100 4.5300 8.5200
v 1.0900 20.1200 4.7500
v 14.8700 6.6400 0.4900
v 8.2800 11.0000 12.1000
v -0.2300 8.0300 7.9700
v -0.8800 24.9800 4.8000
v 5.7100 5.7100 -1.3600
v 7.3000 10.5000 4.8800
v 1.5200 14.5400 7.1900
v -3.3000 18.8100 4.0800
v 7.0000 7.5100 -4.0400
v 6.9500 5.3700 8.2400
v 5.3300 22.6500 6.8700
vt 2.2520 16.1406
vt 0.0479 2.2812
vt 2.5312 0.8447
vt 0.0000 28.0000
vt 0.4121 -15.5703
vt 0.2344 1.5625
vt 2.4883 0.8174
vt 0.6113 0.2441
vt 0.4170 -15.5703
vt 0.4121 2.2627
vt 1.5010 0.7246
vt 0.5547 0.5176
vt 0.3574 -15.5703
vt 0.6904 2.6055
vt 0.5537 0.6523
vt 0.4404 1.1172
vt 0.2812 -15.5703
vt 0.8975 1.9512
vt 0.9062 0.8340
vt 0.1777 1.9570
vt 0.2080 -15.5703
vt 1.0713 0.9189
vt 1.2998 0.8711
vt -0.2900 2.4756
vt 0.1602 -15.5703
vt 1.0479 0.2451
vt 1.8379 0.8643
vt -0.5029 1.6602
vt 0.1973 -15.5703
vt 0.5684 0.4990
vt 2.4844 0.8623
vt -0.6113 0.5684
vt 0.3643 -15.5703
vt 0.5381 0.8770
vt 2.8594 0.8496
vt -0.2129 0.2373
vt 0.4688 -15.5703
vt 0.2734 1.6016
vt 2.0107 0.7227
vt -0.0049 0.6191
vt 0.4668 -15.5703
vt 0.0000 2.2676
vt 0.9346 0.5879
vt 0.0107 1.0195
vt 0.4600 -15.5703
vt -0.1875 2.2490
vt 0.4912 0.6191
vt 0.3389 1.8711
vt 0.3730 -15.5703
vt -0.4629 1.3291
vt 0.9277 0.7822
f 1/1 2/2 3/3
f 4/4 5/5 6/6
f 7/7 8/8 9/9
f 10/10 11/11 12/12
f 13/13 14/14 15/15
f 16/16 17/17 18/18
f 19/19 20/20 21/21
f 22/22 23/23 24/24
f 25/25 26/26 27/27
f 28/28 29/29 30/30
f 31/31 32/32 33/33
f 34/34 35/35 36/36
f 37/37 38/38 39/39
f 40/40 41/41 42/42
f 43/43 44/44 45/45
f 46/46 47/47 48/48
f 49/49 50/50 51/51
