# Conker's Bad Fur Day — Real 3D Model (Heist Models)
o assets11_model_003

v 0.0000 0.1600 0.0000
v 0.3200 2.0000 12.8100
v 0.6000 0.0000 0.2700
v 0.4900 1.0000 0.8700
v 35.9800 0.0500 0.0000
v 0.0000 0.0000 35.9800
v 10.2900 0.0000 0.0000
v 0.0000 35.9800 7.7300
v 35.9800 15.4100 0.0000
v 12.8500 0.0000 0.0000
v 17.9700 0.0000 0.0000
v 0.0000 10.2800 2.6100
v 12.8500 0.0500 0.0000
v 0.0000 0.0000 12.8500
v 12.8500 0.0000 0.0000
vt 0.0000 0.0781
vt 6.2754 6.7744
vt 0.2490 0.0498
vt 11.2559 2.9297
vt 0.0000 5.5215
vt 0.0000 0.0000
vt 3.5137 0.0049
vt 0.0000 0.0000
vt 0.0000 3.5137
vt 5.7725 0.7549
vt 5.0195 0.5049
vt 0.0000 0.0000
vt 0.0000 1.2549
vt 0.0000 0.0000
vt 1.2549 1.5049
f 3/3 1/1 1/1
f 3/3 1/1 1/1
f 3/3 1/1 3/3
f 3/3 1/1 1/1
f 3/3 4/4 3/3
