# Conker's Bad Fur Day — Real 3D Model (Multiplayer Level Models)
o assets09_model_076

v 0.0000 2.8000 0.0000
v 2.0100 2.5800 -2.5800
v 5.2900 2.6000 -2.5800
v 5.3200 7.6200 -2.5800
v 2.0400 7.6000 -2.5800
v 8.5800 2.6200 -2.5800
v 8.6100 7.6400 -2.5800
v 5.2900 2.6000 -2.5800
v 5.3200 7.6200 -2.5800
v 5.2800 0.0900 -2.5800
v 5.3400 10.1300 -2.5800
v 5.2700 9.1900 -2.5800
v 3.7600 9.2300 -2.5800
v 5.2700 11.6800 -2.5800
v 6.7800 9.1500 -2.5800
v 5.2700 11.6800 -2.5800
v 5.2700 9.1900 -2.5800
v -28.0000 0.0000 17.9200
v -33.2800 0.0000 18.3400
v -28.1600 2.5600 15.3600
v -7.5200 0.0000 0.6400
v -28.0800 11.5200 2.6500
v -28.0800 6.7200 5.2000
v -28.0800 6.8000 7.7600
v 2.5700 0.3200 2.5600
vt 0.0000 0.0000
vt -0.0146 0.0049
vt -0.0146 0.0049
vt 0.0039 -0.0137
vt -0.0332 -0.0137
vt -0.0332 -0.0137
vt -0.0146 -0.0322
vt -0.0146 -0.0322
vt -0.0146 -0.0137
vt -0.0146 -0.0137
vt -0.0146 -0.0215
vt -0.0059 -0.0137
vt -0.0146 -0.0137
vt -0.0225 -0.0137
vt -0.0146 -0.0137
vt -0.0146 -0.0049
vt 0.0000 0.2812
vt -6.5000 0.0000
vt -6.2500 0.0000
vt -6.5000 0.0000
vt -4.0000 0.0000
vt -3.5000 8.0020
vt -3.5000 8.0020
vt -3.5000 8.0020
vt 4.1445 1.1299
f 1/1 2/2 3/3
f 4/4 5/5 6/6
f 7/7 8/8 9/9
f 10/10 11/11 12/12
f 13/13 14/14 15/15
f 16/16 17/17 18/18
f 19/19 20/20 21/21
f 22/22 23/23 24/24
