# Conker's Bad Fur Day — Real 3D Model (Multiplayer Level Models)
o assets09_model_320

v 0.0000 14.3200 0.0000
v 0.0000 0.0000 -0.0100
v 0.0000 0.0000 -0.0100
v 0.0000 0.0000 -0.0100
v 0.0000 0.0000 -0.0100
v 0.0000 0.0000 -0.0100
v 0.0000 0.0000 -0.0100
v 0.0000 0.0000 -0.0100
v 0.0000 0.0000 -0.0100
v 0.0000 0.0000 -0.0100
v 0.0000 0.0000 -0.0100
v 0.0000 0.0000 -0.0100
v 0.0000 0.0000 -0.0100
v 0.0000 0.0000 -0.0100
v 0.0000 0.0000 -0.0100
v 0.0000 0.0000 -0.0100
v 0.0000 0.0000 -0.0100
v 0.0000 0.0000 -0.0100
v 0.0000 0.0000 -0.0100
v 0.0000 0.0000 -0.0100
v 0.0000 0.0000 -0.0100
v 0.0000 0.0000 -0.0100
v 0.0000 0.0000 -0.0100
v 0.0000 0.0000 -0.0100
v 0.0000 0.0000 -0.0100
v 0.0000 0.0000 -0.0100
v -27.3600 0.0000 17.9200
v -7.5200 0.0000 0.6400
v 2.5800 0.6400 0.0000
v -33.2800 0.0000 18.5500
vt 0.0000 0.0000
vt -0.0029 -0.0381
vt -0.0166 -0.0596
vt -0.0010 -0.0371
vt -0.0166 -0.0596
vt -0.0029 -0.0381
vt -0.0010 -0.0371
vt 0.0068 -0.0518
vt 0.0078 -0.0537
vt 0.0029 -0.0400
vt 0.0068 -0.0518
vt 0.0010 -0.0400
vt 0.0068 -0.0557
vt 0.0078 -0.0537
vt 0.0029 -0.0400
vt 0.0039 -0.0391
vt 0.0039 -0.0391
vt 0.0195 -0.0635
vt -0.0039 -0.0410
vt -0.0029 -0.0391
vt -0.0029 -0.0605
vt -0.0010 -0.0410
vt -0.0029 -0.0605
vt -0.0029 -0.0391
vt -0.0010 -0.0410
vt -0.0137 0.0156
vt -3.2500 0.0000
vt -2.6562 0.2500
vt 4.3789 6.1602
vt -0.7344 0.0000
f 16/16 17/17 14/14
f 18/18 19/19 14/14
f 20/20 23/23 24/24
f 23/23 20/20 22/22
