# Conker's Bad Fur Day — Real 3D Model (Multiplayer Level Models)
o assets09_model_072

v 0.0000 9.8400 0.0000
v 39.1600 22.8000 -0.0100
v 39.3400 10.5600 -0.0100
v 38.5700 22.7600 -0.0100
v 38.9800 10.5400 -0.0100
v 39.3400 10.5600 -0.0100
v 39.1600 22.8000 -0.0100
v 39.1600 22.8000 -0.0100
v 39.3400 10.5600 -0.0100
v 38.5700 22.7600 -0.0100
v 38.9800 10.5400 -0.0100
v 39.3400 10.5600 -0.0100
v 39.1600 22.8000 -0.0100
v 0.0000 0.0000 -0.0100
v 0.0000 0.0000 -0.0100
v 0.0000 0.0000 -0.0100
v 0.0000 0.0000 -0.0100
v 0.0000 0.0000 -0.0100
v 0.0000 0.0000 -0.0100
v 0.0000 0.0000 -0.0100
v 0.0000 0.0000 -0.0100
v 0.0000 0.0000 -0.0100
v 0.0000 0.0000 -0.0100
v 0.0000 0.0000 -0.0100
v 0.0000 0.0000 -0.0100
v 0.0000 0.0000 -0.0100
v 0.0000 0.0000 -0.0100
v 0.0000 0.0000 -0.0100
v 0.0000 0.0000 -0.0100
v 0.0000 0.0000 -0.0100
v 0.0000 0.0000 -0.0100
v 0.0000 0.0000 -0.0100
v 0.0000 0.0000 -0.0100
v 0.0000 0.0000 -0.0100
v 0.0000 0.0000 -0.0100
v 0.0000 0.0000 -0.0100
v 0.0000 0.0000 -0.0100
v 0.0000 0.0000 -0.0100
v 0.0000 0.0000 -0.0100
v 0.0000 0.0000 -0.0100
v 0.0000 0.0000 -0.0100
v 0.0000 0.0000 -0.0100
v 0.0000 0.0000 -0.0100
v 0.0000 0.0000 -0.0100
v 0.0000 0.0000 -0.0100
v 0.0000 0.0000 -0.0100
v 0.0000 0.0000 -0.0100
v 0.0000 0.0000 -0.0100
v 0.0000 0.0000 -0.0100
v -27.9200 0.0000 17.9200
v -33.2800 0.0000 18.2300
vt 0.0000 0.0000
vt -0.0703 -0.0254
vt -0.0918 -0.0342
vt -0.0811 -0.0371
vt -0.0498 -0.0459
vt -0.0615 -0.0576
vt -0.0400 -0.0488
vt -0.0469 -0.0225
vt -0.0918 -0.0342
vt -0.0811 -0.0371
vt -0.0498 -0.0459
vt -0.0615 -0.0576
vt -0.0400 -0.0488
vt -0.0830 -0.0371
vt -0.0918 -0.0342
vt -0.0781 -0.0537
vt -0.0537 -0.0293
vt -0.0469 -0.0225
vt -0.0723 -0.0156
vt -0.0703 -0.0244
vt -0.0488 -0.0459
vt -0.0615 -0.0586
vt -0.0400 -0.0488
vt -0.0586 -0.0674
vt -0.0977 -0.0332
vt -0.0879 -0.0352
vt -0.0889 -0.0645
vt -0.0820 -0.0576
vt -0.0742 -0.0098
vt -0.0430 -0.0186
vt -0.0498 -0.0254
vt -0.0713 -0.0195
vt -0.0439 -0.0479
vt -0.0596 -0.0635
vt -0.0342 -0.0498
vt -0.0576 -0.0732
vt -0.0889 -0.0645
vt -0.0918 -0.0342
vt -0.0977 -0.0332
vt -0.0850 -0.0605
vt -0.0469 -0.0225
vt -0.0430 -0.0186
vt -0.0742 -0.0098
vt -0.0723 -0.0156
vt -0.0400 -0.0488
vt -0.0342 -0.0498
vt -0.0586 -0.0674
vt -0.0576 -0.0732
vt 0.0000 0.9688
vt -6.5000 0.0000
vt -6.2500 0.0000
f 1/1 2/2 3/3
f 4/4 5/5 6/6
f 7/7 8/8 9/9
f 10/10 11/11 12/12
f 13/13 14/14 15/15
f 16/16 17/17 18/18
f 19/19 20/20 21/21
f 22/22 23/23 24/24
f 25/25 26/26 27/27
f 28/28 29/29 30/30
f 31/31 32/32 33/33
f 34/34 35/35 36/36
f 37/37 38/38 39/39
f 40/40 41/41 42/42
f 43/43 44/44 45/45
f 46/46 47/47 48/48
f 49/49 50/50 51/51
