# Conker's Bad Fur Day — Real 3D Model (Multiplayer Level Models)
o assets09_model_345

v 0.0000 4.0800 0.0000
v 0.0000 0.0000 -0.0100
v 0.0000 0.0000 -0.0100
v 0.0000 0.0000 -0.0100
v 0.0000 0.0000 -0.0100
v 0.0000 0.0000 -0.0100
v 0.0000 0.0000 -0.0100
v 12.9000 0.0400 0.0000
v -27.3600 0.0000 17.9200
v -27.5200 10.2400 0.0100
v -27.5200 6.4000 2.5700
v -27.5200 6.7200 5.1300
v -27.5200 6.8800 7.6800
v -27.5200 6.9600 10.2400
v -7.5200 0.0000 1.2800
v -6.8800 0.0000 0.0000
v -27.4400 20.4800 0.0900
v 0.2100 0.2100 0.0000
vt 0.0000 0.0000
vt 0.0430 -0.2822
vt 0.0020 -0.2432
vt 0.0146 -0.2822
vt -0.0322 -0.2822
vt -0.0322 -0.2822
vt 0.0068 -0.2148
vt -10.2500 0.0020
vt -3.2500 0.0000
vt -3.4375 9.0020
vt -3.4688 8.5020
vt -3.4844 8.2520
vt -3.4922 8.1270
vt -3.4961 8.0645
vt -2.6562 0.2500
vt -3.2500 0.0000
vt -0.7344 0.0000
vt 0.0000 0.0000
f 6/6 1/1 3/3
f 8/8 11/11 12/12
f 8/8 12/12 9/9
