mtllib assets09_model_272.mtl
# Conker's Bad Fur Day — Real 3D Model (Multiplayer Level Models)
o assets09_model_272
usemtl assets09_model_272_mat

v 0.0000 8.0800 0.0000
v 2.5800 0.6400 0.0000
v -6.8800 0.0000 0.0000
v -33.2800 0.0000 18.5500
v -27.2000 2.5600 15.3600
v 15.3600 5.1600 0.0000
v -6.8800 0.0000 0.0000
v -27.4400 20.4800 0.0100
v -7.5200 0.0000 0.6400
v -6.4600 -6.4600 -16.7300
vt 0.0000 0.0000
vt 4.0273 6.1602
vt -2.6719 0.0000
vt -2.6797 4.0000
vt -6.5000 0.0000
vt -9.5010 -0.0010
vt -3.2500 0.0000
vt -3.4375 9.0020
vt -6.5000 0.0000
vt -8.3477 -17.5488
f 1/1 2/2 3/3
f 1/1 4/4 2/2
