mtllib assets09_model_228.mtl
# Conker's Bad Fur Day — Real 3D Model (Multiplayer Level Models)
o assets09_model_228
usemtl assets09_model_228_mat

v 0.0000 4.2400 0.0000
v 0.0000 0.0000 -0.2300
v 0.0000 0.0000 -0.2300
v 0.0000 0.0000 -0.2300
v 0.0000 0.0000 -0.2300
v 0.0000 0.0000 -0.2300
v 0.0000 0.0000 -0.2300
v -6.8800 0.0000 0.0000
v -33.2800 0.0000 18.5500
v -27.2000 2.5600 15.3600
vt 0.0000 0.0000
vt 0.1084 0.0449
vt 0.0537 0.0498
vt -0.0654 0.1152
vt 0.0967 -0.0684
vt -0.0420 -0.1074
vt 0.0547 -0.0010
vt -2.6719 0.0000
vt -2.6797 2.0000
vt -6.5000 0.0000
f 1/1 2/2 3/3
f 4/4 5/5 6/6
f 7/7 8/8 9/9
