# Conker's Bad Fur Day — Real 3D Model (HUD & UI Props)
o assets01_model_005

v 0.0000 38.6800 0.0000
v 4.3700 10.1000 -0.0100
v 3.0200 14.4600 0.0000
v 8.3000 9.9300 0.0000
v 4.3400 7.8600 -0.0100
v 10.0500 -0.3500 -0.0100
v 6.5500 -0.9800 -0.0100
v 0.7500 3.9200 -0.0100
v 0.2700 5.8100 -0.0100
v 4.5100 2.2900 -0.0100
v 4.0800 3.9800 -0.0100
v 5.3200 3.9000 -0.0100
v 11.3000 7.5800 -0.0100
v 9.0100 7.5200 -0.0100
v 9.9100 5.1800 -0.0100
v 13.2500 9.6400 -0.0100
v 6.9100 4.6800 -0.0100
v 13.5300 4.6400 -0.0100
v 14.0600 7.0500 -0.0100
v 7.1100 3.0500 -0.0100
v 5.2100 0.1800 -0.0100
v 5.0400 7.1500 0.0000
v 6.4300 7.1900 -0.0100
v 4.9200 8.4700 0.0000
v 7.7100 0.7700 -0.0100
v 8.5100 3.9500 -0.0100
v 7.2400 7.5300 -0.0100
v 7.1100 3.0500 -0.0100
v 13.9400 2.7100 -0.0100
v 14.2000 7.0700 -0.0100
v 13.9800 4.9000 -0.0100
v 7.0700 5.9400 -0.0100
v 7.0400 4.7500 -0.0100
v 1.4100 7.0300 -0.0100
v 7.1900 7.1000 -0.0100
v 8.5700 3.5200 -0.0100
v 7.1100 3.0500 -0.0100
v 8.5100 3.9500 -0.0100
v 6.4300 7.1900 -0.0100
v 7.2400 7.5300 -0.0100
v 4.9200 8.4700 0.0000
v 4.5100 2.2900 -0.0100
v 5.2100 0.1800 -0.0100
v 5.0400 7.1500 0.0000
v 5.3200 3.9000 -0.0100
v 9.9100 5.1800 -0.0100
v 9.0100 7.5200 -0.0100
v 11.3000 7.5800 -0.0100
v 13.2500 9.6400 -0.0100
v 6.9100 4.6800 -0.0100
v 13.5300 4.6400 -0.0100
v 14.0600 7.0500 -0.0100
v 4.0800 3.9800 -0.0100
v 13.5300 4.6400 -0.0100
v 13.3300 1.5400 -0.0100
v 13.5300 4.6400 -0.0100
v 8.5500 10.2900 0.0000
v 3.2700 14.0700 0.0000
v 4.5400 10.1100 -0.0100
v 4.4600 8.0100 -0.0100
v 0.2600 5.7500 -0.0100
v 0.7100 4.0200 -0.0100
v 10.0900 0.8400 -0.0100
v 6.5000 -0.0500 -0.0100
v 13.6500 2.9700 -0.0100
v 14.0700 6.0000 -0.0100
v 17.3400 3.5300 -0.0100
v 13.2300 -0.0700 -0.0100
v 13.6500 2.9700 -0.0100
v 13.3300 6.0200 -0.0100
v 18.2600 10.9600 -0.0100
v 18.0400 5.8300 -0.0100
v 17.8300 0.7100 -0.0100
v 18.0400 5.8300 -0.0100
v 5.6300 12.2900 -0.0100
v 11.1500 9.2200 -0.0100
v 10.9100 5.4000 -0.0100
v 5.4500 9.4000 -0.0100
v 5.0600 3.1400 -0.0100
v 5.4500 9.4000 -0.0100
v 10.9100 5.4000 -0.0100
v 5.0600 3.1400 -0.0100
v 10.6700 1.5900 -0.0100
v 4.8100 -0.7400 -0.0100
v 0.0600 5.5900 -0.0100
v 0.3000 9.4000 -0.0100
v 0.0600 5.5900 -0.0100
v -0.1800 1.7800 -0.0100
v 19.4300 -1.7000 -0.0100
v 19.4300 -1.7000 -0.0100
v 16.4200 1.7100 -0.0100
v 17.0400 2.6500 -0.0100
v 17.6800 3.7600 -0.0100
v 17.0400 2.6500 -0.0100
v 13.5200 2.4200 -0.0100
v 14.2500 4.8200 -0.0100
v 14.8800 7.6500 -0.0100
v 14.2500 4.8200 -0.0100
v 11.3900 7.1400 -0.0100
v 11.7900 9.4100 -0.0100
v 10.2600 1.4300 -0.0100
v 10.6700 3.8100 -0.0100
v 11.3900 7.1400 -0.0100
v 10.6700 3.8100 -0.0100
v 5.2700 3.3500 -0.0100
v 5.6600 7.6900 -0.0100
v 5.8500 9.8700 -0.0100
v 5.2700 3.3500 -0.0100
v 5.6600 7.6900 -0.0100
v 5.0800 1.1700 -0.0100
v 0.2800 5.5900 -0.0100
v -5.4900 8.3000 -0.0100
v 3.0800 6.3800 -0.0100
v -1.3400 10.1200 -0.0100
v -1.3400 10.1200 -0.0100
v 5.2500 10.2800 -0.0100
v 17.3800 6.7200 -0.0100
v 14.1900 7.6000 -0.0100
v 18.6900 9.3400 -0.0100
v 12.5600 9.1800 -0.0100
v 5.1800 7.8300 -0.0100
v 6.0400 -0.7400 -0.0100
v 6.0400 3.5100 -0.0100
v 3.9200 4.2300 -0.0100
v 9.8700 7.3100 -0.0100
v 10.3500 2.4900 -0.0100
v 10.3600 4.8800 -0.0100
v 13.8200 7.3700 -0.0100
v 14.1500 3.9600 -0.0100
v 14.1500 5.7700 -0.0100
v 15.0000 6.0200 -0.0100
v -5.4900 8.3000 -0.0100
v 2.4400 6.1300 -0.0100
v -1.3400 10.1200 -0.0100
v -1.3400 10.1200 -0.0100
v 5.2500 10.2800 -0.0100
v 2.8500 9.3600 -0.0100
v 3.1700 7.1400 -0.0100
v 3.1700 7.1400 -0.0100
v 5.5600 4.7100 -0.0100
v 6.2200 7.5200 -0.0100
v 6.2300 3.3000 -0.0100
v 5.4900 -0.8100 -0.0100
v 4.5000 4.1400 -0.0100
v 10.2400 6.7700 -0.0100
v 10.2500 4.4000 -0.0100
v 9.8300 2.0900 -0.0100
v 13.7100 6.6300 -0.0100
v 13.7300 5.0700 -0.0100
v 13.4100 3.3100 -0.0100
v 14.5200 5.2800 -0.0100
v -5.1100 13.6900 -0.0100
v 2.1300 6.6800 -0.0100
v -0.0900 14.0000 -0.0100
v -0.0900 14.0000 -0.0100
v 6.3900 10.8300 -0.0100
v 2.9400 8.6100 -0.0100
v 4.8200 6.7000 -0.0100
v 2.2200 6.7300 -0.0100
v 5.8000 4.7000 -0.0100
v 5.2600 7.5900 -0.0100
v 5.3500 -1.7800 -0.0100
v 3.7600 3.6900 -0.0100
v 9.6600 6.8800 -0.0100
v 9.7100 1.6100 -0.0100
v 9.9100 4.2200 -0.0100
v 13.4000 6.8300 -0.0100
v 13.4300 3.1100 -0.0100
v 13.5900 5.0800 -0.0100
v 14.4100 5.3200 -0.0100
v -5.1100 13.6900 -0.0100
v 2.1300 6.6800 -0.0100
v -0.0900 14.0000 -0.0100
v -0.0900 14.0000 -0.0100
v 6.3900 10.8300 -0.0100
v 14.6000 6.2300 -0.0100
v 14.4600 7.6500 -0.0100
v 14.4600 7.6500 -0.0100
v 12.4800 9.0700 -0.0100
v 13.0200 7.3900 -0.0100
v 12.7400 4.4500 -0.0100
v 13.3300 1.6000 -0.0100
v 14.7600 5.0500 -0.0100
v 8.4100 6.8300 -0.0100
v 8.2600 5.1800 -0.0100
v 8.5900 3.5700 -0.0100
v 4.4700 6.6900 -0.0100
v 4.3600 5.6000 -0.0100
v 4.6000 4.3900 -0.0100
v 3.4700 5.7400 -0.0100
v 0.6400 0.3200 0.0000
v 0.3200 0.3200 0.0000
v -7.6900 -3.6900 -27.9300
v -28.0000 0.0000 17.9200
v -33.2800 0.0000 18.2300
v -28.1600 2.5600 15.3600
v -7.5200 0.0000 17.9200
v -7.5200 0.0000 0.6400
v 15.3800 10.3000 0.0400
v -7.5200 0.0000 15.3600
v -7.5200 0.0000 0.0000
v -33.2800 0.0000 18.5500
v -7.5200 0.0000 0.0000
v -33.2800 0.0000 18.0700
v -28.0800 20.4800 0.0900
v -7.5200 0.0000 0.0000
v -33.2800 0.0000 18.5500
v -7.5200 0.0000 17.9200
v -7.5200 0.0000 0.0000
v -33.2800 0.0000 18.5500
v -7.5200 0.0000 17.9200
v -33.2800 0.0000 18.2300
v -28.0800 20.4800 0.0900
v -7.5200 0.0000 0.6400
v -7.5200 0.0000 17.9200
v -7.5200 0.0000 0.0000
v -33.2800 0.0000 18.5500
v -7.5200 0.0000 17.9200
v -33.2800 0.0000 18.2300
v -28.0800 20.4800 0.0900
v -7.5200 0.0000 0.6400
v -2.6900 -2.6900 -2.6900
v 1.6100 0.1300 1.0400
v 6.4300 1.3000 6.4300
v 1.2700 1.2700 1.2700
v 3.7400 3.8600 0.1500
vt 0.0000 4.1992
vt 0.0000 0.0205
vt -0.0186 0.0205
vt -0.0088 0.0205
vt -0.0225 -0.0010
vt -0.0146 -0.0029
vt 0.0000 0.0049
vt 0.0000 0.0078
vt 0.0000 0.0381
vt -0.0146 -0.0029
vt -0.0225 -0.0010
vt 0.0078 -0.0039
vt 0.0000 -0.0059
vt 0.0098 -0.0117
vt 0.0000 0.0049
vt 0.0000 -0.0176
vt 0.0166 -0.0107
vt 0.0146 -0.0029
vt -0.0146 -0.0049
vt 0.0000 -0.0215
vt -0.0186 0.0205
vt -0.0117 0.0156
vt 0.0000 0.0205
vt 0.0000 -0.0156
vt 0.0000 0.0010
vt 0.0000 0.0156
vt 0.0146 -0.0049
vt -0.0049 0.0381
vt 0.0000 0.0381
vt 0.0039 0.0381
vt 0.0020 0.0205
vt -0.0020 0.0205
vt 0.0000 -0.0049
vt 0.0000 0.0205
vt 0.0000 -0.0078
vt -0.0068 0.0000
vt 0.0000 0.0010
vt 0.0117 0.0156
vt 0.0000 0.0156
vt 0.0000 0.0205
vt 0.0166 -0.0107
vt 0.0000 -0.0215
vt 0.0186 0.0205
vt 0.0215 -0.0010
vt -0.0098 -0.0117
vt 0.0000 -0.0059
vt -0.0078 -0.0039
vt 0.0000 0.0049
vt 0.0000 -0.0176
vt -0.0166 -0.0107
vt -0.0146 -0.0029
vt 0.0146 -0.0029
vt -0.0166 -0.0107
vt 0.0000 -0.0215
vt 0.0166 -0.0107
vt 0.0186 0.0205
vt 0.0000 0.0205
vt 0.0107 0.0254
vt 0.0088 0.0195
vt 0.0000 0.0078
vt 0.0000 0.0049
vt 0.0215 -0.0010
vt 0.0146 -0.0029
vt 0.1768 0.0000
vt 0.0000 0.0146
vt 0.0000 0.0010
vt 0.0000 -0.0137
vt -0.0186 0.0010
vt 0.0000 0.0010
vt 0.0000 0.0146
vt 0.0186 0.0010
vt 0.0000 -0.0137
vt -0.0186 0.0010
vt 0.0000 -0.0244
vt 0.0000 -0.0137
vt 0.0186 0.0010
vt 0.0225 -0.0137
vt 0.0225 0.0098
vt -0.0225 -0.0137
vt -0.0186 0.0010
vt -0.0225 0.0098
vt 0.0000 0.0146
vt 0.0000 0.0234
vt 0.0186 0.0010
vt 0.0000 -0.0137
vt -0.0186 0.0010
vt 0.0000 0.0146
vt -0.0059 0.0107
vt 0.0000 -0.0234
vt 0.0000 -0.0166
vt 0.0039 -0.0117
vt 0.0000 -0.0059
vt -0.0039 -0.0117
vt 0.0000 -0.0146
vt 0.0117 -0.0020
vt 0.0000 0.0137
vt -0.0117 -0.0020
vt -0.0186 0.0098
vt 0.0000 0.0225
vt 0.0000 -0.0215
vt 0.0186 -0.0088
vt 0.0186 0.0098
vt -0.0186 -0.0088
vt -0.0215 -0.0117
vt -0.0215 0.0117
vt 0.0000 0.0234
vt 0.0215 -0.0117
vt 0.0215 0.0117
vt 0.0000 -0.0234
vt 0.0000 0.0000
vt 0.0000 -0.0205
vt 0.0000 -0.0088
vt -0.0107 -0.0078
vt 0.0107 -0.0078
vt 0.0000 0.0059
vt 0.0000 -0.0205
vt -0.0107 -0.0078
vt 0.0107 -0.0078
vt 0.0000 0.0059
vt 0.0000 -0.0127
vt 0.0078 -0.0127
vt -0.0088 -0.0127
vt 0.0000 -0.0176
vt 0.0000 -0.0117
vt 0.0039 -0.0117
vt -0.0039 -0.0117
vt 0.0000 -0.0010
vt 0.0029 -0.0010
vt -0.0029 -0.0010
vt 0.0000 0.0020
vt 0.0000 -0.0205
vt 0.0000 -0.0107
vt -0.0107 -0.0078
vt 0.0107 -0.0078
vt 0.0000 0.0059
vt 0.0000 -0.0205
vt -0.0107 -0.0078
vt 0.0107 -0.0078
vt 0.0000 0.0059
vt 0.0000 -0.0127
vt 0.0078 -0.0127
vt -0.0088 -0.0127
vt 0.0000 -0.0176
vt 0.0000 -0.0117
vt 0.0039 -0.0117
vt -0.0039 -0.0117
vt 0.0000 -0.0010
vt 0.0029 -0.0010
vt -0.0029 -0.0010
vt 0.0000 0.0020
vt 0.0000 -0.0205
vt 0.0000 -0.0088
vt -0.0098 -0.0078
vt 0.0098 -0.0078
vt 0.0000 0.0059
vt 0.0000 -0.0205
vt -0.0098 -0.0078
vt 0.0098 -0.0078
vt 0.0000 0.0059
vt 0.0000 -0.0127
vt 0.0068 -0.0127
vt -0.0078 -0.0127
vt 0.0000 -0.0117
vt 0.0039 -0.0117
vt -0.0039 -0.0117
vt 0.0000 -0.0010
vt 0.0029 -0.0010
vt -0.0029 -0.0010
vt 0.0000 0.0020
vt 0.0000 -0.0205
vt 0.0000 -0.0088
vt -0.0098 -0.0078
vt 0.0098 -0.0078
vt 0.0000 0.0059
vt 0.0000 -0.0205
vt -0.0098 -0.0078
vt 0.0098 -0.0078
vt 0.0000 0.0059
vt 0.0000 -0.0127
vt 0.0078 -0.0127
vt -0.0078 -0.0127
vt 0.0000 -0.0176
vt 0.0000 -0.0117
vt 0.0039 -0.0117
vt -0.0039 -0.0117
vt 0.0000 -0.0010
vt 0.0029 -0.0010
vt -0.0029 -0.0010
vt 0.0000 0.0020
vt 0.0000 4.2734
vt 0.0000 7.0068
vt -6.2500 0.0000
vt -10.2500 0.0020
vt -6.5000 0.0000
vt -6.2500 0.0000
vt -6.5000 0.0000
vt -4.0000 0.0000
vt -4.0000 0.0000
vt 1.2539 0.5000
vt -4.0000 0.0000
vt -6.5000 0.0000
vt -6.2500 0.0000
vt -6.5000 0.0000
vt -6.2500 0.0000
vt -3.5000 8.0020
vt -6.5000 0.0000
vt -6.2500 0.0000
vt -4.0000 0.0000
vt -6.5000 0.0000
vt -6.2500 0.0000
vt -6.5000 0.0000
vt -6.2500 0.0000
vt -3.5000 8.0020
vt -4.0000 0.0000
vt -4.0000 0.0000
vt -6.5000 0.0000
vt -6.2500 0.0000
vt -6.5000 0.0000
vt -6.2500 0.0000
vt -3.5000 8.0020
vt -4.0000 0.0000
vt -26.7520 -26.7520
vt -28.1943 12.0459
vt -18.0918 21.6836
vt -21.2451 24.4502
vt 0.3652 -10.0410
f 21/21 1/1 121/121
f 28/28 1/1 123/123
f 43/43 2/2 124/124
f 28/28 1/1 123/123
f 43/43 2/2 124/124
f 21/21 1/1 121/121
f 43/43 2/2 124/124
f 28/28 1/1 123/123
f 21/21 1/1 121/121
f 43/43 2/2 124/124
f 28/28 1/1 123/123
f 23/23 2/2 99/99
f 37/37 1/1 105/105
f 64/64 2/2 97/97
f 58/58 1/1 8/8
f 71/71 2/2 98/98
f 60/60 1/1 118/118
f 23/23 2/2 99/99
f 37/37 1/1 105/105
f 64/64 2/2 97/97
f 37/37 1/1 105/105
f 27/27 1/1 78/78
f 37/37 1/1 105/105
f 43/43 1/1 21/21
f 64/64 2/2 45/45
f 100/100 1/1 49/49
f 128/128 128/128 128/128
f 22/22 128/128 125/125
f 43/43 1/1 21/21
f 27/27 2/2 46/46
f 124/124 1/1 36/36
f 128/128 128/128 128/128
f 54/54 1/1 86/86
f 128/128 128/128 128/128
f 85/85 1/1 5/5
f 128/128 128/128 128/128
f 117/117 1/1 61/61
f 128/128 128/128 128/128
f 85/85 1/1 5/5
f 128/128 128/128 128/128
f 37/37 1/1 122/122
f 73/73 1/1 114/114
f 105/105 2/2 127/127
f 73/73 1/1 114/114
f 102/102 2/2 81/81
f 128/128 128/128 128/128
f 70/70 2/2 125/125
f 52/52 2/2 113/113
f 68/68 1/1 71/71
f 68/68 2/2 33/33
f 111/111 2/2 46/46
f 46/46 2/2 76/76
f 47/47 1/1 126/126
f 31/31 1/1 38/38
f 87/87 2/2 9/9
f 31/31 2/2 86/86
f 32/32 1/1 28/28
f 40/40 1/1 127/127
f 81/81 2/2 11/11
f 91/91 2/2 56/56
f 84/84 2/2 127/127
f 84/84 2/2 127/127
f 12/12 2/2 114/114
f 27/27 1/1 81/81
f 99/99 1/1 125/125
f 15/15 24/24 23/23
f 16/16 17/17 14/14
f 4/4 12/12 11/11
f 2/2 3/3 4/4
f 3/3 1/1 5/5
f 3/3 2/2 1/1
