mtllib assets01_model_006.mtl
# Conker's Bad Fur Day — Real 3D Model (HUD & UI Props)
o assets01_model_006
usemtl assets01_model_006_mat

v 0.0000 29.2800 0.0000
v 0.0000 0.0000 -0.0100
v 0.0000 0.0000 -0.0100
v 0.0000 0.0000 -0.0100
v 0.0000 0.0000 -0.0100
v 0.0000 0.0000 -0.0100
v 0.0000 0.0000 -0.0100
v 0.0000 0.0000 -0.0100
v 0.0000 0.0000 -0.0100
v 0.0000 0.0000 -0.0100
v 0.0000 0.0000 -0.0100
v 0.0000 0.0000 -0.0100
v 0.0000 0.0000 -0.0100
v 0.0000 0.0000 -0.0100
v 0.0000 0.0000 -0.0100
v 0.0000 0.0000 -0.0100
v 0.0000 0.0000 -0.0100
v 0.0000 0.0000 -0.0100
v 0.0000 0.0000 -0.0100
v 0.0000 0.0000 -0.0100
v 0.0000 0.0000 -0.0100
v 0.0000 0.0000 -0.0100
v 0.0000 0.0000 -0.0100
v 0.0000 0.0000 -0.0100
v 0.0000 0.0000 -0.0100
v 0.0000 0.0000 -0.0100
v 0.0000 0.0000 -0.0100
v 0.0000 0.0000 -0.0100
v 0.0000 0.0000 -0.0100
v 0.0000 0.0000 -0.0100
v 0.0000 0.0000 -0.0100
v 0.0000 0.0000 -0.0100
v 0.0000 0.0000 -0.0100
v 0.0000 0.0000 -0.0100
v 0.0000 0.0000 -0.0100
v 0.0000 0.0000 -0.0100
v 0.0000 0.0000 -0.0100
v 0.0000 0.0000 -0.0100
v 0.0000 0.0000 -0.0100
v 0.0000 0.0000 -0.0100
v 0.0000 0.0000 -0.0100
v 0.0000 0.0000 -0.0100
v 0.0000 0.0000 -0.0100
v 0.0000 0.0000 -0.0100
v 0.0000 0.0000 -0.0100
v 0.0000 0.0000 -0.0100
v 0.0000 0.0000 -0.0100
v 0.0000 0.0000 -0.0100
v 0.0000 0.0000 -0.0100
v 0.0000 0.0000 -0.0100
v 0.0000 0.0000 -0.0100
v 0.0000 0.0000 -0.0100
v 0.0000 0.0000 -0.0100
v 0.0000 0.0000 -0.0100
v 0.0000 0.0000 -0.0100
v 0.0000 0.0000 -0.0100
v 0.0000 0.0000 -0.0100
v 0.0000 0.0000 -0.0100
v 0.0000 0.0000 -0.0100
v 0.0000 0.0000 -0.0100
v 0.0000 0.0000 -0.0100
v 0.0000 0.0000 -0.0100
v 0.0000 0.0000 -0.0100
v 0.0000 0.0000 -0.0100
v 0.0000 0.0000 -0.0100
v 0.0000 0.0000 -0.0100
v 0.0000 0.0000 -0.0100
v 0.0000 0.0000 -0.0100
v 0.0000 0.0000 -0.0100
v 0.0000 0.0000 -0.0100
v 0.0000 0.0000 -0.0100
v 0.0000 0.0000 -0.0100
v 0.0000 0.0000 -0.0100
v 0.0000 0.0000 -0.0100
v 0.0000 0.0000 -0.0100
v 0.0000 0.0000 -0.0100
v 0.0000 0.0000 -0.0100
v 0.0000 0.0000 -0.0100
v 0.0000 0.0000 -0.0100
v 0.0000 0.0000 -0.0100
v 0.0000 0.0000 -0.0100
v 0.0000 0.0000 -0.0100
v 0.0000 0.0000 -0.0100
v 0.0000 0.0000 -0.0100
v 0.0000 0.0000 -0.0100
v 0.0000 0.0000 -0.0100
v 0.0000 0.0000 -0.0100
v 0.0000 0.0000 -0.0100
v 0.0000 0.0000 -0.0100
v 0.0000 0.0000 -0.0100
v 0.0000 0.0000 -0.0100
v 0.0000 0.0000 -0.0100
v 0.0000 0.0000 -0.0100
v 0.0000 0.0000 -0.0100
v 0.0000 0.0000 -0.0100
v 0.0000 0.0000 -0.0100
v 0.0000 0.0000 -0.0100
v 0.0000 0.0000 -0.0100
v 0.0000 0.0000 -0.0100
v 0.0000 0.0000 -0.0100
v 0.0000 0.0000 -0.0100
v 0.0000 0.0000 -0.0100
v 0.0000 0.0000 -0.0100
v 0.0000 0.0000 -0.0100
v 0.0000 0.0000 -0.0100
v 0.0000 0.0000 -0.0100
v 0.0000 0.0000 -0.0100
v 0.0000 0.0000 -0.0100
v 0.0000 0.0000 -0.0100
v 0.0000 0.0000 -0.0100
v 0.0000 0.0000 -0.0100
v 0.0000 0.0000 -0.0100
v 0.0000 0.0000 -0.0100
v 0.0000 0.0000 -0.0100
v 0.0000 0.0000 -0.0100
v 0.0000 0.0000 -0.0100
v 0.0000 0.0000 -0.0100
v 0.0000 0.0000 -0.0100
v 0.0000 0.0000 -0.0100
v 0.0000 0.0000 -0.0100
v 0.0000 0.0000 -0.0100
v 0.0000 0.0000 -0.0100
v 0.0000 0.0000 -0.0100
v 0.0000 0.0000 -0.0100
v 0.0000 0.0000 -0.0100
v 0.0000 0.0000 -0.0100
v 0.0000 0.0000 -0.0100
v 0.0000 0.0000 -0.0100
v 0.0000 0.0000 -0.0100
v 0.0000 0.0000 -0.0100
v 0.0000 0.0000 -0.0100
v 0.0000 0.0000 -0.0100
v 0.0000 0.0000 -0.0100
v 0.0000 0.0000 -0.0100
v 0.0000 0.0000 -0.0100
v 0.0000 0.0000 -0.0100
v 0.0000 0.0000 -0.0100
v 0.0000 0.0000 -0.0100
v 0.0000 0.0000 -0.0100
v 0.0000 0.0000 -0.0100
v 0.0000 0.0000 -0.0100
v 0.0000 0.0000 -0.0100
v 10.2400 0.0000 -0.0100
v 20.4800 0.0000 -0.0100
v 20.4800 15.6800 -0.0100
v 20.0400 18.0100 -0.0100
v 18.8000 19.7700 -0.0100
v 17.1400 20.3900 -0.0100
v 10.2400 20.3900 -0.0100
v 3.3400 20.3900 -0.0100
v 1.6800 19.7700 -0.0100
v 0.4400 18.0100 -0.0100
v 0.0000 15.6800 -0.0100
v 0.0000 0.0000 -0.0100
v 10.2400 20.3200 -0.0100
v 3.3400 20.3200 -0.0100
v 1.6800 19.6400 -0.0100
v 0.4400 17.9000 -0.0100
v 0.0000 15.5800 -0.0100
v 0.0000 0.0000 -0.0100
v 20.4800 15.5800 -0.0100
v 20.4800 0.0000 -0.0100
v 20.0400 17.9000 -0.0100
v 18.8000 19.6400 -0.0100
v 17.1400 20.3200 -0.0100
v 0.0000 23.9000 -0.0100
v 0.0000 -2.7500 -0.0100
v 15.8700 -2.7300 -0.0100
v 19.6600 -1.9200 -0.0100
v 22.5200 0.3800 -0.0100
v 1.3400 -2.2600 -0.0100
v 20.4300 24.4200 -0.0100
v -1.4300 0.0800 -0.0100
v 5.0300 -3.0800 -0.0100
v 20.4300 -2.9900 -0.0100
v 4.3900 13.6100 -0.0100
v -21.3500 -35.7100 -0.0100
v 10.4700 11.8900 -0.0100
v 15.0200 7.6000 -0.0100
v 16.6200 1.9200 -0.0100
v -2.5600 0.0000 0.0000
v 0.0000 37.5800 0.0000
v 0.0000 37.1300 0.6400
v 0.6400 0.6400 0.0000
v 0.0000 37.1200 0.0000
v -7.5200 0.0000 0.0000
v -28.0800 20.4800 0.0100
v -7.5200 0.0000 0.0000
v -33.2800 0.0000 18.5500
v -28.1600 20.4800 0.0900
v 15.5600 0.1800 0.2200
v -7.5200 0.0000 0.0000
v -33.2800 0.0000 18.5500
v 15.8000 0.4200 0.2400
v -7.4400 0.0000 0.0000
v 12.8800 0.0600 0.0000
v -7.4400 0.0000 0.0000
v -33.2800 0.0000 18.5500
v 15.4600 30.8600 0.1600
v -28.0000 0.0000 17.9200
v -33.2800 0.0000 18.0700
v -28.0800 20.4800 0.0900
v -35.8400 0.0000 0.0700
v -15.5100 -0.1400 2.3900
v 0.1800 -4.9800 -17.7700
v 35.9300 18.0700 5.2600
v -0.1400 2.3900 4.9800
v -4.9800 -17.7700 -35.7500
v 18.0700 5.2600 0.0000
vt 0.0000 2.8750
vt -0.0391 0.0000
vt 0.0391 0.0000
vt -0.0547 0.0869
vt -0.0645 0.0264
vt -0.0547 0.0283
vt -0.0605 0.0137
vt -0.0518 0.0195
vt -0.0518 0.0039
vt -0.0459 0.0127
vt -0.0371 0.0107
vt 0.0371 0.0107
vt 0.0547 0.0283
vt 0.0645 0.0264
vt 0.0547 0.0869
vt 0.0605 0.0137
vt 0.0518 0.0195
vt 0.0518 0.0039
vt 0.0459 0.0127
vt -0.0645 0.1475
vt -0.0547 0.1455
vt -0.0605 0.1602
vt -0.0518 0.1543
vt -0.0518 0.1699
vt -0.0459 0.1611
vt -0.0391 0.1738
vt -0.0371 0.1641
vt 0.0000 0.1641
vt 0.0391 0.1738
vt 0.0645 0.1475
vt 0.0547 0.1455
vt 0.0605 0.1602
vt 0.0518 0.1543
vt 0.0547 0.1455
vt 0.0605 0.1602
vt 0.0518 0.1699
vt 0.0459 0.1611
vt 0.0391 0.1738
vt 0.0371 0.1641
vt 0.0000 0.1641
vt -0.0518 0.1699
vt -0.0391 0.1738
vt -0.0391 0.1738
vt -0.0518 0.1699
vt -0.0605 0.1602
vt -0.0605 0.1602
vt -0.0645 0.1475
vt -0.0645 0.1475
vt -0.0645 0.0264
vt -0.0645 0.0264
vt -0.0605 0.0137
vt -0.0605 0.0137
vt -0.0518 0.0039
vt -0.0518 0.0039
vt -0.0391 0.0000
vt -0.0391 0.0000
vt 0.0391 0.0000
vt 0.0391 0.0000
vt 0.0518 0.0039
vt 0.0518 0.0039
vt 0.0605 0.0137
vt 0.0605 0.0137
vt 0.0645 0.0264
vt 0.0645 0.0264
vt 0.0645 0.1475
vt 0.0645 0.0264
vt 0.0645 0.0264
vt 0.0645 0.1475
vt 0.0605 0.1602
vt 0.0605 0.1602
vt 0.0518 0.1699
vt 0.0518 0.1699
vt 0.0391 0.1738
vt 0.0391 0.1738
vt -0.0391 0.1738
vt -0.0391 0.1738
vt 0.0518 0.1699
vt 0.0605 0.1602
vt 0.0391 0.1738
vt 0.0645 0.1475
vt -0.0645 0.1475
vt -0.0391 0.1738
vt -0.0605 0.1602
vt -0.0518 0.1699
vt -0.0645 0.0264
vt 0.0645 0.0264
vt 0.0391 0.0000
vt 0.0605 0.0137
vt 0.0518 0.0039
vt -0.0391 0.0000
vt -0.0605 0.0137
vt -0.0518 0.0039
vt -0.0410 0.1533
vt -0.0293 0.1484
vt 0.0049 0.1533
vt 0.0166 0.1484
vt -0.0225 0.1357
vt 0.0234 0.1357
vt -0.0225 0.1211
vt 0.0234 0.1211
vt -0.0303 0.1094
vt 0.0156 0.1094
vt 0.0000 0.0439
vt -0.0420 0.1055
vt 0.0039 0.1055
vt 0.0459 0.0439
vt 0.0518 0.0400
vt 0.0459 0.0439
vt 0.0000 0.0439
vt -0.0020 0.0400
vt -0.0420 0.1055
vt -0.0469 0.1064
vt -0.0303 0.1094
vt -0.0322 0.1123
vt -0.0225 0.1211
vt -0.0254 0.1221
vt -0.0225 0.1357
vt -0.0254 0.1348
vt -0.0293 0.1484
vt -0.0322 0.1465
vt -0.0410 0.1533
vt -0.0439 0.1514
vt 0.0049 0.1533
vt -0.0439 0.1553
vt 0.0078 0.1553
vt -0.0439 0.1553
vt 0.0049 0.1533
vt 0.0166 0.1484
vt 0.0195 0.1504
vt 0.0234 0.1357
vt 0.0264 0.1367
vt 0.0234 0.1211
vt 0.0264 0.1201
vt 0.0156 0.1094
vt 0.0176 0.1074
vt 0.0039 0.1055
vt 0.0088 0.1035
vt 0.0459 0.0439
vt 0.0518 0.0400
vt -0.0439 0.1514
vt -0.0410 0.1533
vt 0.0000 0.0869
vt -0.0547 0.0869
vt -0.0547 0.0283
vt -0.0518 0.0195
vt -0.0459 0.0127
vt -0.0371 0.0107
vt 0.0000 0.0107
vt 0.0371 0.0107
vt 0.0459 0.0127
vt 0.0518 0.0195
vt 0.0547 0.0283
vt 0.0547 0.0869
vt 0.0000 0.1641
vt -0.0371 0.1641
vt -0.0459 0.1611
vt -0.0518 0.1543
vt -0.0547 0.1455
vt -0.0547 0.0869
vt 0.0547 0.1455
vt 0.0547 0.0869
vt 0.0518 0.1543
vt 0.0459 0.1611
vt 0.0371 0.1641
vt 0.0000 0.0869
vt 0.0000 0.0107
vt 0.0371 0.0107
vt 0.0459 0.0127
vt 0.0518 0.0195
vt -0.0459 0.0127
vt 0.0000 0.0869
vt -0.0518 0.0195
vt -0.0371 0.0107
vt 0.0000 0.0107
vt 0.0371 0.1641
vt 0.0000 0.0869
vt 0.0459 0.1611
vt 0.0518 0.1543
vt 0.0547 0.1455
vt 0.0000 2.9453
vt 0.0000 0.0000
vt 0.0312 0.0312
vt 0.0000 3.6240
vt 0.0000 3.6230
vt 0.0625 0.0156
vt -2.7344 0.0000
vt -2.7422 1.1250
vt -6.5000 0.0000
vt -6.2500 0.0000
vt -3.5000 8.0020
vt -6.2500 0.0000
vt -6.5000 0.0000
vt -6.2500 0.0000
vt -6.2500 0.0000
vt -2.7266 0.0000
vt -6.2500 0.0000
vt -6.5000 0.0000
vt -6.2500 0.0000
vt 1.2676 3.0156
vt -6.5000 0.0000
vt -6.2500 0.0000
vt -3.5000 8.0020
vt -9.5010 -0.0010
vt 1.9854 3.7412
vt -4.2471 -4.5000
vt 0.0000 0.0000
vt 3.7412 4.4971
vt -4.5000 4.2529
vt 0.0000 0.0000
f 90/90 4/4 124/124
f 128/128 128/128 128/128
f 90/90 4/4 121/121
f 128/128 128/128 128/128
f 26/26 128/128 120/120
f 128/128 128/128 127/127
f 112/112 2/2 125/125
f 64/64 1/1 97/97
f 128/128 128/128 127/127
f 15/15 30/30 31/31
f 31/31 30/30 32/32
f 29/29 28/28 27/27
f 29/29 30/30 28/28
f 31/31 32/32 29/29
f 15/15 13/13 14/14
f 16/16 17/17 2/2
f 11/11 1/1 10/10
f 12/12 1/1 11/11
f 23/23 1/1 22/22
f 13/13 1/1 23/23
f 1/1 2/2 3/3
f 4/4 1/1 3/3
f 5/5 1/1 4/4
f 6/6 7/7 8/8
f 9/9 7/7 6/6
f 10/10 7/7 9/9
f 11/11 12/12 13/13
f 13/13 12/12 14/14
f 14/14 12/12 15/15
f 15/15 30/30 31/31
f 31/31 30/30 32/32
f 29/29 28/28 27/27
f 29/29 30/30 28/28
f 31/31 32/32 29/29
f 15/15 13/13 14/14
f 16/16 17/17 2/2
f 14/14 12/12 15/15
