mtllib assets0A_model_014.mtl
# Conker's Bad Fur Day — Real 3D Model (Bat's Tower Level Models)
o assets0A_model_014
usemtl assets0A_model_014_mat

v 0.0000 38.5600 0.0000
v 0.0000 39.2000 0.0000
v 0.0000 -32.6400 0.0000
v 0.0000 -21.9200 0.0000
v 0.0000 -18.4000 0.0000
v 0.0000 -13.3600 0.0000
v 0.0000 -9.6800 0.0000
v 0.0000 -8.0000 0.0000
v 0.0000 -6.2400 0.0000
v 0.0000 -4.4800 0.0000
v 0.0000 -2.7200 0.0000
v 0.0000 -0.4000 0.0000
v 0.0100 3.3600 0.0000
v 0.0100 15.6000 0.0000
v 0.0100 27.6800 0.0000
v 0.0100 30.4800 0.0000
v 0.1000 0.1100 0.0000
v 0.1000 0.4100 0.0500
v -16.2900 4.8600 3.2000
v 7.6800 0.0000 0.0000
v -32.0000 0.9600 -16.6400
v 0.0000 0.0000 34.2400
v 7.6800 0.0000 0.0000
v -1.2200 -25.8300 0.0000
v 7.6800 0.0000 0.0000
v 35.2300 9.6400 38.6900
v 7.6800 0.0000 0.0000
v 7.6800 0.0000 0.0000
v 7.6800 0.0000 0.0000
v 7.6800 0.0000 0.0000
v 0.1000 0.5600 0.1400
v -6.3500 -39.5900 -3.8000
v 22.7200 0.0000 0.0000
v 7.6800 0.0000 0.0000
v 0.0600 0.0900 0.0400
v 0.1000 0.8600 0.2400
v 7.6800 0.0000 0.0000
v -12.7400 -13.3800 -37.3600
v 37.4400 0.0000 0.0000
v 7.6800 0.0000 0.0000
v 0.1000 0.3100 0.1300
v 0.0400 -8.5600 0.0000
v 7.6800 0.0000 0.0000
v 7.9100 0.8000 -26.9000
v 0.1000 0.5100 0.2000
v -14.0200 -23.2700 0.0000
v 7.6800 0.0000 0.0000
v -3.7900 0.0800 0.0000
v 7.6800 0.0000 0.0000
v -10.8200 0.0900 0.0000
v 7.6800 0.0000 0.0000
v 0.0000 0.0800 0.0000
v 0.1000 0.5500 0.1600
v 0.0000 9.6800 -1.2500
v 0.1000 0.2600 0.1000
v 0.0000 15.1100 0.0000
v 0.1000 0.4000 0.2100
v 7.6800 0.0000 0.0000
v -2.2100 0.0800 0.0200
v 10.2600 16.0800 0.0000
v 0.1000 0.6000 0.1800
v -11.4600 -5.6800 -2.4900
v -3.4500 -10.4700 -0.2900
v 0.1000 0.6000 0.1800
v -11.5200 -2.8100 17.6600
v 22.1300 39.1300 -11.7800
v 0.0000 1.0800 0.0200
v 0.1000 0.1000 0.1200
v 0.0000 -22.0100 0.0000
v -7.4400 0.0000 22.4000
v 0.1000 0.6400 0.1700
v 10.2400 0.0000 0.0000
v 7.6800 0.0000 0.0000
v 3.8500 32.3900 0.0000
v 0.0000 0.0000 -39.3100
v 7.6800 0.0000 0.0000
v -1.2500 0.0900 0.0000
v 7.6800 0.0000 0.0000
v -9.8500 0.0800 0.0000
v 7.6800 0.0000 0.0000
v 0.0000 0.0800 0.0000
v 0.1000 0.8500 0.1600
v 0.1000 0.4500 0.0300
v 7.6800 0.0000 0.0000
v 0.0800 10.2600 20.5600
v 19.6600 0.0300 12.2300
v 7.6800 0.0000 0.0000
v 0.1000 0.8100 0.2300
v -38.6500 -2.1900 -9.2200
v 7.6800 0.0000 0.0000
v 0.1000 1.0600 0.2600
v 0.0000 -37.6800 -1.2200
v -22.6500 0.0000 0.0000
v 0.0500 0.0600 0.0600
v 0.0500 0.0600 0.0600
v 0.0500 0.0600 0.0600
v 0.1000 1.3900 0.2300
v 0.0000 0.0000 -0.5600
v -2.1700 -1.8600 -29.3700
v 12.8000 15.3600 17.0800
v 0.0500 0.0600 0.0600
v 0.0600 0.0600 21.3100
v 0.0000 12.8000 15.3600
v 12.8000 15.3600 16.0800
v 0.0500 0.0600 0.0600
v 17.3300 -29.7900 21.4400
v 12.8000 15.3600 17.7900
v -0.9100 -0.2900 -2.4900
v 0.0500 0.0600 0.0600
v 0.0500 0.0600 0.0600
v 0.0500 0.0600 0.0600
v 0.0500 0.0600 0.0600
v 0.0500 0.0600 0.0600
v 0.0500 0.0600 0.0600
v 0.0500 0.0600 0.0600
v 0.1000 0.4700 0.1400
v 0.0500 0.0600 0.0600
v 0.0500 0.0600 0.0600
v 0.1000 0.3400 0.1200
v 0.0000 0.0800 0.0000
v 7.6800 0.0000 0.0000
v -33.5300 4.2200 17.3400
v -9.8700 0.3500 3.2700
v 0.0500 0.0600 0.0600
v 12.8000 15.3600 15.5200
v 0.1000 0.9100 0.3000
v 0.0500 0.0600 0.0600
v 0.0500 0.0600 0.0600
v 0.0500 0.0600 0.0600
v -7.2900 -22.3400 -3.1200
v 31.7700 -27.7900 -26.8100
v 0.0500 0.0600 0.0600
v 0.0500 0.0600 0.0600
v -31.3100 20.6400 0.0500
v 0.1000 0.9100 0.2900
v 9.0300 2.9600 -23.2700
v -0.9000 0.0000 0.0000
v 12.8000 15.3600 16.1700
v 0.0500 0.0600 0.0600
v 12.8000 15.3600 16.7300
v 0.1000 0.7100 0.1200
v 0.0000 -16.9600 30.4000
v 31.6800 18.8800 30.4000
v 0.0800 0.0000 0.0000
v 0.0500 0.0600 0.0600
v 0.0500 0.0600 0.0600
v 0.0500 0.0600 0.0600
v 0.0500 0.0600 0.0600
v 0.0600 -14.9400 0.0000
v 0.0500 0.0600 0.0600
v 0.1000 0.3000 0.0800
v 0.0500 0.0600 0.0600
v 0.0500 0.0600 0.0600
v 0.0500 0.0600 0.0600
v 0.0500 0.0600 0.0600
v 0.1000 0.9100 0.1400
v 35.2000 10.2400 0.0500
v 34.2400 0.0500 0.0600
v 0.0500 0.0600 0.0600
v 0.0500 0.0600 0.0600
v 0.0500 0.0600 0.0600
v -0.3200 20.4800 0.0000
v 0.0500 0.0600 0.0600
v 28.2400 0.0500 0.0600
v 0.0500 0.0600 0.0600
v 0.0600 0.0600 30.7700
v 0.0500 0.0600 0.0600
v 0.1000 0.3200 0.0800
v 0.0500 0.0600 0.0600
v 0.0500 0.0600 0.0600
v 0.0500 0.0600 0.0600
v 0.0500 0.0600 0.0600
v 0.1000 0.4900 0.0800
v 0.0500 0.0600 0.0600
v 0.0500 0.0600 0.0600
v 0.0500 0.0600 0.0600
v 0.0500 0.0600 0.0600
v 0.0500 0.0600 0.0600
v 0.0500 0.0600 0.0600
v 0.1000 1.2100 0.1000
v 0.0500 0.0600 0.0600
v 0.0600 0.0600 34.0600
v 0.0500 0.0600 0.0600
v 0.0600 0.0600 1.4200
v 0.0500 0.0600 0.0600
v 0.0600 0.0600 7.0200
v 0.0500 0.0600 0.0600
v 0.1000 0.2300 0.0800
v 0.0500 0.0600 0.0600
v 0.0500 0.0600 0.0600
v 0.0500 0.0600 0.0600
v 0.1000 0.2000 0.0800
v 0.0500 0.0600 0.0600
v 0.0500 0.0600 0.0600
v 0.0500 0.0600 0.0600
v 39.7400 -13.7100 27.9100
v 37.8100 -3.5200 0.6400
v -0.3200 20.4800 0.0000
v 0.0500 0.0600 0.0600
v 12.8000 15.3600 15.3600
v 0.0600 0.0600 0.0000
v 0.0500 0.0600 0.0600
v 12.8000 0.0000 12.8000
v 12.8000 15.3600 16.3000
v 0.0000 0.0500 0.0600
v 0.0000 12.8000 15.3600
v 0.1000 0.5100 0.2900
v 0.0000 -19.4500 -2.1700
v -29.6800 -31.9200 -16.5600
v -34.8100 0.0000 0.0000
v 12.8000 15.3600 17.0600
v 0.0500 0.0600 0.0600
v 15.3600 16.2500 29.3200
v 0.1000 0.5900 0.2100
v 0.1000 0.4100 0.0300
v -16.9600 30.4000 28.1600
v 18.8800 30.4000 0.0000
v 7.6800 0.0000 0.0000
v 7.6800 0.0000 0.0000
v 0.1000 0.8700 0.2100
v 7.6800 0.0000 0.0000
v 7.6800 0.0000 0.0000
v 0.1000 0.6100 0.1300
v -22.3300 0.0700 -0.2600
v 0.0000 -20.7400 0.0000
v 0.1000 1.1200 0.0800
v -15.6200 9.0100 -14.7200
v -6.0800 36.1600 0.0000
v 7.6800 0.0000 0.0000
v 0.1000 1.0100 0.0400
v 0.0000 9.2800 -14.7200
v -6.0800 36.1600 0.0000
v 7.6800 0.0000 0.0000
v 10.3100 6.8100 -1.5700
v -21.0500 -1.2300 -30.0100
v 2.9900 39.4200 2.7200
v -21.2900 -2.1200 0.6000
v 0.1000 0.9100 0.1800
v 0.1100 33.6900 0.1100
v -11.7900 12.8900 0.0000
v 0.1000 0.8900 0.2000
v -22.6500 -10.5000 -1.2100
v 0.1000 0.4500 0.1900
v 7.6800 0.0000 0.0000
v 7.6800 0.0000 0.0000
v 0.0000 0.0000 0.0100
v 0.1000 0.7000 0.2100
v 0.1000 0.7800 0.0400
v 0.0000 9.2800 -14.7200
v -6.0800 36.1600 0.0000
v 7.6800 0.0000 0.0000
v 10.6200 7.4300 -0.9600
v -2.2200 -1.2700 -19.1900
v -25.5600 -11.8400 -22.4000
v 0.1000 0.1700 0.1700
v 0.1100 33.3600 0.1100
v -12.4200 9.3400 -14.6500
v -6.0500 19.2600 0.0000
v -24.0100 -4.2800 0.0000
v 7.6800 0.0000 0.0000
v 14.1300 25.0500 -0.6200
v -34.9300 -24.4800 -17.2300
v 0.1000 0.6100 0.1600
v -3.4600 -39.2800 -2.2100
v 23.2400 4.6100 21.9200
v 2.9300 7.0100 20.4800
v 0.1000 0.8100 0.0400
v 0.0000 1.9200 1.2800
v 0.0000 37.4400 0.0000
v 7.6800 0.0000 0.0000
v 36.4800 13.1200 -28.1600
v 7.6800 0.0000 0.0000
v 0.1000 0.6100 0.0900
v -5.3900 -19.4800 0.0000
v 0.1000 0.6100 0.1600
v -3.4600 -39.2800 -2.2100
v 23.2400 4.6100 21.9200
v 2.9300 7.0100 20.4800
v 0.1000 0.8100 0.1100
v -0.2800 -18.1500 0.0000
v 7.6800 0.0000 0.0000
v -3.5000 -27.7600 -4.4400
v 0.0300 0.0300 0.0000
v 7.6800 0.0000 0.0000
v -29.7600 -2.2400 -22.0800
v 18.2400 -5.1200 -17.6000
v 7.6800 0.0000 0.0000
v -3.5200 26.2400 0.0000
v 0.0000 0.0000 -22.4000
v 0.1000 1.6100 0.0400
v 0.0000 1.9200 1.2800
v 0.0000 37.4400 0.0000
v -39.3200 -4.7300 -4.4100
v -5.7000 -19.4400 0.0000
v 0.0500 0.0600 0.0600
v 21.4400 22.3200 1.4100
v 0.0500 0.0600 0.0600
v 34.8800 0.0500 0.0600
v 0.0500 0.0600 0.0600
v 0.0500 0.0600 0.0600
v 0.0500 0.0600 0.0600
v 0.0500 0.0600 0.0600
v 0.1000 0.6000 0.1600
v -2.8200 -39.2800 -2.2100
v 13.7200 8.1200 2.8800
v 8.8000 2.8400 1.2800
v 9.0400 2.6800 0.3200
v 0.1000 1.7200 0.2000
v -6.0200 -24.8700 -13.7000
v 0.1000 0.9100 0.1100
v 0.0000 -0.2800 -0.2800
v 7.6800 0.0000 0.0000
v -11.7900 14.1400 0.0000
v 0.0000 0.0000 -22.4000
v 0.1000 0.6100 0.2000
v 0.7800 0.1700 -21.2200
v 0.1000 0.3100 0.2300
v 0.1000 0.5100 0.2100
v 7.6800 0.0000 0.0000
v 32.0900 32.0200 0.3200
v 7.6800 0.0000 0.0000
v -3.4500 26.3200 0.0000
v 0.6700 0.0000 0.1400
v 0.1000 0.4100 0.1000
v 5.4400 -23.9300 -14.6800
v 0.1000 1.4100 0.2000
v 0.1000 2.0000 0.2200
v -35.7600 -14.9700 -14.6500
v 7.6800 0.0000 0.0000
v -0.6400 3.8400 -24.0000
v 0.1000 0.6000 0.0900
v -8.5700 31.7200 27.2600
v 0.1000 1.1000 0.2100
v -27.4200 -28.0900 -27.8400
v 7.6800 0.0000 0.0000
v 0.1000 0.8600 0.0500
v 0.8000 0.0500 11.8400
v 0.1000 0.4100 0.0500
v 7.6800 0.0000 0.0000
v 7.6800 0.0000 0.0000
v -7.6800 -13.1200 -1.6000
v -4.4800 1.6000 4.4800
v -9.2800 4.4800 -24.0000
v 7.6800 0.0000 0.0000
v 7.6800 0.0000 0.0000
v 7.6800 0.0000 0.0000
v -22.9700 2.0100 0.0000
v 11.5200 0.0000 20.0200
v 7.6800 0.0000 0.0000
v 0.0500 -11.4400 -0.3100
v 3.0400 0.0000 0.0000
v 0.1000 0.3500 0.2200
v -22.6500 -32.8800 -4.4200
v 0.1000 1.6100 0.2400
v -10.5000 -27.4300 -4.1000
v 7.6800 0.0000 0.0000
v 0.1000 0.2100 0.1900
v 0.0000 0.0800 0.0700
v -33.5300 0.0400 0.0600
v 7.6800 0.0000 0.0000
v 7.6800 0.0000 0.0000
v 0.1600 0.0100 0.0000
v 0.1000 0.4300 0.1800
v 0.0000 0.0700 0.0800
v 0.0800 0.0800 0.0600
v 7.6800 0.0000 0.0000
v 0.1000 0.6100 0.1700
v 0.1000 1.2800 0.0300
v 7.6800 0.0000 0.0000
v 0.1000 1.0100 0.2300
v 7.6800 0.0000 0.0000
v 7.6800 0.0000 0.0000
v -35.2700 8.6300 30.5200
v 7.6800 0.0000 0.0000
v 7.6800 0.0000 0.0000
v -38.6400 -30.3100 -2.5400
v -18.1600 10.2900 -22.9700
v 0.1000 0.5100 0.1900
v -1.8400 -14.3300 -36.0700
v -16.9600 -0.2500 20.8800
v 2.9700 -31.6000 0.0500
v 0.1000 0.4100 0.1500
v 19.2600 -5.0400 -34.8100
v 20.4800 1.6000 1.4100
v 7.6800 0.0000 0.0000
v 2.9200 -26.8000 -5.0800
v -30.3100 3.6000 -14.3300
v 7.6800 0.0000 0.0000
v 0.0700 0.0800 0.0500
v 7.6800 0.0000 0.0000
v -14.6400 0.0900 0.0000
v 12.2500 -38.4200 26.6400
v 32.5000 -32.8900 -9.1800
v 7.6800 0.0000 0.0000
v 0.0000 0.0800 0.0000
v 0.1000 1.3300 0.2200
v 0.1000 1.9600 0.1800
v -30.4000 -6.6400 0.0600
v -0.2500 -30.6400 0.0600
v 7.6800 0.0000 0.0000
v -25.8400 -38.6300 0.0000
v 0.1000 1.4400 0.1900
v 0.1000 1.5100 0.1700
v 0.0000 -6.6400 0.0300
v 7.6800 0.0000 0.0000
v -27.4500 -12.7400 -39.2900
v 0.1000 2.4700 0.2100
v 0.1000 2.2100 0.1800
v -15.6200 10.3300 -6.3400
v 0.1000 0.5900 0.1800
v -14.3400 -13.6800 -12.4300
v 5.1200 0.7200 1.2800
v 0.1000 0.8900 0.1900
v 0.0300 0.0700 -3.4800
v 7.6800 0.0000 0.0000
v -12.0800 -9.5100 -25.8500
v 7.6800 0.0000 0.0000
v 0.0000 0.0800 -0.9400
v 0.1000 0.2900 0.1400
v -34.1700 0.0000 0.0000
v 0.1000 0.2200 0.1500
v 0.0000 -36.3900 0.0500
v 0.1000 0.2500 0.1600
v 20.2900 27.4800 0.0700
v 0.1000 0.5100 0.1200
v 0.0000 -5.6900 0.0000
v 7.6800 0.0000 0.0000
v -0.2700 -2.1500 0.0000
v 0.1000 2.2800 0.2000
v 7.6800 0.0000 0.0000
v 0.1000 0.5300 0.1500
v -35.1300 -1.5500 -4.4300
v -5.4200 7.4200 0.0000
v 7.6800 0.0000 0.0000
v -4.4300 0.0900 0.0000
v 7.6800 0.0000 0.0000
v 0.0000 0.0600 0.0000
v -28.4100 0.0800 -5.7100
v 0.1000 1.8100 0.1000
v -24.0000 17.6100 -1.5500
v 0.0000 -35.4400 0.0000
v 0.1000 1.1100 0.2100
v 0.0700 5.2000 -4.4400
v 7.6800 0.0000 0.0000
v 11.2000 -10.2400 -37.4400
v 7.6800 0.0000 0.0000
v -35.1200 -24.5500 -5.0700
v 7.7200 -10.2100 -37.3700
v 7.6800 0.0000 0.0000
v -25.5200 -15.5900 -11.7800
v 0.1000 2.5000 0.2100
v 0.1000 0.5600 0.1600
v 0.1000 0.4100 0.1300
v -30.9700 -21.6900 -26.8000
v -8.2700 -18.4800 0.0000
v 12.0500 25.8000 0.0600
v 0.1000 0.5100 0.2000
v -28.4100 -12.7400 -9.2300
v -10.1800 0.0500 0.0000
v 7.6800 0.0000 0.0000
v 0.0000 0.0900 0.0000
v 0.0200 4.4400 0.0000
v 0.1000 2.1400 0.1800
v 0.1000 0.4000 0.0300
v 7.6800 0.0000 0.0000
v 0.1000 0.4000 0.0500
v 7.6800 0.0000 0.0000
v 7.6800 0.0000 0.0000
v 7.6800 0.0000 0.0000
v 7.6800 0.0000 0.0000
v 0.1000 1.1600 0.0600
v 7.6800 0.0000 0.0000
v 0.1000 2.2700 0.0700
v 36.1800 -34.4800 28.2800
v 7.6800 0.0000 0.0000
v 7.6800 0.0000 0.0000
v 7.6800 0.0000 0.0000
v 0.1000 0.6100 0.1600
v -13.0500 5.1900 -31.9300
v 0.1000 1.2100 0.0300
v -17.9200 -23.0400 -13.1200
v 0.1000 0.1600 0.1800
v 4.8700 -10.8000 -38.9600
v 0.1000 0.5000 0.0000
v -20.4800 8.9600 29.7600
v 0.1000 0.5800 0.1400
v 0.0000 0.0800 0.0000
v 0.1100 0.0000 30.4000
v 0.1000 1.3100 0.2100
v 0.1000 2.0100 0.2300
v -30.9700 -3.7600 -14.9600
v 7.6800 0.0000 0.0000
v 0.1000 2.3700 0.2200
v -9.2100 -6.0200 -10.4900
v -15.6000 -26.1500 -4.4200
v 7.6800 0.0000 0.0000
v 0.1000 1.3200 0.2200
v 0.1000 2.3600 0.2400
v 0.1000 1.4700 0.2300
v -33.5200 27.9200 20.5500
v -27.1200 -22.0000 -15.6100
v 0.1000 2.3600 0.2400
v 0.1000 0.9900 0.2400
v -33.5200 7.4400 7.7500
v 0.1000 2.2200 0.2100
v -25.8500 -10.1600 9.9800
v -5.6900 -26.4800 2.2500
v 0.1000 1.9300 0.2200
v 7.6800 0.0000 0.0000
v 0.0400 -29.3700 -0.6200
v 0.0200 0.0700 -30.3300
v -14.9800 0.0700 -20.7300
v 7.6800 0.0000 0.0000
v 0.1000 0.5100 0.2300
v 7.6800 0.0000 0.0000
v -18.8100 -14.6300 -0.5800
v 7.6800 0.0000 0.0000
v 7.6800 0.0000 0.0000
v 7.6800 0.0000 0.0000
v -8.5700 -39.2700 0.0000
v 0.1000 0.2900 0.1500
v 0.0000 -0.3100 -11.7800
v 0.0700 0.0800 0.0100
v 7.6800 0.0000 0.0000
v 0.1000 0.9100 0.0300
v -13.1200 31.3600 16.9600
v -0.0500 0.1800 0.3500
v 0.1800 0.3500 0.0000
v 0.3500 0.0000 0.0000
v 0.1000 0.2100 0.0300
v -22.0800 -8.6400 13.7600
v 7.6800 0.0000 0.0000
v -37.0400 -24.8800 -9.2300
v 7.6800 0.0000 0.0000
v -37.1200 -21.1200 -9.2800
v 7.6800 0.0000 0.0000
v 7.6800 0.0000 0.0000
v 1.6100 0.3400 2.5400
v 9.1000 24.7100 2.5400
v 9.2800 14.3200 2.3500
v 7.6800 0.0000 0.0000
v 0.0400 0.0500 0.0700
v 0.1000 0.5100 0.1800
v -31.9300 -19.1200 -15.9400
v 0.1000 0.5100 0.2200
v 7.1000 26.6400 -5.3800
v 14.4800 38.4000 0.0000
v 7.6800 0.0000 0.0000
v 0.0700 -0.8800 0.0400
v 0.1000 0.4100 0.2300
v -0.2500 -36.0900 -7.6200
v 0.1000 1.0100 0.1500
v -14.0200 0.0700 -16.5700
v 0.0000 0.0500 -2.1700
v 7.6800 0.0000 0.0000
v 0.0800 0.0900 0.0000
v 0.0800 -23.4400 1.2900
v 7.6800 0.0000 0.0000
v 0.1000 0.5000 0.0100
v -29.1200 0.0000 0.0000
v 0.0000 -13.7600 0.0000
v 0.1000 2.5000 0.1100
v -37.0500 0.0000 0.0000
v 0.0000 -27.7600 0.0000
v 0.1000 1.8100 0.1200
v -29.0500 0.0000 0.0000
v 0.0000 -13.6800 0.0000
v 7.6800 0.0000 0.0000
v -5.3900 -30.9600 0.0100
v 0.0000 0.0000 -29.0500
v 0.1000 2.0500 0.1400
v 0.0000 -18.4800 0.0000
v 14.0000 0.0000 3.8500
v 22.1000 15.0400 20.6400
v 7.6800 0.0000 0.0000
v -5.3900 -30.9600 0.0000
v 0.0000 0.0000 -28.4100
v -33.2100 0.0400 -3.4800
v 0.1000 0.5100 0.1000
v -3.8000 -4.7600 -2.5200
v 0.0000 0.0700 0.0700
v -6.3500 -24.2500 0.0000
v 0.1000 0.6600 0.1300
v -22.6500 -26.8000 0.0000
v 0.1000 0.1700 0.0300
v 0.1000 0.4000 0.0200
v 7.6800 0.0000 0.0000
v 0.1000 0.5100 0.0600
v 7.6800 0.0000 0.0000
v 0.0000 -5.7100 0.0000
v 0.0000 0.0000 -3.8000
v -13.0600 28.4800 -24.9600
v 0.1000 0.4100 0.0200
v -6.4000 0.0000 0.0000
v 0.0000 -9.2800 0.0000
v 7.6800 0.0000 0.0000
v 0.0000 -5.3900 0.0000
v 0.0000 0.0000 -3.4800
v -12.1000 0.0700 -24.8900
vt 0.0000 3.8281
vt 0.0000 3.8906
vt 0.0000 -3.1250
vt 0.0000 -2.0781
vt 0.0000 -1.7344
vt 0.0000 -1.2422
vt 0.0000 -0.8828
vt 0.0000 -0.7188
vt 0.0000 -0.5469
vt 0.0000 -0.3750
vt 0.0000 -0.2031
vt 0.0010 0.0234
vt 0.0010 0.3906
vt 0.0010 1.5859
vt 0.0010 2.7656
vt 0.0010 3.0391
vt 0.7500 0.0000
vt 0.7500 0.0000
vt 5.3750 1.2256
vt -0.8750 0.0000
vt 5.9375 4.9688
vt -1.4688 1.5625
vt -10.4941 6.5684
vt -3.8359 -0.3389
vt -0.6475 -1.8994
vt 30.6807 -6.6055
vt -8.0215 -4.4609
vt 0.0000 0.0000
vt -2.3984 -2.3662
vt 0.3203 6.3438
vt 0.7500 0.0000
vt -8.8662 0.0000
vt 0.0098 0.0449
vt -2.6807 0.0068
vt -9.1475 -0.8389
vt 0.7500 0.0000
vt -0.8125 -1.0938
vt 0.0000 -15.0938
vt 0.0098 0.0518
vt -3.8975 -7.4609
vt 0.7500 0.0000
vt -6.6797 0.0068
vt -2.2734 -1.9629
vt -8.7012 21.3936
vt 0.7500 0.0000
vt -10.8975 -14.8027
vt -9.3662 -2.1172
vt -3.0244 0.0000
vt -10.3340 -10.8037
vt -8.8037 -0.2461
vt -3.8047 -4.8672
vt -6.3672 0.0000
vt 0.7500 0.0000
vt -7.4287 2.1016
vt 0.7500 0.0000
vt -4.6494 5.4434
vt 0.7500 0.0000
vt -8.9287 -8.2100
vt -8.9912 0.0078
vt -10.2803 18.6777
vt 0.7500 0.0000
vt 0.0000 0.0000
vt -4.1172 -11.2100
vt 0.7500 0.0000
vt 0.0000 0.0000
vt -4.4609 -7.7715
vt -30.9600 16.2998
vt 0.7500 0.0000
vt -5.1484 0.0068
vt -18.8438 0.1367
vt 0.7500 0.0000
vt 0.0098 0.0293
vt -4.7129 -5.4004
vt -4.3682 0.0000
vt 0.0000 -0.6816
vt -10.8975 -9.1475
vt -6.7109 0.0000
vt -5.3984 -10.5225
vt -8.0850 -0.1221
vt -4.4922 -5.3359
vt -7.1797 0.0000
vt 0.7500 0.0000
vt 0.7500 0.0000
vt -1.9141 0.0098
vt 11.2510 0.8145
vt 16.0312 -15.9297
vt -0.0850 -10.8037
vt 0.7500 0.0000
vt 0.0068 -0.2158
vt -2.0869 -0.0547
vt 0.7500 16.0000
vt -13.4287 0.0000
vt 0.0049 0.0059
vt 16.0146 1.5352
vt 0.8789 -20.8330
vt -31.2764 26.2266
vt 0.7500 16.0000
vt -3.3984 -0.0273
vt 0.0000 -3.0557
vt 30.2744 -8.6670
vt -12.3125 10.0195
vt 29.1484 -31.4834
vt 0.8535 -28.7168
vt -26.1973 -30.8867
vt 1.2578 -22.5195
vt 7.0977 28.9863
vt -9.5605 29.0039
vt 0.0000 -2.2119
vt 12.0059 17.0693
vt -31.8105 7.2061
vt 14.4395 13.8760
vt -6.4678 29.2998
vt -18.9316 17.0693
vt -21.2480 1.4463
vt 11.3164 1.5703
vt 0.7500 16.0000
vt -25.1172 5.0156
vt 1.8711 8.5273
vt 0.7500 0.0000
vt -5.9297 -1.1494
vt -3.3682 -6.9014
vt -15.1387 18.5166
vt 0.0000 -3.9619
vt -31.8838 -27.3184
vt -23.9658 -8.7148
vt 0.7500 16.0000
vt -25.4336 -23.5137
vt 3.7559 -10.2305
vt -18.1133 -28.7695
vt -2.3369 -5.6787
vt 0.9746 -1.7744
vt -3.2490 -20.8750
vt 7.2852 -0.9092
vt 0.0059 -21.2432
vt 0.7500 16.0000
vt -1.6182 -8.8359
vt 0.0049 0.0059
vt 13.3818 29.2578
vt -27.9551 25.3691
vt 0.5088 30.5654
vt 0.7500 16.0000
vt 1.1875 0.0000
vt 0.0000 -3.8750
vt 0.0049 0.0059
vt 9.4375 -28.7207
vt 10.1113 20.8467
vt -27.7090 7.9092
vt 11.0020 0.4443
vt 0.0049 0.0059
vt -15.0303 -22.7500
vt 0.7500 16.0000
vt 0.0049 0.0059
vt 0.0049 0.0059
vt 0.0049 0.0059
vt 0.0049 0.0059
vt 0.7500 16.0000
vt 0.0059 22.8672
vt 25.2461 21.6768
vt -9.5986 17.7617
vt 20.5605 -19.9824
vt -4.3613 -19.9824
vt 0.0000 0.0000
vt 30.2578 0.0049
vt 22.5137 -6.2422
vt 20.1875 0.0049
vt 0.0049 0.0059
vt -25.8867 0.0049
vt 0.7500 16.0000
vt 0.0049 0.0059
vt 0.0049 0.0059
vt 0.0049 0.0059
vt 0.0049 0.0059
vt 0.7500 16.0000
vt 0.0049 0.0059
vt 0.0049 0.0059
vt 0.0049 0.0059
vt 0.0049 0.0059
vt 0.0049 0.0059
vt 0.0049 0.0059
vt 0.7500 16.0000
vt -20.9844 0.0049
vt 0.0049 0.0059
vt 22.6719 0.0049
vt 0.0049 0.0059
vt 20.6582 0.0049
vt 0.0049 0.0059
vt 12.3271 0.0049
vt 0.7500 16.0000
vt 0.0049 0.0059
vt 0.0049 0.0059
vt 0.0049 0.0059
vt 0.7500 16.0000
vt 0.0049 0.0059
vt 0.0049 0.0059
vt 0.0098 0.1221
vt 0.0000 3.0938
vt 4.5029 -2.0879
vt 0.0000 0.0000
vt -18.1084 -31.6377
vt 20.4443 -14.2881
vt -14.9473 -21.4189
vt -27.7109 21.2539
vt 1.5508 18.3818
vt 13.3350 -11.1377
vt 26.1436 21.8008
vt -8.7129 9.0322
vt 0.7500 16.0000
vt -3.2119 -2.1807
vt -2.3057 -8.7422
vt 0.0049 0.0059
vt 0.1426 11.6270
vt -20.8516 12.1895
vt 12.3584 -16.7998
vt 0.7500 0.0000
vt 0.7500 0.0000
vt 0.0000 0.0000
vt -3.8750 7.1562
vt -3.5557 -1.8359
vt -12.2715 -5.4277
vt 0.7500 0.0000
vt 0.6250 -1.0625
vt -23.5215 -0.1162
vt 0.7500 0.0000
vt 0.0000 0.0000
vt -5.4922 0.0000
vt 0.7500 0.0000
vt 0.0000 0.0000
vt 0.0000 -4.1562
vt -12.5254 3.2197
vt 0.7500 0.0000
vt 0.0000 0.0000
vt 0.0000 -4.1562
vt 0.0107 3.1650
vt -3.9922 0.7568
vt -0.9326 0.2588
vt -7.2988 -30.3984
vt -27.2217 24.2959
vt 0.7500 0.0000
vt 1.4736 2.8838
vt -3.9297 -4.2754
vt 0.7500 0.0000
vt -0.0293 -0.4023
vt 0.7500 0.0000
vt -1.6543 -0.4961
vt -12.5273 -6.4287
vt -0.5938 3.5312
vt 0.7500 0.0000
vt 0.7500 0.0000
vt 0.0000 0.0000
vt 0.0000 -4.1562
vt -3.0215 11.0381
vt -1.5898 2.0674
vt -0.3721 0.2559
vt 1.3154 0.8965
vt 0.7500 0.0000
vt 2.2217 4.2881
vt -0.2158 -0.1221
vt -2.4932 -4.1494
vt -21.0000 0.0205
vt 0.0107 5.4775
vt -4.4609 -0.2129
vt -15.7764 -15.4082
vt 0.7500 0.0000
vt -6.2451 -4.1494
vt 27.0371 -12.7441
vt 6.0059 -27.2461
vt 0.7500 0.0000
vt 0.0000 0.0000
vt -4.0312 0.0000
vt -16.0225 7.6016
vt 6.5020 -2.6484
vt -4.3662 -6.6797
vt 0.7500 0.0000
vt -6.2188 -4.1562
vt 0.7500 0.0000
vt -6.2451 -4.1494
vt 27.0371 -12.7441
vt 6.0059 -27.2461
vt 0.7500 0.0000
vt -6.3682 0.0000
vt -19.4277 -6.3965
vt -10.4600 0.1914
vt 6.6572 -11.4453
vt -7.7109 -3.3359
vt -3.7500 3.5000
vt -0.9375 2.5625
vt -10.2100 -10.6787
vt 0.0000 0.1875
vt 0.0000 3.6562
vt 0.7500 0.0000
vt 0.0000 0.0000
vt -4.0312 0.0000
vt 0.0000 0.0000
vt -8.1172 -5.6816
vt 2.0391 0.1396
vt 2.6045 18.1797
vt 1.3047 0.1084
vt 8.8438 2.1641
vt 2.5078 0.2568
vt 7.3281 1.4883
vt 0.0078 0.3145
vt 2.0391 0.1396
vt 0.0000 0.0000
vt -6.2451 -4.1494
vt 20.0576 12.0078
vt -7.9736 13.0000
vt -23.9736 15.0039
vt 0.7500 0.0000
vt -7.6172 -9.5859
vt 0.7500 0.0000
vt 0.0000 0.0000
vt -3.2109 -4.5234
vt 0.0000 0.1592
vt 0.0049 1.1318
vt 0.7500 0.0000
vt -11.8838 -5.4297
vt 0.7500 0.0000
vt 0.7500 0.0000
vt -5.4609 -11.1787
vt -29.7793 -18.1230
vt -1.5547 -4.4922
vt 0.0000 0.1934
vt 6.6475 24.0000
vt 0.7500 0.0000
vt 0.0000 0.0000
vt 0.7500 0.0000
vt 0.7500 0.0000
vt -0.1201 -0.0586
vt -2.5586 0.4746
vt 0.0000 -6.7422
vt 0.7500 0.0000
vt 0.0000 -8.3057
vt 0.7500 0.0000
vt 14.7754 15.0752
vt -14.3818 0.0098
vt 0.7500 0.0000
vt 3.2559 -23.8828
vt 0.7500 0.0000
vt 0.0000 0.0000
vt 0.0000 0.0000
vt -1.4688 1.1875
vt -0.5938 -0.5625
vt 0.0098 0.0400
vt -0.2188 5.4062
vt -3.1182 0.3193
vt -0.2188 5.4062
vt -6.0557 -1.2422
vt 10.9395 1.1250
vt -9.7725 5.0977
vt -6.0547 -0.5859
vt 5.1865 14.6260
vt 0.7500 0.0000
vt -7.1797 -7.2109
vt 0.7500 0.0000
vt -8.4609 -6.5225
vt -3.3662 -2.1494
vt 0.7500 0.0000
vt 0.0039 -0.0605
vt -6.3359 0.0098
vt -1.8125 -7.0312
vt 0.0156 0.0010
vt 0.0000 0.0000
vt 0.7500 0.0000
vt 0.0000 0.0000
vt -4.4297 -6.1787
vt -8.1162 -5.5234
vt 0.7500 0.0000
vt 0.7500 0.0000
vt -0.4297 -3.9922
vt 0.7500 0.0000
vt -9.3672 -8.8975
vt -12.9277 -0.2725
vt -28.8662 10.3438
vt -1.3066 -2.8369
vt -4.8965 -4.7109
vt -3.4004 0.1318
vt -0.5557 -9.9912
vt 0.7500 0.0000
vt 0.0068 -2.7100
vt 0.0039 0.0039
vt -6.6484 -6.7412
vt 0.7500 0.0000
vt 0.0361 -9.4912
vt -15.3662 -1.5000
vt -8.3662 -6.1162
vt -5.8047 -12.5850
vt 1.6924 -3.7412
vt -7.5850 -1.6484
vt -1.8066 0.0068
vt -14.7412 -8.9590
vt -13.4600 -0.6807
vt -17.5576 17.4336
vt 8.2324 -6.6787
vt -5.8359 -3.7432
vt 0.0059 0.0000
vt 0.7500 0.0000
vt 0.7500 0.0000
vt 0.0068 0.0049
vt -5.8369 -6.5225
vt -12.0234 -2.4609
vt 0.0000 -1.8682
vt 0.7500 0.0000
vt 0.7500 0.0000
vt -13.8975 -0.1475
vt -9.9912 -1.1787
vt -0.2744 -5.9287
vt 0.7500 0.0000
vt 0.7500 0.0000
vt -8.6162 -5.6182
vt 0.7500 0.0000
vt -13.6172 -4.1797
vt 8.5000 0.0000
vt 0.7500 0.0000
vt -8.7725 0.0078
vt -6.6475 -3.8662
vt -2.1807 -0.4922
vt -2.2725 -2.0557
vt -4.7109 0.0000
vt 0.7500 0.0000
vt 0.0000 0.0000
vt 0.7500 0.6875
vt -9.2109 0.8818
vt 0.7500 0.6875
vt -7.9736 -1.4707
vt 0.7500 0.0000
vt -2.3994 -0.7764
vt -7.1172 -6.1172
vt -6.0547 0.0000
vt 0.7500 0.0000
vt -15.3350 -4.4287
vt 0.7500 0.0000
vt 0.0000 0.0000
vt -3.2432 1.3516
vt -12.9600 -7.7100
vt -8.4600 -2.4619
vt -10.1201 5.3496
vt -3.0557 0.0000
vt 0.0078 0.3828
vt 0.7500 0.0000
vt 0.0000 0.0000
vt -5.0000 -1.0234
vt 0.7500 0.0000
vt -8.1787 -6.3975
vt -13.2100 0.7256
vt 0.5693 -1.6484
vt -8.1807 1.3203
vt -4.8994 0.3486
vt 2.5977 -2.1807
vt -7.5840 -13.9590
vt -4.6484 -0.2734
vt 0.7500 0.0000
vt 0.7500 0.0000
vt 0.7500 0.0000
vt -1.4941 -4.7109
vt -3.8682 0.0068
vt -26.4971 -31.9297
vt 0.7500 0.0000
vt -0.6514 -0.8701
vt -3.2744 0.0088
vt -2.9619 -6.9600
vt -7.6172 -0.1846
vt 9.0791 0.2588
vt 0.7500 0.0000
vt 0.7500 0.0000
vt -1.9980 -8.3418
vt 0.7500 0.0000
vt -2.2451 -5.5625
vt -1.9023 -8.9326
vt -7.6475 -7.0850
vt 1.3828 -1.3994
vt 0.7500 0.0000
vt -2.0850 -8.3350
vt 0.7500 0.0000
vt -7.3262 -29.9883
vt -0.8057 3.0977
vt 0.4736 2.9111
vt 0.7236 2.9102
vt 0.7500 0.0000
vt -0.0605 -4.6182
vt 0.7500 0.0000
vt -0.1250 -0.1875
vt 0.7500 0.0000
vt -0.0303 -6.5547
vt 0.7500 0.0000
vt 0.0000 0.0000
vt 0.7500 0.0000
vt -7.2734 -2.8379
vt 18.5010 5.5723
vt 0.7500 0.0000
vt 0.7500 0.0000
vt -0.2451 0.0049
vt -1.1172 -0.2734
vt 0.7500 0.0000
vt -0.8691 -0.0273
vt -5.4609 -10.9912
vt -8.1162 -12.2090
vt 0.7500 0.0000
vt 0.7500 0.0000
vt 0.7500 0.0000
vt -2.0244 -1.4941
vt -4.6172 -3.9307
vt 0.7500 0.0000
vt 0.7500 0.0000
vt -0.9639 -1.2119
vt 0.7500 0.0000
vt -1.6826 0.8174
vt -5.8057 -10.7109
vt 0.7500 0.0000
vt -10.5225 0.0078
vt -0.6514 0.0049
vt -0.3398 -1.8379
vt -21.8750 16.2881
vt -7.8662 -3.6172
vt 0.7500 0.0000
vt -8.8975 -12.5840
vt -12.7412 -1.1807
vt -11.6162 -9.8652
vt -2.6484 -3.2109
vt -14.3340 -4.2725
vt -16.2715 -0.4932
vt 0.7500 0.0000
vt 0.0000 0.0000
vt -3.3369 -1.3379
vt -8.9287 0.7891
vt 0.7500 0.0000
vt -4.4062 1.3125
vt 0.0000 0.0000
vt 0.0000 0.2031
vt 0.2031 0.0000
vt 0.7500 0.0000
vt 0.7812 0.4375
vt -3.7119 -0.8076
vt -2.6182 0.0059
vt -3.7188 -0.8125
vt -2.6250 0.5625
vt -20.1465 0.0088
vt 0.0107 0.1338
vt -11.8584 -8.5352
vt -11.8809 14.5449
vt 7.0547 16.2568
vt -4.5234 -2.4297
vt -2.5879 5.0703
vt 0.7500 0.0000
vt 0.0000 0.0000
vt 0.7500 0.0000
vt -10.0850 -4.8047
vt 0.0098 0.0498
vt -1.1816 0.0059
vt -1.2129 0.0059
vt 0.7500 0.0000
vt -3.6182 -14.3965
vt 0.7500 0.0000
vt 0.0049 -5.6475
vt 0.0000 0.0000
vt 0.0068 0.0039
vt 0.0000 -1.5879
vt 24.7656 -7.8018
vt -4.8672 -1.0244
vt 0.7500 0.0000
vt 0.0000 0.0000
vt -1.1875 0.0000
vt 0.7500 0.0000
vt 0.0000 0.0000
vt -3.2432 -0.0586
vt 0.7500 0.0000
vt 0.0000 0.0000
vt -5.4297 -0.6191
vt -7.8076 1.5371
vt -3.9004 0.0000
vt 0.0000 -1.3359
vt 0.7500 0.0000
vt -9.2100 -0.5879
vt 12.3975 -22.5781
vt -1.5908 15.0137
vt -7.4961 1.5371
vt -2.8379 0.0000
vt 0.0000 -1.3359
vt 0.0000 -16.0000
vt 0.7500 0.0000
vt 0.0049 0.0059
vt 0.0000 0.0000
vt 0.0000 -4.5234
vt 0.7500 0.0000
vt 0.0000 0.0049
vt 0.7500 0.0000
vt 0.7500 0.0000
vt -4.8369 -8.3350
vt 0.7500 0.0000
vt -2.6826 2.3135
vt -0.6514 0.0000
vt 0.0000 -0.9639
vt 1.6650 21.9932
vt 0.7500 0.0000
vt 0.0000 0.0000
vt -1.1875 2.7812
vt -1.1504 0.0059
vt -0.6201 0.0000
vt 0.0000 -0.9014
vt 0.9531 0.0000
f 11/11 82/82 33/33
f 33/33 6/6 41/41
f 67/67 81/81 35/35
f 31/31 46/46 111/111
f 3/3 49/49 68/68
f 98/98 31/31 2/2
f 74/74 67/67 10/10
f 12/12 101/101 65/65
f 1/1 5/5 19/19
f 90/90 73/73 60/60
f 65/65 27/27 113/113
f 53/53 59/59 97/97
f 18/18 10/10 82/82
f 65/65 16/16 70/70
f 20/20 1/1 30/30
f 114/114 92/92 122/122
f 13/13 6/6 22/22
f 25/25 39/39 97/97
f 26/26 13/13 37/37
f 83/83 73/73 125/125
f 1/1 4/4 1/1
f 1/1 4/4 33/33
f 63/63 1/1 25/25
f 12/12 23/23 70/70
f 1/1 39/39 124/124
f 1/1 4/4 1/1
f 1/1 4/4 9/9
f 25/25 85/85 81/81
f 17/17 113/113 55/55
f 121/121 85/85 121/121
f 1/1 4/4 1/1
f 1/1 4/4 79/79
f 14/14 86/86 26/26
f 80/80 122/122 78/78
f 124/124 65/65 19/19
f 5/5 83/83 119/119
f 1/1 4/4 1/1
f 99/99 123/123 47/47
f 49/49 49/49 73/73
f 1/1 4/4 90/90
f 57/57 125/125 16/16
f 110/110 39/39 107/107
f 66/66 43/43 13/13
f 1/1 4/4 1/1
f 1/1 4/4 121/121
f 6/6 110/110 94/94
f 12/12 2/2 63/63
f 40/40 97/97 68/68
f 13/13 2/2 49/49
f 55/55 93/93 37/37
f 1/1 4/4 1/1
f 1/1 4/4 33/33
f 126/126 2/2 40/40
f 58/58 14/14 24/24
f 110/110 97/97 66/66
f 1/1 4/4 1/1
f 1/1 4/4 35/35
f 49/49 124/124 122/122
f 1/1 4/4 3/3
f 4/4 79/79 27/27
f 1/1 4/4 1/1
f 9/9 5/5 21/21
f 101/101 43/43 76/76
f 61/61 71/71 79/79
f 1/1 4/4 108/108
f 67/67 85/85 41/41
f 1/1 4/4 1/1
f 101/101 40/40 37/37
f 5/5 56/56 94/94
f 1/1 4/4 87/87
f 35/35 74/74 1/1
f 1/1 4/4 1/1
f 49/49 65/65 1/1
f 1/1 4/4 1/1
f 38/38 21/21 33/33
f 27/27 36/36 1/1
f 16/16 89/89 10/10
f 53/53 1/1 3/3
f 1/1 1/1 92/92
f 66/66 9/9 75/75
f 105/105 68/68 97/97
f 1/1 4/4 1/1
f 1/1 4/4 1/1
f 92/92 39/39 69/69
f 1/1 1/1 92/92
f 66/66 2/2 88/88
f 1/1 4/4 1/1
f 1/1 4/4 17/17
f 78/78 20/20 75/75
f 1/1 1/1 1/1
f 27/27 37/37 68/68
f 75/75 114/114 116/116
f 1/1 4/4 1/1
f 1/1 4/4 59/59
f 39/39 26/26 46/46
f 1/1 1/1 1/1
f 69/69 96/96 30/30
f 113/113 122/122 60/60
f 1/1 4/4 1/1
f 1/1 4/4 101/101
f 1/1 27/27 10/10
f 1/1 4/4 46/46
f 33/33 87/87 54/54
f 1/1 4/4 1/1
f 47/47 66/66 104/104
f 57/57 75/75 52/52
f 1/1 4/4 45/45
f 59/59 95/95 5/5
f 1/1 4/4 1/1
f 42/42 25/25 57/57
f 2/2 4/4 45/45
f 114/114 4/4 101/101
f 1/1 24/24 86/86
f 99/99 17/17 1/1
f 1/1 24/24 86/86
f 99/99 17/17 1/1
f 57/57 9/9 56/56
f 41/41 89/89 26/26
f 115/115 6/6 69/69
f 54/54 65/65 41/41
f 30/30 5/5 69/69
f 63/63 5/5 41/41
f 27/27 76/76 47/47
f 34/34 2/2 76/76
f 67/67 5/5 101/101
f 35/35 128/128 85/85
f 1/1 1/1 1/1
f 30/30 26/26 65/65
f 34/34 41/41 97/97
f 35/35 62/62 26/26
f 111/111 58/58 73/73
f 35/35 128/128 85/85
f 1/1 1/1 1/1
f 82/82 88/88 76/76
f 82/82 88/88 76/76
f 29/29 1/1 56/56
f 111/111 1/1 54/54
f 35/35 128/128 85/85
f 1/1 1/1 1/1
f 47/47 2/2 23/23
f 101/101 24/24 4/4
f 39/39 77/77 113/113
f 61/61 33/33 106/106
f 60/60 96/96 1/1
f 29/29 1/1 45/45
f 71/71 5/5 11/11
f 52/52 4/4 91/91
f 29/29 38/38 106/106
f 82/82 15/15 56/56
f 68/68 104/104 117/117
f 113/113 120/120 113/113
f 33/33 1/1 1/1
f 65/65 82/82 1/1
f 3/3 1/1 62/62
f 117/117 126/126 117/117
f 84/84 109/109 117/117
f 10/10 104/104 9/9
f 62/62 103/103 5/5
f 102/102 19/19 77/77
f 28/28 125/125 45/45
f 1/1 86/86 73/73
f 83/83 119/119 42/42
f 6/6 17/17 115/115
f 37/37 18/18 1/1
f 7/7 17/17 115/115
f 117/117 114/114 97/97
f 52/52 2/2 111/111
f 55/55 115/115 106/106
f 22/22 91/91 34/34
f 99/99 121/121 5/5
f 19/19 127/127 84/84
f 45/45 114/114 6/6
f 75/75 16/16 82/82
f 50/50 9/9 45/45
f 65/65 8/8 36/36
f 67/67 4/4 44/44
f 100/100 120/120 21/21
f 10/10 97/97 57/57
f 36/36 125/125 53/53
f 9/9 11/11 1/1
f 72/72 64/64 65/65
f 21/21 83/83 4/4
f 15/15 53/53 110/110
f 103/103 3/3 1/1
f 25/25 25/25 7/7
f 17/17 1/1 1/1
f 19/19 34/34 83/83
f 65/65 24/24 59/59
f 59/59 43/43 37/37
f 87/87 19/19 65/65
f 77/77 97/97 1/1
f 77/77 97/97 1/1
f 77/77 97/97 1/1
f 77/77 97/97 1/1
f 77/77 97/97 1/1
f 77/77 97/97 1/1
f 77/77 97/97 1/1
f 77/77 97/97 1/1
f 77/77 97/97 1/1
f 4/4 21/21 33/33
f 7/7 34/34 65/65
f 4/4 21/21 33/33
f 7/7 34/34 65/65
f 44/44 26/26 108/108
f 6/6 39/39 35/35
f 33/33 23/23 37/37
f 3/3 108/108 75/75
f 19/19 3/3 17/17
f 94/94 95/95 5/5
f 41/41 34/34 103/103
f 10/10 120/120 49/49
f 7/7 121/121 33/33
f 69/69 126/126 52/52
f 51/51 111/111 106/106
f 85/85 21/21 55/55
f 111/111 82/82 54/54
f 65/65 29/29 6/6
f 9/9 10/10 45/45
f 97/97 5/5 17/17
f 16/16 23/23 106/106
f 21/21 25/25 81/81
f 66/66 117/117 24/24
f 31/31 105/105 61/61
f 22/22 41/41 9/9
f 1/1 53/53 84/84
f 91/91 45/45 79/79
f 67/67 124/124 71/71
f 5/5 101/101 48/48
f 112/112 37/37 79/79
f 22/22 24/24 42/42
f 67/67 58/58 57/57
f 20/20 21/21 30/30
f 19/19 89/89 119/119
f 67/67 7/7 73/73
f 100/100 9/9 11/11
f 59/59 28/28 58/58
f 102/102 81/81 3/3
f 125/125 88/88 94/94
f 102/102 81/81 3/3
f 125/125 88/88 94/94
f 17/17 63/63 46/46
f 46/46 31/31 1/1
f 69/69 60/60 118/118
f 33/33 33/33 22/22
f 82/82 73/73 97/97
f 13/13 16/16 27/27
f 92/92 122/122 71/71
f 53/53 65/65 11/11
f 2/2 117/117 62/62
f 103/103 117/117 106/106
f 53/53 65/65 11/11
f 2/2 44/44 33/33
f 64/64 44/44 85/85
f 54/54 89/89 18/18
f 66/66 65/65 67/67
f 89/89 8/8 97/97
f 49/49 71/71 33/33
f 87/87 7/7 71/71
f 85/85 8/8 1/1
f 5/5 26/26 98/98
f 62/62 78/78 75/75
f 35/35 41/41 34/34
f 114/114 24/24 33/33
f 86/86 27/27 23/23
f 122/122 88/88 90/90
f 84/84 115/115 73/73
f 61/61 1/1 124/124
f 61/61 1/1 1/1
f 87/87 127/127 82/82
f 110/110 54/54 69/69
f 1/1 60/60 86/86
f 85/85 44/44 125/125
f 33/33 16/16 20/20
