mtllib assets09_model_126.mtl
# Conker's Bad Fur Day — Real 3D Model (Multiplayer Level Models)
o assets09_model_126
usemtl assets09_model_126_mat

v 0.0000 4.0800 0.0000
v 7.5600 9.1800 -0.0100
v 9.9500 5.1300 -0.0100
v 6.0500 6.6600 -0.0100
v 6.9500 5.1300 -0.0100
v 2.7600 9.2000 -0.0100
v 4.2500 6.6600 -0.0100
v 0.3500 5.1500 -0.0100
v 3.3500 5.1500 -0.0100
v 2.7300 1.1000 -0.0100
v 4.2400 3.6300 -0.0100
v 7.5300 1.0800 -0.0100
v 6.0400 3.6200 -0.0100
v 6.8500 5.1400 -0.0100
v 9.9500 5.1300 -0.0100
v 6.0100 6.5800 -0.0100
v 7.5600 9.1800 -0.0100
v 4.3000 6.5800 -0.0100
v 2.7600 9.2000 -0.0100
v 3.4400 5.1500 -0.0100
v 0.3500 5.1500 -0.0100
v 4.2900 3.7000 -0.0100
v 2.7300 1.1000 -0.0100
v 5.9900 3.7000 -0.0100
v 7.5300 1.0800 -0.0100
v -28.0000 0.0000 17.9200
v -33.2800 0.0000 18.2300
v -28.1600 2.5600 15.3600
v -7.5200 0.0000 0.6400
vt 0.0000 0.0000
vt -0.0166 -0.0312
vt 0.0117 -0.0664
vt 0.0117 -0.0469
vt 0.0283 -0.1094
vt 0.0283 -0.0762
vt 0.0742 -0.0830
vt 0.0459 -0.0664
vt 0.0742 -0.0312
vt 0.0459 -0.0469
vt 0.0283 -0.0049
vt 0.0283 -0.0371
vt 0.0127 -0.0479
vt -0.0166 -0.0312
vt 0.0127 -0.0664
vt -0.0166 -0.0830
vt 0.0283 -0.0752
vt 0.0283 -0.1094
vt 0.0449 -0.0664
vt 0.0742 -0.0830
vt 0.0449 -0.0479
vt 0.0742 -0.0312
vt 0.0283 -0.0381
vt 0.0283 -0.0049
vt 0.0000 0.4062
vt -6.5000 0.0000
vt -6.2500 0.0000
vt -6.5000 0.0000
vt -4.0000 0.0000
f 1/1 2/2 3/3
f 4/4 5/5 6/6
f 7/7 8/8 9/9
f 10/10 11/11 12/12
f 13/13 14/14 15/15
f 16/16 17/17 18/18
f 19/19 20/20 21/21
f 22/22 23/23 24/24
f 25/25 26/26 27/27
