mtllib assets10_model_002.mtl
# Conker's Bad Fur Day — Real 3D Model (Spooky Models)
o assets10_model_002
usemtl assets10_model_002_mat

v 0.0000 3.2800 0.0000
v 0.0000 3.9200 0.0000
v 0.0000 4.8000 0.0000
v 0.0000 5.4400 0.0000
v 0.0000 5.8400 0.0000
v 0.0000 6.2400 0.0000
v 0.0000 6.7200 0.0000
v 0.0000 7.1200 0.0000
v 0.0000 7.6000 0.0000
v 0.0000 8.1600 0.0000
v 0.0000 8.6400 0.0000
v 0.0000 9.0400 0.0000
v 0.0000 9.2000 0.0000
v 0.0000 9.6000 0.0000
v 0.0000 10.0800 0.0000
v 0.0000 10.5600 0.0000
v 0.0000 11.0400 0.0000
v -36.1600 0.0000 0.1400
v -24.0400 0.0000 5.9000
v -13.3800 0.0000 -1.1600
v -17.5400 0.0000 4.6200
v -32.4800 0.0000 -0.8200
v -12.5900 0.0000 3.1500
v -30.2500 0.0000 4.5900
v -21.3200 0.0000 -7.5500
v -12.0700 0.0000 -5.0400
v -27.9100 0.0000 -10.2500
v -20.9500 0.0000 6.2800
v 29.7300 -3.5000 0.0300
v 15.8200 -0.8700 -0.1100
v 12.7300 -0.2900 -0.0800
v 11.6400 -0.0800 0.6400
v 11.6400 -0.0800 0.6400
v 0.3300 2.0700 3.3200
v 0.3900 2.0700 -5.4500
v 0.3400 2.0700 -8.3400
v -4.7300 0.4700 -1.5900
v -4.8000 0.4600 -1.3500
v 4.7800 0.4600 1.8900
v 10.3300 0.0000 2.0600
v 10.3700 0.0000 1.7700
v 11.8400 -0.1100 0.0300
vt 0.0000 0.3438
vt 0.0000 0.4141
vt 0.0000 0.5078
vt 0.0000 0.5547
vt 0.0000 0.5859
vt 0.0000 0.6328
vt 0.0000 0.6797
vt 0.0000 0.7188
vt 0.0000 0.7734
vt 0.0000 0.8203
vt 0.0000 0.8672
vt 0.0000 0.0000
vt 0.0000 0.9219
vt 0.0000 0.9609
vt 0.0000 1.0078
vt 0.0000 1.0547
vt -4.1377 0.0000
vt -3.7979 0.0000
vt -2.6992 0.0000
vt -2.8564 0.0000
vt -2.1699 0.0000
vt -1.1113 0.0000
vt -2.3184 0.0000
vt -2.3271 0.0000
vt -3.4170 0.0000
vt -2.1553 0.0000
vt -3.3701 0.0000
vt 2.4150 -0.2490
vt 2.0508 -0.1807
vt 1.9619 -0.1631
vt 2.5371 -0.2656
vt 2.5371 -0.2656
vt 5.6484 -1.4062
vt 0.0371 0.2021
vt 0.0322 0.2021
vt 5.0518 -1.0820
vt -0.4697 0.0449
vt 0.4541 0.0469
vt 0.4531 0.0469
vt 1.0234 0.0000
vt 1.1562 -0.0107
vt 3.6064 -0.4082
f 1/1 2/2 3/3
f 4/4 5/5 6/6
f 7/7 8/8 9/9
f 10/10 11/11 12/12
f 13/13 14/14 15/15
f 16/16 17/17 18/18
f 19/19 20/20 21/21
f 22/22 23/23 24/24
f 25/25 26/26 27/27
f 28/28 29/29 30/30
f 31/31 32/32 33/33
f 34/34 35/35 36/36
f 37/37 38/38 39/39
f 40/40 41/41 42/42
