# Conker's Bad Fur Day — Real 3D Model (Multiplayer Level Models)
o assets09_model_254

v 0.0000 0.0000 -2.5800
v 0.0000 0.0000 -2.5800
v 0.0000 0.0000 -2.5800
v 0.0000 0.0000 -2.5800
v 0.0000 0.0000 -2.5800
v 0.0000 0.0000 -2.5800
v 0.0000 0.0000 -2.5800
v 0.0000 0.0000 -2.5800
v 0.0000 0.0000 -2.5800
v 0.0000 0.0000 -2.5800
v 0.0000 0.0000 -2.5800
v 0.0000 0.0000 -2.5800
v 0.0000 0.0000 -2.5800
v 0.0000 0.0000 -2.5800
v 0.0000 0.0000 -2.5800
v -27.3600 0.0000 17.9200
v -27.4400 20.4800 0.0900
v -7.5200 0.0000 0.6400
v 12.9200 25.7600 0.0000
v -6.8800 0.0000 0.0000
v -27.4400 20.4800 0.0100
v -6.8800 0.0000 0.0000
v -27.4400 20.4800 0.0900
v -7.5200 0.0000 0.6400
v -6.8800 0.0000 0.0000
v -27.4400 20.4800 0.0900
v -7.5200 0.0000 0.6400
v 2.5800 0.6400 0.0000
v -6.8800 0.0000 0.0000
v -27.4400 11.5200 2.6500
v -27.4400 6.7200 5.2000
v -27.4400 6.8000 7.7600
v -27.4400 6.8400 10.3200
v -7.5200 0.0000 0.6400
v 2.5800 0.6400 0.0000
v 12.8800 0.0600 0.0000
v -6.8800 0.0000 0.0000
v -27.4400 20.4800 0.0100
v -27.4400 6.7200 5.1200
v -27.4400 6.8400 10.2400
v -6.8800 0.0000 0.0000
v -27.4400 20.4800 0.0900
v -7.5200 0.0000 0.6400
v -33.2800 0.0000 18.3500
v 19.2500 1.8100 1.5300
vt -0.0078 -0.0234
vt -0.0078 -0.0225
vt 0.0000 -0.0254
vt 0.0078 -0.0225
vt 0.0088 -0.0234
vt 0.0195 -0.0215
vt 0.0137 -0.0195
vt 0.0137 -0.0215
vt 0.0127 -0.0361
vt 0.0068 -0.0195
vt -0.0107 -0.0195
vt -0.0107 -0.0352
vt -0.0107 -0.0215
vt -0.0039 -0.0195
vt 0.0283 -0.0020
vt -3.2500 0.0000
vt -3.4375 9.0020
vt -2.6562 0.2500
vt -6.2500 0.0000
vt -3.2500 0.0000
vt -0.7344 0.0000
vt -3.2500 0.0000
vt -3.4375 9.0020
vt -6.5000 0.0000
vt -3.2500 0.0000
vt -3.4375 9.0020
vt -6.5000 0.0000
vt 4.6523 6.0986
vt -3.2500 0.0000
vt -3.4688 8.5020
vt -3.4844 8.2520
vt -3.4922 8.1270
vt -3.4961 8.0645
vt -6.5000 0.0000
vt 1.5000 0.5039
vt -6.2500 0.0000
vt -3.2500 0.0000
vt -2.6797 1.1250
vt -2.6797 0.6641
vt -0.7344 0.0000
vt -3.2500 0.0000
vt -3.4375 9.0020
vt -6.5000 0.0000
vt -2.6875 2.0000
vt 6.7197 19.5107
f 12/12 13/13 14/14
f 14/14 13/13 15/15
f 15/15 13/13 12/12
f 29/29 30/30 26/26
f 28/28 31/31 30/30
f 28/28 30/30 29/29
f 29/29 30/30 31/31
f 30/30 19/19 31/31
f 21/21 24/24 22/22
f 27/27 26/26 30/30
f 7/7 6/6 9/9
f 13/13 14/14 15/15
f 16/16 14/14 13/13
f 29/29 28/28 27/27
f 27/27 30/30 29/29
f 30/30 31/31 29/29
f 31/31 30/30 32/32
f 17/17 18/18 19/19
f 20/20 21/21 22/22
f 24/24 27/27 29/29
f 24/24 29/29 25/25
f 30/30 31/31 32/32
f 1/1 2/2 3/3
f 1/1 3/3 4/4
f 5/5 1/1 4/4
f 11/11 9/9 7/7
f 10/10 12/12 7/7
f 28/28 32/32 31/31
f 28/28 31/31 29/29
