# Conker's Bad Fur Day — Real 3D Model (Multiplayer Level Models)
o assets09_model_156

v 0.0000 5.3600 0.0000
v 0.0000 0.0000 -0.0100
v 0.0000 0.0000 -0.0100
v 0.0000 0.0000 -0.0100
v 0.0000 0.0000 -0.0100
v 0.0000 0.0000 -0.0100
v 0.0000 0.0000 -0.0100
v 0.0000 0.0000 -0.0100
v 0.0000 0.0000 -0.0100
v 0.0000 0.0000 -0.0100
v 0.0000 0.0000 -0.0100
v 0.0000 0.0000 -0.0100
v 0.0000 0.0000 -0.0100
v 0.0000 0.0000 -0.0100
v 0.0000 0.0000 -0.0100
v 0.0000 0.0000 -0.0100
v 0.0000 0.0000 -0.0100
v 0.0000 0.0000 -0.0100
v 0.0000 0.0000 -0.0100
v 0.0000 0.0000 -0.0100
v 0.0000 0.0000 -0.0100
v 0.0000 0.0000 -0.0100
v 0.0000 0.0000 -0.0100
v 0.0000 0.0000 -0.0100
v 0.0000 0.0000 -0.0100
v 0.0000 0.0000 -0.0100
v 0.0000 0.0000 -0.0100
v 0.0000 0.0000 -0.0100
v 0.0000 0.0000 -0.0100
v 0.0000 0.0000 -0.0100
v 0.0000 0.0000 -0.0100
v 0.0000 0.0000 -0.0100
v 0.0000 0.0000 -0.0100
v -28.0000 0.0000 17.9200
v -33.2800 0.0000 18.3400
v -28.1600 2.5600 15.3600
v -7.5200 0.0000 0.6400
v -28.0800 11.5200 2.5700
v -28.0800 6.7200 5.1200
v -28.0800 6.8000 7.6800
v 2.5800 0.6400 2.5600
vt 0.0000 0.5273
vt -0.0127 -0.0029
vt -0.0068 -0.0029
vt -0.0068 -0.0469
vt -0.0068 -0.0029
vt 0.0068 -0.0469
vt 0.0068 -0.0029
vt 0.0127 -0.0469
vt 0.0127 -0.0029
vt 0.0068 -0.0469
vt 0.0068 -0.0029
vt -0.0068 -0.0469
vt 0.0039 0.0049
vt -0.0039 0.0049
vt -0.0078 0.0049
vt -0.0039 0.0049
vt 0.0039 0.0049
vt 0.0078 0.0049
vt 0.0000 0.0264
vt -0.0049 0.0264
vt 0.0000 0.0264
vt 0.0049 0.0264
vt 0.0000 0.0332
vt -0.0049 0.0332
vt 0.0000 0.0332
vt 0.0049 0.0332
vt 0.0049 0.0332
vt 0.0000 0.0332
vt 0.0000 -0.0078
vt -0.0049 0.0332
vt 0.0000 0.0332
vt 0.0000 -0.0078
vt 0.0000 0.5469
vt -6.5000 0.0000
vt -6.2500 0.0000
vt -6.5000 0.0000
vt -4.0000 0.0000
vt -3.5000 8.0020
vt -3.5000 8.0020
vt -3.5000 8.0020
vt 4.3945 -28.8740
f 31/31 26/26 32/32
f 26/26 23/23 29/29
