mtllib assets0A_model_016.mtl
# Conker's Bad Fur Day — Real 3D Model (Bat's Tower Level Models)
o assets0A_model_016
usemtl assets0A_model_016_mat

v 0.0000 3.3600 0.0000
v 0.0000 4.3200 0.0000
v 0.0000 5.6800 0.0000
v 0.0000 6.6400 0.0000
v 0.0000 7.3600 0.0000
v 0.0000 7.9200 0.0000
v 0.0000 13.0400 0.0000
v 0.0000 14.2400 0.0000
v 0.0000 15.2000 0.0000
v 0.0000 17.2800 0.0000
v 0.0000 21.1200 0.0000
v 0.0000 22.7200 0.0000
v 0.0000 23.6800 0.0000
v 0.0000 27.7600 0.0000
v 0.0000 32.5600 0.0000
v 0.0000 33.1200 0.0000
v 0.0000 34.8000 0.0000
v 0.0000 38.7200 0.0000
v 0.0000 39.7600 0.0000
v 0.0600 0.2500 0.0600
v -3.7100 -0.8100 5.8500
v 5.8500 -3.7100 -0.8100
v -0.8100 5.8500 -3.7100
v 0.0600 0.2400 0.1200
v -4.2600 -0.9700 -4.7100
v -4.7100 2.3300 0.0900
v 0.0900 3.6700 -4.2600
v -4.2600 -0.9700 -4.7100
v -4.7100 2.3300 0.0900
v 0.0900 3.6700 0.0000
v -0.7400 -4.1200 -1.4300
v -1.4300 -0.7400 -4.1200
v -4.1200 0.0000 0.0000
v -1.3800 -3.2700 -1.0900
v 0.0600 0.0100 0.0600
v 10.5600 0.0000 0.0000
v -2.9700 -0.4500 -1.0000
v 7.6800 -20.4800 -4.7400
v 0.2200 0.4000 -0.3200
v -0.6100 0.6900 1.2100
v -0.2000 0.2200 0.4000
v 0.3600 -0.6100 0.6900
v -2.1800 -0.2000 0.2200
v 0.2000 0.3600 -0.6100
v -0.2500 -2.1600 -0.2000
v -0.1800 0.2000 0.3600
v -1.1200 -0.6000 -2.1100
v 0.6400 -0.1800 0.2000
v 0.3600 0.6400 -0.1800
v -0.3200 0.3600 0.6400
v -0.5700 -3.3000 -4.9300
v -4.9300 -0.5700 -3.3000
v -3.3000 -4.9300 -0.5700
v -0.5700 -3.3000 -4.9300
v 0.0600 0.2900 0.0600
v -4.7900 -2.0600 -2.8400
v -2.8400 -4.7900 -2.0600
v -2.0600 -2.8400 -4.7900
v 0.0600 0.0800 0.2000
v -12.4800 -11.4600 -2.2100
v 4.0400 -0.6200 -0.3700
v 0.0700 -1.4500 -0.4600
v -0.3400 -0.0900 0.0700
v -0.3700 0.0100 -0.1700
v 4.0400 -0.6200 -0.3700
v 0.0700 -1.4500 -0.4600
v -0.3400 -0.0900 0.0700
v -0.3700 0.0100 -0.1700
v 0.0600 0.4100 0.3000
v 28.4800 0.0000 0.0000
v 0.5100 1.0700 -5.8800
v 0.6400 -0.1800 0.2000
v 1.0700 -5.8800 -0.2000
v -0.1800 0.2000 0.3600
v -5.8800 -0.2000 0.2200
v 0.2000 0.3600 -0.6100
v -0.2000 0.2200 0.4000
v 0.3600 -0.6100 0.6900
v 0.2200 0.4000 -0.3200
v -0.6100 0.6900 1.2100
v 0.4000 -0.3200 0.3600
v 0.6900 1.2100 0.5100
v -0.3200 0.3600 0.6400
v 1.2100 0.5100 1.0700
v 0.3600 0.6400 -0.1800
v 0.5100 1.0700 -5.8800
v 0.6400 -0.1800 0.2000
v 1.0700 -5.8800 -0.2000
v -0.1800 0.2000 0.3600
v -5.8800 -0.2000 0.2200
v 0.2000 0.3600 -0.6100
v 0.0600 0.5500 0.0700
v 28.4800 0.0000 0.0000
v 0.5100 1.0700 -5.8800
v 38.7200 0.0700 1.2100
v 0.0600 0.2600 0.0600
v -4.3500 0.2500 -2.9700
v -2.9700 -4.3500 0.2500
v 0.2500 -2.9700 -4.3500
v 0.0600 0.3200 0.4000
v 0.0500 0.0100 -3.1600
v 3.2300 -0.4500 -2.6600
v 3.3000 0.3700 -2.7300
v -0.8900 0.0000 0.0000
v -0.3700 -0.2400 -1.0200
v -2.0400 0.5600 3.0600
v 3.3100 1.0700 -2.6400
v -3.7000 -0.9800 0.2800
v -0.2100 -0.2600 -0.6600
v -0.4700 0.2300 1.2500
v 3.2500 1.4200 -2.4400
v -0.6900 -1.1400 0.2600
v -0.5500 0.0000 -1.4500
v 0.6300 -0.0900 0.8400
v 3.2300 -0.4500 -2.6600
v 7.6800 -20.4800 -38.6500
v -5.0800 0.0400 0.0800
v 0.1500 -0.0200 -0.0200
v 0.5600 -2.1600 -5.0800
v -0.0300 1.1500 0.6000
v 20.5600 22.7200 0.5600
v 0.3200 0.0400 -0.0600
v 1.9900 0.9400 1.3400
v -0.5500 -1.2100 -1.8900
v -5.0400 6.1700 1.8100
v 0.4700 -0.1300 -2.1600
v 0.4300 -0.4800 -5.0400
v 0.0900 2.5700 0.3900
v -0.0300 -0.0100 0.0800
v 0.8800 0.3900 -0.0300
v -1.2300 -0.5800 -0.7400
v -5.0700 1.8900 0.5600
v 0.1400 -0.0300 -0.7600
v 0.5400 -1.9100 -5.0800
v 0.0100 0.4100 0.0600
v 0.0600 0.0500 0.2400
v -28.4800 0.0000 0.0000
v -0.4700 -1.3600 -2.0400
v 0.0000 0.0200 -0.3500
v -0.4700 -1.3600 -2.0400
v 0.0400 -0.3400 0.0100
v 0.0000 0.0200 -0.3500
v -0.4700 -1.3600 -2.0400
v -5.4100 -2.0600 0.1800
v -4.0800 -4.4900 0.5000
v -2.1600 -0.0800 -3.1900
v -3.0200 -0.4800 -3.6900
v -5.0600 -1.4900 -2.2900
v 0.0600 0.3200 0.0600
v -32.6400 0.0000 0.0000
v 1.2400 -3.8100 -3.3200
v -3.3200 1.2400 -3.8100
v -3.8100 -3.3200 1.2400
v 1.2400 -3.8100 -3.3200
v -2.4000 1.2400 -0.1100
v -2.4000 1.2400 -0.1100
v -2.4000 1.2400 -0.1100
v -2.4000 1.2400 -0.1100
v 0.0600 0.3000 0.0000
v -1.8900 -1.7700 -3.9100
vt 0.0000 0.3750
vt 0.0000 0.4688
vt 0.0000 0.6016
vt 0.0000 0.6953
vt 0.0000 0.7656
vt 0.0000 0.8203
vt 0.0000 1.3203
vt 0.0000 1.4375
vt 0.0000 1.5312
vt 0.0000 1.7344
vt 0.0000 2.1094
vt 0.0000 2.2656
vt 0.0000 2.3594
vt 0.0000 2.7578
vt 0.0000 3.2266
vt 0.0000 3.2812
vt 0.0000 3.4453
vt 0.0000 3.8281
vt 0.0000 3.9062
vt 0.7500 16.0000
vt -0.0791 0.5713
vt -0.3623 -0.0791
vt 0.5713 0.0000
vt 0.7500 -16.0000
vt 0.0088 0.3584
vt -0.4160 -0.0947
vt -0.4600 0.2275
vt 0.0088 0.3584
vt -0.4160 -0.0947
vt 0.0059 0.0215
vt -0.4023 -0.1396
vt -0.0723 -0.4023
vt 0.0059 0.0039
vt -0.3193 -0.1064
vt 0.7500 -32.0000
vt 0.0000 0.0000
vt 0.0059 0.0498
vt 0.0078 0.0000
vt 0.0625 -0.0176
vt 0.2490 -3.7500
vt 0.0352 0.0625
vt 2.8682 18.0000
vt -0.0312 0.0352
vt 0.1182 11.8301
vt 0.0391 -0.0312
vt 0.0674 0.1182
vt 0.0215 0.0391
vt -0.0596 0.0674
vt 0.0352 -0.0596
vt 0.0195 0.0352
vt -0.3223 -0.4814
vt -0.0557 -0.3223
vt -0.4814 -0.0557
vt -0.3223 0.0000
vt 0.7500 -32.0000
vt -0.2012 -0.2773
vt -0.4678 -0.2012
vt -0.2773 -0.4678
vt 0.0000 -20.0000
vt 0.0000 0.0000
vt 0.0000 0.0000
vt 0.3945 -0.0605
vt -0.0449 0.0762
vt 0.0068 -0.1416
vt 0.0000 0.0000
vt 0.3945 -0.0605
vt -0.0449 0.0762
vt 0.0068 -0.1416
vt 0.7500 -2.0000
vt 0.0000 0.0000
vt 0.0215 0.0391
vt -0.0596 0.0674
vt 0.0391 -0.0312
vt 0.0674 0.1182
vt -0.0312 0.0352
vt 0.1182 0.0498
vt 0.0352 0.0625
vt 0.0498 0.1045
vt 0.0625 -0.0176
vt 0.1045 -0.5742
vt -0.0176 0.0195
vt -0.5742 -0.0195
vt 0.0195 0.0352
vt -0.0195 0.0215
vt 0.0352 -0.0596
vt 0.0215 0.0391
vt -0.0596 0.0674
vt 0.0391 -0.0312
vt 0.0674 0.1182
vt -0.0312 0.0352
vt 0.1182 0.0000
vt 0.7500 -32.0000
vt 0.0000 0.0000
vt 12.7500 26.9971
vt 0.0000 0.0000
vt 0.7500 -32.0000
vt 0.0244 -0.2900
vt -0.4248 0.0244
vt -0.2900 -0.4248
vt 0.7500 -2.0000
vt -0.1846 0.0000
vt 0.0000 0.0000
vt -0.0713 -0.0215
vt 0.1924 -0.0625
vt -0.2979 -0.0898
vt 21.1924 2.5557
vt -0.0244 -0.0244
vt -0.2236 0.0596
vt -0.2012 -0.0898
vt -9.3887 -12.3232
vt -0.0576 -0.0117
vt 0.1299 -0.0166
vt -0.0830 -0.0850
vt 10.0293 29.7979
vt 0.0000 0.0000
vt -0.6191 -0.6494
vt 0.0029 0.0000
vt -0.0186 18.5918
vt 0.0635 0.0205
vt -0.0117 -0.0605
vt -0.4961 0.5908
vt 0.0615 -0.0195
vt -0.0068 0.4590
vt 22.1562 -26.0312
vt 0.0146 -0.0020
vt -0.1514 -19.2891
vt 0.1475 0.0664
vt -0.1943 -0.0977
vt 0.0303 -0.0059
vt 0.0059 0.1426
vt -10.3877 28.8125
vt 0.0000 0.0000
vt -0.0459 28.5469
vt 0.0225 0.0098
vt -0.0293 -0.0146
vt 0.0000 -10.0000
vt 0.0000 0.0000
vt -0.0029 -0.0010
vt 0.0020 -0.0166
vt 0.0049 0.0068
vt -0.0459 -0.1328
vt 0.0020 -0.0166
vt -0.0029 -0.0010
vt 26.5312 -0.4883
vt -0.1582 -0.2822
vt 16.3438 -0.2129
vt -15.5938 -0.3047
vt 21.3906 -0.5381
vt 0.7500 -32.0000
vt 0.0000 0.0000
vt -0.3721 -0.3242
vt 0.1211 -0.3721
vt -0.3242 0.1211
vt 0.0020 0.1953
vt -7.7510 4.0000
vt 0.2490 4.0000
vt 8.2490 4.0000
vt 16.2490 4.0000
vt 0.7500 0.0000
vt 8.2490 14.2490
f 1/1 2/2 3/3
f 4/4 5/5 6/6
f 7/7 8/8 9/9
f 10/10 11/11 12/12
f 13/13 14/14 15/15
f 16/16 17/17 18/18
f 19/19 20/20 21/21
f 22/22 23/23 24/24
f 25/25 26/26 27/27
f 28/28 29/29 30/30
f 31/31 32/32 33/33
f 34/34 35/35 36/36
f 37/37 38/38 39/39
f 40/40 41/41 42/42
f 43/43 44/44 45/45
f 46/46 47/47 48/48
f 49/49 50/50 51/51
f 52/52 53/53 54/54
f 55/55 56/56 57/57
f 58/58 59/59 60/60
f 61/61 62/62 63/63
f 64/64 65/65 66/66
f 67/67 68/68 69/69
f 70/70 71/71 72/72
f 73/73 74/74 75/75
f 76/76 77/77 78/78
f 79/79 80/80 81/81
f 82/82 83/83 84/84
f 85/85 86/86 87/87
f 88/88 89/89 90/90
f 91/91 92/92 93/93
f 94/94 95/95 96/96
f 97/97 98/98 99/99
f 100/100 101/101 102/102
f 103/103 104/104 105/105
f 106/106 107/107 108/108
f 109/109 110/110 111/111
f 112/112 113/113 114/114
f 115/115 116/116 117/117
f 118/118 119/119 120/120
f 121/121 122/122 123/123
f 124/124 125/125 126/126
f 127/127 128/128 129/129
f 130/130 131/131 132/132
f 133/133 134/134 135/135
f 136/136 137/137 138/138
f 139/139 140/140 141/141
f 142/142 143/143 144/144
f 145/145 146/146 147/147
f 148/148 149/149 150/150
f 151/151 152/152 153/153
f 154/154 155/155 156/156
f 157/157 158/158 159/159
