# Conker's Bad Fur Day — Real 3D Model (Multiplayer Level Models)
o assets09_model_252

v 0.0000 7.1200 0.0000
v -27.3600 0.0000 17.9200
v -27.4400 20.4800 0.0100
v -7.5200 0.0000 0.6400
v 15.3600 5.1600 0.0000
v -6.8800 0.0000 0.0000
v -27.4400 20.4800 0.0900
v -33.2800 0.0000 18.3500
v -27.0400 0.0000 17.9200
v 12.9400 15.5400 0.0000
vt 0.0000 0.0000
vt -3.2500 0.0000
vt -3.4375 9.0020
vt -2.6562 0.2500
vt -6.2500 0.0000
vt -3.2500 0.0000
vt -2.6797 1.1250
vt -0.7344 0.0000
vt -3.2500 0.0000
vt -8.2500 0.0000
f 1/1 2/2 3/3
f 1/1 4/4 2/2
f 8/8 4/4 10/10
