mtllib assets00_model_003.mtl
# Conker's Bad Fur Day — Real 3D Model (Vegetation & Foliage)
o assets00_model_003
usemtl assets00_model_003_mat

v -6.9400 0.0000 0.0000
v -4.9700 -4.9900 0.0000
v -1.0900 -4.3500 0.0000
v 0.0000 0.0000 -28.0600
v 0.0000 0.0000 -4.9700
v 0.0000 0.0000 -4.9700
v 0.0000 0.0000 -6.2700
v 0.0000 0.0000 -6.2700
v -0.0100 -22.5300 -5.6100
v -0.0100 -1.4200 -6.2800
v -0.0100 -24.6000 0.0000
v -1.3900 -6.2700 -6.9400
v -4.8900 -6.9300 -7.5700
v -4.3300 -5.6300 -25.3900
v -6.2700 -6.9300 -28.0500
v -5.6300 -6.2900 -6.2700
v -6.2700 -7.5700 -6.9300
v -5.6300 -6.2700 -5.6300
v -6.2700 -7.5700 -6.2700
v -3.6900 -4.9900 -4.9900
v -6.9100 -6.9300 -5.6300
v -2.4000 -3.0400 -4.3600
v -4.9900 -4.3300 -5.6300
v -4.3400 -2.4000 0.0000
v 0.0000 0.0000 1.0800
v 0.0000 0.0600 -0.0100
v -0.0100 -17.8300 0.0000
v 0.0000 0.1200 -0.0100
v -0.0100 -0.0100 0.0000
v -0.0100 -0.0100 0.0000
v 1.1100 -0.0100 -0.0100
v -0.0100 -0.0100 1.5900
v 2.5500 -0.0100 -0.0100
v -0.0100 -0.0100 2.5500
v -0.0100 -0.0100 0.6000
v 0.0000 0.1500 -0.0100
v -0.0100 -0.0100 0.0000
v 0.0600 -0.0100 -0.0100
v 0.0000 -0.0100 -0.1000
v 0.0000 1.5300 0.0000
v -6.2700 -6.2700 -5.6300
v -4.9700 -3.6900 -3.7000
v -3.6700 -1.7400 -2.3900
v -3.7000 -1.7400 0.0000
v -4.9800 0.0000 0.0000
v -4.9800 0.0000 0.0000
v -4.9900 0.0000 0.0000
v -21.1300 -0.0100 -1.4200
v -0.0100 -0.7500 -4.8900
v -0.7500 -3.5100 -6.2700
v -4.3300 -4.3300 -25.3900
v -4.8900 -6.2700 -7.5700
v -4.9700 -5.6300 -6.2700
v -6.2700 -6.2700 -7.5700
v -5.6300 -6.2700 -6.9300
v -6.2700 -6.2700 -7.5700
v -4.3300 -4.3300 -5.6300
v -6.9100 -6.9100 -7.5700
v -3.0300 -2.3900 -3.7000
v -6.9100 -6.9300 -6.2700
v 0.0000 -4.3500 -3.0500
v -4.9900 -3.6700 -1.7600
v -5.6300 0.0000 0.0000
v 0.0000 0.0000 1.5900
v 0.0000 0.0600 -0.0100
v -0.0100 -17.8300 0.0000
v 0.0000 0.1200 -0.0100
v -0.0100 -0.0100 0.0000
v -24.4900 -0.0100 0.0000
v 0.0600 -0.0100 -0.0100
v -0.0100 -0.0100 0.0900
v 0.1500 -0.0100 -0.0100
v -0.0100 -0.0100 0.1200
v -0.0100 -0.0100 0.0300
v 0.0000 25.5900 -0.0100
v -0.0100 -0.0100 0.0000
v -0.0100 10.2300 0.0000
v 0.0000 0.0600 -0.5800
v 8.1600 2.0700 0.0000
v 0.0100 0.0000 0.0000
v -5.6300 -6.2700 -6.9300
v -5.6300 -5.6300 -4.9900
v -5.6300 -3.6900 -3.0300
v -6.2700 -5.6300 -4.9700
v -4.9700 -3.0300 -3.0300
v -28.0500 -5.6100 -3.6900
v -5.6300 -3.6700 -3.0300
v -6.9100 -28.0400 0.0000
v -4.9900 -3.6900 -3.0300
v -6.9100 -5.6100 -28.0600
v -4.9900 -4.9900 -4.3300
v -7.5700 -6.2700 -5.6300
v -7.5700 -6.9300 -5.6300
v -5.6300 -6.2900 -5.6400
v -5.6100 -5.6300 -4.9800
v -6.9100 -6.9300 -5.6300
v -5.6300 -6.3000 -5.6300
v -5.6300 -4.9700 -4.9700
v -3.6900 -4.3500 0.0000
v -5.6300 -5.6300 -4.3300
v -28.0500 -6.2700 -4.9700
v -28.0300 -6.2700 -6.9100
v -4.3500 0.0000 0.0000
v -28.0600 -4.9700 -4.3300
v -6.2700 -5.6300 -6.2700
v 0.0000 -3.6700 -3.0300
v -6.9100 -6.9100 -6.9100
v -28.0500 -6.9300 -6.2700
v -6.9300 -6.2900 -4.9900
v 0.0000 0.0000 8.5400
v 0.0000 0.0000 16.9500
v 0.0000 0.0300 -0.0100
v 0.0000 0.0900 -0.0100
v -0.0100 -33.1900 0.0000
v 0.0000 0.6300 -0.0100
v -1.0900 25.5900 0.0000
v 0.0000 0.1500 -0.0100
v 0.0000 1.5900 -0.0100
v -0.0100 -0.0100 0.0000
v 0.0000 17.9100 -0.0100
v -0.0100 -0.0100 0.0000
v -0.0100 -0.0100 0.0000
v 0.0000 0.0000 1.1100
v 0.0000 0.5700 -0.0100
v 0.0000 1.1100 -0.0100
v -0.0100 -0.0100 0.0000
v 0.0000 0.6000 -0.0100
v -0.0100 -2.0200 0.0000
v 0.0000 0.0000 10.2300
v 0.0100 0.0000 0.0000
v 0.0100 0.0000 0.0000
v -6.9400 0.0000 0.0000
v -5.6400 0.0000 0.0000
v -2.3900 0.0000 0.0000
v -6.9100 -5.6200 -4.3300
v -28.0500 -4.9700 -4.3300
v -6.2700 -7.5700 -28.6900
v -5.6300 -6.2700 -6.9100
v -26.0300 -5.6100 -5.6100
v -4.8900 -5.6100 -4.3300
v -26.0300 -5.6100 -6.9100
v -5.6300 -4.9700 -5.6100
v -6.9300 0.0000 -3.6900
v 0.0000 -26.7500 -26.1100
v 0.0000 0.0000 -5.6300
v -6.9100 -5.6300 -4.9900
v -5.6100 -3.6900 -4.3400
v -4.3300 -3.6800 0.0000
v -4.3300 0.0000 0.0000
v 0.0000 0.0000 -7.5700
v 0.0000 0.0000 8.5400
v 0.0000 0.0900 -0.0100
v 0.0000 0.1500 -0.0100
v -0.0100 -33.2200 0.0000
v 0.0000 1.5900 -0.0700
v -17.4400 0.0600 0.0000
v 0.0000 0.0000 0.5700
v 1.5900 -0.0100 0.0000
v 0.0000 0.0000 25.5900
v 33.2700 -0.0100 0.0000
v 0.0000 0.0000 0.0300
v 9.7500 -0.0100 0.0000
v 0.0000 0.0000 33.2700
v 0.0000 0.0000 33.2700
v 25.5900 -0.0100 0.0000
v 0.0000 0.0000 2.5500
v 0.1500 -0.0100 0.0000
v 0.0300 -0.0100 0.0000
v 0.0100 0.0000 0.0000
v -3.0300 -2.3900 -4.9700
v -4.3300 -4.9900 -4.9900
v -3.0300 -3.0300 -3.0500
v -4.3300 -3.0300 -1.7500
v 0.0000 0.0000 -6.9300
v 0.0000 0.0000 -7.5700
v -20.4900 -21.1300 -26.0300
v -0.0100 -1.3900 -5.6300
v -0.0100 -2.7700 -6.2700
v -6.9300 -7.5700 -28.6900
v -6.2900 -5.6400 -3.0500
v -6.9300 -7.5700 -7.5700
v -5.6300 -3.6900 0.0000
v -7.5700 -6.9100 -5.6300
v -4.3500 -3.6900 0.0000
v -6.9300 -5.6300 -4.3300
v -6.2700 -4.9800 -3.0400
v -5.6400 -3.7100 0.0000
v 0.0000 0.5700 -0.0100
v 0.0000 1.1100 -0.0100
v 0.0000 1.5900 -0.6100
v 0.0600 -0.0100 0.0000
v 0.0000 0.0000 0.1200
v 0.0000 0.0000 0.6300
v 0.6300 -0.0100 0.0000
v 0.0000 0.0000 0.1200
v 0.0000 16.4700 0.0000
v 0.0000 8.7300 0.0000
v 0.0000 0.0000 0.0900
v 0.1500 -0.0100 0.0000
v 0.0000 0.0000 0.6300
v 0.0000 0.0000 0.1500
v 0.0600 -0.0100 0.0000
v 0.0000 33.2700 0.0000
v 0.0000 1.5600 0.0000
vt 0.0000 0.0000
vt 0.0000 0.0000
vt -23.1807 0.0000
vt -0.5498 -0.3584
vt -0.4873 -0.3604
vt -0.4873 -0.4873
vt -0.5498 -0.6143
vt -0.4873 -0.5498
vt -0.6748 -0.7393
vt -0.5479 -0.6123
vt -0.3604 -0.4248
vt 0.0000 0.0000
vt -8.8662 0.0000
vt -2.0635 -6.3975
vt -0.6123 -0.6777
vt -14.9893 -4.7373
vt -0.4229 -0.4883
vt -29.3057 -2.6748
vt -0.2969 0.0000
vt -14.9893 -2.6748
vt -0.2334 0.0000
vt 0.0000 -8.9268
vt 0.0000 0.0000
vt 0.0000 0.0000
vt -12.0010 -0.0127
vt -15.9385 -0.0010
vt -4.0000 0.0000
vt -16.0000 14.4990
vt 24.0000 0.0000
vt 0.0000 0.0000
vt -24.0010 -0.1094
vt 0.0000 0.0000
vt -0.0010 -0.0098
vt 0.0000 0.0000
vt 0.0000 0.0000
vt -0.7979 -0.0625
vt 0.0000 0.0000
vt -0.0010 -4.0000
vt -0.0010 -2.5000
vt 0.0000 0.0000
vt 0.0000 0.0000
vt 0.0000 0.0000
vt -21.1807 -10.9277
vt -8.8662 -2.7373
vt 0.0000 0.0000
vt 0.0000 0.0000
vt 0.0000 0.0000
vt -0.4229 -0.4229
vt 0.0000 0.0000
vt -6.8643 -6.8643
vt -2.0010 -4.2627
vt -2.7393 -2.7393
vt -0.3613 -17.0547
vt -0.6123 -0.4229
vt -0.2988 -23.1816
vt -0.4854 -0.4238
vt 0.0000 -6.8018
vt -0.4238 -0.3594
vt 0.0000 -17.0537
vt -0.3613 0.0000
vt 0.0000 0.0000
vt 0.0000 0.0000
vt 0.0000 0.0000
vt -0.0010 -0.0156
vt -15.9385 -0.0010
vt -16.0000 0.0000
vt -4.0000 15.2490
vt 24.0000 0.0000
vt 0.0000 0.0000
vt -2.2979 -0.0039
vt 0.0000 0.0000
vt -0.0010 -0.0010
vt 24.0000 0.0000
vt 24.0000 0.0000
vt -0.0098 0.0469
vt 0.0000 0.0000
vt 0.0000 0.0000
vt -0.0068 24.0000
vt 0.0000 0.0000
vt 0.0000 0.0000
vt -19.0547 0.0000
vt -0.6768 0.0000
vt -0.5498 -0.4873
vt -0.3604 -4.8027
vt -0.2959 -0.2979
vt -0.3613 22.7100
vt -16.7334 -31.0400
vt 0.0000 0.0000
vt -31.0400 20.6455
vt 0.0000 0.0000
vt 22.7100 6.1943
vt 0.0000 0.0000
vt 0.0000 0.0000
vt 0.0000 0.0000
vt 0.0000 0.0000
vt 0.0000 0.0000
vt 0.0000 0.0000
vt -16.5146 -8.2568
vt 0.0000 0.0000
vt -2.4795 -10.3213
vt -0.6123 -0.5498
vt -0.6768 -0.7393
vt 0.0000 0.0000
vt -0.5498 -0.4248
vt -0.6768 -0.6123
vt -0.4229 -0.5508
vt -0.6768 -0.5498
vt -0.4854 -0.5508
vt -0.2334 0.0000
vt -25.5850 25.2812
vt -0.0010 -0.0156
vt -2.2510 -0.0010
vt -15.7979 -0.0010
vt -28.0000 0.0000
vt -2.4033 27.9990
vt -28.0000 0.0000
vt -0.0010 24.0557
vt -0.0068 26.4521
vt -0.1562 0.0000
vt -0.0010 -0.0010
vt -0.1094 0.0000
vt -0.0625 0.0000
vt -0.0010 -0.0010
vt -0.0010 -15.8447
vt -0.0010 -0.2500
vt 0.0000 0.0000
vt -0.0010 -0.0010
vt 12.0000 0.0000
vt -0.0010 -0.0566
vt 0.0000 0.0000
vt 0.0000 0.0000
vt 0.0000 0.0000
vt 0.0000 0.0000
vt 0.0000 0.0000
vt -0.3604 -0.2959
vt -0.4229 -0.3604
vt -0.5498 -0.5479
vt -0.6748 -0.5498
vt -0.6768 -0.6133
vt -0.5498 -0.4863
vt -0.6748 -0.4873
vt -0.6123 -0.4883
vt -0.6143 0.0000
vt -0.4854 -0.4229
vt -0.5498 -0.5498
vt 0.0000 0.0000
vt 0.0000 0.0000
vt 0.0000 0.0000
vt 0.0000 0.0000
vt -0.4873 -0.2959
vt -25.5859 25.0312
vt -1.5010 -0.0039
vt -3.7979 -0.0010
vt 24.0000 0.0000
vt -2.3477 -0.0010
vt 24.0000 0.0000
vt -0.0010 -0.0010
vt -28.0000 0.0000
vt -0.0010 -0.0039
vt -0.0010 -1.7500
vt -0.0010 -0.0010
vt -0.0010 -1.7500
vt -0.0010 -0.0039
vt -0.0010 -0.0039
vt -1.7500 0.0000
vt -15.7510 -0.0010
vt -0.1094 0.0000
vt -0.1562 0.0000
vt 0.0000 0.0000
vt -0.6768 -0.5498
vt 0.0000 0.0000
vt -14.8564 -8.6709
vt 0.0000 0.0000
vt -0.4229 -0.4873
vt -0.4873 -0.5498
vt -0.5479 -0.6748
vt -0.5479 -0.4854
vt -0.6748 -0.7393
vt 0.0000 0.0000
vt -2.6748 -0.6123
vt 0.0000 0.0000
vt -0.5479 -0.6123
vt 0.0000 0.0000
vt -0.6123 -0.6123
vt 0.0000 0.0000
vt 0.0000 0.0000
vt 0.0000 0.0000
vt -12.7510 -0.0039
vt -3.0479 -0.0010
vt -3.2412 -0.0010
vt -0.1094 0.0000
vt -0.0010 -0.0010
vt -0.0010 -0.0010
vt -0.0010 -0.0098
vt -0.0010 -0.0010
vt -0.0010 -0.0068
vt -0.0010 -0.0068
vt -0.0010 -0.0010
vt -0.0010 -0.0098
vt -0.0010 -0.0010
vt -0.0010 -0.0010
vt -0.0127 0.0000
vt -0.0010 0.0000
vt -0.0068 0.0000
f 1/1 2/2 3/3
f 4/4 5/5 6/6
f 7/7 8/8 9/9
f 10/10 11/11 12/12
f 13/13 14/14 15/15
f 16/16 17/17 18/18
f 19/19 20/20 21/21
f 22/22 23/23 24/24
f 25/25 26/26 27/27
f 28/28 29/29 30/30
f 31/31 32/32 33/33
f 34/34 35/35 36/36
f 37/37 38/38 39/39
f 40/40 41/41 42/42
f 43/43 44/44 45/45
f 46/46 47/47 48/48
f 49/49 50/50 51/51
f 52/52 53/53 54/54
f 55/55 56/56 57/57
f 58/58 59/59 60/60
f 61/61 62/62 63/63
f 64/64 65/65 66/66
f 67/67 68/68 69/69
f 70/70 71/71 72/72
f 73/73 74/74 75/75
f 76/76 77/77 78/78
f 79/79 80/80 81/81
f 82/82 83/83 84/84
f 85/85 86/86 87/87
f 88/88 89/89 90/90
f 91/91 92/92 93/93
f 94/94 95/95 96/96
f 97/97 98/98 99/99
f 100/100 101/101 102/102
f 103/103 104/104 105/105
f 106/106 107/107 108/108
f 109/109 110/110 111/111
f 112/112 113/113 114/114
f 115/115 116/116 117/117
f 118/118 119/119 120/120
f 121/121 122/122 123/123
f 124/124 125/125 126/126
f 127/127 128/128 129/129
f 130/130 131/131 132/132
f 133/133 134/134 135/135
f 136/136 137/137 138/138
f 139/139 140/140 141/141
f 142/142 143/143 144/144
f 145/145 146/146 147/147
f 148/148 149/149 150/150
f 151/151 152/152 153/153
f 154/154 155/155 156/156
f 157/157 158/158 159/159
f 160/160 161/161 162/162
f 163/163 164/164 165/165
f 166/166 167/167 168/168
f 169/169 170/170 171/171
f 172/172 173/173 174/174
f 175/175 176/176 177/177
f 178/178 179/179 180/180
f 181/181 182/182 183/183
f 184/184 185/185 186/186
f 187/187 188/188 189/189
f 190/190 191/191 192/192
f 193/193 194/194 195/195
f 196/196 197/197 198/198
f 199/199 200/200 201/201
f 202/202 203/203 204/204
