# Conker's Bad Fur Day — Real 3D Model (HUD & UI Props)
o assets01_model_016

v 8.1300 6.2100 -0.0100
v 4.9800 6.6000 -0.0100
v 4.9800 6.5100 -0.0100
v 4.6900 4.2900 -0.0100
v 4.8600 4.7100 -0.0100
v 7.0700 4.6700 -0.0100
v 4.8600 4.8000 -0.0100
v 7.6300 8.2100 -0.0100
v 5.0700 8.4800 -0.0100
v 5.0700 8.4200 -0.0100
v 7.3400 10.5200 -0.0100
v 5.1600 10.3200 -0.0100
v 5.1900 11.0700 -0.0100
v 6.1300 15.8100 -0.0100
v 6.6200 15.1200 -0.0100
v 5.3100 15.6000 -0.0100
v 5.2700 16.2500 -0.0100
v 5.3100 15.6000 -0.0100
v 7.0300 12.5400 -0.0100
v 5.2600 12.5000 -0.0100
v 5.2600 12.5000 -0.0100
v 4.6900 4.2900 -0.0100
v 4.8600 4.8000 -0.0100
v 4.9800 6.6000 -0.0100
v 7.0700 4.6700 -0.0100
v 8.1300 6.2100 -0.0100
v 4.9800 6.5100 -0.0100
v 4.8600 4.7100 -0.0100
v 8.7100 4.6600 -0.0100
v 6.2400 5.1400 -0.0100
v 6.2500 5.0300 -0.0100
v 6.3000 2.7400 -0.0100
v 6.2000 2.2000 -0.0100
v 8.0200 2.6900 -0.0100
v 6.3000 2.8500 -0.0100
v 8.1600 7.2000 -0.0100
v 6.1600 7.5400 -0.0100
v 6.1600 7.4600 -0.0100
v 7.7500 10.1500 -0.0100
v 6.0700 9.8900 -0.0100
v 6.0400 10.8500 -0.0100
v 5.7600 16.6300 -0.0100
v 6.8100 16.0100 -0.0100
v 6.3800 16.8900 -0.0100
v 5.6800 17.4500 -0.0100
v 5.7600 16.6300 -0.0100
v 7.3400 12.7300 -0.0100
v 5.9700 12.6700 -0.0100
v 5.9700 12.6700 -0.0100
v 6.2000 2.2000 -0.0100
v 6.3000 2.8500 -0.0100
v 8.7100 4.6600 -0.0100
v 8.0200 2.6900 -0.0100
v 6.2400 5.1400 -0.0100
v 6.2500 5.0300 -0.0100
v 6.3000 2.7400 -0.0100
v 5.7600 15.8200 -0.0100
v 3.9200 14.5400 -0.0100
v 5.5600 14.6800 -0.0100
v 7.3600 13.1000 -0.0100
v 3.1700 13.2600 -0.0100
v 5.4300 13.2200 -0.0100
v 4.0300 9.4600 -0.0100
v 6.7400 9.1300 -0.0100
v 5.3300 9.2900 -0.0100
v 5.3600 6.5900 -0.0100
v 4.2600 7.2000 -0.0100
v 6.0700 6.8600 -0.0100
v 5.2400 3.2700 -0.0100
v 6.8200 4.6200 -0.0100
v 5.4400 4.4800 -0.0100
v 7.4700 5.9700 -0.0100
v 3.9600 6.1300 -0.0100
v 5.5700 6.0100 -0.0100
v 6.8200 9.9700 -0.0100
v 4.5500 10.3100 -0.0100
v 5.7300 10.1400 -0.0100
v 5.7600 12.9800 -0.0100
v 6.6700 12.3400 -0.0100
v 5.1600 12.7000 -0.0100
v 9.3400 10.8200 -0.0100
v 5.3000 8.7000 -0.0100
v 5.2500 10.8300 -0.0100
v 8.4600 10.9000 -0.0100
v 1.4500 9.7700 -0.0100
v 5.3000 9.2300 -0.0100
v 8.9900 11.0300 -0.0100
v 1.1000 9.4800 -0.0100
v 9.4200 5.5200 -0.0100
v 5.2900 5.6300 -0.0100
v 1.0400 4.0900 -0.0100
v 9.8400 5.3800 -0.0100
v 5.2900 4.8400 -0.0100
v 0.9100 4.1600 -0.0100
v 5.3200 5.6900 -0.0100
v 9.1300 5.8700 -0.0100
v 0.4800 3.9300 -0.0100
v 5.2700 -0.1100 -0.0100
v 5.2800 1.4100 -0.0100
v 8.1300 1.7600 -0.0100
v 2.0900 0.1700 -0.0100
v 1.2800 0.9200 -0.0100
v 3.9300 2.0500 -0.0100
v 5.2800 1.1100 -0.0100
v 8.5800 1.2500 -0.0100
v 2.4200 1.1800 -0.0100
v 6.4700 2.7300 -0.0100
v 8.8000 2.4000 -0.0100
v 7.8300 1.9600 -0.0100
v 1.9700 0.5700 -0.0100
v 6.0100 19.4600 -0.0100
v 6.4700 18.6300 -0.0100
v 6.0000 18.6200 -0.0100
v 5.3300 19.5500 -0.0100
v 5.3300 18.7600 -0.0100
v 4.6600 18.4900 -0.0100
v 7.7100 15.4500 -0.0100
v 5.3200 13.6500 -0.0100
v 7.6300 15.5400 -0.0100
v 5.3200 13.5900 -0.0100
v 4.9700 15.0200 -0.0100
v 3.0300 14.4500 -0.0100
v 2.9700 14.9400 -0.0100
v 3.0100 15.0700 -0.0100
v 5.7300 15.3800 -0.0100
v 7.4300 15.4700 -0.0100
v 1.8700 9.3400 -0.0100
v 5.3000 8.7000 -0.0100
v 9.3400 10.8200 -0.0100
v 8.9900 11.0300 -0.0100
v 5.3000 9.2300 -0.0100
v 1.1000 9.4800 -0.0100
v 1.4500 9.7700 -0.0100
v 8.4600 10.9000 -0.0100
v 5.2500 10.8300 -0.0100
v 1.0400 4.0900 -0.0100
v 5.3300 19.5500 -0.0100
v 4.6600 18.4900 -0.0100
v 4.1900 18.4000 -0.0100
v 4.7000 19.3300 -0.0100
v 4.6900 18.4700 -0.0100
v 5.3300 18.5300 -0.0100
v 5.3300 19.7300 -0.0100
v 5.9700 18.6000 -0.0100
v 6.4700 18.6300 -0.0100
v 6.0100 19.4600 -0.0100
v 5.3300 19.9400 -0.0100
v 6.4600 16.9100 -0.0100
v 5.9500 17.1400 -0.0100
v 5.3300 17.2900 -0.0100
v 6.0000 18.6200 -0.0100
v 5.3300 18.7600 -0.0100
v 4.1900 16.6800 -0.0100
v 4.7000 17.0200 -0.0100
v 7.0600 16.6000 -0.0100
v 6.7800 16.9900 -0.0100
v 5.3200 16.5300 -0.0100
v 3.8100 16.6900 -0.0100
v 3.5900 16.2400 -0.0100
v 5.3200 14.4900 -0.0100
v 5.3200 14.8300 -0.0100
v 7.6300 15.5400 -0.0100
v 5.3200 13.5900 -0.0100
v 3.0100 15.0700 -0.0100
v 4.9700 15.0200 -0.0100
v 3.0300 14.4500 -0.0100
v 4.5900 16.3400 -0.0100
v 3.2000 15.6300 -0.0100
v 4.1900 16.6800 -0.0100
v 6.4600 16.9100 -0.0100
v 5.3200 13.6500 -0.0100
v 7.7100 15.4500 -0.0100
v 7.0600 16.6000 -0.0100
v 5.3200 14.4900 -0.0100
v 6.0300 16.9700 -0.0100
v 7.4300 15.4700 -0.0100
v 5.7300 15.3800 -0.0100
v 7.2500 16.6700 -0.0100
v 3.5900 16.2400 -0.0100
v 2.9700 14.9400 -0.0100
v 5.3200 14.8300 -0.0100
v 4.4500 8.7500 -0.0100
v 1.3300 9.0900 -0.0100
v 4.4800 9.8500 -0.0100
v 2.5100 8.7400 -0.0100
v 6.8800 11.2300 -0.0100
v 7.2600 10.8900 -0.0100
v 5.5400 9.8900 -0.0100
v 5.9300 8.4600 -0.0100
v 7.5600 8.1900 -0.0100
v 4.3600 5.7900 -0.0100
v 0.4700 6.1900 -0.0100
v 1.9500 5.7100 -0.0100
v 8.4400 10.7400 -0.0100
v 8.9100 10.3100 -0.0100
v 7.0100 6.8900 -0.0100
v 8.2400 5.0600 -0.0100
v 4.2700 2.6800 -0.0100
v 1.8000 2.9200 -0.0100
v 2.7400 2.6000 -0.0100
v 9.2600 8.7300 -0.0100
v 9.5600 8.4500 -0.0100
v 8.2000 6.0400 -0.0100
v 6.7400 2.2000 -0.0100
v 4.2300 1.2600 -0.0100
v 8.8500 6.4000 -0.0100
v 4.8900 9.0400 -0.0100
v 1.5800 9.4400 -0.0100
v 4.6200 8.0600 -0.0100
v 2.6900 8.7100 -0.0100
v 7.5000 9.4300 -0.0100
v 10.2300 8.9200 -0.0100
v 9.9200 10.3200 -0.0100
v 7.0100 6.6800 -0.0100
v 7.6100 6.4700 -0.0100
v 3.8900 5.3900 -0.0100
v 0.0900 7.1000 -0.0100
v 1.4700 6.1500 -0.0100
v 11.3000 8.3400 -0.0100
v 11.6800 6.6000 -0.0100
v 7.1100 3.5100 -0.0100
v 7.6100 3.4000 -0.0100
v 3.1300 2.6000 -0.0100
v 0.7100 3.6800 -0.0100
v 1.5800 3.0600 -0.0100
v 10.8000 4.7900 -0.0100
v 11.0400 3.6900 -0.0100
v 7.8000 1.5400 -0.0100
v 5.4900 1.3300 -0.0100
v 2.7800 1.3300 -0.0100
v 4.5300 1.6100 -0.0100
v 0.0000 39.0700 0.3200
v 0.3200 0.6400 0.0000
v 0.0000 39.0900 0.0000
v -28.0000 0.0000 17.9200
v -33.2800 0.0000 18.5500
v -28.1600 2.5600 15.3600
v -7.5200 0.0000 0.6400
v 15.4600 36.0000 0.1000
v 15.5200 25.7400 0.1800
v 12.9000 15.4400 0.0000
v -7.5200 0.0000 17.9200
v -33.2800 0.0000 18.2300
v -28.0800 20.4800 0.0900
v -7.5200 0.0000 15.3600
v -33.2800 0.0000 18.2300
v -27.7300 -13.9200 -16.4300
v 19.3900 19.3900 37.1800
v 19.3900 0.0000 0.0000
v -15.3400 19.3900 37.1800
v 37.1800 0.0000 0.0000
vt -0.0029 0.0000
vt -0.0098 -0.0771
vt 0.0654 -0.0039
vt 0.0410 -0.0596
vt 0.0547 0.0449
vt 0.0508 -0.0010
vt 0.0068 0.0498
vt -0.0020 -0.0029
vt -0.0098 -0.0635
vt 0.0312 0.0410
vt 0.0371 -0.0039
vt 0.0273 -0.0566
vt -0.0059 0.0166
vt 0.0146 0.0273
vt 0.0000 0.0000
vt -0.0195 -0.0010
vt 0.0010 -0.0391
vt 0.0908 0.0381
vt 0.0918 0.0020
vt 0.0918 -0.0488
vt 0.0654 -0.0039
vt 0.0400 -0.0596
vt -0.0029 0.0000
vt 0.0547 0.0449
vt 0.0088 0.0645
vt -0.0098 -0.0771
vt 0.0527 -0.0010
vt -0.0088 0.0615
vt 0.0029 -0.0029
vt 0.0098 -0.0801
vt -0.0527 -0.0039
vt -0.0410 -0.0625
vt -0.0547 0.0420
vt -0.0508 -0.0039
vt -0.0068 0.0498
vt 0.0020 -0.0029
vt 0.0098 -0.0635
vt -0.0312 0.0410
vt -0.0371 -0.0039
vt -0.0273 -0.0566
vt 0.0000 0.0000
vt -0.0146 0.0273
vt 0.0059 0.0166
vt 0.0195 -0.0010
vt -0.0010 -0.0391
vt -0.0908 0.0381
vt -0.0918 0.0020
vt -0.0918 -0.0488
vt -0.0410 -0.0625
vt -0.0508 -0.0039
vt -0.0088 0.0615
vt -0.0547 0.0420
vt 0.0029 -0.0029
vt 0.0098 -0.0801
vt -0.0527 -0.0039
vt 0.0391 -0.0156
vt -0.0117 -0.0088
vt -0.0469 -0.0186
vt -0.0469 -0.0186
vt -0.0566 0.0225
vt -0.0723 -0.0283
vt -0.0723 -0.0283
vt -0.0430 -0.0498
vt -0.0010 0.0088
vt -0.0430 -0.0498
vt -0.0273 -0.0215
vt 0.0176 -0.0176
vt 0.0215 -0.0459
vt 0.0117 -0.0098
vt 0.0469 -0.0195
vt 0.0469 -0.0195
vt 0.0703 -0.0293
vt -0.0664 -0.0293
vt -0.0664 -0.0293
vt 0.0430 -0.0498
vt -0.0479 -0.0498
vt -0.0479 -0.0498
vt 0.0283 -0.0215
vt -0.0176 -0.0176
vt -0.0205 -0.0459
vt 0.0000 -0.0049
vt 0.1152 0.0352
vt 0.1260 0.0303
vt -0.1201 0.0254
vt 0.0000 0.0059
vt 0.1152 0.0352
vt -0.1309 0.0195
vt -0.1201 0.0254
vt 0.0000 0.0137
vt -0.1367 -0.0068
vt 0.1416 -0.0010
vt 0.0000 -0.0029
vt -0.1367 -0.0068
vt 0.1289 0.0029
vt 0.1416 -0.0010
vt -0.1494 -0.0107
vt 0.0000 -0.0361
vt 0.0000 -0.0049
vt 0.0889 -0.0039
vt 0.0000 -0.0361
vt -0.1035 -0.0146
vt -0.0889 -0.0039
vt 0.0000 -0.0107
vt 0.1035 -0.0146
vt -0.0889 -0.0039
vt 0.0889 -0.0039
vt 0.1035 -0.0146
vt 0.0000 -0.0361
vt -0.1035 -0.0146
vt 0.0195 0.0166
vt 0.0352 0.0459
vt 0.0215 0.0469
vt 0.0000 0.0674
vt 0.0000 0.0508
vt -0.0215 0.0469
vt 0.0742 0.0088
vt 0.0000 -0.0234
vt 0.0723 0.0107
vt 0.0000 -0.0244
vt -0.0723 0.0107
vt -0.0732 0.0088
vt -0.0732 0.0088
vt -0.0723 0.0107
vt 0.0723 0.0107
vt 0.0742 0.0088
vt -0.1309 0.0195
vt -0.1201 0.0254
vt 0.1260 0.0303
vt 0.1152 0.0352
vt 0.0000 0.0059
vt -0.1309 0.0195
vt -0.1201 0.0254
vt 0.1260 0.0303
vt 0.1152 0.0352
vt -0.1494 -0.0107
vt 0.0000 0.0674
vt -0.0215 0.0469
vt -0.0352 0.0459
vt -0.0195 0.0645
vt -0.0195 0.0469
vt 0.0000 0.0459
vt 0.0000 0.0713
vt 0.0195 0.0469
vt 0.0352 0.0459
vt 0.0215 0.0645
vt 0.0000 0.0752
vt 0.0352 0.0107
vt 0.0195 0.0166
vt 0.0000 0.0205
vt 0.0215 0.0469
vt 0.0000 0.0508
vt -0.0352 0.0107
vt -0.0195 0.0166
vt 0.0537 0.0342
vt 0.0449 0.0430
vt 0.0000 0.0361
vt -0.0469 0.0430
vt -0.0537 0.0342
vt 0.0000 -0.0059
vt 0.0000 0.0010
vt 0.0723 0.0107
vt 0.0000 -0.0244
vt -0.0723 0.0107
vt -0.0723 0.0107
vt -0.0732 0.0088
vt -0.0469 0.0430
vt -0.0537 0.0342
vt 0.0205 0.0312
vt 0.0352 0.0107
vt 0.0000 -0.0234
vt 0.0742 0.0088
vt 0.0537 0.0342
vt 0.0000 -0.0059
vt 0.0449 0.0430
vt 0.0742 0.0088
vt 0.0723 0.0107
vt 0.0537 0.0342
vt -0.0537 0.0342
vt -0.0732 0.0088
vt 0.0000 0.0010
vt -0.0020 0.0117
vt 0.0107 0.0137
vt -0.0029 0.0156
vt 0.0059 0.0127
vt 0.0059 0.0127
vt -0.0098 0.0088
vt -0.0029 0.0156
vt -0.0146 0.0088
vt -0.0146 0.0088
vt 0.0000 0.0010
vt 0.0156 0.0039
vt 0.0098 0.0010
vt 0.0098 0.0010
vt -0.0088 -0.0029
vt -0.0156 -0.0029
vt -0.0156 -0.0029
vt 0.0029 -0.0107
vt 0.0127 -0.0088
vt 0.0088 -0.0107
vt 0.0088 -0.0107
vt -0.0029 -0.0127
vt -0.0068 -0.0127
vt -0.0068 -0.0127
vt 0.0039 -0.0156
vt 0.0039 -0.0156
vt 0.0068 0.0176
vt -0.0107 0.0176
vt 0.0049 0.0127
vt -0.0049 0.0146
vt 0.0068 0.0176
vt 0.0137 0.0078
vt -0.0049 0.0146
vt 0.0195 0.0068
vt 0.0195 0.0068
vt 0.0000 0.0000
vt -0.0186 0.0068
vt -0.0127 0.0029
vt -0.0127 0.0029
vt 0.0107 -0.0059
vt 0.0176 -0.0078
vt 0.0176 -0.0078
vt -0.0059 -0.0137
vt -0.0176 -0.0098
vt -0.0127 -0.0117
vt -0.0127 -0.0117
vt 0.0010 -0.0176
vt 0.0059 -0.0186
vt 0.0059 -0.0186
vt -0.0078 -0.0195
vt 0.0010 -0.0176
vt 0.0000 5.4062
vt 0.0000 3.8184
vt 0.0000 3.8164
vt 0.0312 0.0312
vt -6.5000 0.0000
vt -6.2500 0.0000
vt -6.5000 0.0000
vt -4.0000 0.0000
vt -9.4453 0.0029
vt -9.4453 0.0029
vt -6.2500 0.0000
vt -6.5000 0.0000
vt -6.2500 0.0000
vt -3.5000 8.0020
vt -6.5000 0.0000
vt -6.2500 0.0000
vt -13.8906 -7.3799
vt -24.2256 -25.7520
vt 0.0000 0.0000
vt 3.6309 3.6309
vt 0.0000 0.0000
f 6/6 8/8 9/9
f 6/6 9/9 10/10
f 9/9 6/6 8/8
f 10/10 9/9 8/8
f 22/22 29/29 23/23
f 22/22 30/30 29/29
f 22/22 29/29 23/23
f 29/29 30/30 23/23
f 12/12 13/13 9/9
f 3/3 4/4 6/6
f 7/7 1/1 2/2
f 6/6 4/4 5/5
f 25/25 22/22 21/21
f 24/24 17/17 23/23
f 25/25 23/23 24/24
f 23/23 17/17 24/24
f 23/23 43/43 46/46
