# Conker's Bad Fur Day — Real 3D Model (Multiplayer Level Models)
o assets09_model_173

v 0.0000 0.3200 0.0000
v 0.0000 6.4000 0.0000
v 0.0000 0.0000 -0.0300
v -0.1200 0.0000 -0.2900
v 0.1200 0.0000 -0.2900
v 0.0000 -0.0800 0.1000
v -0.0900 0.0000 0.1400
v 0.0000 0.0000 -0.2200
v 0.0000 0.0000 0.3000
v -0.0900 0.0000 0.1400
v 0.0000 -0.0800 0.1000
v 0.0900 0.0000 0.1400
v 0.0900 0.0000 0.1400
v 0.0000 0.0800 0.1200
v 0.0000 0.0000 -0.2200
v -0.3000 0.0000 0.0100
v 0.0000 0.0000 -0.2200
v -0.0900 0.0000 0.1400
v 0.3000 0.0000 0.0100
v 0.0900 0.0000 0.1400
v 0.0000 0.0000 -0.2200
v 0.0000 0.0000 -0.0300
v -0.1200 0.0000 -0.2900
v 0.1200 0.0000 -0.2900
v 0.0000 -0.0800 0.1000
v -0.0900 0.0000 0.1400
v 0.0000 0.0000 -0.2200
v 0.0000 0.0000 0.3000
v -0.0900 0.0000 0.1400
v 0.0000 -0.0800 0.1000
v 0.0900 0.0000 0.1400
v 0.0900 0.0000 0.1400
v 0.0000 0.0800 0.1200
v 0.0000 0.0000 -0.2200
v -0.3000 0.0000 0.0100
v 0.0000 0.0000 -0.2200
v -0.0900 0.0000 0.1400
v 0.3000 0.0000 0.0100
v 0.0900 0.0000 0.1400
v 0.0000 0.0000 -0.2200
v -7.5200 0.0000 0.0000
v -33.2800 0.0000 19.1900
v 12.8000 5.1600 0.0000
v 12.8600 20.5800 0.0000
v 13.0200 30.9200 0.0000
v 13.0200 35.9600 0.0000
vt 0.0000 0.3281
vt 0.0000 0.7266
vt 1.7715 1.1719
vt 1.5107 0.5146
vt 1.9990 0.5312
vt 2.0713 -0.2627
vt 2.0674 0.2119
vt 1.7988 0.0801
vt 1.5146 0.2246
vt 1.9688 0.1787
vt 2.0781 -0.1309
vt 2.0674 0.2119
vt 1.9688 0.1787
vt 2.0000 0.4922
vt 2.9922 0.0830
vt 0.4932 0.4131
vt 1.2783 -0.1875
vt 1.3740 0.4902
vt 0.4834 0.3848
vt 1.3916 0.4941
vt 1.1289 -0.1592
vt 1.7715 1.1719
vt 1.5107 0.5146
vt 1.9990 0.5312
vt 2.0713 -0.2627
vt 2.0674 0.2119
vt 1.7988 0.0801
vt 1.5146 0.2246
vt 1.9688 0.1787
vt 2.0781 -0.1309
vt 2.0674 0.2119
vt 1.9688 0.1787
vt 2.0000 0.4922
vt 2.9922 0.0830
vt 0.4932 0.4131
vt 1.2783 -0.1875
vt 1.3740 0.4902
vt 0.4834 0.3848
vt 1.3916 0.4941
vt 1.1289 -0.1592
vt -2.7344 0.0000
vt -2.7344 8.0000
vt -9.5010 -0.0010
vt 1.2617 3.5156
vt 1.2715 5.0234
vt 1.2734 3.5215
f 6/6 2/2 8/8
f 6/6 2/2 8/8
f 1/1 2/2 3/3
f 4/4 5/5 6/6
f 7/7 8/8 9/9
f 6/6 10/10 4/4
f 11/11 7/7 9/9
f 12/12 7/7 11/11
f 12/12 11/11 13/13
f 12/12 8/8 7/7
f 13/13 8/8 12/12
f 14/14 15/15 16/16
f 1/1 2/2 3/3
