# Conker's Bad Fur Day — Real 3D Model (Spooky Models)
o assets10_model_042

v 0.0000 0.6400 0.0000
v 0.0000 2.1600 0.0000
v 0.0000 3.7600 0.0000
v 0.0000 5.2800 0.0000
v -14.4000 1.0800 32.8300
v -4.9000 1.0800 38.7700
v -1.9500 1.0800 7.1300
v 18.1100 1.0800 20.0500
v 9.1200 1.0800 30.4200
v 2.0100 1.0800 16.5500
v 2.3700 1.0800 3.7300
v 12.1400 1.0800 18.1400
v 0.7000 1.0800 36.3000
v 3.7300 1.0800 22.4100
v 14.6600 1.0800 8.2300
v -8.9200 1.0800 16.5600
v 7.1600 1.0800 34.8000
v 16.1800 1.0800 14.7200
v 15.3100 1.0800 29.6500
v -0.2400 1.0800 26.5400
v -18.1400 1.0800 25.3500
v -10.3900 1.0800 21.1800
v 8.9300 1.0800 11.8500
v 15.9500 1.0800 19.3200
v 10.9900 1.0800 18.0000
v -11.7800 1.0800 9.1600
v -6.5200 1.0800 29.0000
v 16.0000 1.0800 23.0500
v 2.0300 1.0800 29.7900
v -9.1600 1.0800 25.4500
v -4.1700 1.0800 35.1400
v 17.6300 1.0800 24.5100
v -8.5800 1.0800 6.1500
v -8.4000 1.0800 24.2600
v -15.0300 1.0800 19.9300
v -1.9600 1.0800 22.9100
v 12.5100 1.0800 31.6700
v 4.6900 1.0800 13.7000
v 13.4900 1.0800 11.5000
v 4.5000 1.0800 13.6900
v -9.2100 1.0800 14.9000
v -11.8800 1.0800 29.7500
vt 0.0000 0.1328
vt 0.0000 0.2812
vt 0.0000 0.4375
vt 0.0000 0.6016
vt -1.4092 0.1055
vt -1.7764 0.1055
vt 0.8984 0.1055
vt -0.3604 0.1055
vt -0.5596 0.1055
vt -0.5840 0.1055
vt 1.5605 0.1055
vt 1.6660 0.1055
vt -1.4307 0.1055
vt 1.3867 0.1055
vt 0.1738 0.1055
vt -0.2090 0.1055
vt 1.0020 0.1055
vt 0.2568 0.1055
vt 1.4951 0.1055
vt -1.0107 0.1055
vt -1.3779 0.1055
vt -0.2803 0.1055
vt 0.7539 0.1055
vt 1.0732 0.1055
vt 0.5176 0.1055
vt -1.3760 0.1055
vt 0.6787 0.1055
vt 0.4014 0.1055
vt 0.1982 0.1055
vt -1.7236 0.1055
vt 0.6943 0.1055
vt 0.8389 0.1055
vt -0.5186 0.1055
vt -0.8203 0.1055
vt -0.7744 0.1055
vt 0.1846 0.1055
vt 1.2012 0.1055
vt 0.4062 0.1055
vt 0.4395 0.1055
vt 0.0723 0.1055
vt -0.5049 0.1055
vt -0.1621 0.1055
f 1/1 1/1 1/1
