mtllib assets0A_model_010.mtl
# Conker's Bad Fur Day — Real 3D Model (Bat's Tower Level Models)
o assets0A_model_010
usemtl assets0A_model_010_mat

v 0.0000 0.8000 0.0000
v 0.0000 1.2000 0.0000
v 0.0000 3.4400 0.0000
v 0.0000 4.4800 0.0000
v 0.0000 5.3600 0.0000
v 0.0600 0.0600 0.0000
v 7.6800 20.4800 0.0000
v -0.2500 0.0000 0.0000
v -0.2300 0.9800 -35.7400
v 18.5600 -0.1800 0.7800
v 7.6800 20.4800 0.0000
v 1.6000 0.0000 0.0000
v -3.1700 5.0900 1.8300
v 1.4000 -9.5700 2.7800
v 4.5900 2.3300 -2.1700
v 0.0600 0.2100 0.0600
v 2.3800 -1.7900 5.5900
v 9.3200 2.3800 -1.7900
v 0.9000 -36.3700 0.0000
v 7.6800 20.4800 0.0000
v 1.6000 0.0000 0.0000
v 1.6700 -14.8100 2.2900
v 23.2800 3.7600 -11.3100
v 4.5700 -5.6900 7.4100
v -29.2800 2.4300 -4.9500
v 7.1600 -1.8300 4.6700
v 4.3300 -17.1900 5.2000
vt 0.0000 0.1172
vt 0.0000 0.1641
vt 0.0000 0.3828
vt 0.0000 0.4844
vt 0.0000 0.5703
vt 0.7500 0.0000
vt 0.0000 0.0000
vt -0.0098 0.0469
vt 17.2490 -5.2500
vt -10.4834 14.2490
vt 0.0000 0.0000
vt 0.2324 -0.1748
vt 0.3926 0.1455
vt -0.7451 0.3398
vt 0.2324 -0.1748
vt 0.7500 2.0000
vt -0.1865 0.7275
vt 0.1914 -0.0625
vt 0.0059 0.1377
vt 0.0000 0.0000
vt 0.2324 -0.1748
vt -6.8984 0.1240
vt 9.5107 1.4922
vt 2.0156 -0.2021
vt 12.1504 -6.8828
vt 13.1641 1.5645
vt 5.0469 1.1357
f 1/1 2/2 3/3
f 4/4 5/5 6/6
f 7/7 8/8 9/9
f 10/10 11/11 12/12
f 13/13 14/14 15/15
f 16/16 17/17 18/18
f 19/19 20/20 21/21
f 22/22 23/23 24/24
f 25/25 26/26 27/27
