# Conker's Bad Fur Day — Real 3D Model (Multiplayer Level Models)
o assets09_model_092

v 0.0000 4.0800 0.0000
v 4.8600 -0.2000 -0.0100
v 0.5400 0.0000 -0.0100
v 2.9300 11.9000 -0.0100
v 2.7200 0.2100 -0.0100
v 4.8100 0.0100 -0.0100
v 2.7300 0.5300 -0.0100
v 3.0100 11.5700 -0.0100
v 0.6100 0.1300 -0.0100
v 4.4000 0.2300 -0.0100
v 0.5200 0.1400 -0.0100
v 3.4800 12.7500 -0.0100
v 2.4800 0.6900 -0.0100
v 2.7000 0.6400 -0.0100
v 0.7600 0.1900 -0.0100
v 2.9900 12.1100 -0.0100
v 4.6800 0.1900 -0.0100
v 4.8000 0.3100 -0.0100
v 0.7100 0.4600 -0.0100
v 2.7200 10.9500 -0.0100
v 4.4900 0.2500 -0.0100
v 0.5300 -0.1800 -0.0100
v 4.7800 -0.0500 -0.0100
v 2.7800 11.1500 -0.0100
v 2.6600 0.3300 -0.0100
v -28.0000 0.0000 17.9200
v -33.2800 0.0000 18.0700
v -28.1600 2.5600 15.3600
v -7.5200 0.0000 0.6400
v 15.3600 5.1600 0.0200
v 15.3600 5.1600 0.0200
v 15.3600 5.1600 0.0200
v 15.3600 5.1600 0.0200
v 15.3600 5.1600 0.0200
v 15.3600 5.1600 0.0200
vt 0.0000 0.0000
vt -0.0010 0.0518
vt 0.0000 0.1133
vt 0.0127 0.0635
vt -0.0020 0.0498
vt -0.0127 0.0635
vt -0.0059 0.1113
vt 0.0117 0.0635
vt -0.0127 0.0264
vt -0.0039 0.0469
vt -0.0029 0.0049
vt 0.0117 0.0303
vt -0.0146 0.0244
vt 0.0029 0.0342
vt 0.0000 -0.0322
vt 0.0088 0.0205
vt -0.0117 0.0645
vt -0.0010 0.0645
vt 0.0010 0.1309
vt 0.0127 0.0635
vt -0.0127 0.0410
vt -0.0010 0.0615
vt 0.0029 0.0635
vt 0.0127 0.0410
vt 0.0000 0.4062
vt -6.5000 0.0000
vt -6.2500 0.0000
vt -6.5000 0.0000
vt -4.0000 0.0000
vt 1.2559 0.0039
vt 1.2559 0.0039
vt 1.2559 0.0039
vt 1.2559 0.0039
vt 1.2559 0.0039
vt 1.2559 0.0039
f 1/1 2/2 3/3
f 2/2 4/4 3/3
f 4/4 1/1 3/3
f 1/1 2/2 3/3
f 2/2 4/4 3/3
f 4/4 1/1 3/3
f 1/1 2/2 3/3
f 2/2 4/4 3/3
f 4/4 1/1 3/3
f 1/1 2/2 3/3
f 2/2 4/4 3/3
f 4/4 1/1 3/3
f 1/1 2/2 3/3
f 2/2 4/4 3/3
f 4/4 1/1 3/3
f 1/1 2/2 3/3
f 2/2 4/4 3/3
f 4/4 1/1 3/3
