# Conker's Bad Fur Day — Real 3D Model (Bat's Tower Level Models)
o assets0A_model_025

v 0.0000 1.4400 0.0000
v 0.0000 1.6000 0.0000
v 0.0000 2.8800 0.0000
v 0.0000 3.8400 0.0000
v 0.0000 4.8000 0.0000
v 0.0000 5.1200 0.0000
v 0.0000 6.2400 0.0000
v 0.0000 8.8000 0.0000
v 0.0000 10.0000 0.0000
v 0.0200 0.1100 0.0000
v 0.0200 0.3400 0.1000
v -16.1600 0.1000 -2.0800
v 0.0500 -3.0700 3.7700
v 0.0200 0.4000 0.0600
v -2.2400 0.0000 0.0000
v -4.0300 3.7700 0.0500
v 0.0500 -4.0300 3.7700
v 3.7700 0.0500 -4.0300
v -4.0300 3.7700 0.0500
v 0.0200 0.4100 0.0600
v -3.2000 0.0000 0.0000
v -2.2800 3.1100 -3.4200
v -3.4200 -2.2800 3.1100
v 3.1100 -3.4200 -2.2800
v -2.2800 3.1100 -3.4200
v 0.0200 0.0100 0.0600
v 9.9200 0.0000 0.0000
v 0.0200 0.5100 0.0600
v 3.8400 0.0000 0.0000
v -3.4500 0.4200 0.3200
v 0.3200 -3.4500 0.4200
v 0.4200 0.3200 -3.4500
v -3.4500 0.4200 0.3200
v 0.3200 -3.4500 0.4200
v 0.0200 1.4700 0.0600
v 5.9200 3.0600 5.0900
v 5.0900 5.9200 3.0600
v 3.0600 5.0900 5.9200
v 5.9200 3.0600 5.0900
v 5.0900 5.9200 3.0600
v 3.0600 5.0900 5.9200
v 5.9200 3.0600 5.0900
v 5.0900 5.9200 3.0600
v 3.0600 5.0900 5.9200
v 5.9200 3.0600 5.0900
v 5.0900 5.9200 3.0600
v 3.0600 5.0900 5.9200
v 5.9200 3.0600 5.0900
v 5.0900 5.9200 3.0600
v 0.0200 0.5700 0.0600
v 5.9200 3.0600 5.0900
v 5.0900 5.9200 3.0600
v 3.0600 5.0900 5.9200
v 5.9200 3.0600 5.0900
v 5.0900 5.9200 3.0600
v 3.0600 0.0000 0.0000
v -5.9900 -1.8800 -1.5100
vt 0.0000 0.1562
vt 0.0000 0.1797
vt 0.0000 0.3047
vt 0.0000 0.3984
vt 0.0000 0.4922
vt 0.0000 0.5234
vt 0.0000 0.6328
vt 0.0000 0.8828
vt 0.0000 1.0000
vt 0.7500 0.0000
vt 0.7500 -32.0000
vt 0.0049 -0.1641
vt 4.0039 0.0049
vt 0.7500 -32.0000
vt 0.0049 -0.3936
vt 0.3682 0.0049
vt -0.3936 0.3682
vt 0.0049 -0.3936
vt 0.3682 0.0000
vt 0.7500 -32.0000
vt -0.3340 -0.2227
vt 0.3037 -0.3340
vt -0.2227 0.3037
vt -0.3340 -0.2227
vt 0.3037 0.0000
vt 0.7500 -32.0000
vt -0.2910 -0.2949
vt 0.7500 -32.0000
vt 0.0312 -0.3369
vt 0.0410 0.0312
vt -0.3369 0.0410
vt 0.0312 -0.3369
vt 0.0410 0.0312
vt -0.3369 0.0410
vt 0.7500 -32.0000
vt 0.2988 0.4971
vt 0.5781 0.2988
vt 0.4971 0.5781
vt 0.2988 0.4971
vt 0.5781 0.2988
vt 0.4971 0.5781
vt 0.2988 0.4971
vt 0.5781 0.2988
vt 0.4971 0.5781
vt 0.2988 0.4971
vt 0.5781 0.2988
vt 0.4971 0.5781
vt 0.2988 0.4971
vt 0.5781 0.2988
vt 0.7500 -32.0000
vt 0.2988 0.4971
vt 0.5781 0.2988
vt 0.4971 0.5781
vt 0.2988 0.4971
vt 0.5781 0.2988
vt 0.0020 0.0488
vt -21.5010 17.2490
f 1/1 2/2 3/3
f 4/4 5/5 6/6
f 7/7 8/8 9/9
f 10/10 11/11 12/12
f 13/13 14/14 15/15
f 16/16 17/17 18/18
f 19/19 20/20 21/21
f 22/22 23/23 24/24
f 25/25 26/26 27/27
f 28/28 29/29 30/30
f 31/31 32/32 33/33
f 34/34 35/35 36/36
f 37/37 38/38 39/39
f 40/40 41/41 42/42
f 43/43 44/44 45/45
f 46/46 47/47 48/48
f 49/49 50/50 51/51
f 52/52 53/53 54/54
f 55/55 56/56 57/57
