mtllib assets09_model_163.mtl
# Conker's Bad Fur Day — Real 3D Model (Multiplayer Level Models)
o assets09_model_163
usemtl assets09_model_163_mat

v 0.0000 14.4800 0.0000
v 3.1000 5.5200 -2.5800
v 6.2100 3.4900 -2.5800
v 3.0900 4.6600 -2.5800
v 6.2200 1.8800 -2.5800
v 3.1100 6.2900 -2.5800
v 6.2300 5.0000 -2.5800
v 3.1000 5.5200 -2.5800
v 6.2100 3.4900 -2.5800
v 6.2200 1.8800 -2.5800
v 9.2900 5.7600 -2.5800
v 8.6100 6.1200 -2.5800
v 9.9600 5.3200 -2.5800
v 9.9600 9.4800 -2.5800
v 9.2900 5.7600 -2.5800
v 9.9600 9.4800 -2.5800
v 0.2100 5.5400 -2.5800
v 0.2300 7.0400 -2.5800
v 0.0000 0.0000 -2.5800
v 10.2400 0.0000 -2.5800
v 0.0000 10.1000 -2.5800
v 10.2400 10.1000 -2.5800
v 0.0000 10.2400 -2.5800
v 5.1200 10.2400 -2.5800
v 0.0000 0.0000 -2.5800
v 5.1200 0.0000 -2.5800
v 1.6700 3.9000 -2.5800
v 3.3200 3.9100 -2.5800
v 6.6100 3.9500 -2.5800
v 8.2600 3.9700 -2.5800
v 6.6100 3.9500 -2.5800
v 3.3200 3.9100 -2.5800
v 4.9400 0.1700 -2.5800
v 4.9400 0.1700 -2.5800
v 3.0100 9.1400 -2.5800
v 1.0300 9.1200 -2.5800
v 6.9800 9.1800 -2.5800
v 8.9700 9.2100 -2.5800
v 6.9800 9.1800 -2.5800
v 3.0100 9.1400 -2.5800
v 3.5800 13.1200 -2.5800
v 2.1400 13.1000 -2.5800
v 6.4700 13.1500 -2.5800
v 7.9100 13.1700 -2.5800
v 6.4700 13.1500 -2.5800
v 3.5800 13.1200 -2.5800
v 3.4400 19.4400 -2.5800
v 4.0600 17.2300 -2.5800
v 4.2600 19.4500 -2.5800
v 4.5600 17.2300 -2.5800
v 5.8800 19.4700 -2.5800
v 5.5500 17.2400 -2.5800
v 6.6900 19.4800 -2.5800
v 6.0500 17.2500 -2.5800
v 5.8800 19.4700 -2.5800
v 5.5500 17.2400 -2.5800
v 4.2600 19.4500 -2.5800
v 4.5600 17.2300 -2.5800
v 0.5300 5.7200 -2.5800
v 3.0000 1.8200 -2.5800
v 2.0000 9.6500 -2.5800
v 5.9400 9.6700 -2.5800
v 6.9400 1.8400 -2.5800
v 8.4100 5.7600 -2.5800
v 1.5600 3.6500 -2.5800
v 0.5400 3.6400 -2.5800
v 1.3900 4.8200 -2.5800
v 0.2000 4.8000 -2.5800
v 3.7800 4.8400 -2.5800
v 3.6000 3.6700 -2.5800
v 4.6200 3.6800 -2.5800
v 4.9700 4.8500 -2.5800
v 1.3900 4.8200 -2.5800
v 1.5600 3.6500 -2.5800
v 3.7800 4.8400 -2.5800
v 3.6000 3.6700 -2.5800
v -28.0000 0.0000 17.9200
v -33.2800 0.0000 18.2300
v -28.1600 2.5600 15.3600
v -7.5200 0.0000 0.6400
v -7.5200 0.0000 0.0000
v -33.2800 0.0000 18.2300
v -7.4400 0.0000 0.0000
v -28.0000 0.0000 17.9200
v -33.2800 0.0000 18.5500
v -28.0800 20.4800 0.0100
v -7.5200 0.0000 0.6400
v -27.9200 0.0000 17.9200
v -33.2800 0.0000 18.1200
v -27.9200 20.4800 0.0900
v -27.9200 10.8800 2.6400
v -27.9200 5.9200 5.2000
vt 0.0000 1.4180
vt 0.0039 -0.0107
vt 0.0000 -0.0049
vt 0.0000 -0.0195
vt 0.0000 0.0039
vt 0.0000 -0.0029
vt -0.0039 0.0000
vt -0.0039 -0.0107
vt 0.0000 -0.0195
vt -0.0029 0.0010
vt 0.0000 0.0029
vt 0.0000 -0.0010
vt 0.0000 0.0205
vt 0.0029 0.0010
vt 0.0000 0.0205
vt 0.0078 0.0000
vt 0.0000 0.0078
vt -0.0078 0.0000
vt 0.0186 -0.0186
vt -0.0186 0.0186
vt 0.0186 0.0186
vt -0.0186 0.0186
vt -0.0186 0.0186
vt 0.0186 0.0186
vt 0.0186 0.0186
vt 0.0186 0.0186
vt -0.0107 0.0000
vt 0.0107 0.0000
vt 0.0225 0.0000
vt 0.0107 0.0000
vt -0.0107 0.0000
vt 0.0000 -0.0342
vt 0.0000 -0.0342
vt -0.0137 0.0000
vt -0.0264 0.0000
vt 0.0137 0.0000
vt 0.0264 0.0000
vt 0.0137 0.0000
vt -0.0137 0.0000
vt -0.0088 0.0000
vt -0.0186 0.0000
vt 0.0107 0.0000
vt 0.0205 0.0000
vt 0.0107 0.0000
vt -0.0088 0.0000
vt -0.0107 0.0205
vt -0.0068 0.0000
vt -0.0059 0.0205
vt -0.0029 0.0000
vt 0.0059 0.0205
vt 0.0029 0.0000
vt 0.0107 0.0205
vt 0.0068 0.0000
vt 0.0059 0.0205
vt 0.0029 0.0000
vt -0.0059 0.0205
vt -0.0029 0.0000
vt -0.0107 0.0205
vt -0.0059 0.0205
vt -0.0059 0.0205
vt 0.0059 0.0205
vt 0.0059 0.0205
vt 0.0107 0.0205
vt -0.0059 0.0205
vt -0.0107 0.0205
vt -0.0068 0.0254
vt -0.0127 0.0254
vt 0.0068 0.0254
vt 0.0059 0.0205
vt 0.0107 0.0205
vt 0.0127 0.0254
vt -0.0068 0.0254
vt -0.0059 0.0205
vt 0.0068 0.0254
vt 0.0059 0.0205
vt 0.0000 1.5000
vt -6.5000 0.0000
vt -6.2500 0.0000
vt -6.5000 0.0000
vt -4.0000 0.0000
vt -6.5000 0.0000
vt -6.2500 0.0000
vt -2.7266 0.0000
vt -6.5000 0.0000
vt -6.2500 0.0000
vt -3.5000 8.0020
vt -4.0000 0.0000
vt -6.5000 0.0000
vt -6.2500 0.0000
vt -3.5000 8.0020
vt -3.5000 8.0020
vt -3.5000 8.0020
f 20/20 21/21 22/22
f 21/21 23/23 22/22
f 3/3 7/7 4/4
f 1/1 7/7 2/2
