mtllib assets09_model_297.mtl
# Conker's Bad Fur Day — Real 3D Model (Multiplayer Level Models)
o assets09_model_297
usemtl assets09_model_297_mat

v 0.0000 12.4000 0.0000
v -27.3600 0.0000 17.9200
v -27.4400 20.4800 0.0900
v -7.5200 0.0000 0.6400
v -33.2800 0.0000 18.5500
v -33.2800 0.0000 18.5500
v -6.8800 0.0000 0.0000
v -27.4400 20.4800 0.0100
v -7.5200 0.0000 0.6400
v -6.8800 0.0000 0.0000
v -27.4400 20.4800 0.0900
v -6.8800 0.0000 0.0000
v -27.4400 20.4800 0.0100
v -6.8800 0.0000 0.0000
v -27.4400 10.2400 0.0900
v -7.5200 0.0000 0.6400
v 1.4800 -11.5000 -4.6500
vt 0.0000 0.0000
vt -3.2500 0.0000
vt -3.4375 9.0020
vt -2.6562 0.2500
vt -2.6797 2.0000
vt -0.7344 0.0000
vt -3.2500 0.0000
vt -3.4375 9.0020
vt -6.5000 0.0000
vt -3.2500 0.0000
vt -0.7344 0.0000
vt -3.2500 0.0000
vt -0.7344 0.0000
vt -3.2500 0.0000
vt -3.4375 9.0020
vt -6.5000 0.0000
vt -0.3359 0.1914
f 8/8 2/2 9/9
f 10/10 8/8 9/9
f 9/9 12/12 11/11
f 6/6 5/5 8/8
f 13/13 14/14 15/15
