# Conker's Bad Fur Day — Real 3D Model (HUD & UI Props)
o assets01_model_024

v 0.0000 31.6400 0.0000
v 5.3600 17.7700 -0.0100
v 5.3600 17.7700 -0.0100
v 8.4400 16.7100 -0.0100
v 8.4400 16.7100 -0.0100
v 3.3700 4.7600 -2.5800
v 6.4400 4.3500 -2.5800
v 3.3700 4.7600 -2.5800
v 6.4400 4.3500 -2.5800
v 5.3600 17.7700 -0.0100
v 3.7300 11.6700 -0.0100
v 5.3600 17.7700 -0.0100
v 8.4400 16.7100 -0.0100
v 3.7300 11.6700 -0.0100
v 8.0800 11.0900 -2.5800
v 8.4400 16.7100 -0.0100
v 5.3600 17.7700 -0.0100
v 3.7300 11.6700 -0.0100
v 8.4400 16.7100 -0.0100
v 8.4400 16.7100 -0.0100
v 8.0800 11.0900 -2.5800
v 3.7300 11.6700 -0.0100
v 3.3700 4.7600 -2.5800
v 3.7300 11.6700 -0.0100
v 8.0800 11.0900 -2.5800
v 3.3700 4.7600 -2.5800
v 6.4400 4.3500 -2.5800
v 3.7300 11.6700 -0.0100
v 8.0800 11.0900 -2.5800
v 8.0800 11.0900 -2.5800
v 6.4400 4.3500 -2.5800
v 6.2100 4.2900 -2.5800
v 7.7100 10.9900 -2.5800
v 7.7100 10.9900 -2.5800
v 2.8800 4.6400 -2.5800
v 3.0100 11.4900 -0.0100
v 7.7100 10.9900 -2.5800
v 6.2100 4.2900 -2.5800
v 3.0100 11.4900 -0.0100
v 2.8800 4.6400 -2.5800
v 3.0100 11.4900 -0.0100
v 7.7100 10.9900 -2.5800
v 7.8800 16.5800 -0.0100
v 7.8800 16.5800 -0.0100
v 3.0100 11.4900 -0.0100
v 4.5400 17.5600 -0.0100
v 7.8800 16.5800 -0.0100
v 7.7100 10.9900 -2.5800
v 3.0100 11.4900 -0.0100
v 7.8800 16.5800 -0.0100
v 4.5400 17.5600 -0.0100
v 3.0100 11.4900 -0.0100
v 4.5400 17.5600 -0.0100
v 6.2100 4.2900 -2.5800
v 2.8800 4.6400 -2.5800
v 6.2100 4.2900 -2.5800
v 0.0000 0.0000 -2.5800
v 0.0000 0.0000 -2.5800
v 2.8800 4.6400 -2.5800
v 7.8800 16.5800 -0.0100
v 7.8800 16.5800 -0.0100
v 4.5400 17.5600 -0.0100
v 4.5400 17.5600 -0.0100
v 0.0000 0.0000 -2.5800
v 0.0000 0.0000 -2.5800
v 2.0500 2.2800 -2.5800
v 8.0400 2.2800 -2.5800
v 20.4800 10.2400 -2.5800
v 0.0000 10.2400 -2.5800
v 0.0000 10.2400 -2.5800
v 10.2400 10.2400 -0.0100
v 20.4800 10.2400 -2.5800
v 0.0000 0.0000 -2.5800
v 20.4800 0.0000 -2.5800
v 20.4800 0.0000 -2.5800
v 0.0000 0.0000 -2.5800
v 20.4800 10.2400 -2.5800
v 0.0000 10.2400 -2.5800
v 0.0000 10.2400 -2.5800
v 20.4800 10.2400 -2.5800
v 10.8200 6.5500 -2.5800
v -0.4200 6.5500 -2.5800
v 0.0000 0.0000 -2.5800
v 20.4800 0.0000 -2.5800
v 20.4800 0.0000 -2.5800
v 0.0000 0.0000 -2.5800
v 5.0400 10.2400 -2.5800
v 0.0000 10.2400 -2.5800
v 5.0400 10.2400 -2.5800
v 15.4300 10.2400 -2.5800
v 20.4800 10.2400 -2.5800
v 15.4300 10.2400 -2.5800
v 0.0000 10.2400 -2.5800
v 20.4800 10.2400 -2.5800
v 0.0000 0.0000 -2.5800
v 0.0000 0.0000 -2.5800
v 20.4800 0.0000 -2.5800
v 0.0000 0.0000 -2.5800
v 20.4800 0.0000 -2.5800
v 20.4800 0.0000 -2.5800
v 20.4800 0.0000 -2.5800
v 10.2400 0.0000 -0.0100
v 0.0000 0.0000 -2.5800
v 20.4800 0.0000 -2.5800
v 0.0000 0.0000 -2.5800
v 0.0000 10.2400 -0.0100
v 20.4800 10.2400 -0.0100
v 0.0000 0.0000 -0.0100
v 0.0000 10.2400 -2.5800
v 20.4800 10.2400 -2.5800
v 20.4800 0.0000 -0.0100
v 0.6400 0.3200 0.0000
v 0.0000 9.8300 0.0000
v 0.0000 9.8600 0.6400
v 0.6400 0.3200 0.0000
v -28.0000 0.0000 17.9200
v -33.2800 0.0000 18.5500
v -28.1600 2.5600 15.3600
v -7.5200 0.0000 0.6400
v 2.5800 0.6400 2.5600
v -7.5200 0.0000 0.0000
v -33.2800 0.0000 18.2300
v -28.0800 20.4800 0.0900
v 15.3600 5.6000 0.5000
v -7.5200 0.0000 0.0000
v -33.2800 0.0000 18.5500
v -7.5200 0.0000 0.0000
v -33.2800 0.0000 18.5500
v -7.5200 0.0000 0.0000
v -33.2800 0.0000 18.5500
v -7.5200 0.0000 0.0000
v -33.2800 0.0000 18.5500
v -7.5200 0.0000 0.0000
v -33.2800 0.0000 18.5500
v 23.4700 23.4700 23.4700
v 1.2600 1.2600 0.0000
v 1.2600 1.2600 0.0000
v 1.2700 1.2700 0.0000
v 1.2900 1.2900 0.0000
vt 0.0000 3.1680
vt 0.0645 0.1113
vt 0.0801 0.0859
vt 0.0645 0.1113
vt 0.1006 0.0811
vt -0.0088 0.0088
vt 0.0117 0.0039
vt 0.0273 -0.0215
vt 0.0391 0.0996
vt -0.0117 0.0625
vt 0.0391 0.0996
vt 0.0186 0.0967
vt 0.0166 0.0566
vt 0.0752 0.0439
vt 0.0801 0.0859
vt 0.0391 0.0996
vt 0.0166 0.0566
vt 0.1006 0.0811
vt 0.0977 0.0371
vt 0.0752 0.0439
vt 0.0977 0.0371
vt -0.0088 0.0088
vt 0.0166 0.0566
vt -0.0117 0.0625
vt 0.0117 0.0039
vt 0.0527 -0.0049
vt 0.0166 0.0566
vt 0.0977 0.0371
vt 0.0732 -0.0098
vt 0.0527 -0.0049
vt 0.0732 -0.0098
vt -0.0752 0.0439
vt -0.0732 -0.0098
vt -0.0977 0.0371
vt -0.0166 0.0566
vt -0.0752 0.0439
vt -0.0527 -0.0049
vt 0.0088 0.0088
vt -0.0117 0.0039
vt 0.0088 0.0088
vt -0.0977 0.0371
vt -0.0801 0.0859
vt -0.0977 0.0371
vt -0.1006 0.0811
vt -0.0391 0.0996
vt -0.0801 0.0859
vt -0.0752 0.0439
vt -0.0166 0.0566
vt -0.0801 0.0859
vt 0.0117 0.0625
vt -0.0166 0.0566
vt 0.0117 0.0625
vt -0.0527 -0.0049
vt -0.0732 -0.0098
vt -0.0527 -0.0049
vt -0.0273 -0.0215
vt -0.2637 0.1387
vt 0.0088 0.0088
vt -0.0273 -0.0215
vt -0.0645 0.1113
vt -0.0391 0.0996
vt -0.0645 0.1113
vt -0.0186 0.0967
vt 0.2637 0.0020
vt -0.0752 0.0312
vt 0.0674 0.0312
vt 0.2637 0.1387
vt -0.2637 0.1387
vt 0.2637 0.1387
vt 0.2637 0.1387
vt 0.2637 0.1387
vt -0.2637 0.1387
vt 0.2637 0.0908
vt 0.2637 0.0908
vt 0.2637 0.0908
vt -0.2637 0.0908
vt -0.2637 0.0908
vt 0.2637 0.0908
vt 0.2637 0.0908
vt 0.1338 0.0557
vt -0.1338 0.0557
vt -0.2637 0.0557
vt 0.2637 0.0557
vt 0.2637 0.0557
vt 0.2637 0.0557
vt -0.0752 0.0312
vt -0.2637 0.0557
vt -0.1338 0.0557
vt 0.1338 0.0557
vt 0.2637 0.0557
vt 0.1338 0.0557
vt 0.2637 0.0557
vt 0.2637 0.0557
vt -0.2637 0.0557
vt -0.2637 0.0020
vt 0.2637 0.0020
vt -0.2637 0.0020
vt 0.2637 0.0020
vt 0.2637 0.0020
vt 0.2637 0.0020
vt 0.2637 0.0020
vt 0.2637 0.0020
vt -0.2637 0.0020
vt -0.2637 0.1387
vt -0.2637 0.1387
vt 0.2637 0.1387
vt -0.2637 0.1387
vt -0.2637 0.1387
vt 0.2637 0.1387
vt 0.2637 0.1387
vt -0.2637 0.0557
vt 0.0000 0.9609
vt 0.0625 0.0312
vt 0.0000 0.9639
vt 0.0000 3.3086
vt -6.5000 0.0000
vt -6.2500 0.0000
vt -6.5000 0.0000
vt -4.0000 0.0000
vt 5.1650 6.2266
vt -6.5000 0.0000
vt -6.2500 0.0000
vt -3.5000 8.0020
vt -6.2500 0.0000
vt -6.5000 0.0000
vt -6.2500 0.0000
vt -6.5000 0.0000
vt -6.2500 0.0000
vt -6.5000 0.0000
vt -6.2500 0.0000
vt -6.5000 0.0000
vt -6.2500 0.0000
vt -6.5000 0.0000
vt -6.2500 0.0000
vt 3.0361 3.0361
vt 31.7500 0.0000
vt 31.7500 31.7500
vt 0.0000 0.1240
vt 0.0000 0.1260
f 4/4 3/3 46/46
f 4/4 3/3 46/46
f 4/4 3/3 1/1
f 128/128 128/128 128/128
f 4/4 3/3 1/1
f 128/128 128/128 128/128
f 25/25 26/26 27/27
f 28/28 29/29 30/30
f 25/25 26/26 27/27
f 28/28 29/29 30/30
f 15/15 16/16 1/1
f 15/15 1/1 2/2
f 1/1 2/2 25/25
f 26/26 1/1 25/25
f 19/19 20/20 11/11
f 19/19 11/11 12/12
f 19/19 29/29 30/30
f 21/21 22/22 32/32
