mtllib assets00_model_005.mtl
# Conker's Bad Fur Day — Real 3D Model (Vegetation & Foliage)
o assets00_model_005
usemtl assets00_model_005_mat

v 0.0000 0.1400 0.0000
v 0.0000 0.1500 0.0000
v 0.0000 0.1000 0.0000
v 0.0000 6.8200 0.0000
v 0.0000 0.0000 0.0600
v 0.7800 -0.0300 0.0000
v 0.0000 0.0000 20.3100
v 0.0000 0.0000 22.3900
v 0.0000 0.9500 -0.0100
v -0.0100 -0.0100 0.0000
v 0.0000 35.8300 -0.0100
v -0.0100 -0.0100 0.0000
v 0.0500 -0.0100 -0.0100
v -0.0100 -0.0100 0.0700
v -0.0100 -0.0100 0.0800
v 0.1000 -0.0100 -0.0100
v -0.0100 -0.0100 0.0800
v -0.0100 -0.0100 0.0400
v 0.0600 -0.0100 -0.0100
v -0.0100 -0.0100 0.0000
v -0.0100 -0.0100 0.0000
v 0.0000 23.0300 -0.0100
v -0.0100 -0.0100 0.0000
v 0.0000 0.2900 -0.0100
v 0.0000 0.0300 -0.0100
v 4.9500 -0.0100 0.0000
v 0.0000 0.0000 0.2400
v 0.0000 0.0700 0.0000
v 0.0000 0.0000 2.7500
v 0.0000 0.1100 0.0000
v 0.0000 0.1100 0.0000
v 0.0000 0.0700 0.0000
v 0.0000 0.0000 12.1500
v 0.0000 19.8300 -0.0100
v 0.0000 0.0100 0.0000
v 0.0000 0.0000 0.3900
v 4.6300 -0.0100 0.0000
v 0.0000 0.1100 -0.0100
v -0.0100 -0.0100 0.0000
v 0.0000 0.9500 -0.0100
v 0.0000 38.3900 -0.0100
v -0.0100 -0.0100 0.0000
v 0.0200 -0.0100 -0.0100
v -0.0100 -0.0100 0.0700
v -0.0100 -0.0100 0.1500
v 0.1400 -0.0100 -0.0100
v -0.0100 -0.0100 0.1100
v 0.0900 -0.0100 -0.0100
v 0.0700 -0.0100 -0.0100
v -0.0100 -0.0100 0.0400
v -0.0100 -0.0100 0.0000
v -0.0100 -0.0100 0.0000
v 0.0000 38.3900 -0.0100
v -0.0100 -0.0100 0.0000
v 0.0000 0.6300 -0.0100
v 17.7500 -0.0100 0.0000
v 0.0000 0.0000 0.0700
v 0.0000 3.5500 0.0000
v 23.6900 0.0000 0.0000
v 0.0000 0.0000 2.7300
v 0.0000 0.0600 0.0000
v 0.0000 0.0400 0.0000
v 0.0000 0.0100 0.0000
v -0.0100 -6.8300 0.0000
v 0.0000 0.0900 0.0000
v 0.0000 11.0000 0.0000
v 0.0000 0.6200 -0.0100
v 0.0000 7.5100 -0.0100
v -0.0100 -0.0100 0.0000
v 0.0000 5.1100 -0.0100
v -0.0100 -0.0100 0.0000
v -0.0100 -0.0100 0.0000
v 0.0400 -0.0100 -0.0100
v -0.0100 -0.0100 0.0400
v 0.1000 -0.0100 -0.0100
v 0.1200 -0.0100 -0.0100
v -0.0100 -0.0100 0.0700
v 0.0200 -0.0100 -0.0100
v -0.0100 -0.0100 0.0000
v -0.0100 -0.0100 0.0000
v 0.0000 25.2700 -0.0100
v -0.0100 -0.0100 0.0000
v 0.0000 0.0900 -0.0100
v 0.0000 0.0700 -0.0100
v 0.0000 0.0000 0.5500
v 0.0000 19.1100 0.0000
v 24.3300 0.0000 24.3200
v 24.3300 0.0000 0.0000
v 0.0000 0.0000 2.5900
v 0.0000 0.0100 0.0000
v -0.0100 -0.0500 0.0000
v 0.0000 0.4300 -0.0100
v 0.0000 0.6300 0.0000
v -0.0100 -0.0100 0.0000
v 0.0000 0.2800 -0.0100
v 0.0000 1.2700 -0.0100
v -0.0100 -0.0100 0.0000
v 0.0000 10.2300 -0.0100
v -0.0100 -0.0100 0.0000
v -0.0100 -0.0100 0.0000
v -0.0100 -0.0100 0.0000
v 0.0000 -0.0100 -0.0100
v -0.0100 -0.0100 0.0500
v 0.0000 -0.0100 -0.0100
v -0.0100 -0.0100 0.0000
v -0.0100 -0.0100 0.0000
v 0.0000 5.1100 -0.0100
v -0.0100 -0.0100 0.0000
v 0.0000 0.0000 33.2700
v 30.7100 -0.0100 0.0000
v 0.0000 0.0000 3.3400
v 21.1500 21.1500 21.1500
v 0.0000 0.0000 0.1700
v 0.0100 0.0000 0.0000
v -0.0100 -0.0500 0.0000
v 0.0000 0.0000 12.1300
v 0.0000 1.5900 0.0000
v 0.0000 2.2100 0.0000
v 0.0000 0.0000 0.0200
v 0.0000 0.0400 -0.0100
v -0.0100 -0.0100 0.0000
v 0.0000 0.9500 -0.0100
v 0.0000 9.5900 -0.0100
v -0.0100 -0.0100 0.0000
v 0.0000 1.7500 -0.0100
v -0.0100 -0.0100 0.0000
v -0.0100 -0.0100 0.0000
v 0.0000 30.7100 -0.0100
v -0.0100 -0.0100 0.0000
v -0.0100 -0.0100 0.0000
v -0.0100 -0.0100 0.0000
v -0.0100 -0.0100 0.0000
v 0.0000 7.1900 -0.0100
v -0.0100 -0.0100 0.0000
v 0.0000 0.0000 1.4300
v 0.7900 -0.0100 0.0000
v 0.0000 0.0000 0.0700
vt 0.0000 0.0000
vt 0.0000 0.0000
vt 0.0029 -24.0000
vt -0.0059 4.0000
vt -16.0322 -0.0010
vt -31.7500 0.0000
vt 23.7832 -29.4199
vt -0.0273 8.0000
vt -0.0010 -0.0283
vt 4.0000 0.0000
vt -0.0010 -0.0010
vt -0.4219 0.0000
vt -0.0010 -0.0010
vt -0.0098 0.0000
vt -0.0410 0.0000
vt -0.0010 -0.0010
vt -0.0156 0.0000
vt -0.2344 0.0000
vt -0.0010 -0.0010
vt -0.1719 0.0000
vt -0.1875 0.0000
vt -0.0010 -0.0010
vt -0.7188 0.0000
vt -0.0010 -0.0010
vt -0.0010 -0.0010
vt 0.0000 0.0000
vt -0.0049 22.5781
vt 0.0000 0.0000
vt 17.0498 0.0000
vt 0.0000 0.0000
vt 0.0000 0.0000
vt 0.0000 0.0000
vt -4.2510 -0.0010
vt -9.7080 -4.0234
vt 0.0000 0.0000
vt -2.7500 0.0000
vt 0.0000 0.0000
vt -0.0010 -0.0049
vt 0.0000 0.0000
vt -0.0010 -0.0010
vt -0.0010 -0.0010
vt -0.0312 0.0000
vt -0.0010 -0.0010
vt -0.0098 0.0000
vt -0.0146 0.0000
vt -0.0010 -0.0010
vt -0.0049 0.0000
vt -0.0010 -0.0010
vt -0.0010 -0.0010
vt -0.0059 0.0000
vt -0.0010 12.0000
vt -0.0029 12.0000
vt -0.0010 -0.0010
vt -0.0449 0.0000
vt -0.0010 -0.0010
vt 12.7500 0.0000
vt -9.2510 -17.1406
vt 0.0000 0.0000
vt 0.0000 0.0000
vt 17.0635 12.2500
vt 0.0000 0.0000
vt 0.0000 0.0000
vt 0.0000 0.0000
vt -0.0898 0.0000
vt 0.0000 0.0000
vt 0.0000 0.0000
vt -0.0010 -0.0010
vt -0.0010 -0.0010
vt -0.0127 0.0000
vt -0.0010 -0.0010
vt -0.0039 0.0000
vt -0.0010 12.0000
vt -0.0010 -0.0010
vt -0.0010 24.0000
vt -0.0010 -0.0010
vt -0.0010 -0.0010
vt -0.0010 -2.0000
vt -0.0010 -0.0010
vt -0.0010 -3.5000
vt -0.0010 24.0000
vt -0.0010 -0.0010
vt -0.0049 0.0000
vt -0.0010 -0.0010
vt -0.0010 -0.0010
vt -0.0049 10.6885
vt 0.0000 0.0000
vt 6.5010 8.6260
vt 0.0000 4.4375
vt 25.0498 12.7500
vt 0.0000 0.0000
vt 0.0000 0.0000
vt -0.2510 -0.0869
vt 0.0000 0.0000
vt -0.3906 0.0000
vt -0.0010 -0.0010
vt -0.0010 -0.0010
vt -0.0020 0.0000
vt -0.0010 -0.0010
vt -0.0010 28.0000
vt -0.0010 -4.0000
vt -0.0010 -0.5000
vt -0.0010 -0.0010
vt -0.0010 -2.0000
vt -0.0010 -0.0010
vt -0.0010 -3.2500
vt -0.0010 28.0000
vt -0.0010 -0.0010
vt -0.0283 0.0000
vt -0.0010 -0.0635
vt 20.5000 0.0000
vt -0.0010 -15.0000
vt 30.0654 -23.9346
vt 17.0654 12.2510
vt 19.8125 0.0000
vt 0.0000 0.0000
vt -0.0020 24.2500
vt 4.0000 0.0000
vt 20.5000 0.0000
vt -7.9551 -2.1562
vt -0.0010 -0.0010
vt -0.0439 0.0000
vt -0.0010 -0.0010
vt -0.0010 -0.0010
vt -0.0010 -20.0000
vt -0.0010 -0.0010
vt -0.0010 -3.0000
vt -0.0010 -0.2500
vt -0.0010 -0.0010
vt -0.0010 -1.0000
vt -0.0010 -1.2500
vt -0.0010 28.0000
vt -0.0010 12.0000
vt -0.0010 -0.0010
vt -0.0781 0.0000
vt -0.0010 -0.0107
vt 0.0000 0.0000
vt -0.0010 -19.2031
f 120/120 128/128 128/128
f 1/1 1/1 1/1
f 70/70 67/67 8/8
