# Conker's Bad Fur Day — Real 3D Model (Multiplayer Level Models)
o assets09_model_128

v 0.0000 9.3600 0.0000
v 10.3100 15.5700 -2.5800
v 8.0800 17.5000 -2.5800
v 0.3700 15.4200 -18.0000
v 5.6600 21.7900 -2.5800
v 10.3100 18.2100 -2.5800
v 10.3100 10.3200 -2.5800
v 1.9900 10.5500 -2.5800
v 10.3100 5.2600 -2.5800
v 4.9800 0.5500 -2.5800
v 10.3100 1.4200 -2.5800
v 0.2100 18.1300 -2.5800
v 0.2100 15.5400 -2.5800
v 2.4600 17.9200 -2.5800
v 10.2000 15.3800 -2.5800
v 4.8900 21.6500 -2.5800
v 8.5700 10.5900 -2.5800
v 0.2100 10.3600 -2.5800
v 0.2100 5.3900 -2.5800
v 0.2100 1.6100 -2.5800
v 21.0200 6.5500 -2.5800
v 18.8600 -1.0200 -38.5600
v 18.8600 -1.0200 -2.5800
v -0.5800 17.5500 -2.5800
v 5.2900 19.3200 -2.5800
v 10.4600 17.4900 -2.5800
v 2.4000 8.3100 -18.0000
v 8.4700 9.7200 -2.5800
v 6.5700 14.4000 -2.5800
v 6.0200 -0.8000 -2.5800
v 8.1800 8.6400 -2.5800
v 4.1700 14.6800 -2.5800
v 2.1200 9.8700 -2.5800
v 6.7900 4.8800 -2.5800
v 0.1800 3.7800 -2.5800
v 3.6700 4.6400 -2.5800
v -28.0000 0.0000 17.9200
v -33.2800 0.0000 18.5500
v -28.1600 2.5600 15.3600
v -7.5200 0.0000 0.6400
v 15.5200 30.8600 0.2000
v -7.5200 0.0000 0.6400
v -7.6900 -3.8400 -27.9600
v 2.5800 0.6400 2.5600
v 15.3600 30.8600 0.0200
v -7.5200 0.0000 0.6400
v -7.5200 0.0000 0.0000
v -33.2800 0.0000 18.5500
v -7.5200 0.0000 0.0000
v -33.2800 0.0000 18.5500
v -7.5200 0.0000 0.0000
v -33.2800 0.0000 18.5500
v -7.5200 0.0000 0.0000
v -33.2800 0.0000 18.5500
v -7.5200 0.0000 0.6400
v 1.9000 0.0000 0.0000
vt 0.0000 0.0000
vt -0.0166 0.0293
vt -0.0742 0.0176
vt -0.0342 0.0684
vt 0.0000 0.0303
vt 0.0000 0.0518
vt -0.0615 -0.0127
vt 0.0000 -0.0459
vt -0.0811 -0.0059
vt 0.0000 -0.0674
vt 0.0000 0.0303
vt 0.0352 0.0684
vt 0.0176 0.0293
vt 0.0742 0.0176
vt 0.0352 0.0684
vt 0.0625 -0.0127
vt 0.0000 -0.0205
vt 0.0000 -0.0459
vt 0.0820 -0.0059
vt 0.0010 0.0400
vt -0.0332 0.0361
vt -0.0430 0.0195
vt 0.0010 -0.0635
vt 0.0400 -0.0586
vt 0.0000 -0.0674
vt 0.0010 -0.0635
vt -0.0332 0.0361
vt -0.0342 0.0684
vt -0.0811 -0.0059
vt 0.0010 -0.0635
vt 0.0352 0.0684
vt 0.0303 0.0371
vt 0.0820 -0.0059
vt 0.0391 -0.0439
vt -0.0430 0.0195
vt 0.0000 0.9219
vt -6.5000 0.0000
vt -6.2500 0.0000
vt -6.5000 0.0000
vt -4.0000 0.0000
vt 1.2676 5.0156
vt -4.0000 0.0000
vt -0.6094 0.0000
vt 4.0156 -28.8750
vt -6.2500 0.0000
vt -4.0000 0.0000
vt -6.5000 0.0000
vt -6.2500 0.0000
vt -6.5000 0.0000
vt -6.2500 0.0000
vt -6.5000 0.0000
vt -6.2500 0.0000
vt -6.5000 0.0000
vt -6.2500 0.0000
vt -4.0000 0.0000
vt 0.0000 0.0000
f 9/9 7/7 8/8
f 11/11 12/12 9/9
f 10/10 11/11 9/9
f 22/22 20/20 21/21
f 23/23 22/22 24/24
f 22/22 25/25 24/24
f 1/1 7/7 8/8
f 2/2 1/1 8/8
f 9/9 10/10 11/11
f 12/12 13/13 14/14
f 15/15 16/16 17/17
f 18/18 19/19 20/20
f 21/21 22/22 23/23
f 24/24 25/25 26/26
f 25/25 28/28 29/29
f 20/20 31/31 32/32
