mtllib assets01_model_003.mtl
# Conker's Bad Fur Day — Real 3D Model (HUD & UI Props)
o assets01_model_003
usemtl assets01_model_003_mat

v 3.6300 6.5200 -0.0100
v 0.0000 0.0000 -0.0100
v 0.0000 0.0000 -0.0100
v 0.0000 0.0000 -0.0100
v 2.3500 0.7600 -0.0100
v 7.9100 0.7600 -0.0100
v 0.8300 1.9200 -0.0100
v 6.6600 6.5200 -0.0100
v 3.6300 6.5200 -0.0100
v 7.6600 7.0800 -0.0100
v 7.1300 8.3500 -0.0100
v 5.1600 9.4300 -0.0100
v 8.2300 9.6100 -0.0100
v 6.9100 10.2900 -0.0100
v 3.1500 8.3500 -0.0100
v 2.6100 7.0800 -0.0100
v 3.3800 10.2300 -0.0100
v 2.0500 9.6100 -0.0100
v 7.9100 0.7600 -0.0100
v 9.4300 1.9200 -0.0100
v 7.9100 0.7600 -0.0100
v 0.8300 1.9200 -0.0100
v 7.1600 8.0900 -0.0100
v 3.1200 8.0900 -0.0100
v 8.2300 9.6100 -0.0100
v 6.7500 10.1000 -0.0100
v 6.9100 10.2900 -0.0100
v 3.0300 -8.4700 -0.0100
v 5.2500 -2.4100 -0.0100
v 9.0000 -1.2000 -0.0100
v 7.5900 -8.4700 -0.0100
v 7.9100 0.7600 -0.0100
v 1.3500 -3.7500 -0.0100
v 2.4700 1.4100 -0.0100
v 7.8200 1.4100 -0.0100
v 9.4300 1.9200 -0.0100
v 3.5400 10.1000 -0.0100
v 2.0500 9.6100 -0.0100
v 3.3800 10.2300 -0.0100
v 3.1200 8.0900 -0.0100
v 7.1600 8.0900 -0.0100
v 3.5400 10.1000 -0.0200
v 6.7500 10.1000 -0.0200
v 7.1600 8.0900 -0.0200
v 2.4700 1.4100 -0.0100
v 0.8300 1.9200 -0.0100
v 4.9500 4.6500 -0.0100
v 9.1600 1.1500 -0.0100
v 1.0100 0.7000 -0.0100
v 7.1700 20.4900 -0.0100
v 2.9100 20.3800 -0.0100
v 10.1700 9.3300 -0.0100
v 5.1200 14.8700 -0.0100
v 0.7000 10.0000 -0.0100
v 7.1600 18.2000 -0.0100
v 2.5100 16.4800 -0.0100
v 4.9500 4.6500 -0.0100
v 9.1600 1.1500 -0.0100
v 4.9500 4.6500 -0.0100
v 1.0100 0.7000 -0.0100
v 5.1200 14.8700 -0.0100
v 0.7000 10.0000 -0.0100
v 2.9100 20.3800 -0.0100
v 5.1200 14.8700 -0.0100
v 10.1700 9.3300 -0.0100
v 2.5100 16.4800 -0.0100
v 7.1600 18.2000 -0.0100
v 1.2100 3.5800 -0.0100
v 2.0200 6.6900 -0.0100
v 0.0100 6.5000 -0.0100
v 2.7200 0.2400 -0.0100
v 4.0400 3.5500 -0.0100
v 1.2100 3.5800 -0.0100
v 1.3000 0.2400 -0.0100
v 3.2900 -0.1600 -0.0100
v 3.9000 3.4600 -0.0100
v 3.3300 8.6400 -0.0100
v 5.1500 10.5200 -0.0100
v 3.1800 9.6900 -0.0100
v 2.0200 6.6900 -0.0100
v 0.0100 6.5000 -0.0100
v 1.0100 0.7000 -0.0100
v 9.1600 1.1500 -0.0100
v 4.9500 4.6500 -0.0100
v 2.9100 20.3800 -0.0100
v 7.1600 18.2000 -0.0100
v 7.1700 20.4900 -0.0100
v 5.1200 14.8700 -0.0100
v 10.1700 9.3300 -0.0100
v 0.7000 10.0000 -0.0100
v 2.5100 16.4800 -0.0100
v 4.9500 4.6500 -0.0100
v 9.1600 1.1500 -0.0100
v 4.9500 4.6500 -0.0100
v 1.0100 0.7000 -0.0100
v 0.7000 10.0000 -0.0100
v 5.1200 14.8700 -0.0100
v 2.5100 16.4800 -0.0100
v 7.1600 18.2000 -0.0100
v 2.9100 20.3800 -0.0100
v 10.1700 9.3300 -0.0100
v 5.1200 14.8700 -0.0100
v 1.2100 3.5800 -0.0100
v 0.0100 6.5000 -0.0100
v 2.0200 6.6900 -0.0100
v 1.3000 0.2400 -0.0100
v 2.7200 0.2400 -0.0100
v 3.2900 -0.1600 -0.0100
v 4.0400 3.5500 -0.0100
v 1.2100 3.5800 -0.0100
v 3.9000 3.4600 -0.0100
v 5.1500 10.5200 -0.0100
v 3.3300 8.6400 -0.0100
v 3.1800 9.6900 -0.0100
v 2.0200 6.6900 -0.0100
v 0.0100 6.5000 -0.0100
v 0.0000 0.0000 -2.5800
v 0.0000 0.0000 -0.0100
v 2.7000 4.1000 -2.5800
v 3.4800 4.4100 -2.5800
v 2.8200 4.2800 -2.5800
v 1.5000 7.6500 -2.5800
v 1.1100 6.9500 -2.5800
v 0.3600 6.4100 -2.5800
v 3.1000 1.0000 -2.5800
v 4.6700 1.1200 -2.5800
v 4.6900 1.3600 -2.5800
v 3.2200 1.0000 -2.5800
v 2.7000 4.1000 -2.5800
v 3.4800 4.4100 -2.5800
v 2.8200 4.2800 -2.5800
v 0.4700 5.9500 -2.5800
v 1.5000 7.6500 -2.5800
v 0.0000 0.0000 -2.5800
v 0.0000 0.0000 -0.0100
v 3.4800 4.4100 -2.5800
v 2.7000 4.1000 -2.5800
v 2.8200 4.2800 -2.5800
v 1.5000 7.6500 -2.5800
v 1.1100 6.9500 -2.5800
v 0.3600 6.4100 -2.5800
v 4.6700 1.1200 -2.5800
v 3.1000 1.0000 -2.5800
v 4.6900 1.3600 -2.5800
v 3.2200 1.0000 -2.5800
v 2.7000 4.1000 -2.5800
v 3.4800 4.4100 -2.5800
v 2.8200 4.2800 -2.5800
v 1.5000 7.6500 -2.5800
v 0.4700 5.9500 -2.5800
v 0.0000 0.0000 -0.0100
v 0.0000 0.0000 -1.7900
v 0.0000 0.0000 -1.7900
v 0.0000 0.0000 -0.0100
v 0.0000 0.0000 -1.3800
v 0.0000 0.0000 -1.7900
v 0.0000 0.0000 -1.7900
v 0.0000 0.0000 -1.3800
v 0.0000 0.0000 -1.7900
v 0.0000 0.0000 -1.7900
v 0.0000 0.0000 -1.7900
v 0.0000 0.0000 -1.7900
v 0.0000 0.0000 -38.6400
v 0.0000 0.0000 -0.0100
v 0.0000 0.0000 -0.0100
v 0.0000 0.0000 -38.6400
v 0.0000 0.0000 -0.0100
v 0.0000 0.0000 -0.0100
v 0.0000 0.0000 -1.7900
v 0.0000 0.0000 -0.0100
v 0.0000 0.0000 -38.6400
v 0.0000 0.0000 -38.6400
v 0.0000 0.0000 -38.6400
v 0.0000 0.0000 -0.0100
v 0.0000 0.0000 -1.7900
v 7.3500 1.6800 -0.0100
v 10.1500 2.8500 -0.0100
v 1.3100 9.5400 -0.0100
v 1.3900 7.7300 -0.0100
v 5.4200 8.7300 -0.0100
v 1.4300 9.5400 -0.0100
v 4.3500 8.6300 -0.0100
v 1.3900 7.7300 -0.0100
v 6.2500 0.8800 -0.0100
v 7.1100 0.9100 -0.0100
v 16.3200 11.6300 -0.0100
v 13.7800 9.5300 -0.0100
v 22.7200 7.1300 -0.0100
v 19.4300 2.5200 -0.0100
v 0.8400 1.2900 -0.0100
v 12.0500 9.4900 -0.0100
v 19.6000 7.0500 -0.0100
v 14.1500 11.5800 -0.0100
v 16.8700 2.4300 -0.0100
v 6.2500 0.8800 -0.0100
v 19.6000 7.0500 -0.0100
v 5.4200 8.7300 -0.0100
v 7.1100 0.9100 -0.0100
v 13.7800 9.5300 -0.0100
v 0.0000 2.9400 -0.0100
v 3.1300 1.9300 -0.0100
v 10.1500 2.8500 -0.0100
v 8.8400 13.3600 -0.0100
v 0.9000 12.1900 -0.0100
v -0.2700 2.7500 -0.0100
v 9.5000 11.9300 -0.0100
v 1.6600 13.0900 -0.0100
v 0.0000 2.9400 -0.0100
v 10.8800 3.2800 -0.0100
v 0.0000 0.0000 -0.2700
v 0.0000 0.0000 -0.2700
v 0.0000 0.0000 -0.2700
v 0.0000 0.0000 -1.7900
v 0.0000 0.0000 -1.7900
v 0.0000 0.0000 -1.7900
v 0.0000 0.0000 -1.7900
v 0.0000 0.0000 -1.7900
v 0.0000 0.0000 -1.7900
v 0.0000 0.0000 -1.7900
v 0.0000 0.0000 -0.0100
v 0.0000 0.0000 -0.2700
v 0.0000 0.0000 -0.2700
v 0.0000 0.0000 -0.2700
v 0.0000 0.0000 -0.2700
v 0.0000 0.0000 -0.2700
v 0.0000 0.0000 -1.7900
v 0.0000 0.0000 -1.7900
v 0.0000 0.0000 -1.7900
v 0.0000 0.0000 -0.0100
v 0.0000 0.0000 -0.0100
v 0.0000 0.0000 -0.0100
v 0.0000 0.0000 -0.2700
v 0.0000 0.0000 -0.2700
v 0.0000 0.0000 -0.2700
v 0.0000 0.0000 -0.2700
v 0.0000 0.0000 -0.2700
v -1.4900 2.7800 -0.0100
v 2.1000 -0.1900 -0.0100
v 7.2400 17.3700 -0.0100
v 9.9600 2.2700 -0.0100
v -1.3300 20.3300 -0.0100
v -1.4700 2.2800 -0.0100
v 10.5600 3.2300 -0.0100
v 1.7200 -0.1000 -0.0100
v 7.1200 17.4200 -0.0100
v -1.2700 18.6500 -0.0100
v 0.0000 22.6000 0.3200
v 0.3200 0.6400 0.0000
v 0.3200 0.6400 0.0000
v 0.0000 28.3400 0.0000
v 0.0000 28.3500 0.3200
v 0.3200 0.6400 0.0000
v 0.0000 15.6600 0.0000
v 0.0000 26.1300 0.6400
v 0.6400 0.3200 0.0000
v 0.0000 30.9200 0.0000
v 0.0000 30.9600 0.3200
v 0.3200 0.3200 0.0000
v 0.0000 30.9800 0.0000
v 0.0000 31.0000 0.6400
v 0.6400 0.3200 0.0000
v 0.0000 30.9900 0.0000
v 0.0000 30.9300 0.3200
v 0.3200 0.6400 0.0000
v 0.0000 19.4000 0.0000
v 0.0000 19.4100 0.3200
v 0.3200 0.6400 0.0000
v 0.0000 19.4400 0.0000
v 0.0000 19.4500 0.3200
v 0.3200 0.6400 0.0000
v 0.0000 19.3500 0.0000
v 0.0000 36.5100 0.3200
v 0.3200 0.3200 0.0000
v 0.0000 36.5200 0.0000
v 0.0000 36.5300 0.3200
v 0.3200 0.3200 0.0000
v 0.0000 36.5600 0.0000
v 12.8000 20.5800 0.0000
v 12.9400 0.1000 0.0000
v -28.0000 0.0000 17.9200
v -33.2800 0.0000 18.2300
v -28.1600 2.5600 15.3600
v -7.5200 0.0000 0.6400
v 12.8800 25.7200 0.0000
v 12.8800 15.4600 0.0000
v 12.9400 5.2000 0.0000
v 12.9600 25.7400 0.0000
v -7.5200 0.0000 0.0000
v -33.2800 0.0000 18.1400
v -28.1600 10.2400 0.0900
v 12.8400 0.0600 0.0000
v 12.8000 5.1600 0.0000
v 12.8600 5.1200 0.0000
v 12.9000 30.8600 0.0000
v -7.6900 -3.6900 -27.9300
v 12.8000 5.2400 0.0000
v -7.5200 0.0000 0.6400
v 12.8400 15.4400 0.0000
v 12.9800 20.5800 0.0000
v 12.8400 25.6800 0.0000
v -7.5200 0.0000 1.2800
v 12.9200 35.9400 0.0000
v 12.8400 30.8200 0.0000
v 12.9800 5.2800 0.0000
v 12.9200 10.4400 0.0000
v 12.8000 15.4600 0.0000
v 12.8800 5.1600 0.0000
v 12.8200 20.5800 0.0000
v -7.6900 -3.6900 -27.9300
v 12.9200 5.1200 0.0000
v -7.5200 0.0000 0.6400
v 12.8400 15.4400 0.0000
v 12.8800 25.7200 0.0000
v 12.9000 20.5200 0.0000
v -7.5200 0.0000 1.2800
v 12.9000 30.8600 0.0000
v 12.9000 35.9200 0.0000
v 12.9600 15.5400 0.0000
v 13.0000 20.6200 0.0000
v 12.9000 0.0200 0.0000
v 12.8800 15.4000 0.0000
v 12.9000 10.3000 0.0000
v -7.6900 -3.6900 -27.9300
v 12.8600 20.5800 0.0000
v 12.9200 35.9400 0.0000
v -7.5200 0.0000 0.0000
v -33.2800 0.0000 18.0500
v -28.1600 5.1200 0.0900
v -28.1600 5.6000 5.2000
v 12.9000 5.1600 0.0000
v 12.8800 30.7800 0.0000
v 12.9000 10.3600 0.0000
v 12.8000 5.1600 0.0000
v 12.9200 20.5400 0.0000
v -7.5200 0.0000 1.2800
v 12.8400 0.1000 0.0000
v 12.8600 30.8000 0.0000
v 12.9200 10.3400 0.0000
v 12.8000 5.1600 0.0000
v 12.8600 25.6800 0.0000
v 12.8200 15.4000 0.0000
v 12.8800 25.7400 0.0000
v 12.8000 10.3000 0.0000
v 12.8800 5.1200 0.0000
v 12.8000 5.1600 0.0000
v 12.8600 0.0400 0.0000
v 12.8400 5.2600 0.0000
v 13.0000 36.0200 0.0000
v 12.9400 30.9000 0.0000
v 13.0600 0.0600 0.0000
v 12.8600 5.3400 0.0000
v 13.0200 5.3800 0.0000
v 12.8200 15.6400 0.0000
v 12.9000 30.8600 0.0000
v -7.5200 0.0000 28.1600
v -33.2800 0.0000 18.2300
v -7.5200 0.0000 0.0000
v -33.2800 0.0000 18.5500
v 12.8000 5.1600 0.0000
v 12.9000 20.6000 0.0000
v 13.0000 36.0600 0.0000
v 13.0400 25.7200 0.0000
v 12.8000 5.1600 0.0000
v -7.5200 0.0000 25.6000
v -7.5200 0.0000 28.1600
v -33.2800 0.0000 18.2300
v 12.8600 0.0400 0.0000
v -7.5200 0.0000 25.6000
v 12.8800 30.8600 0.0000
v -7.6900 -3.6900 -27.9300
v 13.0200 30.8600 0.0000
v 13.0600 36.0200 0.0000
v 12.8000 15.3800 0.0000
v 12.8600 0.1000 0.0000
v 12.9400 10.3600 0.0000
v 12.9800 20.6400 0.0000
v 13.0400 36.1000 0.0000
v 12.9000 5.2400 0.0000
v -7.5200 0.0000 15.3600
v -33.2800 0.0000 18.5500
v -28.0800 20.4800 0.0900
v 12.8000 5.1600 0.0000
v 12.8600 25.6200 0.0000
v -7.5200 0.0000 17.9200
v -33.2800 0.0000 18.5500
v 12.9200 36.0000 0.0000
v -21.5200 1.3100 1.9400
v 1.3200 0.0000 1.4100
vt 0.0283 0.0049
vt 0.0107 -0.0098
vt 0.0176 0.0010
vt -0.0186 -0.0029
vt 0.0186 -0.0029
vt -0.0293 0.0049
vt 0.0098 0.0176
vt -0.0107 0.0176
vt 0.0127 0.0264
vt 0.0127 0.0283
vt 0.0000 0.0342
vt 0.0205 0.0352
vt 0.0117 0.0400
vt -0.0137 0.0283
vt -0.0137 0.0264
vt -0.0117 0.0391
vt -0.0205 0.0352
vt 0.0186 -0.0029
vt 0.0283 0.0049
vt 0.0186 -0.0029
vt -0.0293 0.0049
vt 0.0127 0.0264
vt -0.0137 0.0264
vt 0.0205 0.0352
vt 0.0107 0.0391
vt 0.0117 0.0400
vt -0.0107 -0.0098
vt -0.0186 0.0010
vt 0.0176 0.0010
vt 0.0107 -0.0098
vt 0.0000 -0.0107
vt -0.0186 -0.0029
vt -0.0186 0.0010
vt 0.0176 0.0010
vt 0.0283 0.0049
vt -0.0107 0.0391
vt -0.0205 0.0352
vt -0.0117 0.0391
vt -0.0137 0.0264
vt 0.0127 0.0264
vt -0.0107 0.0391
vt 0.0107 0.0391
vt 0.0127 0.0264
vt -0.0186 0.0010
vt -0.0293 0.0049
vt 0.0039 -0.0088
vt -0.0166 -0.0088
vt 0.0039 -0.0088
vt 0.0059 -0.0176
vt 0.0068 -0.0176
vt -0.0186 -0.0176
vt -0.0020 0.0020
vt 0.0059 -0.0176
vt -0.0039 -0.0146
vt 0.0068 -0.0127
vt -0.0039 0.0059
vt -0.0166 -0.0088
vt -0.0039 0.0059
vt 0.0039 -0.0088
vt -0.0020 0.0020
vt 0.0059 -0.0176
vt 0.0068 -0.0176
vt -0.0020 0.0020
vt -0.0186 -0.0176
vt 0.0068 -0.0127
vt -0.0039 -0.0146
vt 0.0068 -0.0010
vt -0.0107 -0.0098
vt 0.0000 -0.0107
vt -0.0020 0.0020
vt -0.0078 -0.0010
vt 0.0068 -0.0010
vt 0.0068 -0.0127
vt -0.0039 -0.0146
vt -0.0078 -0.0166
vt -0.0186 -0.0029
vt -0.0293 0.0049
vt -0.0186 0.0010
vt -0.0107 -0.0098
vt 0.0000 -0.0107
vt -0.0029 -0.0078
vt 0.0176 -0.0078
vt 0.0039 0.0068
vt 0.0039 -0.0176
vt 0.0059 0.0010
vt 0.0039 -0.0176
vt 0.0029 0.0020
vt 0.0195 -0.0176
vt -0.0059 -0.0176
vt -0.0049 0.0020
vt 0.0039 0.0068
vt 0.0176 -0.0078
vt 0.0039 0.0068
vt -0.0029 -0.0078
vt -0.0059 -0.0176
vt 0.0029 0.0020
vt -0.0049 0.0020
vt 0.0059 0.0010
vt -0.0068 -0.0176
vt 0.0195 -0.0176
vt 0.0029 0.0020
vt -0.0068 0.0000
vt 0.0000 -0.0107
vt 0.0107 -0.0098
vt -0.0049 0.0020
vt 0.0029 0.0020
vt 0.0059 0.0010
vt 0.0088 0.0000
vt -0.0068 0.0000
vt 0.0088 -0.0166
vt 0.0283 0.0049
vt 0.0186 -0.0029
vt 0.0176 0.0010
vt 0.0107 -0.0098
vt 0.0000 -0.0107
vt 0.0010 -0.0283
vt 0.0010 -0.0283
vt -0.0088 -0.0068
vt -0.0186 -0.0195
vt -0.0098 -0.0176
vt -0.0205 0.0352
vt -0.0137 0.0283
vt -0.0137 0.0264
vt -0.0020 -0.0205
vt -0.0068 -0.0225
vt -0.0127 -0.0186
vt -0.0020 -0.0205
vt -0.0117 -0.0244
vt -0.0186 -0.0195
vt -0.0098 -0.0176
vt -0.0137 0.0264
vt -0.0205 0.0352
vt -0.0078 -0.0078
vt -0.0020 -0.0283
vt 0.0078 -0.0068
vt 0.0117 -0.0244
vt 0.0107 -0.0176
vt 0.0205 0.0352
vt 0.0127 0.0283
vt 0.0127 0.0264
vt 0.0068 -0.0215
vt 0.0010 -0.0195
vt 0.0127 -0.0176
vt 0.0010 -0.0195
vt 0.0117 -0.0244
vt 0.0186 -0.0195
vt 0.0107 -0.0176
vt 0.0205 0.0352
vt 0.0127 0.0264
vt 0.0254 0.0332
vt 0.0195 0.0273
vt 0.0322 0.0078
vt -0.0371 0.0215
vt -0.0254 0.0332
vt -0.0176 0.0469
vt -0.0186 0.0498
vt 0.0000 0.0469
vt 0.0215 0.0576
vt -0.0186 0.0498
vt 0.0195 0.0273
vt 0.0186 0.0498
vt -0.0186 0.0498
vt -0.0098 0.0098
vt -0.0107 -0.0010
vt 0.0049 0.0078
vt 0.0107 -0.0010
vt 0.0117 0.0020
vt -0.0107 0.0615
vt -0.0186 0.0498
vt -0.0039 0.0088
vt -0.0107 -0.0010
vt 0.0107 -0.0010
vt 0.0107 0.0098
vt 0.0107 0.0615
vt 0.0186 0.0498
vt 0.0000 0.0244
vt -0.0215 0.0264
vt 0.0000 0.0195
vt 0.0068 0.0225
vt 0.0000 0.0244
vt -0.0059 0.0225
vt 0.0000 0.0195
vt -0.0107 0.0020
vt 0.0117 0.0020
vt 0.0254 0.0332
vt 0.0215 0.0264
vt 0.0371 0.0215
vt 0.0322 0.0078
vt 0.0000 0.0020
vt -0.0215 0.0264
vt -0.0371 0.0215
vt -0.0254 0.0332
vt -0.0322 0.0078
vt -0.0107 0.0020
vt -0.0371 0.0215
vt 0.0068 0.0225
vt 0.0117 0.0020
vt 0.0215 0.0264
vt 0.0215 0.0264
vt 0.0068 0.0225
vt 0.0000 0.0244
vt 0.0000 0.0469
vt -0.0176 0.0469
vt -0.0215 0.0264
vt 0.0166 0.0459
vt 0.0000 0.0469
vt 0.0000 0.0244
vt 0.0215 0.0264
vt 0.0000 0.0352
vt 0.0342 0.0068
vt -0.0332 0.0068
vt 0.0000 0.0400
vt -0.0381 0.0068
vt 0.0000 0.0215
vt 0.0000 -0.0283
vt 0.0000 -0.0078
vt 0.0000 -0.0078
vt 0.0000 -0.0078
vt 0.0000 0.0029
vt 0.0000 -0.0264
vt -0.0332 0.0068
vt 0.0342 0.0068
vt 0.0000 -0.0264
vt 0.0000 0.0352
vt 0.0000 -0.0361
vt 0.0000 -0.0361
vt -0.0234 0.0029
vt 0.0000 -0.0283
vt 0.0000 0.0029
vt 0.0000 0.0029
vt -0.0332 0.0068
vt 0.0000 -0.0264
vt 0.0000 -0.0264
vt 0.0342 0.0068
vt 0.0000 0.0352
vt 0.0215 0.0264
vt 0.0068 0.0225
vt 0.0166 0.0459
vt 0.0215 0.0264
vt 0.0000 0.0469
vt 0.0000 0.0244
vt -0.0215 0.0264
vt -0.0059 0.0225
vt -0.0176 0.0469
vt 0.0000 0.0469
vt 0.0000 6.3750
vt 0.0000 1.5303
vt 0.0000 3.3408
vt 0.0000 7.5508
vt 0.0312 0.0625
vt 0.0000 2.7705
vt 0.0000 4.5020
vt 0.0625 0.0156
vt 0.0000 2.5508
vt 0.0000 3.5635
vt 0.0312 0.0312
vt 0.0000 3.0225
vt 0.0000 3.0244
vt 0.0156 0.0312
vt 0.0000 3.0215
vt 0.0000 3.0283
vt 0.0156 0.0312
vt 0.0000 1.8916
vt 0.0000 1.8936
vt 0.0312 0.0625
vt 0.0000 1.8965
vt 0.0000 1.8975
vt 0.0312 0.0625
vt 0.0000 1.9004
vt 0.0000 1.8887
vt 0.0312 0.0625
vt 0.0000 3.5645
vt 0.0000 3.5713
vt 0.0312 0.0312
vt 0.0000 3.5684
vt 0.0000 3.5693
vt 0.0312 0.0312
vt 1.2617 1.0000
vt 1.2617 0.0137
vt -6.5000 0.0000
vt -6.2500 0.0000
vt -6.5000 0.0000
vt -4.0000 0.0000
vt 1.2500 6.0039
vt 1.2578 0.0059
vt 1.2578 0.5000
vt 1.2598 4.0176
vt -6.5000 0.0000
vt -6.2500 0.0000
vt -2.7500 0.5625
vt 1.2578 1.0059
vt 1.2559 0.0078
vt 1.2559 4.0176
vt -6.2500 0.0000
vt -10.2500 0.0020
vt -6.2500 0.0000
vt -4.0000 0.0000
vt 1.2676 7.0195
vt 1.2617 5.0176
vt 1.2598 1.0059
vt -4.0000 0.0000
vt 1.2637 0.5098
vt 1.2656 0.5137
vt 1.2539 0.5176
vt 1.2598 1.5039
vt 1.2559 2.0039
vt 1.2578 0.0098
vt -6.2500 0.0000
vt -10.2500 0.0020
vt -6.2500 0.0000
vt -4.0000 0.0000
vt 1.2676 5.0215
vt 1.2617 3.5156
vt 1.2559 1.0078
vt -4.0000 0.0000
vt 1.2598 1.5117
vt 1.2617 1.5156
vt 1.2676 1.5078
vt 1.2578 0.0098
vt 1.2578 1.0000
vt 1.2598 0.5039
vt -6.2500 0.0000
vt -10.2500 0.0020
vt 1.2598 2.0117
vt 1.2578 4.0117
vt -6.5000 0.0000
vt -6.2500 0.0000
vt -2.7500 0.5312
vt 1.2676 5.0234
vt 1.2539 1.5117
vt 1.2578 0.5098
vt 1.2637 2.0156
vt 1.2559 2.0098
vt 1.2559 3.5117
vt -4.0000 0.0000
vt 1.2617 1.5039
vt 1.2598 0.0078
vt 1.2637 2.0156
vt 1.2539 1.5078
vt 1.2617 2.5059
vt 1.2539 2.0137
vt 1.2656 4.5195
vt 1.2520 2.0098
vt 1.2559 1.0117
vt 1.2559 2.0098
vt 1.2617 3.5020
vt 1.2656 4.5117
vt 1.2578 1.5215
vt 1.2500 6.0020
vt 1.2559 2.5254
vt 1.2559 5.5234
vt 1.2559 6.0273
vt 1.2578 2.5117
vt 1.2500 0.5039
vt -6.5000 0.0000
vt -6.2500 0.0000
vt -6.5000 0.0000
vt -6.2500 0.0000
vt 1.2559 2.0020
vt 1.2637 1.0098
vt 1.2637 2.5234
vt 1.2754 3.0078
vt 1.2559 2.0098
vt -4.0000 0.0000
vt -6.5000 0.0000
vt -6.2500 0.0000
vt -10.2500 11.2520
vt -4.0000 0.0000
vt -6.2500 0.0000
vt -10.2500 0.0020
vt 1.2617 6.0156
vt 1.2773 4.5195
vt 1.2578 0.5059
vt 1.2598 0.0039
vt 1.2559 4.0078
vt 1.2715 4.5156
vt 1.2715 4.0273
vt 1.2617 1.0137
vt -6.5000 0.0000
vt -6.2500 0.0000
vt -3.5000 8.0020
vt 1.2559 0.5078
vt -6.2500 0.0000
vt -6.5000 0.0000
vt -6.2500 0.0000
vt 1.2637 3.0176
vt -9.7783 14.1992
vt -15.9316 -28.7178
f 49/49 3/3 70/70
f 128/128 128/128 128/128
f 50/50 2/2 93/93
f 68/68 3/3 68/68
f 76/76 1/1 122/122
f 128/128 128/128 128/128
f 50/50 2/2 93/93
f 1/1 2/2 5/5
f 1/1 5/5 6/6
f 7/7 3/3 1/1
f 8/8 1/1 6/6
f 7/7 1/1 8/8
f 2/2 9/9 5/5
f 9/9 2/2 4/4
f 7/7 9/9 3/3
f 4/4 3/3 9/9
f 11/11 12/12 13/13
f 10/10 14/14 15/15
f 10/10 16/16 14/14
f 1/1 12/12 13/13
f 2/2 14/14 1/1
f 1/1 3/3 4/4
f 5/5 6/6 7/7
f 1/1 13/13 3/3
f 5/5 4/4 6/6
f 5/5 1/1 4/4
f 8/8 9/9 2/2
f 10/10 11/11 5/5
f 9/9 15/15 2/2
f 11/11 8/8 5/5
f 8/8 2/2 5/5
f 5/5 2/2 1/1
f 6/6 7/7 8/8
f 9/9 6/6 8/8
f 6/6 9/9 10/10
f 10/10 11/11 12/12
f 1/1 13/13 2/2
f 1/1 14/14 13/13
f 3/3 1/1 4/4
f 5/5 3/3 4/4
f 15/15 14/14 1/1
f 1/1 2/2 3/3
f 4/4 1/1 5/5
f 4/4 2/2 1/1
f 4/4 9/9 10/10
f 6/6 7/7 8/8
f 6/6 7/7 8/8
f 8/8 9/9 6/6
f 7/7 6/6 1/1
f 1/1 2/2 7/7
f 3/3 4/4 5/5
f 10/10 15/15 11/11
f 15/15 12/12 13/13
f 10/10 12/12 15/15
f 16/16 14/14 11/11
f 10/10 5/5 6/6
f 7/7 11/11 10/10
f 8/8 9/9 1/1
f 2/2 1/1 9/9
f 3/3 6/6 5/5
f 6/6 3/3 4/4
f 13/13 14/14 12/12
f 7/7 8/8 6/6
f 8/8 2/2 6/6
f 3/3 7/7 6/6
f 9/9 2/2 8/8
f 10/10 2/2 9/9
f 3/3 2/2 10/10
f 7/7 3/3 11/11
f 6/6 4/4 3/3
f 1/1 4/4 6/6
f 4/4 5/5 3/3
f 5/5 2/2 3/3
f 5/5 1/1 6/6
f 2/2 5/5 6/6
f 6/6 7/7 8/8
f 8/8 9/9 6/6
f 1/1 8/8 7/7
f 7/7 2/2 1/1
f 3/3 4/4 5/5
f 10/10 11/11 12/12
f 13/13 14/14 11/11
f 11/11 14/14 12/12
f 10/10 15/15 16/16
f 5/5 6/6 7/7
f 7/7 8/8 9/9
f 1/1 10/10 11/11
f 10/10 1/1 2/2
f 6/6 5/5 3/3
f 4/4 3/3 5/5
f 12/12 13/13 14/14
f 6/6 7/7 8/8
f 6/6 4/4 7/7
f 6/6 8/8 5/5
f 7/7 4/4 9/9
f 9/9 4/4 10/10
f 10/10 4/4 5/5
f 11/11 5/5 8/8
f 5/5 1/1 6/6
f 6/6 1/1 2/2
f 5/5 3/3 1/1
f 5/5 4/4 3/3
f 6/6 2/2 3/3
f 6/6 3/3 4/4
f 1/1 2/2 3/3
f 4/4 5/5 6/6
f 6/6 5/5 7/7
f 7/7 8/8 6/6
f 5/5 9/9 7/7
f 7/7 9/9 8/8
f 10/10 11/11 13/13
f 12/12 14/14 11/11
f 13/13 11/11 14/14
f 10/10 15/15 12/12
f 14/14 12/12 15/15
f 5/5 1/1 2/2
f 6/6 2/2 3/3
f 3/3 4/4 7/7
f 5/5 7/7 4/4
f 5/5 2/2 6/6
f 6/6 3/3 7/7
f 8/8 5/5 9/9
f 1/1 2/2 3/3
f 4/4 5/5 6/6
f 7/7 5/5 4/4
f 4/4 8/8 7/7
f 7/7 9/9 5/5
f 8/8 9/9 7/7
f 13/13 10/10 11/11
f 10/10 14/14 12/12
f 14/14 10/10 13/13
f 12/12 15/15 11/11
f 15/15 12/12 14/14
f 1/1 2/2 5/5
f 3/3 1/1 6/6
f 7/7 4/4 3/3
f 4/4 7/7 5/5
f 6/6 1/1 5/5
f 7/7 3/3 6/6
f 8/8 5/5 9/9
f 1/1 2/2 3/3
f 3/3 4/4 5/5
f 4/4 6/6 5/5
f 7/7 6/6 4/4
f 2/2 4/4 3/3
f 3/3 5/5 8/8
f 5/5 6/6 8/8
f 9/9 10/10 11/11
f 12/12 13/13 14/14
f 13/13 9/9 14/14
f 13/13 12/12 15/15
f 9/9 13/13 10/10
f 12/12 16/16 15/15
f 1/1 2/2 3/3
f 1/1 3/3 4/4
f 2/2 5/5 6/6
f 5/5 2/2 1/1
f 4/4 3/3 7/7
f 8/8 9/9 6/6
f 8/8 10/10 9/9
f 2/2 11/11 3/3
f 12/12 13/13 14/14
f 1/1 2/2 3/3
f 4/4 5/5 6/6
f 4/4 1/1 3/3
f 7/7 8/8 2/2
f 3/3 2/2 8/8
f 9/9 10/10 7/7
f 11/11 8/8 10/10
f 5/5 4/4 12/12
f 8/8 7/7 10/10
f 1/1 13/13 2/2
f 14/14 1/1 4/4
f 4/4 6/6 14/14
f 8/8 9/9 10/10
f 9/9 11/11 10/10
f 1/1 2/2 3/3
f 4/4 2/2 12/12
f 4/4 12/12 13/13
f 12/12 2/2 14/14
f 4/4 13/13 15/15
f 2/2 4/4 15/15
f 5/5 6/6 7/7
f 9/9 4/4 5/5
f 10/10 9/9 5/5
f 11/11 4/4 9/9
f 12/12 10/10 5/5
f 12/12 5/5 4/4
f 6/6 7/7 8/8
f 1/1 2/2 3/3
f 13/13 14/14 15/15
f 1/1 2/2 3/3
f 4/4 5/5 2/2
f 6/6 5/5 7/7
f 8/8 3/3 6/6
f 9/9 10/10 11/11
f 10/10 8/8 11/11
f 11/11 8/8 12/12
f 8/8 6/6 13/13
f 13/13 6/6 7/7
f 14/14 7/7 5/5
f 15/15 14/14 16/16
f 15/15 7/7 14/14
f 1/1 2/2 3/3
f 4/4 5/5 6/6
f 7/7 8/8 9/9
f 1/1 2/2 3/3
f 4/4 1/1 3/3
f 5/5 6/6 7/7
f 5/5 7/7 8/8
f 12/12 7/7 8/8
f 7/7 13/13 9/9
f 14/14 8/8 10/10
f 15/15 10/10 11/11
f 1/1 4/4 2/2
f 5/5 2/2 4/4
f 4/4 1/1 6/6
f 6/6 1/1 3/3
f 2/2 7/7 3/3
f 8/8 3/3 7/7
f 4/4 9/9 5/5
f 10/10 5/5 9/9
f 12/12 10/10 9/9
f 13/13 8/8 14/14
f 12/12 9/9 15/15
f 15/15 9/9 11/11
f 14/14 8/8 7/7
f 16/16 10/10 12/12
f 8/8 13/13 11/11
f 15/15 11/11 13/13
f 6/6 1/1 3/3
f 4/4 1/1 5/5
f 6/6 2/2 7/7
f 7/7 3/3 8/8
f 1/1 2/2 3/3
f 4/4 2/2 5/5
f 4/4 6/6 2/2
f 7/7 8/8 9/9
f 8/8 7/7 10/10
f 11/11 10/10 7/7
