mtllib assets0E_model_043.mtl
# Conker's Bad Fur Day — Real 3D Model (Sloprano Models)
o assets0E_model_043
usemtl assets0E_model_043_mat

v 20.4800 0.0000 0.0000
v 0.3200 2.9200 -2.5600
v 20.4800 0.0000 0.0000
v 20.4800 0.0000 0.0000
v 20.4800 0.0000 0.0000
v 20.4800 0.0000 0.0000
v 20.4800 0.0000 0.0000
v 20.4800 0.0000 0.0000
v 20.4800 0.0000 0.0000
v 20.4800 0.0000 0.0000
v 20.4800 0.0000 0.0000
v 20.4800 0.0000 0.0000
v 20.4800 0.0000 0.0000
v 20.4800 0.0000 0.0000
vt 0.1250 0.5029
vt -0.3779 -3.4775
vt 0.1250 0.0654
vt 0.1250 0.0654
vt 0.1250 0.0654
vt 0.1250 0.0654
vt 0.1250 0.0654
vt 0.1250 0.0654
vt 0.1250 0.0654
vt 0.1250 0.0654
vt 0.1250 0.0654
vt 0.1250 0.0654
vt 0.1250 0.0654
vt 0.1250 0.0654
f 1/1 2/2 3/3
f 4/4 5/5 6/6
f 7/7 8/8 9/9
f 10/10 11/11 12/12
