# Conker's Bad Fur Day — Real 3D Model (Multiplayer Level Models)
o assets09_model_084

v 0.0000 7.7600 0.0000
v 10.2400 0.0000 -0.0100
v 10.2400 10.2400 -0.0100
v 0.0000 10.2400 -0.0100
v 0.0000 0.0000 -0.0100
v 0.0000 10.2400 -0.0100
v 10.2400 10.2400 -0.0100
v 10.2400 0.0000 -0.0100
v 0.0000 0.0000 -0.0100
v 0.0000 0.0000 -0.0100
v 0.0000 0.0000 -0.0100
v 0.0000 0.0000 -0.0100
v 0.0000 0.0000 -0.0100
v 0.0000 0.0000 -0.0100
v 0.0000 0.0000 -0.0100
v 0.0000 0.0000 -0.0100
v 0.0000 0.0000 -0.0100
v 0.0000 0.0000 -0.0100
v 0.0000 0.0000 -0.0100
v 0.0000 0.0000 -0.0100
v 0.0000 0.0000 -0.0100
v 0.0000 0.0000 -0.0100
v 0.0000 0.0000 -0.0100
v 0.0000 0.0000 -0.0100
v 0.0000 0.0000 -0.0100
v 0.0000 0.0000 -0.0100
v 0.0000 0.0000 -0.0100
v 0.0000 0.0000 -0.0100
v 0.0000 0.0000 -0.0100
v 0.0000 0.0000 -0.0100
v 0.0000 0.0000 -0.0100
v 0.0000 0.0000 -0.0100
v 0.0000 0.0000 -0.0100
v 0.0000 0.0000 -0.0100
v 0.0000 0.0000 -0.0100
v 0.0000 0.0000 -0.0100
v 0.0000 0.0000 -0.0100
v 0.0000 0.0000 -0.0100
v 0.0000 0.0000 -0.0100
v 0.0000 0.0000 -0.0100
v 0.0000 0.0000 -0.0100
v 0.0000 0.0000 -0.0100
v 0.0000 0.0000 -0.0100
v 0.0000 0.0000 -0.0100
v 0.0000 0.0000 -0.0100
v 0.0000 0.0000 -0.0100
v 0.0000 0.0000 -0.0100
v 0.0000 0.0000 -0.0100
v -27.9200 0.0000 17.9200
v -33.2800 0.0000 18.5500
v 15.3600 5.1600 0.0600
v -28.0000 0.0000 17.9200
v -33.2800 0.0000 18.3400
v -28.1600 2.5600 15.3600
v -7.5200 0.0000 0.6400
v -28.0800 11.5200 2.5700
v -28.0800 6.7200 5.1200
v -28.0800 6.8000 7.6800
v 12.8000 10.3600 0.0000
v 15.5200 5.1200 0.1400
v 12.8600 0.0400 0.0000
vt 0.0000 0.0000
vt -0.0273 -0.0195
vt -0.0459 -0.0195
vt -0.0459 -0.0195
vt 0.0068 -0.0195
vt -0.0117 -0.0195
vt -0.0117 -0.0195
vt 0.0068 -0.0195
vt -0.0186 -0.0195
vt -0.0176 -0.0186
vt -0.0195 -0.0205
vt -0.0195 -0.0225
vt -0.0215 -0.0186
vt -0.0215 -0.0186
vt -0.0205 -0.0195
vt -0.0195 -0.0205
vt -0.0195 -0.0195
vt -0.0195 -0.0293
vt -0.0293 -0.0195
vt -0.0293 -0.0195
vt -0.0195 -0.0293
vt -0.0195 -0.0098
vt -0.0098 -0.0195
vt -0.0195 -0.0098
vt -0.0098 -0.0195
vt -0.0293 -0.0195
vt -0.0195 -0.0098
vt -0.0195 -0.0293
vt -0.0098 -0.0195
vt -0.0293 -0.0195
vt -0.0195 -0.0293
vt -0.0195 -0.0098
vt -0.0098 -0.0195
vt -0.0195 -0.0273
vt -0.0195 -0.0273
vt -0.0273 -0.0195
vt -0.0273 -0.0195
vt -0.0195 -0.0127
vt -0.0195 -0.0127
vt -0.0117 -0.0195
vt -0.0117 -0.0195
vt -0.0195 -0.0195
vt -0.0166 -0.0176
vt -0.0195 -0.0234
vt -0.0195 -0.0195
vt -0.0225 -0.0176
vt -0.0195 -0.0195
vt 0.0000 0.7656
vt -6.5000 0.0000
vt -6.2500 0.0000
vt -6.2500 0.0000
vt -6.5000 0.0000
vt -6.2500 0.0000
vt -6.5000 0.0000
vt -4.0000 0.0000
vt -3.5000 8.0020
vt -3.5000 8.0020
vt -3.5000 8.0020
vt -9.5049 -0.0010
vt -9.5049 -0.0010
vt -9.5049 -0.0010
f 1/1 2/2 3/3
f 1/1 3/3 4/4
f 1/1 2/2 3/3
f 4/4 1/1 3/3
f 7/7 8/8 5/5
f 1/1 7/7 5/5
f 1/1 3/3 7/7
f 9/9 2/2 1/1
f 8/8 1/1 3/3
f 1/1 2/2 3/3
f 2/2 4/4 5/5
f 4/4 1/1 3/3
