# Conker's Bad Fur Day — Real 3D Model (Sloprano Models)
o assets0E_model_019

v 20.5100 0.0000 0.0000
v 20.5100 0.0000 0.0000
v 20.4800 0.0000 0.0000
v 20.4800 0.0000 0.0000
v 20.4800 0.0000 0.0000
v 20.4800 0.0000 0.0000
v 20.4800 0.0000 0.0000
v 20.4800 0.0000 0.0000
v 20.4800 0.0000 0.0000
v 20.4800 0.0000 0.0000
v 20.4800 0.0000 0.0000
v 20.4800 0.0000 0.0000
v 20.4800 0.0000 0.0000
v 20.5000 0.0000 0.0000
v 20.4800 0.0000 0.0000
v 20.4800 0.0000 0.0000
v 20.4800 0.0000 0.0000
v 20.4800 0.0000 0.0000
v 20.4800 0.0000 0.0000
v 20.4800 0.0000 0.0000
v 20.4800 0.0000 0.0000
v 20.4800 0.0000 0.0000
v 20.4800 0.0000 0.0000
v 20.4800 0.0000 0.0000
v 20.4800 0.0000 0.0000
v 20.4800 0.0000 0.0000
v 20.4800 0.0000 0.0000
v 20.4800 0.0000 0.0000
v 20.4800 0.0000 0.0000
v 20.4800 0.0000 0.0000
vt 0.0156 0.0908
vt 0.0156 0.0830
vt 0.0000 16.0654
vt 0.0312 16.0654
vt 0.0312 16.0654
vt 0.0000 0.5654
vt 0.0000 0.5654
vt 0.0000 0.5654
vt 0.0312 16.0654
vt 0.0312 16.0654
vt 0.0000 -15.9346
vt 0.0000 16.0654
vt 0.0000 16.0654
vt 0.0000 16.0654
vt 0.0000 0.0654
vt 0.0000 0.0654
vt 0.0000 0.0654
vt 0.0000 0.0654
vt 0.0000 -31.9346
vt 0.0000 -31.9346
vt 0.0000 -31.9346
vt 0.0000 -31.9346
vt 0.0000 -31.9346
vt 0.0000 16.0654
vt 0.0000 -31.9346
vt 0.0000 0.5654
vt 0.0000 0.5654
vt 0.0000 0.5654
vt 0.0000 0.5654
vt 0.0000 0.5654
f 1/1 1/1 1/1
f 1/1 1/1 5/5
f 1/1 1/1 5/5
f 1/1 1/1 5/5
