# Conker's Bad Fur Day — Real Character 3D Mesh (Extracted from ROM assets03)
o ConkerCharacter

v 0.0000 18.9600 0.0000
v -27.3600 0.0000 17.9200
v -7.5200 0.0000 0.6400
v 2.5800 0.6400 2.5600
v 2.5800 0.6400 2.5600
v -6.8800 0.0000 0.0000
v -27.4400 20.4800 0.0900
v -7.5200 0.0000 0.6400
v -6.8800 0.0000 0.0000
v -27.5200 10.2400 0.0100
v -27.5200 5.7600 2.5700
v -27.5200 5.9200 5.1200
v -27.5200 6.0000 7.6800
v -27.5200 6.0400 10.2400
v -7.5200 0.0000 1.2800
v -27.9200 0.0000 17.9200
v -7.4400 0.0000 0.0000
v -7.4400 0.0000 0.0000
vt 0.0000 0.0000
vt -3.2500 0.0000
vt -2.6562 0.2500
vt 4.8945 -27.8379
vt 4.9072 4.0996
vt -3.2500 0.0000
vt -3.4375 1.0000
vt -6.5000 0.0000
vt -3.2500 0.0000
vt -3.4375 1.0000
vt -3.4688 0.5000
vt -3.4844 0.2500
vt -3.4922 0.1250
vt -3.4961 0.0625
vt -6.5000 0.0000
vt -3.2500 0.0000
vt -3.2500 0.0000
vt -3.2500 0.0000
f 11/11 8/8 12/12
f 8/8 11/11 9/9
f 13/13 14/14 15/15
f 13/13 15/15 16/16
